<svg width="321" height="238" viewBox="0 0 321 238" fill="none" xmlns="http://www.w3.org/2000/svg">
<g clip-path="url(#clip0_323_7455)">
<rect x="4" y="1.92725" width="313" height="37" rx="4" stroke="#404040" stroke-width="2"/>
<path d="M18.9714 25.0636C18.3407 25.0636 17.7967 24.9244 17.3393 24.646C16.8848 24.3647 16.5339 23.9727 16.2868 23.4699C16.0424 22.9642 15.9203 22.3761 15.9203 21.7057C15.9203 21.0352 16.0424 20.4443 16.2868 19.9329C16.5339 19.4187 16.8777 19.0182 17.318 18.7312C17.7612 18.4415 18.2782 18.2966 18.8691 18.2966C19.21 18.2966 19.5467 18.3534 19.8791 18.467C20.2115 18.5807 20.514 18.7653 20.7868 19.021C21.0595 19.2738 21.2768 19.6091 21.4387 20.0267C21.6007 20.4443 21.6816 20.9585 21.6816 21.5693V21.9954H16.6362V21.1261H20.6589C20.6589 20.7568 20.585 20.4272 20.4373 20.1375C20.2924 19.8477 20.085 19.619 19.8152 19.4514C19.5481 19.2838 19.2328 19.2 18.8691 19.2C18.4686 19.2 18.122 19.2994 17.8294 19.4983C17.5396 19.6943 17.3166 19.95 17.1603 20.2653C17.0041 20.5807 16.926 20.9187 16.926 21.2795V21.8591C16.926 22.3534 17.0112 22.7724 17.1816 23.1162C17.3549 23.4571 17.595 23.717 17.9018 23.896C18.2086 24.0721 18.5652 24.1602 18.9714 24.1602C19.2356 24.1602 19.4743 24.1233 19.6873 24.0494C19.9032 23.9727 20.0893 23.8591 20.2456 23.7085C20.4018 23.5551 20.5225 23.3647 20.6078 23.1375L21.5794 23.4102C21.4771 23.7397 21.3052 24.0295 21.0637 24.2795C20.8223 24.5267 20.524 24.7199 20.1689 24.8591C19.8137 24.9954 19.4146 25.0636 18.9714 25.0636ZM23.2115 24.9272V18.3818H24.1831V19.4045H24.2683C24.4047 19.0551 24.6248 18.7838 24.9288 18.5906C25.2328 18.3946 25.5978 18.2966 26.024 18.2966C26.4558 18.2966 26.8152 18.3946 27.1021 18.5906C27.3919 18.7838 27.6177 19.0551 27.7797 19.4045H27.8478C28.0154 19.0665 28.2669 18.798 28.6021 18.5991C28.9373 18.3974 29.3393 18.2966 29.8081 18.2966C30.3933 18.2966 30.872 18.4798 31.2441 18.8463C31.6163 19.2099 31.8024 19.7767 31.8024 20.5466V24.9272H30.7967V20.5466C30.7967 20.0636 30.6646 19.7184 30.4004 19.5111C30.1362 19.3037 29.8251 19.2 29.4672 19.2C29.0069 19.2 28.6504 19.3392 28.3976 19.6176C28.1447 19.8932 28.0183 20.2426 28.0183 20.6659V24.9272H26.9956V20.4443C26.9956 20.0721 26.8748 19.7724 26.6333 19.5451C26.3919 19.315 26.0808 19.2 25.7001 19.2C25.4387 19.2 25.1944 19.2696 24.9672 19.4088C24.7427 19.548 24.5609 19.7412 24.4217 19.9883C24.2853 20.2326 24.2172 20.5153 24.2172 20.8363V24.9272H23.2115ZM33.6412 24.9272V18.3818H34.6468V24.9272H33.6412ZM34.1525 17.2909C33.9565 17.2909 33.7875 17.2241 33.6454 17.0906C33.5062 16.9571 33.4366 16.7966 33.4366 16.6091C33.4366 16.4216 33.5062 16.2611 33.6454 16.1275C33.7875 15.994 33.9565 15.9272 34.1525 15.9272C34.3485 15.9272 34.5162 15.994 34.6554 16.1275C34.7974 16.2611 34.8684 16.4216 34.8684 16.6091C34.8684 16.7966 34.7974 16.9571 34.6554 17.0906C34.5162 17.2241 34.3485 17.2909 34.1525 17.2909ZM37.4945 16.2V24.9272H36.4888V16.2H37.4945ZM39.9842 27.3818C39.8137 27.3818 39.6618 27.3676 39.5282 27.3392C39.3947 27.3136 39.3024 27.288 39.2512 27.2625L39.5069 26.3761C39.7512 26.4386 39.9672 26.4613 40.1547 26.4443C40.3422 26.4272 40.5083 26.3434 40.6532 26.1929C40.801 26.0451 40.9359 25.8051 41.0581 25.4727L41.2456 24.9613L38.8251 18.3818H39.916L41.7228 23.5977H41.791L43.5978 18.3818H44.6887L41.9103 25.8818C41.7853 26.2199 41.6305 26.4997 41.4458 26.7213C41.2612 26.9457 41.0467 27.1119 40.8024 27.2199C40.5609 27.3278 40.2882 27.3818 39.9842 27.3818ZM47.7431 25.0807C47.3283 25.0807 46.9519 25.0025 46.6138 24.8463C46.2757 24.6872 46.0073 24.4585 45.8084 24.1602C45.6096 23.8591 45.5101 23.4954 45.5101 23.0693C45.5101 22.6943 45.584 22.3903 45.7317 22.1574C45.8794 21.9216 46.0769 21.7369 46.324 21.6034C46.5712 21.4699 46.8439 21.3704 47.1422 21.3051C47.4434 21.2369 47.7459 21.1829 48.0499 21.1432C48.4476 21.092 48.7701 21.0537 49.0172 21.0281C49.2672 20.9997 49.449 20.9528 49.5627 20.8875C49.6792 20.8221 49.7374 20.7085 49.7374 20.5466V20.5125C49.7374 20.092 49.6223 19.7653 49.3922 19.5324C49.165 19.2994 48.8198 19.1829 48.3567 19.1829C47.8766 19.1829 47.5002 19.288 47.2275 19.4983C46.9547 19.7085 46.763 19.9329 46.6522 20.1716L45.6976 19.8307C45.8681 19.4329 46.0953 19.1233 46.3794 18.9017C46.6664 18.6772 46.9789 18.521 47.3169 18.4329C47.6578 18.342 47.9931 18.2966 48.3226 18.2966C48.5328 18.2966 48.7743 18.3221 49.0471 18.3733C49.3226 18.4216 49.5882 18.5224 49.8439 18.6758C50.1025 18.8292 50.3169 19.0608 50.4874 19.3704C50.6578 19.6801 50.7431 20.0949 50.7431 20.6147V24.9272H49.7374V24.0409H49.6863C49.6181 24.1829 49.5044 24.3349 49.3453 24.4968C49.1863 24.6588 48.9746 24.7966 48.7104 24.9102C48.4462 25.0238 48.1238 25.0807 47.7431 25.0807ZM47.8965 24.1772C48.2942 24.1772 48.6294 24.0991 48.9022 23.9429C49.1777 23.7866 49.3851 23.5849 49.5243 23.3378C49.6664 23.0906 49.7374 22.8307 49.7374 22.5579V21.6375C49.6948 21.6886 49.601 21.7355 49.4561 21.7781C49.3141 21.8179 49.1493 21.8534 48.9618 21.8846C48.7772 21.913 48.5968 21.9386 48.4206 21.9613C48.2473 21.9812 48.1067 21.9983 47.9988 22.0125C47.7374 22.0466 47.4931 22.102 47.2658 22.1787C47.0414 22.2525 46.8596 22.3647 46.7203 22.5153C46.584 22.663 46.5158 22.8647 46.5158 23.1204C46.5158 23.4699 46.6451 23.7341 46.9036 23.913C47.165 24.0892 47.4959 24.1772 47.8965 24.1772ZM57.6071 27.2284C56.7377 27.2284 55.9693 27.1091 55.3017 26.8704C54.6341 26.6346 54.073 26.2866 53.6184 25.8264C53.1639 25.3662 52.8201 24.8022 52.5872 24.1346C52.3542 23.467 52.2377 22.7028 52.2377 21.842C52.2377 21.0096 52.3556 20.2653 52.5914 19.6091C52.8301 18.9528 53.1752 18.396 53.627 17.9386C54.0815 17.4784 54.6326 17.1275 55.2804 16.8861C55.9309 16.6446 56.6667 16.5238 57.4877 16.5238C58.286 16.5238 58.9849 16.6545 59.5843 16.9159C60.1866 17.1744 60.6895 17.5253 61.0929 17.9684C61.4991 18.4088 61.8031 18.9045 62.0048 19.4557C62.2093 20.0068 62.3116 20.575 62.3116 21.1602C62.3116 21.5721 62.2917 21.9897 62.252 22.413C62.2122 22.8363 62.1284 23.2255 62.0005 23.5807C61.8727 23.9329 61.6752 24.217 61.4082 24.4329C61.144 24.6488 60.786 24.7568 60.3343 24.7568C60.1355 24.7568 59.9167 24.7255 59.6781 24.663C59.4395 24.6005 59.2278 24.4968 59.0431 24.352C58.8585 24.2071 58.7491 24.0125 58.715 23.7682H58.6639C58.5957 23.9329 58.4906 24.0892 58.3485 24.2369C58.2093 24.3846 58.0261 24.5025 57.7988 24.5906C57.5744 24.6787 57.3002 24.717 56.9764 24.7057C56.6071 24.6915 56.2818 24.6091 56.0005 24.4585C55.7193 24.3051 55.4835 24.0977 55.2931 23.8363C55.1056 23.5721 54.9636 23.2667 54.867 22.9201C54.7733 22.5707 54.7264 22.1943 54.7264 21.7909C54.7264 21.4074 54.7832 21.0565 54.8968 20.7383C55.0105 20.4201 55.1681 20.1417 55.3699 19.9031C55.5744 19.6645 55.813 19.4741 56.0858 19.3321C56.3613 19.1872 56.6582 19.0977 56.9764 19.0636C57.2605 19.0352 57.519 19.048 57.752 19.102C57.9849 19.1531 58.1767 19.2312 58.3272 19.3363C58.4778 19.4386 58.573 19.5522 58.6127 19.6772H58.6639V19.2H59.5673V23.0522C59.5673 23.2909 59.6341 23.5011 59.7676 23.6829C59.9011 23.8647 60.0957 23.9557 60.3514 23.9557C60.6412 23.9557 60.8627 23.8562 61.0162 23.6574C61.1724 23.4585 61.2789 23.1517 61.3358 22.7369C61.3954 22.3221 61.4252 21.7909 61.4252 21.1432C61.4252 20.7625 61.3727 20.3875 61.2676 20.0182C61.1653 19.646 61.0091 19.298 60.7988 18.9741C60.5914 18.6503 60.3287 18.3647 60.0105 18.1176C59.6923 17.8704 59.3187 17.6772 58.8897 17.538C58.4636 17.396 57.9792 17.325 57.4366 17.325C56.769 17.325 56.171 17.4287 55.6426 17.6361C55.117 17.8406 54.6696 18.1403 54.3002 18.5352C53.9338 18.9272 53.6539 19.4045 53.4608 19.967C53.2704 20.5267 53.1752 21.163 53.1752 21.8761C53.1752 22.6005 53.2704 23.244 53.4608 23.8065C53.6539 24.369 53.938 24.8434 54.313 25.2298C54.6909 25.6162 55.1582 25.9088 55.715 26.1076C56.2718 26.3093 56.9139 26.4102 57.6412 26.4102C57.9537 26.4102 58.2619 26.3804 58.5659 26.3207C58.8699 26.2611 59.1383 26.1957 59.3713 26.1247C59.6042 26.0537 59.7718 26.0011 59.8741 25.967L60.1127 26.7511C59.9366 26.825 59.7065 26.8988 59.4224 26.9727C59.1412 27.0466 58.84 27.1076 58.519 27.1559C58.2008 27.2042 57.8968 27.2284 57.6071 27.2284ZM57.1127 23.8363C57.4934 23.8363 57.8017 23.7596 58.0375 23.6062C58.2733 23.4528 58.4451 23.2213 58.5531 22.9116C58.661 22.602 58.715 22.2113 58.715 21.7397C58.715 21.2625 58.6554 20.8903 58.536 20.6233C58.4167 20.3562 58.2406 20.1687 58.0076 20.0608C57.7747 19.9528 57.4877 19.8988 57.1468 19.8988C56.823 19.8988 56.546 19.9841 56.3159 20.1545C56.0886 20.3221 55.9139 20.5466 55.7917 20.8278C55.6724 21.1062 55.6127 21.4102 55.6127 21.7397C55.6127 22.1034 55.661 22.4457 55.7576 22.7667C55.8542 23.0849 56.0119 23.3434 56.2306 23.5423C56.4494 23.7383 56.7434 23.8363 57.1127 23.8363ZM66.459 27.5182C65.9732 27.5182 65.5556 27.4557 65.2061 27.3307C64.8567 27.2085 64.5655 27.0466 64.3326 26.8449C64.1025 26.646 63.9192 26.4329 63.7828 26.2057L64.584 25.6432C64.6749 25.7625 64.79 25.8988 64.9292 26.0522C65.0684 26.2085 65.2587 26.3434 65.5002 26.4571C65.7445 26.5736 66.0641 26.6318 66.459 26.6318C66.9874 26.6318 67.4235 26.504 67.7672 26.2483C68.111 25.9926 68.2828 25.592 68.2828 25.0466V23.717H68.1976C68.1238 23.8363 68.0186 23.9841 67.8823 24.1602C67.7488 24.3335 67.5556 24.4883 67.3027 24.6247C67.0527 24.7582 66.7147 24.825 66.2885 24.825C65.7601 24.825 65.2857 24.7 64.8652 24.45C64.4476 24.2 64.1167 23.8363 63.8723 23.3591C63.6309 22.8818 63.5101 22.3022 63.5101 21.6204C63.5101 20.95 63.628 20.3662 63.8638 19.869C64.0996 19.369 64.4277 18.9826 64.8482 18.7099C65.2686 18.4343 65.7544 18.2966 66.3056 18.2966C66.7317 18.2966 67.0698 18.3676 67.3198 18.5096C67.5726 18.6488 67.7658 18.8079 67.8993 18.9869C68.0357 19.163 68.1408 19.3079 68.2147 19.4216H68.3169V18.3818H69.2885V25.1147C69.2885 25.6772 69.1607 26.1346 68.905 26.4869C68.6522 26.842 68.3113 27.102 67.8823 27.2667C67.4561 27.4343 66.9817 27.5182 66.459 27.5182ZM66.4249 23.9216C66.8283 23.9216 67.1692 23.8292 67.4476 23.6446C67.726 23.4599 67.9377 23.1943 68.0826 22.8477C68.2275 22.5011 68.2999 22.0863 68.2999 21.6034C68.2999 21.1318 68.2289 20.7156 68.0868 20.3548C67.9448 19.994 67.7346 19.7113 67.4561 19.5068C67.1777 19.3022 66.834 19.2 66.4249 19.2C65.9988 19.2 65.6436 19.3079 65.3596 19.5238C65.0783 19.7397 64.8667 20.0295 64.7246 20.3932C64.5854 20.7568 64.5158 21.1602 64.5158 21.6034C64.5158 22.0579 64.5868 22.4599 64.7289 22.8093C64.8738 23.1559 65.0868 23.4287 65.3681 23.6275C65.6522 23.8236 66.0044 23.9216 66.4249 23.9216ZM71.1294 24.9272V18.3818H72.101V19.4045H72.1863C72.3226 19.0551 72.5428 18.7838 72.8468 18.5906C73.1507 18.3946 73.5158 18.2966 73.9419 18.2966C74.3738 18.2966 74.7331 18.3946 75.0201 18.5906C75.3098 18.7838 75.5357 19.0551 75.6976 19.4045H75.7658C75.9334 19.0665 76.1848 18.798 76.5201 18.5991C76.8553 18.3974 77.2573 18.2966 77.726 18.2966C78.3113 18.2966 78.79 18.4798 79.1621 18.8463C79.5343 19.2099 79.7203 19.7767 79.7203 20.5466V24.9272H78.7147V20.5466C78.7147 20.0636 78.5826 19.7184 78.3184 19.5111C78.0542 19.3037 77.7431 19.2 77.3851 19.2C76.9249 19.2 76.5684 19.3392 76.3155 19.6176C76.0627 19.8932 75.9363 20.2426 75.9363 20.6659V24.9272H74.9135V20.4443C74.9135 20.0721 74.7928 19.7724 74.5513 19.5451C74.3098 19.315 73.9988 19.2 73.6181 19.2C73.3567 19.2 73.1124 19.2696 72.8851 19.4088C72.6607 19.548 72.4789 19.7412 72.3397 19.9883C72.2033 20.2326 72.1351 20.5153 72.1351 20.8363V24.9272H71.1294ZM83.4853 25.0807C83.0705 25.0807 82.6941 25.0025 82.356 24.8463C82.0179 24.6872 81.7495 24.4585 81.5506 24.1602C81.3517 23.8591 81.2523 23.4954 81.2523 23.0693C81.2523 22.6943 81.3262 22.3903 81.4739 22.1574C81.6216 21.9216 81.8191 21.7369 82.0662 21.6034C82.3134 21.4699 82.5861 21.3704 82.8844 21.3051C83.1855 21.2369 83.4881 21.1829 83.7921 21.1432C84.1898 21.092 84.5123 21.0537 84.7594 21.0281C85.0094 20.9997 85.1912 20.9528 85.3049 20.8875C85.4213 20.8221 85.4796 20.7085 85.4796 20.5466V20.5125C85.4796 20.092 85.3645 19.7653 85.1344 19.5324C84.9071 19.2994 84.562 19.1829 84.0989 19.1829C83.6188 19.1829 83.2424 19.288 82.9696 19.4983C82.6969 19.7085 82.5051 19.9329 82.3944 20.1716L81.4398 19.8307C81.6103 19.4329 81.8375 19.1233 82.1216 18.9017C82.4086 18.6772 82.7211 18.521 83.0591 18.4329C83.4 18.342 83.7353 18.2966 84.0648 18.2966C84.275 18.2966 84.5165 18.3221 84.7892 18.3733C85.0648 18.4216 85.3304 18.5224 85.5861 18.6758C85.8446 18.8292 86.0591 19.0608 86.2296 19.3704C86.4 19.6801 86.4853 20.0949 86.4853 20.6147V24.9272H85.4796V24.0409H85.4284C85.3603 24.1829 85.2466 24.3349 85.0875 24.4968C84.9284 24.6588 84.7168 24.7966 84.4526 24.9102C84.1884 25.0238 83.8659 25.0807 83.4853 25.0807ZM83.6387 24.1772C84.0364 24.1772 84.3716 24.0991 84.6444 23.9429C84.9199 23.7866 85.1273 23.5849 85.2665 23.3378C85.4086 23.0906 85.4796 22.8307 85.4796 22.5579V21.6375C85.437 21.6886 85.3432 21.7355 85.1983 21.7781C85.0563 21.8179 84.8915 21.8534 84.704 21.8846C84.5194 21.913 84.339 21.9386 84.1628 21.9613C83.9895 21.9812 83.8489 21.9983 83.7409 22.0125C83.4796 22.0466 83.2353 22.102 83.008 22.1787C82.7836 22.2525 82.6017 22.3647 82.4625 22.5153C82.3262 22.663 82.258 22.8647 82.258 23.1204C82.258 23.4699 82.3873 23.7341 82.6458 23.913C82.9071 24.0892 83.2381 24.1772 83.6387 24.1772ZM88.3208 24.9272V18.3818H89.3265V24.9272H88.3208ZM88.8322 17.2909C88.6362 17.2909 88.4672 17.2241 88.3251 17.0906C88.1859 16.9571 88.1163 16.7966 88.1163 16.6091C88.1163 16.4216 88.1859 16.2611 88.3251 16.1275C88.4672 15.994 88.6362 15.9272 88.8322 15.9272C89.0282 15.9272 89.1958 15.994 89.335 16.1275C89.4771 16.2611 89.5481 16.4216 89.5481 16.6091C89.5481 16.7966 89.4771 16.9571 89.335 17.0906C89.1958 17.2241 89.0282 17.2909 88.8322 17.2909ZM92.1742 16.2V24.9272H91.1685V16.2H92.1742ZM94.7491 24.9954C94.5389 24.9954 94.3585 24.9201 94.2079 24.7696C94.0574 24.619 93.9821 24.4386 93.9821 24.2284C93.9821 24.0182 94.0574 23.8378 94.2079 23.6872C94.3585 23.5366 94.5389 23.4613 94.7491 23.4613C94.9593 23.4613 95.1397 23.5366 95.2903 23.6872C95.4409 23.8378 95.5162 24.0182 95.5162 24.2284C95.5162 24.3676 95.4806 24.4954 95.4096 24.6119C95.3414 24.7284 95.2491 24.8221 95.1326 24.8932C95.019 24.9613 94.8912 24.9954 94.7491 24.9954ZM99.9799 25.0636C99.3663 25.0636 98.8379 24.9187 98.3947 24.629C97.9515 24.3392 97.6106 23.94 97.372 23.4315C97.1333 22.923 97.014 22.342 97.014 21.6886C97.014 21.0238 97.1362 20.4372 97.3805 19.9287C97.6277 19.4173 97.9714 19.0182 98.4118 18.7312C98.8549 18.4415 99.372 18.2966 99.9629 18.2966C100.423 18.2966 100.838 18.3818 101.207 18.5522C101.577 18.7227 101.879 18.9613 102.115 19.2682C102.351 19.575 102.497 19.9329 102.554 20.342H101.548C101.471 20.0437 101.301 19.7795 101.037 19.5494C100.775 19.3165 100.423 19.2 99.9799 19.2C99.5879 19.2 99.2441 19.3022 98.9487 19.5068C98.6561 19.7085 98.4274 19.994 98.2626 20.3633C98.1007 20.7298 98.0197 21.1602 98.0197 21.6545C98.0197 22.1602 98.0993 22.6005 98.2583 22.9755C98.4203 23.3505 98.6475 23.6417 98.9402 23.8491C99.2356 24.0565 99.5822 24.1602 99.9799 24.1602C100.241 24.1602 100.479 24.1147 100.692 24.0238C100.905 23.9329 101.085 23.8022 101.233 23.6318C101.381 23.4613 101.486 23.2568 101.548 23.0182H102.554C102.497 23.4045 102.356 23.7525 102.132 24.0622C101.91 24.369 101.616 24.6133 101.25 24.7951C100.886 24.9741 100.463 25.0636 99.9799 25.0636ZM106.683 25.0636C106.092 25.0636 105.574 24.923 105.128 24.6417C104.684 24.3605 104.338 23.967 104.088 23.4613C103.841 22.9557 103.717 22.3647 103.717 21.6886C103.717 21.0068 103.841 20.4116 104.088 19.9031C104.338 19.3946 104.684 18.9997 105.128 18.7184C105.574 18.4372 106.092 18.2966 106.683 18.2966C107.274 18.2966 107.791 18.4372 108.234 18.7184C108.68 18.9997 109.027 19.3946 109.274 19.9031C109.524 20.4116 109.649 21.0068 109.649 21.6886C109.649 22.3647 109.524 22.9557 109.274 23.4613C109.027 23.967 108.68 24.3605 108.234 24.6417C107.791 24.923 107.274 25.0636 106.683 25.0636ZM106.683 24.1602C107.132 24.1602 107.501 24.0451 107.791 23.815C108.081 23.5849 108.295 23.2824 108.434 22.9074C108.574 22.5324 108.643 22.1261 108.643 21.6886C108.643 21.2511 108.574 20.8434 108.434 20.4656C108.295 20.0878 108.081 19.7824 107.791 19.5494C107.501 19.3165 107.132 19.2 106.683 19.2C106.234 19.2 105.865 19.3165 105.575 19.5494C105.285 19.7824 105.071 20.0878 104.932 20.4656C104.792 20.8434 104.723 21.2511 104.723 21.6886C104.723 22.1261 104.792 22.5324 104.932 22.9074C105.071 23.2824 105.285 23.5849 105.575 23.815C105.865 24.0451 106.234 24.1602 106.683 24.1602ZM111.184 24.9272V18.3818H112.156V19.4045H112.241C112.377 19.0551 112.597 18.7838 112.901 18.5906C113.205 18.3946 113.57 18.2966 113.997 18.2966C114.428 18.2966 114.788 18.3946 115.075 18.5906C115.365 18.7838 115.59 19.0551 115.752 19.4045H115.82C115.988 19.0665 116.24 18.798 116.575 18.5991C116.91 18.3974 117.312 18.2966 117.781 18.2966C118.366 18.2966 118.845 18.4798 119.217 18.8463C119.589 19.2099 119.775 19.7767 119.775 20.5466V24.9272H118.769V20.5466C118.769 20.0636 118.637 19.7184 118.373 19.5111C118.109 19.3037 117.798 19.2 117.44 19.2C116.98 19.2 116.623 19.3392 116.37 19.6176C116.117 19.8932 115.991 20.2426 115.991 20.6659V24.9272H114.968V20.4443C114.968 20.0721 114.847 19.7724 114.606 19.5451C114.365 19.315 114.053 19.2 113.673 19.2C113.411 19.2 113.167 19.2696 112.94 19.4088C112.715 19.548 112.534 19.7412 112.394 19.9883C112.258 20.2326 112.19 20.5153 112.19 20.8363V24.9272H111.184Z" fill="#D4D4D4"/>
<path d="M4.15909 76.9272V68.2H6.97585C7.59517 68.2 8.11222 68.3193 8.52699 68.5579C8.9446 68.7937 9.25852 69.1147 9.46875 69.521C9.68182 69.9272 9.78835 70.3846 9.78835 70.8932C9.78835 71.4017 9.68324 71.8605 9.47301 72.2696C9.26278 72.6758 8.95028 72.9983 8.53551 73.2369C8.12074 73.4727 7.60511 73.5906 6.98864 73.5906H4.77273V72.8747H6.96733C7.42472 72.8747 7.80398 72.7895 8.10511 72.619C8.40625 72.4457 8.63068 72.2099 8.77841 71.9116C8.92898 71.6133 9.00426 71.2738 9.00426 70.8932C9.00426 70.5125 8.92898 70.173 8.77841 69.8747C8.63068 69.5764 8.40483 69.342 8.10085 69.1716C7.79972 69.0011 7.41761 68.9159 6.95455 68.9159H4.95597V76.9272H4.15909ZM13.3295 77.0764C12.9347 77.0764 12.5739 76.9997 12.2472 76.8463C11.9205 76.69 11.6605 76.4656 11.4673 76.173C11.2741 75.8775 11.1776 75.5196 11.1776 75.0991C11.1776 74.7753 11.2386 74.5025 11.3608 74.2809C11.483 74.0593 11.6563 73.8775 11.8807 73.7355C12.1051 73.5934 12.3707 73.4812 12.6776 73.3988C12.9844 73.3165 13.3224 73.2525 13.6918 73.2071C14.0582 73.1616 14.3679 73.1218 14.6207 73.0878C14.8764 73.0537 15.071 72.9997 15.2045 72.9258C15.3381 72.852 15.4048 72.7326 15.4048 72.5679V72.4145C15.4048 71.9684 15.2713 71.6176 15.0043 71.3619C14.7401 71.1034 14.3594 70.9741 13.8622 70.9741C13.3906 70.9741 13.0057 71.0778 12.7074 71.2852C12.4119 71.4926 12.2045 71.7369 12.0852 72.0182L11.3651 71.7582C11.5128 71.4003 11.7173 71.1147 11.9787 70.9017C12.2401 70.6858 12.5327 70.5309 12.8565 70.4372C13.1804 70.3406 13.5085 70.2923 13.8409 70.2923C14.0909 70.2923 14.3509 70.325 14.6207 70.3903C14.8935 70.4557 15.1463 70.5693 15.3793 70.7312C15.6122 70.8903 15.8011 71.1133 15.946 71.4003C16.0909 71.6843 16.1634 72.0451 16.1634 72.4826V76.9272H15.4048V75.8917H15.358C15.267 76.0849 15.1321 76.2724 14.9531 76.4542C14.7741 76.6361 14.5497 76.7852 14.2798 76.9017C14.0099 77.0182 13.6932 77.0764 13.3295 77.0764ZM13.4318 76.3818C13.8352 76.3818 14.1847 76.2923 14.4801 76.1133C14.7756 75.9343 15.0028 75.6971 15.1619 75.4017C15.3239 75.1034 15.4048 74.7753 15.4048 74.4173V73.4713C15.348 73.5253 15.2528 73.5736 15.1193 73.6162C14.9886 73.6588 14.8366 73.6971 14.6634 73.7312C14.4929 73.7625 14.3224 73.7895 14.152 73.8122C13.9815 73.8349 13.8281 73.8548 13.6918 73.8718C13.3224 73.9173 13.0071 73.9883 12.7457 74.0849C12.4844 74.1815 12.2841 74.315 12.1449 74.4855C12.0057 74.6531 11.9361 74.869 11.9361 75.1332C11.9361 75.5309 12.0781 75.8392 12.3622 76.0579C12.6463 76.2738 13.0028 76.3818 13.4318 76.3818ZM22.5788 71.8179L21.8842 72.0139C21.8161 71.8179 21.7195 71.6403 21.5945 71.4812C21.4695 71.3221 21.3061 71.1957 21.1044 71.102C20.9055 71.0082 20.6584 70.9613 20.3629 70.9613C19.9197 70.9613 19.5561 71.0665 19.272 71.2767C18.9879 71.4869 18.8459 71.7582 18.8459 72.0906C18.8459 72.3718 18.9425 72.6005 19.1357 72.7767C19.3317 72.95 19.6328 73.0878 20.0391 73.19L21.0277 73.4329C21.576 73.5665 21.9865 73.7781 22.2592 74.0679C22.5348 74.3576 22.6726 74.7213 22.6726 75.1588C22.6726 75.5281 22.5703 75.8562 22.3658 76.1432C22.1612 76.4301 21.8757 76.6559 21.5092 76.8207C21.1456 76.9826 20.7237 77.0636 20.2436 77.0636C19.6044 77.0636 19.0774 76.9201 18.6626 76.6332C18.2479 76.3434 17.9822 75.9258 17.8658 75.3804L18.5945 75.2014C18.6882 75.5906 18.8714 75.8846 19.1442 76.0835C19.4197 76.2824 19.782 76.3818 20.2308 76.3818C20.7337 76.3818 21.1357 76.2696 21.4368 76.0451C21.7379 75.8179 21.8885 75.5338 21.8885 75.1929C21.8885 74.9287 21.8004 74.7071 21.6243 74.5281C21.4482 74.3463 21.1811 74.2128 20.8232 74.1275L19.7536 73.8718C19.1854 73.7355 18.7649 73.5196 18.4922 73.2241C18.2195 72.9287 18.0831 72.5622 18.0831 72.1247C18.0831 71.7639 18.1811 71.4471 18.3771 71.1744C18.5732 70.8988 18.843 70.6829 19.1868 70.5267C19.5305 70.3704 19.9226 70.2923 20.3629 70.2923C20.9624 70.2923 21.4411 70.4287 21.799 70.7014C22.1598 70.9713 22.4197 71.3434 22.5788 71.8179ZM28.7312 71.8179L28.0366 72.0139C27.9684 71.8179 27.8718 71.6403 27.7468 71.4812C27.6218 71.3221 27.4585 71.1957 27.2567 71.102C27.0579 71.0082 26.8107 70.9613 26.5153 70.9613C26.0721 70.9613 25.7085 71.0665 25.4244 71.2767C25.1403 71.4869 24.9982 71.7582 24.9982 72.0906C24.9982 72.3718 25.0948 72.6005 25.288 72.7767C25.484 72.95 25.7852 73.0878 26.1914 73.19L27.18 73.4329C27.7283 73.5665 28.1388 73.7781 28.4116 74.0679C28.6871 74.3576 28.8249 74.7213 28.8249 75.1588C28.8249 75.5281 28.7227 75.8562 28.5181 76.1432C28.3136 76.4301 28.0281 76.6559 27.6616 76.8207C27.2979 76.9826 26.8761 77.0636 26.396 77.0636C25.7567 77.0636 25.2298 76.9201 24.815 76.6332C24.4002 76.3434 24.1346 75.9258 24.0181 75.3804L24.7468 75.2014C24.8406 75.5906 25.0238 75.8846 25.2965 76.0835C25.5721 76.2824 25.9343 76.3818 26.3832 76.3818C26.886 76.3818 27.288 76.2696 27.5891 76.0451C27.8903 75.8179 28.0408 75.5338 28.0408 75.1929C28.0408 74.9287 27.9528 74.7071 27.7766 74.5281C27.6005 74.3463 27.3335 74.2128 26.9755 74.1275L25.9059 73.8718C25.3377 73.7355 24.9173 73.5196 24.6445 73.2241C24.3718 72.9287 24.2354 72.5622 24.2354 72.1247C24.2354 71.7639 24.3335 71.4471 24.5295 71.1744C24.7255 70.8988 24.9954 70.6829 25.3391 70.5267C25.6829 70.3704 26.0749 70.2923 26.5153 70.2923C27.1147 70.2923 27.5934 70.4287 27.9513 70.7014C28.3121 70.9713 28.5721 71.3434 28.7312 71.8179ZM31.9389 76.9272L29.9616 70.3818H30.7628L32.3139 75.7809H32.3693L33.9162 70.3818H34.7216L36.2557 75.7682H36.3153L37.8665 70.3818H38.6676L36.6903 76.9272H35.9062L34.3551 71.5622H34.2741L32.723 76.9272H31.9389ZM42.4634 77.0636C41.8981 77.0636 41.3981 76.9201 40.9634 76.6332C40.5316 76.3463 40.1935 75.95 39.9492 75.4443C39.7049 74.9358 39.5827 74.3491 39.5827 73.6843C39.5827 73.0139 39.7049 72.4244 39.9492 71.9159C40.1935 71.4045 40.5316 71.0068 40.9634 70.7227C41.3981 70.4358 41.8981 70.2923 42.4634 70.2923C43.0288 70.2923 43.5273 70.4358 43.9592 70.7227C44.391 71.0096 44.729 71.4074 44.9734 71.9159C45.2205 72.4244 45.3441 73.0139 45.3441 73.6843C45.3441 74.3491 45.2219 74.9358 44.9776 75.4443C44.7333 75.95 44.3938 76.3463 43.9592 76.6332C43.5273 76.9201 43.0288 77.0636 42.4634 77.0636ZM42.4634 76.369C42.918 76.369 43.3029 76.2468 43.6183 76.0025C43.9336 75.7582 44.1722 75.4329 44.3342 75.0267C44.4989 74.6204 44.5813 74.173 44.5813 73.6843C44.5813 73.1957 44.4989 72.7468 44.3342 72.3378C44.1722 71.9287 43.9336 71.6005 43.6183 71.3534C43.3029 71.1062 42.918 70.9826 42.4634 70.9826C42.0117 70.9826 41.6268 71.1062 41.3086 71.3534C40.9933 71.6005 40.7532 71.9287 40.5884 72.3378C40.4265 72.7468 40.3455 73.1957 40.3455 73.6843C40.3455 74.173 40.4265 74.6204 40.5884 75.0267C40.7532 75.4329 40.9933 75.7582 41.3086 76.0025C41.6239 76.2468 42.0089 76.369 42.4634 76.369ZM47.0092 76.9272V70.3818H47.7464V71.3875H47.8018C47.9325 71.0579 48.1598 70.7923 48.4837 70.5906C48.8104 70.3861 49.1797 70.2838 49.5916 70.2838C49.6541 70.2838 49.7237 70.2852 49.8004 70.288C49.8771 70.2909 49.9411 70.2937 49.9922 70.2966V71.0679C49.9581 71.0622 49.8984 71.0537 49.8132 71.0423C49.728 71.0309 49.6357 71.0253 49.5362 71.0253C49.1953 71.0253 48.8913 71.0977 48.6243 71.2426C48.3601 71.3846 48.1513 71.5821 47.9979 71.8349C47.8445 72.0878 47.7678 72.3761 47.7678 72.7V76.9272H47.0092ZM53.4439 77.0636C52.907 77.0636 52.4368 76.9216 52.0334 76.6375C51.63 76.3534 51.3146 75.9571 51.0874 75.4486C50.8629 74.94 50.7507 74.3477 50.7507 73.6716C50.7507 72.9983 50.8629 72.4088 51.0874 71.9031C51.3146 71.3946 51.6314 70.9997 52.0376 70.7184C52.4439 70.4343 52.9169 70.2923 53.4567 70.2923C53.8544 70.2923 54.1854 70.3633 54.4496 70.5054C54.7138 70.6446 54.9254 70.8179 55.0845 71.0253C55.2436 71.2326 55.3672 71.4343 55.4553 71.6304H55.5234V68.2H56.2862V76.9272H55.5447V75.7128H55.4553C55.3672 75.9116 55.2422 76.1162 55.0803 76.3264C54.9183 76.5338 54.7038 76.7085 54.4368 76.8505C54.1726 76.9926 53.8416 77.0636 53.4439 77.0636ZM53.5334 76.369C53.9567 76.369 54.3175 76.254 54.6158 76.0238C54.9141 75.7909 55.1413 75.4713 55.2976 75.065C55.4567 74.6559 55.5362 74.1872 55.5362 73.6588C55.5362 73.1361 55.4581 72.6744 55.3018 72.2738C55.1456 71.8704 54.9183 71.5551 54.62 71.3278C54.3217 71.0977 53.9595 70.9826 53.5334 70.9826C53.0959 70.9826 52.7266 71.102 52.4254 71.3406C52.1271 71.5764 51.8999 71.896 51.7436 72.2994C51.5902 72.7028 51.5135 73.1559 51.5135 73.6588C51.5135 74.1673 51.5916 74.6261 51.7479 75.0352C51.9041 75.4443 52.1314 75.7696 52.4297 76.0111C52.7308 76.2497 53.0987 76.369 53.5334 76.369Z" fill="#D4D4D4"/>
<rect x="4" y="88.9272" width="313" height="37" rx="4" stroke="#404040" stroke-width="2"/>
<path d="M17.5909 108.109L17.6591 106.234L16.0739 107.24L15.6648 106.524L17.3352 105.655L15.6648 104.785L16.0739 104.069L17.6591 105.075L17.5909 103.2H18.4091L18.3409 105.075L19.9261 104.069L20.3352 104.785L18.6648 105.655L20.3352 106.524L19.9261 107.24L18.3409 106.234L18.4091 108.109H17.5909ZM23.5909 108.109L23.6591 106.234L22.0739 107.24L21.6648 106.524L23.3352 105.655L21.6648 104.785L22.0739 104.069L23.6591 105.075L23.5909 103.2H24.4091L24.3409 105.075L25.9261 104.069L26.3352 104.785L24.6648 105.655L26.3352 106.524L25.9261 107.24L24.3409 106.234L24.4091 108.109H23.5909ZM29.5909 108.109L29.6591 106.234L28.0739 107.24L27.6648 106.524L29.3352 105.655L27.6648 104.785L28.0739 104.069L29.6591 105.075L29.5909 103.2H30.4091L30.3409 105.075L31.9261 104.069L32.3352 104.785L30.6648 105.655L32.3352 106.524L31.9261 107.24L30.3409 106.234L30.4091 108.109H29.5909ZM35.5909 108.109L35.6591 106.234L34.0739 107.24L33.6648 106.524L35.3352 105.655L33.6648 104.785L34.0739 104.069L35.6591 105.075L35.5909 103.2H36.4091L36.3409 105.075L37.9261 104.069L38.3352 104.785L36.6648 105.655L38.3352 106.524L37.9261 107.24L36.3409 106.234L36.4091 108.109H35.5909ZM41.5909 108.109L41.6591 106.234L40.0739 107.24L39.6648 106.524L41.3352 105.655L39.6648 104.785L40.0739 104.069L41.6591 105.075L41.5909 103.2H42.4091L42.3409 105.075L43.9261 104.069L44.3352 104.785L42.6648 105.655L44.3352 106.524L43.9261 107.24L42.3409 106.234L42.4091 108.109H41.5909ZM47.5909 108.109L47.6591 106.234L46.0739 107.24L45.6648 106.524L47.3352 105.655L45.6648 104.785L46.0739 104.069L47.6591 105.075L47.5909 103.2H48.4091L48.3409 105.075L49.9261 104.069L50.3352 104.785L48.6648 105.655L50.3352 106.524L49.9261 107.24L48.3409 106.234L48.4091 108.109H47.5909ZM53.5909 108.109L53.6591 106.234L52.0739 107.24L51.6648 106.524L53.3352 105.655L51.6648 104.785L52.0739 104.069L53.6591 105.075L53.5909 103.2H54.4091L54.3409 105.075L55.9261 104.069L56.3352 104.785L54.6648 105.655L56.3352 106.524L55.9261 107.24L54.3409 106.234L54.4091 108.109H53.5909ZM59.5909 108.109L59.6591 106.234L58.0739 107.24L57.6648 106.524L59.3352 105.655L57.6648 104.785L58.0739 104.069L59.6591 105.075L59.5909 103.2H60.4091L60.3409 105.075L61.9261 104.069L62.3352 104.785L60.6648 105.655L62.3352 106.524L61.9261 107.24L60.3409 106.234L60.4091 108.109H59.5909ZM65.5909 108.109L65.6591 106.234L64.0739 107.24L63.6648 106.524L65.3352 105.655L63.6648 104.785L64.0739 104.069L65.6591 105.075L65.5909 103.2H66.4091L66.3409 105.075L67.9261 104.069L68.3352 104.785L66.6648 105.655L68.3352 106.524L67.9261 107.24L66.3409 106.234L66.4091 108.109H65.5909Z" fill="#D4D4D4"/>
<rect x="3.5" y="152.927" width="15" height="15" rx="2.5" stroke="#404040"/>
<path d="M30.3523 165.927V155.745H33.6385C34.361 155.745 34.9643 155.876 35.4482 156.138C35.9354 156.397 36.3016 156.756 36.5469 157.217C36.7955 157.674 36.9197 158.2 36.9197 158.793C36.9197 159.386 36.7955 159.91 36.5469 160.364C36.3016 160.818 35.937 161.173 35.4531 161.428C34.9692 161.683 34.3693 161.811 33.6534 161.811H30.8544V160.961H33.6286C34.1589 160.961 34.5997 160.873 34.951 160.697C35.3056 160.521 35.5691 160.271 35.7415 159.946C35.9171 159.622 36.005 159.237 36.005 158.793C36.005 158.349 35.9171 157.961 35.7415 157.63C35.5658 157.295 35.3007 157.036 34.946 156.854C34.5947 156.672 34.1506 156.581 33.6136 156.581H31.282V165.927H30.3523ZM34.8416 161.333L37.3473 165.927H36.2734L33.7926 161.333H34.8416ZM42.0057 166.086C41.2931 166.086 40.6766 165.921 40.1562 165.589C39.6359 165.254 39.2332 164.792 38.9482 164.202C38.6664 163.609 38.5256 162.926 38.5256 162.154C38.5256 161.385 38.6664 160.702 38.9482 160.106C39.2332 159.506 39.6259 159.037 40.1264 158.699C40.6302 158.357 41.2119 158.186 41.8714 158.186C42.2857 158.186 42.6851 158.263 43.0696 158.415C43.4541 158.564 43.7988 158.795 44.1037 159.106C44.4119 159.414 44.6555 159.804 44.8345 160.275C45.0135 160.742 45.103 161.295 45.103 161.935V162.373H39.1371V161.592H44.1982C44.1982 161.101 44.0987 160.661 43.8999 160.27C43.7043 159.875 43.4309 159.564 43.0795 159.335C42.7315 159.106 42.3288 158.992 41.8714 158.992C41.3875 158.992 40.9616 159.121 40.5938 159.38C40.2259 159.638 39.9375 159.98 39.7287 160.404C39.5232 160.828 39.4188 161.292 39.4155 161.796V162.263C39.4155 162.87 39.5199 163.4 39.7287 163.854C39.9408 164.305 40.2408 164.655 40.6286 164.903C41.0163 165.152 41.4754 165.276 42.0057 165.276C42.367 165.276 42.6835 165.22 42.9553 165.107C43.2304 164.994 43.4607 164.843 43.6463 164.655C43.8352 164.462 43.9777 164.252 44.0739 164.023L44.9141 164.297C44.7981 164.618 44.6075 164.915 44.3423 165.186C44.0805 165.458 43.7524 165.677 43.358 165.843C42.9669 166.005 42.5161 166.086 42.0057 166.086ZM47.0531 165.927V158.291H47.9132V159.464H47.9927C48.1452 159.07 48.3987 158.76 48.7534 158.534C49.1113 158.306 49.5405 158.191 50.041 158.191C50.568 158.191 51.0005 158.316 51.3386 158.564C51.68 158.81 51.9352 159.148 52.1042 159.579H52.1689C52.3412 159.154 52.6213 158.818 53.0091 158.569C53.4002 158.317 53.8741 158.191 54.4309 158.191C55.1402 158.191 55.7003 158.415 56.1113 158.863C56.5223 159.307 56.7278 159.956 56.7278 160.811V165.927H55.8429V160.811C55.8429 160.208 55.6887 159.756 55.3805 159.454C55.0723 159.153 54.6663 159.002 54.1625 159.002C53.5791 159.002 53.13 159.181 52.8152 159.539C52.5003 159.897 52.3429 160.351 52.3429 160.901V165.927H51.438V160.732C51.438 160.215 51.2939 159.797 51.0055 159.479C50.7172 159.161 50.3111 159.002 49.7875 159.002C49.4361 159.002 49.1196 159.088 48.8379 159.26C48.5595 159.433 48.3391 159.673 48.1767 159.981C48.0176 160.286 47.938 160.637 47.938 161.035V165.927H47.0531ZM62.158 166.086C61.4454 166.086 60.829 165.921 60.3086 165.589C59.7882 165.254 59.3855 164.792 59.1005 164.202C58.8188 163.609 58.6779 162.926 58.6779 162.154C58.6779 161.385 58.8188 160.702 59.1005 160.106C59.3855 159.506 59.7783 159.037 60.2788 158.699C60.7826 158.357 61.3642 158.186 62.0238 158.186C62.4381 158.186 62.8375 158.263 63.2219 158.415C63.6064 158.564 63.9511 158.795 64.256 159.106C64.5643 159.414 64.8079 159.804 64.9869 160.275C65.1658 160.742 65.2553 161.295 65.2553 161.935V162.373H59.2894V161.592H64.3505C64.3505 161.101 64.2511 160.661 64.0522 160.27C63.8567 159.875 63.5832 159.564 63.2319 159.335C62.8839 159.106 62.4812 158.992 62.0238 158.992C61.5399 158.992 61.114 159.121 60.7461 159.38C60.3782 159.638 60.0898 159.98 59.881 160.404C59.6755 160.828 59.5711 161.292 59.5678 161.796V162.263C59.5678 162.87 59.6722 163.4 59.881 163.854C60.0932 164.305 60.3931 164.655 60.7809 164.903C61.1687 165.152 61.6277 165.276 62.158 165.276C62.5193 165.276 62.8358 165.22 63.1076 165.107C63.3827 164.994 63.613 164.843 63.7987 164.655C63.9876 164.462 64.1301 164.252 64.2262 164.023L65.0664 164.297C64.9504 164.618 64.7598 164.915 64.4947 165.186C64.2328 165.458 63.9047 165.677 63.5103 165.843C63.1192 166.005 62.6684 166.086 62.158 166.086ZM67.2054 165.927V158.291H68.0655V159.464H68.1451C68.2975 159.07 68.5511 158.76 68.9057 158.534C69.2637 158.306 69.6929 158.191 70.1934 158.191C70.7203 158.191 71.1529 158.316 71.4909 158.564C71.8323 158.81 72.0875 159.148 72.2566 159.579H72.3212C72.4935 159.154 72.7736 158.818 73.1614 158.569C73.5525 158.317 74.0265 158.191 74.5833 158.191C75.2926 158.191 75.8527 158.415 76.2637 158.863C76.6747 159.307 76.8801 159.956 76.8801 160.811V165.927H75.9952V160.811C75.9952 160.208 75.8411 159.756 75.5328 159.454C75.2246 159.153 74.8186 159.002 74.3148 159.002C73.7315 159.002 73.2824 159.181 72.9675 159.539C72.6526 159.897 72.4952 160.351 72.4952 160.901V165.927H71.5904V160.732C71.5904 160.215 71.4462 159.797 71.1578 159.479C70.8695 159.161 70.4635 159.002 69.9398 159.002C69.5885 159.002 69.272 159.088 68.9902 159.26C68.7118 159.433 68.4914 159.673 68.329 159.981C68.1699 160.286 68.0904 160.637 68.0904 161.035V165.927H67.2054ZM79.407 165.927V155.745H80.2969V159.748H80.3764C80.4759 159.519 80.6184 159.284 80.804 159.042C80.9929 158.8 81.2398 158.597 81.5447 158.435C81.853 158.269 82.2408 158.186 82.7081 158.186C83.3345 158.186 83.8847 158.352 84.3587 158.684C84.8326 159.012 85.2022 159.472 85.4673 160.066C85.7325 160.656 85.8651 161.343 85.8651 162.129C85.8651 162.918 85.7325 163.609 85.4673 164.202C85.2055 164.795 84.8376 165.258 84.3636 165.589C83.893 165.921 83.3461 166.086 82.723 166.086C82.259 166.086 81.8712 166.003 81.5597 165.838C81.2514 165.672 81.0028 165.468 80.8139 165.226C80.625 164.981 80.4792 164.742 80.3764 164.51H80.267V165.927H79.407ZM80.282 162.114C80.282 162.731 80.3731 163.277 80.5554 163.755C80.741 164.229 81.0062 164.601 81.3509 164.873C81.6989 165.142 82.1198 165.276 82.6136 165.276C83.1207 165.276 83.55 165.137 83.9013 164.858C84.2526 164.577 84.5194 164.197 84.7017 163.72C84.884 163.243 84.9751 162.707 84.9751 162.114C84.9751 161.527 84.884 160.999 84.7017 160.528C84.5227 160.057 84.2576 159.685 83.9062 159.409C83.5549 159.131 83.1241 158.992 82.6136 158.992C82.1165 158.992 81.6939 159.126 81.3459 159.395C81.0012 159.66 80.7377 160.028 80.5554 160.498C80.3731 160.966 80.282 161.504 80.282 162.114ZM90.8963 166.086C90.1837 166.086 89.5672 165.921 89.0469 165.589C88.5265 165.254 88.1238 164.792 87.8388 164.202C87.5571 163.609 87.4162 162.926 87.4162 162.154C87.4162 161.385 87.5571 160.702 87.8388 160.106C88.1238 159.506 88.5166 159.037 89.017 158.699C89.5208 158.357 90.1025 158.186 90.7621 158.186C91.1764 158.186 91.5758 158.263 91.9602 158.415C92.3447 158.564 92.6894 158.795 92.9943 159.106C93.3026 159.414 93.5462 159.804 93.7251 160.275C93.9041 160.742 93.9936 161.295 93.9936 161.935V162.373H88.0277V161.592H93.0888C93.0888 161.101 92.9893 160.661 92.7905 160.27C92.5949 159.875 92.3215 159.564 91.9702 159.335C91.6222 159.106 91.2195 158.992 90.7621 158.992C90.2782 158.992 89.8523 159.121 89.4844 159.38C89.1165 159.638 88.8281 159.98 88.6193 160.404C88.4138 160.828 88.3094 161.292 88.3061 161.796V162.263C88.3061 162.87 88.4105 163.4 88.6193 163.854C88.8314 164.305 89.1314 164.655 89.5192 164.903C89.907 165.152 90.366 165.276 90.8963 165.276C91.2576 165.276 91.5741 165.22 91.8459 165.107C92.121 164.994 92.3513 164.843 92.5369 164.655C92.7259 164.462 92.8684 164.252 92.9645 164.023L93.8047 164.297C93.6887 164.618 93.4981 164.915 93.233 165.186C92.9711 165.458 92.643 165.677 92.2486 165.843C91.8575 166.005 91.4067 166.086 90.8963 166.086ZM95.9437 165.927V158.291H96.8038V159.464H96.8684C97.0209 159.08 97.286 158.77 97.6639 158.534C98.045 158.296 98.4759 158.177 98.9565 158.177C99.0294 158.177 99.1106 158.178 99.2001 158.182C99.2896 158.185 99.3642 158.188 99.4238 158.191V159.091C99.3841 159.085 99.3145 159.075 99.215 159.061C99.1156 159.048 99.0079 159.042 98.8919 159.042C98.4941 159.042 98.1395 159.126 97.8279 159.295C97.5197 159.461 97.2761 159.691 97.0971 159.986C96.9181 160.281 96.8287 160.618 96.8287 160.995V165.927H95.9437ZM104.871 165.927V158.291H105.732V159.464H105.811C105.964 159.07 106.217 158.76 106.572 158.534C106.93 158.306 107.359 158.191 107.859 158.191C108.386 158.191 108.819 158.316 109.157 158.564C109.498 158.81 109.754 159.148 109.923 159.579H109.987C110.16 159.154 110.44 158.818 110.827 158.569C111.219 158.317 111.692 158.191 112.249 158.191C112.959 158.191 113.519 158.415 113.93 158.863C114.341 159.307 114.546 159.956 114.546 160.811V165.927H113.661V160.811C113.661 160.208 113.507 159.756 113.199 159.454C112.891 159.153 112.485 159.002 111.981 159.002C111.397 159.002 110.948 159.181 110.634 159.539C110.319 159.897 110.161 160.351 110.161 160.901V165.927H109.256V160.732C109.256 160.215 109.112 159.797 108.824 159.479C108.536 159.161 108.129 159.002 107.606 159.002C107.254 159.002 106.938 159.088 106.656 159.26C106.378 159.433 106.157 159.673 105.995 159.981C105.836 160.286 105.756 160.637 105.756 161.035V165.927H104.871ZM119.976 166.086C119.264 166.086 118.647 165.921 118.127 165.589C117.607 165.254 117.204 164.792 116.919 164.202C116.637 163.609 116.496 162.926 116.496 162.154C116.496 161.385 116.637 160.702 116.919 160.106C117.204 159.506 117.597 159.037 118.097 158.699C118.601 158.357 119.183 158.186 119.842 158.186C120.256 158.186 120.656 158.263 121.04 158.415C121.425 158.564 121.769 158.795 122.074 159.106C122.383 159.414 122.626 159.804 122.805 160.275C122.984 160.742 123.074 161.295 123.074 161.935V162.373H117.108V161.592H122.169C122.169 161.101 122.069 160.661 121.871 160.27C121.675 159.875 121.402 159.564 121.05 159.335C120.702 159.106 120.3 158.992 119.842 158.992C119.358 158.992 118.932 159.121 118.564 159.38C118.197 159.638 117.908 159.98 117.699 160.404C117.494 160.828 117.39 161.292 117.386 161.796V162.263C117.386 162.87 117.491 163.4 117.699 163.854C117.912 164.305 118.211 164.655 118.599 164.903C118.987 165.152 119.446 165.276 119.976 165.276C120.338 165.276 120.654 165.22 120.926 165.107C121.201 164.994 121.431 164.843 121.617 164.655C121.806 164.462 121.948 164.252 122.045 164.023L122.885 164.297C122.769 164.618 122.578 164.915 122.313 165.186C122.051 165.458 121.723 165.677 121.329 165.843C120.938 166.005 120.487 166.086 119.976 166.086Z" fill="#D4D4D4"/>
<rect x="2" y="192.927" width="91" height="43" rx="8" stroke="#2562E9" stroke-width="2"/>
<rect x="4.5" y="195.427" width="86" height="38" rx="6.5" fill="#2563EB"/>
<rect x="4.5" y="195.427" width="86" height="38" rx="6.5" stroke="#0F172A" stroke-width="3"/>
<path d="M33.9062 212.493C33.8608 212.089 33.6733 211.777 33.3438 211.555C33.0142 211.331 32.5994 211.218 32.0994 211.218C31.7415 211.218 31.4318 211.275 31.1705 211.389C30.9091 211.5 30.706 211.653 30.5611 211.849C30.419 212.042 30.348 212.262 30.348 212.51C30.348 212.717 30.3963 212.896 30.4929 213.047C30.5923 213.197 30.7216 213.324 30.8807 213.426C31.0426 213.525 31.2159 213.609 31.4006 213.677C31.5852 213.743 31.7628 213.797 31.9332 213.839L32.7855 214.061C33.0639 214.129 33.3494 214.221 33.642 214.338C33.9347 214.454 34.206 214.608 34.456 214.798C34.706 214.988 34.9077 215.224 35.0611 215.505C35.2173 215.787 35.2955 216.123 35.2955 216.515C35.2955 217.01 35.1676 217.449 34.9119 217.832C34.6591 218.216 34.2912 218.518 33.8082 218.74C33.3281 218.961 32.7472 219.072 32.0653 219.072C31.4119 219.072 30.8466 218.968 30.3693 218.761C29.892 218.554 29.5185 218.26 29.2486 217.879C28.9787 217.495 28.8295 217.041 28.8011 216.515H30.1222C30.1477 216.831 30.25 217.093 30.429 217.304C30.6108 217.511 30.8423 217.666 31.1236 217.768C31.4077 217.868 31.7188 217.917 32.0568 217.917C32.429 217.917 32.7599 217.859 33.0497 217.743C33.3423 217.623 33.5724 217.458 33.7401 217.248C33.9077 217.035 33.9915 216.787 33.9915 216.503C33.9915 216.244 33.9176 216.032 33.7699 215.868C33.625 215.703 33.4276 215.566 33.1776 215.458C32.9304 215.351 32.6506 215.255 32.3381 215.173L31.3068 214.892C30.608 214.701 30.054 214.422 29.6449 214.052C29.2386 213.683 29.0355 213.194 29.0355 212.586C29.0355 212.083 29.1719 211.645 29.4446 211.27C29.7173 210.895 30.0866 210.603 30.5526 210.396C31.0185 210.186 31.544 210.081 32.1293 210.081C32.7202 210.081 33.2415 210.184 33.6932 210.392C34.1477 210.599 34.5057 210.885 34.767 211.248C35.0284 211.609 35.1648 212.024 35.1761 212.493H33.9062ZM36.7667 218.927V212.382H38.0408V218.927H36.7667ZM37.4102 211.372C37.1886 211.372 36.9982 211.298 36.8391 211.15C36.6829 211 36.6048 210.821 36.6048 210.613C36.6048 210.403 36.6829 210.224 36.8391 210.076C36.9982 209.926 37.1886 209.851 37.4102 209.851C37.6317 209.851 37.8207 209.926 37.9769 210.076C38.136 210.224 38.2156 210.403 38.2156 210.613C38.2156 210.821 38.136 211 37.9769 211.15C37.8207 211.298 37.6317 211.372 37.4102 211.372ZM42.4993 221.518C41.9794 221.518 41.532 221.45 41.157 221.314C40.7848 221.177 40.4808 220.997 40.245 220.772C40.0092 220.548 39.8331 220.302 39.7166 220.035L40.8118 219.583C40.8885 219.708 40.9908 219.841 41.1186 219.98C41.2493 220.122 41.4254 220.243 41.647 220.342C41.8714 220.441 42.1598 220.491 42.5121 220.491C42.995 220.491 43.3942 220.373 43.7095 220.137C44.0249 219.905 44.1825 219.532 44.1825 219.021V217.734H44.1016C44.0249 217.873 43.9141 218.028 43.7692 218.199C43.6271 218.369 43.4311 218.517 43.1811 218.642C42.9311 218.767 42.6058 218.829 42.2053 218.829C41.6882 218.829 41.2223 218.708 40.8075 218.467C40.3956 218.223 40.0689 217.863 39.8274 217.389C39.5888 216.912 39.4695 216.325 39.4695 215.629C39.4695 214.933 39.5874 214.336 39.8232 213.839C40.0618 213.342 40.3885 212.961 40.8033 212.697C41.218 212.43 41.6882 212.297 42.2138 212.297C42.62 212.297 42.9482 212.365 43.1982 212.501C43.4482 212.635 43.6428 212.791 43.782 212.97C43.924 213.149 44.0334 213.307 44.1101 213.443H44.2038V212.382H45.4524V219.072C45.4524 219.635 45.3217 220.096 45.0604 220.457C44.799 220.818 44.4453 221.085 43.9993 221.258C43.5561 221.432 43.0561 221.518 42.4993 221.518ZM42.4865 217.772C42.853 217.772 43.1626 217.687 43.4155 217.517C43.6712 217.343 43.8643 217.096 43.995 216.775C44.1286 216.451 44.1953 216.064 44.1953 215.612C44.1953 215.172 44.13 214.784 43.9993 214.449C43.8686 214.113 43.6768 213.852 43.424 213.664C43.1712 213.474 42.8587 213.379 42.4865 213.379C42.103 213.379 41.7834 213.478 41.5277 213.677C41.272 213.873 41.0788 214.14 40.9482 214.478C40.8203 214.816 40.7564 215.194 40.7564 215.612C40.7564 216.041 40.8217 216.417 40.9524 216.741C41.0831 217.065 41.2763 217.318 41.532 217.5C41.7905 217.682 42.1087 217.772 42.4865 217.772ZM48.4354 215.041V218.927H47.1612V212.382H48.3842V213.447H48.4652C48.6158 213.101 48.8516 212.822 49.1726 212.612C49.4964 212.402 49.9041 212.297 50.3956 212.297C50.8416 212.297 51.2322 212.39 51.5675 212.578C51.9027 212.762 52.1626 213.038 52.3473 213.405C52.532 213.771 52.6243 214.224 52.6243 214.764V218.927H51.3501V214.917C51.3501 214.443 51.2266 214.072 50.9794 213.805C50.7322 213.535 50.3928 213.4 49.9609 213.4C49.6655 213.4 49.4027 213.464 49.1726 213.592C48.9453 213.72 48.7649 213.907 48.6314 214.155C48.5007 214.399 48.4354 214.694 48.4354 215.041ZM57.5089 218.927V212.382H58.783V218.927H57.5089ZM58.1523 211.372C57.9308 211.372 57.7404 211.298 57.5813 211.15C57.4251 211 57.3469 210.821 57.3469 210.613C57.3469 210.403 57.4251 210.224 57.5813 210.076C57.7404 209.926 57.9308 209.851 58.1523 209.851C58.3739 209.851 58.5629 209.926 58.7191 210.076C58.8782 210.224 58.9577 210.403 58.9577 210.613C58.9577 210.821 58.8782 211 58.7191 211.15C58.5629 211.298 58.3739 211.372 58.1523 211.372ZM61.7713 215.041V218.927H60.4972V212.382H61.7202V213.447H61.8011C61.9517 213.101 62.1875 212.822 62.5085 212.612C62.8324 212.402 63.2401 212.297 63.7315 212.297C64.1776 212.297 64.5682 212.39 64.9034 212.578C65.2386 212.762 65.4986 213.038 65.6832 213.405C65.8679 213.771 65.9602 214.224 65.9602 214.764V218.927H64.6861V214.917C64.6861 214.443 64.5625 214.072 64.3153 213.805C64.0682 213.535 63.7287 213.4 63.2969 213.4C63.0014 213.4 62.7386 213.464 62.5085 213.592C62.2813 213.72 62.1009 213.907 61.9673 214.155C61.8366 214.399 61.7713 214.694 61.7713 215.041Z" fill="white"/>
<rect y="0.927246" width="321" height="237" fill="url(#paint0_linear_323_7455)"/>
<g filter="url(#filter0_d_323_7455)">
<path d="M76.9962 228.457L76.2139 213.906C76.1256 212.263 77.9483 211.223 79.3184 212.134L91.4232 220.182C92.9782 221.215 92.3937 223.627 90.5379 223.835L85.2429 224.426C84.6966 224.487 84.1995 224.77 83.8684 225.209L80.5899 229.554C79.4664 231.043 77.0964 230.32 76.9962 228.457Z" fill="white" fill-opacity="0.1" shape-rendering="crispEdges"/>
<path d="M76.9962 228.457L76.2139 213.906C76.1256 212.263 77.9483 211.223 79.3184 212.134L91.4232 220.182C92.9782 221.215 92.3937 223.627 90.5379 223.835L85.2429 224.426C84.6966 224.487 84.1995 224.77 83.8684 225.209L80.5899 229.554C79.4664 231.043 77.0964 230.32 76.9962 228.457Z" stroke="white" stroke-width="2" shape-rendering="crispEdges"/>
</g>
</g>
<defs>
<filter id="filter0_d_323_7455" x="70.2107" y="208.793" width="28.1084" height="30.5613" filterUnits="userSpaceOnUse" color-interpolation-filters="sRGB">
<feFlood flood-opacity="0" result="BackgroundImageFix"/>
<feColorMatrix in="SourceAlpha" type="matrix" values="0 0 0 0 0 0 0 0 0 0 0 0 0 0 0 0 0 0 127 0" result="hardAlpha"/>
<feOffset dy="3"/>
<feGaussianBlur stdDeviation="2.5"/>
<feComposite in2="hardAlpha" operator="out"/>
<feColorMatrix type="matrix" values="0 0 0 0 0.54902 0 0 0 0 0.596078 0 0 0 0 0.643137 0 0 0 0.25 0"/>
<feBlend mode="normal" in2="BackgroundImageFix" result="effect1_dropShadow_323_7455"/>
<feBlend mode="normal" in="SourceGraphic" in2="effect1_dropShadow_323_7455" result="shape"/>
</filter>
<linearGradient id="paint0_linear_323_7455" x1="191.996" y1="-40.5751" x2="-59.0611" y2="97.866" gradientUnits="userSpaceOnUse">
<stop stop-color="#171717" stop-opacity="0.9"/>
<stop offset="1" stop-color="#171717" stop-opacity="0"/>
</linearGradient>
<clipPath id="clip0_323_7455">
<rect width="321" height="237" fill="white" transform="translate(0 0.927246)"/>
</clipPath>
</defs>
</svg>
