<svg width="326" height="390" viewBox="0 0 326 390" fill="none" xmlns="http://www.w3.org/2000/svg">
<g filter="url(#filter0_dd_4449_108938)">
<g clip-path="url(#clip0_4449_108938)">
<rect x="13" width="300" height="357" rx="10" fill="white"/>
<rect x="135.5" y="33.5" width="55" height="55" rx="27.5" fill="#FEF9C3"/>
<g clip-path="url(#clip1_4449_108938)">
<path d="M164.596 50.5451C164.435 50.2649 164.203 50.0321 163.923 49.8702C163.644 49.7083 163.326 49.623 163.003 49.623C162.68 49.623 162.363 49.7083 162.083 49.8702C161.804 50.0321 161.572 50.2649 161.411 50.5451L150.268 69.504C149.526 70.7682 150.416 72.3753 151.861 72.3753H174.144C175.589 72.3753 176.481 70.7666 175.737 69.504L164.596 50.5451ZM163 56.1253C163.869 56.1253 164.55 56.8761 164.463 57.7422L163.894 63.4411C163.875 63.665 163.772 63.8735 163.607 64.0255C163.441 64.1775 163.225 64.2618 163 64.2618C162.775 64.2618 162.559 64.1775 162.393 64.0255C162.228 63.8735 162.125 63.665 162.106 63.4411L161.538 57.7422C161.517 57.5379 161.54 57.3315 161.604 57.1364C161.668 56.9413 161.772 56.7618 161.91 56.6095C162.048 56.4571 162.216 56.3354 162.404 56.252C162.592 56.1686 162.795 56.1255 163 56.1253V56.1253ZM163.003 65.8753C163.434 65.8753 163.848 66.0466 164.152 66.3513C164.457 66.656 164.628 67.0694 164.628 67.5003C164.628 67.9313 164.457 68.3446 164.152 68.6494C163.848 68.9541 163.434 69.1253 163.003 69.1253C162.572 69.1253 162.159 68.9541 161.854 68.6494C161.549 68.3446 161.378 67.9313 161.378 67.5003C161.378 67.0694 161.549 66.656 161.854 66.3513C162.159 66.0466 162.572 65.8753 163.003 65.8753Z" fill="#EAB308"/>
</g>
<rect x="135.5" y="33.5" width="55" height="55" rx="27.5" stroke="#FEFCE8" stroke-width="7"/>
<path d="M125.109 122.565C125.041 121.878 124.748 121.344 124.231 120.963C123.714 120.582 123.012 120.392 122.126 120.392C121.524 120.392 121.015 120.477 120.6 120.648C120.185 120.812 119.867 121.043 119.646 121.338C119.43 121.634 119.322 121.969 119.322 122.344C119.31 122.656 119.376 122.929 119.518 123.162C119.666 123.395 119.867 123.597 120.123 123.767C120.379 123.932 120.674 124.077 121.009 124.202C121.345 124.321 121.703 124.423 122.083 124.509L123.651 124.884C124.413 125.054 125.112 125.281 125.748 125.565C126.384 125.849 126.935 126.199 127.401 126.614C127.867 127.028 128.228 127.517 128.484 128.08C128.745 128.642 128.879 129.287 128.884 130.014C128.879 131.082 128.606 132.009 128.066 132.793C127.532 133.571 126.759 134.176 125.748 134.608C124.742 135.034 123.529 135.247 122.109 135.247C120.7 135.247 119.472 135.031 118.427 134.599C117.387 134.168 116.575 133.528 115.989 132.682C115.41 131.83 115.106 130.776 115.078 129.52H118.649C118.688 130.105 118.856 130.594 119.151 130.986C119.453 131.372 119.853 131.665 120.353 131.864C120.859 132.057 121.43 132.153 122.066 132.153C122.691 132.153 123.234 132.062 123.694 131.881C124.16 131.699 124.521 131.446 124.776 131.122C125.032 130.798 125.16 130.426 125.16 130.006C125.16 129.614 125.043 129.284 124.81 129.017C124.583 128.75 124.248 128.523 123.805 128.335C123.367 128.148 122.83 127.977 122.194 127.824L120.293 127.347C118.822 126.989 117.66 126.429 116.808 125.668C115.955 124.906 115.532 123.881 115.538 122.591C115.532 121.534 115.813 120.611 116.381 119.821C116.955 119.031 117.742 118.415 118.742 117.972C119.742 117.528 120.879 117.307 122.151 117.307C123.447 117.307 124.578 117.528 125.543 117.972C126.515 118.415 127.271 119.031 127.81 119.821C128.35 120.611 128.629 121.526 128.646 122.565H125.109ZM131.418 135V121.909H135.049V135H131.418ZM133.242 120.222C132.702 120.222 132.239 120.043 131.853 119.685C131.472 119.321 131.282 118.886 131.282 118.381C131.282 117.881 131.472 117.452 131.853 117.094C132.239 116.73 132.702 116.548 133.242 116.548C133.782 116.548 134.242 116.73 134.623 117.094C135.009 117.452 135.202 117.881 135.202 118.381C135.202 118.886 135.009 119.321 134.623 119.685C134.242 120.043 133.782 120.222 133.242 120.222ZM143.975 140.182C142.799 140.182 141.791 140.02 140.95 139.696C140.114 139.378 139.45 138.943 138.955 138.392C138.461 137.841 138.14 137.222 137.992 136.534L141.35 136.082C141.452 136.344 141.614 136.588 141.836 136.815C142.058 137.043 142.35 137.224 142.714 137.361C143.083 137.503 143.532 137.574 144.06 137.574C144.85 137.574 145.501 137.381 146.012 136.994C146.529 136.614 146.788 135.974 146.788 135.077V132.682H146.634C146.475 133.045 146.237 133.389 145.918 133.713C145.6 134.037 145.191 134.301 144.691 134.506C144.191 134.71 143.595 134.812 142.901 134.812C141.918 134.812 141.023 134.585 140.217 134.131C139.416 133.67 138.776 132.969 138.299 132.026C137.827 131.077 137.592 129.878 137.592 128.429C137.592 126.946 137.833 125.707 138.316 124.713C138.799 123.719 139.441 122.974 140.242 122.48C141.049 121.986 141.933 121.739 142.893 121.739C143.626 121.739 144.239 121.864 144.734 122.114C145.228 122.358 145.626 122.665 145.927 123.034C146.234 123.398 146.47 123.756 146.634 124.108H146.771V121.909H150.376V135.128C150.376 136.241 150.103 137.173 149.558 137.923C149.012 138.673 148.256 139.236 147.291 139.611C146.33 139.991 145.225 140.182 143.975 140.182ZM144.052 132.085C144.637 132.085 145.131 131.94 145.535 131.651C145.944 131.355 146.256 130.935 146.472 130.389C146.694 129.838 146.805 129.179 146.805 128.412C146.805 127.645 146.697 126.98 146.481 126.418C146.265 125.849 145.952 125.409 145.543 125.097C145.134 124.784 144.637 124.628 144.052 124.628C143.455 124.628 142.952 124.79 142.543 125.114C142.134 125.432 141.825 125.875 141.614 126.443C141.404 127.011 141.299 127.668 141.299 128.412C141.299 129.168 141.404 129.821 141.614 130.372C141.83 130.918 142.14 131.341 142.543 131.642C142.952 131.937 143.455 132.085 144.052 132.085ZM157.016 127.432V135H153.385V121.909H156.845V124.219H156.999C157.288 123.457 157.774 122.855 158.456 122.412C159.138 121.963 159.965 121.739 160.936 121.739C161.845 121.739 162.638 121.938 163.314 122.335C163.99 122.733 164.516 123.301 164.891 124.04C165.266 124.773 165.453 125.648 165.453 126.665V135H161.822V127.312C161.828 126.511 161.624 125.886 161.209 125.438C160.794 124.983 160.223 124.756 159.496 124.756C159.007 124.756 158.575 124.861 158.2 125.071C157.831 125.281 157.541 125.588 157.331 125.991C157.126 126.389 157.021 126.869 157.016 127.432ZM180.024 135.256C178.7 135.256 177.555 134.974 176.589 134.412C175.629 133.844 174.888 133.054 174.365 132.043C173.842 131.026 173.581 129.847 173.581 128.506C173.581 127.153 173.842 125.972 174.365 124.96C174.888 123.943 175.629 123.153 176.589 122.591C177.555 122.023 178.7 121.739 180.024 121.739C181.348 121.739 182.49 122.023 183.45 122.591C184.416 123.153 185.16 123.943 185.683 124.96C186.206 125.972 186.467 127.153 186.467 128.506C186.467 129.847 186.206 131.026 185.683 132.043C185.16 133.054 184.416 133.844 183.45 134.412C182.49 134.974 181.348 135.256 180.024 135.256ZM180.041 132.443C180.643 132.443 181.146 132.273 181.55 131.932C181.953 131.585 182.257 131.114 182.462 130.517C182.672 129.92 182.777 129.241 182.777 128.48C182.777 127.719 182.672 127.04 182.462 126.443C182.257 125.847 181.953 125.375 181.55 125.028C181.146 124.682 180.643 124.509 180.041 124.509C179.433 124.509 178.922 124.682 178.507 125.028C178.098 125.375 177.788 125.847 177.578 126.443C177.374 127.04 177.271 127.719 177.271 128.48C177.271 129.241 177.374 129.92 177.578 130.517C177.788 131.114 178.098 131.585 178.507 131.932C178.922 132.273 179.433 132.443 180.041 132.443ZM197.343 129.426V121.909H200.974V135H197.488V132.622H197.351C197.056 133.389 196.565 134.006 195.877 134.472C195.195 134.937 194.363 135.17 193.38 135.17C192.505 135.17 191.735 134.972 191.07 134.574C190.405 134.176 189.886 133.611 189.511 132.878C189.141 132.145 188.954 131.267 188.948 130.244V121.909H192.579V129.597C192.584 130.369 192.792 130.98 193.201 131.429C193.61 131.878 194.158 132.102 194.846 132.102C195.283 132.102 195.692 132.003 196.073 131.804C196.454 131.599 196.761 131.298 196.994 130.901C197.232 130.503 197.349 130.011 197.343 129.426ZM210.961 121.909V124.636H203.077V121.909H210.961ZM204.867 118.773H208.498V130.977C208.498 131.312 208.549 131.574 208.651 131.761C208.753 131.943 208.895 132.071 209.077 132.145C209.265 132.219 209.481 132.256 209.725 132.256C209.895 132.256 210.066 132.241 210.236 132.213C210.407 132.179 210.538 132.153 210.628 132.136L211.199 134.838C211.018 134.895 210.762 134.96 210.432 135.034C210.103 135.114 209.702 135.162 209.231 135.179C208.356 135.213 207.589 135.097 206.93 134.83C206.276 134.562 205.768 134.148 205.404 133.585C205.04 133.023 204.861 132.312 204.867 131.455V118.773Z" fill="#1F2937"/>
<path d="M49.8192 169H47.9555L52.143 157.364H54.1715L58.359 169H56.4953L53.2055 159.477H53.1146L49.8192 169ZM50.1317 164.443H56.1771V165.92H50.1317V164.443ZM59.983 169V160.273H61.625V161.659H61.7159C61.875 161.189 62.1553 160.82 62.5568 160.551C62.9622 160.278 63.4205 160.142 63.9318 160.142C64.0379 160.142 64.1629 160.146 64.3068 160.153C64.4546 160.161 64.5701 160.17 64.6534 160.182V161.807C64.5853 161.788 64.464 161.767 64.2898 161.744C64.1156 161.718 63.9413 161.705 63.7671 161.705C63.3656 161.705 63.0076 161.79 62.6932 161.96C62.3826 162.127 62.1364 162.36 61.9546 162.659C61.7728 162.955 61.6818 163.292 61.6818 163.67V169H59.983ZM69.6525 169.176C68.7926 169.176 68.0521 168.992 67.4309 168.625C66.8135 168.254 66.3362 167.733 65.9991 167.062C65.6657 166.388 65.4991 165.598 65.4991 164.693C65.4991 163.799 65.6657 163.011 65.9991 162.33C66.3362 161.648 66.8059 161.116 67.4082 160.733C68.0142 160.35 68.7226 160.159 69.5332 160.159C70.0256 160.159 70.5029 160.241 70.965 160.403C71.4271 160.566 71.8419 160.822 72.2093 161.17C72.5767 161.519 72.8665 161.972 73.0786 162.528C73.2907 163.081 73.3968 163.754 73.3968 164.545V165.148H66.4593V163.875H71.732C71.732 163.428 71.6411 163.032 71.4593 162.688C71.2775 162.339 71.0218 162.064 70.6922 161.864C70.3665 161.663 69.9839 161.562 69.5445 161.562C69.0672 161.562 68.6506 161.68 68.2945 161.915C67.9422 162.146 67.6695 162.449 67.4763 162.824C67.2869 163.195 67.1922 163.598 67.1922 164.034V165.028C67.1922 165.612 67.2945 166.108 67.4991 166.517C67.7074 166.926 67.9972 167.239 68.3684 167.455C68.7396 167.667 69.1733 167.773 69.6695 167.773C69.9915 167.773 70.2851 167.727 70.5502 167.636C70.8154 167.542 71.0445 167.402 71.2377 167.216C71.4309 167.03 71.5786 166.801 71.6809 166.528L73.2888 166.818C73.1601 167.292 72.929 167.706 72.5957 168.062C72.2661 168.415 71.8513 168.689 71.3513 168.886C70.8551 169.08 70.2888 169.176 69.6525 169.176ZM80.75 172.273C80.4962 172.273 80.2651 172.252 80.0568 172.21C79.8485 172.172 79.6932 172.131 79.5909 172.085L80 170.693C80.3106 170.777 80.5871 170.813 80.8295 170.801C81.0719 170.79 81.286 170.699 81.4716 170.528C81.661 170.358 81.8276 170.08 81.9716 169.693L82.1818 169.114L78.9886 160.273H80.8068L83.017 167.045H83.1079L85.3182 160.273H87.142L83.5454 170.165C83.3788 170.619 83.1666 171.004 82.9091 171.318C82.6515 171.636 82.3447 171.875 81.9886 172.034C81.6326 172.193 81.2197 172.273 80.75 172.273ZM92.1979 169.176C91.3797 169.176 90.6657 168.989 90.0558 168.614C89.446 168.239 88.9725 167.714 88.6354 167.04C88.2983 166.366 88.1297 165.578 88.1297 164.676C88.1297 163.771 88.2983 162.979 88.6354 162.301C88.9725 161.623 89.446 161.097 90.0558 160.722C90.6657 160.347 91.3797 160.159 92.1979 160.159C93.0161 160.159 93.7301 160.347 94.3399 160.722C94.9498 161.097 95.4233 161.623 95.7604 162.301C96.0975 162.979 96.2661 163.771 96.2661 164.676C96.2661 165.578 96.0975 166.366 95.7604 167.04C95.4233 167.714 94.9498 168.239 94.3399 168.614C93.7301 168.989 93.0161 169.176 92.1979 169.176ZM92.2036 167.75C92.7339 167.75 93.1733 167.61 93.5217 167.33C93.8702 167.049 94.1278 166.676 94.2945 166.21C94.4649 165.744 94.5501 165.231 94.5501 164.67C94.5501 164.114 94.4649 163.602 94.2945 163.136C94.1278 162.667 93.8702 162.29 93.5217 162.006C93.1733 161.722 92.7339 161.58 92.2036 161.58C91.6695 161.58 91.2263 161.722 90.874 162.006C90.5255 162.29 90.2661 162.667 90.0956 163.136C89.9289 163.602 89.8456 164.114 89.8456 164.67C89.8456 165.231 89.9289 165.744 90.0956 166.21C90.2661 166.676 90.5255 167.049 90.874 167.33C91.2263 167.61 91.6695 167.75 92.2036 167.75ZM103.771 165.381V160.273H105.475V169H103.805V167.489H103.714C103.513 167.955 103.191 168.343 102.748 168.653C102.309 168.96 101.761 169.114 101.106 169.114C100.545 169.114 100.049 168.991 99.6174 168.744C99.1893 168.494 98.8522 168.125 98.606 167.636C98.3636 167.148 98.2424 166.544 98.2424 165.824V160.273H99.9412V165.619C99.9412 166.214 100.106 166.687 100.436 167.04C100.765 167.392 101.193 167.568 101.72 167.568C102.038 167.568 102.354 167.489 102.668 167.33C102.987 167.17 103.25 166.93 103.458 166.608C103.67 166.286 103.775 165.877 103.771 165.381ZM118.692 162.403L117.152 162.676C117.088 162.479 116.986 162.292 116.846 162.114C116.709 161.936 116.524 161.79 116.289 161.676C116.054 161.562 115.76 161.506 115.408 161.506C114.927 161.506 114.525 161.614 114.203 161.83C113.882 162.042 113.721 162.316 113.721 162.653C113.721 162.945 113.828 163.18 114.044 163.358C114.26 163.536 114.609 163.682 115.09 163.795L116.476 164.114C117.279 164.299 117.878 164.585 118.272 164.972C118.666 165.358 118.863 165.86 118.863 166.477C118.863 167 118.711 167.466 118.408 167.875C118.109 168.28 117.69 168.598 117.152 168.83C116.618 169.061 115.999 169.176 115.294 169.176C114.317 169.176 113.52 168.968 112.902 168.551C112.285 168.131 111.906 167.534 111.766 166.761L113.408 166.511C113.51 166.939 113.721 167.263 114.039 167.483C114.357 167.699 114.772 167.807 115.283 167.807C115.84 167.807 116.285 167.691 116.618 167.46C116.952 167.225 117.118 166.939 117.118 166.602C117.118 166.33 117.016 166.1 116.811 165.915C116.611 165.729 116.302 165.589 115.885 165.494L114.408 165.17C113.594 164.985 112.991 164.689 112.601 164.284C112.215 163.879 112.022 163.366 112.022 162.744C112.022 162.229 112.166 161.778 112.453 161.392C112.741 161.006 113.139 160.705 113.647 160.489C114.154 160.269 114.736 160.159 115.391 160.159C116.334 160.159 117.077 160.364 117.618 160.773C118.16 161.178 118.518 161.722 118.692 162.403ZM126.339 165.381V160.273H128.043V169H126.373V167.489H126.282C126.081 167.955 125.759 168.343 125.316 168.653C124.877 168.96 124.329 169.114 123.674 169.114C123.114 169.114 122.617 168.991 122.185 168.744C121.757 168.494 121.42 168.125 121.174 167.636C120.932 167.148 120.81 166.544 120.81 165.824V160.273H122.509V165.619C122.509 166.214 122.674 166.687 123.004 167.04C123.333 167.392 123.761 167.568 124.288 167.568C124.606 167.568 124.922 167.489 125.237 167.33C125.555 167.17 125.818 166.93 126.026 166.608C126.239 166.286 126.343 165.877 126.339 165.381ZM130.406 169V160.273H132.048V161.659H132.139C132.298 161.189 132.578 160.82 132.98 160.551C133.385 160.278 133.844 160.142 134.355 160.142C134.461 160.142 134.586 160.146 134.73 160.153C134.878 160.161 134.993 160.17 135.077 160.182V161.807C135.008 161.788 134.887 161.767 134.713 161.744C134.539 161.718 134.364 161.705 134.19 161.705C133.789 161.705 133.431 161.79 133.116 161.96C132.806 162.127 132.56 162.36 132.378 162.659C132.196 162.955 132.105 163.292 132.105 163.67V169H130.406ZM140.076 169.176C139.216 169.176 138.475 168.992 137.854 168.625C137.237 168.254 136.759 167.733 136.422 167.062C136.089 166.388 135.922 165.598 135.922 164.693C135.922 163.799 136.089 163.011 136.422 162.33C136.759 161.648 137.229 161.116 137.831 160.733C138.437 160.35 139.146 160.159 139.956 160.159C140.449 160.159 140.926 160.241 141.388 160.403C141.85 160.566 142.265 160.822 142.632 161.17C143 161.519 143.29 161.972 143.502 162.528C143.714 163.081 143.82 163.754 143.82 164.545V165.148H136.882V163.875H142.155C142.155 163.428 142.064 163.032 141.882 162.688C141.701 162.339 141.445 162.064 141.115 161.864C140.79 161.663 140.407 161.562 139.968 161.562C139.49 161.562 139.074 161.68 138.718 161.915C138.365 162.146 138.093 162.449 137.899 162.824C137.71 163.195 137.615 163.598 137.615 164.034V165.028C137.615 165.612 137.718 166.108 137.922 166.517C138.131 166.926 138.42 167.239 138.792 167.455C139.163 167.667 139.596 167.773 140.093 167.773C140.415 167.773 140.708 167.727 140.973 167.636C141.238 167.542 141.468 167.402 141.661 167.216C141.854 167.03 142.002 166.801 142.104 166.528L143.712 166.818C143.583 167.292 143.352 167.706 143.019 168.062C142.689 168.415 142.274 168.689 141.774 168.886C141.278 169.08 140.712 169.176 140.076 169.176ZM151.173 172.273C150.919 172.273 150.688 172.252 150.48 172.21C150.272 172.172 150.116 172.131 150.014 172.085L150.423 170.693C150.734 170.777 151.01 170.813 151.253 170.801C151.495 170.79 151.709 170.699 151.895 170.528C152.084 170.358 152.251 170.08 152.395 169.693L152.605 169.114L149.412 160.273H151.23L153.44 167.045H153.531L155.741 160.273H157.565L153.969 170.165C153.802 170.619 153.59 171.004 153.332 171.318C153.075 171.636 152.768 171.875 152.412 172.034C152.056 172.193 151.643 172.273 151.173 172.273ZM162.621 169.176C161.803 169.176 161.089 168.989 160.479 168.614C159.869 168.239 159.396 167.714 159.059 167.04C158.721 166.366 158.553 165.578 158.553 164.676C158.553 163.771 158.721 162.979 159.059 162.301C159.396 161.623 159.869 161.097 160.479 160.722C161.089 160.347 161.803 160.159 162.621 160.159C163.439 160.159 164.153 160.347 164.763 160.722C165.373 161.097 165.846 161.623 166.184 162.301C166.521 162.979 166.689 163.771 166.689 164.676C166.689 165.578 166.521 166.366 166.184 167.04C165.846 167.714 165.373 168.239 164.763 168.614C164.153 168.989 163.439 169.176 162.621 169.176ZM162.627 167.75C163.157 167.75 163.596 167.61 163.945 167.33C164.293 167.049 164.551 166.676 164.718 166.21C164.888 165.744 164.973 165.231 164.973 164.67C164.973 164.114 164.888 163.602 164.718 163.136C164.551 162.667 164.293 162.29 163.945 162.006C163.596 161.722 163.157 161.58 162.627 161.58C162.093 161.58 161.649 161.722 161.297 162.006C160.949 162.29 160.689 162.667 160.519 163.136C160.352 163.602 160.269 164.114 160.269 164.67C160.269 165.231 160.352 165.744 160.519 166.21C160.689 166.676 160.949 167.049 161.297 167.33C161.649 167.61 162.093 167.75 162.627 167.75ZM174.194 165.381V160.273H175.898V169H174.228V167.489H174.137C173.936 167.955 173.614 168.343 173.171 168.653C172.732 168.96 172.184 169.114 171.529 169.114C170.969 169.114 170.472 168.991 170.04 168.744C169.612 168.494 169.275 168.125 169.029 167.636C168.787 167.148 168.665 166.544 168.665 165.824V160.273H170.364V165.619C170.364 166.214 170.529 166.687 170.859 167.04C171.188 167.392 171.616 167.568 172.143 167.568C172.461 167.568 172.777 167.489 173.092 167.33C173.41 167.17 173.673 166.93 173.881 166.608C174.094 166.286 174.198 165.877 174.194 165.381ZM184.468 169L181.899 160.273H183.655L185.365 166.682H185.45L187.166 160.273H188.922L190.627 166.653H190.712L192.411 160.273H194.166L191.604 169H189.871L188.098 162.699H187.968L186.195 169H184.468ZM199.269 169.176C198.451 169.176 197.737 168.989 197.127 168.614C196.517 168.239 196.044 167.714 195.707 167.04C195.37 166.366 195.201 165.578 195.201 164.676C195.201 163.771 195.37 162.979 195.707 162.301C196.044 161.623 196.517 161.097 197.127 160.722C197.737 160.347 198.451 160.159 199.269 160.159C200.087 160.159 200.801 160.347 201.411 160.722C202.021 161.097 202.495 161.623 202.832 162.301C203.169 162.979 203.337 163.771 203.337 164.676C203.337 165.578 203.169 166.366 202.832 167.04C202.495 167.714 202.021 168.239 201.411 168.614C200.801 168.989 200.087 169.176 199.269 169.176ZM199.275 167.75C199.805 167.75 200.245 167.61 200.593 167.33C200.941 167.049 201.199 166.676 201.366 166.21C201.536 165.744 201.621 165.231 201.621 164.67C201.621 164.114 201.536 163.602 201.366 163.136C201.199 162.667 200.941 162.29 200.593 162.006C200.245 161.722 199.805 161.58 199.275 161.58C198.741 161.58 198.298 161.722 197.945 162.006C197.597 162.29 197.337 162.667 197.167 163.136C197 163.602 196.917 164.114 196.917 164.67C196.917 165.231 197 165.744 197.167 166.21C197.337 166.676 197.597 167.049 197.945 167.33C198.298 167.61 198.741 167.75 199.275 167.75ZM210.842 165.381V160.273H212.547V169H210.876V167.489H210.785C210.584 167.955 210.262 168.343 209.819 168.653C209.38 168.96 208.833 169.114 208.177 169.114C207.617 169.114 207.12 168.991 206.689 168.744C206.261 168.494 205.923 168.125 205.677 167.636C205.435 167.148 205.314 166.544 205.314 165.824V160.273H207.012V165.619C207.012 166.214 207.177 166.687 207.507 167.04C207.836 167.392 208.264 167.568 208.791 167.568C209.109 167.568 209.425 167.489 209.74 167.33C210.058 167.17 210.321 166.93 210.53 166.608C210.742 166.286 210.846 165.877 210.842 165.381ZM216.608 157.364V169H214.909V157.364H216.608ZM222.241 169.17C221.536 169.17 220.907 168.991 220.354 168.631C219.805 168.267 219.373 167.75 219.059 167.08C218.748 166.405 218.593 165.597 218.593 164.653C218.593 163.71 218.75 162.903 219.065 162.233C219.383 161.562 219.818 161.049 220.371 160.693C220.924 160.337 221.551 160.159 222.252 160.159C222.794 160.159 223.229 160.25 223.559 160.432C223.892 160.61 224.15 160.818 224.332 161.057C224.517 161.295 224.661 161.506 224.763 161.688H224.866V157.364H226.565V169H224.905V167.642H224.763C224.661 167.828 224.513 168.04 224.32 168.278C224.131 168.517 223.869 168.725 223.536 168.903C223.203 169.081 222.771 169.17 222.241 169.17ZM222.616 167.722C223.104 167.722 223.517 167.593 223.854 167.335C224.195 167.074 224.453 166.712 224.627 166.25C224.805 165.788 224.894 165.25 224.894 164.636C224.894 164.03 224.807 163.5 224.633 163.045C224.458 162.591 224.203 162.237 223.866 161.983C223.529 161.729 223.112 161.602 222.616 161.602C222.104 161.602 221.678 161.735 221.337 162C220.996 162.265 220.739 162.627 220.565 163.085C220.394 163.544 220.309 164.061 220.309 164.636C220.309 165.22 220.396 165.744 220.57 166.21C220.744 166.676 221.002 167.045 221.343 167.318C221.688 167.587 222.112 167.722 222.616 167.722ZM235.082 157.364V169H233.384V157.364H235.082ZM237.448 169V160.273H239.147V169H237.448ZM238.306 158.926C238.01 158.926 237.757 158.828 237.545 158.631C237.336 158.43 237.232 158.191 237.232 157.915C237.232 157.634 237.336 157.396 237.545 157.199C237.757 156.998 238.01 156.898 238.306 156.898C238.601 156.898 238.853 156.998 239.062 157.199C239.274 157.396 239.38 157.634 239.38 157.915C239.38 158.191 239.274 158.43 239.062 158.631C238.853 158.828 238.601 158.926 238.306 158.926ZM243.075 166.04L243.063 163.966H243.359L246.836 160.273H248.87L244.904 164.477H244.637L243.075 166.04ZM241.512 169V157.364H243.211V169H241.512ZM247.024 169L243.899 164.852L245.069 163.665L249.109 169H247.024ZM253.901 169.176C253.041 169.176 252.3 168.992 251.679 168.625C251.062 168.254 250.584 167.733 250.247 167.062C249.914 166.388 249.747 165.598 249.747 164.693C249.747 163.799 249.914 163.011 250.247 162.33C250.584 161.648 251.054 161.116 251.656 160.733C252.262 160.35 252.971 160.159 253.781 160.159C254.274 160.159 254.751 160.241 255.213 160.403C255.675 160.566 256.09 160.822 256.457 161.17C256.825 161.519 257.115 161.972 257.327 162.528C257.539 163.081 257.645 163.754 257.645 164.545V165.148H250.707V163.875H255.98C255.98 163.428 255.889 163.032 255.707 162.688C255.526 162.339 255.27 162.064 254.94 161.864C254.615 161.663 254.232 161.562 253.793 161.562C253.315 161.562 252.899 161.68 252.543 161.915C252.19 162.146 251.918 162.449 251.724 162.824C251.535 163.195 251.44 163.598 251.44 164.034V165.028C251.44 165.612 251.543 166.108 251.747 166.517C251.956 166.926 252.245 167.239 252.617 167.455C252.988 167.667 253.421 167.773 253.918 167.773C254.24 167.773 254.533 167.727 254.798 167.636C255.063 167.542 255.293 167.402 255.486 167.216C255.679 167.03 255.827 166.801 255.929 166.528L257.537 166.818C257.408 167.292 257.177 167.706 256.844 168.062C256.514 168.415 256.099 168.689 255.599 168.886C255.103 169.08 254.537 169.176 253.901 169.176ZM267.998 160.273V161.636H263.231V160.273H267.998ZM264.509 158.182H266.208V166.438C266.208 166.767 266.258 167.015 266.356 167.182C266.455 167.345 266.581 167.456 266.737 167.517C266.896 167.574 267.068 167.602 267.254 167.602C267.39 167.602 267.509 167.593 267.612 167.574C267.714 167.555 267.794 167.54 267.85 167.528L268.157 168.932C268.059 168.97 267.919 169.008 267.737 169.045C267.555 169.087 267.328 169.11 267.055 169.114C266.608 169.121 266.191 169.042 265.805 168.875C265.419 168.708 265.106 168.451 264.867 168.102C264.629 167.754 264.509 167.316 264.509 166.79V158.182ZM273.54 169.176C272.722 169.176 272.008 168.989 271.398 168.614C270.788 168.239 270.314 167.714 269.977 167.04C269.64 166.366 269.472 165.578 269.472 164.676C269.472 163.771 269.64 162.979 269.977 162.301C270.314 161.623 270.788 161.097 271.398 160.722C272.008 160.347 272.722 160.159 273.54 160.159C274.358 160.159 275.072 160.347 275.682 160.722C276.292 161.097 276.765 161.623 277.102 162.301C277.439 162.979 277.608 163.771 277.608 164.676C277.608 165.578 277.439 166.366 277.102 167.04C276.765 167.714 276.292 168.239 275.682 168.614C275.072 168.989 274.358 169.176 273.54 169.176ZM273.545 167.75C274.076 167.75 274.515 167.61 274.864 167.33C275.212 167.049 275.47 166.676 275.636 166.21C275.807 165.744 275.892 165.231 275.892 164.67C275.892 164.114 275.807 163.602 275.636 163.136C275.47 162.667 275.212 162.29 274.864 162.006C274.515 161.722 274.076 161.58 273.545 161.58C273.011 161.58 272.568 161.722 272.216 162.006C271.867 162.29 271.608 162.667 271.437 163.136C271.271 163.602 271.187 164.114 271.187 164.67C271.187 165.231 271.271 165.744 271.437 166.21C271.608 166.676 271.867 167.049 272.216 167.33C272.568 167.61 273.011 167.75 273.545 167.75ZM81.7062 186.403L80.1664 186.676C80.102 186.479 79.9998 186.292 79.8596 186.114C79.7232 185.936 79.5376 185.79 79.3028 185.676C79.0679 185.562 78.7744 185.506 78.4221 185.506C77.941 185.506 77.5395 185.614 77.2176 185.83C76.8956 186.042 76.7346 186.316 76.7346 186.653C76.7346 186.945 76.8426 187.18 77.0585 187.358C77.2744 187.536 77.6229 187.682 78.1039 187.795L79.4903 188.114C80.2933 188.299 80.8918 188.585 81.2857 188.972C81.6797 189.358 81.8766 189.86 81.8766 190.477C81.8766 191 81.7251 191.466 81.4221 191.875C81.1229 192.28 80.7043 192.598 80.1664 192.83C79.6323 193.061 79.013 193.176 78.3085 193.176C77.3312 193.176 76.5338 192.968 75.9164 192.551C75.299 192.131 74.9202 191.534 74.7801 190.761L76.4221 190.511C76.5244 190.939 76.7346 191.263 77.0528 191.483C77.371 191.699 77.7857 191.807 78.2971 191.807C78.8539 191.807 79.299 191.691 79.6323 191.46C79.9657 191.225 80.1323 190.939 80.1323 190.602C80.1323 190.33 80.0301 190.1 79.8255 189.915C79.6248 189.729 79.316 189.589 78.8994 189.494L77.4221 189.17C76.6077 188.985 76.0054 188.689 75.6153 188.284C75.2289 187.879 75.0357 187.366 75.0357 186.744C75.0357 186.229 75.1797 185.778 75.4676 185.392C75.7554 185.006 76.1532 184.705 76.6607 184.489C77.1683 184.269 77.7498 184.159 78.4051 184.159C79.3482 184.159 80.0907 184.364 80.6323 184.773C81.174 185.178 81.532 185.722 81.7062 186.403ZM83.8245 193V184.273H85.5234V193H83.8245ZM84.6825 182.926C84.387 182.926 84.1333 182.828 83.9211 182.631C83.7128 182.43 83.6086 182.191 83.6086 181.915C83.6086 181.634 83.7128 181.396 83.9211 181.199C84.1333 180.998 84.387 180.898 84.6825 180.898C84.978 180.898 85.2299 180.998 85.4382 181.199C85.6503 181.396 85.7564 181.634 85.7564 181.915C85.7564 182.191 85.6503 182.43 85.4382 182.631C85.2299 182.828 84.978 182.926 84.6825 182.926ZM91.548 196.455C90.8548 196.455 90.2582 196.364 89.7582 196.182C89.262 196 88.8567 195.759 88.5423 195.46C88.2279 195.161 87.9931 194.833 87.8378 194.477L89.298 193.875C89.4003 194.042 89.5366 194.218 89.7071 194.403C89.8813 194.593 90.1162 194.754 90.4116 194.886C90.7109 195.019 91.0954 195.085 91.5651 195.085C92.209 195.085 92.7412 194.928 93.1616 194.614C93.5821 194.303 93.7923 193.807 93.7923 193.125V191.409H93.6844C93.5821 191.595 93.4344 191.801 93.2412 192.028C93.0518 192.256 92.7904 192.453 92.4571 192.619C92.1238 192.786 91.6901 192.869 91.156 192.869C90.4666 192.869 89.8454 192.708 89.2923 192.386C88.7431 192.061 88.3075 191.581 87.9855 190.949C87.6673 190.312 87.5082 189.53 87.5082 188.602C87.5082 187.674 87.6654 186.879 87.9798 186.216C88.298 185.553 88.7336 185.045 89.2866 184.693C89.8397 184.337 90.4666 184.159 91.1673 184.159C91.709 184.159 92.1465 184.25 92.4798 184.432C92.8132 184.61 93.0726 184.818 93.2582 185.057C93.4476 185.295 93.5935 185.506 93.6957 185.688H93.8207V184.273H95.4855V193.193C95.4855 193.943 95.3113 194.559 94.9628 195.04C94.6143 195.521 94.1427 195.877 93.548 196.108C92.9571 196.339 92.2904 196.455 91.548 196.455ZM91.531 191.46C92.0196 191.46 92.4325 191.347 92.7696 191.119C93.1105 190.888 93.3681 190.559 93.5423 190.131C93.7204 189.699 93.8094 189.182 93.8094 188.58C93.8094 187.992 93.7223 187.475 93.548 187.028C93.3738 186.581 93.1181 186.233 92.781 185.983C92.4438 185.729 92.0272 185.602 91.531 185.602C91.0196 185.602 90.5935 185.735 90.2526 186C89.9116 186.261 89.6541 186.617 89.4798 187.068C89.3094 187.519 89.2241 188.023 89.2241 188.58C89.2241 189.152 89.3113 189.653 89.4855 190.085C89.6598 190.517 89.9173 190.854 90.2582 191.097C90.6029 191.339 91.0272 191.46 91.531 191.46ZM99.5428 187.818V193H97.8439V184.273H99.4746V185.693H99.5826C99.7833 185.231 100.098 184.86 100.526 184.58C100.958 184.299 101.501 184.159 102.156 184.159C102.751 184.159 103.272 184.284 103.719 184.534C104.166 184.78 104.512 185.148 104.759 185.636C105.005 186.125 105.128 186.729 105.128 187.449V193H103.429V187.653C103.429 187.021 103.264 186.527 102.935 186.17C102.605 185.811 102.153 185.631 101.577 185.631C101.183 185.631 100.833 185.716 100.526 185.886C100.223 186.057 99.9822 186.307 99.8041 186.636C99.6299 186.962 99.5428 187.356 99.5428 187.818ZM115.477 193.176C114.659 193.176 113.945 192.989 113.335 192.614C112.725 192.239 112.252 191.714 111.914 191.04C111.577 190.366 111.409 189.578 111.409 188.676C111.409 187.771 111.577 186.979 111.914 186.301C112.252 185.623 112.725 185.097 113.335 184.722C113.945 184.347 114.659 184.159 115.477 184.159C116.295 184.159 117.009 184.347 117.619 184.722C118.229 185.097 118.702 185.623 119.039 186.301C119.377 186.979 119.545 187.771 119.545 188.676C119.545 189.578 119.377 190.366 119.039 191.04C118.702 191.714 118.229 192.239 117.619 192.614C117.009 192.989 116.295 193.176 115.477 193.176ZM115.483 191.75C116.013 191.75 116.452 191.61 116.801 191.33C117.149 191.049 117.407 190.676 117.574 190.21C117.744 189.744 117.829 189.231 117.829 188.67C117.829 188.114 117.744 187.602 117.574 187.136C117.407 186.667 117.149 186.29 116.801 186.006C116.452 185.722 116.013 185.58 115.483 185.58C114.949 185.58 114.505 185.722 114.153 186.006C113.805 186.29 113.545 186.667 113.375 187.136C113.208 187.602 113.125 188.114 113.125 188.67C113.125 189.231 113.208 189.744 113.375 190.21C113.545 190.676 113.805 191.049 114.153 191.33C114.505 191.61 114.949 191.75 115.483 191.75ZM127.05 189.381V184.273H128.754V193H127.084V191.489H126.993C126.792 191.955 126.47 192.343 126.027 192.653C125.588 192.96 125.04 193.114 124.385 193.114C123.824 193.114 123.328 192.991 122.896 192.744C122.468 192.494 122.131 192.125 121.885 191.636C121.643 191.148 121.521 190.544 121.521 189.824V184.273H123.22V189.619C123.22 190.214 123.385 190.687 123.715 191.04C124.044 191.392 124.472 191.568 124.999 191.568C125.317 191.568 125.633 191.489 125.948 191.33C126.266 191.17 126.529 190.93 126.737 190.608C126.949 190.286 127.054 189.877 127.05 189.381ZM135.191 184.273V185.636H130.424V184.273H135.191ZM131.702 182.182H133.401V190.438C133.401 190.767 133.45 191.015 133.549 191.182C133.647 191.345 133.774 191.456 133.93 191.517C134.089 191.574 134.261 191.602 134.447 191.602C134.583 191.602 134.702 191.593 134.805 191.574C134.907 191.555 134.986 191.54 135.043 191.528L135.35 192.932C135.252 192.97 135.111 193.008 134.93 193.045C134.748 193.087 134.52 193.11 134.248 193.114C133.801 193.121 133.384 193.042 132.998 192.875C132.611 192.708 132.299 192.451 132.06 192.102C131.822 191.754 131.702 191.316 131.702 190.79V182.182ZM145.141 193.176C144.323 193.176 143.608 192.989 142.999 192.614C142.389 192.239 141.915 191.714 141.578 191.04C141.241 190.366 141.073 189.578 141.073 188.676C141.073 187.771 141.241 186.979 141.578 186.301C141.915 185.623 142.389 185.097 142.999 184.722C143.608 184.347 144.323 184.159 145.141 184.159C145.959 184.159 146.673 184.347 147.283 184.722C147.893 185.097 148.366 185.623 148.703 186.301C149.04 186.979 149.209 187.771 149.209 188.676C149.209 189.578 149.04 190.366 148.703 191.04C148.366 191.714 147.893 192.239 147.283 192.614C146.673 192.989 145.959 193.176 145.141 193.176ZM145.146 191.75C145.677 191.75 146.116 191.61 146.465 191.33C146.813 191.049 147.071 190.676 147.237 190.21C147.408 189.744 147.493 189.231 147.493 188.67C147.493 188.114 147.408 187.602 147.237 187.136C147.071 186.667 146.813 186.29 146.465 186.006C146.116 185.722 145.677 185.58 145.146 185.58C144.612 185.58 144.169 185.722 143.817 186.006C143.468 186.29 143.209 186.667 143.038 187.136C142.872 187.602 142.788 188.114 142.788 188.67C142.788 189.231 142.872 189.744 143.038 190.21C143.209 190.676 143.468 191.049 143.817 191.33C144.169 191.61 144.612 191.75 145.146 191.75ZM155.339 184.273V185.636H150.407V184.273H155.339ZM151.759 193V183.261C151.759 182.716 151.878 182.263 152.117 181.903C152.356 181.54 152.672 181.269 153.066 181.091C153.46 180.909 153.888 180.818 154.35 180.818C154.691 180.818 154.983 180.847 155.225 180.903C155.467 180.956 155.647 181.006 155.765 181.051L155.367 182.426C155.287 182.403 155.185 182.377 155.06 182.347C154.935 182.312 154.784 182.295 154.606 182.295C154.193 182.295 153.897 182.398 153.719 182.602C153.545 182.807 153.458 183.102 153.458 183.489V193H151.759ZM162.56 196.273C162.306 196.273 162.075 196.252 161.866 196.21C161.658 196.172 161.503 196.131 161.401 196.085L161.81 194.693C162.12 194.777 162.397 194.813 162.639 194.801C162.882 194.79 163.096 194.699 163.281 194.528C163.471 194.358 163.637 194.08 163.781 193.693L163.991 193.114L160.798 184.273H162.616L164.827 191.045H164.918L167.128 184.273H168.952L165.355 194.165C165.188 194.619 164.976 195.004 164.719 195.318C164.461 195.636 164.154 195.875 163.798 196.034C163.442 196.193 163.029 196.273 162.56 196.273ZM174.008 193.176C173.189 193.176 172.475 192.989 171.866 192.614C171.256 192.239 170.782 191.714 170.445 191.04C170.108 190.366 169.939 189.578 169.939 188.676C169.939 187.771 170.108 186.979 170.445 186.301C170.782 185.623 171.256 185.097 171.866 184.722C172.475 184.347 173.189 184.159 174.008 184.159C174.826 184.159 175.54 184.347 176.15 184.722C176.759 185.097 177.233 185.623 177.57 186.301C177.907 186.979 178.076 187.771 178.076 188.676C178.076 189.578 177.907 190.366 177.57 191.04C177.233 191.714 176.759 192.239 176.15 192.614C175.54 192.989 174.826 193.176 174.008 193.176ZM174.013 191.75C174.544 191.75 174.983 191.61 175.331 191.33C175.68 191.049 175.937 190.676 176.104 190.21C176.275 189.744 176.36 189.231 176.36 188.67C176.36 188.114 176.275 187.602 176.104 187.136C175.937 186.667 175.68 186.29 175.331 186.006C174.983 185.722 174.544 185.58 174.013 185.58C173.479 185.58 173.036 185.722 172.684 186.006C172.335 186.29 172.076 186.667 171.905 187.136C171.739 187.602 171.655 188.114 171.655 188.67C171.655 189.231 171.739 189.744 171.905 190.21C172.076 190.676 172.335 191.049 172.684 191.33C173.036 191.61 173.479 191.75 174.013 191.75ZM185.58 189.381V184.273H187.285V193H185.615V191.489H185.524C185.323 191.955 185.001 192.343 184.558 192.653C184.118 192.96 183.571 193.114 182.916 193.114C182.355 193.114 181.859 192.991 181.427 192.744C180.999 192.494 180.662 192.125 180.416 191.636C180.173 191.148 180.052 190.544 180.052 189.824V184.273H181.751V189.619C181.751 190.214 181.916 190.687 182.245 191.04C182.575 191.392 183.003 191.568 183.529 191.568C183.848 191.568 184.164 191.489 184.478 191.33C184.796 191.17 185.06 190.93 185.268 190.608C185.48 190.286 185.584 189.877 185.58 189.381ZM189.648 193V184.273H191.29V185.659H191.381C191.54 185.189 191.82 184.82 192.222 184.551C192.627 184.278 193.085 184.142 193.597 184.142C193.703 184.142 193.828 184.146 193.972 184.153C194.119 184.161 194.235 184.17 194.318 184.182V185.807C194.25 185.788 194.129 185.767 193.954 185.744C193.78 185.718 193.606 185.705 193.432 185.705C193.03 185.705 192.672 185.79 192.358 185.96C192.047 186.127 191.801 186.36 191.619 186.659C191.437 186.955 191.347 187.292 191.347 187.67V193H189.648ZM200.319 193V181.364H204.467C205.372 181.364 206.122 181.528 206.717 181.858C207.311 182.187 207.757 182.638 208.052 183.21C208.347 183.778 208.495 184.419 208.495 185.131C208.495 185.847 208.346 186.491 208.046 187.062C207.751 187.631 207.304 188.081 206.705 188.415C206.111 188.744 205.363 188.909 204.461 188.909H201.609V187.42H204.302C204.874 187.42 205.338 187.322 205.694 187.125C206.05 186.924 206.311 186.652 206.478 186.307C206.645 185.962 206.728 185.57 206.728 185.131C206.728 184.691 206.645 184.301 206.478 183.96C206.311 183.619 206.048 183.352 205.688 183.159C205.332 182.966 204.863 182.869 204.279 182.869H202.075V193H200.319ZM210.497 193V184.273H212.139V185.659H212.23C212.389 185.189 212.669 184.82 213.071 184.551C213.476 184.278 213.935 184.142 214.446 184.142C214.552 184.142 214.677 184.146 214.821 184.153C214.969 184.161 215.084 184.17 215.168 184.182V185.807C215.099 185.788 214.978 185.767 214.804 185.744C214.63 185.718 214.455 185.705 214.281 185.705C213.88 185.705 213.522 185.79 213.207 185.96C212.897 186.127 212.65 186.36 212.469 186.659C212.287 186.955 212.196 187.292 212.196 187.67V193H210.497ZM220.167 193.176C219.307 193.176 218.566 192.992 217.945 192.625C217.328 192.254 216.85 191.733 216.513 191.062C216.18 190.388 216.013 189.598 216.013 188.693C216.013 187.799 216.18 187.011 216.513 186.33C216.85 185.648 217.32 185.116 217.922 184.733C218.528 184.35 219.237 184.159 220.047 184.159C220.54 184.159 221.017 184.241 221.479 184.403C221.941 184.566 222.356 184.822 222.723 185.17C223.091 185.519 223.381 185.972 223.593 186.528C223.805 187.081 223.911 187.754 223.911 188.545V189.148H216.973V187.875H222.246C222.246 187.428 222.155 187.032 221.973 186.688C221.792 186.339 221.536 186.064 221.206 185.864C220.881 185.663 220.498 185.562 220.059 185.562C219.581 185.562 219.165 185.68 218.809 185.915C218.456 186.146 218.184 186.449 217.99 186.824C217.801 187.195 217.706 187.598 217.706 188.034V189.028C217.706 189.612 217.809 190.108 218.013 190.517C218.221 190.926 218.511 191.239 218.882 191.455C219.254 191.667 219.687 191.773 220.184 191.773C220.506 191.773 220.799 191.727 221.064 191.636C221.329 191.542 221.559 191.402 221.752 191.216C221.945 191.03 222.093 190.801 222.195 190.528L223.803 190.818C223.674 191.292 223.443 191.706 223.11 192.062C222.78 192.415 222.365 192.689 221.865 192.886C221.369 193.08 220.803 193.176 220.167 193.176ZM227.575 181.364V193H225.876V181.364H227.575ZM229.94 193V184.273H231.639V193H229.94ZM230.798 182.926C230.503 182.926 230.249 182.828 230.037 182.631C229.828 182.43 229.724 182.191 229.724 181.915C229.724 181.634 229.828 181.396 230.037 181.199C230.249 180.998 230.503 180.898 230.798 180.898C231.094 180.898 231.345 180.998 231.554 181.199C231.766 181.396 231.872 181.634 231.872 181.915C231.872 182.191 231.766 182.43 231.554 182.631C231.345 182.828 231.094 182.926 230.798 182.926ZM235.703 187.818V193H234.005V184.273H235.635V185.693H235.743C235.944 185.231 236.258 184.86 236.686 184.58C237.118 184.299 237.662 184.159 238.317 184.159C238.912 184.159 239.433 184.284 239.88 184.534C240.327 184.78 240.673 185.148 240.919 185.636C241.166 186.125 241.289 186.729 241.289 187.449V193H239.59V187.653C239.59 187.021 239.425 186.527 239.095 186.17C238.766 185.811 238.313 185.631 237.737 185.631C237.344 185.631 236.993 185.716 236.686 185.886C236.383 186.057 236.143 186.307 235.965 186.636C235.791 186.962 235.703 187.356 235.703 187.818ZM247.408 193.176C246.549 193.176 245.808 192.992 245.187 192.625C244.569 192.254 244.092 191.733 243.755 191.062C243.422 190.388 243.255 189.598 243.255 188.693C243.255 187.799 243.422 187.011 243.755 186.33C244.092 185.648 244.562 185.116 245.164 184.733C245.77 184.35 246.478 184.159 247.289 184.159C247.782 184.159 248.259 184.241 248.721 184.403C249.183 184.566 249.598 184.822 249.965 185.17C250.333 185.519 250.622 185.972 250.835 186.528C251.047 187.081 251.153 187.754 251.153 188.545V189.148H244.215V187.875H249.488C249.488 187.428 249.397 187.032 249.215 186.688C249.033 186.339 248.778 186.064 248.448 185.864C248.122 185.663 247.74 185.562 247.3 185.562C246.823 185.562 246.407 185.68 246.05 185.915C245.698 186.146 245.425 186.449 245.232 186.824C245.043 187.195 244.948 187.598 244.948 188.034V189.028C244.948 189.612 245.05 190.108 245.255 190.517C245.463 190.926 245.753 191.239 246.124 191.455C246.496 191.667 246.929 191.773 247.425 191.773C247.747 191.773 248.041 191.727 248.306 191.636C248.571 191.542 248.8 191.402 248.994 191.216C249.187 191.03 249.335 190.801 249.437 190.528L251.045 190.818C250.916 191.292 250.685 191.706 250.352 192.062C250.022 192.415 249.607 192.689 249.107 192.886C248.611 193.08 248.045 193.176 247.408 193.176ZM131.23 217.193C130.677 217.193 130.177 217.091 129.73 216.886C129.283 216.678 128.929 216.377 128.667 215.983C128.41 215.589 128.281 215.106 128.281 214.534C128.281 214.042 128.376 213.636 128.565 213.318C128.755 213 129.01 212.748 129.332 212.562C129.654 212.377 130.014 212.237 130.412 212.142C130.809 212.047 131.215 211.975 131.628 211.926C132.15 211.866 132.575 211.816 132.9 211.778C133.226 211.737 133.463 211.67 133.611 211.58C133.758 211.489 133.832 211.341 133.832 211.136V211.097C133.832 210.6 133.692 210.216 133.412 209.943C133.135 209.67 132.722 209.534 132.173 209.534C131.601 209.534 131.15 209.661 130.821 209.915C130.495 210.165 130.27 210.443 130.145 210.75L128.548 210.386C128.738 209.856 129.014 209.428 129.378 209.102C129.745 208.773 130.167 208.534 130.645 208.386C131.122 208.235 131.624 208.159 132.15 208.159C132.499 208.159 132.868 208.201 133.258 208.284C133.652 208.364 134.02 208.511 134.361 208.727C134.705 208.943 134.988 209.252 135.207 209.653C135.427 210.051 135.537 210.568 135.537 211.205V217H133.878V215.807H133.809C133.7 216.027 133.535 216.242 133.315 216.455C133.095 216.667 132.813 216.843 132.469 216.983C132.124 217.123 131.711 217.193 131.23 217.193ZM131.599 215.83C132.069 215.83 132.47 215.737 132.804 215.551C133.141 215.366 133.397 215.123 133.571 214.824C133.749 214.521 133.838 214.197 133.838 213.852V212.727C133.777 212.788 133.66 212.845 133.486 212.898C133.315 212.947 133.12 212.991 132.9 213.028C132.681 213.062 132.467 213.095 132.258 213.125C132.05 213.152 131.876 213.174 131.736 213.193C131.406 213.235 131.105 213.305 130.832 213.403C130.563 213.502 130.347 213.644 130.184 213.83C130.025 214.011 129.946 214.254 129.946 214.557C129.946 214.977 130.101 215.295 130.412 215.511C130.722 215.723 131.118 215.83 131.599 215.83ZM141.556 217.176C140.711 217.176 139.984 216.985 139.374 216.602C138.768 216.216 138.302 215.684 137.976 215.006C137.65 214.328 137.488 213.551 137.488 212.676C137.488 211.79 137.654 211.008 137.988 210.33C138.321 209.648 138.791 209.116 139.397 208.733C140.003 208.35 140.717 208.159 141.539 208.159C142.202 208.159 142.792 208.282 143.311 208.528C143.83 208.771 144.249 209.112 144.567 209.551C144.889 209.991 145.08 210.504 145.141 211.091H143.488C143.397 210.682 143.188 210.33 142.863 210.034C142.541 209.739 142.109 209.591 141.567 209.591C141.094 209.591 140.679 209.716 140.323 209.966C139.97 210.212 139.696 210.564 139.499 211.023C139.302 211.477 139.203 212.015 139.203 212.636C139.203 213.273 139.3 213.822 139.493 214.284C139.686 214.746 139.959 215.104 140.311 215.358C140.667 215.612 141.086 215.739 141.567 215.739C141.889 215.739 142.181 215.68 142.442 215.562C142.707 215.441 142.929 215.269 143.107 215.045C143.289 214.822 143.416 214.553 143.488 214.239H145.141C145.08 214.803 144.897 215.307 144.59 215.75C144.283 216.193 143.872 216.542 143.357 216.795C142.845 217.049 142.245 217.176 141.556 217.176ZM150.714 217.176C149.869 217.176 149.142 216.985 148.532 216.602C147.926 216.216 147.46 215.684 147.134 215.006C146.809 214.328 146.646 213.551 146.646 212.676C146.646 211.79 146.812 211.008 147.146 210.33C147.479 209.648 147.949 209.116 148.555 208.733C149.161 208.35 149.875 208.159 150.697 208.159C151.36 208.159 151.951 208.282 152.469 208.528C152.988 208.771 153.407 209.112 153.725 209.551C154.047 209.991 154.238 210.504 154.299 211.091H152.646C152.555 210.682 152.346 210.33 152.021 210.034C151.699 209.739 151.267 209.591 150.725 209.591C150.252 209.591 149.837 209.716 149.481 209.966C149.129 210.212 148.854 210.564 148.657 211.023C148.46 211.477 148.362 212.015 148.362 212.636C148.362 213.273 148.458 213.822 148.651 214.284C148.844 214.746 149.117 215.104 149.469 215.358C149.826 215.612 150.244 215.739 150.725 215.739C151.047 215.739 151.339 215.68 151.6 215.562C151.865 215.441 152.087 215.269 152.265 215.045C152.447 214.822 152.574 214.553 152.646 214.239H154.299C154.238 214.803 154.055 215.307 153.748 215.75C153.441 216.193 153.03 216.542 152.515 216.795C152.004 217.049 151.403 217.176 150.714 217.176ZM159.872 217.176C159.054 217.176 158.34 216.989 157.73 216.614C157.12 216.239 156.647 215.714 156.309 215.04C155.972 214.366 155.804 213.578 155.804 212.676C155.804 211.771 155.972 210.979 156.309 210.301C156.647 209.623 157.12 209.097 157.73 208.722C158.34 208.347 159.054 208.159 159.872 208.159C160.69 208.159 161.404 208.347 162.014 208.722C162.624 209.097 163.097 209.623 163.434 210.301C163.772 210.979 163.94 211.771 163.94 212.676C163.94 213.578 163.772 214.366 163.434 215.04C163.097 215.714 162.624 216.239 162.014 216.614C161.404 216.989 160.69 217.176 159.872 217.176ZM159.878 215.75C160.408 215.75 160.847 215.61 161.196 215.33C161.544 215.049 161.802 214.676 161.969 214.21C162.139 213.744 162.224 213.231 162.224 212.67C162.224 212.114 162.139 211.602 161.969 211.136C161.802 210.667 161.544 210.29 161.196 210.006C160.847 209.722 160.408 209.58 159.878 209.58C159.344 209.58 158.9 209.722 158.548 210.006C158.2 210.29 157.94 210.667 157.77 211.136C157.603 211.602 157.52 212.114 157.52 212.67C157.52 213.231 157.603 213.744 157.77 214.21C157.94 214.676 158.2 215.049 158.548 215.33C158.9 215.61 159.344 215.75 159.878 215.75ZM171.445 213.381V208.273H173.149V217H171.479V215.489H171.388C171.187 215.955 170.865 216.343 170.422 216.653C169.983 216.96 169.435 217.114 168.78 217.114C168.219 217.114 167.723 216.991 167.291 216.744C166.863 216.494 166.526 216.125 166.28 215.636C166.038 215.148 165.916 214.544 165.916 213.824V208.273H167.615V213.619C167.615 214.214 167.78 214.687 168.11 215.04C168.439 215.392 168.867 215.568 169.394 215.568C169.712 215.568 170.028 215.489 170.343 215.33C170.661 215.17 170.924 214.93 171.132 214.608C171.344 214.286 171.449 213.877 171.445 213.381ZM177.211 211.818V217H175.512V208.273H177.143V209.693H177.251C177.451 209.231 177.766 208.86 178.194 208.58C178.626 208.299 179.169 208.159 179.825 208.159C180.419 208.159 180.94 208.284 181.387 208.534C181.834 208.78 182.181 209.148 182.427 209.636C182.673 210.125 182.796 210.729 182.796 211.449V217H181.097V211.653C181.097 211.021 180.932 210.527 180.603 210.17C180.273 209.811 179.821 209.631 179.245 209.631C178.851 209.631 178.501 209.716 178.194 209.886C177.891 210.057 177.65 210.307 177.472 210.636C177.298 210.962 177.211 211.356 177.211 211.818ZM189.228 208.273V209.636H184.461V208.273H189.228ZM185.74 206.182H187.439V214.438C187.439 214.767 187.488 215.015 187.586 215.182C187.685 215.345 187.812 215.456 187.967 215.517C188.126 215.574 188.298 215.602 188.484 215.602C188.62 215.602 188.74 215.593 188.842 215.574C188.944 215.555 189.024 215.54 189.081 215.528L189.387 216.932C189.289 216.97 189.149 217.008 188.967 217.045C188.785 217.087 188.558 217.11 188.285 217.114C187.838 217.121 187.422 217.042 187.035 216.875C186.649 216.708 186.336 216.451 186.098 216.102C185.859 215.754 185.74 215.316 185.74 214.79V206.182ZM193.046 213.653V213.545C193.053 212.841 193.123 212.28 193.256 211.864C193.392 211.447 193.585 211.11 193.835 210.852C194.085 210.595 194.387 210.36 194.739 210.148C194.966 210.004 195.171 209.843 195.352 209.665C195.534 209.487 195.678 209.282 195.784 209.051C195.89 208.82 195.943 208.564 195.943 208.284C195.943 207.947 195.864 207.655 195.705 207.409C195.546 207.163 195.334 206.973 195.068 206.841C194.807 206.705 194.515 206.636 194.193 206.636C193.902 206.636 193.623 206.697 193.358 206.818C193.093 206.939 192.873 207.129 192.699 207.386C192.525 207.64 192.424 207.968 192.398 208.369H190.671C190.697 207.688 190.869 207.112 191.188 206.642C191.506 206.169 191.926 205.811 192.449 205.568C192.976 205.326 193.557 205.205 194.193 205.205C194.89 205.205 195.5 205.335 196.023 205.597C196.546 205.854 196.951 206.216 197.239 206.682C197.53 207.144 197.676 207.684 197.676 208.301C197.676 208.725 197.61 209.108 197.477 209.449C197.345 209.786 197.155 210.087 196.909 210.352C196.667 210.617 196.375 210.852 196.034 211.057C195.712 211.258 195.451 211.466 195.25 211.682C195.053 211.898 194.909 212.153 194.818 212.449C194.727 212.744 194.678 213.11 194.671 213.545V213.653H193.046ZM193.904 217.108C193.593 217.108 193.326 216.998 193.102 216.778C192.879 216.555 192.767 216.286 192.767 215.972C192.767 215.661 192.879 215.396 193.102 215.176C193.326 214.953 193.593 214.841 193.904 214.841C194.21 214.841 194.476 214.953 194.699 215.176C194.926 215.396 195.04 215.661 195.04 215.972C195.04 216.18 194.987 216.371 194.881 216.545C194.779 216.716 194.642 216.852 194.472 216.955C194.301 217.057 194.112 217.108 193.904 217.108Z" fill="#6B7280"/>
<g filter="url(#filter1_d_4449_108938)">
<rect x="43" y="243" width="240" height="38" rx="6" fill="white"/>
<path d="M139.823 259.09C139.773 258.625 139.563 258.262 139.194 258.003C138.828 257.744 138.353 257.614 137.767 257.614C137.355 257.614 137.001 257.676 136.707 257.801C136.412 257.925 136.186 258.094 136.03 258.307C135.874 258.52 135.794 258.763 135.79 259.037C135.79 259.264 135.842 259.461 135.945 259.628C136.051 259.795 136.195 259.937 136.376 260.054C136.557 260.168 136.758 260.263 136.978 260.342C137.198 260.42 137.42 260.485 137.644 260.539L138.667 260.794C139.079 260.89 139.475 261.02 139.855 261.183C140.238 261.347 140.581 261.553 140.883 261.801C141.188 262.05 141.43 262.35 141.607 262.701C141.785 263.053 141.873 263.465 141.873 263.937C141.873 264.576 141.71 265.139 141.383 265.626C141.057 266.109 140.584 266.487 139.967 266.76C139.352 267.03 138.608 267.165 137.735 267.165C136.886 267.165 136.149 267.034 135.524 266.771C134.903 266.508 134.416 266.125 134.065 265.62C133.717 265.116 133.528 264.502 133.5 263.777H135.444C135.473 264.157 135.59 264.473 135.796 264.725C136.002 264.978 136.27 265.166 136.6 265.29C136.934 265.414 137.307 265.477 137.719 265.477C138.148 265.477 138.525 265.413 138.848 265.285C139.175 265.153 139.43 264.972 139.615 264.741C139.8 264.507 139.894 264.234 139.897 263.921C139.894 263.637 139.81 263.403 139.647 263.218C139.484 263.03 139.255 262.874 138.96 262.749C138.669 262.621 138.328 262.508 137.937 262.408L136.696 262.089C135.797 261.858 135.087 261.508 134.565 261.039C134.047 260.567 133.788 259.94 133.788 259.159C133.788 258.516 133.962 257.953 134.31 257.471C134.661 256.988 135.139 256.613 135.742 256.347C136.346 256.077 137.03 255.942 137.793 255.942C138.567 255.942 139.246 256.077 139.828 256.347C140.414 256.613 140.874 256.984 141.208 257.46C141.541 257.932 141.714 258.475 141.724 259.09H139.823ZM143.625 267V258.818H145.553V267H143.625ZM144.595 257.657C144.289 257.657 144.026 257.556 143.806 257.353C143.586 257.147 143.476 256.901 143.476 256.613C143.476 256.322 143.586 256.075 143.806 255.873C144.026 255.667 144.289 255.564 144.595 255.564C144.903 255.564 145.166 255.667 145.383 255.873C145.603 256.075 145.713 256.322 145.713 256.613C145.713 256.901 145.603 257.147 145.383 257.353C145.166 257.556 144.903 257.657 144.595 257.657ZM151.169 270.239C150.477 270.239 149.882 270.145 149.385 269.956C148.888 269.772 148.488 269.523 148.186 269.211C147.885 268.898 147.675 268.552 147.558 268.172L149.294 267.751C149.373 267.911 149.486 268.069 149.635 268.225C149.784 268.385 149.985 268.516 150.237 268.619C150.493 268.726 150.814 268.779 151.201 268.779C151.748 268.779 152.201 268.646 152.56 268.38C152.918 268.117 153.098 267.684 153.098 267.08V265.53H153.002C152.902 265.729 152.757 265.933 152.565 266.142C152.377 266.352 152.126 266.528 151.814 266.67C151.505 266.812 151.116 266.883 150.647 266.883C150.019 266.883 149.449 266.735 148.938 266.441C148.43 266.142 148.025 265.699 147.723 265.109C147.425 264.516 147.276 263.774 147.276 262.882C147.276 261.984 147.425 261.226 147.723 260.608C148.025 259.987 148.431 259.516 148.943 259.196C149.454 258.873 150.024 258.712 150.653 258.712C151.132 258.712 151.526 258.793 151.835 258.957C152.148 259.116 152.396 259.31 152.581 259.537C152.766 259.761 152.906 259.972 153.002 260.171H153.108V258.818H155.01V267.133C155.01 267.833 154.843 268.412 154.509 268.87C154.175 269.328 153.719 269.67 153.14 269.898C152.561 270.125 151.905 270.239 151.169 270.239ZM151.185 265.37C151.594 265.37 151.942 265.271 152.229 265.072C152.517 264.873 152.735 264.587 152.885 264.214C153.034 263.841 153.108 263.394 153.108 262.872C153.108 262.357 153.034 261.906 152.885 261.519C152.739 261.132 152.522 260.832 152.235 260.619C151.951 260.402 151.601 260.294 151.185 260.294C150.756 260.294 150.397 260.406 150.109 260.629C149.822 260.853 149.605 261.16 149.46 261.551C149.314 261.938 149.241 262.378 149.241 262.872C149.241 263.373 149.314 263.811 149.46 264.188C149.609 264.56 149.827 264.852 150.115 265.061C150.406 265.267 150.763 265.37 151.185 265.37ZM158.989 262.206V267H157.061V258.818H158.904V260.208H159C159.188 259.75 159.488 259.386 159.9 259.116C160.316 258.847 160.829 258.712 161.44 258.712C162.004 258.712 162.496 258.832 162.915 259.074C163.338 259.315 163.665 259.665 163.895 260.123C164.13 260.581 164.245 261.137 164.242 261.79V267H162.313V262.089C162.313 261.542 162.171 261.114 161.887 260.805C161.607 260.496 161.218 260.342 160.721 260.342C160.383 260.342 160.083 260.416 159.82 260.565C159.561 260.711 159.357 260.922 159.208 261.199C159.062 261.476 158.989 261.812 158.989 262.206ZM173.641 267.16C172.842 267.16 172.15 266.984 171.564 266.632C170.978 266.281 170.523 265.789 170.2 265.157C169.881 264.525 169.721 263.786 169.721 262.941C169.721 262.096 169.881 261.355 170.2 260.72C170.523 260.084 170.978 259.591 171.564 259.239C172.15 258.887 172.842 258.712 173.641 258.712C174.44 258.712 175.133 258.887 175.719 259.239C176.305 259.591 176.758 260.084 177.077 260.72C177.4 261.355 177.562 262.096 177.562 262.941C177.562 263.786 177.4 264.525 177.077 265.157C176.758 265.789 176.305 266.281 175.719 266.632C175.133 266.984 174.44 267.16 173.641 267.16ZM173.652 265.615C174.085 265.615 174.448 265.496 174.739 265.258C175.03 265.017 175.247 264.694 175.389 264.289C175.534 263.884 175.607 263.433 175.607 262.936C175.607 262.435 175.534 261.982 175.389 261.577C175.247 261.169 175.03 260.844 174.739 260.603C174.448 260.361 174.085 260.24 173.652 260.24C173.208 260.24 172.839 260.361 172.544 260.603C172.253 260.844 172.035 261.169 171.889 261.577C171.747 261.982 171.676 262.435 171.676 262.936C171.676 263.433 171.747 263.884 171.889 264.289C172.035 264.694 172.253 265.017 172.544 265.258C172.839 265.496 173.208 265.615 173.652 265.615ZM184.488 263.559V258.818H186.417V267H184.547V265.546H184.462C184.277 266.004 183.973 266.379 183.551 266.67C183.132 266.961 182.615 267.107 182.001 267.107C181.465 267.107 180.99 266.988 180.579 266.75C180.17 266.508 179.851 266.158 179.62 265.7C179.389 265.239 179.273 264.681 179.273 264.028V258.818H181.202V263.729C181.202 264.248 181.344 264.66 181.628 264.965C181.912 265.271 182.285 265.423 182.746 265.423C183.031 265.423 183.306 265.354 183.572 265.216C183.838 265.077 184.057 264.871 184.227 264.598C184.401 264.321 184.488 263.974 184.488 263.559ZM192.56 258.818V260.31H187.857V258.818H192.56ZM189.018 256.858H190.946V264.539C190.946 264.798 190.985 264.997 191.063 265.136C191.145 265.271 191.251 265.363 191.383 265.413C191.514 265.462 191.66 265.487 191.82 265.487C191.94 265.487 192.05 265.478 192.15 265.461C192.253 265.443 192.331 265.427 192.384 265.413L192.709 266.92C192.606 266.956 192.459 266.995 192.267 267.037C192.079 267.08 191.848 267.105 191.575 267.112C191.092 267.126 190.657 267.053 190.27 266.893C189.882 266.73 189.575 266.478 189.348 266.137C189.124 265.796 189.014 265.37 189.018 264.859V256.858Z" fill="#374151"/>
<rect x="43.5" y="243.5" width="239" height="37" rx="5.5" stroke="#E5E7EB"/>
</g>
<rect x="43" y="289" width="240" height="38" rx="6" fill="#3B82F6"/>
<path d="M148.046 305.772H146.053C145.997 305.445 145.892 305.156 145.739 304.903C145.586 304.648 145.396 304.431 145.169 304.254C144.942 304.076 144.683 303.943 144.391 303.854C144.104 303.762 143.793 303.716 143.459 303.716C142.866 303.716 142.341 303.865 141.883 304.163C141.424 304.458 141.066 304.891 140.807 305.463C140.547 306.031 140.418 306.725 140.418 307.545C140.418 308.38 140.547 309.083 140.807 309.655C141.069 310.223 141.428 310.653 141.883 310.944C142.341 311.232 142.864 311.375 143.454 311.375C143.781 311.375 144.086 311.333 144.37 311.248C144.658 311.159 144.915 311.029 145.142 310.859C145.373 310.688 145.567 310.479 145.723 310.23C145.883 309.982 145.993 309.697 146.053 309.378L148.046 309.388C147.971 309.907 147.809 310.393 147.561 310.848C147.316 311.303 146.994 311.704 146.597 312.052C146.199 312.396 145.734 312.666 145.201 312.862C144.668 313.053 144.077 313.149 143.427 313.149C142.468 313.149 141.613 312.927 140.86 312.483C140.107 312.039 139.514 311.398 139.081 310.56C138.647 309.722 138.431 308.717 138.431 307.545C138.431 306.37 138.649 305.365 139.086 304.531C139.523 303.692 140.118 303.051 140.87 302.608C141.623 302.164 142.476 301.942 143.427 301.942C144.035 301.942 144.599 302.027 145.121 302.197C145.643 302.368 146.108 302.618 146.517 302.949C146.925 303.275 147.261 303.676 147.524 304.152C147.79 304.625 147.964 305.164 148.046 305.772ZM152.199 313.165C151.681 313.165 151.214 313.073 150.799 312.888C150.387 312.7 150.06 312.423 149.818 312.057C149.581 311.691 149.462 311.24 149.462 310.704C149.462 310.243 149.547 309.861 149.717 309.559C149.888 309.257 150.12 309.016 150.415 308.835C150.71 308.653 151.042 308.517 151.411 308.424C151.784 308.328 152.169 308.259 152.567 308.217C153.046 308.167 153.435 308.123 153.734 308.083C154.032 308.041 154.248 307.977 154.383 307.892C154.522 307.803 154.591 307.666 154.591 307.482V307.45C154.591 307.048 154.472 306.738 154.234 306.517C153.996 306.297 153.654 306.187 153.206 306.187C152.734 306.187 152.359 306.29 152.082 306.496C151.809 306.702 151.624 306.945 151.528 307.226L149.728 306.97C149.87 306.473 150.104 306.058 150.431 305.724C150.758 305.386 151.157 305.134 151.63 304.967C152.102 304.797 152.624 304.712 153.196 304.712C153.59 304.712 153.982 304.758 154.373 304.85C154.763 304.942 155.12 305.095 155.443 305.308C155.767 305.518 156.026 305.804 156.221 306.166C156.42 306.528 156.519 306.981 156.519 307.524V313H154.666V311.876H154.602C154.485 312.103 154.319 312.316 154.106 312.515C153.897 312.711 153.632 312.869 153.313 312.989C152.997 313.107 152.626 313.165 152.199 313.165ZM152.7 311.748C153.087 311.748 153.423 311.672 153.707 311.519C153.991 311.363 154.209 311.157 154.362 310.901C154.518 310.646 154.596 310.367 154.596 310.065V309.101C154.536 309.151 154.433 309.197 154.288 309.239C154.145 309.282 153.986 309.319 153.808 309.351C153.631 309.383 153.455 309.412 153.281 309.436C153.107 309.461 152.956 309.483 152.828 309.5C152.54 309.539 152.283 309.603 152.056 309.692C151.828 309.781 151.649 309.905 151.518 310.065C151.386 310.221 151.321 310.424 151.321 310.672C151.321 311.027 151.45 311.295 151.709 311.477C151.969 311.658 152.299 311.748 152.7 311.748ZM160.462 308.206V313H158.533V304.818H160.376V306.208H160.472C160.66 305.75 160.961 305.386 161.372 305.116C161.788 304.847 162.301 304.712 162.912 304.712C163.477 304.712 163.968 304.832 164.387 305.074C164.81 305.315 165.137 305.665 165.368 306.123C165.602 306.581 165.717 307.137 165.714 307.79V313H163.785V308.089C163.785 307.542 163.643 307.114 163.359 306.805C163.079 306.496 162.69 306.342 162.193 306.342C161.855 306.342 161.555 306.416 161.293 306.565C161.033 306.711 160.829 306.922 160.68 307.199C160.534 307.476 160.462 307.812 160.462 308.206ZM171.318 313.16C170.501 313.16 169.8 312.98 169.214 312.622C168.631 312.263 168.182 311.768 167.866 311.136C167.554 310.5 167.397 309.768 167.397 308.941C167.397 308.11 167.557 307.377 167.877 306.741C168.196 306.102 168.647 305.605 169.23 305.25C169.816 304.891 170.508 304.712 171.307 304.712C171.971 304.712 172.559 304.834 173.07 305.079C173.585 305.321 173.995 305.663 174.301 306.107C174.606 306.548 174.78 307.062 174.823 307.652H172.98C172.905 307.258 172.728 306.929 172.447 306.667C172.17 306.4 171.799 306.267 171.334 306.267C170.94 306.267 170.593 306.374 170.295 306.587C169.997 306.796 169.764 307.098 169.597 307.492C169.434 307.886 169.352 308.359 169.352 308.909C169.352 309.467 169.434 309.946 169.597 310.347C169.761 310.745 169.99 311.052 170.284 311.269C170.583 311.482 170.933 311.588 171.334 311.588C171.618 311.588 171.872 311.535 172.096 311.429C172.323 311.319 172.513 311.161 172.666 310.955C172.818 310.749 172.923 310.498 172.98 310.203H174.823C174.777 310.782 174.606 311.295 174.311 311.743C174.017 312.187 173.615 312.535 173.108 312.787C172.6 313.036 172.003 313.16 171.318 313.16ZM180.103 313.16C179.283 313.16 178.575 312.989 177.978 312.648C177.385 312.304 176.929 311.817 176.609 311.189C176.289 310.557 176.13 309.813 176.13 308.957C176.13 308.115 176.289 307.377 176.609 306.741C176.932 306.102 177.383 305.605 177.962 305.25C178.541 304.891 179.221 304.712 180.002 304.712C180.506 304.712 180.982 304.793 181.43 304.957C181.881 305.116 182.278 305.365 182.623 305.702C182.971 306.04 183.244 306.469 183.443 306.991C183.642 307.51 183.741 308.128 183.741 308.845V309.436H177.035V308.137H181.893C181.89 307.767 181.81 307.439 181.653 307.151C181.497 306.86 181.279 306.631 180.998 306.464C180.721 306.297 180.398 306.214 180.029 306.214C179.635 306.214 179.288 306.31 178.99 306.501C178.692 306.69 178.459 306.938 178.292 307.247C178.129 307.553 178.045 307.888 178.042 308.254V309.388C178.042 309.864 178.129 310.273 178.303 310.614C178.477 310.951 178.72 311.21 179.033 311.391C179.345 311.569 179.711 311.658 180.13 311.658C180.411 311.658 180.664 311.619 180.892 311.54C181.119 311.459 181.316 311.34 181.483 311.184C181.65 311.027 181.776 310.834 181.861 310.603L183.662 310.805C183.548 311.281 183.331 311.697 183.012 312.052C182.696 312.403 182.291 312.677 181.797 312.872C181.304 313.064 180.739 313.16 180.103 313.16ZM187.376 302.091V313H185.448V302.091H187.376Z" fill="white"/>
<path fill-rule="evenodd" clip-rule="evenodd" d="M289.122 23.8785C289.163 23.9192 289.195 23.9675 289.217 24.0206C289.239 24.0738 289.251 24.1307 289.251 24.1883C289.251 24.2458 289.239 24.3028 289.217 24.356C289.195 24.4091 289.163 24.4574 289.122 24.498L279.497 34.123C279.415 34.2052 279.304 34.2513 279.188 34.2513C279.071 34.2513 278.96 34.2052 278.878 34.123C278.796 34.0409 278.75 33.9295 278.75 33.8133C278.75 33.6971 278.796 33.5857 278.878 33.5035L288.503 23.8785C288.543 23.8378 288.592 23.8055 288.645 23.7834C288.698 23.7614 288.755 23.75 288.813 23.75C288.87 23.75 288.927 23.7614 288.98 23.7834C289.033 23.8055 289.082 23.8378 289.122 23.8785V23.8785Z" fill="#374151"/>
<path fill-rule="evenodd" clip-rule="evenodd" d="M278.878 23.8785C278.837 23.9192 278.805 23.9675 278.783 24.0206C278.761 24.0738 278.749 24.1307 278.749 24.1883C278.749 24.2458 278.761 24.3028 278.783 24.356C278.805 24.4091 278.837 24.4574 278.878 24.498L288.503 34.123C288.585 34.2052 288.696 34.2513 288.813 34.2513C288.929 34.2513 289.04 34.2052 289.122 34.123C289.204 34.0409 289.251 33.9295 289.251 33.8133C289.251 33.6971 289.204 33.5857 289.122 33.5035L279.497 23.8785C279.457 23.8378 279.408 23.8055 279.355 23.7834C279.302 23.7614 279.245 23.75 279.188 23.75C279.13 23.75 279.073 23.7614 279.02 23.7834C278.967 23.8055 278.918 23.8378 278.878 23.8785V23.8785Z" fill="#374151"/>
</g>
</g>
<defs>
<filter id="filter0_dd_4449_108938" x="0" y="0" width="326" height="390" filterUnits="userSpaceOnUse" color-interpolation-filters="sRGB">
<feFlood flood-opacity="0" result="BackgroundImageFix"/>
<feColorMatrix in="SourceAlpha" type="matrix" values="0 0 0 0 0 0 0 0 0 0 0 0 0 0 0 0 0 0 127 0" result="hardAlpha"/>
<feOffset dy="8"/>
<feGaussianBlur stdDeviation="2.5"/>
<feComposite in2="hardAlpha" operator="out"/>
<feColorMatrix type="matrix" values="0 0 0 0 0 0 0 0 0 0 0 0 0 0 0 0 0 0 0.08 0"/>
<feBlend mode="normal" in2="BackgroundImageFix" result="effect1_dropShadow_4449_108938"/>
<feColorMatrix in="SourceAlpha" type="matrix" values="0 0 0 0 0 0 0 0 0 0 0 0 0 0 0 0 0 0 127 0" result="hardAlpha"/>
<feOffset dy="20"/>
<feGaussianBlur stdDeviation="6.5"/>
<feComposite in2="hardAlpha" operator="out"/>
<feColorMatrix type="matrix" values="0 0 0 0 0 0 0 0 0 0 0 0 0 0 0 0 0 0 0.03 0"/>
<feBlend mode="normal" in2="effect1_dropShadow_4449_108938" result="effect2_dropShadow_4449_108938"/>
<feBlend mode="normal" in="SourceGraphic" in2="effect2_dropShadow_4449_108938" result="shape"/>
</filter>
<filter id="filter1_d_4449_108938" x="41" y="242" width="244" height="42" filterUnits="userSpaceOnUse" color-interpolation-filters="sRGB">
<feFlood flood-opacity="0" result="BackgroundImageFix"/>
<feColorMatrix in="SourceAlpha" type="matrix" values="0 0 0 0 0 0 0 0 0 0 0 0 0 0 0 0 0 0 127 0" result="hardAlpha"/>
<feOffset dy="1"/>
<feGaussianBlur stdDeviation="1"/>
<feComposite in2="hardAlpha" operator="out"/>
<feColorMatrix type="matrix" values="0 0 0 0 0 0 0 0 0 0 0 0 0 0 0 0 0 0 0.05 0"/>
<feBlend mode="normal" in2="BackgroundImageFix" result="effect1_dropShadow_4449_108938"/>
<feBlend mode="normal" in="SourceGraphic" in2="effect1_dropShadow_4449_108938" result="shape"/>
</filter>
<clipPath id="clip0_4449_108938">
<rect x="13" width="300" height="357" rx="10" fill="white"/>
</clipPath>
<clipPath id="clip1_4449_108938">
<rect width="26" height="26" fill="white" transform="translate(150 48)"/>
</clipPath>
</defs>
</svg>
