<svg width="300" height="216" viewBox="0 0 300 216" fill="none" xmlns="http://www.w3.org/2000/svg">
<rect x="95" y="102" width="70" height="70" rx="35" fill="#06B6D4" fill-opacity="0.8"/>
<path d="M124.682 143.159C124.163 143.152 123.652 143.057 123.148 142.875C122.648 142.693 122.193 142.39 121.784 141.966C121.375 141.542 121.047 140.972 120.801 140.256C120.559 139.54 120.438 138.646 120.438 137.574C120.438 136.559 120.538 135.657 120.739 134.869C120.943 134.081 121.237 133.417 121.619 132.875C122.002 132.33 122.464 131.915 123.006 131.631C123.547 131.347 124.155 131.205 124.83 131.205C125.523 131.205 126.138 131.341 126.676 131.614C127.214 131.886 127.65 132.263 127.983 132.744C128.32 133.225 128.534 133.773 128.625 134.386H126.892C126.775 133.902 126.542 133.506 126.193 133.199C125.845 132.892 125.39 132.739 124.83 132.739C123.977 132.739 123.313 133.11 122.835 133.852C122.362 134.595 122.123 135.627 122.119 136.949H122.205C122.405 136.619 122.652 136.339 122.943 136.108C123.239 135.873 123.568 135.693 123.932 135.568C124.299 135.439 124.686 135.375 125.091 135.375C125.765 135.375 126.375 135.54 126.92 135.869C127.47 136.195 127.907 136.646 128.233 137.222C128.559 137.797 128.722 138.456 128.722 139.199C128.722 139.941 128.553 140.614 128.216 141.216C127.883 141.818 127.413 142.295 126.807 142.648C126.201 142.996 125.492 143.167 124.682 143.159ZM124.676 141.682C125.123 141.682 125.523 141.572 125.875 141.352C126.227 141.133 126.506 140.837 126.71 140.466C126.915 140.095 127.017 139.68 127.017 139.222C127.017 138.775 126.917 138.367 126.716 138C126.519 137.633 126.246 137.341 125.898 137.125C125.553 136.909 125.159 136.801 124.716 136.801C124.379 136.801 124.066 136.866 123.778 136.994C123.494 137.123 123.244 137.301 123.028 137.528C122.813 137.756 122.642 138.017 122.517 138.312C122.396 138.604 122.335 138.913 122.335 139.239C122.335 139.674 122.436 140.078 122.636 140.449C122.841 140.82 123.119 141.119 123.472 141.347C123.828 141.57 124.229 141.682 124.676 141.682ZM134.712 143.159C134 143.159 133.36 143.023 132.792 142.75C132.227 142.473 131.776 142.095 131.439 141.614C131.102 141.133 130.922 140.583 130.9 139.966H132.604C132.646 140.466 132.867 140.877 133.269 141.199C133.67 141.521 134.151 141.682 134.712 141.682C135.159 141.682 135.555 141.58 135.9 141.375C136.248 141.167 136.521 140.881 136.718 140.517C136.919 140.153 137.019 139.739 137.019 139.273C137.019 138.799 136.917 138.377 136.712 138.006C136.508 137.634 136.225 137.343 135.866 137.131C135.509 136.919 135.1 136.811 134.638 136.807C134.286 136.807 133.932 136.867 133.576 136.989C133.22 137.11 132.932 137.269 132.712 137.466L131.104 137.227L131.758 131.364H138.155V132.869H133.218L132.848 136.125H132.917C133.144 135.905 133.445 135.722 133.82 135.574C134.199 135.426 134.604 135.352 135.036 135.352C135.744 135.352 136.375 135.521 136.928 135.858C137.485 136.195 137.922 136.655 138.241 137.239C138.562 137.818 138.722 138.485 138.718 139.239C138.722 139.992 138.551 140.665 138.206 141.256C137.866 141.847 137.392 142.312 136.786 142.653C136.184 142.991 135.492 143.159 134.712 143.159Z" fill="white"/>
<rect x="35" y="30" width="100" height="100" rx="50" fill="#8B5CF6" fill-opacity="0.9"/>
<path d="M78.4631 87.1989C77.4877 87.1989 76.6165 87.0308 75.8494 86.6946C75.0871 86.3584 74.4834 85.892 74.0384 85.2955C73.598 84.6941 73.3613 83.9981 73.3281 83.2074H75.5582C75.5866 83.6383 75.7311 84.0123 75.9915 84.3295C76.2566 84.642 76.6023 84.8835 77.0284 85.054C77.4545 85.2244 77.928 85.3097 78.4489 85.3097C79.0218 85.3097 79.5284 85.2102 79.9688 85.0114C80.4138 84.8125 80.7618 84.5355 81.0128 84.1804C81.2637 83.8205 81.3892 83.4062 81.3892 82.9375C81.3892 82.4498 81.2637 82.0213 81.0128 81.652C80.7666 81.2779 80.4044 80.9844 79.9261 80.7713C79.4527 80.5582 78.8797 80.4517 78.2074 80.4517H76.9787V78.6619H78.2074C78.7472 78.6619 79.2206 78.5649 79.6278 78.3707C80.0398 78.1766 80.3617 77.9067 80.5938 77.5611C80.8258 77.2107 80.9418 76.8011 80.9418 76.3324C80.9418 75.8826 80.84 75.492 80.6364 75.1605C80.4375 74.8243 80.1534 74.5616 79.7841 74.3722C79.4195 74.1828 78.9886 74.0881 78.4915 74.0881C78.018 74.0881 77.5753 74.1757 77.1634 74.3509C76.7562 74.5213 76.4247 74.7675 76.169 75.0895C75.9134 75.4067 75.776 75.7879 75.7571 76.233H73.6335C73.6572 75.447 73.8892 74.7557 74.3295 74.1591C74.7746 73.5625 75.3617 73.0961 76.0909 72.7599C76.8201 72.4238 77.6297 72.2557 78.5199 72.2557C79.4527 72.2557 80.2576 72.438 80.9347 72.8026C81.6165 73.1624 82.142 73.643 82.5114 74.2443C82.8854 74.8456 83.0701 75.5038 83.0653 76.2188C83.0701 77.0331 82.8428 77.7244 82.3835 78.2926C81.929 78.8608 81.3229 79.242 80.5653 79.4361V79.5497C81.5313 79.6965 82.2794 80.08 82.8097 80.7003C83.3447 81.3205 83.6098 82.09 83.6051 83.0085C83.6098 83.8087 83.3873 84.526 82.9375 85.1605C82.4924 85.795 81.884 86.2945 81.1122 86.6591C80.3404 87.0189 79.4574 87.1989 78.4631 87.1989ZM91.3045 87.1989C90.2866 87.1989 89.3869 87.0237 88.6057 86.6733C87.8292 86.3229 87.2207 85.84 86.7804 85.2244C86.3401 84.6089 86.1223 83.9081 86.127 83.1222C86.1223 82.5066 86.2477 81.9408 86.5034 81.4247C86.7638 80.9039 87.1166 80.4706 87.5616 80.125C88.0067 79.7746 88.5039 79.5521 89.0531 79.4574V79.3722C88.3287 79.197 87.7487 78.8087 87.3131 78.2074C86.8775 77.6061 86.662 76.9148 86.6668 76.1335C86.662 75.3902 86.8585 74.7273 87.2563 74.1449C87.6587 73.5578 88.2103 73.0961 88.9111 72.7599C89.6118 72.4238 90.4097 72.2557 91.3045 72.2557C92.19 72.2557 92.9807 72.4261 93.6767 72.767C94.3775 73.1032 94.9291 73.5649 95.3315 74.152C95.734 74.7344 95.9376 75.3949 95.9423 76.1335C95.9376 76.9148 95.7151 77.6061 95.2747 78.2074C94.8344 78.8087 94.2615 79.197 93.556 79.3722V79.4574C94.1005 79.5521 94.5905 79.7746 95.0261 80.125C95.4665 80.4706 95.8169 80.9039 96.0773 81.4247C96.3424 81.9408 96.4774 82.5066 96.4821 83.1222C96.4774 83.9081 96.2548 84.6089 95.8145 85.2244C95.3741 85.84 94.7634 86.3229 93.9821 86.6733C93.2056 87.0237 92.3131 87.1989 91.3045 87.1989ZM91.3045 85.402C91.9059 85.402 92.4267 85.3026 92.867 85.1037C93.3074 84.9001 93.6483 84.6184 93.8898 84.2585C94.1313 83.8939 94.2544 83.4678 94.2591 82.9801C94.2544 82.4735 94.1218 82.026 93.8614 81.6378C93.6057 81.2495 93.2577 80.9441 92.8173 80.7216C92.377 80.4991 91.8727 80.3878 91.3045 80.3878C90.7316 80.3878 90.2226 80.4991 89.7776 80.7216C89.3325 80.9441 88.9821 81.2495 88.7264 81.6378C88.4707 82.026 88.3453 82.4735 88.35 82.9801C88.3453 83.4678 88.4613 83.8939 88.698 84.2585C88.9395 84.6184 89.2828 84.9001 89.7278 85.1037C90.1729 85.3026 90.6985 85.402 91.3045 85.402ZM91.3045 78.6335C91.7875 78.6335 92.216 78.5365 92.5901 78.3423C92.9641 78.1482 93.2577 77.8783 93.4707 77.5327C93.6885 77.187 93.7998 76.7822 93.8045 76.3182C93.7998 75.8636 93.6909 75.4659 93.4778 75.125C93.2695 74.7841 92.9783 74.5213 92.6043 74.3366C92.2302 74.1473 91.797 74.0526 91.3045 74.0526C90.8027 74.0526 90.3623 74.1473 89.9835 74.3366C89.6095 74.5213 89.3183 74.7841 89.1099 75.125C88.9016 75.4659 88.7998 75.8636 88.8045 76.3182C88.7998 76.7822 88.904 77.187 89.117 77.5327C89.3301 77.8783 89.6237 78.1482 89.9977 78.3423C90.3765 78.5365 90.8121 78.6335 91.3045 78.6335Z" fill="white"/>
<rect x="125" width="140" height="140" rx="70" fill="#3B82F6" fill-opacity="0.9"/>
<path d="M183.224 56.4602C184.392 56.4687 185.543 56.6818 186.676 57.0994C187.81 57.517 188.832 58.1989 189.744 59.1449C190.665 60.0909 191.398 61.3693 191.943 62.9801C192.497 64.5824 192.778 66.5767 192.787 68.9631C192.787 71.2557 192.557 73.2969 192.097 75.0866C191.636 76.8679 190.976 78.3722 190.115 79.5994C189.263 80.8267 188.227 81.7599 187.009 82.3991C185.79 83.0384 184.418 83.358 182.892 83.358C181.332 83.358 179.947 83.0511 178.737 82.4375C177.527 81.8239 176.543 80.9759 175.784 79.8935C175.026 78.8026 174.553 77.5497 174.365 76.1349H178.264C178.52 77.2599 179.04 78.1719 179.824 78.8707C180.616 79.5611 181.639 79.9062 182.892 79.9062C184.81 79.9062 186.305 79.071 187.379 77.4006C188.453 75.7216 188.994 73.3778 189.003 70.3693H188.798C188.355 71.1023 187.801 71.733 187.136 72.2614C186.48 72.7898 185.743 73.1989 184.925 73.4886C184.107 73.7784 183.233 73.9233 182.304 73.9233C180.795 73.9233 179.423 73.5526 178.188 72.8111C176.952 72.0696 175.967 71.0511 175.234 69.7557C174.501 68.4602 174.135 66.9815 174.135 65.3196C174.135 63.6662 174.51 62.1662 175.26 60.8196C176.018 59.473 177.075 58.4077 178.43 57.6236C179.794 56.831 181.392 56.4432 183.224 56.4602ZM183.237 59.7841C182.24 59.7841 181.341 60.0312 180.54 60.5256C179.747 61.0114 179.121 61.6719 178.661 62.5071C178.2 63.3338 177.97 64.2543 177.97 65.2685C177.97 66.2827 178.192 67.2031 178.635 68.0298C179.087 68.848 179.7 69.5 180.476 69.9858C181.26 70.4631 182.155 70.7017 183.161 70.7017C183.911 70.7017 184.609 70.5568 185.257 70.267C185.905 69.9773 186.472 69.5767 186.957 69.0653C187.443 68.5455 187.822 67.9574 188.095 67.3011C188.368 66.6449 188.504 65.9545 188.504 65.2301C188.504 64.267 188.274 63.3722 187.814 62.5455C187.362 61.7187 186.74 61.054 185.947 60.5511C185.155 60.0398 184.251 59.7841 183.237 59.7841ZM206.291 56.4602C207.459 56.4687 208.609 56.6818 209.743 57.0994C210.876 57.517 211.899 58.1989 212.811 59.1449C213.731 60.0909 214.464 61.3693 215.01 62.9801C215.564 64.5824 215.845 66.5767 215.854 68.9631C215.854 71.2557 215.624 73.2969 215.163 75.0866C214.703 76.8679 214.043 78.3722 213.182 79.5994C212.33 80.8267 211.294 81.7599 210.075 82.3991C208.856 83.0384 207.484 83.358 205.959 83.358C204.399 83.358 203.014 83.0511 201.804 82.4375C200.594 81.8239 199.609 80.9759 198.851 79.8935C198.092 78.8026 197.619 77.5497 197.432 76.1349H201.331C201.587 77.2599 202.106 78.1719 202.891 78.8707C203.683 79.5611 204.706 79.9062 205.959 79.9062C207.876 79.9062 209.372 79.071 210.446 77.4006C211.52 75.7216 212.061 73.3778 212.07 70.3693H211.865C211.422 71.1023 210.868 71.733 210.203 72.2614C209.547 72.7898 208.81 73.1989 207.991 73.4886C207.173 73.7784 206.3 73.9233 205.371 73.9233C203.862 73.9233 202.49 73.5526 201.254 72.8111C200.018 72.0696 199.034 71.0511 198.301 69.7557C197.568 68.4602 197.202 66.9815 197.202 65.3196C197.202 63.6662 197.577 62.1662 198.327 60.8196C199.085 59.473 200.142 58.4077 201.497 57.6236C202.861 56.831 204.459 56.4432 206.291 56.4602ZM206.304 59.7841C205.307 59.7841 204.408 60.0312 203.606 60.5256C202.814 61.0114 202.187 61.6719 201.727 62.5071C201.267 63.3338 201.037 64.2543 201.037 65.2685C201.037 66.2827 201.258 67.2031 201.702 68.0298C202.153 68.848 202.767 69.5 203.543 69.9858C204.327 70.4631 205.222 70.7017 206.227 70.7017C206.977 70.7017 207.676 70.5568 208.324 70.267C208.972 69.9773 209.538 69.5767 210.024 69.0653C210.51 68.5455 210.889 67.9574 211.162 67.3011C211.435 66.6449 211.571 65.9545 211.571 65.2301C211.571 64.267 211.341 63.3722 210.881 62.5455C210.429 61.7187 209.807 61.054 209.014 60.5511C208.222 60.0398 207.318 59.7841 206.304 59.7841Z" fill="white"/>
<circle cx="34.5" cy="204" r="4" fill="#3B82F6"/>
<path d="M59.1705 198.364V210H57.5568L51.642 201.466H51.5341V210H49.7784V198.364H51.4034L57.3239 206.909H57.4318V198.364H59.1705ZM65.4365 210.176C64.5767 210.176 63.8362 209.992 63.2149 209.625C62.5975 209.254 62.1202 208.733 61.7831 208.062C61.4498 207.388 61.2831 206.598 61.2831 205.693C61.2831 204.799 61.4498 204.011 61.7831 203.33C62.1202 202.648 62.5899 202.116 63.1922 201.733C63.7983 201.35 64.5066 201.159 65.3172 201.159C65.8096 201.159 66.2869 201.241 66.749 201.403C67.2112 201.566 67.6259 201.822 67.9934 202.17C68.3608 202.519 68.6505 202.972 68.8627 203.528C69.0748 204.081 69.1809 204.754 69.1809 205.545V206.148H62.2434V204.875H67.5161C67.5161 204.428 67.4252 204.032 67.2434 203.688C67.0615 203.339 66.8059 203.064 66.4763 202.864C66.1505 202.663 65.768 202.562 65.3286 202.562C64.8513 202.562 64.4346 202.68 64.0786 202.915C63.7263 203.146 63.4536 203.449 63.2604 203.824C63.071 204.195 62.9763 204.598 62.9763 205.034V206.028C62.9763 206.612 63.0786 207.108 63.2831 207.517C63.4915 207.926 63.7812 208.239 64.1524 208.455C64.5237 208.667 64.9574 208.773 65.4536 208.773C65.7755 208.773 66.0691 208.727 66.3343 208.636C66.5994 208.542 66.8286 208.402 67.0218 208.216C67.2149 208.03 67.3627 207.801 67.4649 207.528L69.0729 207.818C68.9441 208.292 68.713 208.706 68.3797 209.062C68.0502 209.415 67.6354 209.689 67.1354 209.886C66.6392 210.08 66.0729 210.176 65.4365 210.176ZM73.0222 210L70.454 201.273H72.2097L73.9199 207.682H74.0052L75.7211 201.273H77.4768L79.1813 207.653H79.2665L80.9654 201.273H82.7211L80.1586 210H78.4256L76.6529 203.699H76.5222L74.7495 210H73.0222Z" fill="#1F2937"/>
<circle cx="107.5" cy="204" r="4" fill="#6366F1"/>
<path d="M122.778 210V198.364H126.926C127.831 198.364 128.581 198.528 129.176 198.858C129.771 199.187 130.216 199.638 130.511 200.21C130.807 200.778 130.955 201.419 130.955 202.131C130.955 202.847 130.805 203.491 130.506 204.062C130.21 204.631 129.763 205.081 129.165 205.415C128.57 205.744 127.822 205.909 126.92 205.909H124.068V204.42H126.761C127.333 204.42 127.797 204.322 128.153 204.125C128.509 203.924 128.771 203.652 128.938 203.307C129.104 202.962 129.188 202.57 129.188 202.131C129.188 201.691 129.104 201.301 128.938 200.96C128.771 200.619 128.508 200.352 128.148 200.159C127.792 199.966 127.322 199.869 126.739 199.869H124.534V210H122.778ZM135.418 210.193C134.865 210.193 134.365 210.091 133.918 209.886C133.471 209.678 133.117 209.377 132.856 208.983C132.598 208.589 132.469 208.106 132.469 207.534C132.469 207.042 132.564 206.636 132.753 206.318C132.943 206 133.198 205.748 133.52 205.562C133.842 205.377 134.202 205.237 134.6 205.142C134.998 205.047 135.403 204.975 135.816 204.926C136.339 204.866 136.763 204.816 137.089 204.778C137.414 204.737 137.651 204.67 137.799 204.58C137.946 204.489 138.02 204.341 138.02 204.136V204.097C138.02 203.6 137.88 203.216 137.6 202.943C137.323 202.67 136.91 202.534 136.361 202.534C135.789 202.534 135.339 202.661 135.009 202.915C134.683 203.165 134.458 203.443 134.333 203.75L132.736 203.386C132.926 202.856 133.202 202.428 133.566 202.102C133.933 201.773 134.356 201.534 134.833 201.386C135.31 201.235 135.812 201.159 136.339 201.159C136.687 201.159 137.056 201.201 137.446 201.284C137.84 201.364 138.208 201.511 138.549 201.727C138.893 201.943 139.176 202.252 139.395 202.653C139.615 203.051 139.725 203.568 139.725 204.205V210H138.066V208.807H137.998C137.888 209.027 137.723 209.242 137.503 209.455C137.284 209.667 137.001 209.843 136.657 209.983C136.312 210.123 135.899 210.193 135.418 210.193ZM135.787 208.83C136.257 208.83 136.659 208.737 136.992 208.551C137.329 208.366 137.585 208.123 137.759 207.824C137.937 207.521 138.026 207.197 138.026 206.852V205.727C137.965 205.788 137.848 205.845 137.674 205.898C137.503 205.947 137.308 205.991 137.089 206.028C136.869 206.062 136.655 206.095 136.446 206.125C136.238 206.152 136.064 206.174 135.924 206.193C135.594 206.235 135.293 206.305 135.02 206.403C134.751 206.502 134.535 206.644 134.373 206.83C134.214 207.011 134.134 207.254 134.134 207.557C134.134 207.977 134.289 208.295 134.6 208.511C134.91 208.723 135.306 208.83 135.787 208.83ZM143.767 204.818V210H142.068V201.273H143.698V202.693H143.806C144.007 202.231 144.321 201.86 144.749 201.58C145.181 201.299 145.725 201.159 146.38 201.159C146.975 201.159 147.496 201.284 147.943 201.534C148.39 201.78 148.736 202.148 148.982 202.636C149.229 203.125 149.352 203.729 149.352 204.449V210H147.653V204.653C147.653 204.021 147.488 203.527 147.159 203.17C146.829 202.811 146.376 202.631 145.801 202.631C145.407 202.631 145.056 202.716 144.749 202.886C144.446 203.057 144.206 203.307 144.028 203.636C143.854 203.962 143.767 204.356 143.767 204.818ZM154.977 210.17C154.273 210.17 153.644 209.991 153.091 209.631C152.542 209.267 152.11 208.75 151.795 208.08C151.485 207.405 151.329 206.597 151.329 205.653C151.329 204.71 151.487 203.903 151.801 203.233C152.119 202.562 152.555 202.049 153.108 201.693C153.661 201.337 154.288 201.159 154.989 201.159C155.53 201.159 155.966 201.25 156.295 201.432C156.629 201.61 156.886 201.818 157.068 202.057C157.254 202.295 157.398 202.506 157.5 202.688H157.602V198.364H159.301V210H157.642V208.642H157.5C157.398 208.828 157.25 209.04 157.057 209.278C156.867 209.517 156.606 209.725 156.273 209.903C155.939 210.081 155.508 210.17 154.977 210.17ZM155.352 208.722C155.841 208.722 156.254 208.593 156.591 208.335C156.932 208.074 157.189 207.712 157.364 207.25C157.542 206.788 157.631 206.25 157.631 205.636C157.631 205.03 157.544 204.5 157.369 204.045C157.195 203.591 156.939 203.237 156.602 202.983C156.265 202.729 155.848 202.602 155.352 202.602C154.841 202.602 154.415 202.735 154.074 203C153.733 203.265 153.475 203.627 153.301 204.085C153.131 204.544 153.045 205.061 153.045 205.636C153.045 206.22 153.133 206.744 153.307 207.21C153.481 207.676 153.739 208.045 154.079 208.318C154.424 208.587 154.848 208.722 155.352 208.722ZM161.806 210V201.273H163.505V210H161.806ZM162.664 199.926C162.368 199.926 162.115 199.828 161.902 199.631C161.694 199.43 161.59 199.191 161.59 198.915C161.59 198.634 161.694 198.396 161.902 198.199C162.115 197.998 162.368 197.898 162.664 197.898C162.959 197.898 163.211 197.998 163.419 198.199C163.632 198.396 163.738 198.634 163.738 198.915C163.738 199.191 163.632 199.43 163.419 199.631C163.211 199.828 162.959 199.926 162.664 199.926ZM167.569 204.818V210H165.87V201.273H167.501V202.693H167.609C167.81 202.231 168.124 201.86 168.552 201.58C168.984 201.299 169.527 201.159 170.183 201.159C170.777 201.159 171.298 201.284 171.745 201.534C172.192 201.78 172.539 202.148 172.785 202.636C173.031 203.125 173.154 203.729 173.154 204.449V210H171.455V204.653C171.455 204.021 171.291 203.527 170.961 203.17C170.632 202.811 170.179 202.631 169.603 202.631C169.209 202.631 168.859 202.716 168.552 202.886C168.249 203.057 168.008 203.307 167.83 203.636C167.656 203.962 167.569 204.356 167.569 204.818ZM179.172 213.455C178.479 213.455 177.882 213.364 177.382 213.182C176.886 213 176.48 212.759 176.166 212.46C175.852 212.161 175.617 211.833 175.462 211.477L176.922 210.875C177.024 211.042 177.16 211.218 177.331 211.403C177.505 211.593 177.74 211.754 178.035 211.886C178.335 212.019 178.719 212.085 179.189 212.085C179.833 212.085 180.365 211.928 180.785 211.614C181.206 211.303 181.416 210.807 181.416 210.125V208.409H181.308C181.206 208.595 181.058 208.801 180.865 209.028C180.676 209.256 180.414 209.453 180.081 209.619C179.748 209.786 179.314 209.869 178.78 209.869C178.09 209.869 177.469 209.708 176.916 209.386C176.367 209.061 175.931 208.581 175.609 207.949C175.291 207.312 175.132 206.53 175.132 205.602C175.132 204.674 175.289 203.879 175.604 203.216C175.922 202.553 176.357 202.045 176.91 201.693C177.463 201.337 178.09 201.159 178.791 201.159C179.333 201.159 179.77 201.25 180.104 201.432C180.437 201.61 180.696 201.818 180.882 202.057C181.071 202.295 181.217 202.506 181.319 202.688H181.444V201.273H183.109V210.193C183.109 210.943 182.935 211.559 182.587 212.04C182.238 212.521 181.766 212.877 181.172 213.108C180.581 213.339 179.914 213.455 179.172 213.455ZM179.155 208.46C179.643 208.46 180.056 208.347 180.393 208.119C180.734 207.888 180.992 207.559 181.166 207.131C181.344 206.699 181.433 206.182 181.433 205.58C181.433 204.992 181.346 204.475 181.172 204.028C180.998 203.581 180.742 203.233 180.405 202.983C180.068 202.729 179.651 202.602 179.155 202.602C178.643 202.602 178.217 202.735 177.876 203C177.535 203.261 177.278 203.617 177.104 204.068C176.933 204.519 176.848 205.023 176.848 205.58C176.848 206.152 176.935 206.653 177.109 207.085C177.284 207.517 177.541 207.854 177.882 208.097C178.227 208.339 178.651 208.46 179.155 208.46Z" fill="#1F2937"/>
<circle cx="208.5" cy="204" r="4" fill="#06B6D4"/>
<path d="M223.778 210V198.364H230.994V199.875H225.534V203.42H230.477V204.926H225.534V210H223.778ZM235.606 210.193C235.053 210.193 234.553 210.091 234.106 209.886C233.659 209.678 233.304 209.377 233.043 208.983C232.785 208.589 232.657 208.106 232.657 207.534C232.657 207.042 232.751 206.636 232.941 206.318C233.13 206 233.386 205.748 233.708 205.562C234.03 205.377 234.39 205.237 234.787 205.142C235.185 205.047 235.59 204.975 236.003 204.926C236.526 204.866 236.95 204.816 237.276 204.778C237.602 204.737 237.839 204.67 237.986 204.58C238.134 204.489 238.208 204.341 238.208 204.136V204.097C238.208 203.6 238.068 203.216 237.787 202.943C237.511 202.67 237.098 202.534 236.549 202.534C235.977 202.534 235.526 202.661 235.196 202.915C234.871 203.165 234.645 203.443 234.52 203.75L232.924 203.386C233.113 202.856 233.39 202.428 233.753 202.102C234.121 201.773 234.543 201.534 235.02 201.386C235.498 201.235 236 201.159 236.526 201.159C236.875 201.159 237.244 201.201 237.634 201.284C238.028 201.364 238.395 201.511 238.736 201.727C239.081 201.943 239.363 202.252 239.583 202.653C239.803 203.051 239.912 203.568 239.912 204.205V210H238.253V208.807H238.185C238.075 209.027 237.91 209.242 237.691 209.455C237.471 209.667 237.189 209.843 236.844 209.983C236.5 210.123 236.087 210.193 235.606 210.193ZM235.975 208.83C236.445 208.83 236.846 208.737 237.179 208.551C237.517 208.366 237.772 208.123 237.946 207.824C238.125 207.521 238.214 207.197 238.214 206.852V205.727C238.153 205.788 238.035 205.845 237.861 205.898C237.691 205.947 237.496 205.991 237.276 206.028C237.056 206.062 236.842 206.095 236.634 206.125C236.426 206.152 236.251 206.174 236.111 206.193C235.782 206.235 235.481 206.305 235.208 206.403C234.939 206.502 234.723 206.644 234.56 206.83C234.401 207.011 234.321 207.254 234.321 207.557C234.321 207.977 234.477 208.295 234.787 208.511C235.098 208.723 235.494 208.83 235.975 208.83ZM242.255 210V201.273H243.954V210H242.255ZM243.113 199.926C242.818 199.926 242.564 199.828 242.352 199.631C242.143 199.43 242.039 199.191 242.039 198.915C242.039 198.634 242.143 198.396 242.352 198.199C242.564 197.998 242.818 197.898 243.113 197.898C243.409 197.898 243.66 197.998 243.869 198.199C244.081 198.396 244.187 198.634 244.187 198.915C244.187 199.191 244.081 199.43 243.869 199.631C243.66 199.828 243.409 199.926 243.113 199.926ZM248.018 198.364V210H246.32V198.364H248.018ZM254.145 210.176C253.285 210.176 252.545 209.992 251.924 209.625C251.306 209.254 250.829 208.733 250.492 208.062C250.159 207.388 249.992 206.598 249.992 205.693C249.992 204.799 250.159 204.011 250.492 203.33C250.829 202.648 251.299 202.116 251.901 201.733C252.507 201.35 253.215 201.159 254.026 201.159C254.518 201.159 254.996 201.241 255.458 201.403C255.92 201.566 256.335 201.822 256.702 202.17C257.07 202.519 257.359 202.972 257.571 203.528C257.784 204.081 257.89 204.754 257.89 205.545V206.148H250.952V204.875H256.225C256.225 204.428 256.134 204.032 255.952 203.688C255.77 203.339 255.515 203.064 255.185 202.864C254.859 202.663 254.477 202.562 254.037 202.562C253.56 202.562 253.143 202.68 252.787 202.915C252.435 203.146 252.162 203.449 251.969 203.824C251.78 204.195 251.685 204.598 251.685 205.034V206.028C251.685 206.612 251.787 207.108 251.992 207.517C252.2 207.926 252.49 208.239 252.861 208.455C253.232 208.667 253.666 208.773 254.162 208.773C254.484 208.773 254.778 208.727 255.043 208.636C255.308 208.542 255.537 208.402 255.731 208.216C255.924 208.03 256.071 207.801 256.174 207.528L257.782 207.818C257.653 208.292 257.422 208.706 257.088 209.062C256.759 209.415 256.344 209.689 255.844 209.886C255.348 210.08 254.782 210.176 254.145 210.176ZM263.122 210.17C262.417 210.17 261.788 209.991 261.235 209.631C260.686 209.267 260.254 208.75 259.94 208.08C259.629 207.405 259.474 206.597 259.474 205.653C259.474 204.71 259.631 203.903 259.945 203.233C260.264 202.562 260.699 202.049 261.252 201.693C261.805 201.337 262.432 201.159 263.133 201.159C263.675 201.159 264.11 201.25 264.44 201.432C264.773 201.61 265.031 201.818 265.213 202.057C265.398 202.295 265.542 202.506 265.644 202.688H265.747V198.364H267.445V210H265.786V208.642H265.644C265.542 208.828 265.394 209.04 265.201 209.278C265.012 209.517 264.75 209.725 264.417 209.903C264.084 210.081 263.652 210.17 263.122 210.17ZM263.497 208.722C263.985 208.722 264.398 208.593 264.735 208.335C265.076 208.074 265.334 207.712 265.508 207.25C265.686 206.788 265.775 206.25 265.775 205.636C265.775 205.03 265.688 204.5 265.514 204.045C265.339 203.591 265.084 203.237 264.747 202.983C264.409 202.729 263.993 202.602 263.497 202.602C262.985 202.602 262.559 202.735 262.218 203C261.877 203.265 261.62 203.627 261.445 204.085C261.275 204.544 261.19 205.061 261.19 205.636C261.19 206.22 261.277 206.744 261.451 207.21C261.625 207.676 261.883 208.045 262.224 208.318C262.569 208.587 262.993 208.722 263.497 208.722Z" fill="#1F2937"/>
</svg>
