<svg width="933" height="296" viewBox="0 0 933 296" fill="none" xmlns="http://www.w3.org/2000/svg">
<path d="M4.15057 3.27273V12H2.82955V4.59375H2.77841L0.690341 5.95739V4.69602L2.8679 3.27273H4.15057ZM9.60972 12.1449C8.93642 12.142 8.36114 11.9645 7.88386 11.6122C7.40659 11.2599 7.04153 10.7472 6.78869 10.0739C6.53585 9.40057 6.40943 8.58949 6.40943 7.64062C6.40943 6.6946 6.53585 5.88636 6.78869 5.21591C7.04438 4.54545 7.41085 4.03409 7.88812 3.68182C8.36824 3.32955 8.9421 3.15341 9.60972 3.15341C10.2773 3.15341 10.8498 3.33097 11.327 3.68608C11.8043 4.03835 12.1694 4.54972 12.4222 5.22017C12.6779 5.88778 12.8057 6.6946 12.8057 7.64062C12.8057 8.59233 12.6793 9.40483 12.4265 10.0781C12.1736 10.7486 11.8086 11.2614 11.3313 11.6165C10.854 11.9688 10.2802 12.1449 9.60972 12.1449ZM9.60972 11.0071C10.2006 11.0071 10.6623 10.7188 10.9947 10.142C11.3299 9.56534 11.4975 8.73153 11.4975 7.64062C11.4975 6.91619 11.4208 6.30398 11.2674 5.80398C11.1168 5.30114 10.8995 4.92045 10.6154 4.66193C10.3341 4.40057 9.99892 4.26989 9.60972 4.26989C9.02165 4.26989 8.56 4.55966 8.22477 5.1392C7.88955 5.71875 7.72051 6.55256 7.71767 7.64062C7.71767 8.3679 7.79295 8.98295 7.94352 9.4858C8.09693 9.9858 8.31426 10.3651 8.59551 10.6236C8.87676 10.8793 9.21483 11.0071 9.60972 11.0071ZM17.4158 12.1449C16.7425 12.142 16.1672 11.9645 15.69 11.6122C15.2127 11.2599 14.8476 10.7472 14.5948 10.0739C14.3419 9.40057 14.2155 8.58949 14.2155 7.64062C14.2155 6.6946 14.3419 5.88636 14.5948 5.21591C14.8505 4.54545 15.2169 4.03409 15.6942 3.68182C16.1743 3.32955 16.7482 3.15341 17.4158 3.15341C18.0834 3.15341 18.6559 3.33097 19.1331 3.68608C19.6104 4.03835 19.9755 4.54972 20.2283 5.22017C20.484 5.88778 20.6118 6.6946 20.6118 7.64062C20.6118 8.59233 20.4854 9.40483 20.2326 10.0781C19.9797 10.7486 19.6147 11.2614 19.1374 11.6165C18.6601 11.9688 18.0863 12.1449 17.4158 12.1449ZM17.4158 11.0071C18.0067 11.0071 18.4684 10.7188 18.8008 10.142C19.136 9.56534 19.3036 8.73153 19.3036 7.64062C19.3036 6.91619 19.2269 6.30398 19.0735 5.80398C18.9229 5.30114 18.7056 4.92045 18.4215 4.66193C18.1402 4.40057 17.805 4.26989 17.4158 4.26989C16.8277 4.26989 16.3661 4.55966 16.0309 5.1392C15.6956 5.71875 15.5266 6.55256 15.5238 7.64062C15.5238 8.3679 15.599 8.98295 15.7496 9.4858C15.903 9.9858 16.1204 10.3651 16.4016 10.6236C16.6829 10.8793 17.0209 11.0071 17.4158 11.0071Z" fill="#9CA3AF"/>
<path d="M3.78835 62.9201C3.17756 62.9201 2.63778 62.815 2.16903 62.6048C1.70313 62.3945 1.33807 62.1048 1.07386 61.7354C0.809659 61.3661 0.678977 60.9457 0.681818 60.4741C0.678977 60.1048 0.754261 59.7653 0.90767 59.4556C1.06392 59.1431 1.27557 58.8832 1.54261 58.6758C1.80966 58.4656 2.10795 58.332 2.4375 58.2752V58.2241C2.00284 58.119 1.65483 57.886 1.39347 57.5252C1.1321 57.1644 1.00284 56.7496 1.00568 56.2809C1.00284 55.8349 1.12074 55.4371 1.35938 55.0877C1.60085 54.7354 1.93182 54.4585 2.35227 54.2567C2.77273 54.055 3.25142 53.9542 3.78835 53.9542C4.3196 53.9542 4.79403 54.0565 5.21165 54.261C5.6321 54.4627 5.96307 54.7397 6.20455 55.092C6.44602 55.4414 6.56818 55.8377 6.57102 56.2809C6.56818 56.7496 6.43466 57.1644 6.17045 57.5252C5.90625 57.886 5.5625 58.119 5.1392 58.2241V58.2752C5.46591 58.332 5.75994 58.4656 6.02131 58.6758C6.28551 58.8832 6.49574 59.1431 6.65199 59.4556C6.81108 59.7653 6.89205 60.1048 6.89489 60.4741C6.89205 60.9457 6.75852 61.3661 6.49432 61.7354C6.23011 62.1048 5.86364 62.3945 5.39489 62.6048C4.92898 62.815 4.39347 62.9201 3.78835 62.9201ZM3.78835 61.842C4.14915 61.842 4.46165 61.7823 4.72585 61.663C4.99006 61.5408 5.1946 61.3718 5.33949 61.1559C5.48438 60.9371 5.55824 60.6815 5.56108 60.3888C5.55824 60.0849 5.47869 59.8164 5.32244 59.5835C5.16903 59.3505 4.96023 59.1673 4.69602 59.0337C4.43182 58.9002 4.12926 58.8335 3.78835 58.8335C3.4446 58.8335 3.1392 58.9002 2.87216 59.0337C2.60511 59.1673 2.39489 59.3505 2.24148 59.5835C2.08807 59.8164 2.01278 60.0849 2.01562 60.3888C2.01278 60.6815 2.08239 60.9371 2.22443 61.1559C2.36932 61.3718 2.57528 61.5408 2.84233 61.663C3.10938 61.7823 3.42472 61.842 3.78835 61.842ZM3.78835 57.7809C4.07813 57.7809 4.33523 57.7227 4.55966 57.6062C4.78409 57.4897 4.96023 57.3278 5.08807 57.1204C5.21875 56.913 5.28551 56.6701 5.28835 56.3917C5.28551 56.119 5.22017 55.8803 5.09233 55.6758C4.96733 55.4712 4.79261 55.3136 4.56818 55.2028C4.34375 55.0891 4.08381 55.0323 3.78835 55.0323C3.48722 55.0323 3.22301 55.0891 2.99574 55.2028C2.77131 55.3136 2.59659 55.4712 2.47159 55.6758C2.34659 55.8803 2.28551 56.119 2.28835 56.3917C2.28551 56.6701 2.34801 56.913 2.47585 57.1204C2.60369 57.3278 2.77983 57.4897 3.00426 57.6062C3.23153 57.7227 3.4929 57.7809 3.78835 57.7809ZM11.5199 62.9457C10.8466 62.9428 10.2713 62.7653 9.79402 62.413C9.31675 62.0607 8.95169 61.5479 8.69885 60.8746C8.44601 60.2013 8.31959 59.3903 8.31959 58.4414C8.31959 57.4954 8.44601 56.6871 8.69885 56.0167C8.95453 55.3462 9.32101 54.8349 9.79828 54.4826C10.2784 54.1303 10.8523 53.9542 11.5199 53.9542C12.1875 53.9542 12.7599 54.1317 13.2372 54.4869C13.7145 54.8391 14.0795 55.3505 14.3324 56.021C14.5881 56.6886 14.7159 57.4954 14.7159 58.4414C14.7159 59.3931 14.5895 60.2056 14.3366 60.8789C14.0838 61.5494 13.7187 62.0621 13.2415 62.4173C12.7642 62.7695 12.1903 62.9457 11.5199 62.9457ZM11.5199 61.8079C12.1108 61.8079 12.5724 61.5195 12.9048 60.9428C13.24 60.3661 13.4077 59.5323 13.4077 58.4414C13.4077 57.717 13.331 57.1048 13.1775 56.6048C13.027 56.1019 12.8096 55.7212 12.5256 55.4627C12.2443 55.2013 11.9091 55.0707 11.5199 55.0707C10.9318 55.0707 10.4702 55.3604 10.1349 55.94C9.7997 56.5195 9.63067 57.3533 9.62783 58.4414C9.62783 59.1687 9.70311 59.7837 9.85368 60.2866C10.0071 60.7866 10.2244 61.1658 10.5057 61.4244C10.7869 61.68 11.125 61.8079 11.5199 61.8079Z" fill="#9CA3AF"/>
<path d="M3.88636 113.719C3.49716 113.713 3.11364 113.642 2.7358 113.506C2.3608 113.369 2.01989 113.142 1.71307 112.824C1.40625 112.506 1.16051 112.078 0.975852 111.541C0.794034 111.004 0.703125 110.334 0.703125 109.53C0.703125 108.769 0.778409 108.093 0.928977 107.502C1.08239 106.911 1.30256 106.412 1.58949 106.006C1.87642 105.597 2.22301 105.286 2.62926 105.073C3.03551 104.86 3.49148 104.753 3.99716 104.753C4.51705 104.753 4.97869 104.855 5.3821 105.06C5.78551 105.264 6.11222 105.547 6.36222 105.908C6.61506 106.269 6.77557 106.679 6.84375 107.139H5.54403C5.45597 106.776 5.28125 106.479 5.01989 106.249C4.75852 106.019 4.41761 105.904 3.99716 105.904C3.35795 105.904 2.85938 106.182 2.50142 106.739C2.14631 107.296 1.96733 108.07 1.96449 109.061H2.02841C2.17898 108.814 2.36364 108.604 2.58239 108.431C2.80398 108.254 3.05114 108.119 3.32386 108.026C3.59943 107.929 3.8892 107.881 4.19318 107.881C4.69886 107.881 5.15625 108.004 5.56534 108.252C5.97727 108.496 6.3054 108.834 6.54972 109.266C6.79403 109.698 6.91619 110.192 6.91619 110.749C6.91619 111.306 6.78977 111.81 6.53693 112.262C6.28693 112.713 5.93466 113.071 5.48011 113.335C5.02557 113.597 4.49432 113.725 3.88636 113.719ZM3.8821 112.611C4.21733 112.611 4.51705 112.529 4.78125 112.364C5.04545 112.199 5.25426 111.977 5.40767 111.699C5.56108 111.421 5.63778 111.11 5.63778 110.766C5.63778 110.431 5.5625 110.125 5.41193 109.85C5.2642 109.574 5.05966 109.355 4.7983 109.193C4.53977 109.031 4.24432 108.95 3.91193 108.95C3.65909 108.95 3.42472 108.999 3.20881 109.095C2.99574 109.192 2.80824 109.325 2.64631 109.496C2.48438 109.666 2.35653 109.862 2.26278 110.084C2.17188 110.303 2.12642 110.534 2.12642 110.779C2.12642 111.105 2.2017 111.408 2.35227 111.686C2.50568 111.965 2.71449 112.189 2.97869 112.36C3.24574 112.527 3.54688 112.611 3.8821 112.611ZM11.5667 113.744C10.8935 113.742 10.3182 113.564 9.84089 113.212C9.36362 112.86 8.99857 112.347 8.74572 111.673C8.49288 111 8.36646 110.189 8.36646 109.24C8.36646 108.294 8.49288 107.486 8.74572 106.816C9.00141 106.145 9.36788 105.634 9.84516 105.281C10.3253 104.929 10.8991 104.753 11.5667 104.753C12.2344 104.753 12.8068 104.931 13.2841 105.286C13.7613 105.638 14.1264 106.149 14.3792 106.82C14.6349 107.487 14.7628 108.294 14.7628 109.24C14.7628 110.192 14.6363 111.004 14.3835 111.678C14.1307 112.348 13.7656 112.861 13.2883 113.216C12.8111 113.568 12.2372 113.744 11.5667 113.744ZM11.5667 112.607C12.1577 112.607 12.6193 112.318 12.9517 111.742C13.2869 111.165 13.4545 110.331 13.4545 109.24C13.4545 108.516 13.3778 107.904 13.2244 107.404C13.0738 106.901 12.8565 106.52 12.5724 106.262C12.2912 106 11.956 105.869 11.5667 105.869C10.9787 105.869 10.517 106.159 10.1818 106.739C9.84658 107.318 9.67754 108.152 9.6747 109.24C9.6747 109.968 9.74999 110.583 9.90055 111.085C10.054 111.585 10.2713 111.965 10.5525 112.223C10.8338 112.479 11.1719 112.607 11.5667 112.607Z" fill="#9CA3AF"/>
<path d="M0.65625 162.696V161.631L4.42756 155.673H5.26705V157.241H4.73438L2.03693 161.511V161.579H7.20597V162.696H0.65625ZM4.79403 164.4V162.372L4.80256 161.886V155.673H6.05114V164.4H4.79403ZM11.7894 164.545C11.1161 164.542 10.5408 164.365 10.0636 164.013C9.58628 163.66 9.22122 163.148 8.96838 162.474C8.71554 161.801 8.58912 160.99 8.58912 160.041C8.58912 159.095 8.71554 158.287 8.96838 157.616C9.22406 156.946 9.59054 156.434 10.0678 156.082C10.5479 155.73 11.1218 155.554 11.7894 155.554C12.457 155.554 13.0295 155.731 13.5067 156.086C13.984 156.439 14.3491 156.95 14.6019 157.621C14.8576 158.288 14.9854 159.095 14.9854 160.041C14.9854 160.993 14.859 161.805 14.6062 162.479C14.3533 163.149 13.9883 163.662 13.511 164.017C13.0337 164.369 12.4599 164.545 11.7894 164.545ZM11.7894 163.407C12.3803 163.407 12.842 163.119 13.1743 162.542C13.5096 161.966 13.6772 161.132 13.6772 160.041C13.6772 159.317 13.6005 158.704 13.4471 158.204C13.2965 157.702 13.0792 157.321 12.7951 157.062C12.5138 156.801 12.1786 156.67 11.7894 156.67C11.2013 156.67 10.7397 156.96 10.4045 157.54C10.0692 158.119 9.9002 158.953 9.89736 160.041C9.89736 160.768 9.97264 161.383 10.1232 161.886C10.2766 162.386 10.4939 162.765 10.7752 163.024C11.0564 163.28 11.3945 163.407 11.7894 163.407Z" fill="#9CA3AF"/>
<path d="M0.839489 215.199V214.245L3.79261 211.185C4.10795 210.853 4.3679 210.561 4.57244 210.311C4.77983 210.059 4.93466 209.819 5.03693 209.591C5.1392 209.364 5.19034 209.123 5.19034 208.867C5.19034 208.577 5.12216 208.327 4.9858 208.117C4.84943 207.904 4.66335 207.74 4.42756 207.627C4.19176 207.51 3.92614 207.452 3.63068 207.452C3.31818 207.452 3.04545 207.516 2.8125 207.644C2.57955 207.772 2.40057 207.952 2.27557 208.185C2.15057 208.418 2.08807 208.691 2.08807 209.003H0.830966C0.830966 208.472 0.953125 208.007 1.19744 207.61C1.44176 207.212 1.77699 206.904 2.20312 206.685C2.62926 206.463 3.11364 206.353 3.65625 206.353C4.20455 206.353 4.6875 206.462 5.10511 206.681C5.52557 206.897 5.85369 207.192 6.08949 207.567C6.32528 207.939 6.44318 208.36 6.44318 208.828C6.44318 209.152 6.3821 209.469 6.25994 209.779C6.14063 210.088 5.93182 210.434 5.63352 210.814C5.33523 211.192 4.92045 211.651 4.3892 212.191L2.65483 214.006V214.07H6.58381V215.199H0.839489ZM11.2972 215.344C10.6239 215.341 10.0486 215.164 9.57136 214.811C9.09409 214.459 8.72903 213.946 8.47619 213.273C8.22335 212.6 8.09693 211.789 8.09693 210.84C8.09693 209.894 8.22335 209.086 8.47619 208.415C8.73188 207.745 9.09835 207.233 9.57562 206.881C10.0557 206.529 10.6296 206.353 11.2972 206.353C11.9648 206.353 12.5373 206.53 13.0145 206.885C13.4918 207.238 13.8569 207.749 14.1097 208.419C14.3654 209.087 14.4932 209.894 14.4932 210.84C14.4932 211.792 14.3668 212.604 14.114 213.277C13.8611 213.948 13.4961 214.461 13.0188 214.816C12.5415 215.168 11.9677 215.344 11.2972 215.344ZM11.2972 214.206C11.8881 214.206 12.3498 213.918 12.6822 213.341C13.0174 212.765 13.185 211.931 13.185 210.84C13.185 210.115 13.1083 209.503 12.9549 209.003C12.8043 208.5 12.587 208.12 12.3029 207.861C12.0216 207.6 11.6864 207.469 11.2972 207.469C10.7091 207.469 10.2475 207.759 9.91227 208.338C9.57705 208.918 9.40801 209.752 9.40517 210.84C9.40517 211.567 9.48045 212.182 9.63102 212.685C9.78443 213.185 10.0018 213.564 10.283 213.823C10.5643 214.078 10.9023 214.206 11.2972 214.206Z" fill="#9CA3AF"/>
<path d="M3.87784 266.145C3.20455 266.142 2.62926 265.964 2.15199 265.612C1.67472 265.26 1.30966 264.747 1.05682 264.074C0.803977 263.401 0.677557 262.589 0.677557 261.641C0.677557 260.695 0.803977 259.886 1.05682 259.216C1.3125 258.545 1.67898 258.034 2.15625 257.682C2.63636 257.33 3.21023 257.153 3.87784 257.153C4.54545 257.153 5.1179 257.331 5.59517 257.686C6.07244 258.038 6.4375 258.55 6.69034 259.22C6.94602 259.888 7.07386 260.695 7.07386 261.641C7.07386 262.592 6.94744 263.405 6.6946 264.078C6.44176 264.749 6.0767 265.261 5.59943 265.616C5.12216 265.969 4.5483 266.145 3.87784 266.145ZM3.87784 265.007C4.46875 265.007 4.9304 264.719 5.26278 264.142C5.59801 263.565 5.76562 262.732 5.76562 261.641C5.76562 260.916 5.68892 260.304 5.53551 259.804C5.38494 259.301 5.16761 258.92 4.88352 258.662C4.60227 258.401 4.26705 258.27 3.87784 258.27C3.28977 258.27 2.82813 258.56 2.4929 259.139C2.15767 259.719 1.98864 260.553 1.9858 261.641C1.9858 262.368 2.06108 262.983 2.21165 263.486C2.36506 263.986 2.58239 264.365 2.86364 264.624C3.14489 264.879 3.48295 265.007 3.87784 265.007Z" fill="#9CA3AF"/>
<rect x="32" width="900" height="1" fill="#E5E7EB"/>
<rect x="32" y="53.8008" width="900" height="1" fill="#E5E7EB"/>
<rect x="32" y="107.6" width="900" height="1" fill="#E5E7EB"/>
<rect x="32" y="161.4" width="900" height="1" fill="#E5E7EB"/>
<rect x="32" y="215.199" width="900" height="1" fill="#E5E7EB"/>
<rect x="32" y="269" width="900" height="1" fill="#E5E7EB"/>
<path d="M32 216C44.037 205.192 66.1523 181.253 76.4444 170.276C114.639 129.539 185.872 91.6389 222.278 136.19C284.778 212.675 305.611 146.166 328.528 98.7792C338.944 76.3326 365.333 40.5844 391.722 82.1521C425.456 135.289 513.024 237.074 626.444 123.72C665.571 84.6163 692.278 63.8324 738.944 87.1103C795.194 115.169 843.111 150.353 932 123.72" stroke="#3B82F6" stroke-width="2" stroke-linecap="round"/>
<path d="M76.4444 170.276C66.1523 181.253 44.037 205.192 32 216H932V123.72C843.111 150.353 795.194 115.169 738.944 87.1103C692.278 63.8324 665.571 84.6163 626.444 123.72C513.024 237.074 425.456 135.289 391.722 82.1521C365.333 40.5844 338.944 76.3326 328.528 98.7792C305.611 146.166 284.778 212.675 222.278 136.19C185.872 91.6389 114.639 129.539 76.4444 170.276Z" fill="url(#paint0_linear_4404_183679)"/>
<circle cx="42.5" cy="206.5" r="4.5" fill="#3B82F6" stroke="white" stroke-width="2"/>
<circle cx="123.5" cy="133.5" r="4.5" fill="#3B82F6" stroke="white" stroke-width="2"/>
<circle cx="202.5" cy="121.5" r="4.5" fill="#3B82F6" stroke="white" stroke-width="2"/>
<circle cx="281.5" cy="168.5" r="4.5" fill="#3B82F6" stroke="white" stroke-width="2"/>
<circle cx="364.5" cy="62.5" r="4.5" fill="#3B82F6" stroke="white" stroke-width="2"/>
<circle cx="442.5" cy="140.5" r="4.5" fill="#3B82F6" stroke="white" stroke-width="2"/>
<circle cx="521.5" cy="175.5" r="4.5" fill="#3B82F6" stroke="white" stroke-width="2"/>
<circle cx="603.5" cy="143.5" r="4.5" fill="#3B82F6" stroke="white" stroke-width="2"/>
<circle cx="682.5" cy="80.5" r="4.5" fill="#3B82F6" stroke="white" stroke-width="2"/>
<circle cx="761.5" cy="97.5" r="4.5" fill="#3B82F6" stroke="white" stroke-width="2"/>
<circle cx="842.5" cy="129.5" r="4.5" fill="#3B82F6" stroke="white" stroke-width="2"/>
<circle cx="922.5" cy="126.5" r="4.5" fill="#3B82F6" stroke="white" stroke-width="2"/>
<path d="M32 195.401C59.735 186.976 112.431 172.801 158.888 144.852C230.305 101.886 266.222 58.4139 298.949 96.831C325.991 126.318 349.011 185.629 393.941 163.387C429.997 148.222 503.495 121.974 545.79 156.647C603.341 203.826 612.354 196.244 650.49 174.339C667.824 164.383 693.793 161.605 733.002 181.922C790.552 211.742 806.463 191.391 824.527 171.812C859.196 134.234 895.944 156.647 932 92.9522" stroke="#14B8A6" stroke-width="2" stroke-linecap="round"/>
<path d="M32 195.401C59.735 186.976 112.431 172.801 158.888 144.852C230.305 101.886 266.222 58.4139 298.949 96.831C325.991 126.318 349.011 185.629 393.941 163.387C429.997 148.222 503.495 121.974 545.79 156.647C603.34 203.826 612.354 196.244 650.49 174.339C667.824 164.383 693.793 161.605 733.002 181.922C746.757 189.049 758.133 193.31 767.729 195.401H793.538C806.987 191.601 815.488 181.61 824.527 171.812C859.196 134.234 895.944 156.647 932 92.9522V195.401H793.538C786.535 197.38 778.19 197.68 767.729 195.401H32Z" fill="url(#paint1_linear_4404_183679)"/>
<rect x="641" y="77" width="84" height="72" rx="6" fill="black"/>
<path d="M655.683 88.2727H657.507V94.358C657.507 94.9205 657.38 95.4091 657.127 95.8239C656.877 96.2386 656.529 96.5582 656.083 96.7827C655.637 97.0071 655.119 97.1193 654.528 97.1193C654.002 97.1193 653.525 97.027 653.096 96.8423C652.67 96.6548 652.332 96.3707 652.082 95.9901C651.832 95.6065 651.708 95.125 651.711 94.5455H653.548C653.554 94.7756 653.6 94.973 653.688 95.1378C653.779 95.2997 653.903 95.4247 654.059 95.5128C654.218 95.598 654.406 95.6406 654.622 95.6406C654.849 95.6406 655.041 95.5923 655.197 95.4957C655.356 95.3963 655.477 95.2514 655.559 95.0611C655.642 94.8707 655.683 94.6364 655.683 94.358V88.2727ZM663.256 94.2131V90.4545H665.071V97H663.328V95.8111H663.26C663.112 96.1946 662.866 96.5028 662.523 96.7358C662.182 96.9687 661.765 97.0852 661.274 97.0852C660.837 97.0852 660.452 96.9858 660.119 96.7869C659.787 96.5881 659.527 96.3054 659.339 95.9389C659.155 95.5724 659.061 95.1335 659.058 94.6222V90.4545H660.873V94.2983C660.876 94.6847 660.98 94.9901 661.185 95.2145C661.389 95.4389 661.663 95.5511 662.007 95.5511C662.226 95.5511 662.43 95.5014 662.621 95.402C662.811 95.2997 662.964 95.1491 663.081 94.9503C663.2 94.7514 663.258 94.5057 663.256 94.2131ZM668.398 93.2159V97H666.583V90.4545H668.313V91.6094H668.39C668.535 91.2287 668.778 90.9276 669.118 90.706C669.459 90.4815 669.873 90.3693 670.359 90.3693C670.813 90.3693 671.209 90.4688 671.547 90.6676C671.886 90.8665 672.148 91.1506 672.336 91.5199C672.523 91.8864 672.617 92.3239 672.617 92.8324V97H670.802V93.1562C670.805 92.7557 670.702 92.4432 670.495 92.2188C670.287 91.9915 670.002 91.8778 669.638 91.8778C669.394 91.8778 669.178 91.9304 668.991 92.0355C668.806 92.1406 668.661 92.294 668.556 92.4957C668.454 92.6946 668.401 92.9347 668.398 93.2159ZM677.091 97.1278C676.417 97.1278 675.838 96.9915 675.352 96.7188C674.869 96.4432 674.497 96.054 674.236 95.5511C673.974 95.0455 673.844 94.4474 673.844 93.7571C673.844 93.0838 673.974 92.4929 674.236 91.9844C674.497 91.4759 674.865 91.0795 675.339 90.7955C675.817 90.5114 676.376 90.3693 677.018 90.3693C677.45 90.3693 677.852 90.4389 678.224 90.5781C678.599 90.7145 678.926 90.9205 679.204 91.196C679.486 91.4716 679.704 91.8182 679.861 92.2358C680.017 92.6506 680.095 93.1364 680.095 93.6932V94.1918H674.568V93.0668H678.386C678.386 92.8054 678.329 92.5739 678.216 92.3722C678.102 92.1705 677.944 92.0128 677.743 91.8991C677.544 91.7827 677.312 91.7244 677.048 91.7244C676.773 91.7244 676.528 91.7884 676.315 91.9162C676.105 92.0412 675.94 92.2102 675.821 92.4233C675.702 92.6335 675.64 92.8679 675.638 93.1264V94.196C675.638 94.5199 675.697 94.7997 675.817 95.0355C675.939 95.2713 676.111 95.4531 676.332 95.581C676.554 95.7088 676.817 95.7727 677.121 95.7727C677.322 95.7727 677.507 95.7443 677.675 95.6875C677.842 95.6307 677.986 95.5455 678.105 95.4318C678.224 95.3182 678.315 95.179 678.378 95.0142L680.057 95.125C679.971 95.5284 679.797 95.8807 679.533 96.1818C679.271 96.4801 678.933 96.7131 678.518 96.8807C678.106 97.0455 677.631 97.1278 677.091 97.1278ZM684.16 97V95.6705L687.266 92.794C687.531 92.5384 687.752 92.3082 687.931 92.1037C688.113 91.8991 688.251 91.6989 688.345 91.5028C688.438 91.304 688.485 91.0895 688.485 90.8594C688.485 90.6037 688.427 90.3835 688.311 90.1989C688.194 90.0114 688.035 89.8679 687.833 89.7685C687.632 89.6662 687.403 89.6151 687.147 89.6151C686.88 89.6151 686.647 89.669 686.448 89.777C686.249 89.8849 686.096 90.0398 685.988 90.2415C685.88 90.4432 685.826 90.6832 685.826 90.9616H684.075C684.075 90.3906 684.204 89.8949 684.463 89.4744C684.721 89.054 685.083 88.7287 685.549 88.4986C686.015 88.2685 686.552 88.1534 687.16 88.1534C687.785 88.1534 688.329 88.2642 688.792 88.4858C689.258 88.7045 689.62 89.0085 689.879 89.3977C690.137 89.7869 690.266 90.233 690.266 90.7358C690.266 91.0653 690.201 91.3906 690.07 91.7116C689.943 92.0327 689.714 92.3892 689.384 92.7812C689.055 93.1705 688.59 93.6378 687.991 94.1832L686.717 95.4318V95.4915H690.382V97H684.16ZM695.2 97.1918C694.467 97.1889 693.837 97.0085 693.308 96.6506C692.783 96.2926 692.378 95.7741 692.094 95.0952C691.813 94.4162 691.673 93.5994 691.676 92.6449C691.676 91.6932 691.817 90.8821 692.098 90.2116C692.382 89.5412 692.787 89.0312 693.313 88.6818C693.841 88.3295 694.47 88.1534 695.2 88.1534C695.931 88.1534 696.558 88.3295 697.084 88.6818C697.612 89.0341 698.019 89.5455 698.303 90.2159C698.587 90.8835 698.727 91.6932 698.725 92.6449C698.725 93.6023 698.583 94.4205 698.298 95.0994C698.017 95.7784 697.614 96.2969 697.088 96.6548C696.563 97.0128 695.933 97.1918 695.2 97.1918ZM695.2 95.6619C695.7 95.6619 696.1 95.4105 696.398 94.9077C696.696 94.4048 696.844 93.6506 696.841 92.6449C696.841 91.983 696.773 91.4318 696.637 90.9915C696.503 90.5511 696.313 90.2202 696.065 89.9986C695.821 89.777 695.533 89.6662 695.2 89.6662C694.703 89.6662 694.306 89.9148 694.007 90.4119C693.709 90.9091 693.558 91.6534 693.556 92.6449C693.556 93.3153 693.622 93.875 693.756 94.3239C693.892 94.7699 694.084 95.1051 694.331 95.3295C694.578 95.5511 694.868 95.6619 695.2 95.6619ZM700.1 97V95.6705L703.207 92.794C703.471 92.5384 703.693 92.3082 703.872 92.1037C704.053 91.8991 704.191 91.6989 704.285 91.5028C704.379 91.304 704.426 91.0895 704.426 90.8594C704.426 90.6037 704.367 90.3835 704.251 90.1989C704.134 90.0114 703.975 89.8679 703.774 89.7685C703.572 89.6662 703.343 89.6151 703.087 89.6151C702.82 89.6151 702.587 89.669 702.389 89.777C702.19 89.8849 702.036 90.0398 701.928 90.2415C701.82 90.4432 701.766 90.6832 701.766 90.9616H700.015C700.015 90.3906 700.144 89.8949 700.403 89.4744C700.661 89.054 701.024 88.7287 701.489 88.4986C701.955 88.2685 702.492 88.1534 703.1 88.1534C703.725 88.1534 704.269 88.2642 704.732 88.4858C705.198 88.7045 705.561 89.0085 705.819 89.3977C706.078 89.7869 706.207 90.233 706.207 90.7358C706.207 91.0653 706.141 91.3906 706.011 91.7116C705.883 92.0327 705.654 92.3892 705.325 92.7812C704.995 93.1705 704.531 93.6378 703.931 94.1832L702.657 95.4318V95.4915H706.322V97H700.1ZM707.719 97V95.6705L710.825 92.794C711.09 92.5384 711.311 92.3082 711.49 92.1037C711.672 91.8991 711.81 91.6989 711.904 91.5028C711.997 91.304 712.044 91.0895 712.044 90.8594C712.044 90.6037 711.986 90.3835 711.869 90.1989C711.753 90.0114 711.594 89.8679 711.392 89.7685C711.19 89.6662 710.962 89.6151 710.706 89.6151C710.439 89.6151 710.206 89.669 710.007 89.777C709.808 89.8849 709.655 90.0398 709.547 90.2415C709.439 90.4432 709.385 90.6832 709.385 90.9616H707.634C707.634 90.3906 707.763 89.8949 708.021 89.4744C708.28 89.054 708.642 88.7287 709.108 88.4986C709.574 88.2685 710.111 88.1534 710.719 88.1534C711.344 88.1534 711.888 88.2642 712.351 88.4858C712.817 88.7045 713.179 89.0085 713.438 89.3977C713.696 89.7869 713.825 90.233 713.825 90.7358C713.825 91.0653 713.76 91.3906 713.629 91.7116C713.502 92.0327 713.273 92.3892 712.943 92.7812C712.614 93.1705 712.149 93.6378 711.55 94.1832L710.276 95.4318V95.4915H713.94V97H707.719Z" fill="#9CA3AF"/>
<circle cx="655" cy="113" r="4" fill="#3B82F6"/>
<path d="M666.659 118.091V107.182H667.358V118.091H666.659ZM668.846 110.565C668.8 110.162 668.613 109.849 668.283 109.628C667.954 109.403 667.539 109.291 667.039 109.291C666.681 109.291 666.371 109.348 666.11 109.462C665.848 109.572 665.645 109.726 665.5 109.922C665.358 110.115 665.287 110.335 665.287 110.582C665.287 110.79 665.336 110.969 665.432 111.119C665.532 111.27 665.661 111.396 665.82 111.499C665.982 111.598 666.155 111.682 666.34 111.75C666.525 111.815 666.702 111.869 666.873 111.912L667.725 112.134C668.003 112.202 668.289 112.294 668.581 112.411C668.874 112.527 669.145 112.68 669.395 112.871C669.645 113.061 669.847 113.297 670 113.578C670.157 113.859 670.235 114.196 670.235 114.588C670.235 115.082 670.107 115.521 669.851 115.905C669.598 116.288 669.23 116.591 668.748 116.812C668.267 117.034 667.686 117.145 667.005 117.145C666.351 117.145 665.786 117.041 665.309 116.834C664.831 116.626 664.458 116.332 664.188 115.952C663.918 115.568 663.769 115.114 663.74 114.588H665.061C665.087 114.903 665.189 115.166 665.368 115.376C665.55 115.584 665.782 115.739 666.063 115.841C666.347 115.94 666.658 115.99 666.996 115.99C667.368 115.99 667.699 115.932 667.989 115.815C668.282 115.696 668.512 115.531 668.679 115.321C668.847 115.108 668.931 114.859 668.931 114.575C668.931 114.317 668.857 114.105 668.709 113.94C668.564 113.776 668.367 113.639 668.117 113.531C667.87 113.423 667.59 113.328 667.277 113.246L666.246 112.964C665.547 112.774 664.993 112.494 664.584 112.125C664.178 111.756 663.975 111.267 663.975 110.659C663.975 110.156 664.111 109.717 664.384 109.342C664.657 108.967 665.026 108.676 665.492 108.469C665.958 108.259 666.483 108.153 667.069 108.153C667.659 108.153 668.181 108.257 668.632 108.464C669.087 108.672 669.445 108.957 669.706 109.321C669.968 109.682 670.104 110.097 670.115 110.565H668.846ZM674.698 117.119C674.087 117.119 673.547 117.014 673.078 116.804C672.613 116.594 672.248 116.304 671.983 115.935C671.719 115.565 671.588 115.145 671.591 114.673C671.588 114.304 671.664 113.964 671.817 113.655C671.973 113.342 672.185 113.082 672.452 112.875C672.719 112.665 673.017 112.531 673.347 112.474V112.423C672.912 112.318 672.564 112.085 672.303 111.724C672.042 111.364 671.912 110.949 671.915 110.48C671.912 110.034 672.03 109.636 672.269 109.287C672.51 108.935 672.841 108.658 673.262 108.456C673.682 108.254 674.161 108.153 674.698 108.153C675.229 108.153 675.703 108.256 676.121 108.46C676.542 108.662 676.873 108.939 677.114 109.291C677.355 109.641 677.478 110.037 677.48 110.48C677.478 110.949 677.344 111.364 677.08 111.724C676.816 112.085 676.472 112.318 676.049 112.423V112.474C676.375 112.531 676.669 112.665 676.931 112.875C677.195 113.082 677.405 113.342 677.561 113.655C677.721 113.964 677.801 114.304 677.804 114.673C677.801 115.145 677.668 115.565 677.404 115.935C677.14 116.304 676.773 116.594 676.304 116.804C675.838 117.014 675.303 117.119 674.698 117.119ZM674.698 116.041C675.059 116.041 675.371 115.982 675.635 115.862C675.9 115.74 676.104 115.571 676.249 115.355C676.394 115.136 676.468 114.881 676.471 114.588C676.468 114.284 676.388 114.016 676.232 113.783C676.078 113.55 675.87 113.366 675.605 113.233C675.341 113.099 675.039 113.033 674.698 113.033C674.354 113.033 674.049 113.099 673.782 113.233C673.515 113.366 673.304 113.55 673.151 113.783C672.998 114.016 672.922 114.284 672.925 114.588C672.922 114.881 672.992 115.136 673.134 115.355C673.279 115.571 673.485 115.74 673.752 115.862C674.019 115.982 674.334 116.041 674.698 116.041ZM674.698 111.98C674.988 111.98 675.245 111.922 675.469 111.805C675.694 111.689 675.87 111.527 675.998 111.32C676.128 111.112 676.195 110.869 676.198 110.591C676.195 110.318 676.13 110.08 676.002 109.875C675.877 109.67 675.702 109.513 675.478 109.402C675.253 109.288 674.993 109.232 674.698 109.232C674.397 109.232 674.132 109.288 673.905 109.402C673.681 109.513 673.506 109.67 673.381 109.875C673.256 110.08 673.195 110.318 673.198 110.591C673.195 110.869 673.257 111.112 673.385 111.32C673.513 111.527 673.689 111.689 673.914 111.805C674.141 111.922 674.402 111.98 674.698 111.98ZM682.34 117.119C681.729 117.119 681.189 117.014 680.721 116.804C680.255 116.594 679.89 116.304 679.625 115.935C679.361 115.565 679.23 115.145 679.233 114.673C679.23 114.304 679.306 113.964 679.459 113.655C679.615 113.342 679.827 113.082 680.094 112.875C680.361 112.665 680.659 112.531 680.989 112.474V112.423C680.554 112.318 680.206 112.085 679.945 111.724C679.684 111.364 679.554 110.949 679.557 110.48C679.554 110.034 679.672 109.636 679.911 109.287C680.152 108.935 680.483 108.658 680.904 108.456C681.324 108.254 681.803 108.153 682.34 108.153C682.871 108.153 683.346 108.256 683.763 108.46C684.184 108.662 684.515 108.939 684.756 109.291C684.998 109.641 685.12 110.037 685.123 110.48C685.12 110.949 684.986 111.364 684.722 111.724C684.458 112.085 684.114 112.318 683.691 112.423V112.474C684.017 112.531 684.311 112.665 684.573 112.875C684.837 113.082 685.047 113.342 685.203 113.655C685.363 113.964 685.444 114.304 685.446 114.673C685.444 115.145 685.31 115.565 685.046 115.935C684.782 116.304 684.415 116.594 683.946 116.804C683.48 117.014 682.945 117.119 682.34 117.119ZM682.34 116.041C682.701 116.041 683.013 115.982 683.277 115.862C683.542 115.74 683.746 115.571 683.891 115.355C684.036 115.136 684.11 114.881 684.113 114.588C684.11 114.284 684.03 114.016 683.874 113.783C683.721 113.55 683.512 113.366 683.248 113.233C682.983 113.099 682.681 113.033 682.34 113.033C681.996 113.033 681.691 113.099 681.424 113.233C681.157 113.366 680.946 113.55 680.793 113.783C680.64 114.016 680.564 114.284 680.567 114.588C680.564 114.881 680.634 115.136 680.776 115.355C680.921 115.571 681.127 115.74 681.394 115.862C681.661 115.982 681.976 116.041 682.34 116.041ZM682.34 111.98C682.63 111.98 682.887 111.922 683.111 111.805C683.336 111.689 683.512 111.527 683.64 111.32C683.77 111.112 683.837 110.869 683.84 110.591C683.837 110.318 683.772 110.08 683.644 109.875C683.519 109.67 683.344 109.513 683.12 109.402C682.895 109.288 682.635 109.232 682.34 109.232C682.039 109.232 681.774 109.288 681.547 109.402C681.323 109.513 681.148 109.67 681.023 109.875C680.898 110.08 680.837 110.318 680.84 110.591C680.837 110.869 680.899 111.112 681.027 111.32C681.155 111.527 681.331 111.689 681.556 111.805C681.783 111.922 682.044 111.98 682.34 111.98ZM688.222 114.78L688.213 113.224H688.435L691.043 110.455H692.569L689.594 113.608H689.394L688.222 114.78ZM687.05 117V108.273H688.324V117H687.05ZM691.184 117L688.84 113.889L689.718 112.999L692.747 117H691.184Z" fill="white"/>
<circle cx="655" cy="133" r="4" fill="#14B8A6"/>
<path d="M666.675 138.091V127.182H667.374V138.091H666.675ZM668.861 130.565C668.816 130.162 668.628 129.849 668.299 129.628C667.969 129.403 667.554 129.291 667.054 129.291C666.696 129.291 666.387 129.348 666.125 129.462C665.864 129.572 665.661 129.726 665.516 129.922C665.374 130.115 665.303 130.335 665.303 130.582C665.303 130.79 665.351 130.969 665.448 131.119C665.547 131.27 665.677 131.396 665.836 131.499C665.998 131.598 666.171 131.682 666.355 131.75C666.54 131.815 666.718 131.869 666.888 131.912L667.74 132.134C668.019 132.202 668.304 132.294 668.597 132.411C668.89 132.527 669.161 132.68 669.411 132.871C669.661 133.061 669.863 133.297 670.016 133.578C670.172 133.859 670.25 134.196 670.25 134.588C670.25 135.082 670.123 135.521 669.867 135.905C669.614 136.288 669.246 136.591 668.763 136.812C668.283 137.034 667.702 137.145 667.02 137.145C666.367 137.145 665.802 137.041 665.324 136.834C664.847 136.626 664.473 136.332 664.204 135.952C663.934 135.568 663.784 135.114 663.756 134.588H665.077C665.103 134.903 665.205 135.166 665.384 135.376C665.566 135.584 665.797 135.739 666.079 135.841C666.363 135.94 666.674 135.99 667.012 135.99C667.384 135.99 667.715 135.932 668.005 135.815C668.297 135.696 668.527 135.531 668.695 135.321C668.863 135.108 668.946 134.859 668.946 134.575C668.946 134.317 668.873 134.105 668.725 133.94C668.58 133.776 668.382 133.639 668.132 133.531C667.885 133.423 667.605 133.328 667.293 133.246L666.262 132.964C665.563 132.774 665.009 132.494 664.6 132.125C664.194 131.756 663.99 131.267 663.99 130.659C663.99 130.156 664.127 129.717 664.4 129.342C664.672 128.967 665.042 128.676 665.507 128.469C665.973 128.259 666.499 128.153 667.084 128.153C667.675 128.153 668.196 128.257 668.648 128.464C669.103 128.672 669.461 128.957 669.722 129.321C669.983 129.682 670.12 130.097 670.131 130.565H668.861ZM672.059 137L675.868 129.466V129.402H671.462V128.273H677.232V129.44L673.435 137H672.059ZM679.302 137L683.112 129.466V129.402H678.706V128.273H684.475V129.44L680.679 137H679.302ZM687.206 134.78L687.198 133.224H687.419L690.027 130.455H691.553L688.578 133.608H688.378L687.206 134.78ZM686.034 137V128.273H687.309V137H686.034ZM690.168 137L687.824 133.889L688.702 132.999L691.732 137H690.168Z" fill="white"/>
<path d="M631.795 112.265C631.367 112.661 631.367 113.339 631.795 113.735L640.571 121.842C641.212 122.433 642.25 121.979 642.25 121.107L642.25 104.893C642.25 104.021 641.212 103.567 640.571 104.158L631.795 112.265Z" fill="black"/>
<rect x="617" y="1" width="1" height="270" fill="#E5E7EB"/>
<path d="M36.3509 283.273H37.6634V289.46C37.6634 290.02 37.5526 290.499 37.331 290.896C37.1122 291.294 36.804 291.598 36.4062 291.808C36.0085 292.016 35.5426 292.119 35.0085 292.119C34.517 292.119 34.0753 292.03 33.6832 291.851C33.294 291.672 32.9858 291.412 32.7585 291.071C32.5341 290.727 32.4219 290.31 32.4219 289.818H33.7301C33.7301 290.06 33.7855 290.268 33.8963 290.445C34.0099 290.621 34.1648 290.759 34.3608 290.858C34.5597 290.955 34.7869 291.003 35.0426 291.003C35.321 291.003 35.5568 290.945 35.75 290.828C35.946 290.709 36.0952 290.534 36.1974 290.304C36.2997 290.074 36.3509 289.793 36.3509 289.46V283.273ZM41.4425 292.145C41.0277 292.145 40.6527 292.068 40.3175 291.915C39.9822 291.759 39.7166 291.533 39.5206 291.237C39.3274 290.942 39.2308 290.58 39.2308 290.151C39.2308 289.781 39.3018 289.477 39.4439 289.239C39.5859 289 39.7777 288.811 40.0192 288.672C40.2606 288.533 40.5305 288.428 40.8288 288.357C41.1271 288.286 41.4311 288.232 41.7408 288.195C42.1328 288.149 42.451 288.112 42.6953 288.084C42.9396 288.053 43.1172 288.003 43.228 287.935C43.3388 287.866 43.3942 287.756 43.3942 287.602V287.572C43.3942 287.2 43.289 286.912 43.0788 286.707C42.8714 286.503 42.5618 286.401 42.1498 286.401C41.7209 286.401 41.3828 286.496 41.1356 286.686C40.8913 286.874 40.7223 287.082 40.6285 287.312L39.4311 287.04C39.5731 286.642 39.7805 286.321 40.0533 286.077C40.3288 285.83 40.6456 285.651 41.0035 285.54C41.3615 285.426 41.7379 285.369 42.1328 285.369C42.3942 285.369 42.6712 285.401 42.9638 285.463C43.2592 285.523 43.5348 285.634 43.7905 285.795C44.049 285.957 44.2606 286.189 44.4254 286.49C44.5902 286.788 44.6726 287.176 44.6726 287.653V292H43.4283V291.105H43.3771C43.2947 291.27 43.1712 291.432 43.0064 291.591C42.8416 291.75 42.63 291.882 42.3714 291.987C42.1129 292.092 41.8033 292.145 41.4425 292.145ZM41.7194 291.122C42.0717 291.122 42.3729 291.053 42.6229 290.913C42.8757 290.774 43.0675 290.592 43.1981 290.368C43.3317 290.141 43.3984 289.898 43.3984 289.639V288.795C43.353 288.841 43.2649 288.884 43.1342 288.923C43.0064 288.96 42.8601 288.993 42.6953 289.021C42.5305 289.047 42.37 289.071 42.2138 289.094C42.0575 289.114 41.9268 289.131 41.8217 289.145C41.5746 289.176 41.3487 289.229 41.1442 289.303C40.9425 289.376 40.7805 289.483 40.6584 289.622C40.539 289.759 40.4794 289.94 40.4794 290.168C40.4794 290.483 40.5959 290.722 40.8288 290.884C41.0618 291.043 41.3587 291.122 41.7194 291.122ZM47.7038 288.114V292H46.4297V285.455H47.6527V286.52H47.7336C47.8842 286.173 48.12 285.895 48.441 285.685C48.7649 285.474 49.1726 285.369 49.664 285.369C50.1101 285.369 50.5007 285.463 50.8359 285.651C51.1711 285.835 51.4311 286.111 51.6157 286.477C51.8004 286.844 51.8927 287.297 51.8927 287.837V292H50.6186V287.99C50.6186 287.516 50.495 287.145 50.2478 286.878C50.0007 286.608 49.6612 286.473 49.2294 286.473C48.9339 286.473 48.6711 286.537 48.441 286.665C48.2137 286.793 48.0334 286.98 47.8998 287.227C47.7691 287.472 47.7038 287.767 47.7038 288.114Z" fill="#9CA3AF"/>
<path d="M112.777 292V283.273H118.189V284.406H114.094V287.065H117.801V288.195H114.094V292H112.777ZM122.106 292.132C121.462 292.132 120.906 291.994 120.44 291.719C119.977 291.44 119.619 291.05 119.366 290.547C119.116 290.041 118.991 289.449 118.991 288.77C118.991 288.099 119.116 287.509 119.366 286.997C119.619 286.486 119.972 286.087 120.423 285.8C120.878 285.513 121.409 285.369 122.017 285.369C122.386 285.369 122.744 285.43 123.091 285.553C123.437 285.675 123.748 285.866 124.024 286.128C124.3 286.389 124.517 286.729 124.676 287.146C124.835 287.561 124.915 288.065 124.915 288.659V289.111H119.712V288.156H123.666C123.666 287.821 123.598 287.524 123.462 287.266C123.325 287.004 123.133 286.798 122.886 286.648C122.642 286.497 122.355 286.422 122.025 286.422C121.668 286.422 121.355 286.51 121.088 286.686C120.824 286.859 120.619 287.087 120.474 287.368C120.332 287.646 120.261 287.949 120.261 288.276V289.021C120.261 289.459 120.338 289.831 120.491 290.138C120.648 290.445 120.865 290.679 121.143 290.841C121.422 291 121.747 291.08 122.119 291.08C122.361 291.08 122.581 291.045 122.78 290.977C122.979 290.906 123.15 290.801 123.295 290.662C123.44 290.523 123.551 290.351 123.628 290.146L124.834 290.364C124.737 290.719 124.564 291.03 124.314 291.297C124.067 291.561 123.756 291.767 123.381 291.915C123.008 292.06 122.584 292.132 122.106 292.132ZM126.491 292V283.273H127.765V286.516H127.842C127.915 286.379 128.022 286.222 128.161 286.043C128.3 285.864 128.494 285.707 128.741 285.574C128.988 285.438 129.315 285.369 129.721 285.369C130.249 285.369 130.721 285.503 131.136 285.77C131.55 286.037 131.876 286.422 132.111 286.925C132.35 287.428 132.469 288.033 132.469 288.74C132.469 289.447 132.351 290.054 132.116 290.56C131.88 291.062 131.556 291.45 131.144 291.723C130.732 291.993 130.262 292.128 129.734 292.128C129.336 292.128 129.011 292.061 128.758 291.928C128.508 291.794 128.312 291.638 128.17 291.459C128.028 291.28 127.918 291.121 127.842 290.982H127.735V292H126.491ZM127.739 288.727C127.739 289.187 127.806 289.591 127.94 289.938C128.073 290.284 128.266 290.555 128.519 290.751C128.772 290.945 129.082 291.041 129.448 291.041C129.829 291.041 130.147 290.94 130.403 290.739C130.658 290.534 130.851 290.257 130.982 289.908C131.116 289.558 131.182 289.165 131.182 288.727C131.182 288.295 131.117 287.908 130.986 287.564C130.859 287.22 130.665 286.949 130.407 286.75C130.151 286.551 129.832 286.452 129.448 286.452C129.079 286.452 128.766 286.547 128.511 286.737C128.258 286.928 128.066 287.193 127.935 287.534C127.805 287.875 127.739 288.273 127.739 288.727Z" fill="#9CA3AF"/>
<path d="M192.595 283.273H194.193L196.971 290.057H197.074L199.852 283.273H201.45V292H200.197V285.685H200.116L197.542 291.987H196.503L193.929 285.68H193.848V292H192.595V283.273ZM205.227 292.145C204.812 292.145 204.437 292.068 204.102 291.915C203.767 291.759 203.501 291.533 203.305 291.237C203.112 290.942 203.015 290.58 203.015 290.151C203.015 289.781 203.087 289.477 203.229 289.239C203.371 289 203.562 288.811 203.804 288.672C204.045 288.533 204.315 288.428 204.613 288.357C204.912 288.286 205.216 288.232 205.525 288.195C205.917 288.149 206.236 288.112 206.48 288.084C206.724 288.053 206.902 288.003 207.013 287.935C207.123 287.866 207.179 287.756 207.179 287.602V287.572C207.179 287.2 207.074 286.912 206.863 286.707C206.656 286.503 206.346 286.401 205.935 286.401C205.506 286.401 205.167 286.496 204.92 286.686C204.676 286.874 204.507 287.082 204.413 287.312L203.216 287.04C203.358 286.642 203.565 286.321 203.838 286.077C204.113 285.83 204.43 285.651 204.788 285.54C205.146 285.426 205.523 285.369 205.917 285.369C206.179 285.369 206.456 285.401 206.748 285.463C207.044 285.523 207.319 285.634 207.575 285.795C207.834 285.957 208.045 286.189 208.21 286.49C208.375 286.788 208.457 287.176 208.457 287.653V292H207.213V291.105H207.162C207.079 291.27 206.956 291.432 206.791 291.591C206.626 291.75 206.415 291.882 206.156 291.987C205.898 292.092 205.588 292.145 205.227 292.145ZM205.504 291.122C205.856 291.122 206.158 291.053 206.408 290.913C206.66 290.774 206.852 290.592 206.983 290.368C207.116 290.141 207.183 289.898 207.183 289.639V288.795C207.138 288.841 207.05 288.884 206.919 288.923C206.791 288.96 206.645 288.993 206.48 289.021C206.315 289.047 206.155 289.071 205.998 289.094C205.842 289.114 205.712 289.131 205.606 289.145C205.359 289.176 205.133 289.229 204.929 289.303C204.727 289.376 204.565 289.483 204.443 289.622C204.324 289.759 204.264 289.94 204.264 290.168C204.264 290.483 204.381 290.722 204.613 290.884C204.846 291.043 205.143 291.122 205.504 291.122ZM210.214 292V285.455H211.446V286.494H211.514C211.633 286.142 211.844 285.865 212.145 285.663C212.449 285.459 212.792 285.357 213.176 285.357C213.256 285.357 213.349 285.359 213.457 285.365C213.568 285.371 213.655 285.378 213.717 285.386V286.605C213.666 286.591 213.575 286.575 213.444 286.558C213.314 286.538 213.183 286.528 213.052 286.528C212.751 286.528 212.483 286.592 212.247 286.72C212.014 286.845 211.829 287.02 211.693 287.244C211.557 287.466 211.488 287.719 211.488 288.003V292H210.214Z" fill="#9CA3AF"/>
<path d="M273.151 292H271.753L274.894 283.273H276.415L279.555 292H278.158L275.69 284.858H275.622L273.151 292ZM273.385 288.582H277.919V289.69H273.385V288.582ZM280.773 294.455V285.455H282.018V286.516H282.124C282.198 286.379 282.305 286.222 282.444 286.043C282.583 285.864 282.776 285.707 283.023 285.574C283.271 285.438 283.597 285.369 284.004 285.369C284.532 285.369 285.004 285.503 285.418 285.77C285.833 286.037 286.158 286.422 286.394 286.925C286.633 287.428 286.752 288.033 286.752 288.74C286.752 289.447 286.634 290.054 286.398 290.56C286.163 291.062 285.839 291.45 285.427 291.723C285.015 291.993 284.545 292.128 284.016 292.128C283.619 292.128 283.293 292.061 283.041 291.928C282.791 291.794 282.594 291.638 282.452 291.459C282.31 291.28 282.201 291.121 282.124 290.982H282.048V294.455H280.773ZM282.022 288.727C282.022 289.187 282.089 289.591 282.222 289.938C282.356 290.284 282.549 290.555 282.802 290.751C283.055 290.945 283.364 291.041 283.731 291.041C284.112 291.041 284.43 290.94 284.685 290.739C284.941 290.534 285.134 290.257 285.265 289.908C285.398 289.558 285.465 289.165 285.465 288.727C285.465 288.295 285.4 287.908 285.269 287.564C285.141 287.22 284.948 286.949 284.69 286.75C284.434 286.551 284.114 286.452 283.731 286.452C283.362 286.452 283.049 286.547 282.793 286.737C282.541 286.928 282.349 287.193 282.218 287.534C282.087 287.875 282.022 288.273 282.022 288.727ZM288.24 292V285.455H289.471V286.494H289.539C289.659 286.142 289.869 285.865 290.17 285.663C290.474 285.459 290.818 285.357 291.201 285.357C291.281 285.357 291.375 285.359 291.483 285.365C291.593 285.371 291.68 285.378 291.743 285.386V286.605C291.691 286.591 291.601 286.575 291.47 286.558C291.339 286.538 291.208 286.528 291.078 286.528C290.777 286.528 290.508 286.592 290.272 286.72C290.039 286.845 289.855 287.02 289.718 287.244C289.582 287.466 289.514 287.719 289.514 288.003V292H288.24Z" fill="#9CA3AF"/>
<path d="M352.232 283.273H353.83L356.608 290.057H356.71L359.489 283.273H361.087V292H359.834V285.685H359.753L357.179 291.987H356.139L353.565 285.68H353.484V292H352.232V283.273ZM364.864 292.145C364.449 292.145 364.074 292.068 363.739 291.915C363.403 291.759 363.138 291.533 362.942 291.237C362.749 290.942 362.652 290.58 362.652 290.151C362.652 289.781 362.723 289.477 362.865 289.239C363.007 289 363.199 288.811 363.44 288.672C363.682 288.533 363.952 288.428 364.25 288.357C364.548 288.286 364.852 288.232 365.162 288.195C365.554 288.149 365.872 288.112 366.116 288.084C366.361 288.053 366.538 288.003 366.649 287.935C366.76 287.866 366.815 287.756 366.815 287.602V287.572C366.815 287.2 366.71 286.912 366.5 286.707C366.293 286.503 365.983 286.401 365.571 286.401C365.142 286.401 364.804 286.496 364.557 286.686C364.312 286.874 364.143 287.082 364.05 287.312L362.852 287.04C362.994 286.642 363.202 286.321 363.474 286.077C363.75 285.83 364.067 285.651 364.425 285.54C364.783 285.426 365.159 285.369 365.554 285.369C365.815 285.369 366.092 285.401 366.385 285.463C366.68 285.523 366.956 285.634 367.212 285.795C367.47 285.957 367.682 286.189 367.847 286.49C368.011 286.788 368.094 287.176 368.094 287.653V292H366.849V291.105H366.798C366.716 291.27 366.592 291.432 366.428 291.591C366.263 291.75 366.051 291.882 365.793 291.987C365.534 292.092 365.224 292.145 364.864 292.145ZM365.141 291.122C365.493 291.122 365.794 291.053 366.044 290.913C366.297 290.774 366.489 290.592 366.619 290.368C366.753 290.141 366.82 289.898 366.82 289.639V288.795C366.774 288.841 366.686 288.884 366.555 288.923C366.428 288.96 366.281 288.993 366.116 289.021C365.952 289.047 365.791 289.071 365.635 289.094C365.479 289.114 365.348 289.131 365.243 289.145C364.996 289.176 364.77 289.229 364.565 289.303C364.364 289.376 364.202 289.483 364.08 289.622C363.96 289.759 363.901 289.94 363.901 290.168C363.901 290.483 364.017 290.722 364.25 290.884C364.483 291.043 364.78 291.122 365.141 291.122ZM370.422 294.455C370.231 294.455 370.058 294.439 369.902 294.408C369.746 294.379 369.629 294.348 369.553 294.314L369.859 293.27C370.092 293.332 370.3 293.359 370.481 293.351C370.663 293.342 370.824 293.274 370.963 293.146C371.105 293.018 371.23 292.81 371.338 292.52L371.496 292.085L369.101 285.455H370.464L372.122 290.534H372.19L373.848 285.455H375.216L372.518 292.874C372.393 293.214 372.234 293.503 372.041 293.739C371.848 293.977 371.618 294.156 371.351 294.276C371.084 294.395 370.774 294.455 370.422 294.455Z" fill="#9CA3AF"/>
<path d="M435.442 283.273H436.754V289.46C436.754 290.02 436.643 290.499 436.422 290.896C436.203 291.294 435.895 291.598 435.497 291.808C435.099 292.016 434.633 292.119 434.099 292.119C433.608 292.119 433.166 292.03 432.774 291.851C432.385 291.672 432.077 291.412 431.849 291.071C431.625 290.727 431.513 290.31 431.513 289.818H432.821C432.821 290.06 432.876 290.268 432.987 290.445C433.101 290.621 433.256 290.759 433.452 290.858C433.65 290.955 433.878 291.003 434.133 291.003C434.412 291.003 434.648 290.945 434.841 290.828C435.037 290.709 435.186 290.534 435.288 290.304C435.391 290.074 435.442 289.793 435.442 289.46V283.273ZM442.775 289.286V285.455H444.053V292H442.8V290.866H442.732C442.582 291.216 442.34 291.507 442.008 291.74C441.678 291.97 441.268 292.085 440.776 292.085C440.356 292.085 439.984 291.993 439.66 291.808C439.339 291.621 439.086 291.344 438.901 290.977C438.719 290.611 438.628 290.158 438.628 289.618V285.455H439.903V289.464C439.903 289.911 440.026 290.266 440.273 290.53C440.52 290.794 440.842 290.926 441.236 290.926C441.475 290.926 441.712 290.866 441.948 290.747C442.187 290.628 442.384 290.447 442.54 290.206C442.699 289.964 442.778 289.658 442.775 289.286ZM447.099 288.114V292H445.825V285.455H447.048V286.52H447.129C447.28 286.173 447.516 285.895 447.837 285.685C448.16 285.474 448.568 285.369 449.06 285.369C449.506 285.369 449.896 285.463 450.231 285.651C450.567 285.835 450.827 286.111 451.011 286.477C451.196 286.844 451.288 287.297 451.288 287.837V292H450.014V287.99C450.014 287.516 449.891 287.145 449.643 286.878C449.396 286.608 449.057 286.473 448.625 286.473C448.329 286.473 448.067 286.537 447.837 286.665C447.609 286.793 447.429 286.98 447.295 287.227C447.165 287.472 447.099 287.767 447.099 288.114Z" fill="#9CA3AF"/>
<path d="M515.26 283.273H516.573V289.46C516.573 290.02 516.462 290.499 516.24 290.896C516.021 291.294 515.713 291.598 515.315 291.808C514.918 292.016 514.452 292.119 513.918 292.119C513.426 292.119 512.984 292.03 512.592 291.851C512.203 291.672 511.895 291.412 511.668 291.071C511.443 290.727 511.331 290.31 511.331 289.818H512.639C512.639 290.06 512.695 290.268 512.805 290.445C512.919 290.621 513.074 290.759 513.27 290.858C513.469 290.955 513.696 291.003 513.952 291.003C514.23 291.003 514.466 290.945 514.659 290.828C514.855 290.709 515.004 290.534 515.107 290.304C515.209 290.074 515.26 289.793 515.26 289.46V283.273ZM522.593 289.286V285.455H523.872V292H522.619V290.866H522.551C522.4 291.216 522.158 291.507 521.826 291.74C521.497 291.97 521.086 292.085 520.595 292.085C520.174 292.085 519.802 291.993 519.478 291.808C519.157 291.621 518.904 291.344 518.72 290.977C518.538 290.611 518.447 290.158 518.447 289.618V285.455H519.721V289.464C519.721 289.911 519.845 290.266 520.092 290.53C520.339 290.794 520.66 290.926 521.055 290.926C521.293 290.926 521.531 290.866 521.766 290.747C522.005 290.628 522.202 290.447 522.359 290.206C522.518 289.964 522.596 289.658 522.593 289.286ZM526.918 283.273V292H525.644V283.273H526.918Z" fill="#9CA3AF"/>
<path d="M592.423 292H591.026L594.166 283.273H595.688L598.828 292H597.43L594.963 284.858H594.895L592.423 292ZM592.658 288.582H597.192V289.69H592.658V288.582ZM604.192 289.286V285.455H605.471V292H604.218V290.866H604.15C603.999 291.216 603.758 291.507 603.425 291.74C603.096 291.97 602.685 292.085 602.194 292.085C601.773 292.085 601.401 291.993 601.077 291.808C600.756 291.621 600.504 291.344 600.319 290.977C600.137 290.611 600.046 290.158 600.046 289.618V285.455H601.32V289.464C601.32 289.911 601.444 290.266 601.691 290.53C601.938 290.794 602.259 290.926 602.654 290.926C602.893 290.926 603.13 290.866 603.366 290.747C603.604 290.628 603.802 290.447 603.958 290.206C604.117 289.964 604.195 289.658 604.192 289.286ZM609.987 294.591C609.467 294.591 609.02 294.523 608.645 294.386C608.273 294.25 607.969 294.07 607.733 293.845C607.497 293.621 607.321 293.375 607.205 293.108L608.3 292.656C608.376 292.781 608.479 292.913 608.607 293.053C608.737 293.195 608.913 293.315 609.135 293.415C609.359 293.514 609.648 293.564 610 293.564C610.483 293.564 610.882 293.446 611.197 293.21C611.513 292.977 611.67 292.605 611.67 292.094V290.807H611.589C611.513 290.946 611.402 291.101 611.257 291.271C611.115 291.442 610.919 291.589 610.669 291.714C610.419 291.839 610.094 291.902 609.693 291.902C609.176 291.902 608.71 291.781 608.295 291.54C607.884 291.295 607.557 290.936 607.315 290.462C607.077 289.984 606.957 289.398 606.957 288.702C606.957 288.006 607.075 287.409 607.311 286.912C607.55 286.415 607.876 286.034 608.291 285.77C608.706 285.503 609.176 285.369 609.702 285.369C610.108 285.369 610.436 285.438 610.686 285.574C610.936 285.707 611.131 285.864 611.27 286.043C611.412 286.222 611.521 286.379 611.598 286.516H611.692V285.455H612.94V292.145C612.94 292.707 612.81 293.169 612.548 293.53C612.287 293.891 611.933 294.158 611.487 294.331C611.044 294.504 610.544 294.591 609.987 294.591ZM609.974 290.845C610.341 290.845 610.651 290.76 610.903 290.589C611.159 290.416 611.352 290.169 611.483 289.848C611.616 289.524 611.683 289.136 611.683 288.685C611.683 288.244 611.618 287.857 611.487 287.521C611.357 287.186 611.165 286.925 610.912 286.737C610.659 286.547 610.347 286.452 609.974 286.452C609.591 286.452 609.271 286.551 609.016 286.75C608.76 286.946 608.567 287.213 608.436 287.551C608.308 287.889 608.244 288.267 608.244 288.685C608.244 289.114 608.31 289.49 608.44 289.814C608.571 290.138 608.764 290.391 609.02 290.572C609.278 290.754 609.597 290.845 609.974 290.845Z" fill="#9CA3AF"/>
<path d="M676.264 285.565C676.219 285.162 676.031 284.849 675.702 284.628C675.372 284.403 674.957 284.291 674.457 284.291C674.099 284.291 673.79 284.348 673.528 284.462C673.267 284.572 673.064 284.726 672.919 284.922C672.777 285.115 672.706 285.335 672.706 285.582C672.706 285.79 672.754 285.969 672.851 286.119C672.95 286.27 673.08 286.396 673.239 286.499C673.401 286.598 673.574 286.682 673.758 286.75C673.943 286.815 674.121 286.869 674.291 286.912L675.143 287.134C675.422 287.202 675.707 287.294 676 287.411C676.293 287.527 676.564 287.68 676.814 287.871C677.064 288.061 677.266 288.297 677.419 288.578C677.575 288.859 677.653 289.196 677.653 289.588C677.653 290.082 677.526 290.521 677.27 290.905C677.017 291.288 676.649 291.591 676.166 291.812C675.686 292.034 675.105 292.145 674.423 292.145C673.77 292.145 673.205 292.041 672.727 291.834C672.25 291.626 671.876 291.332 671.606 290.952C671.337 290.568 671.187 290.114 671.159 289.588H672.48C672.506 289.903 672.608 290.166 672.787 290.376C672.969 290.584 673.2 290.739 673.481 290.841C673.766 290.94 674.077 290.99 674.415 290.99C674.787 290.99 675.118 290.932 675.408 290.815C675.7 290.696 675.93 290.531 676.098 290.321C676.266 290.108 676.349 289.859 676.349 289.575C676.349 289.317 676.276 289.105 676.128 288.94C675.983 288.776 675.785 288.639 675.535 288.531C675.288 288.423 675.008 288.328 674.696 288.246L673.665 287.964C672.966 287.774 672.412 287.494 672.003 287.125C671.597 286.756 671.393 286.267 671.393 285.659C671.393 285.156 671.53 284.717 671.803 284.342C672.075 283.967 672.445 283.676 672.91 283.469C673.376 283.259 673.902 283.153 674.487 283.153C675.078 283.153 675.599 283.257 676.051 283.464C676.506 283.672 676.864 283.957 677.125 284.321C677.386 284.682 677.523 285.097 677.534 285.565H676.264ZM682.006 292.132C681.361 292.132 680.805 291.994 680.339 291.719C679.876 291.44 679.518 291.05 679.266 290.547C679.016 290.041 678.891 289.449 678.891 288.77C678.891 288.099 679.016 287.509 679.266 286.997C679.518 286.486 679.871 286.087 680.322 285.8C680.777 285.513 681.308 285.369 681.916 285.369C682.285 285.369 682.643 285.43 682.99 285.553C683.337 285.675 683.648 285.866 683.923 286.128C684.199 286.389 684.416 286.729 684.575 287.146C684.734 287.561 684.814 288.065 684.814 288.659V289.111H679.611V288.156H683.565C683.565 287.821 683.497 287.524 683.361 287.266C683.224 287.004 683.033 286.798 682.785 286.648C682.541 286.497 682.254 286.422 681.925 286.422C681.567 286.422 681.254 286.51 680.987 286.686C680.723 286.859 680.518 287.087 680.374 287.368C680.231 287.646 680.16 287.949 680.16 288.276V289.021C680.16 289.459 680.237 289.831 680.391 290.138C680.547 290.445 680.764 290.679 681.043 290.841C681.321 291 681.646 291.08 682.018 291.08C682.26 291.08 682.48 291.045 682.679 290.977C682.878 290.906 683.05 290.801 683.195 290.662C683.339 290.523 683.45 290.351 683.527 290.146L684.733 290.364C684.636 290.719 684.463 291.03 684.213 291.297C683.966 291.561 683.655 291.767 683.28 291.915C682.908 292.06 682.483 292.132 682.006 292.132ZM686.288 294.455V285.455H687.532V286.516H687.638C687.712 286.379 687.819 286.222 687.958 286.043C688.097 285.864 688.29 285.707 688.538 285.574C688.785 285.438 689.111 285.369 689.518 285.369C690.046 285.369 690.518 285.503 690.932 285.77C691.347 286.037 691.673 286.422 691.908 286.925C692.147 287.428 692.266 288.033 692.266 288.74C692.266 289.447 692.148 290.054 691.913 290.56C691.677 291.062 691.353 291.45 690.941 291.723C690.529 291.993 690.059 292.128 689.53 292.128C689.133 292.128 688.807 292.061 688.555 291.928C688.305 291.794 688.109 291.638 687.967 291.459C687.825 291.28 687.715 291.121 687.638 290.982H687.562V294.455H686.288ZM687.536 288.727C687.536 289.187 687.603 289.591 687.736 289.938C687.87 290.284 688.063 290.555 688.316 290.751C688.569 290.945 688.878 291.041 689.245 291.041C689.626 291.041 689.944 290.94 690.2 290.739C690.455 290.534 690.648 290.257 690.779 289.908C690.913 289.558 690.979 289.165 690.979 288.727C690.979 288.295 690.914 287.908 690.783 287.564C690.655 287.22 690.462 286.949 690.204 286.75C689.948 286.551 689.628 286.452 689.245 286.452C688.876 286.452 688.563 286.547 688.307 286.737C688.055 286.928 687.863 287.193 687.732 287.534C687.601 287.875 687.536 288.273 687.536 288.727Z" fill="#9CA3AF"/>
<path d="M758.903 287.636C758.903 288.568 758.733 289.369 758.392 290.04C758.051 290.707 757.584 291.222 756.99 291.582C756.399 291.94 755.727 292.119 754.974 292.119C754.219 292.119 753.544 291.94 752.95 291.582C752.359 291.222 751.893 290.706 751.552 290.036C751.212 289.365 751.041 288.565 751.041 287.636C751.041 286.705 751.212 285.905 751.552 285.237C751.893 284.567 752.359 284.053 752.95 283.695C753.544 283.334 754.219 283.153 754.974 283.153C755.727 283.153 756.399 283.334 756.99 283.695C757.584 284.053 758.051 284.567 758.392 285.237C758.733 285.905 758.903 286.705 758.903 287.636ZM757.599 287.636C757.599 286.926 757.484 286.328 757.254 285.842C757.027 285.354 756.714 284.984 756.317 284.734C755.922 284.482 755.474 284.355 754.974 284.355C754.471 284.355 754.023 284.482 753.628 284.734C753.233 284.984 752.92 285.354 752.69 285.842C752.463 286.328 752.349 286.926 752.349 287.636C752.349 288.347 752.463 288.946 752.69 289.435C752.92 289.92 753.233 290.29 753.628 290.543C754.023 290.793 754.471 290.918 754.974 290.918C755.474 290.918 755.922 290.793 756.317 290.543C756.714 290.29 757.027 289.92 757.254 289.435C757.484 288.946 757.599 288.347 757.599 287.636ZM763.26 292.132C762.626 292.132 762.081 291.989 761.623 291.702C761.169 291.412 760.819 291.013 760.575 290.504C760.331 289.996 760.209 289.413 760.209 288.757C760.209 288.092 760.334 287.506 760.584 286.997C760.834 286.486 761.186 286.087 761.641 285.8C762.095 285.513 762.631 285.369 763.247 285.369C763.744 285.369 764.187 285.462 764.577 285.646C764.966 285.828 765.28 286.084 765.518 286.413C765.76 286.743 765.903 287.128 765.949 287.568H764.709C764.641 287.261 764.484 286.997 764.24 286.776C763.998 286.554 763.675 286.443 763.268 286.443C762.913 286.443 762.602 286.537 762.335 286.724C762.071 286.909 761.865 287.173 761.717 287.517C761.569 287.858 761.496 288.261 761.496 288.727C761.496 289.205 761.568 289.616 761.713 289.963C761.858 290.31 762.062 290.578 762.327 290.768C762.594 290.959 762.908 291.054 763.268 291.054C763.51 291.054 763.729 291.01 763.925 290.922C764.123 290.831 764.29 290.702 764.423 290.534C764.56 290.366 764.655 290.165 764.709 289.929H765.949C765.903 290.352 765.766 290.73 765.535 291.062C765.305 291.395 764.997 291.656 764.611 291.847C764.227 292.037 763.777 292.132 763.26 292.132ZM770.427 285.455V286.477H766.851V285.455H770.427ZM767.81 283.886H769.084V290.078C769.084 290.325 769.121 290.511 769.195 290.636C769.269 290.759 769.364 290.842 769.481 290.888C769.6 290.93 769.729 290.952 769.868 290.952C769.971 290.952 770.06 290.945 770.137 290.93C770.214 290.916 770.273 290.905 770.316 290.896L770.546 291.949C770.472 291.977 770.367 292.006 770.231 292.034C770.094 292.065 769.924 292.082 769.719 292.085C769.384 292.091 769.072 292.031 768.782 291.906C768.492 291.781 768.258 291.588 768.079 291.327C767.9 291.065 767.81 290.737 767.81 290.342V283.886Z" fill="#9CA3AF"/>
<path d="M838.184 283.273V292H836.974L832.538 285.599H832.457V292H831.14V283.273H832.359L836.8 289.682H836.881V283.273H838.184ZM842.82 292.132C842.206 292.132 841.671 291.991 841.214 291.71C840.756 291.429 840.401 291.036 840.148 290.53C839.895 290.024 839.769 289.433 839.769 288.757C839.769 288.078 839.895 287.484 840.148 286.976C840.401 286.467 840.756 286.072 841.214 285.791C841.671 285.51 842.206 285.369 842.82 285.369C843.434 285.369 843.969 285.51 844.427 285.791C844.884 286.072 845.239 286.467 845.492 286.976C845.745 287.484 845.871 288.078 845.871 288.757C845.871 289.433 845.745 290.024 845.492 290.53C845.239 291.036 844.884 291.429 844.427 291.71C843.969 291.991 843.434 292.132 842.82 292.132ZM842.824 291.062C843.222 291.062 843.552 290.957 843.813 290.747C844.074 290.537 844.268 290.257 844.393 289.908C844.52 289.558 844.584 289.173 844.584 288.753C844.584 288.335 844.52 287.952 844.393 287.602C844.268 287.25 844.074 286.967 843.813 286.754C843.552 286.541 843.222 286.435 842.824 286.435C842.424 286.435 842.091 286.541 841.827 286.754C841.566 286.967 841.371 287.25 841.243 287.602C841.118 287.952 841.056 288.335 841.056 288.753C841.056 289.173 841.118 289.558 841.243 289.908C841.371 290.257 841.566 290.537 841.827 290.747C842.091 290.957 842.424 291.062 842.824 291.062ZM852.73 285.455L850.357 292H848.993L846.615 285.455H847.983L849.641 290.491H849.709L851.362 285.455H852.73Z" fill="#9CA3AF"/>
<path d="M913.784 292H910.959V283.273H913.874C914.729 283.273 915.463 283.447 916.077 283.797C916.69 284.143 917.161 284.642 917.487 285.293C917.817 285.94 917.982 286.717 917.982 287.624C917.982 288.533 917.815 289.314 917.483 289.967C917.153 290.621 916.676 291.124 916.051 291.476C915.426 291.825 914.67 292 913.784 292ZM912.276 290.849H913.712C914.376 290.849 914.929 290.724 915.369 290.474C915.81 290.222 916.139 289.857 916.358 289.379C916.577 288.899 916.686 288.314 916.686 287.624C916.686 286.939 916.577 286.358 916.358 285.881C916.142 285.403 915.82 285.041 915.391 284.794C914.962 284.547 914.429 284.423 913.793 284.423H912.276V290.849ZM922.398 292.132C921.753 292.132 921.197 291.994 920.732 291.719C920.268 291.44 919.91 291.05 919.658 290.547C919.408 290.041 919.283 289.449 919.283 288.77C919.283 288.099 919.408 287.509 919.658 286.997C919.91 286.486 920.263 286.087 920.714 285.8C921.169 285.513 921.7 285.369 922.308 285.369C922.678 285.369 923.035 285.43 923.382 285.553C923.729 285.675 924.04 285.866 924.315 286.128C924.591 286.389 924.808 286.729 924.967 287.146C925.126 287.561 925.206 288.065 925.206 288.659V289.111H920.003V288.156H923.957C923.957 287.821 923.889 287.524 923.753 287.266C923.616 287.004 923.425 286.798 923.178 286.648C922.933 286.497 922.646 286.422 922.317 286.422C921.959 286.422 921.646 286.51 921.379 286.686C921.115 286.859 920.91 287.087 920.766 287.368C920.624 287.646 920.553 287.949 920.553 288.276V289.021C920.553 289.459 920.629 289.831 920.783 290.138C920.939 290.445 921.156 290.679 921.435 290.841C921.713 291 922.038 291.08 922.41 291.08C922.652 291.08 922.872 291.045 923.071 290.977C923.27 290.906 923.442 290.801 923.587 290.662C923.732 290.523 923.842 290.351 923.919 290.146L925.125 290.364C925.028 290.719 924.855 291.03 924.605 291.297C924.358 291.561 924.047 291.767 923.672 291.915C923.3 292.06 922.875 292.132 922.398 292.132ZM929.437 292.132C928.803 292.132 928.258 291.989 927.8 291.702C927.346 291.412 926.996 291.013 926.752 290.504C926.508 289.996 926.386 289.413 926.386 288.757C926.386 288.092 926.511 287.506 926.761 286.997C927.011 286.486 927.363 286.087 927.817 285.8C928.272 285.513 928.808 285.369 929.424 285.369C929.921 285.369 930.364 285.462 930.754 285.646C931.143 285.828 931.457 286.084 931.695 286.413C931.937 286.743 932.08 287.128 932.126 287.568H930.886C930.817 287.261 930.661 286.997 930.417 286.776C930.175 286.554 929.852 286.443 929.445 286.443C929.09 286.443 928.779 286.537 928.512 286.724C928.248 286.909 928.042 287.173 927.894 287.517C927.746 287.858 927.673 288.261 927.673 288.727C927.673 289.205 927.745 289.616 927.89 289.963C928.035 290.31 928.239 290.578 928.504 290.768C928.771 290.959 929.084 291.054 929.445 291.054C929.687 291.054 929.906 291.01 930.102 290.922C930.3 290.831 930.467 290.702 930.6 290.534C930.736 290.366 930.832 290.165 930.886 289.929H932.126C932.08 290.352 931.942 290.73 931.712 291.062C931.482 291.395 931.174 291.656 930.788 291.847C930.404 292.037 929.954 292.132 929.437 292.132Z" fill="#9CA3AF"/>
<defs>
<linearGradient id="paint0_linear_4404_183679" x1="482" y1="-34" x2="482" y2="216" gradientUnits="userSpaceOnUse">
<stop offset="0%" stop-color="#3B82F6"/>
<stop offset="1" stop-color="white" stop-opacity="0"/>
</linearGradient>
<linearGradient id="paint1_linear_4404_183679" x1="482" y1="9" x2="482" y2="197" gradientUnits="userSpaceOnUse">
<stop offset="0%" stop-color="#14B8A6"/>
<stop offset="1" stop-color="white" stop-opacity="0"/>
</linearGradient>
</defs>
</svg>
