<svg width="50" height="76" viewBox="0 0 50 76" fill="none" xmlns="http://www.w3.org/2000/svg">
<g clip-path="url(#clip0_4290_52289)">
<rect width="50" height="28" rx="14" fill="#F3F4F6"/>
<g filter="url(#filter0_dd_4290_52289)">
<rect x="2" y="2" width="24" height="24" rx="12" fill="white" shape-rendering="crispEdges"/>
<path fill-rule="evenodd" clip-rule="evenodd" d="M17.6587 10.3408C17.6878 10.3699 17.7108 10.4043 17.7266 10.4423C17.7424 10.4803 17.7505 10.521 17.7505 10.5621C17.7505 10.6032 17.7424 10.6439 17.7266 10.6819C17.7108 10.7198 17.6878 10.7543 17.6587 10.7833L10.7837 17.6583C10.725 17.717 10.6454 17.75 10.5624 17.75C10.4794 17.75 10.3998 17.717 10.3412 17.6583C10.2825 17.5997 10.2495 17.5201 10.2495 17.4371C10.2495 17.3541 10.2825 17.2745 10.3412 17.2158L17.2162 10.3408C17.2452 10.3117 17.2797 10.2886 17.3176 10.2729C17.3556 10.2571 17.3963 10.249 17.4374 10.249C17.4785 10.249 17.5192 10.2571 17.5572 10.2729C17.5951 10.2886 17.6296 10.3117 17.6587 10.3408Z" fill="#6B7280"/>
<path fill-rule="evenodd" clip-rule="evenodd" d="M10.3413 10.3408C10.3122 10.3699 10.2891 10.4043 10.2734 10.4423C10.2576 10.4803 10.2495 10.521 10.2495 10.5621C10.2495 10.6032 10.2576 10.6439 10.2734 10.6819C10.2891 10.7198 10.3122 10.7543 10.3413 10.7833L17.2163 17.6583C17.275 17.717 17.3546 17.75 17.4376 17.75C17.5206 17.75 17.6001 17.717 17.6588 17.6583C17.7175 17.5997 17.7505 17.5201 17.7505 17.4371C17.7505 17.3541 17.7175 17.2745 17.6588 17.2158L10.7838 10.3408C10.7548 10.3117 10.7203 10.2886 10.6823 10.2729C10.6444 10.2571 10.6037 10.249 10.5626 10.249C10.5215 10.249 10.4808 10.2571 10.4428 10.2729C10.4048 10.2886 10.3703 10.3117 10.3413 10.3408Z" fill="#6B7280"/>
</g>
<path d="M38.9602 11.4812C39.0028 11.4377 39.0537 11.4031 39.1099 11.3795C39.1661 11.3559 39.2264 11.3438 39.2874 11.3438C39.3483 11.3438 39.4086 11.3559 39.4648 11.3795C39.521 11.4031 39.5719 11.4377 39.6145 11.4812C39.7933 11.6618 39.7958 11.9537 39.6208 12.1375L35.9252 16.5062C35.8832 16.5523 35.8323 16.5893 35.7755 16.615C35.7188 16.6408 35.6574 16.6546 35.595 16.6558C35.5327 16.657 35.4709 16.6454 35.4132 16.6218C35.3555 16.5983 35.3032 16.5632 35.2595 16.5187L33.0108 14.24C32.9241 14.1515 32.8755 14.0326 32.8755 13.9087C32.8755 13.7848 32.9241 13.6659 33.0108 13.5775C33.0534 13.5339 33.1044 13.4994 33.1605 13.4758C33.2167 13.4522 33.277 13.44 33.338 13.44C33.3989 13.44 33.4592 13.4522 33.5154 13.4758C33.5716 13.4994 33.6225 13.5339 33.6652 13.5775L35.5727 15.5106L38.9477 11.495C38.9516 11.4901 38.9557 11.4855 38.9602 11.4812Z" fill="#6B7280"/>
</g>
<rect y="48" width="50" height="28" rx="14" fill="#3B82F6"/>
<g filter="url(#filter1_dd_4290_52289)">
<path fill-rule="evenodd" clip-rule="evenodd" d="M17.6587 58.3408C17.6878 58.3699 17.7108 58.4043 17.7266 58.4423C17.7424 58.4803 17.7505 58.521 17.7505 58.5621C17.7505 58.6032 17.7424 58.6439 17.7266 58.6819C17.7108 58.7198 17.6878 58.7543 17.6587 58.7833L10.7837 65.6583C10.725 65.717 10.6454 65.75 10.5624 65.75C10.4794 65.75 10.3998 65.717 10.3412 65.6583C10.2825 65.5997 10.2495 65.5201 10.2495 65.4371C10.2495 65.3541 10.2825 65.2745 10.3412 65.2158L17.2162 58.3408C17.2452 58.3117 17.2797 58.2886 17.3176 58.2729C17.3556 58.2571 17.3963 58.249 17.4374 58.249C17.4785 58.249 17.5192 58.2571 17.5572 58.2729C17.5951 58.2886 17.6296 58.3117 17.6587 58.3408V58.3408Z" fill="white"/>
<path fill-rule="evenodd" clip-rule="evenodd" d="M10.3413 58.3408C10.3122 58.3699 10.2891 58.4043 10.2734 58.4423C10.2576 58.4803 10.2495 58.521 10.2495 58.5621C10.2495 58.6032 10.2576 58.6439 10.2734 58.6819C10.2891 58.7198 10.3122 58.7543 10.3413 58.7833L17.2163 65.6583C17.275 65.717 17.3546 65.75 17.4376 65.75C17.5206 65.75 17.6001 65.717 17.6588 65.6583C17.7175 65.5997 17.7505 65.5201 17.7505 65.4371C17.7505 65.3541 17.7175 65.2745 17.6588 65.2158L10.7838 58.3408C10.7548 58.3117 10.7203 58.2886 10.6823 58.2729C10.6444 58.2571 10.6037 58.249 10.5626 58.249C10.5215 58.249 10.4808 58.2571 10.4428 58.2729C10.4048 58.2886 10.3703 58.3117 10.3413 58.3408V58.3408Z" fill="white"/>
</g>
<rect x="24" y="50" width="24" height="24" rx="12" fill="white"/>
<path d="M38.9602 59.4812C39.0028 59.4377 39.0537 59.4031 39.1099 59.3795C39.1661 59.3559 39.2264 59.3438 39.2874 59.3438C39.3483 59.3438 39.4086 59.3559 39.4648 59.3795C39.521 59.4031 39.5719 59.4377 39.6145 59.4812C39.7933 59.6618 39.7958 59.9537 39.6208 60.1375L35.9252 64.5062C35.8832 64.5523 35.8323 64.5893 35.7755 64.615C35.7188 64.6408 35.6574 64.6546 35.595 64.6558C35.5327 64.657 35.4709 64.6454 35.4132 64.6218C35.3555 64.5983 35.3032 64.5632 35.2595 64.5187L33.0108 62.24C32.9241 62.1515 32.8755 62.0326 32.8755 61.9087C32.8755 61.7848 32.9241 61.6659 33.0108 61.5775C33.0534 61.5339 33.1044 61.4994 33.1605 61.4758C33.2167 61.4522 33.277 61.44 33.338 61.44C33.3989 61.44 33.4592 61.4522 33.5154 61.4758C33.5716 61.4994 33.6225 61.5339 33.6652 61.5775L35.5727 63.5106L38.9477 59.495C38.9516 59.4901 38.9557 59.4855 38.9602 59.4812Z" fill="#3B82F6"/>
<defs>
<filter id="filter0_dd_4290_52289" x="0" y="1" width="28" height="28" filterUnits="userSpaceOnUse" color-interpolation-filters="sRGB">
<feFlood flood-opacity="0" result="BackgroundImageFix"/>
<feColorMatrix in="SourceAlpha" type="matrix" values="0 0 0 0 0 0 0 0 0 0 0 0 0 0 0 0 0 0 127 0" result="hardAlpha"/>
<feOffset dy="1"/>
<feGaussianBlur stdDeviation="0.5"/>
<feComposite in2="hardAlpha" operator="out"/>
<feColorMatrix type="matrix" values="0 0 0 0 0 0 0 0 0 0 0 0 0 0 0 0 0 0 0.06 0"/>
<feBlend mode="normal" in2="BackgroundImageFix" result="effect1_dropShadow_4290_52289"/>
<feColorMatrix in="SourceAlpha" type="matrix" values="0 0 0 0 0 0 0 0 0 0 0 0 0 0 0 0 0 0 127 0" result="hardAlpha"/>
<feOffset dy="1"/>
<feGaussianBlur stdDeviation="1"/>
<feComposite in2="hardAlpha" operator="out"/>
<feColorMatrix type="matrix" values="0 0 0 0 0 0 0 0 0 0 0 0 0 0 0 0 0 0 0.1 0"/>
<feBlend mode="normal" in2="effect1_dropShadow_4290_52289" result="effect2_dropShadow_4290_52289"/>
<feBlend mode="normal" in="SourceGraphic" in2="effect2_dropShadow_4290_52289" result="shape"/>
</filter>
<filter id="filter1_dd_4290_52289" x="0" y="49" width="28" height="28" filterUnits="userSpaceOnUse" color-interpolation-filters="sRGB">
<feFlood flood-opacity="0" result="BackgroundImageFix"/>
<feColorMatrix in="SourceAlpha" type="matrix" values="0 0 0 0 0 0 0 0 0 0 0 0 0 0 0 0 0 0 127 0" result="hardAlpha"/>
<feOffset dy="1"/>
<feGaussianBlur stdDeviation="0.5"/>
<feComposite in2="hardAlpha" operator="out"/>
<feColorMatrix type="matrix" values="0 0 0 0 0 0 0 0 0 0 0 0 0 0 0 0 0 0 0.06 0"/>
<feBlend mode="normal" in2="BackgroundImageFix" result="effect1_dropShadow_4290_52289"/>
<feColorMatrix in="SourceAlpha" type="matrix" values="0 0 0 0 0 0 0 0 0 0 0 0 0 0 0 0 0 0 127 0" result="hardAlpha"/>
<feOffset dy="1"/>
<feGaussianBlur stdDeviation="1"/>
<feComposite in2="hardAlpha" operator="out"/>
<feColorMatrix type="matrix" values="0 0 0 0 0 0 0 0 0 0 0 0 0 0 0 0 0 0 0.1 0"/>
<feBlend mode="normal" in2="effect1_dropShadow_4290_52289" result="effect2_dropShadow_4290_52289"/>
<feBlend mode="normal" in="SourceGraphic" in2="effect2_dropShadow_4290_52289" result="shape"/>
</filter>
<clipPath id="clip0_4290_52289">
<rect width="50" height="28" rx="14" fill="white"/>
</clipPath>
</defs>
</svg>
