<svg width="208" height="158" viewBox="0 0 208 158" fill="none" xmlns="http://www.w3.org/2000/svg">
<path d="M27 153L27 5" stroke="url(#paint0_linear_160_2889)"/>
<path d="M32 158L32 -5.24521e-06" stroke="url(#paint1_linear_160_2889)"/>
<path d="M176 0L176 158" stroke="url(#paint2_linear_160_2889)"/>
<path d="M181 5L181 153" stroke="url(#paint3_linear_160_2889)"/>
<path d="M10 24.5H198" stroke="url(#paint4_linear_160_2889)"/>
<path d="M5 29.5H203" stroke="url(#paint5_linear_160_2889)"/>
<g filter="url(#filter0_d_160_2889)">
<path d="M32 35.5C32 32.1863 34.6863 29.5 38 29.5H170C173.314 29.5 176 32.1863 176 35.5V79.5C176 82.8137 173.314 85.5 170 85.5H38C34.6863 85.5 32 82.8137 32 79.5V35.5Z" fill="url(#paint6_linear_160_2889)"/>
<rect x="47" y="44.5" width="39" height="3" rx="1.5" fill="white"/>
<path d="M155 47.5L157.646 44.8536C157.842 44.6583 158.158 44.6583 158.354 44.8536L161 47.5" stroke="white" stroke-width="2" stroke-linecap="round"/>
<rect x="47" y="57.5" width="70" height="3" rx="1.5" fill="white" fill-opacity="0.3"/>
<rect x="47" y="67.5" width="48" height="3" rx="1.5" fill="white" fill-opacity="0.3"/>
</g>
<g filter="url(#filter1_d_160_2889)">
<path d="M32 101.5C32 98.1863 34.6863 95.5 38 95.5H170C173.314 95.5 176 98.1863 176 101.5V122.5C176 125.814 173.314 128.5 170 128.5H38C34.6863 128.5 32 125.814 32 122.5V101.5Z" fill="url(#paint7_linear_160_2889)"/>
<rect x="47" y="110.5" width="39" height="3" rx="1.5" fill="white"/>
<path d="M155 110.5L157.646 113.146C157.842 113.342 158.158 113.342 158.354 113.146L161 110.5" stroke="white" stroke-width="2" stroke-linecap="round"/>
</g>
<path d="M5 128.5H203" stroke="url(#paint8_linear_160_2889)"/>
<path d="M10 133.5H198" stroke="url(#paint9_linear_160_2889)"/>
<defs>
<filter id="filter0_d_160_2889" x="20" y="23.5" width="168" height="80" filterUnits="userSpaceOnUse" color-interpolation-filters="sRGB">
<feFlood flood-opacity="0" result="BackgroundImageFix"/>
<feColorMatrix in="SourceAlpha" type="matrix" values="0 0 0 0 0 0 0 0 0 0 0 0 0 0 0 0 0 0 127 0" result="hardAlpha"/>
<feOffset dy="6"/>
<feGaussianBlur stdDeviation="6"/>
<feComposite in2="hardAlpha" operator="out"/>
<feColorMatrix type="matrix" values="0 0 0 0 0 0 0 0 0 0 0 0 0 0 0 0 0 0 0.03 0"/>
<feBlend mode="normal" in2="BackgroundImageFix" result="effect1_dropShadow_160_2889"/>
<feBlend mode="normal" in="SourceGraphic" in2="effect1_dropShadow_160_2889" result="shape"/>
</filter>
<filter id="filter1_d_160_2889" x="20" y="89.5" width="168" height="57" filterUnits="userSpaceOnUse" color-interpolation-filters="sRGB">
<feFlood flood-opacity="0" result="BackgroundImageFix"/>
<feColorMatrix in="SourceAlpha" type="matrix" values="0 0 0 0 0 0 0 0 0 0 0 0 0 0 0 0 0 0 127 0" result="hardAlpha"/>
<feOffset dy="6"/>
<feGaussianBlur stdDeviation="6"/>
<feComposite in2="hardAlpha" operator="out"/>
<feColorMatrix type="matrix" values="0 0 0 0 0 0 0 0 0 0 0 0 0 0 0 0 0 0 0.03 0"/>
<feBlend mode="normal" in2="BackgroundImageFix" result="effect1_dropShadow_160_2889"/>
<feBlend mode="normal" in="SourceGraphic" in2="effect1_dropShadow_160_2889" result="shape"/>
</filter>
<linearGradient id="paint0_linear_160_2889" x1="27.5" y1="153" x2="27.5" y2="5" gradientUnits="userSpaceOnUse">
<stop offset="0%" stop-color="white" stop-opacity="0"/>
<stop offset="0.185417" stop-color="white" stop-opacity="0.1"/>
<stop offset="0.826042" stop-color="white" stop-opacity="0.1"/>
<stop offset="1" stop-color="white" stop-opacity="0"/>
</linearGradient>
<linearGradient id="paint1_linear_160_2889" x1="32.5" y1="158" x2="32.5" y2="-2.74062e-08" gradientUnits="userSpaceOnUse">
<stop offset="0%" stop-color="white" stop-opacity="0"/>
<stop offset="0.185417" stop-color="white" stop-opacity="0.1"/>
<stop offset="0.826042" stop-color="white" stop-opacity="0.1"/>
<stop offset="1" stop-color="white" stop-opacity="0"/>
</linearGradient>
<linearGradient id="paint2_linear_160_2889" x1="176.5" y1="2.74063e-08" x2="176.5" y2="158" gradientUnits="userSpaceOnUse">
<stop offset="0%" stop-color="white" stop-opacity="0"/>
<stop offset="0.185417" stop-color="white" stop-opacity="0.1"/>
<stop offset="0.826042" stop-color="white" stop-opacity="0.1"/>
<stop offset="1" stop-color="white" stop-opacity="0"/>
</linearGradient>
<linearGradient id="paint3_linear_160_2889" x1="181.5" y1="5" x2="181.5" y2="153" gradientUnits="userSpaceOnUse">
<stop offset="0%" stop-color="white" stop-opacity="0"/>
<stop offset="0.185417" stop-color="white" stop-opacity="0.1"/>
<stop offset="0.826042" stop-color="white" stop-opacity="0.1"/>
<stop offset="1" stop-color="white" stop-opacity="0"/>
</linearGradient>
<linearGradient id="paint4_linear_160_2889" x1="104" y1="24.5" x2="104" y2="25.5" gradientUnits="userSpaceOnUse">
<stop offset="0%" stop-color="white" stop-opacity="0"/>
<stop offset="0.185417" stop-color="white" stop-opacity="0.1"/>
<stop offset="0.826042" stop-color="white" stop-opacity="0.1"/>
<stop offset="1" stop-color="white" stop-opacity="0"/>
</linearGradient>
<linearGradient id="paint5_linear_160_2889" x1="104" y1="29.5" x2="104" y2="30.5" gradientUnits="userSpaceOnUse">
<stop offset="0%" stop-color="white" stop-opacity="0"/>
<stop offset="0.185417" stop-color="white" stop-opacity="0.1"/>
<stop offset="0.826042" stop-color="white" stop-opacity="0.1"/>
<stop offset="1" stop-color="white" stop-opacity="0"/>
</linearGradient>
<linearGradient id="paint6_linear_160_2889" x1="53.3943" y1="35.324" x2="117.32" y2="125.395" gradientUnits="userSpaceOnUse">
<stop offset="0%" stop-color="#A855F7"/>
<stop offset="1" stop-color="#3B82F6"/>
</linearGradient>
<linearGradient id="paint7_linear_160_2889" x1="53.3943" y1="98.932" x2="81.8049" y2="166.863" gradientUnits="userSpaceOnUse">
<stop offset="0%" stop-color="#A855F7"/>
<stop offset="1" stop-color="#3B82F6"/>
</linearGradient>
<linearGradient id="paint8_linear_160_2889" x1="205" y1="129" x2="5" y2="129" gradientUnits="userSpaceOnUse">
<stop offset="0%" stop-color="white" stop-opacity="0"/>
<stop offset="0.185417" stop-color="white" stop-opacity="0.1"/>
<stop offset="0.826042" stop-color="white" stop-opacity="0.1"/>
<stop offset="1" stop-color="white" stop-opacity="0"/>
</linearGradient>
<linearGradient id="paint9_linear_160_2889" x1="199.899" y1="134" x2="10" y2="134" gradientUnits="userSpaceOnUse">
<stop offset="0%" stop-color="white" stop-opacity="0"/>
<stop offset="0.185417" stop-color="white" stop-opacity="0.1"/>
<stop offset="0.826042" stop-color="white" stop-opacity="0.1"/>
<stop offset="1" stop-color="white" stop-opacity="0"/>
</linearGradient>
</defs>
</svg>
