<svg width="208" height="158" viewBox="0 0 208 158" fill="none" xmlns="http://www.w3.org/2000/svg">
<path d="M33 153L33 5" stroke="url(#paint0_linear_160_3052)"/>
<path d="M38 158L38 -5.24521e-06" stroke="url(#paint1_linear_160_3052)"/>
<path d="M170 0L170 158" stroke="url(#paint2_linear_160_3052)"/>
<path d="M175 5L175 153" stroke="url(#paint3_linear_160_3052)"/>
<path d="M10 22.5H198" stroke="url(#paint4_linear_160_3052)"/>
<path d="M5 27.5H203" stroke="url(#paint5_linear_160_3052)"/>
<g filter="url(#filter0_d_160_3052)">
<path d="M39 33.5C39 30.1863 41.6863 27.5 45 27.5H163C166.314 27.5 169 30.1863 169 33.5V49.5C169 52.8137 166.314 55.5 163 55.5H45C41.6863 55.5 39 52.8137 39 49.5V33.5Z" fill="url(#paint6_linear_160_3052)"/>
<path d="M49.6392 44.5V38.6818H53.2472V39.4375H50.517V41.2102H52.9886V41.9631H50.517V44.5H49.6392ZM54.2585 44.5V40.1364H55.108V44.5H54.2585ZM54.6875 39.4631C54.5398 39.4631 54.4129 39.4138 54.3068 39.3153C54.2027 39.215 54.1506 39.0956 54.1506 38.9574C54.1506 38.8172 54.2027 38.6979 54.3068 38.5994C54.4129 38.4991 54.5398 38.4489 54.6875 38.4489C54.8352 38.4489 54.9612 38.4991 55.0653 38.5994C55.1714 38.6979 55.2244 38.8172 55.2244 38.9574C55.2244 39.0956 55.1714 39.215 55.0653 39.3153C54.9612 39.4138 54.8352 39.4631 54.6875 39.4631ZM57.1001 38.6818V44.5H56.2507V38.6818H57.1001ZM60.2798 40.1364V40.8182H57.8963V40.1364H60.2798ZM58.5355 39.0909H59.3849V43.2188C59.3849 43.3835 59.4096 43.5076 59.4588 43.5909C59.508 43.6723 59.5715 43.7282 59.6491 43.7585C59.7287 43.7869 59.8149 43.8011 59.9077 43.8011C59.9759 43.8011 60.0355 43.7964 60.0866 43.7869C60.1378 43.7775 60.1776 43.7699 60.206 43.7642L60.3594 44.4659C60.3101 44.4848 60.2401 44.5038 60.1491 44.5227C60.0582 44.5436 59.9446 44.5549 59.8082 44.5568C59.5848 44.5606 59.3764 44.5208 59.1832 44.4375C58.9901 44.3542 58.8338 44.2254 58.7145 44.0511C58.5952 43.8769 58.5355 43.6581 58.5355 43.3949V39.0909ZM63.0533 44.5881C62.6233 44.5881 62.2531 44.4962 61.9425 44.3125C61.6338 44.1269 61.3951 43.8665 61.2266 43.5312C61.0599 43.1941 60.9766 42.7992 60.9766 42.3466C60.9766 41.8996 61.0599 41.5057 61.2266 41.1648C61.3951 40.8239 61.63 40.5578 61.9311 40.3665C62.2341 40.1752 62.5883 40.0795 62.9936 40.0795C63.2398 40.0795 63.4785 40.1203 63.7095 40.2017C63.9406 40.2831 64.148 40.411 64.3317 40.5852C64.5154 40.7595 64.6603 40.9858 64.7663 41.2642C64.8724 41.5407 64.9254 41.8769 64.9254 42.2727V42.5739H61.4567V41.9375H64.093C64.093 41.714 64.0476 41.5161 63.9567 41.3438C63.8658 41.1695 63.7379 41.0322 63.5732 40.9318C63.4103 40.8314 63.219 40.7812 62.9993 40.7812C62.7607 40.7812 62.5523 40.84 62.3743 40.9574C62.1982 41.0729 62.0618 41.2244 61.9652 41.4119C61.8705 41.5975 61.8232 41.7992 61.8232 42.017V42.5142C61.8232 42.8059 61.8743 43.054 61.9766 43.2585C62.0807 43.4631 62.2256 43.6193 62.4112 43.7273C62.5968 43.8333 62.8137 43.8864 63.0618 43.8864C63.2228 43.8864 63.3696 43.8636 63.5021 43.8182C63.6347 43.7708 63.7493 43.7008 63.8459 43.608C63.9425 43.5152 64.0163 43.4006 64.0675 43.2642L64.8714 43.4091C64.8071 43.6458 64.6915 43.8532 64.5249 44.0312C64.3601 44.2074 64.1527 44.3447 63.9027 44.4432C63.6546 44.5398 63.3714 44.5881 63.0533 44.5881ZM65.8679 44.5V40.1364H66.6889V40.8295H66.7344C66.8139 40.5947 66.9541 40.41 67.1548 40.2756C67.3575 40.1392 67.5866 40.071 67.8423 40.071C67.8954 40.071 67.9579 40.0729 68.0298 40.0767C68.1037 40.0805 68.1615 40.0852 68.2031 40.0909V40.9034C68.169 40.8939 68.1084 40.8835 68.0213 40.8722C67.9342 40.8589 67.8471 40.8523 67.7599 40.8523C67.5592 40.8523 67.3802 40.8949 67.223 40.9801C67.0677 41.0634 66.9446 41.1799 66.8537 41.3295C66.7628 41.4773 66.7173 41.6458 66.7173 41.8352V44.5H65.8679Z" fill="white"/>
<path d="M74 41.5C74 38.1863 76.6863 35.5 80 35.5H83C86.3137 35.5 89 38.1863 89 41.5V41.5C89 44.8137 86.3137 47.5 83 47.5H80C76.6863 47.5 74 44.8137 74 41.5V41.5Z" fill="white"/>
<path d="M79.9197 43.5V43.0227L81.3963 41.4929C81.554 41.3267 81.6839 41.1811 81.7862 41.0561C81.8899 40.9297 81.9673 40.8097 82.0185 40.696C82.0696 40.5824 82.0952 40.4616 82.0952 40.3338C82.0952 40.1889 82.0611 40.0639 81.9929 39.9588C81.9247 39.8523 81.8317 39.7706 81.7138 39.7138C81.5959 39.6555 81.4631 39.6264 81.3153 39.6264C81.1591 39.6264 81.0227 39.6584 80.9062 39.7223C80.7898 39.7862 80.7003 39.8764 80.6378 39.9929C80.5753 40.1094 80.544 40.2457 80.544 40.402H79.9155C79.9155 40.1364 79.9766 39.9041 80.0987 39.7053C80.2209 39.5064 80.3885 39.3523 80.6016 39.2429C80.8146 39.1321 81.0568 39.0767 81.3281 39.0767C81.6023 39.0767 81.8438 39.1314 82.0526 39.2408C82.2628 39.3487 82.4268 39.4964 82.5447 39.6839C82.6626 39.87 82.7216 40.0803 82.7216 40.3146C82.7216 40.4766 82.6911 40.6349 82.63 40.7898C82.5703 40.9446 82.4659 41.1172 82.3168 41.3075C82.1676 41.4964 81.9602 41.7259 81.6946 41.9957L80.8274 42.9034V42.9354H82.7919V43.5H79.9197Z" fill="#1F2937"/>
<path d="M155 40.5L157 42.5L159 40.5" stroke="white" stroke-linecap="round"/>
</g>
<g filter="url(#filter1_d_160_3052)">
<path d="M39 67.5C39 64.1863 41.6863 61.5 45 61.5H163C166.314 61.5 169 64.1863 169 67.5V125.5C169 128.814 166.314 131.5 163 131.5H45C41.6863 131.5 39 128.814 39 125.5V67.5Z" fill="url(#paint7_linear_160_3052)"/>
<path d="M54.3352 71.6818V77.5H53.5284L50.571 73.233H50.517V77.5H49.6392V71.6818H50.4517L53.4119 75.9545H53.4659V71.6818H54.3352ZM56.8175 77.5966C56.541 77.5966 56.291 77.5455 56.0675 77.4432C55.844 77.339 55.6669 77.1884 55.5362 76.9915C55.4074 76.7945 55.343 76.553 55.343 76.267C55.343 76.0208 55.3904 75.8182 55.4851 75.6591C55.5798 75.5 55.7076 75.3741 55.8686 75.2812C56.0296 75.1884 56.2095 75.1184 56.4084 75.071C56.6072 75.0237 56.8099 74.9877 57.0163 74.9631C57.2777 74.9328 57.4898 74.9081 57.6527 74.8892C57.8156 74.8684 57.9339 74.8352 58.0078 74.7898C58.0817 74.7443 58.1186 74.6705 58.1186 74.5682V74.5483C58.1186 74.3002 58.0485 74.108 57.9084 73.9716C57.7701 73.8352 57.5637 73.767 57.2891 73.767C57.0031 73.767 56.7777 73.8305 56.6129 73.9574C56.45 74.0824 56.3374 74.2216 56.2749 74.375L55.4766 74.1932C55.5713 73.928 55.7095 73.714 55.8913 73.5511C56.075 73.3864 56.2862 73.267 56.5249 73.1932C56.7635 73.1174 57.0144 73.0795 57.2777 73.0795C57.4519 73.0795 57.6366 73.1004 57.8317 73.142C58.0286 73.1818 58.2124 73.2557 58.3828 73.3636C58.5552 73.4716 58.6963 73.6259 58.8061 73.8267C58.916 74.0256 58.9709 74.2841 58.9709 74.6023V77.5H58.1413V76.9034H58.1072C58.0523 77.0133 57.9699 77.1212 57.8601 77.2273C57.7502 77.3333 57.6091 77.4214 57.4368 77.4915C57.2644 77.5616 57.058 77.5966 56.8175 77.5966ZM57.0021 76.9148C57.237 76.9148 57.4377 76.8684 57.6044 76.7756C57.773 76.6828 57.9008 76.5616 57.9879 76.4119C58.0769 76.2604 58.1214 76.0985 58.1214 75.9261V75.3636C58.0911 75.3939 58.0324 75.4223 57.9453 75.4489C57.8601 75.4735 57.7625 75.4953 57.6527 75.5142C57.5429 75.5312 57.4358 75.5473 57.3317 75.5625C57.2275 75.5758 57.1404 75.5871 57.0703 75.5966C56.9055 75.6174 56.755 75.6525 56.6186 75.7017C56.4841 75.7509 56.3762 75.822 56.2947 75.9148C56.2152 76.0057 56.1754 76.1269 56.1754 76.2784C56.1754 76.4886 56.2531 76.6477 56.4084 76.7557C56.5637 76.8617 56.7616 76.9148 57.0021 76.9148ZM60.1023 77.5V73.1364H60.9176V73.8466H60.9716C61.0625 73.6061 61.2112 73.4186 61.4176 73.2841C61.6241 73.1477 61.8712 73.0795 62.1591 73.0795C62.4508 73.0795 62.6951 73.1477 62.892 73.2841C63.0909 73.4205 63.2377 73.608 63.3324 73.8466H63.3778C63.482 73.6136 63.6477 73.428 63.875 73.2898C64.1023 73.1496 64.3731 73.0795 64.6875 73.0795C65.0833 73.0795 65.4062 73.2036 65.6562 73.4517C65.9081 73.6998 66.0341 74.0739 66.0341 74.5739V77.5H65.1847V74.6534C65.1847 74.358 65.1042 74.1439 64.9432 74.0114C64.7822 73.8788 64.59 73.8125 64.3665 73.8125C64.09 73.8125 63.875 73.8977 63.7216 74.0682C63.5682 74.2367 63.4915 74.4536 63.4915 74.7188V77.5H62.6449V74.5994C62.6449 74.3627 62.571 74.1723 62.4233 74.0284C62.2756 73.8845 62.0833 73.8125 61.8466 73.8125C61.6856 73.8125 61.5369 73.8551 61.4006 73.9403C61.2661 74.0237 61.1572 74.1402 61.0739 74.2898C60.9924 74.4394 60.9517 74.6127 60.9517 74.8097V77.5H60.1023ZM69.0533 77.5881C68.6233 77.5881 68.2531 77.4962 67.9425 77.3125C67.6338 77.1269 67.3951 76.8665 67.2266 76.5312C67.0599 76.1941 66.9766 75.7992 66.9766 75.3466C66.9766 74.8996 67.0599 74.5057 67.2266 74.1648C67.3951 73.8239 67.63 73.5578 67.9311 73.3665C68.2341 73.1752 68.5883 73.0795 68.9936 73.0795C69.2398 73.0795 69.4785 73.1203 69.7095 73.2017C69.9406 73.2831 70.148 73.411 70.3317 73.5852C70.5154 73.7595 70.6603 73.9858 70.7663 74.2642C70.8724 74.5407 70.9254 74.8769 70.9254 75.2727V75.5739H67.4567V74.9375H70.093C70.093 74.714 70.0476 74.5161 69.9567 74.3438C69.8658 74.1695 69.7379 74.0322 69.5732 73.9318C69.4103 73.8314 69.219 73.7812 68.9993 73.7812C68.7607 73.7812 68.5523 73.84 68.3743 73.9574C68.1982 74.0729 68.0618 74.2244 67.9652 74.4119C67.8705 74.5975 67.8232 74.7992 67.8232 75.017V75.5142C67.8232 75.8059 67.8743 76.054 67.9766 76.2585C68.0807 76.4631 68.2256 76.6193 68.4112 76.7273C68.5968 76.8333 68.8137 76.8864 69.0618 76.8864C69.2228 76.8864 69.3696 76.8636 69.5021 76.8182C69.6347 76.7708 69.7493 76.7008 69.8459 76.608C69.9425 76.5152 70.0163 76.4006 70.0675 76.2642L70.8714 76.4091C70.8071 76.6458 70.6915 76.8532 70.5249 77.0312C70.3601 77.2074 70.1527 77.3447 69.9027 77.4432C69.6546 77.5398 69.3714 77.5881 69.0533 77.5881Z" fill="white"/>
<path d="M156.96 71.9813C157.002 71.9377 157.053 71.9032 157.109 71.8796C157.166 71.856 157.226 71.8438 157.287 71.8438C157.348 71.8438 157.408 71.856 157.464 71.8796C157.52 71.9032 157.571 71.9377 157.614 71.9813C157.793 72.1619 157.795 72.4538 157.62 72.6375L153.925 77.0063C153.883 77.0523 153.832 77.0894 153.775 77.1151C153.718 77.1408 153.657 77.1547 153.595 77.1558C153.532 77.157 153.47 77.1455 153.413 77.1219C153.355 77.0983 153.303 77.0632 153.259 77.0188L151.01 74.74C150.924 74.6516 150.875 74.5326 150.875 74.4088C150.875 74.2849 150.924 74.166 151.01 74.0775C151.053 74.034 151.104 73.9994 151.16 73.9758C151.216 73.9522 151.277 73.94 151.337 73.94C151.398 73.94 151.459 73.9522 151.515 73.9758C151.571 73.9994 151.622 74.034 151.665 74.0775L153.572 76.0106L156.947 71.995C156.951 71.9902 156.955 71.9856 156.96 71.9813Z" fill="white"/>
<path d="M49.6392 99.5V93.6818H53.2869V94.4375H50.517V96.2102H53.0966V96.9631H50.517V98.7443H53.321V99.5H49.6392ZM54.3913 99.5V95.1364H55.2067V95.8466H55.2607C55.3516 95.6061 55.5002 95.4186 55.7067 95.2841C55.9131 95.1477 56.1603 95.0795 56.4482 95.0795C56.7398 95.0795 56.9841 95.1477 57.1811 95.2841C57.38 95.4205 57.5268 95.608 57.6214 95.8466H57.6669C57.7711 95.6136 57.9368 95.428 58.1641 95.2898C58.3913 95.1496 58.6622 95.0795 58.9766 95.0795C59.3724 95.0795 59.6953 95.2036 59.9453 95.4517C60.1972 95.6998 60.3232 96.0739 60.3232 96.5739V99.5H59.4737V96.6534C59.4737 96.358 59.3932 96.1439 59.2322 96.0114C59.0713 95.8788 58.879 95.8125 58.6555 95.8125C58.379 95.8125 58.1641 95.8977 58.0107 96.0682C57.8572 96.2367 57.7805 96.4536 57.7805 96.7188V99.5H56.9339V96.5994C56.9339 96.3627 56.8601 96.1723 56.7124 96.0284C56.5646 95.8845 56.3724 95.8125 56.1357 95.8125C55.9747 95.8125 55.826 95.8551 55.6896 95.9403C55.5552 96.0237 55.4463 96.1402 55.3629 96.2898C55.2815 96.4394 55.2408 96.6127 55.2408 96.8097V99.5H54.3913ZM62.7315 99.5966C62.455 99.5966 62.205 99.5455 61.9815 99.4432C61.758 99.339 61.581 99.1884 61.4503 98.9915C61.3215 98.7945 61.2571 98.553 61.2571 98.267C61.2571 98.0208 61.3045 97.8182 61.3991 97.6591C61.4938 97.5 61.6217 97.3741 61.7827 97.2812C61.9437 97.1884 62.1236 97.1184 62.3224 97.071C62.5213 97.0237 62.724 96.9877 62.9304 96.9631C63.1918 96.9328 63.4039 96.9081 63.5668 96.8892C63.7296 96.8684 63.848 96.8352 63.9219 96.7898C63.9957 96.7443 64.0327 96.6705 64.0327 96.5682V96.5483C64.0327 96.3002 63.9626 96.108 63.8224 95.9716C63.6842 95.8352 63.4777 95.767 63.2031 95.767C62.9171 95.767 62.6918 95.8305 62.527 95.9574C62.3641 96.0824 62.2514 96.2216 62.1889 96.375L61.3906 96.1932C61.4853 95.928 61.6236 95.714 61.8054 95.5511C61.9891 95.3864 62.2003 95.267 62.4389 95.1932C62.6776 95.1174 62.9285 95.0795 63.1918 95.0795C63.366 95.0795 63.5507 95.1004 63.7457 95.142C63.9427 95.1818 64.1264 95.2557 64.2969 95.3636C64.4692 95.4716 64.6103 95.6259 64.7202 95.8267C64.83 96.0256 64.8849 96.2841 64.8849 96.6023V99.5H64.0554V98.9034H64.0213C63.9664 99.0133 63.884 99.1212 63.7741 99.2273C63.6643 99.3333 63.5232 99.4214 63.3509 99.4915C63.1785 99.5616 62.9721 99.5966 62.7315 99.5966ZM62.9162 98.9148C63.151 98.9148 63.3518 98.8684 63.5185 98.7756C63.687 98.6828 63.8149 98.5616 63.902 98.4119C63.991 98.2604 64.0355 98.0985 64.0355 97.9261V97.3636C64.0052 97.3939 63.9465 97.4223 63.8594 97.4489C63.7741 97.4735 63.6766 97.4953 63.5668 97.5142C63.4569 97.5312 63.3499 97.5473 63.2457 97.5625C63.1416 97.5758 63.0545 97.5871 62.9844 97.5966C62.8196 97.6174 62.669 97.6525 62.5327 97.7017C62.3982 97.7509 62.2902 97.822 62.2088 97.9148C62.1293 98.0057 62.0895 98.1269 62.0895 98.2784C62.0895 98.4886 62.1671 98.6477 62.3224 98.7557C62.4777 98.8617 62.6757 98.9148 62.9162 98.9148ZM66.0163 99.5V95.1364H66.8658V99.5H66.0163ZM66.4453 94.4631C66.2976 94.4631 66.1707 94.4138 66.0646 94.3153C65.9605 94.215 65.9084 94.0956 65.9084 93.9574C65.9084 93.8172 65.9605 93.6979 66.0646 93.5994C66.1707 93.4991 66.2976 93.4489 66.4453 93.4489C66.593 93.4489 66.719 93.4991 66.8232 93.5994C66.9292 93.6979 66.9822 93.8172 66.9822 93.9574C66.9822 94.0956 66.9292 94.215 66.8232 94.3153C66.719 94.4138 66.593 94.4631 66.4453 94.4631ZM68.858 93.6818V99.5H68.0085V93.6818H68.858ZM73.3878 99.5966C73.1113 99.5966 72.8613 99.5455 72.6378 99.4432C72.4143 99.339 72.2372 99.1884 72.1065 98.9915C71.9777 98.7945 71.9134 98.553 71.9134 98.267C71.9134 98.0208 71.9607 97.8182 72.0554 97.6591C72.1501 97.5 72.2779 97.3741 72.4389 97.2812C72.5999 97.1884 72.7798 97.1184 72.9787 97.071C73.1776 97.0237 73.3802 96.9877 73.5866 96.9631C73.848 96.9328 74.0601 96.9081 74.223 96.8892C74.3859 96.8684 74.5043 96.8352 74.5781 96.7898C74.652 96.7443 74.6889 96.6705 74.6889 96.5682V96.5483C74.6889 96.3002 74.6188 96.108 74.4787 95.9716C74.3404 95.8352 74.134 95.767 73.8594 95.767C73.5734 95.767 73.348 95.8305 73.1832 95.9574C73.0204 96.0824 72.9077 96.2216 72.8452 96.375L72.0469 96.1932C72.1416 95.928 72.2798 95.714 72.4616 95.5511C72.6454 95.3864 72.8565 95.267 73.0952 95.1932C73.3338 95.1174 73.5848 95.0795 73.848 95.0795C74.0223 95.0795 74.2069 95.1004 74.402 95.142C74.599 95.1818 74.7827 95.2557 74.9531 95.3636C75.1255 95.4716 75.2666 95.6259 75.3764 95.8267C75.4863 96.0256 75.5412 96.2841 75.5412 96.6023V99.5H74.7116V98.9034H74.6776C74.6226 99.0133 74.5402 99.1212 74.4304 99.2273C74.3205 99.3333 74.1795 99.4214 74.0071 99.4915C73.8348 99.5616 73.6283 99.5966 73.3878 99.5966ZM73.5724 98.9148C73.8073 98.9148 74.008 98.8684 74.1747 98.7756C74.3433 98.6828 74.4711 98.5616 74.5582 98.4119C74.6473 98.2604 74.6918 98.0985 74.6918 97.9261V97.3636C74.6615 97.3939 74.6027 97.4223 74.5156 97.4489C74.4304 97.4735 74.3329 97.4953 74.223 97.5142C74.1132 97.5312 74.0062 97.5473 73.902 97.5625C73.7978 97.5758 73.7107 97.5871 73.6406 97.5966C73.4759 97.6174 73.3253 97.6525 73.1889 97.7017C73.0545 97.7509 72.9465 97.822 72.8651 97.9148C72.7855 98.0057 72.7457 98.1269 72.7457 98.2784C72.7457 98.4886 72.8234 98.6477 72.9787 98.7557C73.134 98.8617 73.3319 98.9148 73.5724 98.9148ZM78.3061 99.5852C77.9538 99.5852 77.6394 99.4953 77.3629 99.3153C77.0883 99.1335 76.8724 98.875 76.7152 98.5398C76.5599 98.2027 76.4822 97.7983 76.4822 97.3267C76.4822 96.8551 76.5608 96.4517 76.718 96.1165C76.8771 95.7812 77.0949 95.5246 77.3714 95.3466C77.648 95.1686 77.9614 95.0795 78.3118 95.0795C78.5826 95.0795 78.8004 95.125 78.9652 95.2159C79.1319 95.3049 79.2607 95.4091 79.3516 95.5284C79.4444 95.6477 79.5163 95.7528 79.5675 95.8438H79.6186V93.6818H80.468V99.5H79.6385V98.821H79.5675C79.5163 98.9138 79.4425 99.0199 79.3459 99.1392C79.2512 99.2585 79.1205 99.3627 78.9538 99.4517C78.7872 99.5407 78.5713 99.5852 78.3061 99.5852ZM78.4936 98.8608C78.7379 98.8608 78.9444 98.7964 79.1129 98.6676C79.2834 98.5369 79.4122 98.3561 79.4993 98.125C79.5883 97.8939 79.6328 97.625 79.6328 97.3182C79.6328 97.0152 79.5893 96.75 79.5021 96.5227C79.415 96.2955 79.2872 96.1184 79.1186 95.9915C78.95 95.8646 78.7417 95.8011 78.4936 95.8011C78.2379 95.8011 78.0249 95.8674 77.8544 96C77.6839 96.1326 77.5552 96.3134 77.468 96.5426C77.3828 96.7718 77.3402 97.0303 77.3402 97.3182C77.3402 97.6098 77.3838 97.8722 77.4709 98.1051C77.558 98.3381 77.6868 98.5227 77.8572 98.6591C78.0296 98.7936 78.2417 98.8608 78.4936 98.8608ZM83.3139 99.5852C82.9616 99.5852 82.6473 99.4953 82.3707 99.3153C82.0961 99.1335 81.8802 98.875 81.723 98.5398C81.5677 98.2027 81.4901 97.7983 81.4901 97.3267C81.4901 96.8551 81.5687 96.4517 81.7259 96.1165C81.8849 95.7812 82.1027 95.5246 82.3793 95.3466C82.6558 95.1686 82.9692 95.0795 83.3196 95.0795C83.5904 95.0795 83.8082 95.125 83.973 95.2159C84.1397 95.3049 84.2685 95.4091 84.3594 95.5284C84.4522 95.6477 84.5241 95.7528 84.5753 95.8438H84.6264V93.6818H85.4759V99.5H84.6463V98.821H84.5753C84.5241 98.9138 84.4503 99.0199 84.3537 99.1392C84.259 99.2585 84.1283 99.3627 83.9616 99.4517C83.795 99.5407 83.5791 99.5852 83.3139 99.5852ZM83.5014 98.8608C83.7457 98.8608 83.9522 98.7964 84.1207 98.6676C84.2912 98.5369 84.42 98.3561 84.5071 98.125C84.5961 97.8939 84.6406 97.625 84.6406 97.3182C84.6406 97.0152 84.5971 96.75 84.5099 96.5227C84.4228 96.2955 84.295 96.1184 84.1264 95.9915C83.9579 95.8646 83.7495 95.8011 83.5014 95.8011C83.2457 95.8011 83.0327 95.8674 82.8622 96C82.6918 96.1326 82.563 96.3134 82.4759 96.5426C82.3906 96.7718 82.348 97.0303 82.348 97.3182C82.348 97.6098 82.3916 97.8722 82.4787 98.1051C82.5658 98.3381 82.6946 98.5227 82.8651 98.6591C83.0374 98.7936 83.2495 98.8608 83.5014 98.8608ZM86.6882 99.5V95.1364H87.5092V95.8295H87.5547C87.6342 95.5947 87.7744 95.41 87.9751 95.2756C88.1778 95.1392 88.407 95.071 88.6626 95.071C88.7157 95.071 88.7782 95.0729 88.8501 95.0767C88.924 95.0805 88.9818 95.0852 89.0234 95.0909V95.9034C88.9893 95.8939 88.9287 95.8835 88.8416 95.8722C88.7545 95.8589 88.6674 95.8523 88.5803 95.8523C88.3795 95.8523 88.2005 95.8949 88.0433 95.9801C87.888 96.0634 87.7649 96.1799 87.674 96.3295C87.5831 96.4773 87.5376 96.6458 87.5376 96.8352V99.5H86.6882ZM91.483 99.5881C91.053 99.5881 90.6828 99.4962 90.3722 99.3125C90.0634 99.1269 89.8248 98.8665 89.6562 98.5312C89.4896 98.1941 89.4062 97.7992 89.4062 97.3466C89.4062 96.8996 89.4896 96.5057 89.6562 96.1648C89.8248 95.8239 90.0597 95.5578 90.3608 95.3665C90.6638 95.1752 91.018 95.0795 91.4233 95.0795C91.6695 95.0795 91.9081 95.1203 92.1392 95.2017C92.3703 95.2831 92.5777 95.411 92.7614 95.5852C92.9451 95.7595 93.09 95.9858 93.196 96.2642C93.3021 96.5407 93.3551 96.8769 93.3551 97.2727V97.5739H89.8864V96.9375H92.5227C92.5227 96.714 92.4773 96.5161 92.3864 96.3438C92.2955 96.1695 92.1676 96.0322 92.0028 95.9318C91.84 95.8314 91.6487 95.7812 91.429 95.7812C91.1903 95.7812 90.982 95.84 90.804 95.9574C90.6278 96.0729 90.4915 96.2244 90.3949 96.4119C90.3002 96.5975 90.2528 96.7992 90.2528 97.017V97.5142C90.2528 97.8059 90.304 98.054 90.4062 98.2585C90.5104 98.4631 90.6553 98.6193 90.8409 98.7273C91.0265 98.8333 91.2434 98.8864 91.4915 98.8864C91.6525 98.8864 91.7992 98.8636 91.9318 98.8182C92.0644 98.7708 92.179 98.7008 92.2756 98.608C92.3722 98.5152 92.446 98.4006 92.4972 98.2642L93.3011 98.4091C93.2367 98.6458 93.1212 98.8532 92.9545 99.0312C92.7898 99.2074 92.5824 99.3447 92.3324 99.4432C92.0843 99.5398 91.8011 99.5881 91.483 99.5881ZM97.5675 96.2017L96.7976 96.3381C96.7654 96.2396 96.7143 96.1458 96.6442 96.0568C96.576 95.9678 96.4832 95.8949 96.3658 95.8381C96.2483 95.7812 96.1016 95.7528 95.9254 95.7528C95.6849 95.7528 95.4841 95.8068 95.3232 95.9148C95.1622 96.0208 95.0817 96.1581 95.0817 96.3267C95.0817 96.4725 95.1357 96.59 95.2436 96.679C95.3516 96.768 95.5258 96.8409 95.7663 96.8977L96.4595 97.0568C96.861 97.1496 97.1603 97.2926 97.3572 97.4858C97.5542 97.679 97.6527 97.9299 97.6527 98.2386C97.6527 98.5 97.5769 98.733 97.4254 98.9375C97.2758 99.1402 97.0665 99.2992 96.7976 99.4148C96.5305 99.5303 96.2209 99.5881 95.8686 99.5881C95.38 99.5881 94.9813 99.4839 94.6726 99.2756C94.3639 99.0653 94.1745 98.767 94.1044 98.3807L94.9254 98.2557C94.9766 98.4697 95.0817 98.6316 95.2408 98.7415C95.3999 98.8494 95.6072 98.9034 95.8629 98.9034C96.1413 98.9034 96.3639 98.8456 96.5305 98.7301C96.6972 98.6127 96.7805 98.4697 96.7805 98.3011C96.7805 98.1648 96.7294 98.0502 96.6271 97.9574C96.5268 97.8646 96.3724 97.7945 96.1641 97.7472L95.4254 97.5852C95.0182 97.4924 94.7171 97.3447 94.522 97.142C94.3288 96.9394 94.2322 96.6828 94.2322 96.3722C94.2322 96.1146 94.3042 95.8892 94.4482 95.696C94.5921 95.5028 94.791 95.3523 95.0447 95.2443C95.2985 95.1345 95.5893 95.0795 95.9169 95.0795C96.3885 95.0795 96.7597 95.1818 97.0305 95.3864C97.3014 95.589 97.4804 95.8608 97.5675 96.2017ZM101.857 96.2017L101.087 96.3381C101.054 96.2396 101.003 96.1458 100.933 96.0568C100.865 95.9678 100.772 95.8949 100.655 95.8381C100.537 95.7812 100.391 95.7528 100.214 95.7528C99.974 95.7528 99.7732 95.8068 99.6122 95.9148C99.4512 96.0208 99.3707 96.1581 99.3707 96.3267C99.3707 96.4725 99.4247 96.59 99.5327 96.679C99.6406 96.768 99.8149 96.8409 100.055 96.8977L100.749 97.0568C101.15 97.1496 101.449 97.2926 101.646 97.4858C101.843 97.679 101.942 97.9299 101.942 98.2386C101.942 98.5 101.866 98.733 101.714 98.9375C101.565 99.1402 101.356 99.2992 101.087 99.4148C100.82 99.5303 100.51 99.5881 100.158 99.5881C99.669 99.5881 99.2704 99.4839 98.9616 99.2756C98.6529 99.0653 98.4635 98.767 98.3935 98.3807L99.2145 98.2557C99.2656 98.4697 99.3707 98.6316 99.5298 98.7415C99.6889 98.8494 99.8963 98.9034 100.152 98.9034C100.43 98.9034 100.653 98.8456 100.82 98.7301C100.986 98.6127 101.07 98.4697 101.07 98.3011C101.07 98.1648 101.018 98.0502 100.916 97.9574C100.816 97.8646 100.661 97.7945 100.453 97.7472L99.7145 97.5852C99.3073 97.4924 99.0062 97.3447 98.8111 97.142C98.6179 96.9394 98.5213 96.6828 98.5213 96.3722C98.5213 96.1146 98.5933 95.8892 98.7372 95.696C98.8812 95.5028 99.08 95.3523 99.3338 95.2443C99.5876 95.1345 99.8783 95.0795 100.206 95.0795C100.678 95.0795 101.049 95.1818 101.32 95.3864C101.59 95.589 101.769 95.8608 101.857 96.2017Z" fill="white" fill-opacity="0.5"/>
<path d="M51.5227 121.5H49.6392V115.682H51.5824C52.1525 115.682 52.642 115.798 53.0511 116.031C53.4602 116.262 53.7737 116.595 53.9915 117.028C54.2112 117.46 54.321 117.978 54.321 118.582C54.321 119.188 54.2102 119.709 53.9886 120.145C53.7689 120.58 53.4508 120.916 53.0341 121.151C52.6174 121.384 52.1136 121.5 51.5227 121.5ZM50.517 120.733H51.4744C51.9176 120.733 52.286 120.65 52.5795 120.483C52.8731 120.314 53.0928 120.071 53.2386 119.753C53.3845 119.433 53.4574 119.043 53.4574 118.582C53.4574 118.126 53.3845 117.739 53.2386 117.42C53.0947 117.102 52.8797 116.861 52.5938 116.696C52.3078 116.531 51.9527 116.449 51.5284 116.449H50.517V120.733ZM57.2251 121.588C56.7952 121.588 56.425 121.496 56.1143 121.312C55.8056 121.127 55.567 120.866 55.3984 120.531C55.2318 120.194 55.1484 119.799 55.1484 119.347C55.1484 118.9 55.2318 118.506 55.3984 118.165C55.567 117.824 55.8018 117.558 56.103 117.366C56.406 117.175 56.7602 117.08 57.1655 117.08C57.4117 117.08 57.6503 117.12 57.8814 117.202C58.1125 117.283 58.3198 117.411 58.5036 117.585C58.6873 117.759 58.8321 117.986 58.9382 118.264C59.0443 118.541 59.0973 118.877 59.0973 119.273V119.574H55.6286V118.938H58.2649C58.2649 118.714 58.2195 118.516 58.1286 118.344C58.0376 118.17 57.9098 118.032 57.745 117.932C57.5821 117.831 57.3909 117.781 57.1712 117.781C56.9325 117.781 56.7242 117.84 56.5462 117.957C56.37 118.073 56.2337 118.224 56.1371 118.412C56.0424 118.598 55.995 118.799 55.995 119.017V119.514C55.995 119.806 56.0462 120.054 56.1484 120.259C56.2526 120.463 56.3975 120.619 56.5831 120.727C56.7687 120.833 56.9856 120.886 57.2337 120.886C57.3946 120.886 57.5414 120.864 57.674 120.818C57.8066 120.771 57.9212 120.701 58.0178 120.608C58.1143 120.515 58.1882 120.401 58.2393 120.264L59.0433 120.409C58.9789 120.646 58.8634 120.853 58.6967 121.031C58.532 121.207 58.3246 121.345 58.0746 121.443C57.8265 121.54 57.5433 121.588 57.2251 121.588ZM63.3097 118.202L62.5398 118.338C62.5076 118.24 62.4564 118.146 62.3864 118.057C62.3182 117.968 62.2254 117.895 62.108 117.838C61.9905 117.781 61.8438 117.753 61.6676 117.753C61.4271 117.753 61.2263 117.807 61.0653 117.915C60.9044 118.021 60.8239 118.158 60.8239 118.327C60.8239 118.473 60.8778 118.59 60.9858 118.679C61.0938 118.768 61.268 118.841 61.5085 118.898L62.2017 119.057C62.6032 119.15 62.9025 119.293 63.0994 119.486C63.2964 119.679 63.3949 119.93 63.3949 120.239C63.3949 120.5 63.3191 120.733 63.1676 120.938C63.018 121.14 62.8087 121.299 62.5398 121.415C62.2727 121.53 61.9631 121.588 61.6108 121.588C61.1222 121.588 60.7235 121.484 60.4148 121.276C60.1061 121.065 59.9167 120.767 59.8466 120.381L60.6676 120.256C60.7188 120.47 60.8239 120.632 60.983 120.741C61.142 120.849 61.3494 120.903 61.6051 120.903C61.8835 120.903 62.1061 120.846 62.2727 120.73C62.4394 120.613 62.5227 120.47 62.5227 120.301C62.5227 120.165 62.4716 120.05 62.3693 119.957C62.2689 119.865 62.1146 119.795 61.9062 119.747L61.1676 119.585C60.7604 119.492 60.4593 119.345 60.2642 119.142C60.071 118.939 59.9744 118.683 59.9744 118.372C59.9744 118.115 60.0464 117.889 60.1903 117.696C60.3343 117.503 60.5331 117.352 60.7869 117.244C61.0407 117.134 61.3314 117.08 61.6591 117.08C62.1307 117.08 62.5019 117.182 62.7727 117.386C63.0436 117.589 63.2225 117.861 63.3097 118.202ZM66.1669 121.588C65.7446 121.588 65.3809 121.492 65.076 121.301C64.773 121.108 64.54 120.842 64.3771 120.503C64.2143 120.164 64.1328 119.776 64.1328 119.338C64.1328 118.895 64.2161 118.504 64.3828 118.165C64.5495 117.824 64.7843 117.558 65.0874 117.366C65.3904 117.175 65.7474 117.08 66.1584 117.08C66.4898 117.08 66.7853 117.141 67.0447 117.264C67.3042 117.385 67.5135 117.556 67.6726 117.776C67.8336 117.995 67.9292 118.252 67.9595 118.545H67.1328C67.0874 118.341 66.9832 118.165 66.8203 118.017C66.6593 117.869 66.4434 117.795 66.1726 117.795C65.9358 117.795 65.7285 117.858 65.5504 117.983C65.3743 118.106 65.237 118.282 65.1385 118.511C65.04 118.739 64.9908 119.008 64.9908 119.318C64.9908 119.636 65.0391 119.911 65.1357 120.142C65.2322 120.373 65.3686 120.552 65.5447 120.679C65.7228 120.806 65.9321 120.869 66.1726 120.869C66.3336 120.869 66.4794 120.84 66.6101 120.781C66.7427 120.721 66.8535 120.634 66.9425 120.523C67.0334 120.411 67.0968 120.277 67.1328 120.119H67.9595C67.9292 120.402 67.8374 120.653 67.6839 120.875C67.5305 121.097 67.325 121.271 67.0675 121.398C66.8118 121.525 66.5116 121.588 66.1669 121.588ZM68.8679 121.5V117.136H69.6889V117.83H69.7344C69.8139 117.595 69.9541 117.41 70.1548 117.276C70.3575 117.139 70.5866 117.071 70.8423 117.071C70.8954 117.071 70.9579 117.073 71.0298 117.077C71.1037 117.08 71.1615 117.085 71.2031 117.091V117.903C71.169 117.894 71.1084 117.884 71.0213 117.872C70.9342 117.859 70.8471 117.852 70.7599 117.852C70.5592 117.852 70.3802 117.895 70.223 117.98C70.0677 118.063 69.9446 118.18 69.8537 118.33C69.7628 118.477 69.7173 118.646 69.7173 118.835V121.5H68.8679ZM71.9382 121.5V117.136H72.7876V121.5H71.9382ZM72.3672 116.463C72.2195 116.463 72.0926 116.414 71.9865 116.315C71.8823 116.215 71.8303 116.096 71.8303 115.957C71.8303 115.817 71.8823 115.698 71.9865 115.599C72.0926 115.499 72.2195 115.449 72.3672 115.449C72.5149 115.449 72.6409 115.499 72.745 115.599C72.8511 115.698 72.9041 115.817 72.9041 115.957C72.9041 116.096 72.8511 116.215 72.745 116.315C72.6409 116.414 72.5149 116.463 72.3672 116.463ZM73.9304 123.136V117.136H74.7599V117.844H74.831C74.8802 117.753 74.9512 117.648 75.044 117.528C75.1368 117.409 75.2656 117.305 75.4304 117.216C75.5952 117.125 75.813 117.08 76.0838 117.08C76.4361 117.08 76.7505 117.169 77.027 117.347C77.3035 117.525 77.5204 117.781 77.6776 118.116C77.8366 118.452 77.9162 118.855 77.9162 119.327C77.9162 119.798 77.8376 120.203 77.6804 120.54C77.5232 120.875 77.3073 121.134 77.0327 121.315C76.758 121.495 76.4446 121.585 76.0923 121.585C75.8272 121.585 75.6103 121.541 75.4418 121.452C75.2751 121.363 75.1444 121.259 75.0497 121.139C74.955 121.02 74.8821 120.914 74.831 120.821H74.7798V123.136H73.9304ZM74.7628 119.318C74.7628 119.625 74.8073 119.894 74.8963 120.125C74.9853 120.356 75.1141 120.537 75.2827 120.668C75.4512 120.796 75.6577 120.861 75.902 120.861C76.1558 120.861 76.3679 120.794 76.5384 120.659C76.7088 120.523 76.8376 120.338 76.9247 120.105C77.0137 119.872 77.0582 119.61 77.0582 119.318C77.0582 119.03 77.0147 118.772 76.9276 118.543C76.8423 118.313 76.7135 118.133 76.5412 118C76.3707 117.867 76.1577 117.801 75.902 117.801C75.6558 117.801 75.4474 117.865 75.277 117.991C75.1084 118.118 74.9806 118.295 74.8935 118.523C74.8063 118.75 74.7628 119.015 74.7628 119.318ZM80.9048 117.136V117.818H78.5213V117.136H80.9048ZM79.1605 116.091H80.0099V120.219C80.0099 120.384 80.0346 120.508 80.0838 120.591C80.133 120.672 80.1965 120.728 80.2741 120.759C80.3537 120.787 80.4399 120.801 80.5327 120.801C80.6009 120.801 80.6605 120.796 80.7116 120.787C80.7628 120.777 80.8026 120.77 80.831 120.764L80.9844 121.466C80.9351 121.485 80.8651 121.504 80.7741 121.523C80.6832 121.544 80.5696 121.555 80.4332 121.557C80.2098 121.561 80.0014 121.521 79.8082 121.438C79.6151 121.354 79.4588 121.225 79.3395 121.051C79.2202 120.877 79.1605 120.658 79.1605 120.395V116.091ZM81.8445 121.5V117.136H82.6939V121.5H81.8445ZM82.2734 116.463C82.1257 116.463 81.9988 116.414 81.8928 116.315C81.7886 116.215 81.7365 116.096 81.7365 115.957C81.7365 115.817 81.7886 115.698 81.8928 115.599C81.9988 115.499 82.1257 115.449 82.2734 115.449C82.4212 115.449 82.5471 115.499 82.6513 115.599C82.7573 115.698 82.8104 115.817 82.8104 115.957C82.8104 116.096 82.7573 116.215 82.6513 116.315C82.5471 116.414 82.4212 116.463 82.2734 116.463ZM85.6747 121.588C85.2656 121.588 84.9086 121.494 84.6037 121.307C84.2988 121.119 84.062 120.857 83.8935 120.52C83.7249 120.183 83.6406 119.789 83.6406 119.338C83.6406 118.885 83.7249 118.49 83.8935 118.151C84.062 117.812 84.2988 117.548 84.6037 117.361C84.9086 117.173 85.2656 117.08 85.6747 117.08C86.0838 117.08 86.4408 117.173 86.7457 117.361C87.0507 117.548 87.2874 117.812 87.456 118.151C87.6245 118.49 87.7088 118.885 87.7088 119.338C87.7088 119.789 87.6245 120.183 87.456 120.52C87.2874 120.857 87.0507 121.119 86.7457 121.307C86.4408 121.494 86.0838 121.588 85.6747 121.588ZM85.6776 120.875C85.9427 120.875 86.1624 120.805 86.3366 120.665C86.5109 120.525 86.6397 120.338 86.723 120.105C86.8082 119.872 86.8509 119.616 86.8509 119.335C86.8509 119.057 86.8082 118.801 86.723 118.568C86.6397 118.333 86.5109 118.145 86.3366 118.003C86.1624 117.861 85.9427 117.79 85.6776 117.79C85.4105 117.79 85.1889 117.861 85.0128 118.003C84.8385 118.145 84.7088 118.333 84.6236 118.568C84.5402 118.801 84.4986 119.057 84.4986 119.335C84.4986 119.616 84.5402 119.872 84.6236 120.105C84.7088 120.338 84.8385 120.525 85.0128 120.665C85.1889 120.805 85.4105 120.875 85.6776 120.875ZM89.5064 118.909V121.5H88.657V117.136H89.4723V117.847H89.5263C89.6267 117.616 89.7839 117.43 89.9979 117.29C90.2138 117.15 90.4856 117.08 90.8132 117.08C91.1106 117.08 91.371 117.142 91.5945 117.267C91.8179 117.39 91.9912 117.574 92.1143 117.818C92.2375 118.062 92.299 118.365 92.299 118.724V121.5H91.4496V118.827C91.4496 118.51 91.3672 118.263 91.2024 118.085C91.0376 117.905 90.8113 117.815 90.5234 117.815C90.3265 117.815 90.1513 117.858 89.9979 117.943C89.8464 118.028 89.7261 118.153 89.6371 118.318C89.55 118.481 89.5064 118.678 89.5064 118.909Z" fill="white"/>
<path d="M156.96 115.981C157.002 115.938 157.053 115.903 157.109 115.88C157.166 115.856 157.226 115.844 157.287 115.844C157.348 115.844 157.408 115.856 157.464 115.88C157.52 115.903 157.571 115.938 157.614 115.981C157.793 116.162 157.795 116.454 157.62 116.638L153.925 121.006C153.883 121.052 153.832 121.089 153.775 121.115C153.718 121.141 153.657 121.155 153.595 121.156C153.532 121.157 153.47 121.145 153.413 121.122C153.355 121.098 153.303 121.063 153.259 121.019L151.01 118.74C150.924 118.652 150.875 118.533 150.875 118.409C150.875 118.285 150.924 118.166 151.01 118.078C151.053 118.034 151.104 117.999 151.16 117.976C151.216 117.952 151.277 117.94 151.337 117.94C151.398 117.94 151.459 117.952 151.515 117.976C151.571 117.999 151.622 118.034 151.665 118.078L153.572 120.011L156.947 115.995C156.951 115.99 156.955 115.986 156.96 115.981Z" fill="white"/>
</g>
<path d="M5 130.5H203" stroke="url(#paint8_linear_160_3052)"/>
<path d="M10 135.5H198" stroke="url(#paint9_linear_160_3052)"/>
<defs>
<filter id="filter0_d_160_3052" x="27" y="21.5" width="154" height="52" filterUnits="userSpaceOnUse" color-interpolation-filters="sRGB">
<feFlood flood-opacity="0" result="BackgroundImageFix"/>
<feColorMatrix in="SourceAlpha" type="matrix" values="0 0 0 0 0 0 0 0 0 0 0 0 0 0 0 0 0 0 127 0" result="hardAlpha"/>
<feOffset dy="6"/>
<feGaussianBlur stdDeviation="6"/>
<feComposite in2="hardAlpha" operator="out"/>
<feColorMatrix type="matrix" values="0 0 0 0 0 0 0 0 0 0 0 0 0 0 0 0 0 0 0.03 0"/>
<feBlend mode="normal" in2="BackgroundImageFix" result="effect1_dropShadow_160_3052"/>
<feBlend mode="normal" in="SourceGraphic" in2="effect1_dropShadow_160_3052" result="shape"/>
</filter>
<filter id="filter1_d_160_3052" x="27" y="55.5" width="154" height="94" filterUnits="userSpaceOnUse" color-interpolation-filters="sRGB">
<feFlood flood-opacity="0" result="BackgroundImageFix"/>
<feColorMatrix in="SourceAlpha" type="matrix" values="0 0 0 0 0 0 0 0 0 0 0 0 0 0 0 0 0 0 127 0" result="hardAlpha"/>
<feOffset dy="6"/>
<feGaussianBlur stdDeviation="6"/>
<feComposite in2="hardAlpha" operator="out"/>
<feColorMatrix type="matrix" values="0 0 0 0 0 0 0 0 0 0 0 0 0 0 0 0 0 0 0.03 0"/>
<feBlend mode="normal" in2="BackgroundImageFix" result="effect1_dropShadow_160_3052"/>
<feBlend mode="normal" in="SourceGraphic" in2="effect1_dropShadow_160_3052" result="shape"/>
</filter>
<linearGradient id="paint0_linear_160_3052" x1="33.5" y1="153" x2="33.5" y2="5" gradientUnits="userSpaceOnUse">
<stop offset="0%" stop-color="white" stop-opacity="0"/>
<stop offset="0.185417" stop-color="white" stop-opacity="0.1"/>
<stop offset="0.826042" stop-color="white" stop-opacity="0.1"/>
<stop offset="1" stop-color="white" stop-opacity="0"/>
</linearGradient>
<linearGradient id="paint1_linear_160_3052" x1="38.5" y1="158" x2="38.5" y2="-2.74062e-08" gradientUnits="userSpaceOnUse">
<stop offset="0%" stop-color="white" stop-opacity="0"/>
<stop offset="0.185417" stop-color="white" stop-opacity="0.1"/>
<stop offset="0.826042" stop-color="white" stop-opacity="0.1"/>
<stop offset="1" stop-color="white" stop-opacity="0"/>
</linearGradient>
<linearGradient id="paint2_linear_160_3052" x1="170.5" y1="2.74063e-08" x2="170.5" y2="158" gradientUnits="userSpaceOnUse">
<stop offset="0%" stop-color="white" stop-opacity="0"/>
<stop offset="0.185417" stop-color="white" stop-opacity="0.1"/>
<stop offset="0.826042" stop-color="white" stop-opacity="0.1"/>
<stop offset="1" stop-color="white" stop-opacity="0"/>
</linearGradient>
<linearGradient id="paint3_linear_160_3052" x1="175.5" y1="5" x2="175.5" y2="153" gradientUnits="userSpaceOnUse">
<stop offset="0%" stop-color="white" stop-opacity="0"/>
<stop offset="0.185417" stop-color="white" stop-opacity="0.1"/>
<stop offset="0.826042" stop-color="white" stop-opacity="0.1"/>
<stop offset="1" stop-color="white" stop-opacity="0"/>
</linearGradient>
<linearGradient id="paint4_linear_160_3052" x1="199.899" y1="23" x2="10" y2="22.9999" gradientUnits="userSpaceOnUse">
<stop offset="0%" stop-color="white" stop-opacity="0"/>
<stop offset="0.185417" stop-color="white" stop-opacity="0.1"/>
<stop offset="0.826042" stop-color="white" stop-opacity="0.1"/>
<stop offset="1" stop-color="white" stop-opacity="0"/>
</linearGradient>
<linearGradient id="paint5_linear_160_3052" x1="205" y1="28" x2="5" y2="27.9999" gradientUnits="userSpaceOnUse">
<stop offset="0%" stop-color="white" stop-opacity="0"/>
<stop offset="0.185417" stop-color="white" stop-opacity="0.1"/>
<stop offset="0.826042" stop-color="white" stop-opacity="0.1"/>
<stop offset="1" stop-color="white" stop-opacity="0"/>
</linearGradient>
<linearGradient id="paint6_linear_160_3052" x1="58.3143" y1="30.412" x2="81.371" y2="89.0689" gradientUnits="userSpaceOnUse">
<stop offset="0%" stop-color="#A855F7"/>
<stop offset="1" stop-color="#3B82F6"/>
</linearGradient>
<linearGradient id="paint7_linear_160_3052" x1="58.3143" y1="68.78" x2="142.951" y2="154.908" gradientUnits="userSpaceOnUse">
<stop offset="0%" stop-color="#A855F7"/>
<stop offset="1" stop-color="#3B82F6"/>
</linearGradient>
<linearGradient id="paint8_linear_160_3052" x1="205" y1="131" x2="5" y2="131" gradientUnits="userSpaceOnUse">
<stop offset="0%" stop-color="white" stop-opacity="0"/>
<stop offset="0.185417" stop-color="white" stop-opacity="0.1"/>
<stop offset="0.826042" stop-color="white" stop-opacity="0.1"/>
<stop offset="1" stop-color="white" stop-opacity="0"/>
</linearGradient>
<linearGradient id="paint9_linear_160_3052" x1="199.899" y1="136" x2="10" y2="136" gradientUnits="userSpaceOnUse">
<stop offset="0%" stop-color="white" stop-opacity="0"/>
<stop offset="0.185417" stop-color="white" stop-opacity="0.1"/>
<stop offset="0.826042" stop-color="white" stop-opacity="0.1"/>
<stop offset="1" stop-color="white" stop-opacity="0"/>
</linearGradient>
</defs>
</svg>
