<svg width="208" height="158" viewBox="0 0 208 158" fill="none" xmlns="http://www.w3.org/2000/svg">
<path d="M33.5 153L33.5 5" stroke="url(#paint0_linear_160_2915)"/>
<path d="M38.5 158L38.5 -5.24521e-06" stroke="url(#paint1_linear_160_2915)"/>
<path d="M169.5 0L169.5 158" stroke="url(#paint2_linear_160_2915)"/>
<path d="M174.5 5L174.5 153" stroke="url(#paint3_linear_160_2915)"/>
<path d="M10 35H198" stroke="url(#paint4_linear_160_2915)"/>
<path d="M5 40H203" stroke="url(#paint5_linear_160_2915)"/>
<path d="M40.4347 42.7273L42.4588 48.6506H42.5405L44.5646 42.7273H45.7507L43.1335 50H41.8658L39.2486 42.7273H40.4347ZM46.7157 50V44.5455H47.7775V50H46.7157ZM47.252 43.7038C47.0673 43.7038 46.9087 43.6423 46.7761 43.5192C46.6459 43.3937 46.5808 43.2446 46.5808 43.0717C46.5808 42.8965 46.6459 42.7474 46.7761 42.6243C46.9087 42.4988 47.0673 42.4361 47.252 42.4361C47.4366 42.4361 47.594 42.4988 47.7243 42.6243C47.8568 42.7474 47.9231 42.8965 47.9231 43.0717C47.9231 43.2446 47.8568 43.3937 47.7243 43.5192C47.594 43.6423 47.4366 43.7038 47.252 43.7038ZM51.5568 50.1101C51.0194 50.1101 50.5566 49.9953 50.1683 49.7656C49.7824 49.5336 49.4841 49.2081 49.2734 48.7891C49.0651 48.3677 48.9609 47.8741 48.9609 47.3082C48.9609 46.7495 49.0651 46.2571 49.2734 45.831C49.4841 45.4048 49.7777 45.0722 50.1541 44.8331C50.5329 44.594 50.9756 44.4744 51.4822 44.4744C51.79 44.4744 52.0883 44.5253 52.3771 44.6271C52.666 44.7289 52.9252 44.8887 53.1548 45.1065C53.3845 45.3243 53.5656 45.6072 53.6982 45.9553C53.8307 46.3009 53.897 46.7211 53.897 47.2159V47.5923H49.5611V46.7969H52.8565C52.8565 46.5175 52.7997 46.2701 52.6861 46.0547C52.5724 45.8369 52.4126 45.6652 52.2067 45.5398C52.0031 45.4143 51.764 45.3516 51.4893 45.3516C51.1911 45.3516 50.9306 45.425 50.7081 45.5717C50.4879 45.7161 50.3175 45.9055 50.1967 46.1399C50.0784 46.3719 50.0192 46.6241 50.0192 46.8963V47.5178C50.0192 47.8823 50.0831 48.1925 50.2109 48.4482C50.3411 48.7038 50.5223 48.8991 50.7543 49.0341C50.9863 49.1667 51.2573 49.233 51.5675 49.233C51.7687 49.233 51.9522 49.2045 52.1179 49.1477C52.2836 49.0885 52.4268 49.0009 52.5476 48.8849C52.6683 48.7689 52.7607 48.6257 52.8246 48.4553L53.8295 48.6364C53.7491 48.9323 53.6046 49.1915 53.3963 49.4141C53.1903 49.6342 52.9311 49.8059 52.6186 49.929C52.3085 50.0497 51.9545 50.1101 51.5568 50.1101ZM56.2479 50L54.6428 44.5455H55.7401L56.8089 48.5511H56.8622L57.9347 44.5455H59.032L60.0973 48.5334H60.1506L61.2124 44.5455H62.3097L60.7081 50H59.625L58.517 46.0618H58.4354L57.3274 50H56.2479ZM67.0256 42.7273V50H65.9638V42.7273H67.0256ZM70.8049 50.1101C70.2675 50.1101 69.8046 49.9953 69.4164 49.7656C69.0305 49.5336 68.7322 49.2081 68.5215 48.7891C68.3132 48.3677 68.209 47.8741 68.209 47.3082C68.209 46.7495 68.3132 46.2571 68.5215 45.831C68.7322 45.4048 69.0257 45.0722 69.4022 44.8331C69.781 44.594 70.2237 44.4744 70.7303 44.4744C71.0381 44.4744 71.3364 44.5253 71.6252 44.6271C71.914 44.7289 72.1732 44.8887 72.4029 45.1065C72.6325 45.3243 72.8136 45.6072 72.9462 45.9553C73.0788 46.3009 73.1451 46.7211 73.1451 47.2159V47.5923H68.8091V46.7969H72.1046C72.1046 46.5175 72.0478 46.2701 71.9341 46.0547C71.8205 45.8369 71.6607 45.6652 71.4547 45.5398C71.2511 45.4143 71.012 45.3516 70.7374 45.3516C70.4391 45.3516 70.1787 45.425 69.9561 45.5717C69.736 45.7161 69.5655 45.9055 69.4448 46.1399C69.3264 46.3719 69.2672 46.6241 69.2672 46.8963V47.5178C69.2672 47.8823 69.3311 48.1925 69.459 48.4482C69.5892 48.7038 69.7703 48.8991 70.0023 49.0341C70.2343 49.1667 70.5054 49.233 70.8155 49.233C71.0167 49.233 71.2002 49.2045 71.3659 49.1477C71.5317 49.0885 71.6749 49.0009 71.7956 48.8849C71.9164 48.7689 72.0087 48.6257 72.0726 48.4553L73.0776 48.6364C72.9971 48.9323 72.8527 49.1915 72.6444 49.4141C72.4384 49.6342 72.1792 49.8059 71.8667 49.929C71.5565 50.0497 71.2026 50.1101 70.8049 50.1101ZM78.4105 45.8771L77.4482 46.0476C77.4079 45.9245 77.344 45.8073 77.2564 45.696C77.1712 45.5848 77.0552 45.4936 76.9084 45.4226C76.7616 45.3516 76.5781 45.3161 76.358 45.3161C76.0573 45.3161 75.8063 45.3835 75.6051 45.5185C75.4039 45.651 75.3033 45.8227 75.3033 46.0334C75.3033 46.2157 75.3707 46.3625 75.5057 46.4737C75.6406 46.585 75.8584 46.6761 76.1591 46.7472L77.0256 46.946C77.5275 47.062 77.9015 47.2408 78.1477 47.4822C78.3939 47.7237 78.517 48.0374 78.517 48.4233C78.517 48.75 78.4223 49.0412 78.233 49.2969C78.0459 49.5502 77.7843 49.7491 77.4482 49.8935C77.1143 50.0379 76.7273 50.1101 76.2869 50.1101C75.6761 50.1101 75.1778 49.9799 74.7919 49.7195C74.406 49.4567 74.1693 49.0838 74.0817 48.6009L75.108 48.4446C75.1719 48.7121 75.3033 48.9145 75.5021 49.0518C75.701 49.1868 75.9602 49.2543 76.2798 49.2543C76.6278 49.2543 76.906 49.1821 77.1143 49.0376C77.3227 48.8909 77.4268 48.7121 77.4268 48.5014C77.4268 48.331 77.3629 48.1877 77.2351 48.0717C77.1096 47.9557 76.9167 47.8681 76.6562 47.8089L75.733 47.6065C75.224 47.4905 74.8475 47.3059 74.6037 47.0526C74.3622 46.7992 74.2415 46.4785 74.2415 46.0902C74.2415 45.7682 74.3314 45.4865 74.5114 45.245C74.6913 45.0036 74.9399 44.8153 75.2571 44.6804C75.5743 44.5431 75.9377 44.4744 76.3473 44.4744C76.9368 44.4744 77.4008 44.6023 77.7393 44.858C78.0779 45.1113 78.3016 45.451 78.4105 45.8771ZM83.7718 45.8771L82.8095 46.0476C82.7692 45.9245 82.7053 45.8073 82.6177 45.696C82.5325 45.5848 82.4165 45.4936 82.2697 45.4226C82.1229 45.3516 81.9395 45.3161 81.7193 45.3161C81.4186 45.3161 81.1677 45.3835 80.9664 45.5185C80.7652 45.651 80.6646 45.8227 80.6646 46.0334C80.6646 46.2157 80.7321 46.3625 80.867 46.4737C81.002 46.585 81.2198 46.6761 81.5204 46.7472L82.3869 46.946C82.8888 47.062 83.2628 47.2408 83.5091 47.4822C83.7553 47.7237 83.8784 48.0374 83.8784 48.4233C83.8784 48.75 83.7837 49.0412 83.5943 49.2969C83.4073 49.5502 83.1457 49.7491 82.8095 49.8935C82.4757 50.0379 82.0886 50.1101 81.6483 50.1101C81.0375 50.1101 80.5391 49.9799 80.1532 49.7195C79.7673 49.4567 79.5306 49.0838 79.443 48.6009L80.4693 48.4446C80.5332 48.7121 80.6646 48.9145 80.8635 49.0518C81.0623 49.1868 81.3216 49.2543 81.6412 49.2543C81.9892 49.2543 82.2673 49.1821 82.4757 49.0376C82.684 48.8909 82.7882 48.7121 82.7882 48.5014C82.7882 48.331 82.7243 48.1877 82.5964 48.0717C82.4709 47.9557 82.278 47.8681 82.0176 47.8089L81.0943 47.6065C80.5853 47.4905 80.2089 47.3059 79.965 47.0526C79.7235 46.7992 79.6028 46.4785 79.6028 46.0902C79.6028 45.7682 79.6928 45.4865 79.8727 45.245C80.0526 45.0036 80.3012 44.8153 80.6184 44.6804C80.9357 44.5431 81.2991 44.4744 81.7086 44.4744C82.2981 44.4744 82.7621 44.6023 83.1007 44.858C83.4392 45.1113 83.6629 45.451 83.7718 45.8771Z" fill="white"/>
<path d="M92 47.5L94.6464 44.8536C94.8417 44.6583 95.1583 44.6583 95.3536 44.8536L98 47.5" stroke="white" stroke-linecap="round"/>
<g filter="url(#filter0_d_160_2915)">
<path d="M39 68C39 64.6863 41.6863 62 45 62H163C166.314 62 169 64.6863 169 68V112C169 115.314 166.314 118 163 118H45C41.6863 118 39 115.314 39 112V68Z" fill="url(#paint6_linear_160_2915)"/>
<rect x="54" y="77" width="28" height="3" rx="1.5" fill="white"/>
<rect x="54" y="90" width="100" height="3" rx="1.5" fill="white" fill-opacity="0.3"/>
<rect x="54" y="100" width="69" height="3" rx="1.5" fill="white" fill-opacity="0.3"/>
</g>
<path d="M5 118H203" stroke="url(#paint7_linear_160_2915)"/>
<path d="M10 123H198" stroke="url(#paint8_linear_160_2915)"/>
<defs>
<filter id="filter0_d_160_2915" x="27" y="56" width="154" height="80" filterUnits="userSpaceOnUse" color-interpolation-filters="sRGB">
<feFlood flood-opacity="0" result="BackgroundImageFix"/>
<feColorMatrix in="SourceAlpha" type="matrix" values="0 0 0 0 0 0 0 0 0 0 0 0 0 0 0 0 0 0 127 0" result="hardAlpha"/>
<feOffset dy="6"/>
<feGaussianBlur stdDeviation="6"/>
<feComposite in2="hardAlpha" operator="out"/>
<feColorMatrix type="matrix" values="0 0 0 0 0 0 0 0 0 0 0 0 0 0 0 0 0 0 0.03 0"/>
<feBlend mode="normal" in2="BackgroundImageFix" result="effect1_dropShadow_160_2915"/>
<feBlend mode="normal" in="SourceGraphic" in2="effect1_dropShadow_160_2915" result="shape"/>
</filter>
<linearGradient id="paint0_linear_160_2915" x1="34" y1="153" x2="34" y2="5" gradientUnits="userSpaceOnUse">
<stop offset="0%" stop-color="white" stop-opacity="0"/>
<stop offset="0.185417" stop-color="white" stop-opacity="0.1"/>
<stop offset="0.826042" stop-color="white" stop-opacity="0.1"/>
<stop offset="1" stop-color="white" stop-opacity="0"/>
</linearGradient>
<linearGradient id="paint1_linear_160_2915" x1="39" y1="158" x2="39" y2="-2.74062e-08" gradientUnits="userSpaceOnUse">
<stop offset="0%" stop-color="white" stop-opacity="0"/>
<stop offset="0.185417" stop-color="white" stop-opacity="0.1"/>
<stop offset="0.826042" stop-color="white" stop-opacity="0.1"/>
<stop offset="1" stop-color="white" stop-opacity="0"/>
</linearGradient>
<linearGradient id="paint2_linear_160_2915" x1="170" y1="2.74063e-08" x2="170" y2="158" gradientUnits="userSpaceOnUse">
<stop offset="0%" stop-color="white" stop-opacity="0"/>
<stop offset="0.185417" stop-color="white" stop-opacity="0.1"/>
<stop offset="0.826042" stop-color="white" stop-opacity="0.1"/>
<stop offset="1" stop-color="white" stop-opacity="0"/>
</linearGradient>
<linearGradient id="paint3_linear_160_2915" x1="175" y1="5" x2="175" y2="153" gradientUnits="userSpaceOnUse">
<stop offset="0%" stop-color="white" stop-opacity="0"/>
<stop offset="0.185417" stop-color="white" stop-opacity="0.1"/>
<stop offset="0.826042" stop-color="white" stop-opacity="0.1"/>
<stop offset="1" stop-color="white" stop-opacity="0"/>
</linearGradient>
<linearGradient id="paint4_linear_160_2915" x1="104" y1="35" x2="104" y2="36" gradientUnits="userSpaceOnUse">
<stop offset="0%" stop-color="white" stop-opacity="0"/>
<stop offset="0.185417" stop-color="white" stop-opacity="0.1"/>
<stop offset="0.826042" stop-color="white" stop-opacity="0.1"/>
<stop offset="1" stop-color="white" stop-opacity="0"/>
</linearGradient>
<linearGradient id="paint5_linear_160_2915" x1="104" y1="40" x2="104" y2="41" gradientUnits="userSpaceOnUse">
<stop offset="0%" stop-color="white" stop-opacity="0"/>
<stop offset="0.185417" stop-color="white" stop-opacity="0.1"/>
<stop offset="0.826042" stop-color="white" stop-opacity="0.1"/>
<stop offset="1" stop-color="white" stop-opacity="0"/>
</linearGradient>
<linearGradient id="paint6_linear_160_2915" x1="58.3143" y1="67.824" x2="124.12" y2="151.53" gradientUnits="userSpaceOnUse">
<stop offset="0%" stop-color="#A855F7"/>
<stop offset="1" stop-color="#3B82F6"/>
</linearGradient>
<linearGradient id="paint7_linear_160_2915" x1="205" y1="118.5" x2="5" y2="118.5" gradientUnits="userSpaceOnUse">
<stop offset="0%" stop-color="white" stop-opacity="0"/>
<stop offset="0.185417" stop-color="white" stop-opacity="0.1"/>
<stop offset="0.826042" stop-color="white" stop-opacity="0.1"/>
<stop offset="1" stop-color="white" stop-opacity="0"/>
</linearGradient>
<linearGradient id="paint8_linear_160_2915" x1="199.899" y1="123.5" x2="10" y2="123.5" gradientUnits="userSpaceOnUse">
<stop offset="0%" stop-color="white" stop-opacity="0"/>
<stop offset="0.185417" stop-color="white" stop-opacity="0.1"/>
<stop offset="0.826042" stop-color="white" stop-opacity="0.1"/>
<stop offset="1" stop-color="white" stop-opacity="0"/>
</linearGradient>
</defs>
</svg>
