<svg width="208" height="158" viewBox="0 0 208 158" fill="none" xmlns="http://www.w3.org/2000/svg">
<path d="M33 153L33 5" stroke="url(#paint0_linear_951_18106)"/>
<path d="M38 158L38 -5.24521e-06" stroke="url(#paint1_linear_951_18106)"/>
<path d="M170 0L170 158" stroke="url(#paint2_linear_951_18106)"/>
<path d="M175 5L175 153" stroke="url(#paint3_linear_951_18106)"/>
<path d="M10 22.5H198" stroke="url(#paint4_linear_951_18106)"/>
<path d="M5 27.5H203" stroke="url(#paint5_linear_951_18106)"/>
<g filter="url(#filter0_d_951_18106)">
<path d="M39 35.5C39 31.0817 42.5817 27.5 47 27.5H161C165.418 27.5 169 31.0817 169 35.5V45.5C169 49.9183 165.418 53.5 161 53.5H47C42.5817 53.5 39 49.9183 39 45.5V35.5Z" fill="url(#paint6_linear_951_18106)"/>
<path d="M53.3807 37.6818H54.2614V41.5085C54.2614 41.9157 54.1657 42.2765 53.9744 42.5909C53.7831 42.9034 53.5142 43.1496 53.1676 43.3295C52.821 43.5076 52.4148 43.5966 51.9489 43.5966C51.4848 43.5966 51.0795 43.5076 50.733 43.3295C50.3864 43.1496 50.1174 42.9034 49.9261 42.5909C49.7348 42.2765 49.6392 41.9157 49.6392 41.5085V37.6818H50.517V41.4375C50.517 41.7008 50.5748 41.9347 50.6903 42.1392C50.8078 42.3438 50.9735 42.5047 51.1875 42.6222C51.4015 42.7377 51.6553 42.7955 51.9489 42.7955C52.2443 42.7955 52.4991 42.7377 52.7131 42.6222C52.929 42.5047 53.0938 42.3438 53.2074 42.1392C53.3229 41.9347 53.3807 41.7008 53.3807 41.4375V37.6818ZM56.3189 40.9091V43.5H55.4695V39.1364H56.2848V39.8466H56.3388C56.4392 39.6155 56.5964 39.4299 56.8104 39.2898C57.0263 39.1496 57.2981 39.0795 57.6257 39.0795C57.9231 39.0795 58.1835 39.142 58.407 39.267C58.6304 39.3902 58.8037 39.5739 58.9268 39.8182C59.05 40.0625 59.1115 40.3646 59.1115 40.7244V43.5H58.2621V40.8267C58.2621 40.5104 58.1797 40.2633 58.0149 40.0852C57.8501 39.9053 57.6238 39.8153 57.3359 39.8153C57.139 39.8153 56.9638 39.858 56.8104 39.9432C56.6589 40.0284 56.5386 40.1534 56.4496 40.3182C56.3625 40.4811 56.3189 40.678 56.3189 40.9091ZM60.2507 43.5V39.1364H61.1001V43.5H60.2507ZM60.6797 38.4631C60.532 38.4631 60.4051 38.4138 60.299 38.3153C60.1948 38.215 60.1428 38.0956 60.1428 37.9574C60.1428 37.8172 60.1948 37.6979 60.299 37.5994C60.4051 37.4991 60.532 37.4489 60.6797 37.4489C60.8274 37.4489 60.9534 37.4991 61.0575 37.5994C61.1636 37.6979 61.2166 37.8172 61.2166 37.9574C61.2166 38.0956 61.1636 38.215 61.0575 38.3153C60.9534 38.4138 60.8274 38.4631 60.6797 38.4631ZM64.2798 39.1364V39.8182H61.8963V39.1364H64.2798ZM62.5355 38.0909H63.3849V42.2188C63.3849 42.3835 63.4096 42.5076 63.4588 42.5909C63.508 42.6723 63.5715 42.7282 63.6491 42.7585C63.7287 42.7869 63.8149 42.8011 63.9077 42.8011C63.9759 42.8011 64.0355 42.7964 64.0866 42.7869C64.1378 42.7775 64.1776 42.7699 64.206 42.7642L64.3594 43.4659C64.3101 43.4848 64.2401 43.5038 64.1491 43.5227C64.0582 43.5436 63.9446 43.5549 63.8082 43.5568C63.5848 43.5606 63.3764 43.5208 63.1832 43.4375C62.9901 43.3542 62.8338 43.2254 62.7145 43.0511C62.5952 42.8769 62.5355 42.6581 62.5355 42.3949V38.0909ZM67.0533 43.5881C66.6233 43.5881 66.2531 43.4962 65.9425 43.3125C65.6338 43.1269 65.3951 42.8665 65.2266 42.5312C65.0599 42.1941 64.9766 41.7992 64.9766 41.3466C64.9766 40.8996 65.0599 40.5057 65.2266 40.1648C65.3951 39.8239 65.63 39.5578 65.9311 39.3665C66.2341 39.1752 66.5883 39.0795 66.9936 39.0795C67.2398 39.0795 67.4785 39.1203 67.7095 39.2017C67.9406 39.2831 68.148 39.411 68.3317 39.5852C68.5154 39.7595 68.6603 39.9858 68.7663 40.2642C68.8724 40.5407 68.9254 40.8769 68.9254 41.2727V41.5739H65.4567V40.9375H68.093C68.093 40.714 68.0476 40.5161 67.9567 40.3438C67.8658 40.1695 67.7379 40.0322 67.5732 39.9318C67.4103 39.8314 67.219 39.7812 66.9993 39.7812C66.7607 39.7812 66.5523 39.84 66.3743 39.9574C66.1982 40.0729 66.0618 40.2244 65.9652 40.4119C65.8705 40.5975 65.8232 40.7992 65.8232 41.017V41.5142C65.8232 41.8059 65.8743 42.054 65.9766 42.2585C66.0807 42.4631 66.2256 42.6193 66.4112 42.7273C66.5968 42.8333 66.8137 42.8864 67.0618 42.8864C67.2228 42.8864 67.3696 42.8636 67.5021 42.8182C67.6347 42.7708 67.7493 42.7008 67.8459 42.608C67.9425 42.5152 68.0163 42.4006 68.0675 42.2642L68.8714 42.4091C68.8071 42.6458 68.6915 42.8532 68.5249 43.0312C68.3601 43.2074 68.1527 43.3447 67.9027 43.4432C67.6546 43.5398 67.3714 43.5881 67.0533 43.5881ZM71.5014 43.5852C71.1491 43.5852 70.8348 43.4953 70.5582 43.3153C70.2836 43.1335 70.0677 42.875 69.9105 42.5398C69.7552 42.2027 69.6776 41.7983 69.6776 41.3267C69.6776 40.8551 69.7562 40.4517 69.9134 40.1165C70.0724 39.7812 70.2902 39.5246 70.5668 39.3466C70.8433 39.1686 71.1567 39.0795 71.5071 39.0795C71.7779 39.0795 71.9957 39.125 72.1605 39.2159C72.3272 39.3049 72.456 39.4091 72.5469 39.5284C72.6397 39.6477 72.7116 39.7528 72.7628 39.8438H72.8139V37.6818H73.6634V43.5H72.8338V42.821H72.7628C72.7116 42.9138 72.6378 43.0199 72.5412 43.1392C72.4465 43.2585 72.3158 43.3627 72.1491 43.4517C71.9825 43.5407 71.7666 43.5852 71.5014 43.5852ZM71.6889 42.8608C71.9332 42.8608 72.1397 42.7964 72.3082 42.6676C72.4787 42.5369 72.6075 42.3561 72.6946 42.125C72.7836 41.8939 72.8281 41.625 72.8281 41.3182C72.8281 41.0152 72.7846 40.75 72.6974 40.5227C72.6103 40.2955 72.4825 40.1184 72.3139 39.9915C72.1454 39.8646 71.937 39.8011 71.6889 39.8011C71.4332 39.8011 71.2202 39.8674 71.0497 40C70.8793 40.1326 70.7505 40.3134 70.6634 40.5426C70.5781 40.7718 70.5355 41.0303 70.5355 41.3182C70.5355 41.6098 70.5791 41.8722 70.6662 42.1051C70.7533 42.3381 70.8821 42.5227 71.0526 42.6591C71.2249 42.7936 71.437 42.8608 71.6889 42.8608ZM76.0547 35.8068V45.375H75.2933V35.8068H76.0547Z" fill="white"/>
<path d="M155 39.5L157 41.5L159 39.5" stroke="white" stroke-linecap="round"/>
</g>
<g filter="url(#filter1_d_951_18106)">
<path d="M39 63.5C39 61.2909 40.7909 59.5 43 59.5H165C167.209 59.5 169 61.2909 169 63.5V125.5C169 127.709 167.209 129.5 165 129.5H43C40.7909 129.5 39 127.709 39 125.5V63.5Z" fill="url(#paint7_linear_951_18106)"/>
<path d="M53.3807 69.6818H54.2614V73.5085C54.2614 73.9157 54.1657 74.2765 53.9744 74.5909C53.7831 74.9034 53.5142 75.1496 53.1676 75.3295C52.821 75.5076 52.4148 75.5966 51.9489 75.5966C51.4848 75.5966 51.0795 75.5076 50.733 75.3295C50.3864 75.1496 50.1174 74.9034 49.9261 74.5909C49.7348 74.2765 49.6392 73.9157 49.6392 73.5085V69.6818H50.517V73.4375C50.517 73.7008 50.5748 73.9347 50.6903 74.1392C50.8078 74.3438 50.9735 74.5047 51.1875 74.6222C51.4015 74.7377 51.6553 74.7955 51.9489 74.7955C52.2443 74.7955 52.4991 74.7377 52.7131 74.6222C52.929 74.5047 53.0938 74.3438 53.2074 74.1392C53.3229 73.9347 53.3807 73.7008 53.3807 73.4375V69.6818ZM56.3189 72.9091V75.5H55.4695V71.1364H56.2848V71.8466H56.3388C56.4392 71.6155 56.5964 71.4299 56.8104 71.2898C57.0263 71.1496 57.2981 71.0795 57.6257 71.0795C57.9231 71.0795 58.1835 71.142 58.407 71.267C58.6304 71.3902 58.8037 71.5739 58.9268 71.8182C59.05 72.0625 59.1115 72.3646 59.1115 72.7244V75.5H58.2621V72.8267C58.2621 72.5104 58.1797 72.2633 58.0149 72.0852C57.8501 71.9053 57.6238 71.8153 57.3359 71.8153C57.139 71.8153 56.9638 71.858 56.8104 71.9432C56.6589 72.0284 56.5386 72.1534 56.4496 72.3182C56.3625 72.4811 56.3189 72.678 56.3189 72.9091ZM60.2507 75.5V71.1364H61.1001V75.5H60.2507ZM60.6797 70.4631C60.532 70.4631 60.4051 70.4138 60.299 70.3153C60.1948 70.215 60.1428 70.0956 60.1428 69.9574C60.1428 69.8172 60.1948 69.6979 60.299 69.5994C60.4051 69.4991 60.532 69.4489 60.6797 69.4489C60.8274 69.4489 60.9534 69.4991 61.0575 69.5994C61.1636 69.6979 61.2166 69.8172 61.2166 69.9574C61.2166 70.0956 61.1636 70.215 61.0575 70.3153C60.9534 70.4138 60.8274 70.4631 60.6797 70.4631ZM64.2798 71.1364V71.8182H61.8963V71.1364H64.2798ZM62.5355 70.0909H63.3849V74.2188C63.3849 74.3835 63.4096 74.5076 63.4588 74.5909C63.508 74.6723 63.5715 74.7282 63.6491 74.7585C63.7287 74.7869 63.8149 74.8011 63.9077 74.8011C63.9759 74.8011 64.0355 74.7964 64.0866 74.7869C64.1378 74.7775 64.1776 74.7699 64.206 74.7642L64.3594 75.4659C64.3101 75.4848 64.2401 75.5038 64.1491 75.5227C64.0582 75.5436 63.9446 75.5549 63.8082 75.5568C63.5848 75.5606 63.3764 75.5208 63.1832 75.4375C62.9901 75.3542 62.8338 75.2254 62.7145 75.0511C62.5952 74.8769 62.5355 74.6581 62.5355 74.3949V70.0909ZM67.0533 75.5881C66.6233 75.5881 66.2531 75.4962 65.9425 75.3125C65.6338 75.1269 65.3951 74.8665 65.2266 74.5312C65.0599 74.1941 64.9766 73.7992 64.9766 73.3466C64.9766 72.8996 65.0599 72.5057 65.2266 72.1648C65.3951 71.8239 65.63 71.5578 65.9311 71.3665C66.2341 71.1752 66.5883 71.0795 66.9936 71.0795C67.2398 71.0795 67.4785 71.1203 67.7095 71.2017C67.9406 71.2831 68.148 71.411 68.3317 71.5852C68.5154 71.7595 68.6603 71.9858 68.7663 72.2642C68.8724 72.5407 68.9254 72.8769 68.9254 73.2727V73.5739H65.4567V72.9375H68.093C68.093 72.714 68.0476 72.5161 67.9567 72.3438C67.8658 72.1695 67.7379 72.0322 67.5732 71.9318C67.4103 71.8314 67.219 71.7812 66.9993 71.7812C66.7607 71.7812 66.5523 71.84 66.3743 71.9574C66.1982 72.0729 66.0618 72.2244 65.9652 72.4119C65.8705 72.5975 65.8232 72.7992 65.8232 73.017V73.5142C65.8232 73.8059 65.8743 74.054 65.9766 74.2585C66.0807 74.4631 66.2256 74.6193 66.4112 74.7273C66.5968 74.8333 66.8137 74.8864 67.0618 74.8864C67.2228 74.8864 67.3696 74.8636 67.5021 74.8182C67.6347 74.7708 67.7493 74.7008 67.8459 74.608C67.9425 74.5152 68.0163 74.4006 68.0675 74.2642L68.8714 74.4091C68.8071 74.6458 68.6915 74.8532 68.5249 75.0312C68.3601 75.2074 68.1527 75.3447 67.9027 75.4432C67.6546 75.5398 67.3714 75.5881 67.0533 75.5881ZM71.5014 75.5852C71.1491 75.5852 70.8348 75.4953 70.5582 75.3153C70.2836 75.1335 70.0677 74.875 69.9105 74.5398C69.7552 74.2027 69.6776 73.7983 69.6776 73.3267C69.6776 72.8551 69.7562 72.4517 69.9134 72.1165C70.0724 71.7812 70.2902 71.5246 70.5668 71.3466C70.8433 71.1686 71.1567 71.0795 71.5071 71.0795C71.7779 71.0795 71.9957 71.125 72.1605 71.2159C72.3272 71.3049 72.456 71.4091 72.5469 71.5284C72.6397 71.6477 72.7116 71.7528 72.7628 71.8438H72.8139V69.6818H73.6634V75.5H72.8338V74.821H72.7628C72.7116 74.9138 72.6378 75.0199 72.5412 75.1392C72.4465 75.2585 72.3158 75.3627 72.1491 75.4517C71.9825 75.5407 71.7666 75.5852 71.5014 75.5852ZM71.6889 74.8608C71.9332 74.8608 72.1397 74.7964 72.3082 74.6676C72.4787 74.5369 72.6075 74.3561 72.6946 74.125C72.7836 73.8939 72.8281 73.625 72.8281 73.3182C72.8281 73.0152 72.7846 72.75 72.6974 72.5227C72.6103 72.2955 72.4825 72.1184 72.3139 71.9915C72.1454 71.8646 71.937 71.8011 71.6889 71.8011C71.4332 71.8011 71.2202 71.8674 71.0497 72C70.8793 72.1326 70.7505 72.3134 70.6634 72.5426C70.5781 72.7718 70.5355 73.0303 70.5355 73.3182C70.5355 73.6098 70.5791 73.8722 70.6662 74.1051C70.7533 74.3381 70.8821 74.5227 71.0526 74.6591C71.2249 74.7936 71.437 74.8608 71.6889 74.8608ZM77.5526 75.5H76.6207L78.7145 69.6818H79.7287L81.8224 75.5H80.8906L79.2457 70.7386H79.2003L77.5526 75.5ZM77.7088 73.2216H80.7315V73.9602H77.7088V73.2216ZM82.5945 75.5V71.1364H83.4155V71.8295H83.4609C83.5405 71.5947 83.6806 71.41 83.8814 71.2756C84.084 71.1392 84.3132 71.071 84.5689 71.071C84.6219 71.071 84.6844 71.0729 84.7564 71.0767C84.8303 71.0805 84.888 71.0852 84.9297 71.0909V71.9034C84.8956 71.8939 84.835 71.8835 84.7479 71.8722C84.6607 71.8589 84.5736 71.8523 84.4865 71.8523C84.2857 71.8523 84.1068 71.8949 83.9496 71.9801C83.7943 72.0634 83.6712 72.1799 83.5803 72.3295C83.4893 72.4773 83.4439 72.6458 83.4439 72.8352V75.5H82.5945ZM86.8956 75.5966C86.6191 75.5966 86.3691 75.5455 86.1456 75.4432C85.9221 75.339 85.745 75.1884 85.6143 74.9915C85.4856 74.7945 85.4212 74.553 85.4212 74.267C85.4212 74.0208 85.4685 73.8182 85.5632 73.6591C85.6579 73.5 85.7857 73.3741 85.9467 73.2812C86.1077 73.1884 86.2876 73.1184 86.4865 73.071C86.6854 73.0237 86.888 72.9877 87.0945 72.9631C87.3558 72.9328 87.5679 72.9081 87.7308 72.8892C87.8937 72.8684 88.0121 72.8352 88.0859 72.7898C88.1598 72.7443 88.1967 72.6705 88.1967 72.5682V72.5483C88.1967 72.3002 88.1267 72.108 87.9865 71.9716C87.8482 71.8352 87.6418 71.767 87.3672 71.767C87.0812 71.767 86.8558 71.8305 86.6911 71.9574C86.5282 72.0824 86.4155 72.2216 86.353 72.375L85.5547 72.1932C85.6494 71.928 85.7876 71.714 85.9695 71.5511C86.1532 71.3864 86.3643 71.267 86.603 71.1932C86.8416 71.1174 87.0926 71.0795 87.3558 71.0795C87.5301 71.0795 87.7147 71.1004 87.9098 71.142C88.1068 71.1818 88.2905 71.2557 88.4609 71.3636C88.6333 71.4716 88.7744 71.6259 88.8842 71.8267C88.9941 72.0256 89.049 72.2841 89.049 72.6023V75.5H88.2195V74.9034H88.1854C88.1304 75.0133 88.0481 75.1212 87.9382 75.2273C87.8284 75.3333 87.6873 75.4214 87.5149 75.4915C87.3426 75.5616 87.1361 75.5966 86.8956 75.5966ZM87.0803 74.9148C87.3151 74.9148 87.5159 74.8684 87.6825 74.7756C87.8511 74.6828 87.9789 74.5616 88.0661 74.4119C88.1551 74.2604 88.1996 74.0985 88.1996 73.9261V73.3636C88.1693 73.3939 88.1106 73.4223 88.0234 73.4489C87.9382 73.4735 87.8407 73.4953 87.7308 73.5142C87.621 73.5312 87.514 73.5473 87.4098 73.5625C87.3056 73.5758 87.2185 73.5871 87.1484 73.5966C86.9837 73.6174 86.8331 73.6525 86.6967 73.7017C86.5623 73.7509 86.4543 73.822 86.3729 73.9148C86.2933 74.0057 86.2536 74.1269 86.2536 74.2784C86.2536 74.4886 86.3312 74.6477 86.4865 74.7557C86.6418 74.8617 86.8397 74.9148 87.0803 74.9148ZM90.2486 75.5V69.6818H91.098V71.8438H91.1491C91.1984 71.7528 91.2694 71.6477 91.3622 71.5284C91.455 71.4091 91.5838 71.3049 91.7486 71.2159C91.9134 71.125 92.1312 71.0795 92.402 71.0795C92.7543 71.0795 93.0687 71.1686 93.3452 71.3466C93.6217 71.5246 93.8385 71.7812 93.9957 72.1165C94.1548 72.4517 94.2344 72.8551 94.2344 73.3267C94.2344 73.7983 94.1558 74.2027 93.9986 74.5398C93.8414 74.875 93.6255 75.1335 93.3509 75.3153C93.0762 75.4953 92.7628 75.5852 92.4105 75.5852C92.1454 75.5852 91.9285 75.5407 91.7599 75.4517C91.5933 75.3627 91.4626 75.2585 91.3679 75.1392C91.2732 75.0199 91.2003 74.9138 91.1491 74.821H91.0781V75.5H90.2486ZM91.081 73.3182C91.081 73.625 91.1255 73.8939 91.2145 74.125C91.3035 74.3561 91.4323 74.5369 91.6009 74.6676C91.7694 74.7964 91.9759 74.8608 92.2202 74.8608C92.474 74.8608 92.6861 74.7936 92.8565 74.6591C93.027 74.5227 93.1558 74.3381 93.2429 74.1051C93.3319 73.8722 93.3764 73.6098 93.3764 73.3182C93.3764 73.0303 93.3329 72.7718 93.2457 72.5426C93.1605 72.3134 93.0317 72.1326 92.8594 72C92.6889 71.8674 92.4759 71.8011 92.2202 71.8011C91.974 71.8011 91.7656 71.8646 91.5952 71.9915C91.4266 72.1184 91.2988 72.2955 91.2116 72.5227C91.1245 72.75 91.081 73.0152 91.081 73.3182ZM97.3736 75.5V69.6818H101.021V70.4375H98.2514V72.2102H100.831V72.9631H98.2514V74.7443H101.055V75.5H97.3736ZM102.126 75.5V71.1364H102.941V71.8466H102.995C103.086 71.6061 103.235 71.4186 103.441 71.2841C103.647 71.1477 103.895 71.0795 104.183 71.0795C104.474 71.0795 104.719 71.1477 104.915 71.2841C105.114 71.4205 105.261 71.608 105.356 71.8466H105.401C105.505 71.6136 105.671 71.428 105.898 71.2898C106.126 71.1496 106.397 71.0795 106.711 71.0795C107.107 71.0795 107.43 71.2036 107.68 71.4517C107.932 71.6998 108.058 72.0739 108.058 72.5739V75.5H107.208V72.6534C107.208 72.358 107.128 72.1439 106.967 72.0114C106.806 71.8788 106.613 71.8125 106.39 71.8125C106.113 71.8125 105.898 71.8977 105.745 72.0682C105.592 72.2367 105.515 72.4536 105.515 72.7188V75.5H104.668V72.5994C104.668 72.3627 104.594 72.1723 104.447 72.0284C104.299 71.8845 104.107 71.8125 103.87 71.8125C103.709 71.8125 103.56 71.8551 103.424 71.9403C103.29 72.0237 103.181 72.1402 103.097 72.2898C103.016 72.4394 102.975 72.6127 102.975 72.8097V75.5H102.126ZM109.196 75.5V71.1364H110.045V75.5H109.196ZM109.625 70.4631C109.477 70.4631 109.35 70.4138 109.244 70.3153C109.14 70.215 109.088 70.0956 109.088 69.9574C109.088 69.8172 109.14 69.6979 109.244 69.5994C109.35 69.4991 109.477 69.4489 109.625 69.4489C109.773 69.4489 109.899 69.4991 110.003 69.5994C110.109 69.6979 110.162 69.8172 110.162 69.9574C110.162 70.0956 110.109 70.215 110.003 70.3153C109.899 70.4138 109.773 70.4631 109.625 70.4631ZM111.188 75.5V71.1364H112.009V71.8295H112.055C112.134 71.5947 112.274 71.41 112.475 71.2756C112.678 71.1392 112.907 71.071 113.163 71.071C113.216 71.071 113.278 71.0729 113.35 71.0767C113.424 71.0805 113.482 71.0852 113.523 71.0909V71.9034C113.489 71.8939 113.429 71.8835 113.342 71.8722C113.254 71.8589 113.167 71.8523 113.08 71.8523C112.879 71.8523 112.701 71.8949 112.543 71.9801C112.388 72.0634 112.265 72.1799 112.174 72.3295C112.083 72.4773 112.038 72.6458 112.038 72.8352V75.5H111.188ZM115.489 75.5966C115.213 75.5966 114.963 75.5455 114.739 75.4432C114.516 75.339 114.339 75.1884 114.208 74.9915C114.079 74.7945 114.015 74.553 114.015 74.267C114.015 74.0208 114.062 73.8182 114.157 73.6591C114.252 73.5 114.379 73.3741 114.54 73.2812C114.701 73.1884 114.881 73.1184 115.08 73.071C115.279 73.0237 115.482 72.9877 115.688 72.9631C115.95 72.9328 116.162 72.9081 116.325 72.8892C116.487 72.8684 116.606 72.8352 116.68 72.7898C116.754 72.7443 116.79 72.6705 116.79 72.5682V72.5483C116.79 72.3002 116.72 72.108 116.58 71.9716C116.442 71.8352 116.236 71.767 115.961 71.767C115.675 71.767 115.45 71.8305 115.285 71.9574C115.122 72.0824 115.009 72.2216 114.947 72.375L114.148 72.1932C114.243 71.928 114.381 71.714 114.563 71.5511C114.747 71.3864 114.958 71.267 115.197 71.1932C115.435 71.1174 115.686 71.0795 115.95 71.0795C116.124 71.0795 116.308 71.1004 116.504 71.142C116.701 71.1818 116.884 71.2557 117.055 71.3636C117.227 71.4716 117.368 71.6259 117.478 71.8267C117.588 72.0256 117.643 72.2841 117.643 72.6023V75.5H116.813V74.9034H116.779C116.724 75.0133 116.642 75.1212 116.532 75.2273C116.422 75.3333 116.281 75.4214 116.109 75.4915C115.936 75.5616 115.73 75.5966 115.489 75.5966ZM115.674 74.9148C115.909 74.9148 116.11 74.8684 116.276 74.7756C116.445 74.6828 116.573 74.5616 116.66 74.4119C116.749 74.2604 116.793 74.0985 116.793 73.9261V73.3636C116.763 73.3939 116.704 73.4223 116.617 73.4489C116.532 73.4735 116.434 73.4953 116.325 73.5142C116.215 73.5312 116.108 73.5473 116.004 73.5625C115.899 73.5758 115.812 73.5871 115.742 73.5966C115.577 73.6174 115.427 73.6525 115.29 73.7017C115.156 73.7509 115.048 73.822 114.967 73.9148C114.887 74.0057 114.847 74.1269 114.847 74.2784C114.847 74.4886 114.925 74.6477 115.08 74.7557C115.236 74.8617 115.433 74.9148 115.674 74.9148ZM120.811 71.1364V71.8182H118.428V71.1364H120.811ZM119.067 70.0909H119.916V74.2188C119.916 74.3835 119.941 74.5076 119.99 74.5909C120.039 74.6723 120.103 74.7282 120.18 74.7585C120.26 74.7869 120.346 74.8011 120.439 74.8011C120.507 74.8011 120.567 74.7964 120.618 74.7869C120.669 74.7775 120.709 74.7699 120.737 74.7642L120.891 75.4659C120.841 75.4848 120.771 75.5038 120.68 75.5227C120.589 75.5436 120.476 75.5549 120.339 75.5568C120.116 75.5606 119.908 75.5208 119.714 75.4375C119.521 75.3542 119.365 75.2254 119.246 75.0511C119.126 74.8769 119.067 74.6581 119.067 74.3949V70.0909ZM123.585 75.5881C123.155 75.5881 122.784 75.4962 122.474 75.3125C122.165 75.1269 121.926 74.8665 121.758 74.5312C121.591 74.1941 121.508 73.7992 121.508 73.3466C121.508 72.8996 121.591 72.5057 121.758 72.1648C121.926 71.8239 122.161 71.5578 122.462 71.3665C122.765 71.1752 123.12 71.0795 123.525 71.0795C123.771 71.0795 124.01 71.1203 124.241 71.2017C124.472 71.2831 124.679 71.411 124.863 71.5852C125.047 71.7595 125.192 71.9858 125.298 72.2642C125.404 72.5407 125.457 72.8769 125.457 73.2727V73.5739H121.988V72.9375H124.624C124.624 72.714 124.579 72.5161 124.488 72.3438C124.397 72.1695 124.269 72.0322 124.104 71.9318C123.942 71.8314 123.75 71.7812 123.531 71.7812C123.292 71.7812 123.084 71.84 122.906 71.9574C122.729 72.0729 122.593 72.2244 122.496 72.4119C122.402 72.5975 122.354 72.7992 122.354 73.017V73.5142C122.354 73.8059 122.406 74.054 122.508 74.2585C122.612 74.4631 122.757 74.6193 122.942 74.7273C123.128 74.8333 123.345 74.8864 123.593 74.8864C123.754 74.8864 123.901 74.8636 124.033 74.8182C124.166 74.7708 124.281 74.7008 124.377 74.608C124.474 74.5152 124.548 74.4006 124.599 74.2642L125.403 74.4091C125.338 74.6458 125.223 74.8532 125.056 75.0312C124.891 75.2074 124.684 75.3447 124.434 75.4432C124.186 75.5398 123.903 75.5881 123.585 75.5881ZM129.669 72.2017L128.899 72.3381C128.867 72.2396 128.816 72.1458 128.746 72.0568C128.678 71.9678 128.585 71.8949 128.467 71.8381C128.35 71.7812 128.203 71.7528 128.027 71.7528C127.786 71.7528 127.586 71.8068 127.425 71.9148C127.264 72.0208 127.183 72.1581 127.183 72.3267C127.183 72.4725 127.237 72.59 127.345 72.679C127.453 72.768 127.627 72.8409 127.868 72.8977L128.561 73.0568C128.963 73.1496 129.262 73.2926 129.459 73.4858C129.656 73.679 129.754 73.9299 129.754 74.2386C129.754 74.5 129.679 74.733 129.527 74.9375C129.377 75.1402 129.168 75.2992 128.899 75.4148C128.632 75.5303 128.322 75.5881 127.97 75.5881C127.482 75.5881 127.083 75.4839 126.774 75.2756C126.465 75.0653 126.276 74.767 126.206 74.3807L127.027 74.2557C127.078 74.4697 127.183 74.6316 127.342 74.7415C127.501 74.8494 127.709 74.9034 127.964 74.9034C128.243 74.9034 128.465 74.8456 128.632 74.7301C128.799 74.6127 128.882 74.4697 128.882 74.3011C128.882 74.1648 128.831 74.0502 128.729 73.9574C128.628 73.8646 128.474 73.7945 128.266 73.7472L127.527 73.5852C127.12 73.4924 126.819 73.3447 126.624 73.142C126.43 72.9394 126.334 72.6828 126.334 72.3722C126.334 72.1146 126.406 71.8892 126.55 71.696C126.694 71.5028 126.893 71.3523 127.146 71.2443C127.4 71.1345 127.691 71.0795 128.018 71.0795C128.49 71.0795 128.861 71.1818 129.132 71.3864C129.403 71.589 129.582 71.8608 129.669 72.2017Z" fill="white"/>
<path d="M53.3807 91.6818H54.2614V95.5085C54.2614 95.9157 54.1657 96.2765 53.9744 96.5909C53.7831 96.9034 53.5142 97.1496 53.1676 97.3295C52.821 97.5076 52.4148 97.5966 51.9489 97.5966C51.4848 97.5966 51.0795 97.5076 50.733 97.3295C50.3864 97.1496 50.1174 96.9034 49.9261 96.5909C49.7348 96.2765 49.6392 95.9157 49.6392 95.5085V91.6818H50.517V95.4375C50.517 95.7008 50.5748 95.9347 50.6903 96.1392C50.8078 96.3438 50.9735 96.5047 51.1875 96.6222C51.4015 96.7377 51.6553 96.7955 51.9489 96.7955C52.2443 96.7955 52.4991 96.7377 52.7131 96.6222C52.929 96.5047 53.0938 96.3438 53.2074 96.1392C53.3229 95.9347 53.3807 95.7008 53.3807 95.4375V91.6818ZM56.3189 94.9091V97.5H55.4695V93.1364H56.2848V93.8466H56.3388C56.4392 93.6155 56.5964 93.4299 56.8104 93.2898C57.0263 93.1496 57.2981 93.0795 57.6257 93.0795C57.9231 93.0795 58.1835 93.142 58.407 93.267C58.6304 93.3902 58.8037 93.5739 58.9268 93.8182C59.05 94.0625 59.1115 94.3646 59.1115 94.7244V97.5H58.2621V94.8267C58.2621 94.5104 58.1797 94.2633 58.0149 94.0852C57.8501 93.9053 57.6238 93.8153 57.3359 93.8153C57.139 93.8153 56.9638 93.858 56.8104 93.9432C56.6589 94.0284 56.5386 94.1534 56.4496 94.3182C56.3625 94.4811 56.3189 94.678 56.3189 94.9091ZM60.2507 97.5V93.1364H61.1001V97.5H60.2507ZM60.6797 92.4631C60.532 92.4631 60.4051 92.4138 60.299 92.3153C60.1948 92.215 60.1428 92.0956 60.1428 91.9574C60.1428 91.8172 60.1948 91.6979 60.299 91.5994C60.4051 91.4991 60.532 91.4489 60.6797 91.4489C60.8274 91.4489 60.9534 91.4991 61.0575 91.5994C61.1636 91.6979 61.2166 91.8172 61.2166 91.9574C61.2166 92.0956 61.1636 92.215 61.0575 92.3153C60.9534 92.4138 60.8274 92.4631 60.6797 92.4631ZM64.2798 93.1364V93.8182H61.8963V93.1364H64.2798ZM62.5355 92.0909H63.3849V96.2188C63.3849 96.3835 63.4096 96.5076 63.4588 96.5909C63.508 96.6723 63.5715 96.7282 63.6491 96.7585C63.7287 96.7869 63.8149 96.8011 63.9077 96.8011C63.9759 96.8011 64.0355 96.7964 64.0866 96.7869C64.1378 96.7775 64.1776 96.7699 64.206 96.7642L64.3594 97.4659C64.3101 97.4848 64.2401 97.5038 64.1491 97.5227C64.0582 97.5436 63.9446 97.5549 63.8082 97.5568C63.5848 97.5606 63.3764 97.5208 63.1832 97.4375C62.9901 97.3542 62.8338 97.2254 62.7145 97.0511C62.5952 96.8769 62.5355 96.6581 62.5355 96.3949V92.0909ZM67.0533 97.5881C66.6233 97.5881 66.2531 97.4962 65.9425 97.3125C65.6338 97.1269 65.3951 96.8665 65.2266 96.5312C65.0599 96.1941 64.9766 95.7992 64.9766 95.3466C64.9766 94.8996 65.0599 94.5057 65.2266 94.1648C65.3951 93.8239 65.63 93.5578 65.9311 93.3665C66.2341 93.1752 66.5883 93.0795 66.9936 93.0795C67.2398 93.0795 67.4785 93.1203 67.7095 93.2017C67.9406 93.2831 68.148 93.411 68.3317 93.5852C68.5154 93.7595 68.6603 93.9858 68.7663 94.2642C68.8724 94.5407 68.9254 94.8769 68.9254 95.2727V95.5739H65.4567V94.9375H68.093C68.093 94.714 68.0476 94.5161 67.9567 94.3438C67.8658 94.1695 67.7379 94.0322 67.5732 93.9318C67.4103 93.8314 67.219 93.7812 66.9993 93.7812C66.7607 93.7812 66.5523 93.84 66.3743 93.9574C66.1982 94.0729 66.0618 94.2244 65.9652 94.4119C65.8705 94.5975 65.8232 94.7992 65.8232 95.017V95.5142C65.8232 95.8059 65.8743 96.054 65.9766 96.2585C66.0807 96.4631 66.2256 96.6193 66.4112 96.7273C66.5968 96.8333 66.8137 96.8864 67.0618 96.8864C67.2228 96.8864 67.3696 96.8636 67.5021 96.8182C67.6347 96.7708 67.7493 96.7008 67.8459 96.608C67.9425 96.5152 68.0163 96.4006 68.0675 96.2642L68.8714 96.4091C68.8071 96.6458 68.6915 96.8532 68.5249 97.0312C68.3601 97.2074 68.1527 97.3447 67.9027 97.4432C67.6546 97.5398 67.3714 97.5881 67.0533 97.5881ZM71.5014 97.5852C71.1491 97.5852 70.8348 97.4953 70.5582 97.3153C70.2836 97.1335 70.0677 96.875 69.9105 96.5398C69.7552 96.2027 69.6776 95.7983 69.6776 95.3267C69.6776 94.8551 69.7562 94.4517 69.9134 94.1165C70.0724 93.7812 70.2902 93.5246 70.5668 93.3466C70.8433 93.1686 71.1567 93.0795 71.5071 93.0795C71.7779 93.0795 71.9957 93.125 72.1605 93.2159C72.3272 93.3049 72.456 93.4091 72.5469 93.5284C72.6397 93.6477 72.7116 93.7528 72.7628 93.8438H72.8139V91.6818H73.6634V97.5H72.8338V96.821H72.7628C72.7116 96.9138 72.6378 97.0199 72.5412 97.1392C72.4465 97.2585 72.3158 97.3627 72.1491 97.4517C71.9825 97.5407 71.7666 97.5852 71.5014 97.5852ZM71.6889 96.8608C71.9332 96.8608 72.1397 96.7964 72.3082 96.6676C72.4787 96.5369 72.6075 96.3561 72.6946 96.125C72.7836 95.8939 72.8281 95.625 72.8281 95.3182C72.8281 95.0152 72.7846 94.75 72.6974 94.5227C72.6103 94.2955 72.4825 94.1184 72.3139 93.9915C72.1454 93.8646 71.937 93.8011 71.6889 93.8011C71.4332 93.8011 71.2202 93.8674 71.0497 94C70.8793 94.1326 70.7505 94.3134 70.6634 94.5426C70.5781 94.7718 70.5355 95.0303 70.5355 95.3182C70.5355 95.6098 70.5791 95.8722 70.6662 96.1051C70.7533 96.3381 70.8821 96.5227 71.0526 96.6591C71.2249 96.7936 71.437 96.8608 71.6889 96.8608ZM77.0611 97.5V91.6818H77.9389V94.4602H78.0099L80.4503 91.6818H81.5554L79.2088 94.3011L81.5639 97.5H80.5071L78.6264 94.9006L77.9389 95.6903V97.5H77.0611ZM82.5788 97.5V93.1364H83.4283V97.5H82.5788ZM83.0078 92.4631C82.8601 92.4631 82.7332 92.4138 82.6271 92.3153C82.523 92.215 82.4709 92.0956 82.4709 91.9574C82.4709 91.8172 82.523 91.6979 82.6271 91.5994C82.7332 91.4991 82.8601 91.4489 83.0078 91.4489C83.1555 91.4489 83.2815 91.4991 83.3857 91.5994C83.4917 91.6979 83.5447 91.8172 83.5447 91.9574C83.5447 92.0956 83.4917 92.215 83.3857 92.3153C83.2815 92.4138 83.1555 92.4631 83.0078 92.4631ZM85.4205 94.9091V97.5H84.571V93.1364H85.3864V93.8466H85.4403C85.5407 93.6155 85.6979 93.4299 85.9119 93.2898C86.1278 93.1496 86.3996 93.0795 86.7273 93.0795C87.0246 93.0795 87.285 93.142 87.5085 93.267C87.732 93.3902 87.9053 93.5739 88.0284 93.8182C88.1515 94.0625 88.2131 94.3646 88.2131 94.7244V97.5H87.3636V94.8267C87.3636 94.5104 87.2813 94.2633 87.1165 94.0852C86.9517 93.9053 86.7254 93.8153 86.4375 93.8153C86.2405 93.8153 86.0653 93.858 85.9119 93.9432C85.7604 94.0284 85.6402 94.1534 85.5511 94.3182C85.464 94.4811 85.4205 94.678 85.4205 94.9091ZM91.1818 99.2273C90.8352 99.2273 90.5369 99.1818 90.2869 99.0909C90.0388 99 89.8362 98.8797 89.679 98.7301C89.5218 98.5805 89.4044 98.4167 89.3267 98.2386L90.0568 97.9375C90.108 98.0208 90.1761 98.1089 90.2614 98.2017C90.3485 98.2964 90.4659 98.3769 90.6136 98.4432C90.7633 98.5095 90.9555 98.5426 91.1903 98.5426C91.5123 98.5426 91.7784 98.464 91.9886 98.3068C92.1989 98.1515 92.304 97.9034 92.304 97.5625V96.7045H92.25C92.1989 96.7973 92.125 96.9006 92.0284 97.0142C91.9337 97.1278 91.803 97.2263 91.6364 97.3097C91.4697 97.393 91.2528 97.4347 90.9858 97.4347C90.6411 97.4347 90.3305 97.3542 90.054 97.1932C89.7794 97.0303 89.5616 96.7907 89.4006 96.4744C89.2415 96.1562 89.1619 95.7652 89.1619 95.3011C89.1619 94.8371 89.2405 94.4394 89.3977 94.108C89.5568 93.7765 89.7746 93.5227 90.0511 93.3466C90.3277 93.1686 90.6411 93.0795 90.9915 93.0795C91.2623 93.0795 91.4811 93.125 91.6477 93.2159C91.8144 93.3049 91.9441 93.4091 92.0369 93.5284C92.1316 93.6477 92.2045 93.7528 92.2557 93.8438H92.3182V93.1364H93.1506V97.5966C93.1506 97.9716 93.0634 98.2794 92.8892 98.5199C92.715 98.7604 92.4792 98.9384 92.1818 99.054C91.8864 99.1695 91.553 99.2273 91.1818 99.2273ZM91.1733 96.7301C91.4176 96.7301 91.6241 96.6733 91.7926 96.5597C91.9631 96.4441 92.0919 96.2794 92.179 96.0653C92.268 95.8494 92.3125 95.5909 92.3125 95.2898C92.3125 94.9962 92.2689 94.7377 92.1818 94.5142C92.0947 94.2907 91.9669 94.1165 91.7983 93.9915C91.6297 93.8646 91.4214 93.8011 91.1733 93.8011C90.9176 93.8011 90.7045 93.8674 90.5341 94C90.3636 94.1307 90.2348 94.3087 90.1477 94.5341C90.0625 94.7595 90.0199 95.0114 90.0199 95.2898C90.0199 95.5758 90.0634 95.8267 90.1506 96.0426C90.2377 96.2585 90.3665 96.4271 90.5369 96.5483C90.7093 96.6695 90.9214 96.7301 91.1733 96.7301ZM95.9233 97.5852C95.571 97.5852 95.2566 97.4953 94.9801 97.3153C94.7055 97.1335 94.4896 96.875 94.3324 96.5398C94.1771 96.2027 94.0994 95.7983 94.0994 95.3267C94.0994 94.8551 94.178 94.4517 94.3352 94.1165C94.4943 93.7812 94.7121 93.5246 94.9886 93.3466C95.2652 93.1686 95.5786 93.0795 95.929 93.0795C96.1998 93.0795 96.4176 93.125 96.5824 93.2159C96.7491 93.3049 96.8778 93.4091 96.9688 93.5284C97.0616 93.6477 97.1335 93.7528 97.1847 93.8438H97.2358V91.6818H98.0852V97.5H97.2557V96.821H97.1847C97.1335 96.9138 97.0597 97.0199 96.9631 97.1392C96.8684 97.2585 96.7377 97.3627 96.571 97.4517C96.4044 97.5407 96.1884 97.5852 95.9233 97.5852ZM96.1108 96.8608C96.3551 96.8608 96.5616 96.7964 96.7301 96.6676C96.9006 96.5369 97.0294 96.3561 97.1165 96.125C97.2055 95.8939 97.25 95.625 97.25 95.3182C97.25 95.0152 97.2064 94.75 97.1193 94.5227C97.0322 94.2955 96.9044 94.1184 96.7358 93.9915C96.5672 93.8646 96.3589 93.8011 96.1108 93.8011C95.8551 93.8011 95.642 93.8674 95.4716 94C95.3011 94.1326 95.1723 94.3134 95.0852 94.5426C95 94.7718 94.9574 95.0303 94.9574 95.3182C94.9574 95.6098 95.0009 95.8722 95.0881 96.1051C95.1752 96.3381 95.304 96.5227 95.4744 96.6591C95.6468 96.7936 95.8589 96.8608 96.1108 96.8608ZM101.136 97.5881C100.727 97.5881 100.37 97.4943 100.065 97.3068C99.7597 97.1193 99.523 96.857 99.3544 96.5199C99.1858 96.1828 99.1016 95.7888 99.1016 95.3381C99.1016 94.8854 99.1858 94.4896 99.3544 94.1506C99.523 93.8116 99.7597 93.5483 100.065 93.3608C100.37 93.1733 100.727 93.0795 101.136 93.0795C101.545 93.0795 101.902 93.1733 102.207 93.3608C102.512 93.5483 102.748 93.8116 102.917 94.1506C103.085 94.4896 103.17 94.8854 103.17 95.3381C103.17 95.7888 103.085 96.1828 102.917 96.5199C102.748 96.857 102.512 97.1193 102.207 97.3068C101.902 97.4943 101.545 97.5881 101.136 97.5881ZM101.138 96.875C101.404 96.875 101.623 96.8049 101.798 96.6648C101.972 96.5246 102.101 96.3381 102.184 96.1051C102.269 95.8722 102.312 95.6155 102.312 95.3352C102.312 95.0568 102.269 94.8011 102.184 94.5682C102.101 94.3333 101.972 94.1449 101.798 94.0028C101.623 93.8608 101.404 93.7898 101.138 93.7898C100.871 93.7898 100.65 93.8608 100.474 94.0028C100.299 94.1449 100.17 94.3333 100.085 94.5682C100.001 94.8011 99.9595 95.0568 99.9595 95.3352C99.9595 95.6155 100.001 95.8722 100.085 96.1051C100.17 96.3381 100.299 96.5246 100.474 96.6648C100.65 96.8049 100.871 96.875 101.138 96.875ZM104.118 97.5V93.1364H104.933V93.8466H104.987C105.078 93.6061 105.227 93.4186 105.433 93.2841C105.64 93.1477 105.887 93.0795 106.175 93.0795C106.466 93.0795 106.711 93.1477 106.908 93.2841C107.107 93.4205 107.253 93.608 107.348 93.8466H107.393C107.498 93.6136 107.663 93.428 107.891 93.2898C108.118 93.1496 108.389 93.0795 108.703 93.0795C109.099 93.0795 109.422 93.2036 109.672 93.4517C109.924 93.6998 110.05 94.0739 110.05 94.5739V97.5H109.2V94.6534C109.2 94.358 109.12 94.1439 108.959 94.0114C108.798 93.8788 108.606 93.8125 108.382 93.8125C108.106 93.8125 107.891 93.8977 107.737 94.0682C107.584 94.2367 107.507 94.4536 107.507 94.7188V97.5H106.661V94.5994C106.661 94.3627 106.587 94.1723 106.439 94.0284C106.291 93.8845 106.099 93.8125 105.862 93.8125C105.701 93.8125 105.553 93.8551 105.416 93.9403C105.282 94.0237 105.173 94.1402 105.089 94.2898C105.008 94.4394 104.967 94.6127 104.967 94.8097V97.5H104.118Z" fill="white"/>
<path d="M53.3807 113.682H54.2614V117.509C54.2614 117.916 54.1657 118.277 53.9744 118.591C53.7831 118.903 53.5142 119.15 53.1676 119.33C52.821 119.508 52.4148 119.597 51.9489 119.597C51.4848 119.597 51.0795 119.508 50.733 119.33C50.3864 119.15 50.1174 118.903 49.9261 118.591C49.7348 118.277 49.6392 117.916 49.6392 117.509V113.682H50.517V117.438C50.517 117.701 50.5748 117.935 50.6903 118.139C50.8078 118.344 50.9735 118.505 51.1875 118.622C51.4015 118.738 51.6553 118.795 51.9489 118.795C52.2443 118.795 52.4991 118.738 52.7131 118.622C52.929 118.505 53.0938 118.344 53.2074 118.139C53.3229 117.935 53.3807 117.701 53.3807 117.438V113.682ZM56.3189 116.909V119.5H55.4695V115.136H56.2848V115.847H56.3388C56.4392 115.616 56.5964 115.43 56.8104 115.29C57.0263 115.15 57.2981 115.08 57.6257 115.08C57.9231 115.08 58.1835 115.142 58.407 115.267C58.6304 115.39 58.8037 115.574 58.9268 115.818C59.05 116.062 59.1115 116.365 59.1115 116.724V119.5H58.2621V116.827C58.2621 116.51 58.1797 116.263 58.0149 116.085C57.8501 115.905 57.6238 115.815 57.3359 115.815C57.139 115.815 56.9638 115.858 56.8104 115.943C56.6589 116.028 56.5386 116.153 56.4496 116.318C56.3625 116.481 56.3189 116.678 56.3189 116.909ZM60.2507 119.5V115.136H61.1001V119.5H60.2507ZM60.6797 114.463C60.532 114.463 60.4051 114.414 60.299 114.315C60.1948 114.215 60.1428 114.096 60.1428 113.957C60.1428 113.817 60.1948 113.698 60.299 113.599C60.4051 113.499 60.532 113.449 60.6797 113.449C60.8274 113.449 60.9534 113.499 61.0575 113.599C61.1636 113.698 61.2166 113.817 61.2166 113.957C61.2166 114.096 61.1636 114.215 61.0575 114.315C60.9534 114.414 60.8274 114.463 60.6797 114.463ZM64.2798 115.136V115.818H61.8963V115.136H64.2798ZM62.5355 114.091H63.3849V118.219C63.3849 118.384 63.4096 118.508 63.4588 118.591C63.508 118.672 63.5715 118.728 63.6491 118.759C63.7287 118.787 63.8149 118.801 63.9077 118.801C63.9759 118.801 64.0355 118.796 64.0866 118.787C64.1378 118.777 64.1776 118.77 64.206 118.764L64.3594 119.466C64.3101 119.485 64.2401 119.504 64.1491 119.523C64.0582 119.544 63.9446 119.555 63.8082 119.557C63.5848 119.561 63.3764 119.521 63.1832 119.438C62.9901 119.354 62.8338 119.225 62.7145 119.051C62.5952 118.877 62.5355 118.658 62.5355 118.395V114.091ZM67.0533 119.588C66.6233 119.588 66.2531 119.496 65.9425 119.312C65.6338 119.127 65.3951 118.866 65.2266 118.531C65.0599 118.194 64.9766 117.799 64.9766 117.347C64.9766 116.9 65.0599 116.506 65.2266 116.165C65.3951 115.824 65.63 115.558 65.9311 115.366C66.2341 115.175 66.5883 115.08 66.9936 115.08C67.2398 115.08 67.4785 115.12 67.7095 115.202C67.9406 115.283 68.148 115.411 68.3317 115.585C68.5154 115.759 68.6603 115.986 68.7663 116.264C68.8724 116.541 68.9254 116.877 68.9254 117.273V117.574H65.4567V116.938H68.093C68.093 116.714 68.0476 116.516 67.9567 116.344C67.8658 116.17 67.7379 116.032 67.5732 115.932C67.4103 115.831 67.219 115.781 66.9993 115.781C66.7607 115.781 66.5523 115.84 66.3743 115.957C66.1982 116.073 66.0618 116.224 65.9652 116.412C65.8705 116.598 65.8232 116.799 65.8232 117.017V117.514C65.8232 117.806 65.8743 118.054 65.9766 118.259C66.0807 118.463 66.2256 118.619 66.4112 118.727C66.5968 118.833 66.8137 118.886 67.0618 118.886C67.2228 118.886 67.3696 118.864 67.5021 118.818C67.6347 118.771 67.7493 118.701 67.8459 118.608C67.9425 118.515 68.0163 118.401 68.0675 118.264L68.8714 118.409C68.8071 118.646 68.6915 118.853 68.5249 119.031C68.3601 119.207 68.1527 119.345 67.9027 119.443C67.6546 119.54 67.3714 119.588 67.0533 119.588ZM71.5014 119.585C71.1491 119.585 70.8348 119.495 70.5582 119.315C70.2836 119.134 70.0677 118.875 69.9105 118.54C69.7552 118.203 69.6776 117.798 69.6776 117.327C69.6776 116.855 69.7562 116.452 69.9134 116.116C70.0724 115.781 70.2902 115.525 70.5668 115.347C70.8433 115.169 71.1567 115.08 71.5071 115.08C71.7779 115.08 71.9957 115.125 72.1605 115.216C72.3272 115.305 72.456 115.409 72.5469 115.528C72.6397 115.648 72.7116 115.753 72.7628 115.844H72.8139V113.682H73.6634V119.5H72.8338V118.821H72.7628C72.7116 118.914 72.6378 119.02 72.5412 119.139C72.4465 119.259 72.3158 119.363 72.1491 119.452C71.9825 119.541 71.7666 119.585 71.5014 119.585ZM71.6889 118.861C71.9332 118.861 72.1397 118.796 72.3082 118.668C72.4787 118.537 72.6075 118.356 72.6946 118.125C72.7836 117.894 72.8281 117.625 72.8281 117.318C72.8281 117.015 72.7846 116.75 72.6974 116.523C72.6103 116.295 72.4825 116.118 72.3139 115.991C72.1454 115.865 71.937 115.801 71.6889 115.801C71.4332 115.801 71.2202 115.867 71.0497 116C70.8793 116.133 70.7505 116.313 70.6634 116.543C70.5781 116.772 70.5355 117.03 70.5355 117.318C70.5355 117.61 70.5791 117.872 70.6662 118.105C70.7533 118.338 70.8821 118.523 71.0526 118.659C71.2249 118.794 71.437 118.861 71.6889 118.861ZM80.2344 115.21C80.2041 114.941 80.0791 114.733 79.8594 114.585C79.6397 114.436 79.3632 114.361 79.0298 114.361C78.7912 114.361 78.5848 114.399 78.4105 114.474C78.2363 114.548 78.1009 114.651 78.0043 114.781C77.9096 114.91 77.8622 115.057 77.8622 115.222C77.8622 115.36 77.8944 115.479 77.9588 115.58C78.0251 115.68 78.1113 115.764 78.2173 115.832C78.3253 115.899 78.4408 115.955 78.5639 116C78.687 116.044 78.8054 116.08 78.919 116.108L79.4872 116.256C79.6728 116.301 79.8632 116.363 80.0582 116.44C80.2533 116.518 80.4342 116.62 80.6009 116.747C80.7675 116.874 80.902 117.031 81.0043 117.219C81.1084 117.406 81.1605 117.631 81.1605 117.892C81.1605 118.222 81.0753 118.514 80.9048 118.77C80.7363 119.026 80.491 119.227 80.169 119.375C79.849 119.523 79.4616 119.597 79.0071 119.597C78.5715 119.597 78.1946 119.527 77.8764 119.389C77.5582 119.251 77.3092 119.055 77.1293 118.801C76.9493 118.545 76.8499 118.242 76.831 117.892H77.7116C77.7287 118.102 77.7969 118.277 77.9162 118.418C78.0374 118.556 78.1918 118.659 78.3793 118.727C78.5687 118.794 78.776 118.827 79.0014 118.827C79.2495 118.827 79.4702 118.788 79.6634 118.71C79.8584 118.631 80.0118 118.521 80.1236 118.381C80.2353 118.239 80.2912 118.073 80.2912 117.884C80.2912 117.711 80.242 117.57 80.1435 117.46C80.0469 117.35 79.9152 117.259 79.7486 117.188C79.5838 117.116 79.3973 117.052 79.1889 116.997L78.5014 116.81C78.0355 116.683 77.6662 116.496 77.3935 116.25C77.1226 116.004 76.9872 115.678 76.9872 115.273C76.9872 114.937 77.0781 114.645 77.2599 114.395C77.4418 114.145 77.688 113.951 77.9986 113.812C78.3092 113.672 78.6596 113.602 79.0497 113.602C79.4437 113.602 79.7912 113.671 80.0923 113.81C80.3954 113.948 80.634 114.138 80.8082 114.381C80.9825 114.621 81.0734 114.898 81.081 115.21H80.2344ZM84.1783 115.136V115.818H81.7947V115.136H84.1783ZM82.4339 114.091H83.2834V118.219C83.2834 118.384 83.308 118.508 83.3572 118.591C83.4065 118.672 83.4699 118.728 83.5476 118.759C83.6271 118.787 83.7133 118.801 83.8061 118.801C83.8743 118.801 83.9339 118.796 83.9851 118.787C84.0362 118.777 84.076 118.77 84.1044 118.764L84.2578 119.466C84.2086 119.485 84.1385 119.504 84.0476 119.523C83.9567 119.544 83.843 119.555 83.7067 119.557C83.4832 119.561 83.2749 119.521 83.0817 119.438C82.8885 119.354 82.7322 119.225 82.6129 119.051C82.4936 118.877 82.4339 118.658 82.4339 118.395V114.091ZM86.3878 119.597C86.1113 119.597 85.8613 119.545 85.6378 119.443C85.4143 119.339 85.2372 119.188 85.1065 118.991C84.9777 118.795 84.9134 118.553 84.9134 118.267C84.9134 118.021 84.9607 117.818 85.0554 117.659C85.1501 117.5 85.2779 117.374 85.4389 117.281C85.5999 117.188 85.7798 117.118 85.9787 117.071C86.1776 117.024 86.3802 116.988 86.5866 116.963C86.848 116.933 87.0601 116.908 87.223 116.889C87.3859 116.868 87.5043 116.835 87.5781 116.79C87.652 116.744 87.6889 116.67 87.6889 116.568V116.548C87.6889 116.3 87.6188 116.108 87.4787 115.972C87.3404 115.835 87.134 115.767 86.8594 115.767C86.5734 115.767 86.348 115.83 86.1832 115.957C86.0204 116.082 85.9077 116.222 85.8452 116.375L85.0469 116.193C85.1416 115.928 85.2798 115.714 85.4616 115.551C85.6454 115.386 85.8565 115.267 86.0952 115.193C86.3338 115.117 86.5848 115.08 86.848 115.08C87.0223 115.08 87.2069 115.1 87.402 115.142C87.599 115.182 87.7827 115.256 87.9531 115.364C88.1255 115.472 88.2666 115.626 88.3764 115.827C88.4863 116.026 88.5412 116.284 88.5412 116.602V119.5H87.7116V118.903H87.6776C87.6226 119.013 87.5402 119.121 87.4304 119.227C87.3205 119.333 87.1795 119.421 87.0071 119.491C86.8348 119.562 86.6283 119.597 86.3878 119.597ZM86.5724 118.915C86.8073 118.915 87.008 118.868 87.1747 118.776C87.3433 118.683 87.4711 118.562 87.5582 118.412C87.6473 118.26 87.6918 118.098 87.6918 117.926V117.364C87.6615 117.394 87.6027 117.422 87.5156 117.449C87.4304 117.473 87.3329 117.495 87.223 117.514C87.1132 117.531 87.0062 117.547 86.902 117.562C86.7978 117.576 86.7107 117.587 86.6406 117.597C86.4759 117.617 86.3253 117.652 86.1889 117.702C86.0545 117.751 85.9465 117.822 85.8651 117.915C85.7855 118.006 85.7457 118.127 85.7457 118.278C85.7457 118.489 85.8234 118.648 85.9787 118.756C86.134 118.862 86.3319 118.915 86.5724 118.915ZM91.7095 115.136V115.818H89.326V115.136H91.7095ZM89.9652 114.091H90.8146V118.219C90.8146 118.384 90.8393 118.508 90.8885 118.591C90.9377 118.672 91.0012 118.728 91.0788 118.759C91.1584 118.787 91.2446 118.801 91.3374 118.801C91.4055 118.801 91.4652 118.796 91.5163 118.787C91.5675 118.777 91.6072 118.77 91.6357 118.764L91.7891 119.466C91.7398 119.485 91.6697 119.504 91.5788 119.523C91.4879 119.544 91.3743 119.555 91.2379 119.557C91.0144 119.561 90.8061 119.521 90.6129 119.438C90.4197 119.354 90.2635 119.225 90.1442 119.051C90.0249 118.877 89.9652 118.658 89.9652 118.395V114.091ZM94.483 119.588C94.053 119.588 93.6828 119.496 93.3722 119.312C93.0634 119.127 92.8248 118.866 92.6562 118.531C92.4896 118.194 92.4062 117.799 92.4062 117.347C92.4062 116.9 92.4896 116.506 92.6562 116.165C92.8248 115.824 93.0597 115.558 93.3608 115.366C93.6638 115.175 94.018 115.08 94.4233 115.08C94.6695 115.08 94.9081 115.12 95.1392 115.202C95.3703 115.283 95.5777 115.411 95.7614 115.585C95.9451 115.759 96.09 115.986 96.196 116.264C96.3021 116.541 96.3551 116.877 96.3551 117.273V117.574H92.8864V116.938H95.5227C95.5227 116.714 95.4773 116.516 95.3864 116.344C95.2955 116.17 95.1676 116.032 95.0028 115.932C94.84 115.831 94.6487 115.781 94.429 115.781C94.1903 115.781 93.982 115.84 93.804 115.957C93.6278 116.073 93.4915 116.224 93.3949 116.412C93.3002 116.598 93.2528 116.799 93.2528 117.017V117.514C93.2528 117.806 93.304 118.054 93.4062 118.259C93.5104 118.463 93.6553 118.619 93.8409 118.727C94.0265 118.833 94.2434 118.886 94.4915 118.886C94.6525 118.886 94.7992 118.864 94.9318 118.818C95.0644 118.771 95.179 118.701 95.2756 118.608C95.3722 118.515 95.446 118.401 95.4972 118.264L96.3011 118.409C96.2367 118.646 96.1212 118.853 95.9545 119.031C95.7898 119.207 95.5824 119.345 95.3324 119.443C95.0843 119.54 94.8011 119.588 94.483 119.588ZM100.567 116.202L99.7976 116.338C99.7654 116.24 99.7143 116.146 99.6442 116.057C99.576 115.968 99.4832 115.895 99.3658 115.838C99.2483 115.781 99.1016 115.753 98.9254 115.753C98.6849 115.753 98.4841 115.807 98.3232 115.915C98.1622 116.021 98.0817 116.158 98.0817 116.327C98.0817 116.473 98.1357 116.59 98.2436 116.679C98.3516 116.768 98.5258 116.841 98.7663 116.898L99.4595 117.057C99.861 117.15 100.16 117.293 100.357 117.486C100.554 117.679 100.653 117.93 100.653 118.239C100.653 118.5 100.577 118.733 100.425 118.938C100.276 119.14 100.067 119.299 99.7976 119.415C99.5305 119.53 99.2209 119.588 98.8686 119.588C98.38 119.588 97.9813 119.484 97.6726 119.276C97.3639 119.065 97.1745 118.767 97.1044 118.381L97.9254 118.256C97.9766 118.47 98.0817 118.632 98.2408 118.741C98.3999 118.849 98.6072 118.903 98.8629 118.903C99.1413 118.903 99.3639 118.846 99.5305 118.73C99.6972 118.613 99.7805 118.47 99.7805 118.301C99.7805 118.165 99.7294 118.05 99.6271 117.957C99.5268 117.865 99.3724 117.795 99.1641 117.747L98.4254 117.585C98.0182 117.492 97.7171 117.345 97.522 117.142C97.3288 116.939 97.2322 116.683 97.2322 116.372C97.2322 116.115 97.3042 115.889 97.4482 115.696C97.5921 115.503 97.791 115.352 98.0447 115.244C98.2985 115.134 98.5893 115.08 98.9169 115.08C99.3885 115.08 99.7597 115.182 100.031 115.386C100.301 115.589 100.48 115.861 100.567 116.202ZM105.542 119.588C105.133 119.588 104.776 119.494 104.471 119.307C104.166 119.119 103.929 118.857 103.761 118.52C103.592 118.183 103.508 117.789 103.508 117.338C103.508 116.885 103.592 116.49 103.761 116.151C103.929 115.812 104.166 115.548 104.471 115.361C104.776 115.173 105.133 115.08 105.542 115.08C105.951 115.08 106.308 115.173 106.613 115.361C106.918 115.548 107.155 115.812 107.323 116.151C107.492 116.49 107.576 116.885 107.576 117.338C107.576 117.789 107.492 118.183 107.323 118.52C107.155 118.857 106.918 119.119 106.613 119.307C106.308 119.494 105.951 119.588 105.542 119.588ZM105.545 118.875C105.81 118.875 106.03 118.805 106.204 118.665C106.378 118.525 106.507 118.338 106.59 118.105C106.675 117.872 106.718 117.616 106.718 117.335C106.718 117.057 106.675 116.801 106.59 116.568C106.507 116.333 106.378 116.145 106.204 116.003C106.03 115.861 105.81 115.79 105.545 115.79C105.278 115.79 105.056 115.861 104.88 116.003C104.706 116.145 104.576 116.333 104.491 116.568C104.407 116.801 104.366 117.057 104.366 117.335C104.366 117.616 104.407 117.872 104.491 118.105C104.576 118.338 104.706 118.525 104.88 118.665C105.056 118.805 105.278 118.875 105.545 118.875ZM110.601 115.136V115.818H108.135V115.136H110.601ZM108.811 119.5V114.631C108.811 114.358 108.871 114.132 108.99 113.952C109.109 113.77 109.268 113.634 109.464 113.545C109.661 113.455 109.875 113.409 110.107 113.409C110.277 113.409 110.423 113.423 110.544 113.452C110.665 113.478 110.755 113.503 110.814 113.526L110.615 114.213C110.575 114.202 110.524 114.188 110.462 114.173C110.399 114.156 110.323 114.148 110.234 114.148C110.028 114.148 109.88 114.199 109.791 114.301C109.704 114.403 109.661 114.551 109.661 114.744V119.5H108.811ZM114.154 119.5H113.222L115.316 113.682H116.33L118.424 119.5H117.492L115.847 114.739H115.802L114.154 119.5ZM114.31 117.222H117.333V117.96H114.31V117.222ZM119.196 119.5V115.136H120.011V115.847H120.065C120.156 115.606 120.305 115.419 120.511 115.284C120.718 115.148 120.965 115.08 121.253 115.08C121.545 115.08 121.789 115.148 121.986 115.284C122.185 115.42 122.331 115.608 122.426 115.847H122.472C122.576 115.614 122.741 115.428 122.969 115.29C123.196 115.15 123.467 115.08 123.781 115.08C124.177 115.08 124.5 115.204 124.75 115.452C125.002 115.7 125.128 116.074 125.128 116.574V119.5H124.278V116.653C124.278 116.358 124.198 116.144 124.037 116.011C123.876 115.879 123.684 115.812 123.46 115.812C123.184 115.812 122.969 115.898 122.815 116.068C122.662 116.237 122.585 116.454 122.585 116.719V119.5H121.739V116.599C121.739 116.363 121.665 116.172 121.517 116.028C121.369 115.884 121.177 115.812 120.94 115.812C120.779 115.812 120.631 115.855 120.494 115.94C120.36 116.024 120.251 116.14 120.168 116.29C120.086 116.439 120.045 116.613 120.045 116.81V119.5H119.196ZM128.147 119.588C127.717 119.588 127.347 119.496 127.036 119.312C126.728 119.127 126.489 118.866 126.32 118.531C126.154 118.194 126.07 117.799 126.07 117.347C126.07 116.9 126.154 116.506 126.32 116.165C126.489 115.824 126.724 115.558 127.025 115.366C127.328 115.175 127.682 115.08 128.087 115.08C128.334 115.08 128.572 115.12 128.803 115.202C129.034 115.283 129.242 115.411 129.425 115.585C129.609 115.759 129.754 115.986 129.86 116.264C129.966 116.541 130.019 116.877 130.019 117.273V117.574H126.55V116.938H129.187C129.187 116.714 129.141 116.516 129.05 116.344C128.96 116.17 128.832 116.032 128.667 115.932C128.504 115.831 128.313 115.781 128.093 115.781C127.854 115.781 127.646 115.84 127.468 115.957C127.292 116.073 127.156 116.224 127.059 116.412C126.964 116.598 126.917 116.799 126.917 117.017V117.514C126.917 117.806 126.968 118.054 127.07 118.259C127.174 118.463 127.319 118.619 127.505 118.727C127.691 118.833 127.907 118.886 128.156 118.886C128.317 118.886 128.463 118.864 128.596 118.818C128.728 118.771 128.843 118.701 128.94 118.608C129.036 118.515 129.11 118.401 129.161 118.264L129.965 118.409C129.901 118.646 129.785 118.853 129.619 119.031C129.454 119.207 129.246 119.345 128.996 119.443C128.748 119.54 128.465 119.588 128.147 119.588ZM130.962 119.5V115.136H131.783V115.83H131.828C131.908 115.595 132.048 115.41 132.249 115.276C132.451 115.139 132.68 115.071 132.936 115.071C132.989 115.071 133.052 115.073 133.124 115.077C133.197 115.08 133.255 115.085 133.297 115.091V115.903C133.263 115.894 133.202 115.884 133.115 115.872C133.028 115.859 132.941 115.852 132.854 115.852C132.653 115.852 132.474 115.895 132.317 115.98C132.161 116.063 132.038 116.18 131.947 116.33C131.857 116.477 131.811 116.646 131.811 116.835V119.5H130.962ZM134.032 119.5V115.136H134.881V119.5H134.032ZM134.461 114.463C134.313 114.463 134.186 114.414 134.08 114.315C133.976 114.215 133.924 114.096 133.924 113.957C133.924 113.817 133.976 113.698 134.08 113.599C134.186 113.499 134.313 113.449 134.461 113.449C134.609 113.449 134.735 113.499 134.839 113.599C134.945 113.698 134.998 113.817 134.998 113.957C134.998 114.096 134.945 114.215 134.839 114.315C134.735 114.414 134.609 114.463 134.461 114.463ZM137.862 119.588C137.44 119.588 137.076 119.492 136.771 119.301C136.468 119.108 136.235 118.842 136.072 118.503C135.91 118.164 135.828 117.776 135.828 117.338C135.828 116.895 135.911 116.504 136.078 116.165C136.245 115.824 136.48 115.558 136.783 115.366C137.086 115.175 137.443 115.08 137.854 115.08C138.185 115.08 138.481 115.141 138.74 115.264C139 115.385 139.209 115.556 139.368 115.776C139.529 115.995 139.625 116.252 139.655 116.545H138.828C138.783 116.341 138.679 116.165 138.516 116.017C138.355 115.869 138.139 115.795 137.868 115.795C137.631 115.795 137.424 115.858 137.246 115.983C137.07 116.106 136.932 116.282 136.834 116.511C136.735 116.739 136.686 117.008 136.686 117.318C136.686 117.636 136.734 117.911 136.831 118.142C136.928 118.373 137.064 118.552 137.24 118.679C137.418 118.806 137.627 118.869 137.868 118.869C138.029 118.869 138.175 118.84 138.305 118.781C138.438 118.721 138.549 118.634 138.638 118.523C138.729 118.411 138.792 118.277 138.828 118.119H139.655C139.625 118.402 139.533 118.653 139.379 118.875C139.226 119.097 139.02 119.271 138.763 119.398C138.507 119.525 138.207 119.588 137.862 119.588ZM141.833 119.597C141.557 119.597 141.307 119.545 141.083 119.443C140.86 119.339 140.683 119.188 140.552 118.991C140.423 118.795 140.359 118.553 140.359 118.267C140.359 118.021 140.406 117.818 140.501 117.659C140.595 117.5 140.723 117.374 140.884 117.281C141.045 117.188 141.225 117.118 141.424 117.071C141.623 117.024 141.826 116.988 142.032 116.963C142.293 116.933 142.505 116.908 142.668 116.889C142.831 116.868 142.95 116.835 143.023 116.79C143.097 116.744 143.134 116.67 143.134 116.568V116.548C143.134 116.3 143.064 116.108 142.924 115.972C142.786 115.835 142.579 115.767 142.305 115.767C142.019 115.767 141.793 115.83 141.629 115.957C141.466 116.082 141.353 116.222 141.29 116.375L140.492 116.193C140.587 115.928 140.725 115.714 140.907 115.551C141.091 115.386 141.302 115.267 141.54 115.193C141.779 115.117 142.03 115.08 142.293 115.08C142.468 115.08 142.652 115.1 142.847 115.142C143.044 115.182 143.228 115.256 143.398 115.364C143.571 115.472 143.712 115.626 143.822 115.827C143.932 116.026 143.987 116.284 143.987 116.602V119.5H143.157V118.903H143.123C143.068 119.013 142.986 119.121 142.876 119.227C142.766 119.333 142.625 119.421 142.452 119.491C142.28 119.562 142.074 119.597 141.833 119.597ZM142.018 118.915C142.253 118.915 142.453 118.868 142.62 118.776C142.789 118.683 142.916 118.562 143.004 118.412C143.093 118.26 143.137 118.098 143.137 117.926V117.364C143.107 117.394 143.048 117.422 142.961 117.449C142.876 117.473 142.778 117.495 142.668 117.514C142.558 117.531 142.451 117.547 142.347 117.562C142.243 117.576 142.156 117.587 142.086 117.597C141.921 117.617 141.771 117.652 141.634 117.702C141.5 117.751 141.392 117.822 141.31 117.915C141.231 118.006 141.191 118.127 141.191 118.278C141.191 118.489 141.269 118.648 141.424 118.756C141.579 118.862 141.777 118.915 142.018 118.915Z" fill="white"/>
</g>
<path d="M5 130.5H203" stroke="url(#paint8_linear_951_18106)"/>
<path d="M10 135.5H198" stroke="url(#paint9_linear_951_18106)"/>
<defs>
<filter id="filter0_d_951_18106" x="27" y="21.5" width="154" height="50" filterUnits="userSpaceOnUse" color-interpolation-filters="sRGB">
<feFlood flood-opacity="0" result="BackgroundImageFix"/>
<feColorMatrix in="SourceAlpha" type="matrix" values="0 0 0 0 0 0 0 0 0 0 0 0 0 0 0 0 0 0 127 0" result="hardAlpha"/>
<feOffset dy="6"/>
<feGaussianBlur stdDeviation="6"/>
<feComposite in2="hardAlpha" operator="out"/>
<feColorMatrix type="matrix" values="0 0 0 0 0 0 0 0 0 0 0 0 0 0 0 0 0 0 0.03 0"/>
<feBlend mode="normal" in2="BackgroundImageFix" result="effect1_dropShadow_951_18106"/>
<feBlend mode="normal" in="SourceGraphic" in2="effect1_dropShadow_951_18106" result="shape"/>
</filter>
<filter id="filter1_d_951_18106" x="27" y="53.5" width="154" height="94" filterUnits="userSpaceOnUse" color-interpolation-filters="sRGB">
<feFlood flood-opacity="0" result="BackgroundImageFix"/>
<feColorMatrix in="SourceAlpha" type="matrix" values="0 0 0 0 0 0 0 0 0 0 0 0 0 0 0 0 0 0 127 0" result="hardAlpha"/>
<feOffset dy="6"/>
<feGaussianBlur stdDeviation="6"/>
<feComposite in2="hardAlpha" operator="out"/>
<feColorMatrix type="matrix" values="0 0 0 0 0 0 0 0 0 0 0 0 0 0 0 0 0 0 0.03 0"/>
<feBlend mode="normal" in2="BackgroundImageFix" result="effect1_dropShadow_951_18106"/>
<feBlend mode="normal" in="SourceGraphic" in2="effect1_dropShadow_951_18106" result="shape"/>
</filter>
<linearGradient id="paint0_linear_951_18106" x1="33.5" y1="153" x2="33.5" y2="5" gradientUnits="userSpaceOnUse">
<stop offset="0%" stop-color="white" stop-opacity="0"/>
<stop offset="0.185417" stop-color="white" stop-opacity="0.1"/>
<stop offset="0.826042" stop-color="white" stop-opacity="0.1"/>
<stop offset="1" stop-color="white" stop-opacity="0"/>
</linearGradient>
<linearGradient id="paint1_linear_951_18106" x1="38.5" y1="158" x2="38.5" y2="-2.74062e-08" gradientUnits="userSpaceOnUse">
<stop offset="0%" stop-color="white" stop-opacity="0"/>
<stop offset="0.185417" stop-color="white" stop-opacity="0.1"/>
<stop offset="0.826042" stop-color="white" stop-opacity="0.1"/>
<stop offset="1" stop-color="white" stop-opacity="0"/>
</linearGradient>
<linearGradient id="paint2_linear_951_18106" x1="170.5" y1="2.74063e-08" x2="170.5" y2="158" gradientUnits="userSpaceOnUse">
<stop offset="0%" stop-color="white" stop-opacity="0"/>
<stop offset="0.185417" stop-color="white" stop-opacity="0.1"/>
<stop offset="0.826042" stop-color="white" stop-opacity="0.1"/>
<stop offset="1" stop-color="white" stop-opacity="0"/>
</linearGradient>
<linearGradient id="paint3_linear_951_18106" x1="175.5" y1="5" x2="175.5" y2="153" gradientUnits="userSpaceOnUse">
<stop offset="0%" stop-color="white" stop-opacity="0"/>
<stop offset="0.185417" stop-color="white" stop-opacity="0.1"/>
<stop offset="0.826042" stop-color="white" stop-opacity="0.1"/>
<stop offset="1" stop-color="white" stop-opacity="0"/>
</linearGradient>
<linearGradient id="paint4_linear_951_18106" x1="199.899" y1="23" x2="10" y2="22.9999" gradientUnits="userSpaceOnUse">
<stop offset="0%" stop-color="white" stop-opacity="0"/>
<stop offset="0.185417" stop-color="white" stop-opacity="0.1"/>
<stop offset="0.826042" stop-color="white" stop-opacity="0.1"/>
<stop offset="1" stop-color="white" stop-opacity="0"/>
</linearGradient>
<linearGradient id="paint5_linear_951_18106" x1="205" y1="28" x2="5" y2="27.9999" gradientUnits="userSpaceOnUse">
<stop offset="0%" stop-color="white" stop-opacity="0"/>
<stop offset="0.185417" stop-color="white" stop-opacity="0.1"/>
<stop offset="0.826042" stop-color="white" stop-opacity="0.1"/>
<stop offset="1" stop-color="white" stop-opacity="0"/>
</linearGradient>
<linearGradient id="paint6_linear_951_18106" x1="58.3143" y1="30.204" x2="78.5682" y2="85.6942" gradientUnits="userSpaceOnUse">
<stop offset="0%" stop-color="#A855F7"/>
<stop offset="1" stop-color="#3B82F6"/>
</linearGradient>
<linearGradient id="paint7_linear_951_18106" x1="58.3143" y1="66.78" x2="142.951" y2="152.908" gradientUnits="userSpaceOnUse">
<stop offset="0%" stop-color="#A855F7"/>
<stop offset="1" stop-color="#3B82F6"/>
</linearGradient>
<linearGradient id="paint8_linear_951_18106" x1="205" y1="131" x2="5" y2="131" gradientUnits="userSpaceOnUse">
<stop offset="0%" stop-color="white" stop-opacity="0"/>
<stop offset="0.185417" stop-color="white" stop-opacity="0.1"/>
<stop offset="0.826042" stop-color="white" stop-opacity="0.1"/>
<stop offset="1" stop-color="white" stop-opacity="0"/>
</linearGradient>
<linearGradient id="paint9_linear_951_18106" x1="199.899" y1="136" x2="10" y2="136" gradientUnits="userSpaceOnUse">
<stop offset="0%" stop-color="white" stop-opacity="0"/>
<stop offset="0.185417" stop-color="white" stop-opacity="0.1"/>
<stop offset="0.826042" stop-color="white" stop-opacity="0.1"/>
<stop offset="1" stop-color="white" stop-opacity="0"/>
</linearGradient>
</defs>
</svg>
