<svg width="208" height="158" viewBox="0 0 208 158" fill="none" xmlns="http://www.w3.org/2000/svg">
<path d="M20 153L20 5" stroke="url(#paint0_linear_167_21144)"/>
<path d="M25 158L25 -5.24521e-06" stroke="url(#paint1_linear_167_21144)"/>
<path d="M183 0L183 158" stroke="url(#paint2_linear_167_21144)"/>
<path d="M188 5L188 153" stroke="url(#paint3_linear_167_21144)"/>
<path d="M10 31H198" stroke="url(#paint4_linear_167_21144)"/>
<path d="M5 36H203" stroke="url(#paint5_linear_167_21144)"/>
<g filter="url(#filter0_d_167_21144)">
<path d="M26 42C26 38.6863 28.6863 36 32 36H176C179.314 36 182 38.6863 182 42V58C182 61.3137 179.314 64 176 64H32C28.6863 64 26 61.3137 26 58V42Z" fill="url(#paint6_linear_167_21144)"/>
<path d="M42.669 46.7273V54H41.6605L37.9638 48.6662H37.8963V54H36.799V46.7273H37.8146L41.5149 52.0682H41.5824V46.7273H42.669ZM45.7718 54.1207C45.4262 54.1207 45.1137 54.0568 44.8343 53.929C44.555 53.7988 44.3336 53.6106 44.1703 53.3643C44.0093 53.1181 43.9288 52.8163 43.9288 52.4588C43.9288 52.151 43.988 51.8977 44.1064 51.6989C44.2247 51.5 44.3845 51.3426 44.5858 51.2266C44.787 51.1106 45.0119 51.023 45.2605 50.9638C45.5091 50.9046 45.7624 50.8596 46.0204 50.8288C46.3471 50.791 46.6123 50.7602 46.8159 50.7365C47.0195 50.7105 47.1674 50.669 47.2598 50.6122C47.3521 50.5554 47.3983 50.4631 47.3983 50.3352V50.3104C47.3983 50.0002 47.3107 49.7599 47.1355 49.5895C46.9627 49.419 46.7046 49.3338 46.3613 49.3338C46.0038 49.3338 45.7221 49.4131 45.5162 49.5717C45.3126 49.728 45.1717 49.902 45.0936 50.0938L44.0957 49.8665C44.2141 49.535 44.3869 49.2675 44.6142 49.0639C44.8438 48.858 45.1078 48.7088 45.4061 48.6165C45.7044 48.5218 46.0181 48.4744 46.3471 48.4744C46.5649 48.4744 46.7958 48.5005 47.0396 48.5526C47.2858 48.6023 47.5154 48.6946 47.7285 48.8295C47.944 48.9645 48.1203 49.1574 48.2576 49.4084C48.3949 49.657 48.4636 49.9801 48.4636 50.3778V54H47.4267V53.2543H47.3841C47.3154 53.3916 47.2124 53.5265 47.0751 53.6591C46.9378 53.7917 46.7614 53.9018 46.546 53.9893C46.3306 54.0769 46.0725 54.1207 45.7718 54.1207ZM46.0027 53.2685C46.2962 53.2685 46.5472 53.2105 46.7555 53.0945C46.9662 52.9785 47.126 52.8269 47.2349 52.6399C47.3462 52.4505 47.4018 52.2481 47.4018 52.0327V51.3295C47.3639 51.3674 47.2905 51.4029 47.1816 51.4361C47.0751 51.4669 46.9532 51.4941 46.8159 51.5178C46.6786 51.5391 46.5448 51.5592 46.4146 51.5781C46.2844 51.5947 46.1755 51.6089 46.0879 51.6207C45.8819 51.6468 45.6937 51.6906 45.5233 51.7521C45.3552 51.8137 45.2202 51.9025 45.1184 52.0185C45.019 52.1321 44.9693 52.2836 44.9693 52.473C44.9693 52.7358 45.0663 52.9347 45.2605 53.0696C45.4546 53.2022 45.702 53.2685 46.0027 53.2685ZM49.8778 54V48.5455H50.897V49.4332H50.9645C51.0781 49.1326 51.264 48.8982 51.522 48.7301C51.7801 48.5597 52.089 48.4744 52.4489 48.4744C52.8134 48.4744 53.1188 48.5597 53.3651 48.7301C53.6136 48.9006 53.7971 49.1349 53.9155 49.4332H53.9723C54.1025 49.142 54.3097 48.91 54.5938 48.7372C54.8778 48.562 55.2164 48.4744 55.6094 48.4744C56.1042 48.4744 56.5078 48.6295 56.8203 48.9396C57.1352 49.2498 57.2926 49.7173 57.2926 50.3423V54H56.2308V50.4418C56.2308 50.0724 56.1302 49.8049 55.929 49.6392C55.7277 49.4735 55.4875 49.3906 55.2081 49.3906C54.8625 49.3906 54.5938 49.4972 54.402 49.7102C54.2102 49.9209 54.1143 50.192 54.1143 50.5234V54H53.0561V50.3743C53.0561 50.0784 52.9638 49.8404 52.7791 49.6605C52.5945 49.4806 52.3542 49.3906 52.0582 49.3906C51.857 49.3906 51.6712 49.4439 51.5007 49.5504C51.3326 49.6546 51.1965 49.8002 51.0923 49.9872C50.9905 50.1742 50.9396 50.3909 50.9396 50.6371V54H49.8778ZM61.0666 54.1101C60.5292 54.1101 60.0663 53.9953 59.6781 53.7656C59.2922 53.5336 58.9939 53.2081 58.7832 52.7891C58.5749 52.3677 58.4707 51.8741 58.4707 51.3082C58.4707 50.7495 58.5749 50.2571 58.7832 49.831C58.9939 49.4048 59.2875 49.0722 59.6639 48.8331C60.0427 48.594 60.4854 48.4744 60.992 48.4744C61.2998 48.4744 61.5981 48.5253 61.8869 48.6271C62.1757 48.7289 62.435 48.8887 62.6646 49.1065C62.8942 49.3243 63.0753 49.6072 63.2079 49.9553C63.3405 50.3009 63.4068 50.7211 63.4068 51.2159V51.5923H59.0708V50.7969H62.3663C62.3663 50.5175 62.3095 50.2701 62.1958 50.0547C62.0822 49.8369 61.9224 49.6652 61.7164 49.5398C61.5128 49.4143 61.2737 49.3516 60.9991 49.3516C60.7008 49.3516 60.4404 49.425 60.2179 49.5717C59.9977 49.7161 59.8272 49.9055 59.7065 50.1399C59.5881 50.3719 59.5289 50.6241 59.5289 50.8963V51.5178C59.5289 51.8823 59.5929 52.1925 59.7207 52.4482C59.8509 52.7038 60.032 52.8991 60.264 53.0341C60.496 53.1667 60.7671 53.233 61.0772 53.233C61.2785 53.233 61.4619 53.2045 61.6277 53.1477C61.7934 53.0885 61.9366 53.0009 62.0574 52.8849C62.1781 52.7689 62.2704 52.6257 62.3343 52.4553L63.3393 52.6364C63.2588 52.9323 63.1144 53.1915 62.9061 53.4141C62.7001 53.6342 62.4409 53.8059 62.1284 53.929C61.8182 54.0497 61.4643 54.1101 61.0666 54.1101Z" fill="white"/>
<path d="M32 36.5H176C179.038 36.5 181.5 38.9624 181.5 42V58C181.5 61.0376 179.038 63.5 176 63.5H32C28.9624 63.5 26.5 61.0376 26.5 58V42C26.5 38.9624 28.9624 36.5 32 36.5Z" stroke="white" stroke-opacity="0.2"/>
</g>
<g filter="url(#filter1_d_167_21144)">
<path d="M26 75C26 71.6863 28.6863 69 32 69H176C179.314 69 182 71.6863 182 75V91C182 94.3137 179.314 97 176 97H32C28.6863 97 26 94.3137 26 91V75Z" fill="url(#paint7_linear_167_21144)" fill-opacity="0.2" shape-rendering="crispEdges"/>
<path d="M36.799 87V79.7273H39.3913C39.9571 79.7273 40.4259 79.8303 40.7976 80.0362C41.1693 80.2422 41.4474 80.5239 41.6321 80.8814C41.8168 81.2365 41.9091 81.6366 41.9091 82.0817C41.9091 82.5291 41.8156 82.9316 41.6286 83.2891C41.4439 83.6442 41.1645 83.9259 40.7905 84.1342C40.4188 84.3402 39.9512 84.4432 39.3878 84.4432H37.6051V83.5128H39.2884C39.6458 83.5128 39.9358 83.4512 40.1584 83.3281C40.3809 83.2027 40.5443 83.0322 40.6484 82.8168C40.7526 82.6013 40.8047 82.3563 40.8047 82.0817C40.8047 81.8071 40.7526 81.5632 40.6484 81.3501C40.5443 81.1371 40.3797 80.9702 40.1548 80.8494C39.9323 80.7287 39.6387 80.6683 39.2741 80.6683H37.8963V87H36.799ZM44.1721 83.7614V87H43.1103V79.7273H44.1578V82.4332H44.2253C44.3532 82.1397 44.5485 81.9065 44.8113 81.7337C45.074 81.5608 45.4173 81.4744 45.8411 81.4744C46.2151 81.4744 46.5418 81.5514 46.8212 81.7053C47.1029 81.8591 47.3207 82.0888 47.4746 82.3942C47.6309 82.6972 47.709 83.076 47.709 83.5305V87H46.6472V83.6584C46.6472 83.2583 46.5442 82.9482 46.3382 82.728C46.1323 82.5054 45.8458 82.3942 45.4789 82.3942C45.2279 82.3942 45.003 82.4474 44.8042 82.554C44.6077 82.6605 44.4526 82.8168 44.339 83.0227C44.2277 83.2263 44.1721 83.4725 44.1721 83.7614ZM51.4235 87.1101C50.9121 87.1101 50.4658 86.9929 50.0847 86.7585C49.7035 86.5241 49.4076 86.1963 49.1969 85.7749C48.9862 85.3535 48.8809 84.861 48.8809 84.2976C48.8809 83.7318 48.9862 83.237 49.1969 82.8132C49.4076 82.3894 49.7035 82.0604 50.0847 81.826C50.4658 81.5916 50.9121 81.4744 51.4235 81.4744C51.9348 81.4744 52.3811 81.5916 52.7623 81.826C53.1434 82.0604 53.4393 82.3894 53.65 82.8132C53.8607 83.237 53.9661 83.7318 53.9661 84.2976C53.9661 84.861 53.8607 85.3535 53.65 85.7749C53.4393 86.1963 53.1434 86.5241 52.7623 86.7585C52.3811 86.9929 51.9348 87.1101 51.4235 87.1101ZM51.427 86.2188C51.7585 86.2188 52.0331 86.1312 52.2509 85.956C52.4687 85.7808 52.6297 85.5476 52.7338 85.2564C52.8404 84.9652 52.8936 84.6444 52.8936 84.294C52.8936 83.946 52.8404 83.6264 52.7338 83.3352C52.6297 83.0417 52.4687 82.8061 52.2509 82.6286C52.0331 82.451 51.7585 82.3622 51.427 82.3622C51.0932 82.3622 50.8162 82.451 50.5961 82.6286C50.3783 82.8061 50.2161 83.0417 50.1096 83.3352C50.0054 83.6264 49.9533 83.946 49.9533 84.294C49.9533 84.6444 50.0054 84.9652 50.1096 85.2564C50.2161 85.5476 50.3783 85.7808 50.5961 85.956C50.8162 86.1312 51.0932 86.2188 51.427 86.2188ZM56.2131 83.7614V87H55.1513V81.5455H56.1705V82.4332H56.2379C56.3634 82.1444 56.5599 81.9124 56.8274 81.7372C57.0973 81.562 57.437 81.4744 57.8466 81.4744C58.2183 81.4744 58.5438 81.5526 58.8232 81.7088C59.1025 81.8627 59.3191 82.0923 59.473 82.3977C59.6269 82.7031 59.7038 83.0807 59.7038 83.5305V87H58.642V83.6584C58.642 83.263 58.5391 82.9541 58.3331 82.7315C58.1271 82.5066 57.8442 82.3942 57.4844 82.3942C57.2382 82.3942 57.0192 82.4474 56.8274 82.554C56.638 82.6605 56.4877 82.8168 56.3764 83.0227C56.2675 83.2263 56.2131 83.4725 56.2131 83.7614ZM63.4787 87.1101C62.9413 87.1101 62.4785 86.9953 62.0902 86.7656C61.7043 86.5336 61.406 86.2081 61.1953 85.7891C60.987 85.3677 60.8828 84.8741 60.8828 84.3082C60.8828 83.7495 60.987 83.2571 61.1953 82.831C61.406 82.4048 61.6996 82.0722 62.076 81.8331C62.4548 81.594 62.8975 81.4744 63.4041 81.4744C63.7119 81.4744 64.0102 81.5253 64.299 81.6271C64.5878 81.7289 64.8471 81.8887 65.0767 82.1065C65.3063 82.3243 65.4875 82.6072 65.62 82.9553C65.7526 83.3009 65.8189 83.7211 65.8189 84.2159V84.5923H61.483V83.7969H64.7784C64.7784 83.5175 64.7216 83.2701 64.608 83.0547C64.4943 82.8369 64.3345 82.6652 64.1286 82.5398C63.925 82.4143 63.6858 82.3516 63.4112 82.3516C63.1129 82.3516 62.8525 82.425 62.63 82.5717C62.4098 82.7161 62.2393 82.9055 62.1186 83.1399C62.0002 83.3719 61.9411 83.6241 61.9411 83.8963V84.5178C61.9411 84.8823 62.005 85.1925 62.1328 85.4482C62.263 85.7038 62.4441 85.8991 62.6761 86.0341C62.9081 86.1667 63.1792 86.233 63.4893 86.233C63.6906 86.233 63.8741 86.2045 64.0398 86.1477C64.2055 86.0885 64.3487 86.0009 64.4695 85.8849C64.5902 85.7689 64.6825 85.6257 64.7464 85.4553L65.7514 85.6364C65.6709 85.9323 65.5265 86.1915 65.3182 86.4141C65.1122 86.6342 64.853 86.8059 64.5405 86.929C64.2304 87.0497 63.8764 87.1101 63.4787 87.1101Z" fill="url(#paint8_linear_167_21144)"/>
</g>
<path d="M125 112C125 106.477 129.477 102 135 102H172C177.523 102 182 106.477 182 112V112C182 117.523 177.523 122 172 122H135C129.477 122 125 117.523 125 112V112Z" fill="url(#paint9_linear_167_21144)"/>
<path d="M134 109.5C134.083 109.5 134.162 109.533 134.221 109.592C134.28 109.65 134.312 109.73 134.312 109.812V111.688H136.188C136.27 111.688 136.35 111.72 136.408 111.779C136.467 111.838 136.5 111.917 136.5 112C136.5 112.083 136.467 112.162 136.408 112.221C136.35 112.28 136.27 112.312 136.188 112.312H134.312V114.188C134.312 114.27 134.28 114.35 134.221 114.408C134.162 114.467 134.083 114.5 134 114.5C133.917 114.5 133.838 114.467 133.779 114.408C133.72 114.35 133.688 114.27 133.688 114.188V112.312H131.812C131.73 112.312 131.65 112.28 131.592 112.221C131.533 112.162 131.5 112.083 131.5 112C131.5 111.917 131.533 111.838 131.592 111.779C131.65 111.72 131.73 111.688 131.812 111.688H133.688V109.812C133.688 109.73 133.72 109.65 133.779 109.592C133.838 109.533 133.917 109.5 134 109.5V109.5Z" fill="white"/>
<path d="M142.101 115H141.285L143.118 109.909H144.005L145.837 115H145.022L143.582 110.834H143.543L142.101 115ZM142.238 113.006H144.882V113.653H142.238V113.006ZM147.915 115.075C147.607 115.075 147.332 114.996 147.09 114.838C146.85 114.679 146.661 114.453 146.523 114.16C146.387 113.865 146.319 113.511 146.319 113.098C146.319 112.686 146.388 112.333 146.526 112.039C146.665 111.746 146.856 111.522 147.097 111.366C147.339 111.21 147.614 111.132 147.92 111.132C148.157 111.132 148.348 111.172 148.492 111.251C148.638 111.329 148.751 111.42 148.83 111.525C148.911 111.629 148.974 111.721 149.019 111.801H149.064V109.909H149.807V115H149.081V114.406H149.019C148.974 114.487 148.91 114.58 148.825 114.684C148.742 114.789 148.628 114.88 148.482 114.958C148.336 115.036 148.147 115.075 147.915 115.075ZM148.079 114.441C148.293 114.441 148.474 114.384 148.621 114.272C148.77 114.157 148.883 113.999 148.959 113.797C149.037 113.595 149.076 113.359 149.076 113.091C149.076 112.826 149.038 112.594 148.962 112.395C148.886 112.196 148.774 112.041 148.626 111.93C148.479 111.819 148.296 111.763 148.079 111.763C147.856 111.763 147.669 111.821 147.52 111.938C147.371 112.054 147.258 112.212 147.182 112.412C147.107 112.613 147.07 112.839 147.07 113.091C147.07 113.346 147.108 113.576 147.184 113.779C147.261 113.983 147.373 114.145 147.523 114.264C147.673 114.382 147.859 114.441 148.079 114.441ZM152.332 115.075C152.024 115.075 151.749 114.996 151.507 114.838C151.267 114.679 151.078 114.453 150.94 114.16C150.804 113.865 150.736 113.511 150.736 113.098C150.736 112.686 150.805 112.333 150.943 112.039C151.082 111.746 151.272 111.522 151.514 111.366C151.756 111.21 152.031 111.132 152.337 111.132C152.574 111.132 152.765 111.172 152.909 111.251C153.055 111.329 153.167 111.42 153.247 111.525C153.328 111.629 153.391 111.721 153.436 111.801H153.481V109.909H154.224V115H153.498V114.406H153.436C153.391 114.487 153.326 114.58 153.242 114.684C153.159 114.789 153.045 114.88 152.899 114.958C152.753 115.036 152.564 115.075 152.332 115.075ZM152.496 114.441C152.71 114.441 152.891 114.384 153.038 114.272C153.187 114.157 153.3 113.999 153.376 113.797C153.454 113.595 153.493 113.359 153.493 113.091C153.493 112.826 153.455 112.594 153.379 112.395C153.302 112.196 153.191 112.041 153.043 111.93C152.896 111.819 152.713 111.763 152.496 111.763C152.272 111.763 152.086 111.821 151.937 111.938C151.788 112.054 151.675 112.212 151.599 112.412C151.524 112.613 151.487 112.839 151.487 113.091C151.487 113.346 151.525 113.576 151.601 113.779C151.678 113.983 151.79 114.145 151.939 114.264C152.09 114.382 152.276 114.441 152.496 114.441ZM157.207 116.432V111.182H157.933V111.801H157.995C158.038 111.721 158.1 111.629 158.182 111.525C158.263 111.42 158.375 111.329 158.52 111.251C158.664 111.172 158.854 111.132 159.091 111.132C159.4 111.132 159.675 111.21 159.917 111.366C160.159 111.522 160.348 111.746 160.486 112.039C160.625 112.333 160.695 112.686 160.695 113.098C160.695 113.511 160.626 113.865 160.488 114.16C160.351 114.453 160.162 114.679 159.922 114.838C159.681 114.996 159.407 115.075 159.099 115.075C158.867 115.075 158.677 115.036 158.53 114.958C158.384 114.88 158.269 114.789 158.187 114.684C158.104 114.58 158.04 114.487 157.995 114.406H157.95V116.432H157.207ZM157.936 113.091C157.936 113.359 157.974 113.595 158.052 113.797C158.13 113.999 158.243 114.157 158.39 114.272C158.538 114.384 158.719 114.441 158.932 114.441C159.154 114.441 159.34 114.382 159.489 114.264C159.638 114.145 159.751 113.983 159.827 113.779C159.905 113.576 159.944 113.346 159.944 113.091C159.944 112.839 159.906 112.613 159.83 112.412C159.755 112.212 159.642 112.054 159.492 111.938C159.342 111.821 159.156 111.763 158.932 111.763C158.717 111.763 158.535 111.819 158.385 111.93C158.238 112.041 158.126 112.196 158.05 112.395C157.974 112.594 157.936 112.826 157.936 113.091ZM162.306 112.733V115H161.562V109.909H162.296V111.803H162.343C162.433 111.598 162.569 111.435 162.753 111.314C162.937 111.193 163.177 111.132 163.474 111.132C163.736 111.132 163.965 111.186 164.16 111.294C164.357 111.401 164.51 111.562 164.618 111.776C164.727 111.988 164.782 112.253 164.782 112.571V115H164.038V112.661C164.038 112.381 163.966 112.164 163.822 112.01C163.678 111.854 163.477 111.776 163.221 111.776C163.045 111.776 162.887 111.813 162.748 111.888C162.611 111.962 162.502 112.072 162.423 112.216C162.345 112.358 162.306 112.531 162.306 112.733ZM167.417 115.077C167.059 115.077 166.746 114.995 166.48 114.831C166.213 114.667 166.006 114.437 165.858 114.142C165.711 113.847 165.637 113.503 165.637 113.108C165.637 112.712 165.711 112.366 165.858 112.069C166.006 111.773 166.213 111.542 166.48 111.378C166.746 111.214 167.059 111.132 167.417 111.132C167.775 111.132 168.087 111.214 168.354 111.378C168.621 111.542 168.828 111.773 168.975 112.069C169.123 112.366 169.197 112.712 169.197 113.108C169.197 113.503 169.123 113.847 168.975 114.142C168.828 114.437 168.621 114.667 168.354 114.831C168.087 114.995 167.775 115.077 167.417 115.077ZM167.419 114.453C167.651 114.453 167.843 114.392 167.996 114.269C168.148 114.147 168.261 113.983 168.334 113.779C168.409 113.576 168.446 113.351 168.446 113.106C168.446 112.862 168.409 112.638 168.334 112.435C168.261 112.229 168.148 112.064 167.996 111.94C167.843 111.816 167.651 111.754 167.419 111.754C167.186 111.754 166.992 111.816 166.838 111.94C166.685 112.064 166.572 112.229 166.497 112.435C166.424 112.638 166.388 112.862 166.388 113.106C166.388 113.351 166.424 113.576 166.497 113.779C166.572 113.983 166.685 114.147 166.838 114.269C166.992 114.392 167.186 114.453 167.419 114.453ZM170.804 112.733V115H170.061V111.182H170.775V111.803H170.822C170.91 111.601 171.047 111.439 171.234 111.316C171.423 111.193 171.661 111.132 171.948 111.132C172.208 111.132 172.436 111.187 172.632 111.296C172.827 111.404 172.979 111.565 173.086 111.778C173.194 111.992 173.248 112.257 173.248 112.571V115H172.505V112.661C172.505 112.384 172.433 112.168 172.288 112.012C172.144 111.855 171.946 111.776 171.694 111.776C171.522 111.776 171.369 111.813 171.234 111.888C171.102 111.962 170.997 112.072 170.919 112.216C170.843 112.358 170.804 112.531 170.804 112.733ZM175.925 115.077C175.549 115.077 175.225 114.997 174.953 114.836C174.683 114.674 174.475 114.446 174.327 114.152C174.181 113.857 174.108 113.512 174.108 113.116C174.108 112.725 174.181 112.38 174.327 112.082C174.475 111.783 174.68 111.551 174.943 111.383C175.209 111.216 175.519 111.132 175.873 111.132C176.089 111.132 176.297 111.168 176.5 111.239C176.702 111.31 176.883 111.422 177.044 111.575C177.205 111.727 177.332 111.925 177.424 112.169C177.517 112.411 177.564 112.705 177.564 113.051V113.315H174.528V112.758H176.835C176.835 112.562 176.795 112.389 176.716 112.238C176.636 112.086 176.524 111.966 176.38 111.878C176.238 111.79 176.07 111.746 175.878 111.746C175.669 111.746 175.487 111.797 175.331 111.9C175.177 112.001 175.058 112.134 174.973 112.298C174.89 112.46 174.849 112.637 174.849 112.827V113.262C174.849 113.518 174.894 113.735 174.983 113.914C175.074 114.093 175.201 114.229 175.364 114.324C175.526 114.417 175.716 114.463 175.933 114.463C176.074 114.463 176.202 114.443 176.318 114.403C176.434 114.362 176.534 114.301 176.619 114.219C176.703 114.138 176.768 114.038 176.813 113.919L177.516 114.045C177.46 114.253 177.359 114.434 177.213 114.59C177.069 114.744 176.887 114.864 176.669 114.95C176.452 115.035 176.204 115.077 175.925 115.077Z" fill="white"/>
<path d="M5 122H203" stroke="url(#paint10_linear_167_21144)"/>
<path d="M10 127H198" stroke="url(#paint11_linear_167_21144)"/>
<defs>
<filter id="filter0_d_167_21144" x="14" y="30" width="180" height="52" filterUnits="userSpaceOnUse" color-interpolation-filters="sRGB">
<feFlood flood-opacity="0" result="BackgroundImageFix"/>
<feColorMatrix in="SourceAlpha" type="matrix" values="0 0 0 0 0 0 0 0 0 0 0 0 0 0 0 0 0 0 127 0" result="hardAlpha"/>
<feOffset dy="6"/>
<feGaussianBlur stdDeviation="6"/>
<feComposite in2="hardAlpha" operator="out"/>
<feColorMatrix type="matrix" values="0 0 0 0 0 0 0 0 0 0 0 0 0 0 0 0 0 0 0.03 0"/>
<feBlend mode="normal" in2="BackgroundImageFix" result="effect1_dropShadow_167_21144"/>
<feBlend mode="normal" in="SourceGraphic" in2="effect1_dropShadow_167_21144" result="shape"/>
</filter>
<filter id="filter1_d_167_21144" x="14" y="63" width="180" height="52" filterUnits="userSpaceOnUse" color-interpolation-filters="sRGB">
<feFlood flood-opacity="0" result="BackgroundImageFix"/>
<feColorMatrix in="SourceAlpha" type="matrix" values="0 0 0 0 0 0 0 0 0 0 0 0 0 0 0 0 0 0 127 0" result="hardAlpha"/>
<feOffset dy="6"/>
<feGaussianBlur stdDeviation="6"/>
<feComposite in2="hardAlpha" operator="out"/>
<feColorMatrix type="matrix" values="0 0 0 0 0 0 0 0 0 0 0 0 0 0 0 0 0 0 0.03 0"/>
<feBlend mode="normal" in2="BackgroundImageFix" result="effect1_dropShadow_167_21144"/>
<feBlend mode="normal" in="SourceGraphic" in2="effect1_dropShadow_167_21144" result="shape"/>
</filter>
<linearGradient id="paint0_linear_167_21144" x1="21.0101" y1="79.0066" x2="20" y2="79.0066" gradientUnits="userSpaceOnUse">
<stop offset="0%" stop-color="white" stop-opacity="0"/>
<stop offset="0.185417" stop-color="white" stop-opacity="0.1"/>
<stop offset="0.826042" stop-color="white" stop-opacity="0.1"/>
<stop offset="1" stop-color="white" stop-opacity="0"/>
</linearGradient>
<linearGradient id="paint1_linear_167_21144" x1="26.0101" y1="79.007" x2="25" y2="79.007" gradientUnits="userSpaceOnUse">
<stop offset="0%" stop-color="white" stop-opacity="0"/>
<stop offset="0.185417" stop-color="white" stop-opacity="0.1"/>
<stop offset="0.826042" stop-color="white" stop-opacity="0.1"/>
<stop offset="1" stop-color="white" stop-opacity="0"/>
</linearGradient>
<linearGradient id="paint2_linear_167_21144" x1="184.01" y1="78.993" x2="183" y2="78.993" gradientUnits="userSpaceOnUse">
<stop offset="0%" stop-color="white" stop-opacity="0"/>
<stop offset="0.185417" stop-color="white" stop-opacity="0.1"/>
<stop offset="0.826042" stop-color="white" stop-opacity="0.1"/>
<stop offset="1" stop-color="white" stop-opacity="0"/>
</linearGradient>
<linearGradient id="paint3_linear_167_21144" x1="189.01" y1="78.9934" x2="188" y2="78.9934" gradientUnits="userSpaceOnUse">
<stop offset="0%" stop-color="white" stop-opacity="0"/>
<stop offset="0.185417" stop-color="white" stop-opacity="0.1"/>
<stop offset="0.826042" stop-color="white" stop-opacity="0.1"/>
<stop offset="1" stop-color="white" stop-opacity="0"/>
</linearGradient>
<linearGradient id="paint4_linear_167_21144" x1="104" y1="31" x2="104" y2="32" gradientUnits="userSpaceOnUse">
<stop offset="0%" stop-color="white" stop-opacity="0"/>
<stop offset="0.185417" stop-color="white" stop-opacity="0.1"/>
<stop offset="0.826042" stop-color="white" stop-opacity="0.1"/>
<stop offset="1" stop-color="white" stop-opacity="0"/>
</linearGradient>
<linearGradient id="paint5_linear_167_21144" x1="104" y1="36" x2="104" y2="37" gradientUnits="userSpaceOnUse">
<stop offset="0%" stop-color="white" stop-opacity="0"/>
<stop offset="0.185417" stop-color="white" stop-opacity="0.1"/>
<stop offset="0.826042" stop-color="white" stop-opacity="0.1"/>
<stop offset="1" stop-color="white" stop-opacity="0"/>
</linearGradient>
<linearGradient id="paint6_linear_167_21144" x1="49.1771" y1="38.912" x2="69.2103" y2="100.07" gradientUnits="userSpaceOnUse">
<stop offset="0%" stop-color="#A855F7"/>
<stop offset="1" stop-color="#3B82F6"/>
</linearGradient>
<linearGradient id="paint7_linear_167_21144" x1="49.1771" y1="71.912" x2="69.2103" y2="133.07" gradientUnits="userSpaceOnUse">
<stop offset="0%" stop-color="#A855F7"/>
<stop offset="1" stop-color="#3B82F6"/>
</linearGradient>
<linearGradient id="paint8_linear_167_21144" x1="40.6057" y1="78.248" x2="54.283" y2="97.6085" gradientUnits="userSpaceOnUse">
<stop offset="0%" stop-color="#A855F7"/>
<stop offset="1" stop-color="#3B82F6"/>
</linearGradient>
<linearGradient id="paint9_linear_167_21144" x1="133.469" y1="104.08" x2="155.436" y2="138.385" gradientUnits="userSpaceOnUse">
<stop offset="0%" stop-color="#A855F7"/>
<stop offset="1" stop-color="#3B82F6"/>
</linearGradient>
<linearGradient id="paint10_linear_167_21144" x1="104" y1="122" x2="104" y2="123" gradientUnits="userSpaceOnUse">
<stop offset="0%" stop-color="white" stop-opacity="0"/>
<stop offset="0.185417" stop-color="white" stop-opacity="0.1"/>
<stop offset="0.826042" stop-color="white" stop-opacity="0.1"/>
<stop offset="1" stop-color="white" stop-opacity="0"/>
</linearGradient>
<linearGradient id="paint11_linear_167_21144" x1="104" y1="127" x2="104" y2="128" gradientUnits="userSpaceOnUse">
<stop offset="0%" stop-color="white" stop-opacity="0"/>
<stop offset="0.185417" stop-color="white" stop-opacity="0.1"/>
<stop offset="0.826042" stop-color="white" stop-opacity="0.1"/>
<stop offset="1" stop-color="white" stop-opacity="0"/>
</linearGradient>
</defs>
</svg>
