<svg width="208" height="158" viewBox="0 0 208 158" fill="none" xmlns="http://www.w3.org/2000/svg">
<path d="M20 153L20 5" stroke="url(#paint0_linear_254_648)"/>
<path d="M25 158L25 -5.24521e-06" stroke="url(#paint1_linear_254_648)"/>
<path d="M183 0L183 158" stroke="url(#paint2_linear_254_648)"/>
<path d="M188 5L188 153" stroke="url(#paint3_linear_254_648)"/>
<path d="M10 56H198" stroke="url(#paint4_linear_254_648)"/>
<path d="M5 61H203" stroke="url(#paint5_linear_254_648)"/>
<g filter="url(#filter0_d_254_648)">
<path d="M24.5 65C24.5 62.7909 26.2909 61 28.5 61H56.5C58.7091 61 60.5 62.7909 60.5 65V93C60.5 95.2091 58.7091 97 56.5 97H28.5C26.2909 97 24.5 95.2091 24.5 93V65Z" fill="url(#paint6_linear_254_648)"/>
<path d="M42.3139 86.1989C41.2959 86.1989 40.3963 86.0237 39.6151 85.6733C38.8385 85.3229 38.2301 84.84 37.7898 84.2244C37.3494 83.6089 37.1316 82.9081 37.1364 82.1222C37.1316 81.5066 37.2571 80.9408 37.5128 80.4247C37.7732 79.9039 38.1259 79.4706 38.571 79.125C39.0161 78.7746 39.5133 78.5521 40.0625 78.4574V78.3722C39.3381 78.197 38.758 77.8087 38.3224 77.2074C37.8868 76.6061 37.6714 75.9148 37.6761 75.1335C37.6714 74.3902 37.8679 73.7273 38.2656 73.1449C38.6681 72.5578 39.2197 72.0961 39.9205 71.7599C40.6212 71.4238 41.419 71.2557 42.3139 71.2557C43.1993 71.2557 43.9901 71.4261 44.6861 71.767C45.3868 72.1032 45.9384 72.5649 46.3409 73.152C46.7434 73.7344 46.947 74.3949 46.9517 75.1335C46.947 75.9148 46.7244 76.6061 46.2841 77.2074C45.8438 77.8087 45.2708 78.197 44.5653 78.3722V78.4574C45.1098 78.5521 45.5999 78.7746 46.0355 79.125C46.4759 79.4706 46.8262 79.9039 47.0866 80.4247C47.3518 80.9408 47.4867 81.5066 47.4915 82.1222C47.4867 82.9081 47.2642 83.6089 46.8239 84.2244C46.3835 84.84 45.7727 85.3229 44.9915 85.6733C44.215 86.0237 43.3224 86.1989 42.3139 86.1989ZM42.3139 84.402C42.9152 84.402 43.4361 84.3026 43.8764 84.1037C44.3168 83.9001 44.6577 83.6184 44.8991 83.2585C45.1406 82.8939 45.2637 82.4678 45.2685 81.9801C45.2637 81.4735 45.1312 81.026 44.8707 80.6378C44.6151 80.2495 44.267 79.9441 43.8267 79.7216C43.3864 79.4991 42.8821 79.3878 42.3139 79.3878C41.741 79.3878 41.232 79.4991 40.7869 79.7216C40.3419 79.9441 39.9915 80.2495 39.7358 80.6378C39.4801 81.026 39.3546 81.4735 39.3594 81.9801C39.3546 82.4678 39.4706 82.8939 39.7074 83.2585C39.9489 83.6184 40.2921 83.9001 40.7372 84.1037C41.1823 84.3026 41.7079 84.402 42.3139 84.402ZM42.3139 77.6335C42.7969 77.6335 43.2254 77.5365 43.5994 77.3423C43.9735 77.1482 44.267 76.8783 44.4801 76.5327C44.6979 76.187 44.8092 75.7822 44.8139 75.3182C44.8092 74.8636 44.7003 74.4659 44.4872 74.125C44.2789 73.7841 43.9877 73.5213 43.6136 73.3366C43.2396 73.1473 42.8063 73.0526 42.3139 73.0526C41.812 73.0526 41.3717 73.1473 40.9929 73.3366C40.6188 73.5213 40.3277 73.7841 40.1193 74.125C39.911 74.4659 39.8092 74.8636 39.8139 75.3182C39.8092 75.7822 39.9134 76.187 40.1264 76.5327C40.3395 76.8783 40.633 77.1482 41.0071 77.3423C41.3859 77.5365 41.8215 77.6335 42.3139 77.6335Z" fill="white"/>
</g>
<g filter="url(#filter1_d_254_648)">
<path d="M65.5 65C65.5 62.7909 67.2909 61 69.5 61H97.5C99.7091 61 101.5 62.7909 101.5 65V93C101.5 95.2091 99.7091 97 97.5 97H69.5C67.2909 97 65.5 95.2091 65.5 93V65Z" fill="url(#paint7_linear_254_648)"/>
<path d="M79.3892 86L85.7386 73.4432V73.3366H78.3949V71.4545H88.0114V73.4006L81.6832 86H79.3892Z" fill="white"/>
</g>
<g filter="url(#filter2_d_254_648)">
<path d="M106.5 65C106.5 62.7909 108.291 61 110.5 61H138.5C140.709 61 142.5 62.7909 142.5 65V93C142.5 95.2091 140.709 97 138.5 97H110.5C108.291 97 106.5 95.2091 106.5 93V65Z" fill="url(#paint8_linear_254_648)"/>
<path d="M125.375 66.767V90.6875H123.472V66.767H125.375Z" fill="white"/>
</g>
<g filter="url(#filter3_d_254_648)">
<path d="M147.5 65C147.5 62.7909 149.291 61 151.5 61H179.5C181.709 61 183.5 62.7909 183.5 65V93C183.5 95.2091 181.709 97 179.5 97H151.5C149.291 97 147.5 95.2091 147.5 93V65Z" fill="url(#paint9_linear_254_648)"/>
</g>
<path d="M5 97H203" stroke="url(#paint10_linear_254_648)"/>
<path d="M10 102H198" stroke="url(#paint11_linear_254_648)"/>
<defs>
<filter id="filter0_d_254_648" x="12.5" y="55" width="60" height="60" filterUnits="userSpaceOnUse" color-interpolation-filters="sRGB">
<feFlood flood-opacity="0" result="BackgroundImageFix"/>
<feColorMatrix in="SourceAlpha" type="matrix" values="0 0 0 0 0 0 0 0 0 0 0 0 0 0 0 0 0 0 127 0" result="hardAlpha"/>
<feOffset dy="6"/>
<feGaussianBlur stdDeviation="6"/>
<feComposite in2="hardAlpha" operator="out"/>
<feColorMatrix type="matrix" values="0 0 0 0 0 0 0 0 0 0 0 0 0 0 0 0 0 0 0.03 0"/>
<feBlend mode="normal" in2="BackgroundImageFix" result="effect1_dropShadow_254_648"/>
<feBlend mode="normal" in="SourceGraphic" in2="effect1_dropShadow_254_648" result="shape"/>
</filter>
<filter id="filter1_d_254_648" x="53.5" y="55" width="60" height="60" filterUnits="userSpaceOnUse" color-interpolation-filters="sRGB">
<feFlood flood-opacity="0" result="BackgroundImageFix"/>
<feColorMatrix in="SourceAlpha" type="matrix" values="0 0 0 0 0 0 0 0 0 0 0 0 0 0 0 0 0 0 127 0" result="hardAlpha"/>
<feOffset dy="6"/>
<feGaussianBlur stdDeviation="6"/>
<feComposite in2="hardAlpha" operator="out"/>
<feColorMatrix type="matrix" values="0 0 0 0 0 0 0 0 0 0 0 0 0 0 0 0 0 0 0.03 0"/>
<feBlend mode="normal" in2="BackgroundImageFix" result="effect1_dropShadow_254_648"/>
<feBlend mode="normal" in="SourceGraphic" in2="effect1_dropShadow_254_648" result="shape"/>
</filter>
<filter id="filter2_d_254_648" x="94.5" y="55" width="60" height="60" filterUnits="userSpaceOnUse" color-interpolation-filters="sRGB">
<feFlood flood-opacity="0" result="BackgroundImageFix"/>
<feColorMatrix in="SourceAlpha" type="matrix" values="0 0 0 0 0 0 0 0 0 0 0 0 0 0 0 0 0 0 127 0" result="hardAlpha"/>
<feOffset dy="6"/>
<feGaussianBlur stdDeviation="6"/>
<feComposite in2="hardAlpha" operator="out"/>
<feColorMatrix type="matrix" values="0 0 0 0 0 0 0 0 0 0 0 0 0 0 0 0 0 0 0.03 0"/>
<feBlend mode="normal" in2="BackgroundImageFix" result="effect1_dropShadow_254_648"/>
<feBlend mode="normal" in="SourceGraphic" in2="effect1_dropShadow_254_648" result="shape"/>
</filter>
<filter id="filter3_d_254_648" x="135.5" y="55" width="60" height="60" filterUnits="userSpaceOnUse" color-interpolation-filters="sRGB">
<feFlood flood-opacity="0" result="BackgroundImageFix"/>
<feColorMatrix in="SourceAlpha" type="matrix" values="0 0 0 0 0 0 0 0 0 0 0 0 0 0 0 0 0 0 127 0" result="hardAlpha"/>
<feOffset dy="6"/>
<feGaussianBlur stdDeviation="6"/>
<feComposite in2="hardAlpha" operator="out"/>
<feColorMatrix type="matrix" values="0 0 0 0 0 0 0 0 0 0 0 0 0 0 0 0 0 0 0.03 0"/>
<feBlend mode="normal" in2="BackgroundImageFix" result="effect1_dropShadow_254_648"/>
<feBlend mode="normal" in="SourceGraphic" in2="effect1_dropShadow_254_648" result="shape"/>
</filter>
<linearGradient id="paint0_linear_254_648" x1="21.0101" y1="79.0066" x2="20" y2="79.0066" gradientUnits="userSpaceOnUse">
<stop offset="0%" stop-color="white" stop-opacity="0"/>
<stop offset="0.185417" stop-color="white" stop-opacity="0.1"/>
<stop offset="0.826042" stop-color="white" stop-opacity="0.1"/>
<stop offset="1" stop-color="white" stop-opacity="0"/>
</linearGradient>
<linearGradient id="paint1_linear_254_648" x1="26.0101" y1="79.007" x2="25" y2="79.007" gradientUnits="userSpaceOnUse">
<stop offset="0%" stop-color="white" stop-opacity="0"/>
<stop offset="0.185417" stop-color="white" stop-opacity="0.1"/>
<stop offset="0.826042" stop-color="white" stop-opacity="0.1"/>
<stop offset="1" stop-color="white" stop-opacity="0"/>
</linearGradient>
<linearGradient id="paint2_linear_254_648" x1="184.01" y1="78.993" x2="183" y2="78.993" gradientUnits="userSpaceOnUse">
<stop offset="0%" stop-color="white" stop-opacity="0"/>
<stop offset="0.185417" stop-color="white" stop-opacity="0.1"/>
<stop offset="0.826042" stop-color="white" stop-opacity="0.1"/>
<stop offset="1" stop-color="white" stop-opacity="0"/>
</linearGradient>
<linearGradient id="paint3_linear_254_648" x1="189.01" y1="78.9934" x2="188" y2="78.9934" gradientUnits="userSpaceOnUse">
<stop offset="0%" stop-color="white" stop-opacity="0"/>
<stop offset="0.185417" stop-color="white" stop-opacity="0.1"/>
<stop offset="0.826042" stop-color="white" stop-opacity="0.1"/>
<stop offset="1" stop-color="white" stop-opacity="0"/>
</linearGradient>
<linearGradient id="paint4_linear_254_648" x1="104" y1="56" x2="104" y2="57" gradientUnits="userSpaceOnUse">
<stop offset="0%" stop-color="white" stop-opacity="0"/>
<stop offset="0.185417" stop-color="white" stop-opacity="0.1"/>
<stop offset="0.826042" stop-color="white" stop-opacity="0.1"/>
<stop offset="1" stop-color="white" stop-opacity="0"/>
</linearGradient>
<linearGradient id="paint5_linear_254_648" x1="104" y1="61" x2="104" y2="62" gradientUnits="userSpaceOnUse">
<stop offset="0%" stop-color="white" stop-opacity="0"/>
<stop offset="0.185417" stop-color="white" stop-opacity="0.1"/>
<stop offset="0.826042" stop-color="white" stop-opacity="0.1"/>
<stop offset="1" stop-color="white" stop-opacity="0"/>
</linearGradient>
<linearGradient id="paint6_linear_254_648" x1="29.8486" y1="64.744" x2="66.5408" y2="84.8493" gradientUnits="userSpaceOnUse">
<stop offset="0%" stop-color="#A855F7"/>
<stop offset="1" stop-color="#3B82F6"/>
</linearGradient>
<linearGradient id="paint7_linear_254_648" x1="70.8486" y1="64.744" x2="107.541" y2="84.8493" gradientUnits="userSpaceOnUse">
<stop offset="0%" stop-color="#A855F7"/>
<stop offset="1" stop-color="#3B82F6"/>
</linearGradient>
<linearGradient id="paint8_linear_254_648" x1="111.849" y1="64.744" x2="148.541" y2="84.8493" gradientUnits="userSpaceOnUse">
<stop offset="0%" stop-color="#A855F7"/>
<stop offset="1" stop-color="#3B82F6"/>
</linearGradient>
<linearGradient id="paint9_linear_254_648" x1="152.849" y1="64.744" x2="189.541" y2="84.8493" gradientUnits="userSpaceOnUse">
<stop offset="0%" stop-color="#A855F7"/>
<stop offset="1" stop-color="#3B82F6"/>
</linearGradient>
<linearGradient id="paint10_linear_254_648" x1="104" y1="97" x2="104" y2="98" gradientUnits="userSpaceOnUse">
<stop offset="0%" stop-color="white" stop-opacity="0"/>
<stop offset="0.185417" stop-color="white" stop-opacity="0.1"/>
<stop offset="0.826042" stop-color="white" stop-opacity="0.1"/>
<stop offset="1" stop-color="white" stop-opacity="0"/>
</linearGradient>
<linearGradient id="paint11_linear_254_648" x1="104" y1="102" x2="104" y2="103" gradientUnits="userSpaceOnUse">
<stop offset="0%" stop-color="white" stop-opacity="0"/>
<stop offset="0.185417" stop-color="white" stop-opacity="0.1"/>
<stop offset="0.826042" stop-color="white" stop-opacity="0.1"/>
<stop offset="1" stop-color="white" stop-opacity="0"/>
</linearGradient>
</defs>
</svg>
