<svg width="208" height="158" viewBox="0 0 208 158" fill="none" xmlns="http://www.w3.org/2000/svg">
<path d="M20 153L20 5" stroke="url(#paint0_linear_281_1193)"/>
<path d="M25 158L25 -5.24521e-06" stroke="url(#paint1_linear_281_1193)"/>
<path d="M183 0L183 158" stroke="url(#paint2_linear_281_1193)"/>
<path d="M188 5L188 153" stroke="url(#paint3_linear_281_1193)"/>
<path d="M10 54H198" stroke="url(#paint4_linear_281_1193)"/>
<path d="M5 59H203" stroke="url(#paint5_linear_281_1193)"/>
<path d="M25 79C25 70.1634 32.1634 63 41 63V63C49.8366 63 57 70.1634 57 79V79C57 87.8366 49.8366 95 41 95V95C32.1634 95 25 87.8366 25 79V79Z" fill="url(#paint6_linear_281_1193)" fill-opacity="0.2"/>
<path d="M42.9176 71.4545V86H40.7159V73.6562H40.6307L37.1506 75.929V73.8267L40.7798 71.4545H42.9176Z" fill="url(#paint7_linear_281_1193)"/>
<path d="M62 79C62 77.8954 62.8954 77 64 77H81C82.1046 77 83 77.8954 83 79V79C83 80.1046 82.1046 81 81 81H64C62.8954 81 62 80.1046 62 79V79Z" fill="url(#paint8_linear_281_1193)"/>
<path d="M88 79C88 70.1634 95.1634 63 104 63V63C112.837 63 120 70.1634 120 79V79C120 87.8366 112.837 95 104 95V95C95.1634 95 88 87.8366 88 79V79Z" fill="url(#paint9_linear_281_1193)" fill-opacity="0.2"/>
<path d="M98.8991 86V84.4091L103.821 79.3097C104.347 78.7557 104.78 78.2704 105.121 77.8537C105.466 77.4323 105.724 77.0322 105.895 76.6534C106.065 76.2746 106.151 75.8722 106.151 75.446C106.151 74.9631 106.037 74.5464 105.81 74.196C105.582 73.8409 105.272 73.5687 104.879 73.3793C104.486 73.1851 104.044 73.0881 103.551 73.0881C103.03 73.0881 102.576 73.1946 102.188 73.4077C101.799 73.6207 101.501 73.9214 101.293 74.3097C101.084 74.6979 100.98 75.1525 100.98 75.6733H98.8849C98.8849 74.7879 99.0885 74.0137 99.4957 73.3509C99.9029 72.688 100.462 72.1742 101.172 71.8097C101.882 71.4403 102.689 71.2557 103.594 71.2557C104.508 71.2557 105.313 71.438 106.009 71.8026C106.709 72.1624 107.256 72.6548 107.649 73.2798C108.042 73.9001 108.239 74.6009 108.239 75.3821C108.239 75.9219 108.137 76.4498 107.933 76.9659C107.734 77.482 107.386 78.0573 106.889 78.6918C106.392 79.3215 105.701 80.0862 104.815 80.9858L101.925 84.0114V84.1179H108.473V86H98.8991Z" fill="url(#paint10_linear_281_1193)"/>
<path d="M125 79C125 77.8954 125.895 77 127 77H144C145.105 77 146 77.8954 146 79V79C146 80.1046 145.105 81 144 81H127C125.895 81 125 80.1046 125 79V79Z" fill="url(#paint11_linear_281_1193)"/>
<path d="M151 79C151 70.1634 158.163 63 167 63V63C175.837 63 183 70.1634 183 79V79C183 87.8366 175.837 95 167 95V95C158.163 95 151 87.8366 151 79V79Z" fill="url(#paint12_linear_281_1193)"/>
<path d="M173.667 74L164.5 83.1667L160.333 79" stroke="white" stroke-width="2" stroke-linecap="round" stroke-linejoin="round"/>
<path d="M5 99H203" stroke="url(#paint13_linear_281_1193)"/>
<path d="M10 104H198" stroke="url(#paint14_linear_281_1193)"/>
<defs>
<linearGradient id="paint0_linear_281_1193" x1="21.0101" y1="79.0066" x2="20" y2="79.0066" gradientUnits="userSpaceOnUse">
<stop offset="0%" stop-color="white" stop-opacity="0"/>
<stop offset="0.185417" stop-color="white" stop-opacity="0.1"/>
<stop offset="0.826042" stop-color="white" stop-opacity="0.1"/>
<stop offset="1" stop-color="white" stop-opacity="0"/>
</linearGradient>
<linearGradient id="paint1_linear_281_1193" x1="26.0101" y1="79.007" x2="25" y2="79.007" gradientUnits="userSpaceOnUse">
<stop offset="0%" stop-color="white" stop-opacity="0"/>
<stop offset="0.185417" stop-color="white" stop-opacity="0.1"/>
<stop offset="0.826042" stop-color="white" stop-opacity="0.1"/>
<stop offset="1" stop-color="white" stop-opacity="0"/>
</linearGradient>
<linearGradient id="paint2_linear_281_1193" x1="184.01" y1="78.993" x2="183" y2="78.993" gradientUnits="userSpaceOnUse">
<stop offset="0%" stop-color="white" stop-opacity="0"/>
<stop offset="0.185417" stop-color="white" stop-opacity="0.1"/>
<stop offset="0.826042" stop-color="white" stop-opacity="0.1"/>
<stop offset="1" stop-color="white" stop-opacity="0"/>
</linearGradient>
<linearGradient id="paint3_linear_281_1193" x1="189.01" y1="78.9934" x2="188" y2="78.9934" gradientUnits="userSpaceOnUse">
<stop offset="0%" stop-color="white" stop-opacity="0"/>
<stop offset="0.185417" stop-color="white" stop-opacity="0.1"/>
<stop offset="0.826042" stop-color="white" stop-opacity="0.1"/>
<stop offset="1" stop-color="white" stop-opacity="0"/>
</linearGradient>
<linearGradient id="paint4_linear_281_1193" x1="104" y1="54" x2="104" y2="55" gradientUnits="userSpaceOnUse">
<stop offset="0%" stop-color="white" stop-opacity="0"/>
<stop offset="0.185417" stop-color="white" stop-opacity="0.1"/>
<stop offset="0.826042" stop-color="white" stop-opacity="0.1"/>
<stop offset="1" stop-color="white" stop-opacity="0"/>
</linearGradient>
<linearGradient id="paint5_linear_281_1193" x1="104" y1="59" x2="104" y2="60" gradientUnits="userSpaceOnUse">
<stop offset="0%" stop-color="white" stop-opacity="0"/>
<stop offset="0.185417" stop-color="white" stop-opacity="0.1"/>
<stop offset="0.826042" stop-color="white" stop-opacity="0.1"/>
<stop offset="1" stop-color="white" stop-opacity="0"/>
</linearGradient>
<linearGradient id="paint6_linear_281_1193" x1="29.7543" y1="66.328" x2="62.3696" y2="84.1994" gradientUnits="userSpaceOnUse">
<stop offset="0%" stop-color="#A855F7"/>
<stop offset="1" stop-color="#3B82F6"/>
</linearGradient>
<linearGradient id="paint7_linear_281_1193" x1="37.4857" y1="69.496" x2="50.0816" y2="72.3718" gradientUnits="userSpaceOnUse">
<stop offset="0%" stop-color="#A855F7"/>
<stop offset="1" stop-color="#3B82F6"/>
</linearGradient>
<linearGradient id="paint8_linear_281_1193" x1="65.12" y1="77.416" x2="68.1204" y2="86.0473" gradientUnits="userSpaceOnUse">
<stop offset="0%" stop-color="#A855F7"/>
<stop offset="1" stop-color="#3B82F6"/>
</linearGradient>
<linearGradient id="paint9_linear_281_1193" x1="92.7543" y1="66.328" x2="125.37" y2="84.1994" gradientUnits="userSpaceOnUse">
<stop offset="0%" stop-color="#A855F7"/>
<stop offset="1" stop-color="#3B82F6"/>
</linearGradient>
<linearGradient id="paint10_linear_281_1193" x1="99.4314" y1="69.496" x2="115.265" y2="74.1954" gradientUnits="userSpaceOnUse">
<stop offset="0%" stop-color="#A855F7"/>
<stop offset="1" stop-color="#3B82F6"/>
</linearGradient>
<linearGradient id="paint11_linear_281_1193" x1="128.12" y1="77.416" x2="131.12" y2="86.0473" gradientUnits="userSpaceOnUse">
<stop offset="0%" stop-color="#A855F7"/>
<stop offset="1" stop-color="#3B82F6"/>
</linearGradient>
<linearGradient id="paint12_linear_281_1193" x1="155.754" y1="66.328" x2="188.37" y2="84.1994" gradientUnits="userSpaceOnUse">
<stop offset="0%" stop-color="#A855F7"/>
<stop offset="1" stop-color="#3B82F6"/>
</linearGradient>
<linearGradient id="paint13_linear_281_1193" x1="104" y1="99" x2="104" y2="100" gradientUnits="userSpaceOnUse">
<stop offset="0%" stop-color="white" stop-opacity="0"/>
<stop offset="0.185417" stop-color="white" stop-opacity="0.1"/>
<stop offset="0.826042" stop-color="white" stop-opacity="0.1"/>
<stop offset="1" stop-color="white" stop-opacity="0"/>
</linearGradient>
<linearGradient id="paint14_linear_281_1193" x1="104" y1="104" x2="104" y2="105" gradientUnits="userSpaceOnUse">
<stop offset="0%" stop-color="white" stop-opacity="0"/>
<stop offset="0.185417" stop-color="white" stop-opacity="0.1"/>
<stop offset="0.826042" stop-color="white" stop-opacity="0.1"/>
<stop offset="1" stop-color="white" stop-opacity="0"/>
</linearGradient>
</defs>
</svg>
