<svg width="208" height="158" viewBox="0 0 208 158" fill="none" xmlns="http://www.w3.org/2000/svg">
<path d="M33 153L33 5" stroke="url(#paint0_linear_160_3083)"/>
<path d="M38 158L38 -5.24521e-06" stroke="url(#paint1_linear_160_3083)"/>
<path d="M170 0L170 158" stroke="url(#paint2_linear_160_3083)"/>
<path d="M175 5L175 153" stroke="url(#paint3_linear_160_3083)"/>
<path d="M10 51.5H198" stroke="url(#paint4_linear_160_3083)"/>
<path d="M5 56.5H203" stroke="url(#paint5_linear_160_3083)"/>
<g filter="url(#filter0_d_160_3083)">
<path d="M38.5 62.5C38.5 59.1863 41.1863 56.5 44.5 56.5H163.5C166.814 56.5 169.5 59.1863 169.5 62.5V81.5C169.5 84.8137 166.814 87.5 163.5 87.5H44.5C41.1863 87.5 38.5 84.8137 38.5 81.5V62.5Z" fill="url(#paint6_linear_160_3083)"/>
<path d="M53.8345 75.7273L53.9357 73.4794L52.0394 74.6992L51.4588 73.6871L53.4723 72.6591L51.4588 71.631L52.0394 70.619L53.9357 71.8388L53.8345 69.5909H54.9904L54.8892 71.8388L56.7855 70.619L57.3661 71.631L55.3526 72.6591L57.3661 73.6871L56.7855 74.6992L54.8892 73.4794L54.9904 75.7273H53.8345ZM61.7318 75.7273L61.833 73.4794L59.9367 74.6992L59.3561 73.6871L61.3696 72.6591L59.3561 71.631L59.9367 70.619L61.833 71.8388L61.7318 69.5909H62.8877L62.7865 71.8388L64.6828 70.619L65.2634 71.631L63.2499 72.6591L65.2634 73.6871L64.6828 74.6992L62.7865 73.4794L62.8877 75.7273H61.7318ZM69.629 75.7273L69.7303 73.4794L67.8339 74.6992L67.2533 73.6871L69.2668 72.6591L67.2533 71.631L67.8339 70.619L69.7303 71.8388L69.629 69.5909H70.7849L70.6837 71.8388L72.58 70.619L73.1607 71.631L71.1472 72.6591L73.1607 73.6871L72.58 74.6992L70.6837 73.4794L70.7849 75.7273H69.629ZM77.5263 75.7273L77.6275 73.4794L75.7312 74.6992L75.1506 73.6871L77.1641 72.6591L75.1506 71.631L75.7312 70.619L77.6275 71.8388L77.5263 69.5909H78.6822L78.581 71.8388L80.4773 70.619L81.0579 71.631L79.0444 72.6591L81.0579 73.6871L80.4773 74.6992L78.581 73.4794L78.6822 75.7273H77.5263ZM85.4236 75.7273L85.5248 73.4794L83.6285 74.6992L83.0479 73.6871L85.0614 72.6591L83.0479 71.631L83.6285 70.619L85.5248 71.8388L85.4236 69.5909H86.5795L86.4783 71.8388L88.3746 70.619L88.9552 71.631L86.9417 72.6591L88.9552 73.6871L88.3746 74.6992L86.4783 73.4794L86.5795 75.7273H85.4236ZM93.3208 75.7273L93.4221 73.4794L91.5257 74.6992L90.9451 73.6871L92.9586 72.6591L90.9451 71.631L91.5257 70.619L93.4221 71.8388L93.3208 69.5909H94.4767L94.3755 71.8388L96.2718 70.619L96.8525 71.631L94.839 72.6591L96.8525 73.6871L96.2718 74.6992L94.3755 73.4794L94.4767 75.7273H93.3208ZM101.218 75.7273L101.319 73.4794L99.423 74.6992L98.8424 73.6871L100.856 72.6591L98.8424 71.631L99.423 70.619L101.319 71.8388L101.218 69.5909H102.374L102.273 71.8388L104.169 70.619L104.75 71.631L102.736 72.6591L104.75 73.6871L104.169 74.6992L102.273 73.4794L102.374 75.7273H101.218ZM109.115 75.7273L109.217 73.4794L107.32 74.6992L106.74 73.6871L108.753 72.6591L106.74 71.631L107.32 70.619L109.217 71.8388L109.115 69.5909H110.271L110.17 71.8388L112.066 70.619L112.647 71.631L110.633 72.6591L112.647 73.6871L112.066 74.6992L110.17 73.4794L110.271 75.7273H109.115Z" fill="white"/>
</g>
<path d="M38.5 99.5C38.5 98.3954 39.3954 97.5 40.5 97.5H75.5C76.6046 97.5 77.5 98.3954 77.5 99.5C77.5 100.605 76.6046 101.5 75.5 101.5H40.5C39.3954 101.5 38.5 100.605 38.5 99.5Z" fill="url(#paint7_linear_160_3083)"/>
<path d="M84.5 99.5C84.5 98.3954 85.3954 97.5 86.5 97.5H121.5C122.605 97.5 123.5 98.3954 123.5 99.5C123.5 100.605 122.605 101.5 121.5 101.5H86.5C85.3954 101.5 84.5 100.605 84.5 99.5Z" fill="url(#paint8_linear_160_3083)"/>
<path d="M130.5 99.5C130.5 98.3954 131.395 97.5 132.5 97.5H167.5C168.605 97.5 169.5 98.3954 169.5 99.5C169.5 100.605 168.605 101.5 167.5 101.5H132.5C131.395 101.5 130.5 100.605 130.5 99.5Z" fill="white" fill-opacity="0.3"/>
<path d="M5 101.5H203" stroke="url(#paint9_linear_160_3083)"/>
<path d="M10 106.5H198" stroke="url(#paint10_linear_160_3083)"/>
<defs>
<filter id="filter0_d_160_3083" x="26.5" y="50.5" width="155" height="55" filterUnits="userSpaceOnUse" color-interpolation-filters="sRGB">
<feFlood flood-opacity="0" result="BackgroundImageFix"/>
<feColorMatrix in="SourceAlpha" type="matrix" values="0 0 0 0 0 0 0 0 0 0 0 0 0 0 0 0 0 0 127 0" result="hardAlpha"/>
<feOffset dy="6"/>
<feGaussianBlur stdDeviation="6"/>
<feComposite in2="hardAlpha" operator="out"/>
<feColorMatrix type="matrix" values="0 0 0 0 0 0 0 0 0 0 0 0 0 0 0 0 0 0 0.03 0"/>
<feBlend mode="normal" in2="BackgroundImageFix" result="effect1_dropShadow_160_3083"/>
<feBlend mode="normal" in="SourceGraphic" in2="effect1_dropShadow_160_3083" result="shape"/>
</filter>
<linearGradient id="paint0_linear_160_3083" x1="33.5" y1="153" x2="33.5" y2="5" gradientUnits="userSpaceOnUse">
<stop offset="0%" stop-color="white" stop-opacity="0"/>
<stop offset="0.185417" stop-color="white" stop-opacity="0.1"/>
<stop offset="0.826042" stop-color="white" stop-opacity="0.1"/>
<stop offset="1" stop-color="white" stop-opacity="0"/>
</linearGradient>
<linearGradient id="paint1_linear_160_3083" x1="38.5" y1="158" x2="38.5" y2="-2.74062e-08" gradientUnits="userSpaceOnUse">
<stop offset="0%" stop-color="white" stop-opacity="0"/>
<stop offset="0.185417" stop-color="white" stop-opacity="0.1"/>
<stop offset="0.826042" stop-color="white" stop-opacity="0.1"/>
<stop offset="1" stop-color="white" stop-opacity="0"/>
</linearGradient>
<linearGradient id="paint2_linear_160_3083" x1="170.5" y1="2.74063e-08" x2="170.5" y2="158" gradientUnits="userSpaceOnUse">
<stop offset="0%" stop-color="white" stop-opacity="0"/>
<stop offset="0.185417" stop-color="white" stop-opacity="0.1"/>
<stop offset="0.826042" stop-color="white" stop-opacity="0.1"/>
<stop offset="1" stop-color="white" stop-opacity="0"/>
</linearGradient>
<linearGradient id="paint3_linear_160_3083" x1="175.5" y1="5" x2="175.5" y2="153" gradientUnits="userSpaceOnUse">
<stop offset="0%" stop-color="white" stop-opacity="0"/>
<stop offset="0.185417" stop-color="white" stop-opacity="0.1"/>
<stop offset="0.826042" stop-color="white" stop-opacity="0.1"/>
<stop offset="1" stop-color="white" stop-opacity="0"/>
</linearGradient>
<linearGradient id="paint4_linear_160_3083" x1="199.899" y1="52" x2="10" y2="51.9999" gradientUnits="userSpaceOnUse">
<stop offset="0%" stop-color="white" stop-opacity="0"/>
<stop offset="0.185417" stop-color="white" stop-opacity="0.1"/>
<stop offset="0.826042" stop-color="white" stop-opacity="0.1"/>
<stop offset="1" stop-color="white" stop-opacity="0"/>
</linearGradient>
<linearGradient id="paint5_linear_160_3083" x1="205" y1="57" x2="5" y2="56.9999" gradientUnits="userSpaceOnUse">
<stop offset="0%" stop-color="white" stop-opacity="0"/>
<stop offset="0.185417" stop-color="white" stop-opacity="0.1"/>
<stop offset="0.826042" stop-color="white" stop-opacity="0.1"/>
<stop offset="1" stop-color="white" stop-opacity="0"/>
</linearGradient>
<linearGradient id="paint6_linear_160_3083" x1="57.9629" y1="59.724" x2="85.2528" y2="122.914" gradientUnits="userSpaceOnUse">
<stop offset="0%" stop-color="#A855F7"/>
<stop offset="1" stop-color="#3B82F6"/>
</linearGradient>
<linearGradient id="paint7_linear_160_3083" x1="44.2943" y1="97.916" x2="46.0438" y2="107.263" gradientUnits="userSpaceOnUse">
<stop offset="0%" stop-color="#A855F7"/>
<stop offset="1" stop-color="#3B82F6"/>
</linearGradient>
<linearGradient id="paint8_linear_160_3083" x1="90.2943" y1="97.916" x2="92.0438" y2="107.263" gradientUnits="userSpaceOnUse">
<stop offset="0%" stop-color="#A855F7"/>
<stop offset="1" stop-color="#3B82F6"/>
</linearGradient>
<linearGradient id="paint9_linear_160_3083" x1="205" y1="102" x2="5" y2="102" gradientUnits="userSpaceOnUse">
<stop offset="0%" stop-color="white" stop-opacity="0"/>
<stop offset="0.185417" stop-color="white" stop-opacity="0.1"/>
<stop offset="0.826042" stop-color="white" stop-opacity="0.1"/>
<stop offset="1" stop-color="white" stop-opacity="0"/>
</linearGradient>
<linearGradient id="paint10_linear_160_3083" x1="199.899" y1="107" x2="10" y2="107" gradientUnits="userSpaceOnUse">
<stop offset="0%" stop-color="white" stop-opacity="0"/>
<stop offset="0.185417" stop-color="white" stop-opacity="0.1"/>
<stop offset="0.826042" stop-color="white" stop-opacity="0.1"/>
<stop offset="1" stop-color="white" stop-opacity="0"/>
</linearGradient>
</defs>
</svg>
