<svg width="208" height="158" viewBox="0 0 208 158" fill="none" xmlns="http://www.w3.org/2000/svg">
<path d="M27 153L27 5" stroke="url(#paint0_linear_160_2939)"/>
<path d="M32 158L32 -5.24521e-06" stroke="url(#paint1_linear_160_2939)"/>
<path d="M176 0L176 158" stroke="url(#paint2_linear_160_2939)"/>
<path d="M181 5L181 153" stroke="url(#paint3_linear_160_2939)"/>
<path d="M10 59.5H198" stroke="url(#paint4_linear_160_2939)"/>
<path d="M5 64.5H203" stroke="url(#paint5_linear_160_2939)"/>
<g filter="url(#filter0_d_160_2939)">
<path d="M32.5 70.5C32.5 67.1863 35.1863 64.5 38.5 64.5H169.5C172.814 64.5 175.5 67.1863 175.5 70.5V87.5C175.5 90.8137 172.814 93.5 169.5 93.5H38.5C35.1863 93.5 32.5 90.8137 32.5 87.5V70.5Z" fill="url(#paint6_linear_160_2939)"/>
<path d="M44.183 77.799V77.1364H47.6645V77.799H46.3158V81.5H45.5317V77.799H44.183ZM48.798 81.5661C48.5906 81.5661 48.4039 81.5291 48.2377 81.4553C48.0729 81.38 47.9422 81.2692 47.8456 81.1229C47.7504 80.9766 47.7029 80.7962 47.7029 80.5817C47.7029 80.397 47.7369 80.2443 47.8051 80.1236C47.8733 80.0028 47.9664 79.9062 48.0843 79.8338C48.2021 79.7614 48.335 79.7067 48.4827 79.6697C48.6318 79.6314 48.786 79.6037 48.945 79.5866C49.1368 79.5668 49.2923 79.549 49.4117 79.5334C49.531 79.5163 49.6176 79.4908 49.6716 79.4567C49.727 79.4212 49.7547 79.3665 49.7547 79.2926V79.2798C49.7547 79.1193 49.7071 78.995 49.6119 78.907C49.5168 78.8189 49.3797 78.7749 49.2007 78.7749C49.0118 78.7749 48.8619 78.8161 48.7512 78.8984C48.6418 78.9808 48.5679 79.0781 48.5296 79.1903L47.8094 79.0881C47.8662 78.8892 47.96 78.723 48.0906 78.5895C48.2213 78.4545 48.3811 78.3537 48.57 78.2869C48.759 78.2188 48.9678 78.1847 49.1965 78.1847C49.3541 78.1847 49.5111 78.2031 49.6673 78.2401C49.8236 78.277 49.9664 78.3381 50.0956 78.4233C50.2249 78.5071 50.3286 78.6214 50.4067 78.7663C50.4862 78.9112 50.526 79.0923 50.526 79.3097V81.5H49.7845V81.0504H49.759C49.7121 81.1413 49.646 81.2266 49.5608 81.3061C49.477 81.3842 49.3712 81.4474 49.2433 81.4957C49.1169 81.5426 48.9685 81.5661 48.798 81.5661ZM48.9983 80.9993C49.1531 80.9993 49.2874 80.9687 49.401 80.9077C49.5146 80.8452 49.602 80.7628 49.6631 80.6605C49.7256 80.5582 49.7568 80.4467 49.7568 80.326V79.9403C49.7327 79.9602 49.6915 79.9787 49.6333 79.9957C49.5764 80.0128 49.5125 80.0277 49.4415 80.0405C49.3705 80.0533 49.3002 80.0646 49.2306 80.0746C49.161 80.0845 49.1006 80.093 49.0494 80.1001C48.9344 80.1158 48.8314 80.1413 48.7405 80.1768C48.6496 80.2124 48.5779 80.2621 48.5253 80.326C48.4727 80.3885 48.4465 80.4695 48.4465 80.5689C48.4465 80.7109 48.4983 80.8182 48.602 80.8906C48.7057 80.9631 48.8378 80.9993 48.9983 80.9993ZM51.3357 81.5V77.1364H52.107V78.7685H52.1389C52.1787 78.6889 52.2348 78.6044 52.3073 78.5149C52.3797 78.424 52.4777 78.3466 52.6013 78.2827C52.7249 78.2173 52.8825 78.1847 53.0743 78.1847C53.3271 78.1847 53.5551 78.2493 53.7583 78.3786C53.9628 78.5064 54.1247 78.696 54.2441 78.9474C54.3648 79.1974 54.4252 79.5043 54.4252 79.8679C54.4252 80.2273 54.3662 80.5327 54.2483 80.7841C54.1304 81.0355 53.9699 81.2273 53.7668 81.3594C53.5637 81.4915 53.3335 81.5575 53.0764 81.5575C52.8889 81.5575 52.7334 81.5263 52.6098 81.4638C52.4862 81.4013 52.3868 81.326 52.3115 81.2379C52.2377 81.1484 52.1801 81.0639 52.1389 80.9844H52.0942V81.5H51.3357ZM52.0921 79.8636C52.0921 80.0753 52.1219 80.2607 52.1816 80.4197C52.2426 80.5788 52.33 80.7031 52.4436 80.7926C52.5587 80.8807 52.6979 80.9247 52.8612 80.9247C53.0317 80.9247 53.1744 80.8793 53.2895 80.7884C53.4046 80.696 53.4912 80.5703 53.5494 80.4112C53.6091 80.2507 53.6389 80.0682 53.6389 79.8636C53.6389 79.6605 53.6098 79.4801 53.5516 79.3224C53.4933 79.1648 53.4067 79.0412 53.2916 78.9517C53.1766 78.8622 53.0331 78.8175 52.8612 78.8175C52.6965 78.8175 52.5566 78.8608 52.4415 78.9474C52.3264 79.0341 52.2391 79.1555 52.1794 79.3118C52.1212 79.468 52.0921 79.652 52.0921 79.8636ZM58.3355 77.1364V81.5H57.545V77.9055H57.5194L56.4988 78.5575V77.8331L57.5834 77.1364H58.3355Z" fill="white"/>
<path d="M68.5 74.5C68.5 71.1863 71.1863 68.5 74.5 68.5H97.5C100.814 68.5 103.5 71.1863 103.5 74.5V83.5C103.5 86.8137 100.814 89.5 97.5 89.5H74.5C71.1863 89.5 68.5 86.8137 68.5 83.5V74.5Z" fill="white" fill-opacity="0.2"/>
<path d="M78.2004 77.897V77.1364H81.7842V77.897H80.4482V81.5H79.5363V77.897H78.2004ZM82.8453 81.5618C82.6365 81.5618 82.4504 81.5256 82.287 81.4531C82.1237 81.3793 81.9944 81.2706 81.8992 81.1271C81.8055 80.9822 81.7586 80.8018 81.7586 80.5859C81.7586 80.4041 81.792 80.2514 81.8588 80.1278C81.9255 80.0043 82.0164 79.9048 82.1315 79.8295C82.2465 79.7543 82.3772 79.6974 82.5235 79.6591C82.6713 79.6207 82.8261 79.5938 82.988 79.5781C83.1784 79.5582 83.3318 79.5398 83.4482 79.5227C83.5647 79.5043 83.6492 79.4773 83.7018 79.4418C83.7544 79.4062 83.7806 79.3537 83.7806 79.2841V79.2713C83.7806 79.1364 83.738 79.032 83.6528 78.9581C83.569 78.8842 83.4497 78.8473 83.2948 78.8473C83.1315 78.8473 83.0015 78.8835 82.9049 78.956C82.8083 79.027 82.7444 79.1165 82.7132 79.2244L81.8737 79.1562C81.9163 78.9574 82.0001 78.7855 82.1251 78.6406C82.2501 78.4943 82.4113 78.3821 82.6088 78.304C82.8076 78.2244 83.0377 78.1847 83.2991 78.1847C83.4809 78.1847 83.6549 78.206 83.8211 78.2486C83.9887 78.2912 84.1372 78.3572 84.2664 78.4467C84.3971 78.5362 84.5001 78.6513 84.5754 78.7919C84.6507 78.9311 84.6883 79.098 84.6883 79.2926V81.5H83.8275V81.0462H83.8019C83.7494 81.1484 83.6791 81.2386 83.591 81.3168C83.5029 81.3935 83.3971 81.4538 83.2735 81.4979C83.1499 81.5405 83.0072 81.5618 82.8453 81.5618ZM83.1052 80.9354C83.2387 80.9354 83.3566 80.9091 83.4589 80.8565C83.5612 80.8026 83.6414 80.7301 83.6997 80.6392C83.7579 80.5483 83.787 80.4453 83.787 80.3303V79.983C83.7586 80.0014 83.7195 80.0185 83.6698 80.0341C83.6215 80.0483 83.5669 80.0618 83.5058 80.0746C83.4447 80.0859 83.3836 80.0966 83.3225 80.1065C83.2615 80.1151 83.2061 80.1229 83.1563 80.13C83.0498 80.1456 82.9568 80.1705 82.8772 80.2045C82.7977 80.2386 82.7359 80.2848 82.6919 80.343C82.6478 80.3999 82.6258 80.4709 82.6258 80.5561C82.6258 80.6797 82.6705 80.7741 82.76 80.8395C82.8509 80.9034 82.966 80.9354 83.1052 80.9354ZM85.4095 81.5V77.1364H86.3172V78.777H86.3449C86.3847 78.6889 86.4422 78.5994 86.5175 78.5085C86.5942 78.4162 86.6936 78.3395 86.8158 78.2784C86.9394 78.2159 87.0928 78.1847 87.276 78.1847C87.5146 78.1847 87.7348 78.2472 87.9365 78.3722C88.1382 78.4957 88.2994 78.6825 88.4202 78.9325C88.5409 79.1811 88.6013 79.4929 88.6013 79.8679C88.6013 80.233 88.5423 80.5412 88.4244 80.7926C88.308 81.0426 88.1489 81.2322 87.9472 81.3615C87.7469 81.4893 87.5225 81.5533 87.2739 81.5533C87.0977 81.5533 86.9479 81.5241 86.8243 81.4659C86.7021 81.4077 86.602 81.3345 86.5239 81.2464C86.4458 81.157 86.3861 81.0668 86.3449 80.9759H86.3044V81.5H85.4095ZM86.298 79.8636C86.298 80.0582 86.325 80.228 86.379 80.3729C86.433 80.5178 86.5111 80.6307 86.6134 80.7116C86.7156 80.7912 86.8399 80.831 86.9862 80.831C87.134 80.831 87.259 80.7905 87.3612 80.7095C87.4635 80.6271 87.5409 80.5135 87.5935 80.3686C87.6475 80.2223 87.6744 80.054 87.6744 79.8636C87.6744 79.6747 87.6482 79.5085 87.5956 79.3651C87.5431 79.2216 87.4656 79.1094 87.3634 79.0284C87.2611 78.9474 87.1354 78.907 86.9862 78.907C86.8385 78.907 86.7135 78.946 86.6112 79.0241C86.5104 79.1023 86.433 79.2131 86.379 79.3565C86.325 79.5 86.298 79.669 86.298 79.8636ZM90.5871 81.5V80.8352L92.1404 79.397C92.2725 79.2692 92.3833 79.1541 92.4727 79.0518C92.5637 78.9496 92.6325 78.8494 92.6794 78.7514C92.7263 78.652 92.7497 78.5447 92.7497 78.4297C92.7497 78.3018 92.7206 78.1918 92.6624 78.0994C92.6041 78.0057 92.5246 77.9339 92.4237 77.8842C92.3229 77.8331 92.2085 77.8075 92.0807 77.8075C91.9472 77.8075 91.8307 77.8345 91.7313 77.8885C91.6318 77.9425 91.5551 78.0199 91.5012 78.1207C91.4472 78.2216 91.4202 78.3416 91.4202 78.4808H90.5445C90.5445 78.1953 90.6091 77.9474 90.7384 77.7372C90.8676 77.527 91.0487 77.3643 91.2817 77.2493C91.5146 77.1342 91.7831 77.0767 92.0871 77.0767C92.3996 77.0767 92.6716 77.1321 92.9031 77.2429C93.1361 77.3523 93.3172 77.5043 93.4465 77.6989C93.5757 77.8935 93.6404 78.1165 93.6404 78.3679C93.6404 78.5327 93.6077 78.6953 93.5423 78.8558C93.4784 79.0163 93.3641 79.1946 93.1993 79.3906C93.0345 79.5852 92.8023 79.8189 92.5026 80.0916L91.8655 80.7159V80.7457H93.6979V81.5H90.5871Z" fill="white"/>
<path d="M113.17 77.799V77.1364H116.652V77.799H115.303V81.5H114.519V77.799H113.17ZM117.785 81.5661C117.578 81.5661 117.391 81.5291 117.225 81.4553C117.06 81.38 116.93 81.2692 116.833 81.1229C116.738 80.9766 116.69 80.7962 116.69 80.5817C116.69 80.397 116.724 80.2443 116.792 80.1236C116.861 80.0028 116.954 79.9062 117.072 79.8338C117.189 79.7614 117.322 79.7067 117.47 79.6697C117.619 79.6314 117.773 79.6037 117.932 79.5866C118.124 79.5668 118.28 79.549 118.399 79.5334C118.518 79.5163 118.605 79.4908 118.659 79.4567C118.714 79.4212 118.742 79.3665 118.742 79.2926V79.2798C118.742 79.1193 118.694 78.995 118.599 78.907C118.504 78.8189 118.367 78.7749 118.188 78.7749C117.999 78.7749 117.849 78.8161 117.738 78.8984C117.629 78.9808 117.555 79.0781 117.517 79.1903L116.797 79.0881C116.854 78.8892 116.947 78.723 117.078 78.5895C117.209 78.4545 117.368 78.3537 117.557 78.2869C117.746 78.2188 117.955 78.1847 118.184 78.1847C118.341 78.1847 118.498 78.2031 118.655 78.2401C118.811 78.277 118.954 78.3381 119.083 78.4233C119.212 78.5071 119.316 78.6214 119.394 78.7663C119.474 78.9112 119.513 79.0923 119.513 79.3097V81.5H118.772V81.0504H118.746C118.699 81.1413 118.633 81.2266 118.548 81.3061C118.464 81.3842 118.358 81.4474 118.231 81.4957C118.104 81.5426 117.956 81.5661 117.785 81.5661ZM117.986 80.9993C118.14 80.9993 118.275 80.9687 118.388 80.9077C118.502 80.8452 118.589 80.7628 118.65 80.6605C118.713 80.5582 118.744 80.4467 118.744 80.326V79.9403C118.72 79.9602 118.679 79.9787 118.621 79.9957C118.564 80.0128 118.5 80.0277 118.429 80.0405C118.358 80.0533 118.287 80.0646 118.218 80.0746C118.148 80.0845 118.088 80.093 118.037 80.1001C117.922 80.1158 117.819 80.1413 117.728 80.1768C117.637 80.2124 117.565 80.2621 117.513 80.326C117.46 80.3885 117.434 80.4695 117.434 80.5689C117.434 80.7109 117.486 80.8182 117.589 80.8906C117.693 80.9631 117.825 80.9993 117.986 80.9993ZM120.323 81.5V77.1364H121.094V78.7685H121.126C121.166 78.6889 121.222 78.6044 121.295 78.5149C121.367 78.424 121.465 78.3466 121.589 78.2827C121.712 78.2173 121.87 78.1847 122.062 78.1847C122.314 78.1847 122.542 78.2493 122.746 78.3786C122.95 78.5064 123.112 78.696 123.231 78.9474C123.352 79.1974 123.412 79.5043 123.412 79.8679C123.412 80.2273 123.354 80.5327 123.236 80.7841C123.118 81.0355 122.957 81.2273 122.754 81.3594C122.551 81.4915 122.321 81.5575 122.064 81.5575C121.876 81.5575 121.721 81.5263 121.597 81.4638C121.474 81.4013 121.374 81.326 121.299 81.2379C121.225 81.1484 121.167 81.0639 121.126 80.9844H121.081V81.5H120.323ZM121.079 79.8636C121.079 80.0753 121.109 80.2607 121.169 80.4197C121.23 80.5788 121.317 80.7031 121.431 80.7926C121.546 80.8807 121.685 80.9247 121.849 80.9247C122.019 80.9247 122.162 80.8793 122.277 80.7884C122.392 80.696 122.479 80.5703 122.537 80.4112C122.596 80.2507 122.626 80.0682 122.626 79.8636C122.626 79.6605 122.597 79.4801 122.539 79.3224C122.481 79.1648 122.394 79.0412 122.279 78.9517C122.164 78.8622 122.02 78.8175 121.849 78.8175C121.684 78.8175 121.544 78.8608 121.429 78.9474C121.314 79.0341 121.226 79.1555 121.167 79.3118C121.108 79.468 121.079 79.652 121.079 79.8636ZM127.114 81.5597C126.807 81.5597 126.534 81.5071 126.296 81.402C126.059 81.2969 125.871 81.1506 125.733 80.9631C125.596 80.7756 125.522 80.5589 125.514 80.3132H126.315C126.322 80.4311 126.361 80.5341 126.432 80.6222C126.503 80.7088 126.598 80.7763 126.716 80.8246C126.833 80.8729 126.966 80.897 127.112 80.897C127.268 80.897 127.407 80.87 127.527 80.8161C127.648 80.7607 127.743 80.6839 127.811 80.5859C127.879 80.4879 127.912 80.375 127.911 80.2472C127.912 80.1151 127.878 79.9986 127.809 79.8977C127.739 79.7969 127.638 79.718 127.506 79.6612C127.375 79.6044 127.218 79.576 127.033 79.576H126.647V78.9666H127.033C127.185 78.9666 127.318 78.9403 127.431 78.8878C127.547 78.8352 127.637 78.7614 127.702 78.6662C127.767 78.5696 127.799 78.4581 127.798 78.3317C127.799 78.2081 127.772 78.1009 127.715 78.0099C127.659 77.9176 127.581 77.8459 127.478 77.7947C127.377 77.7436 127.259 77.718 127.123 77.718C126.989 77.718 126.865 77.7422 126.752 77.7905C126.638 77.8388 126.547 77.9077 126.477 77.9972C126.407 78.0852 126.37 78.1903 126.366 78.3125H125.605C125.611 78.0682 125.681 77.8537 125.816 77.669C125.953 77.483 126.135 77.3381 126.362 77.2344C126.589 77.1293 126.844 77.0767 127.127 77.0767C127.418 77.0767 127.671 77.1314 127.885 77.2408C128.101 77.3487 128.268 77.4943 128.386 77.6776C128.504 77.8608 128.563 78.0632 128.563 78.2848C128.564 78.5305 128.492 78.7365 128.346 78.9027C128.201 79.0689 128.01 79.1776 127.775 79.2287V79.2628C128.081 79.3054 128.316 79.419 128.48 79.6037C128.645 79.7869 128.726 80.0149 128.725 80.2876C128.725 80.532 128.655 80.7507 128.516 80.9439C128.378 81.1357 128.188 81.2862 127.945 81.3956C127.703 81.505 127.426 81.5597 127.114 81.5597Z" fill="white"/>
<path d="M148.126 77.799V77.1364H151.608V77.799H150.259V81.5H149.475V77.799H148.126ZM152.741 81.5661C152.534 81.5661 152.347 81.5291 152.181 81.4553C152.016 81.38 151.886 81.2692 151.789 81.1229C151.694 80.9766 151.646 80.7962 151.646 80.5817C151.646 80.397 151.68 80.2443 151.748 80.1236C151.817 80.0028 151.91 79.9062 152.028 79.8338C152.146 79.7614 152.278 79.7067 152.426 79.6697C152.575 79.6314 152.729 79.6037 152.888 79.5866C153.08 79.5668 153.236 79.549 153.355 79.5334C153.474 79.5163 153.561 79.4908 153.615 79.4567C153.67 79.4212 153.698 79.3665 153.698 79.2926V79.2798C153.698 79.1193 153.65 78.995 153.555 78.907C153.46 78.8189 153.323 78.7749 153.144 78.7749C152.955 78.7749 152.805 78.8161 152.695 78.8984C152.585 78.9808 152.511 79.0781 152.473 79.1903L151.753 79.0881C151.81 78.8892 151.903 78.723 152.034 78.5895C152.165 78.4545 152.324 78.3537 152.513 78.2869C152.702 78.2188 152.911 78.1847 153.14 78.1847C153.297 78.1847 153.454 78.2031 153.611 78.2401C153.767 78.277 153.91 78.3381 154.039 78.4233C154.168 78.5071 154.272 78.6214 154.35 78.7663C154.43 78.9112 154.469 79.0923 154.469 79.3097V81.5H153.728V81.0504H153.702C153.655 81.1413 153.589 81.2266 153.504 81.3061C153.42 81.3842 153.315 81.4474 153.187 81.4957C153.06 81.5426 152.912 81.5661 152.741 81.5661ZM152.942 80.9993C153.097 80.9993 153.231 80.9687 153.344 80.9077C153.458 80.8452 153.545 80.7628 153.606 80.6605C153.669 80.5582 153.7 80.4467 153.7 80.326V79.9403C153.676 79.9602 153.635 79.9787 153.577 79.9957C153.52 80.0128 153.456 80.0277 153.385 80.0405C153.314 80.0533 153.244 80.0646 153.174 80.0746C153.104 80.0845 153.044 80.093 152.993 80.1001C152.878 80.1158 152.775 80.1413 152.684 80.1768C152.593 80.2124 152.521 80.2621 152.469 80.326C152.416 80.3885 152.39 80.4695 152.39 80.5689C152.39 80.7109 152.442 80.8182 152.545 80.8906C152.649 80.9631 152.781 80.9993 152.942 80.9993ZM155.279 81.5V77.1364H156.05V78.7685H156.082C156.122 78.6889 156.178 78.6044 156.251 78.5149C156.323 78.424 156.421 78.3466 156.545 78.2827C156.668 78.2173 156.826 78.1847 157.018 78.1847C157.271 78.1847 157.498 78.2493 157.702 78.3786C157.906 78.5064 158.068 78.696 158.187 78.9474C158.308 79.1974 158.369 79.5043 158.369 79.8679C158.369 80.2273 158.31 80.5327 158.192 80.7841C158.074 81.0355 157.913 81.2273 157.71 81.3594C157.507 81.4915 157.277 81.5575 157.02 81.5575C156.832 81.5575 156.677 81.5263 156.553 81.4638C156.43 81.4013 156.33 81.326 156.255 81.2379C156.181 81.1484 156.123 81.0639 156.082 80.9844H156.038V81.5H155.279ZM156.035 79.8636C156.035 80.0753 156.065 80.2607 156.125 80.4197C156.186 80.5788 156.273 80.7031 156.387 80.7926C156.502 80.8807 156.641 80.9247 156.805 80.9247C156.975 80.9247 157.118 80.8793 157.233 80.7884C157.348 80.696 157.435 80.5703 157.493 80.4112C157.552 80.2507 157.582 80.0682 157.582 79.8636C157.582 79.6605 157.553 79.4801 157.495 79.3224C157.437 79.1648 157.35 79.0412 157.235 78.9517C157.12 78.8622 156.976 78.8175 156.805 78.8175C156.64 78.8175 156.5 78.8608 156.385 78.9474C156.27 79.0341 156.182 79.1555 156.123 79.3118C156.065 79.468 156.035 79.652 156.035 79.8636ZM160.425 80.6903V80.0618L162.277 77.1364H162.801V78.0312H162.481L161.235 80.0064V80.0405H163.819V80.6903H160.425ZM162.507 81.5V80.4986L162.515 80.2173V77.1364H163.261V81.5H162.507Z" fill="white"/>
</g>
<path d="M5 93.5H203" stroke="url(#paint7_linear_160_2939)"/>
<path d="M10 98.5H198" stroke="url(#paint8_linear_160_2939)"/>
<defs>
<filter id="filter0_d_160_2939" x="20.5" y="58.5" width="167" height="53" filterUnits="userSpaceOnUse" color-interpolation-filters="sRGB">
<feFlood flood-opacity="0" result="BackgroundImageFix"/>
<feColorMatrix in="SourceAlpha" type="matrix" values="0 0 0 0 0 0 0 0 0 0 0 0 0 0 0 0 0 0 127 0" result="hardAlpha"/>
<feOffset dy="6"/>
<feGaussianBlur stdDeviation="6"/>
<feComposite in2="hardAlpha" operator="out"/>
<feColorMatrix type="matrix" values="0 0 0 0 0 0 0 0 0 0 0 0 0 0 0 0 0 0 0.03 0"/>
<feBlend mode="normal" in2="BackgroundImageFix" result="effect1_dropShadow_160_2939"/>
<feBlend mode="normal" in="SourceGraphic" in2="effect1_dropShadow_160_2939" result="shape"/>
</filter>
<linearGradient id="paint0_linear_160_2939" x1="27.5" y1="153" x2="27.5" y2="5" gradientUnits="userSpaceOnUse">
<stop offset="0%" stop-color="white" stop-opacity="0"/>
<stop offset="0.185417" stop-color="white" stop-opacity="0.1"/>
<stop offset="0.826042" stop-color="white" stop-opacity="0.1"/>
<stop offset="1" stop-color="white" stop-opacity="0"/>
</linearGradient>
<linearGradient id="paint1_linear_160_2939" x1="32.5" y1="158" x2="32.5" y2="-2.74062e-08" gradientUnits="userSpaceOnUse">
<stop offset="0%" stop-color="white" stop-opacity="0"/>
<stop offset="0.185417" stop-color="white" stop-opacity="0.1"/>
<stop offset="0.826042" stop-color="white" stop-opacity="0.1"/>
<stop offset="1" stop-color="white" stop-opacity="0"/>
</linearGradient>
<linearGradient id="paint2_linear_160_2939" x1="176.5" y1="2.74063e-08" x2="176.5" y2="158" gradientUnits="userSpaceOnUse">
<stop offset="0%" stop-color="white" stop-opacity="0"/>
<stop offset="0.185417" stop-color="white" stop-opacity="0.1"/>
<stop offset="0.826042" stop-color="white" stop-opacity="0.1"/>
<stop offset="1" stop-color="white" stop-opacity="0"/>
</linearGradient>
<linearGradient id="paint3_linear_160_2939" x1="181.5" y1="5" x2="181.5" y2="153" gradientUnits="userSpaceOnUse">
<stop offset="0%" stop-color="white" stop-opacity="0"/>
<stop offset="0.185417" stop-color="white" stop-opacity="0.1"/>
<stop offset="0.826042" stop-color="white" stop-opacity="0.1"/>
<stop offset="1" stop-color="white" stop-opacity="0"/>
</linearGradient>
<linearGradient id="paint4_linear_160_2939" x1="104" y1="59.5" x2="104" y2="60.5" gradientUnits="userSpaceOnUse">
<stop offset="0%" stop-color="white" stop-opacity="0"/>
<stop offset="0.185417" stop-color="white" stop-opacity="0.1"/>
<stop offset="0.826042" stop-color="white" stop-opacity="0.1"/>
<stop offset="1" stop-color="white" stop-opacity="0"/>
</linearGradient>
<linearGradient id="paint5_linear_160_2939" x1="104" y1="64.5" x2="104" y2="65.5" gradientUnits="userSpaceOnUse">
<stop offset="0%" stop-color="white" stop-opacity="0"/>
<stop offset="0.185417" stop-color="white" stop-opacity="0.1"/>
<stop offset="0.826042" stop-color="white" stop-opacity="0.1"/>
<stop offset="1" stop-color="white" stop-opacity="0"/>
</linearGradient>
<linearGradient id="paint6_linear_160_2939" x1="53.7457" y1="67.516" x2="76.577" y2="129.205" gradientUnits="userSpaceOnUse">
<stop offset="0%" stop-color="#A855F7"/>
<stop offset="1" stop-color="#3B82F6"/>
</linearGradient>
<linearGradient id="paint7_linear_160_2939" x1="205" y1="94" x2="5" y2="93.9999" gradientUnits="userSpaceOnUse">
<stop offset="0%" stop-color="white" stop-opacity="0"/>
<stop offset="0.185417" stop-color="white" stop-opacity="0.1"/>
<stop offset="0.826042" stop-color="white" stop-opacity="0.1"/>
<stop offset="1" stop-color="white" stop-opacity="0"/>
</linearGradient>
<linearGradient id="paint8_linear_160_2939" x1="199.899" y1="99" x2="10" y2="98.9999" gradientUnits="userSpaceOnUse">
<stop offset="0%" stop-color="white" stop-opacity="0"/>
<stop offset="0.185417" stop-color="white" stop-opacity="0.1"/>
<stop offset="0.826042" stop-color="white" stop-opacity="0.1"/>
<stop offset="1" stop-color="white" stop-opacity="0"/>
</linearGradient>
</defs>
</svg>
