<svg width="208" height="158" viewBox="0 0 208 158" fill="none" xmlns="http://www.w3.org/2000/svg">
<path d="M24 153L24 5" stroke="url(#paint0_linear_160_3104)"/>
<path d="M29 158L29 -5.24521e-06" stroke="url(#paint1_linear_160_3104)"/>
<path d="M177 0L177 158" stroke="url(#paint2_linear_160_3104)"/>
<path d="M182 5L182 153" stroke="url(#paint3_linear_160_3104)"/>
<path d="M10 41.5H198" stroke="url(#paint4_linear_160_3104)"/>
<path d="M5 46.5H203" stroke="url(#paint5_linear_160_3104)"/>
<g filter="url(#filter0_d_160_3104)">
<path d="M29.5 52.5C29.5 49.1863 32.1863 46.5 35.5 46.5H172.5C175.814 46.5 178.5 49.1863 178.5 52.5V71.5C178.5 74.8137 175.814 77.5 172.5 77.5H35.5C32.1863 77.5 29.5 74.8137 29.5 71.5V52.5Z" fill="url(#paint6_linear_160_3104)"/>
<path d="M44.8345 65.7273L44.9357 63.4794L43.0394 64.6992L42.4588 63.6871L44.4723 62.6591L42.4588 61.631L43.0394 60.619L44.9357 61.8388L44.8345 59.5909H45.9904L45.8892 61.8388L47.7855 60.619L48.3661 61.631L46.3526 62.6591L48.3661 63.6871L47.7855 64.6992L45.8892 63.4794L45.9904 65.7273H44.8345ZM52.7318 65.7273L52.833 63.4794L50.9367 64.6992L50.3561 63.6871L52.3696 62.6591L50.3561 61.631L50.9367 60.619L52.833 61.8388L52.7318 59.5909H53.8877L53.7865 61.8388L55.6828 60.619L56.2634 61.631L54.2499 62.6591L56.2634 63.6871L55.6828 64.6992L53.7865 63.4794L53.8877 65.7273H52.7318ZM60.629 65.7273L60.7303 63.4794L58.8339 64.6992L58.2533 63.6871L60.2668 62.6591L58.2533 61.631L58.8339 60.619L60.7303 61.8388L60.629 59.5909H61.7849L61.6837 61.8388L63.58 60.619L64.1607 61.631L62.1472 62.6591L64.1607 63.6871L63.58 64.6992L61.6837 63.4794L61.7849 65.7273H60.629ZM68.5263 65.7273L68.6275 63.4794L66.7312 64.6992L66.1506 63.6871L68.1641 62.6591L66.1506 61.631L66.7312 60.619L68.6275 61.8388L68.5263 59.5909H69.6822L69.581 61.8388L71.4773 60.619L72.0579 61.631L70.0444 62.6591L72.0579 63.6871L71.4773 64.6992L69.581 63.4794L69.6822 65.7273H68.5263ZM76.4236 65.7273L76.5248 63.4794L74.6285 64.6992L74.0479 63.6871L76.0614 62.6591L74.0479 61.631L74.6285 60.619L76.5248 61.8388L76.4236 59.5909H77.5795L77.4783 61.8388L79.3746 60.619L79.9552 61.631L77.9417 62.6591L79.9552 63.6871L79.3746 64.6992L77.4783 63.4794L77.5795 65.7273H76.4236ZM84.3208 65.7273L84.4221 63.4794L82.5257 64.6992L81.9451 63.6871L83.9586 62.6591L81.9451 61.631L82.5257 60.619L84.4221 61.8388L84.3208 59.5909H85.4767L85.3755 61.8388L87.2718 60.619L87.8525 61.631L85.839 62.6591L87.8525 63.6871L87.2718 64.6992L85.3755 63.4794L85.4767 65.7273H84.3208ZM92.2181 65.7273L92.3193 63.4794L90.423 64.6992L89.8424 63.6871L91.8559 62.6591L89.8424 61.631L90.423 60.619L92.3193 61.8388L92.2181 59.5909H93.374L93.2728 61.8388L95.1691 60.619L95.7497 61.631L93.7362 62.6591L95.7497 63.6871L95.1691 64.6992L93.2728 63.4794L93.374 65.7273H92.2181ZM100.115 65.7273L100.217 63.4794L98.3203 64.6992L97.7397 63.6871L99.7532 62.6591L97.7397 61.631L98.3203 60.619L100.217 61.8388L100.115 59.5909H101.271L101.17 61.8388L103.066 60.619L103.647 61.631L101.633 62.6591L103.647 63.6871L103.066 64.6992L101.17 63.4794L101.271 65.7273H100.115Z" fill="white"/>
</g>
<rect x="30" y="92" width="15" height="15" rx="3.5" stroke="url(#paint7_linear_160_3104)"/>
<path d="M63.125 96.9205C63.0644 96.3826 62.8144 95.9659 62.375 95.6705C61.9356 95.3712 61.3826 95.2216 60.7159 95.2216C60.2386 95.2216 59.8258 95.2973 59.4773 95.4489C59.1288 95.5966 58.858 95.8011 58.6648 96.0625C58.4754 96.3201 58.3807 96.6136 58.3807 96.9432C58.3807 97.2197 58.4451 97.4583 58.5739 97.6591C58.7064 97.8598 58.8788 98.0284 59.0909 98.1648C59.3068 98.2973 59.5379 98.4091 59.7841 98.5C60.0303 98.5871 60.267 98.6591 60.4943 98.7159L61.6307 99.0114C62.0019 99.1023 62.3826 99.2254 62.7727 99.3807C63.1629 99.536 63.5246 99.7405 63.858 99.9943C64.1913 100.248 64.4602 100.562 64.6648 100.938C64.8731 101.312 64.9773 101.761 64.9773 102.284C64.9773 102.943 64.8068 103.528 64.4659 104.04C64.1288 104.551 63.6383 104.955 62.9943 105.25C62.3542 105.545 61.5795 105.693 60.6705 105.693C59.7992 105.693 59.0455 105.555 58.4091 105.278C57.7727 105.002 57.2746 104.61 56.9148 104.102C56.5549 103.591 56.3561 102.985 56.3182 102.284H58.0795C58.1136 102.705 58.25 103.055 58.4886 103.335C58.7311 103.612 59.0398 103.818 59.4148 103.955C59.7936 104.087 60.2083 104.153 60.6591 104.153C61.1553 104.153 61.5966 104.076 61.983 103.92C62.3731 103.761 62.6799 103.542 62.9034 103.261C63.1269 102.977 63.2386 102.646 63.2386 102.267C63.2386 101.922 63.1402 101.64 62.9432 101.42C62.75 101.201 62.4867 101.019 62.1534 100.875C61.8239 100.731 61.4508 100.604 61.0341 100.494L59.6591 100.119C58.7273 99.8655 57.9886 99.4924 57.4432 99C56.9015 98.5076 56.6307 97.8561 56.6307 97.0455C56.6307 96.375 56.8125 95.7898 57.1761 95.2898C57.5398 94.7898 58.0322 94.4015 58.6534 94.125C59.2746 93.8447 59.9754 93.7045 60.7557 93.7045C61.5436 93.7045 62.2386 93.8428 62.8409 94.1193C63.447 94.3958 63.9242 94.7765 64.2727 95.2614C64.6212 95.7424 64.803 96.2955 64.8182 96.9205H63.125ZM68.7178 100.318V105.5H67.0189V93.8636H68.6951V98.1932H68.803C69.0076 97.7235 69.3201 97.3504 69.7405 97.0739C70.161 96.7973 70.7102 96.6591 71.3882 96.6591C71.9867 96.6591 72.5095 96.7822 72.9564 97.0284C73.4072 97.2746 73.7557 97.642 74.0019 98.1307C74.2519 98.6155 74.3769 99.2216 74.3769 99.9489V105.5H72.678V100.153C72.678 99.5133 72.5132 99.017 72.1837 98.6648C71.8541 98.3087 71.3958 98.1307 70.8087 98.1307C70.4072 98.1307 70.0473 98.2159 69.7291 98.3864C69.4148 98.5568 69.1666 98.8068 68.9848 99.1364C68.8068 99.4621 68.7178 99.8561 68.7178 100.318ZM80.4001 105.676C79.5819 105.676 78.8679 105.489 78.258 105.114C77.6482 104.739 77.1747 104.214 76.8376 103.54C76.5004 102.866 76.3319 102.078 76.3319 101.176C76.3319 100.271 76.5004 99.4792 76.8376 98.8011C77.1747 98.1231 77.6482 97.5966 78.258 97.2216C78.8679 96.8466 79.5819 96.6591 80.4001 96.6591C81.2182 96.6591 81.9323 96.8466 82.5421 97.2216C83.152 97.5966 83.6254 98.1231 83.9626 98.8011C84.2997 99.4792 84.4682 100.271 84.4682 101.176C84.4682 102.078 84.2997 102.866 83.9626 103.54C83.6254 104.214 83.152 104.739 82.5421 105.114C81.9323 105.489 81.2182 105.676 80.4001 105.676ZM80.4057 104.25C80.936 104.25 81.3754 104.11 81.7239 103.83C82.0724 103.549 82.33 103.176 82.4966 102.71C82.6671 102.244 82.7523 101.731 82.7523 101.17C82.7523 100.614 82.6671 100.102 82.4966 99.6364C82.33 99.1667 82.0724 98.7898 81.7239 98.5057C81.3754 98.2216 80.936 98.0795 80.4057 98.0795C79.8716 98.0795 79.4285 98.2216 79.0762 98.5057C78.7277 98.7898 78.4682 99.1667 78.2978 99.6364C78.1311 100.102 78.0478 100.614 78.0478 101.17C78.0478 101.731 78.1311 102.244 78.2978 102.71C78.4682 103.176 78.7277 103.549 79.0762 103.83C79.4285 104.11 79.8716 104.25 80.4057 104.25ZM88.071 105.5L85.5028 96.7727H87.2585L88.9687 103.182H89.0539L90.7698 96.7727H92.5255L94.2301 103.153H94.3153L96.0141 96.7727H97.7698L95.2073 105.5H93.4744L91.7016 99.1989H91.571L89.7982 105.5H88.071ZM103.776 108.773V96.7727H105.436V98.1875H105.578C105.676 98.0057 105.818 97.7955 106.004 97.5568C106.189 97.3182 106.447 97.1098 106.776 96.9318C107.106 96.75 107.542 96.6591 108.083 96.6591C108.788 96.6591 109.417 96.8371 109.97 97.1932C110.523 97.5492 110.956 98.0625 111.271 98.733C111.589 99.4034 111.748 100.21 111.748 101.153C111.748 102.097 111.591 102.905 111.276 103.58C110.962 104.25 110.53 104.767 109.981 105.131C109.432 105.491 108.805 105.67 108.1 105.67C107.57 105.67 107.136 105.581 106.799 105.403C106.466 105.225 106.204 105.017 106.015 104.778C105.826 104.54 105.68 104.328 105.578 104.142H105.475V108.773H103.776ZM105.441 101.136C105.441 101.75 105.53 102.288 105.708 102.75C105.886 103.212 106.144 103.574 106.481 103.835C106.818 104.093 107.231 104.222 107.72 104.222C108.227 104.222 108.651 104.087 108.992 103.818C109.333 103.545 109.591 103.176 109.765 102.71C109.943 102.244 110.032 101.72 110.032 101.136C110.032 100.561 109.945 100.044 109.771 99.5852C109.6 99.1269 109.343 98.7652 108.998 98.5C108.657 98.2348 108.231 98.1023 107.72 98.1023C107.227 98.1023 106.811 98.2292 106.47 98.483C106.132 98.7367 105.877 99.0909 105.703 99.5455C105.528 100 105.441 100.53 105.441 101.136ZM116.271 105.693C115.718 105.693 115.218 105.591 114.771 105.386C114.324 105.178 113.97 104.877 113.709 104.483C113.451 104.089 113.322 103.606 113.322 103.034C113.322 102.542 113.417 102.136 113.606 101.818C113.796 101.5 114.051 101.248 114.373 101.062C114.695 100.877 115.055 100.737 115.453 100.642C115.851 100.547 116.256 100.475 116.669 100.426C117.192 100.366 117.616 100.316 117.942 100.278C118.267 100.237 118.504 100.17 118.652 100.08C118.8 99.9886 118.873 99.8409 118.873 99.6364V99.5966C118.873 99.1004 118.733 98.7159 118.453 98.4432C118.176 98.1705 117.764 98.0341 117.214 98.0341C116.642 98.0341 116.192 98.161 115.862 98.4148C115.536 98.6648 115.311 98.9432 115.186 99.25L113.589 98.8864C113.779 98.3561 114.055 97.928 114.419 97.6023C114.786 97.2727 115.209 97.0341 115.686 96.8864C116.163 96.7348 116.665 96.6591 117.192 96.6591C117.54 96.6591 117.909 96.7008 118.3 96.7841C118.694 96.8636 119.061 97.0114 119.402 97.2273C119.747 97.4432 120.029 97.7519 120.248 98.1534C120.468 98.5511 120.578 99.0682 120.578 99.7045V105.5H118.919V104.307H118.851C118.741 104.527 118.576 104.742 118.356 104.955C118.137 105.167 117.855 105.343 117.51 105.483C117.165 105.623 116.752 105.693 116.271 105.693ZM116.641 104.33C117.11 104.33 117.512 104.237 117.845 104.051C118.182 103.866 118.438 103.623 118.612 103.324C118.79 103.021 118.879 102.697 118.879 102.352V101.227C118.819 101.288 118.701 101.345 118.527 101.398C118.356 101.447 118.161 101.491 117.942 101.528C117.722 101.562 117.508 101.595 117.3 101.625C117.091 101.652 116.917 101.674 116.777 101.693C116.447 101.735 116.146 101.805 115.873 101.903C115.605 102.002 115.389 102.144 115.226 102.33C115.067 102.511 114.987 102.754 114.987 103.057C114.987 103.477 115.142 103.795 115.453 104.011C115.764 104.223 116.159 104.33 116.641 104.33ZM129.461 98.9034L127.921 99.1761C127.856 98.9792 127.754 98.7917 127.614 98.6136C127.478 98.4356 127.292 98.2898 127.057 98.1761C126.822 98.0625 126.529 98.0057 126.176 98.0057C125.695 98.0057 125.294 98.1136 124.972 98.3295C124.65 98.5417 124.489 98.8163 124.489 99.1534C124.489 99.4451 124.597 99.6799 124.813 99.858C125.029 100.036 125.377 100.182 125.858 100.295L127.245 100.614C128.048 100.799 128.646 101.085 129.04 101.472C129.434 101.858 129.631 102.36 129.631 102.977C129.631 103.5 129.48 103.966 129.176 104.375C128.877 104.78 128.459 105.098 127.921 105.33C127.387 105.561 126.767 105.676 126.063 105.676C125.086 105.676 124.288 105.468 123.671 105.051C123.053 104.631 122.675 104.034 122.534 103.261L124.176 103.011C124.279 103.439 124.489 103.763 124.807 103.983C125.125 104.199 125.54 104.307 126.051 104.307C126.608 104.307 127.053 104.191 127.387 103.96C127.72 103.725 127.887 103.439 127.887 103.102C127.887 102.83 127.784 102.6 127.58 102.415C127.379 102.229 127.07 102.089 126.654 101.994L125.176 101.67C124.362 101.485 123.76 101.189 123.37 100.784C122.983 100.379 122.79 99.8655 122.79 99.2443C122.79 98.7292 122.934 98.2784 123.222 97.892C123.51 97.5057 123.908 97.2045 124.415 96.9886C124.923 96.7689 125.504 96.6591 126.159 96.6591C127.103 96.6591 127.845 96.8636 128.387 97.2727C128.928 97.678 129.286 98.2216 129.461 98.9034ZM138.119 98.9034L136.579 99.1761C136.515 98.9792 136.412 98.7917 136.272 98.6136C136.136 98.4356 135.95 98.2898 135.715 98.1761C135.48 98.0625 135.187 98.0057 134.835 98.0057C134.354 98.0057 133.952 98.1136 133.63 98.3295C133.308 98.5417 133.147 98.8163 133.147 99.1534C133.147 99.4451 133.255 99.6799 133.471 99.858C133.687 100.036 134.035 100.182 134.516 100.295L135.903 100.614C136.706 100.799 137.304 101.085 137.698 101.472C138.092 101.858 138.289 102.36 138.289 102.977C138.289 103.5 138.138 103.966 137.835 104.375C137.535 104.78 137.117 105.098 136.579 105.33C136.045 105.561 135.426 105.676 134.721 105.676C133.744 105.676 132.946 105.468 132.329 105.051C131.711 104.631 131.333 104.034 131.193 103.261L132.835 103.011C132.937 103.439 133.147 103.763 133.465 103.983C133.783 104.199 134.198 104.307 134.71 104.307C135.266 104.307 135.711 104.191 136.045 103.96C136.378 103.725 136.545 103.439 136.545 103.102C136.545 102.83 136.443 102.6 136.238 102.415C136.037 102.229 135.729 102.089 135.312 101.994L133.835 101.67C133.02 101.485 132.418 101.189 132.028 100.784C131.641 100.379 131.448 99.8655 131.448 99.2443C131.448 98.7292 131.592 98.2784 131.88 97.892C132.168 97.5057 132.566 97.2045 133.073 96.9886C133.581 96.7689 134.162 96.6591 134.818 96.6591C135.761 96.6591 136.503 96.8636 137.045 97.2727C137.586 97.678 137.944 98.2216 138.119 98.9034ZM142.129 105.5L139.561 96.7727H141.317L143.027 103.182H143.112L144.828 96.7727H146.584L148.288 103.153H148.373L150.072 96.7727H151.828L149.265 105.5H147.533L145.76 99.1989H145.629L143.856 105.5H142.129ZM156.931 105.676C156.113 105.676 155.398 105.489 154.789 105.114C154.179 104.739 153.705 104.214 153.368 103.54C153.031 102.866 152.863 102.078 152.863 101.176C152.863 100.271 153.031 99.4792 153.368 98.8011C153.705 98.1231 154.179 97.5966 154.789 97.2216C155.398 96.8466 156.113 96.6591 156.931 96.6591C157.749 96.6591 158.463 96.8466 159.073 97.2216C159.683 97.5966 160.156 98.1231 160.493 98.8011C160.83 99.4792 160.999 100.271 160.999 101.176C160.999 102.078 160.83 102.866 160.493 103.54C160.156 104.214 159.683 104.739 159.073 105.114C158.463 105.489 157.749 105.676 156.931 105.676ZM156.936 104.25C157.467 104.25 157.906 104.11 158.255 103.83C158.603 103.549 158.861 103.176 159.027 102.71C159.198 102.244 159.283 101.731 159.283 101.17C159.283 100.614 159.198 100.102 159.027 99.6364C158.861 99.1667 158.603 98.7898 158.255 98.5057C157.906 98.2216 157.467 98.0795 156.936 98.0795C156.402 98.0795 155.959 98.2216 155.607 98.5057C155.258 98.7898 154.999 99.1667 154.828 99.6364C154.662 100.102 154.578 100.614 154.578 101.17C154.578 101.731 154.662 102.244 154.828 102.71C154.999 103.176 155.258 103.549 155.607 103.83C155.959 104.11 156.402 104.25 156.936 104.25ZM162.975 105.5V96.7727H164.617V98.1591H164.708C164.867 97.6894 165.148 97.3201 165.549 97.0511C165.954 96.7784 166.413 96.642 166.924 96.642C167.03 96.642 167.155 96.6458 167.299 96.6534C167.447 96.661 167.562 96.6705 167.646 96.6818V98.3068C167.577 98.2879 167.456 98.267 167.282 98.2443C167.108 98.2178 166.934 98.2045 166.759 98.2045C166.358 98.2045 166 98.2898 165.685 98.4602C165.375 98.6269 165.129 98.8598 164.947 99.1591C164.765 99.4545 164.674 99.7917 164.674 100.17V105.5H162.975ZM172.15 105.67C171.446 105.67 170.817 105.491 170.264 105.131C169.715 104.767 169.283 104.25 168.969 103.58C168.658 102.905 168.503 102.097 168.503 101.153C168.503 100.21 168.66 99.4034 168.974 98.733C169.292 98.0625 169.728 97.5492 170.281 97.1932C170.834 96.8371 171.461 96.6591 172.162 96.6591C172.703 96.6591 173.139 96.75 173.469 96.9318C173.802 97.1098 174.059 97.3182 174.241 97.5568C174.427 97.7955 174.571 98.0057 174.673 98.1875H174.775V93.8636H176.474V105.5H174.815V104.142H174.673C174.571 104.328 174.423 104.54 174.23 104.778C174.04 105.017 173.779 105.225 173.446 105.403C173.112 105.581 172.681 105.67 172.15 105.67ZM172.525 104.222C173.014 104.222 173.427 104.093 173.764 103.835C174.105 103.574 174.362 103.212 174.537 102.75C174.715 102.288 174.804 101.75 174.804 101.136C174.804 100.53 174.717 100 174.542 99.5455C174.368 99.0909 174.112 98.7367 173.775 98.483C173.438 98.2292 173.022 98.1023 172.525 98.1023C172.014 98.1023 171.588 98.2348 171.247 98.5C170.906 98.7652 170.648 99.1269 170.474 99.5852C170.304 100.044 170.219 100.561 170.219 101.136C170.219 101.72 170.306 102.244 170.48 102.71C170.654 103.176 170.912 103.545 171.253 103.818C171.597 104.087 172.022 104.222 172.525 104.222Z" fill="url(#paint8_linear_160_3104)"/>
<path d="M5 111.5H203" stroke="url(#paint9_linear_160_3104)"/>
<path d="M10 116.5H198" stroke="url(#paint10_linear_160_3104)"/>
<defs>
<filter id="filter0_d_160_3104" x="17.5" y="40.5" width="173" height="55" filterUnits="userSpaceOnUse" color-interpolation-filters="sRGB">
<feFlood flood-opacity="0" result="BackgroundImageFix"/>
<feColorMatrix in="SourceAlpha" type="matrix" values="0 0 0 0 0 0 0 0 0 0 0 0 0 0 0 0 0 0 127 0" result="hardAlpha"/>
<feOffset dy="6"/>
<feGaussianBlur stdDeviation="6"/>
<feComposite in2="hardAlpha" operator="out"/>
<feColorMatrix type="matrix" values="0 0 0 0 0 0 0 0 0 0 0 0 0 0 0 0 0 0 0.03 0"/>
<feBlend mode="normal" in2="BackgroundImageFix" result="effect1_dropShadow_160_3104"/>
<feBlend mode="normal" in="SourceGraphic" in2="effect1_dropShadow_160_3104" result="shape"/>
</filter>
<linearGradient id="paint0_linear_160_3104" x1="24.5" y1="153" x2="24.5" y2="5" gradientUnits="userSpaceOnUse">
<stop offset="0%" stop-color="white" stop-opacity="0"/>
<stop offset="0.185417" stop-color="white" stop-opacity="0.1"/>
<stop offset="0.826042" stop-color="white" stop-opacity="0.1"/>
<stop offset="1" stop-color="white" stop-opacity="0"/>
</linearGradient>
<linearGradient id="paint1_linear_160_3104" x1="29.5" y1="158" x2="29.5" y2="-2.74062e-08" gradientUnits="userSpaceOnUse">
<stop offset="0%" stop-color="white" stop-opacity="0"/>
<stop offset="0.185417" stop-color="white" stop-opacity="0.1"/>
<stop offset="0.826042" stop-color="white" stop-opacity="0.1"/>
<stop offset="1" stop-color="white" stop-opacity="0"/>
</linearGradient>
<linearGradient id="paint2_linear_160_3104" x1="177.5" y1="2.74063e-08" x2="177.5" y2="158" gradientUnits="userSpaceOnUse">
<stop offset="0%" stop-color="white" stop-opacity="0"/>
<stop offset="0.185417" stop-color="white" stop-opacity="0.1"/>
<stop offset="0.826042" stop-color="white" stop-opacity="0.1"/>
<stop offset="1" stop-color="white" stop-opacity="0"/>
</linearGradient>
<linearGradient id="paint3_linear_160_3104" x1="182.5" y1="5" x2="182.5" y2="153" gradientUnits="userSpaceOnUse">
<stop offset="0%" stop-color="white" stop-opacity="0"/>
<stop offset="0.185417" stop-color="white" stop-opacity="0.1"/>
<stop offset="0.826042" stop-color="white" stop-opacity="0.1"/>
<stop offset="1" stop-color="white" stop-opacity="0"/>
</linearGradient>
<linearGradient id="paint4_linear_160_3104" x1="199.899" y1="42" x2="10" y2="41.9999" gradientUnits="userSpaceOnUse">
<stop offset="0%" stop-color="white" stop-opacity="0"/>
<stop offset="0.185417" stop-color="white" stop-opacity="0.1"/>
<stop offset="0.826042" stop-color="white" stop-opacity="0.1"/>
<stop offset="1" stop-color="white" stop-opacity="0"/>
</linearGradient>
<linearGradient id="paint5_linear_160_3104" x1="205" y1="47" x2="5" y2="46.9999" gradientUnits="userSpaceOnUse">
<stop offset="0%" stop-color="white" stop-opacity="0"/>
<stop offset="0.185417" stop-color="white" stop-opacity="0.1"/>
<stop offset="0.826042" stop-color="white" stop-opacity="0.1"/>
<stop offset="1" stop-color="white" stop-opacity="0"/>
</linearGradient>
<linearGradient id="paint6_linear_160_3104" x1="51.6371" y1="49.724" x2="76.5182" y2="115.252" gradientUnits="userSpaceOnUse">
<stop offset="0%" stop-color="#A855F7"/>
<stop offset="1" stop-color="#3B82F6"/>
</linearGradient>
<linearGradient id="paint7_linear_160_3104" x1="31.8771" y1="93.164" x2="48.1848" y2="102.1" gradientUnits="userSpaceOnUse">
<stop offset="0%" stop-color="#A855F7"/>
<stop offset="1" stop-color="#3B82F6"/>
</linearGradient>
<linearGradient id="paint8_linear_160_3104" x1="73.7743" y1="89.996" x2="92.1181" y2="141.51" gradientUnits="userSpaceOnUse">
<stop offset="0%" stop-color="#A855F7"/>
<stop offset="1" stop-color="#3B82F6"/>
</linearGradient>
<linearGradient id="paint9_linear_160_3104" x1="205" y1="112" x2="5" y2="112" gradientUnits="userSpaceOnUse">
<stop offset="0%" stop-color="white" stop-opacity="0"/>
<stop offset="0.185417" stop-color="white" stop-opacity="0.1"/>
<stop offset="0.826042" stop-color="white" stop-opacity="0.1"/>
<stop offset="1" stop-color="white" stop-opacity="0"/>
</linearGradient>
<linearGradient id="paint10_linear_160_3104" x1="199.899" y1="117" x2="10" y2="117" gradientUnits="userSpaceOnUse">
<stop offset="0%" stop-color="white" stop-opacity="0"/>
<stop offset="0.185417" stop-color="white" stop-opacity="0.1"/>
<stop offset="0.826042" stop-color="white" stop-opacity="0.1"/>
<stop offset="1" stop-color="white" stop-opacity="0"/>
</linearGradient>
</defs>
</svg>
