<svg width="208" height="158" viewBox="0 0 208 158" fill="none" xmlns="http://www.w3.org/2000/svg">
<path d="M54 153L54 5" stroke="url(#paint0_linear_160_3293)"/>
<path d="M59 158L59 -5.24521e-06" stroke="url(#paint1_linear_160_3293)"/>
<path d="M149 0L149 158" stroke="url(#paint2_linear_160_3293)"/>
<path d="M154 5L154 153" stroke="url(#paint3_linear_160_3293)"/>
<path d="M10 45H198" stroke="url(#paint4_linear_160_3293)"/>
<path d="M5 50H203" stroke="url(#paint5_linear_160_3293)"/>
<g filter="url(#filter0_d_160_3293)">
<path d="M59.5 56C59.5 52.6863 62.1863 50 65.5 50H142.5C145.814 50 148.5 52.6863 148.5 56V67C148.5 70.3137 145.814 73 142.5 73H65.5C62.1863 73 59.5 70.3137 59.5 67V56Z" fill="url(#paint6_linear_160_3293)" shape-rendering="crispEdges"/>
<rect x="74.5" y="60" width="59" height="3" rx="1.5" fill="white"/>
</g>
<g filter="url(#filter1_d_160_3293)">
<path d="M103.306 79.6428L96.5 73H111.241C111.478 73 111.583 73.2757 111.425 73.4261L105.04 79.6428C104.567 80.1191 103.779 80.1191 103.306 79.6428Z" fill="url(#paint7_linear_160_3293)"/>
</g>
<circle cx="104" cy="98" r="10" fill="url(#paint8_linear_160_3293)"/>
<path d="M100.569 95.2325C100.567 95.2729 100.573 95.3132 100.588 95.3509C100.602 95.3886 100.624 95.423 100.653 95.4519C100.681 95.4809 100.715 95.5037 100.752 95.5191C100.789 95.5344 100.829 95.542 100.87 95.5412H101.901C102.074 95.5412 102.211 95.4 102.234 95.2287C102.346 94.4088 102.909 93.8113 103.911 93.8113C104.769 93.8113 105.554 94.24 105.554 95.2712C105.554 96.065 105.086 96.43 104.347 96.985C103.506 97.5963 102.84 98.31 102.887 99.4688L102.891 99.74C102.892 99.822 102.926 99.9002 102.984 99.9577C103.043 100.015 103.122 100.048 103.204 100.047H104.217C104.3 100.047 104.38 100.015 104.438 99.956C104.497 99.8974 104.53 99.8179 104.53 99.735V99.6038C104.53 98.7063 104.871 98.445 105.792 97.7463C106.554 97.1675 107.347 96.525 107.347 95.1763C107.347 93.2875 105.752 92.375 104.006 92.375C102.422 92.375 100.687 93.1125 100.569 95.2325ZM102.515 102.436C102.515 103.102 103.046 103.595 103.777 103.595C104.539 103.595 105.062 103.102 105.062 102.436C105.062 101.746 104.537 101.261 103.776 101.261C103.046 101.261 102.515 101.746 102.515 102.436Z" fill="white"/>
<path d="M5 108H203" stroke="url(#paint9_linear_160_3293)"/>
<path d="M10 113H198" stroke="url(#paint10_linear_160_3293)"/>
<defs>
<filter id="filter0_d_160_3293" x="47.5" y="44" width="113" height="47" filterUnits="userSpaceOnUse" color-interpolation-filters="sRGB">
<feFlood flood-opacity="0" result="BackgroundImageFix"/>
<feColorMatrix in="SourceAlpha" type="matrix" values="0 0 0 0 0 0 0 0 0 0 0 0 0 0 0 0 0 0 127 0" result="hardAlpha"/>
<feOffset dy="6"/>
<feGaussianBlur stdDeviation="6"/>
<feComposite in2="hardAlpha" operator="out"/>
<feColorMatrix type="matrix" values="0 0 0 0 0 0 0 0 0 0 0 0 0 0 0 0 0 0 0.03 0"/>
<feBlend mode="normal" in2="BackgroundImageFix" result="effect1_dropShadow_160_3293"/>
<feBlend mode="normal" in="SourceGraphic" in2="effect1_dropShadow_160_3293" result="shape"/>
</filter>
<filter id="filter1_d_160_3293" x="84.5" y="67" width="39" height="31" filterUnits="userSpaceOnUse" color-interpolation-filters="sRGB">
<feFlood flood-opacity="0" result="BackgroundImageFix"/>
<feColorMatrix in="SourceAlpha" type="matrix" values="0 0 0 0 0 0 0 0 0 0 0 0 0 0 0 0 0 0 127 0" result="hardAlpha"/>
<feOffset dy="6"/>
<feGaussianBlur stdDeviation="6"/>
<feComposite in2="hardAlpha" operator="out"/>
<feColorMatrix type="matrix" values="0 0 0 0 0 0 0 0 0 0 0 0 0 0 0 0 0 0 0.03 0"/>
<feBlend mode="normal" in2="BackgroundImageFix" result="effect1_dropShadow_160_3293"/>
<feBlend mode="normal" in="SourceGraphic" in2="effect1_dropShadow_160_3293" result="shape"/>
</filter>
<linearGradient id="paint0_linear_160_3293" x1="54.5" y1="153" x2="54.5" y2="5" gradientUnits="userSpaceOnUse">
<stop offset="0%" stop-color="white" stop-opacity="0"/>
<stop offset="0.185417" stop-color="white" stop-opacity="0.1"/>
<stop offset="0.826042" stop-color="white" stop-opacity="0.1"/>
<stop offset="1" stop-color="white" stop-opacity="0"/>
</linearGradient>
<linearGradient id="paint1_linear_160_3293" x1="59.5" y1="158" x2="59.5" y2="-2.74062e-08" gradientUnits="userSpaceOnUse">
<stop offset="0%" stop-color="white" stop-opacity="0"/>
<stop offset="0.185417" stop-color="white" stop-opacity="0.1"/>
<stop offset="0.826042" stop-color="white" stop-opacity="0.1"/>
<stop offset="1" stop-color="white" stop-opacity="0"/>
</linearGradient>
<linearGradient id="paint2_linear_160_3293" x1="149.5" y1="2.74063e-08" x2="149.5" y2="158" gradientUnits="userSpaceOnUse">
<stop offset="0%" stop-color="white" stop-opacity="0"/>
<stop offset="0.185417" stop-color="white" stop-opacity="0.1"/>
<stop offset="0.826042" stop-color="white" stop-opacity="0.1"/>
<stop offset="1" stop-color="white" stop-opacity="0"/>
</linearGradient>
<linearGradient id="paint3_linear_160_3293" x1="154.5" y1="5" x2="154.5" y2="153" gradientUnits="userSpaceOnUse">
<stop offset="0%" stop-color="white" stop-opacity="0"/>
<stop offset="0.185417" stop-color="white" stop-opacity="0.1"/>
<stop offset="0.826042" stop-color="white" stop-opacity="0.1"/>
<stop offset="1" stop-color="white" stop-opacity="0"/>
</linearGradient>
<linearGradient id="paint4_linear_160_3293" x1="104" y1="45" x2="104" y2="46" gradientUnits="userSpaceOnUse">
<stop offset="0%" stop-color="white" stop-opacity="0"/>
<stop offset="0.185417" stop-color="white" stop-opacity="0.1"/>
<stop offset="0.826042" stop-color="white" stop-opacity="0.1"/>
<stop offset="1" stop-color="white" stop-opacity="0"/>
</linearGradient>
<linearGradient id="paint5_linear_160_3293" x1="104" y1="50" x2="104" y2="51" gradientUnits="userSpaceOnUse">
<stop offset="0%" stop-color="white" stop-opacity="0"/>
<stop offset="0.185417" stop-color="white" stop-opacity="0.1"/>
<stop offset="0.826042" stop-color="white" stop-opacity="0.1"/>
<stop offset="1" stop-color="white" stop-opacity="0"/>
</linearGradient>
<linearGradient id="paint6_linear_160_3293" x1="72.7229" y1="52.392" x2="94.1845" y2="97.8972" gradientUnits="userSpaceOnUse">
<stop offset="0%" stop-color="#A855F7"/>
<stop offset="1" stop-color="#3B82F6"/>
</linearGradient>
<linearGradient id="paint7_linear_160_3293" x1="98.7286" y1="73.728" x2="107.086" y2="83.5406" gradientUnits="userSpaceOnUse">
<stop offset="0%" stop-color="#A855F7"/>
<stop offset="1" stop-color="#3B82F6"/>
</linearGradient>
<linearGradient id="paint8_linear_160_3293" x1="96.9714" y1="90.08" x2="117.356" y2="101.25" gradientUnits="userSpaceOnUse">
<stop offset="0%" stop-color="#A855F7"/>
<stop offset="1" stop-color="#3B82F6"/>
</linearGradient>
<linearGradient id="paint9_linear_160_3293" x1="205" y1="108.5" x2="5" y2="108.5" gradientUnits="userSpaceOnUse">
<stop offset="0%" stop-color="white" stop-opacity="0"/>
<stop offset="0.185417" stop-color="white" stop-opacity="0.1"/>
<stop offset="0.826042" stop-color="white" stop-opacity="0.1"/>
<stop offset="1" stop-color="white" stop-opacity="0"/>
</linearGradient>
<linearGradient id="paint10_linear_160_3293" x1="199.899" y1="113.5" x2="10" y2="113.5" gradientUnits="userSpaceOnUse">
<stop offset="0%" stop-color="white" stop-opacity="0"/>
<stop offset="0.185417" stop-color="white" stop-opacity="0.1"/>
<stop offset="0.826042" stop-color="white" stop-opacity="0.1"/>
<stop offset="1" stop-color="white" stop-opacity="0"/>
</linearGradient>
</defs>
</svg>
