<svg width="208" height="158" viewBox="0 0 208 158" fill="none" xmlns="http://www.w3.org/2000/svg">
<path d="M33.5 153L33.5 5" stroke="url(#paint0_linear_3558_2200)"/>
<path d="M38.5 158L38.5 -5.24521e-06" stroke="url(#paint1_linear_3558_2200)"/>
<path d="M169.5 0L169.5 158" stroke="url(#paint2_linear_3558_2200)"/>
<path d="M174.5 5L174.5 153" stroke="url(#paint3_linear_3558_2200)"/>
<path d="M10 32.3105H198" stroke="url(#paint4_linear_3558_2200)"/>
<path d="M5 37.3105H203" stroke="url(#paint5_linear_3558_2200)"/>
<path d="M60.6304 42.3416H65.1956" stroke="url(#paint6_linear_3558_2200)" stroke-width="0.559006" stroke-linecap="round" stroke-linejoin="round"/>
<g clip-path="url(#clip0_3558_2200)">
<path d="M70.5528 44.205H74.2795C74.403 44.205 74.5215 44.1559 74.6089 44.0685C74.6962 43.9812 74.7453 43.8627 74.7453 43.7391V41.4099C74.7453 41.2864 74.6962 41.1679 74.6089 41.0805C74.5215 40.9932 74.403 40.9441 74.2795 40.9441H72.4324C72.3557 40.9437 72.2802 40.9243 72.2128 40.8878C72.1453 40.8512 72.088 40.7985 72.0458 40.7345L71.8548 40.455C71.8126 40.3909 71.7552 40.3382 71.6877 40.3016C71.6203 40.2651 71.5449 40.2457 71.4681 40.2453H70.5528C70.4292 40.2453 70.3107 40.2944 70.2234 40.3818C70.136 40.4691 70.0869 40.5876 70.0869 40.7112V43.7391C70.0869 43.9953 70.2965 44.205 70.5528 44.205Z" stroke="url(#paint7_linear_3558_2200)" stroke-width="0.559006" stroke-linecap="round" stroke-linejoin="round"/>
</g>
<rect x="79.1243" y="40.6646" width="69.8758" height="3.35404" rx="1.67702" fill="url(#paint8_linear_3558_2200)"/>
<path d="M70.1335 52.4037H74.6988" stroke="url(#paint9_linear_3558_2200)" stroke-width="0.559006" stroke-linecap="round" stroke-linejoin="round"/>
<g clip-path="url(#clip1_3558_2200)">
<path d="M80.0559 54.2671H83.7826C83.9062 54.2671 84.0247 54.218 84.112 54.1307C84.1994 54.0433 84.2485 53.9248 84.2485 53.8013V51.4721C84.2485 51.3485 84.1994 51.23 84.112 51.1427C84.0247 51.0553 83.9062 51.0062 83.7826 51.0062H81.9356C81.8589 51.0058 81.7834 50.9865 81.716 50.9499C81.6485 50.9133 81.5911 50.8607 81.5489 50.7966L81.3579 50.5171C81.3157 50.453 81.2584 50.4003 81.1909 50.3638C81.1235 50.3272 81.048 50.3079 80.9713 50.3075H80.0559C79.9324 50.3075 79.8139 50.3565 79.7265 50.4439C79.6392 50.5313 79.5901 50.6498 79.5901 50.7733V53.8013C79.5901 54.0575 79.7997 54.2671 80.0559 54.2671Z" stroke="url(#paint10_linear_3558_2200)" stroke-width="0.559006" stroke-linecap="round" stroke-linejoin="round"/>
</g>
<rect x="88.6274" y="50.7267" width="52.5466" height="3.35404" rx="1.67702" fill="url(#paint11_linear_3558_2200)"/>
<path d="M79.6365 62.4659H84.2017" stroke="url(#paint12_linear_3558_2200)" stroke-width="0.559006" stroke-linecap="round" stroke-linejoin="round"/>
<rect width="63.1677" height="10.0621" transform="translate(85.8323 64.7019)" fill="white" fill-opacity="0.1"/>
<g clip-path="url(#clip2_3558_2200)">
<path d="M89.5591 71.5963H93.2858C93.4094 71.5963 93.5278 71.5472 93.6152 71.4598C93.7026 71.3725 93.7516 71.254 93.7516 71.1304V68.8013C93.7516 68.6777 93.7026 68.5592 93.6152 68.4719C93.5278 68.3845 93.4094 68.3354 93.2858 68.3354H91.4388C91.362 68.335 91.2866 68.3157 91.2191 68.2791C91.1517 68.2425 91.0943 68.1899 91.0521 68.1258L90.8611 67.8463C90.8189 67.7822 90.7615 67.7295 90.6941 67.693C90.6266 67.6564 90.5512 67.6371 90.4745 67.6367H89.5591C89.4356 67.6367 89.3171 67.6857 89.2297 67.7731C89.1423 67.8605 89.0933 67.9789 89.0933 68.1025V71.1304C89.0933 71.3867 89.3029 71.5963 89.5591 71.5963Z" stroke="url(#paint13_linear_3558_2200)" stroke-width="0.559006" stroke-linecap="round" stroke-linejoin="round"/>
</g>
<rect x="98.1304" y="68.0559" width="19.5652" height="3.35404" rx="1.67702" fill="url(#paint14_linear_3558_2200)"/>
<rect width="63.1677" height="10.0621" transform="translate(91.4224 57.4348)" fill="url(#paint15_linear_3558_2200)"/>
<g clip-path="url(#clip3_3558_2200)">
<path d="M97.5946 60.1367H95.6148C95.4912 60.1367 95.3727 60.1857 95.2854 60.2731C95.198 60.3605 95.1489 60.4789 95.1489 60.6025V64.3292C95.1489 64.4528 95.198 64.5712 95.2854 64.6586C95.3727 64.746 95.4912 64.795 95.6148 64.795H98.4098C98.5333 64.795 98.6518 64.746 98.7392 64.6586C98.8266 64.5712 98.8756 64.4528 98.8756 64.3292V61.4177L97.5946 60.1367Z" stroke="white" stroke-width="0.559006" stroke-linecap="round" stroke-linejoin="round"/>
<path d="M97.478 60.1367V61.5342H98.8755" stroke="white" stroke-width="0.559006" stroke-linecap="round" stroke-linejoin="round"/>
</g>
<rect x="103.72" y="60.7888" width="38.0124" height="3.35404" rx="1.67702" fill="white"/>
<g filter="url(#filter0_dd_3558_2200)">
<path d="M102.382 69.881L102.103 64.696C102.079 64.2368 102.588 63.9459 102.971 64.2005L107.286 67.0694C107.721 67.3584 107.557 68.0325 107.039 68.0905L105.018 68.3162C104.865 68.3333 104.726 68.4125 104.633 68.5351L103.386 70.1877C103.072 70.6039 102.41 70.4016 102.382 69.881Z" fill="#4B5563"/>
<path d="M102.382 69.881L102.103 64.696C102.079 64.2368 102.588 63.9459 102.971 64.2005L107.286 67.0694C107.721 67.3584 107.557 68.0325 107.039 68.0905L105.018 68.3162C104.865 68.3333 104.726 68.4125 104.633 68.5351L103.386 70.1877C103.072 70.6039 102.41 70.4016 102.382 69.881Z" stroke="white" stroke-width="0.559006"/>
</g>
<rect width="63.1677" height="10.0621" transform="translate(85.8323 76.441)" fill="white" fill-opacity="0.1"/>
<g clip-path="url(#clip4_3558_2200)">
<path d="M92.0047 79.1429H90.0249C89.9014 79.1429 89.7829 79.192 89.6955 79.2793C89.6082 79.3667 89.5591 79.4852 89.5591 79.6087V83.3354C89.5591 83.459 89.6082 83.5775 89.6955 83.6648C89.7829 83.7522 89.9014 83.8013 90.0249 83.8013H92.82C92.9435 83.8013 93.062 83.7522 93.1493 83.6648C93.2367 83.5775 93.2858 83.459 93.2858 83.3354V80.4239L92.0047 79.1429Z" stroke="url(#paint16_linear_3558_2200)" stroke-width="0.559006" stroke-linecap="round" stroke-linejoin="round"/>
<path d="M91.8882 79.1429V80.5404H93.2857" stroke="url(#paint17_linear_3558_2200)" stroke-width="0.559006" stroke-linecap="round" stroke-linejoin="round"/>
</g>
<rect x="98.1304" y="79.795" width="45.8385" height="3.35404" rx="1.67702" fill="url(#paint18_linear_3558_2200)"/>
<path d="M79.6365 91.5342H84.2017" stroke="url(#paint19_linear_3558_2200)" stroke-width="0.559006" stroke-linecap="round" stroke-linejoin="round"/>
<path d="M81.9192 89.2516V93.8168" stroke="url(#paint20_linear_3558_2200)" stroke-width="0.559006" stroke-linecap="round" stroke-linejoin="round"/>
<g clip-path="url(#clip5_3558_2200)">
<path d="M89.5591 93.3975H93.2858C93.4094 93.3975 93.5278 93.3484 93.6152 93.2611C93.7026 93.1737 93.7516 93.0552 93.7516 92.9317V90.6025C93.7516 90.4789 93.7026 90.3605 93.6152 90.2731C93.5278 90.1857 93.4094 90.1367 93.2858 90.1367H91.4388C91.362 90.1363 91.2866 90.1169 91.2191 90.0803C91.1517 90.0438 91.0943 89.9911 91.0521 89.927L90.8611 89.6475C90.8189 89.5834 90.7615 89.5308 90.6941 89.4942C90.6266 89.4576 90.5512 89.4383 90.4745 89.4379H89.5591C89.4356 89.4379 89.3171 89.487 89.2297 89.5743C89.1423 89.6617 89.0933 89.7802 89.0933 89.9037V92.9317C89.0933 93.1879 89.3029 93.3975 89.5591 93.3975Z" stroke="url(#paint21_linear_3558_2200)" stroke-width="0.559006" stroke-linecap="round" stroke-linejoin="round"/>
</g>
<rect x="98.1306" y="89.8571" width="19.5652" height="3.35404" rx="1.67702" fill="url(#paint22_linear_3558_2200)"/>
<path d="M70.1335 101.596H74.6988" stroke="url(#paint23_linear_3558_2200)" stroke-width="0.559006" stroke-linecap="round" stroke-linejoin="round"/>
<path d="M72.4163 99.3137V103.879" stroke="url(#paint24_linear_3558_2200)" stroke-width="0.559006" stroke-linecap="round" stroke-linejoin="round"/>
<g clip-path="url(#clip6_3558_2200)">
<path d="M80.0559 103.46H83.7826C83.9062 103.46 84.0247 103.411 84.112 103.323C84.1994 103.236 84.2485 103.117 84.2485 102.994V100.665C84.2485 100.541 84.1994 100.423 84.112 100.335C84.0247 100.248 83.9062 100.199 83.7826 100.199H81.9356C81.8589 100.198 81.7834 100.179 81.716 100.142C81.6485 100.106 81.5911 100.053 81.5489 99.9891L81.3579 99.7096C81.3157 99.6455 81.2584 99.5929 81.1909 99.5563C81.1235 99.5197 81.048 99.5004 80.9713 99.5H80.0559C79.9324 99.5 79.8139 99.5491 79.7265 99.6364C79.6392 99.7238 79.5901 99.8423 79.5901 99.9658V102.994C79.5901 103.25 79.7997 103.46 80.0559 103.46Z" stroke="url(#paint25_linear_3558_2200)" stroke-width="0.559006" stroke-linecap="round" stroke-linejoin="round"/>
</g>
<rect x="88.6274" y="99.9193" width="52.5466" height="3.35404" rx="1.67702" fill="url(#paint26_linear_3558_2200)"/>
<path d="M62.3074 111.658H66.8726" stroke="url(#paint27_linear_3558_2200)" stroke-width="0.559006" stroke-linecap="round" stroke-linejoin="round"/>
<path d="M64.5901 109.376V113.941" stroke="url(#paint28_linear_3558_2200)" stroke-width="0.559006" stroke-linecap="round" stroke-linejoin="round"/>
<g clip-path="url(#clip7_3558_2200)">
<path d="M72.2298 113.522H75.9565C76.08 113.522 76.1985 113.473 76.2859 113.385C76.3732 113.298 76.4223 113.179 76.4223 113.056V110.727C76.4223 110.603 76.3732 110.485 76.2859 110.397C76.1985 110.31 76.08 110.261 75.9565 110.261H74.1094C74.0327 110.26 73.9572 110.241 73.8898 110.205C73.8223 110.168 73.765 110.115 73.7228 110.051L73.5318 109.772C73.4896 109.708 73.4322 109.655 73.3647 109.618C73.2973 109.582 73.2219 109.563 73.1451 109.562H72.2298C72.1062 109.562 71.9877 109.611 71.9004 109.699C71.813 109.786 71.7639 109.904 71.7639 110.028V113.056C71.7639 113.312 71.9735 113.522 72.2298 113.522Z" stroke="url(#paint29_linear_3558_2200)" stroke-width="0.559006" stroke-linecap="round" stroke-linejoin="round"/>
</g>
<rect x="80.8013" y="109.981" width="52.5466" height="3.35404" rx="1.67702" fill="url(#paint30_linear_3558_2200)"/>
<path d="M5 116.689H203" stroke="url(#paint31_linear_3558_2200)"/>
<path d="M10 121.689H198" stroke="url(#paint32_linear_3558_2200)"/>
<defs>
<filter id="filter0_dd_3558_2200" x="100.705" y="63.2668" width="8.22919" height="9.10098" filterUnits="userSpaceOnUse" color-interpolation-filters="sRGB">
<feFlood flood-opacity="0" result="BackgroundImageFix"/>
<feColorMatrix in="SourceAlpha" type="matrix" values="0 0 0 0 0 0 0 0 0 0 0 0 0 0 0 0 0 0 127 0" result="hardAlpha"/>
<feOffset dy="0.559006"/>
<feGaussianBlur stdDeviation="0.279503"/>
<feComposite in2="hardAlpha" operator="out"/>
<feColorMatrix type="matrix" values="0 0 0 0 0 0 0 0 0 0 0 0 0 0 0 0 0 0 0.06 0"/>
<feBlend mode="normal" in2="BackgroundImageFix" result="effect1_dropShadow_3558_2200"/>
<feColorMatrix in="SourceAlpha" type="matrix" values="0 0 0 0 0 0 0 0 0 0 0 0 0 0 0 0 0 0 127 0" result="hardAlpha"/>
<feOffset dy="0.559006"/>
<feGaussianBlur stdDeviation="0.559006"/>
<feComposite in2="hardAlpha" operator="out"/>
<feColorMatrix type="matrix" values="0 0 0 0 0 0 0 0 0 0 0 0 0 0 0 0 0 0 0.1 0"/>
<feBlend mode="normal" in2="effect1_dropShadow_3558_2200" result="effect2_dropShadow_3558_2200"/>
<feBlend mode="normal" in="SourceGraphic" in2="effect2_dropShadow_3558_2200" result="shape"/>
</filter>
<linearGradient id="paint0_linear_3558_2200" x1="34" y1="153" x2="34" y2="5" gradientUnits="userSpaceOnUse">
<stop stop-color="white" stop-opacity="0"/>
<stop offset="0.185417" stop-color="white" stop-opacity="0.1"/>
<stop offset="0.826042" stop-color="white" stop-opacity="0.1"/>
<stop offset="1" stop-color="white" stop-opacity="0"/>
</linearGradient>
<linearGradient id="paint1_linear_3558_2200" x1="39" y1="158" x2="39" y2="-2.74062e-08" gradientUnits="userSpaceOnUse">
<stop stop-color="white" stop-opacity="0"/>
<stop offset="0.185417" stop-color="white" stop-opacity="0.1"/>
<stop offset="0.826042" stop-color="white" stop-opacity="0.1"/>
<stop offset="1" stop-color="white" stop-opacity="0"/>
</linearGradient>
<linearGradient id="paint2_linear_3558_2200" x1="170" y1="2.74063e-08" x2="170" y2="158" gradientUnits="userSpaceOnUse">
<stop stop-color="white" stop-opacity="0"/>
<stop offset="0.185417" stop-color="white" stop-opacity="0.1"/>
<stop offset="0.826042" stop-color="white" stop-opacity="0.1"/>
<stop offset="1" stop-color="white" stop-opacity="0"/>
</linearGradient>
<linearGradient id="paint3_linear_3558_2200" x1="175" y1="5" x2="175" y2="153" gradientUnits="userSpaceOnUse">
<stop stop-color="white" stop-opacity="0"/>
<stop offset="0.185417" stop-color="white" stop-opacity="0.1"/>
<stop offset="0.826042" stop-color="white" stop-opacity="0.1"/>
<stop offset="1" stop-color="white" stop-opacity="0"/>
</linearGradient>
<linearGradient id="paint4_linear_3558_2200" x1="104" y1="32.3105" x2="104" y2="33.3105" gradientUnits="userSpaceOnUse">
<stop stop-color="white" stop-opacity="0"/>
<stop offset="0.185417" stop-color="white" stop-opacity="0.1"/>
<stop offset="0.826042" stop-color="white" stop-opacity="0.1"/>
<stop offset="1" stop-color="white" stop-opacity="0"/>
</linearGradient>
<linearGradient id="paint5_linear_3558_2200" x1="104" y1="37.3105" x2="104" y2="38.3105" gradientUnits="userSpaceOnUse">
<stop stop-color="white" stop-opacity="0"/>
<stop offset="0.185417" stop-color="white" stop-opacity="0.1"/>
<stop offset="0.826042" stop-color="white" stop-opacity="0.1"/>
<stop offset="1" stop-color="white" stop-opacity="0"/>
</linearGradient>
<linearGradient id="paint6_linear_3558_2200" x1="61.3086" y1="42.4456" x2="62.1423" y2="44.5309" gradientUnits="userSpaceOnUse">
<stop stop-color="#A855F7"/>
<stop offset="1" stop-color="#3B82F6"/>
</linearGradient>
<linearGradient id="paint7_linear_3558_2200" x1="70.779" y1="40.6571" x2="75.1402" y2="43.4685" gradientUnits="userSpaceOnUse">
<stop stop-color="#A855F7"/>
<stop offset="1" stop-color="#3B82F6"/>
</linearGradient>
<linearGradient id="paint8_linear_3558_2200" x1="89.5058" y1="41.0134" x2="90.211" y2="49.0636" gradientUnits="userSpaceOnUse">
<stop stop-color="#A855F7"/>
<stop offset="1" stop-color="#3B82F6"/>
</linearGradient>
<linearGradient id="paint9_linear_3558_2200" x1="70.8118" y1="52.5077" x2="71.6454" y2="54.593" gradientUnits="userSpaceOnUse">
<stop stop-color="#A855F7"/>
<stop offset="1" stop-color="#3B82F6"/>
</linearGradient>
<linearGradient id="paint10_linear_3558_2200" x1="80.2822" y1="50.7193" x2="84.6434" y2="53.5307" gradientUnits="userSpaceOnUse">
<stop stop-color="#A855F7"/>
<stop offset="1" stop-color="#3B82F6"/>
</linearGradient>
<linearGradient id="paint11_linear_3558_2200" x1="96.4344" y1="51.0755" x2="97.3667" y2="59.0789" gradientUnits="userSpaceOnUse">
<stop stop-color="#A855F7"/>
<stop offset="1" stop-color="#3B82F6"/>
</linearGradient>
<linearGradient id="paint12_linear_3558_2200" x1="80.3147" y1="62.5699" x2="81.1484" y2="64.6552" gradientUnits="userSpaceOnUse">
<stop stop-color="#A855F7"/>
<stop offset="1" stop-color="#3B82F6"/>
</linearGradient>
<linearGradient id="paint13_linear_3558_2200" x1="89.7854" y1="68.0485" x2="94.1465" y2="70.8598" gradientUnits="userSpaceOnUse">
<stop stop-color="#A855F7"/>
<stop offset="1" stop-color="#3B82F6"/>
</linearGradient>
<linearGradient id="paint14_linear_3558_2200" x1="101.037" y1="68.4047" x2="103.349" y2="75.7935" gradientUnits="userSpaceOnUse">
<stop stop-color="#A855F7"/>
<stop offset="1" stop-color="#3B82F6"/>
</linearGradient>
<linearGradient id="paint15_linear_3558_2200" x1="9.38492" y1="1.04646" x2="15.9083" y2="23.486" gradientUnits="userSpaceOnUse">
<stop stop-color="#A855F7"/>
<stop offset="1" stop-color="#3B82F6"/>
</linearGradient>
<linearGradient id="paint16_linear_3558_2200" x1="90.1128" y1="79.6274" x2="94.2555" y2="81.4434" gradientUnits="userSpaceOnUse">
<stop stop-color="#A855F7"/>
<stop offset="1" stop-color="#3B82F6"/>
</linearGradient>
<linearGradient id="paint17_linear_3558_2200" x1="92.0958" y1="79.2882" x2="93.5202" y2="80.0687" gradientUnits="userSpaceOnUse">
<stop stop-color="#A855F7"/>
<stop offset="1" stop-color="#3B82F6"/>
</linearGradient>
<linearGradient id="paint18_linear_3558_2200" x1="104.941" y1="80.1438" x2="106.005" y2="88.1137" gradientUnits="userSpaceOnUse">
<stop stop-color="#A855F7"/>
<stop offset="1" stop-color="#3B82F6"/>
</linearGradient>
<linearGradient id="paint19_linear_3558_2200" x1="80.3147" y1="91.6382" x2="81.1484" y2="93.7235" gradientUnits="userSpaceOnUse">
<stop stop-color="#A855F7"/>
<stop offset="1" stop-color="#3B82F6"/>
</linearGradient>
<linearGradient id="paint20_linear_3558_2200" x1="82.0678" y1="89.7263" x2="83.3742" y2="89.8831" gradientUnits="userSpaceOnUse">
<stop stop-color="#A855F7"/>
<stop offset="1" stop-color="#3B82F6"/>
</linearGradient>
<linearGradient id="paint21_linear_3558_2200" x1="89.7854" y1="89.8497" x2="94.1465" y2="92.6611" gradientUnits="userSpaceOnUse">
<stop stop-color="#A855F7"/>
<stop offset="1" stop-color="#3B82F6"/>
</linearGradient>
<linearGradient id="paint22_linear_3558_2200" x1="101.037" y1="90.2059" x2="103.349" y2="97.5947" gradientUnits="userSpaceOnUse">
<stop stop-color="#A855F7"/>
<stop offset="1" stop-color="#3B82F6"/>
</linearGradient>
<linearGradient id="paint23_linear_3558_2200" x1="70.8118" y1="101.7" x2="71.6454" y2="103.786" gradientUnits="userSpaceOnUse">
<stop stop-color="#A855F7"/>
<stop offset="1" stop-color="#3B82F6"/>
</linearGradient>
<linearGradient id="paint24_linear_3558_2200" x1="72.5648" y1="99.7884" x2="73.8713" y2="99.9452" gradientUnits="userSpaceOnUse">
<stop stop-color="#A855F7"/>
<stop offset="1" stop-color="#3B82F6"/>
</linearGradient>
<linearGradient id="paint25_linear_3558_2200" x1="80.2822" y1="99.9118" x2="84.6434" y2="102.723" gradientUnits="userSpaceOnUse">
<stop stop-color="#A855F7"/>
<stop offset="1" stop-color="#3B82F6"/>
</linearGradient>
<linearGradient id="paint26_linear_3558_2200" x1="96.4344" y1="100.268" x2="97.3667" y2="108.271" gradientUnits="userSpaceOnUse">
<stop stop-color="#A855F7"/>
<stop offset="1" stop-color="#3B82F6"/>
</linearGradient>
<linearGradient id="paint27_linear_3558_2200" x1="62.9856" y1="111.762" x2="63.8193" y2="113.848" gradientUnits="userSpaceOnUse">
<stop stop-color="#A855F7"/>
<stop offset="1" stop-color="#3B82F6"/>
</linearGradient>
<linearGradient id="paint28_linear_3558_2200" x1="64.7387" y1="109.851" x2="66.0451" y2="110.007" gradientUnits="userSpaceOnUse">
<stop stop-color="#A855F7"/>
<stop offset="1" stop-color="#3B82F6"/>
</linearGradient>
<linearGradient id="paint29_linear_3558_2200" x1="72.456" y1="109.974" x2="76.8172" y2="112.785" gradientUnits="userSpaceOnUse">
<stop stop-color="#A855F7"/>
<stop offset="1" stop-color="#3B82F6"/>
</linearGradient>
<linearGradient id="paint30_linear_3558_2200" x1="88.6082" y1="110.33" x2="89.5405" y2="118.334" gradientUnits="userSpaceOnUse">
<stop stop-color="#A855F7"/>
<stop offset="1" stop-color="#3B82F6"/>
</linearGradient>
<linearGradient id="paint31_linear_3558_2200" x1="205" y1="117.189" x2="5" y2="117.189" gradientUnits="userSpaceOnUse">
<stop stop-color="white" stop-opacity="0"/>
<stop offset="0.185417" stop-color="white" stop-opacity="0.1"/>
<stop offset="0.826042" stop-color="white" stop-opacity="0.1"/>
<stop offset="1" stop-color="white" stop-opacity="0"/>
</linearGradient>
<linearGradient id="paint32_linear_3558_2200" x1="199.899" y1="122.189" x2="10" y2="122.189" gradientUnits="userSpaceOnUse">
<stop stop-color="white" stop-opacity="0"/>
<stop offset="0.185417" stop-color="white" stop-opacity="0.1"/>
<stop offset="0.826042" stop-color="white" stop-opacity="0.1"/>
<stop offset="1" stop-color="white" stop-opacity="0"/>
</linearGradient>
<clipPath id="clip0_3558_2200">
<rect width="5.59006" height="5.59006" fill="white" transform="translate(69.6211 39.5466)"/>
</clipPath>
<clipPath id="clip1_3558_2200">
<rect width="5.59006" height="5.59006" fill="white" transform="translate(79.1243 49.6087)"/>
</clipPath>
<clipPath id="clip2_3558_2200">
<rect width="5.59006" height="5.59006" fill="white" transform="translate(88.6274 66.9379)"/>
</clipPath>
<clipPath id="clip3_3558_2200">
<rect width="5.59006" height="5.59006" fill="white" transform="translate(94.2173 59.6708)"/>
</clipPath>
<clipPath id="clip4_3558_2200">
<rect width="5.59006" height="5.59006" fill="white" transform="translate(88.6274 78.677)"/>
</clipPath>
<clipPath id="clip5_3558_2200">
<rect width="5.59006" height="5.59006" fill="white" transform="translate(88.6274 88.7391)"/>
</clipPath>
<clipPath id="clip6_3558_2200">
<rect width="5.59006" height="5.59006" fill="white" transform="translate(79.1243 98.8012)"/>
</clipPath>
<clipPath id="clip7_3558_2200">
<rect width="5.59006" height="5.59006" fill="white" transform="translate(71.2981 108.863)"/>
</clipPath>
</defs>
</svg>
