<svg width="265" height="155" viewBox="0 0 265 155" fill="none" xmlns="http://www.w3.org/2000/svg">
<g clip-path="url(#clip0_1328_2)">
<path d="M0 0.427246H255C260.523 0.427246 265 4.9044 265 10.4272V154.427H0V0.427246Z" fill="url(#paint0_radial_1328_2)"/>
<g clip-path="url(#clip1_1328_2)">
<path d="M24.5402 28.3322C25.327 27.2586 25.6794 25.9276 25.5269 24.6054C25.3744 23.2832 24.7283 22.0673 23.7178 21.201C22.7073 20.3347 21.407 19.8819 20.0771 19.9331C18.7471 19.9844 17.4855 20.5359 16.5447 21.4774C15.6038 22.4189 15.0532 23.6809 15.0029 25.0109C14.9526 26.3409 15.4064 27.6409 16.2734 28.6507C17.1404 29.6606 18.3568 30.3058 19.6791 30.4574C21.0014 30.6089 22.3322 30.2556 23.4052 29.4681H23.4044C23.4287 29.5006 23.4547 29.5314 23.484 29.5615L26.6121 32.6896C26.7645 32.8421 26.9711 32.9278 27.1867 32.9279C27.4022 32.9279 27.6089 32.8424 27.7614 32.69C27.9139 32.5377 27.9996 32.331 27.9996 32.1155C27.9997 31.8999 27.9142 31.6932 27.7618 31.5408L24.6337 28.4126C24.6046 28.3832 24.5734 28.3561 24.5402 28.3314V28.3322ZM24.7499 25.2089C24.7499 25.7958 24.6343 26.3769 24.4097 26.9191C24.1851 27.4612 23.856 27.9539 23.441 28.3688C23.026 28.7838 22.5334 29.113 21.9912 29.3375C21.4491 29.5621 20.868 29.6777 20.2811 29.6777C19.6943 29.6777 19.1132 29.5621 18.571 29.3375C18.0288 29.113 17.5362 28.7838 17.1212 28.3688C16.7063 27.9539 16.3771 27.4612 16.1525 26.9191C15.928 26.3769 15.8124 25.7958 15.8124 25.2089C15.8124 24.0238 16.2832 22.8871 17.1212 22.0491C17.9593 21.211 19.0959 20.7402 20.2811 20.7402C21.4663 20.7402 22.603 21.211 23.441 22.0491C24.2791 22.8871 24.7499 24.0238 24.7499 25.2089V25.2089Z" fill="#64748B"/>
</g>
<path d="M40.1818 19.3875V33.7397H39.5213V19.3875H40.1818Z" fill="#2563EB"/>
<path d="M47.6009 24.3818C47.5526 23.896 47.3381 23.5096 46.9574 23.2227C46.5767 22.9358 46.098 22.7923 45.5213 22.7923C45.1151 22.7923 44.7571 22.8619 44.4474 23.0011C44.1406 23.1403 43.8991 23.3335 43.723 23.5807C43.5497 23.825 43.4631 24.1034 43.4631 24.4159C43.4631 24.646 43.5128 24.8477 43.6122 25.021C43.7116 25.1943 43.8452 25.3434 44.0128 25.4684C44.1832 25.5906 44.3707 25.6957 44.5753 25.7838C44.7827 25.8718 44.9915 25.9457 45.2017 26.0054L46.1222 26.2696C46.4006 26.3463 46.679 26.4443 46.9574 26.5636C47.2358 26.6829 47.4901 26.8335 47.7202 27.0153C47.9531 27.1943 48.1392 27.4145 48.2784 27.6758C48.4205 27.9343 48.4915 28.2454 48.4915 28.6091C48.4915 29.075 48.3707 29.494 48.1293 29.8662C47.8878 30.2383 47.5412 30.5338 47.0895 30.7525C46.6378 30.9684 46.0966 31.0764 45.4659 31.0764C44.8722 31.0764 44.3565 30.9784 43.919 30.7824C43.4815 30.5835 43.1378 30.3093 42.8878 29.9599C42.6378 29.6105 42.4972 29.2057 42.4659 28.7454H43.2841C43.3125 29.0892 43.4261 29.3804 43.625 29.619C43.8239 29.8576 44.0824 30.0395 44.4006 30.1645C44.7188 30.2866 45.0739 30.3477 45.4659 30.3477C45.9006 30.3477 46.2869 30.2753 46.625 30.1304C46.9659 29.9826 47.233 29.7781 47.4261 29.5167C47.6222 29.2525 47.7202 28.9457 47.7202 28.5963C47.7202 28.3008 47.6435 28.0537 47.4901 27.8548C47.3366 27.6531 47.1222 27.4841 46.8466 27.3477C46.5739 27.2113 46.2571 27.0906 45.8963 26.9855L44.8523 26.6787C44.1676 26.4741 43.6364 26.1915 43.2585 25.8307C42.8807 25.4699 42.6918 25.0096 42.6918 24.45C42.6918 23.9812 42.8168 23.5693 43.0668 23.2142C43.3196 22.8562 43.6605 22.5778 44.0895 22.379C44.5213 22.1772 45.0057 22.0764 45.5426 22.0764C46.0852 22.0764 46.5653 22.1758 46.983 22.3747C47.4006 22.5736 47.7315 22.8477 47.9759 23.1971C48.223 23.5437 48.3551 23.9386 48.3722 24.3818H47.6009ZM52.8977 31.0636C52.2869 31.0636 51.7585 30.9216 51.3125 30.6375C50.8665 30.3505 50.5213 29.9542 50.277 29.4486C50.0355 28.94 49.9148 28.3548 49.9148 27.6929C49.9148 27.0338 50.0355 26.4486 50.277 25.9372C50.5213 25.423 50.858 25.021 51.2869 24.7312C51.7188 24.4386 52.2173 24.2923 52.7827 24.2923C53.1378 24.2923 53.4801 24.3576 53.8097 24.4883C54.1392 24.6162 54.4347 24.8136 54.696 25.0807C54.9602 25.3449 55.169 25.6787 55.3224 26.0821C55.4759 26.4826 55.5526 26.9571 55.5526 27.5054V27.8804H50.4389V27.2113H54.777C54.777 26.7909 54.6918 26.413 54.5213 26.0778C54.3537 25.7397 54.1193 25.4727 53.8182 25.2767C53.5199 25.0807 53.1747 24.9826 52.7827 24.9826C52.3679 24.9826 52.0028 25.0934 51.6875 25.315C51.3722 25.5366 51.125 25.8292 50.946 26.1929C50.7699 26.5565 50.6804 26.9542 50.6776 27.3861V27.7866C50.6776 28.3065 50.767 28.7611 50.946 29.1503C51.1278 29.5366 51.3849 29.8363 51.7173 30.0494C52.0497 30.2625 52.4432 30.369 52.8977 30.369C53.2074 30.369 53.4787 30.3207 53.7116 30.2241C53.9474 30.1275 54.1449 29.9983 54.304 29.8363C54.4659 29.6716 54.5881 29.4912 54.6705 29.2951L55.3906 29.5295C55.2912 29.8051 55.1278 30.0593 54.9006 30.2923C54.6761 30.5253 54.3949 30.7128 54.0568 30.8548C53.7216 30.994 53.3352 31.0636 52.8977 31.0636ZM59.0522 31.0764C58.6573 31.0764 58.2965 30.9997 57.9698 30.8463C57.6431 30.69 57.3832 30.4656 57.19 30.173C56.9968 29.8775 56.9002 29.5196 56.9002 29.0991C56.9002 28.7753 56.9613 28.5025 57.0835 28.2809C57.2056 28.0593 57.3789 27.8775 57.6033 27.7355C57.8278 27.5934 58.0934 27.4812 58.4002 27.3988C58.707 27.3165 59.0451 27.2525 59.4144 27.2071C59.7809 27.1616 60.0906 27.1218 60.3434 27.0878C60.5991 27.0537 60.7937 26.9997 60.9272 26.9258C61.0607 26.852 61.1275 26.7326 61.1275 26.5679V26.4145C61.1275 25.9684 60.994 25.6176 60.7269 25.3619C60.4627 25.1034 60.082 24.9741 59.5849 24.9741C59.1133 24.9741 58.7283 25.0778 58.43 25.2852C58.1346 25.4926 57.9272 25.7369 57.8079 26.0182L57.0877 25.7582C57.2354 25.4003 57.44 25.1147 57.7013 24.9017C57.9627 24.6858 58.2553 24.5309 58.5792 24.4372C58.9031 24.3406 59.2312 24.2923 59.5636 24.2923C59.8136 24.2923 60.0735 24.325 60.3434 24.3903C60.6161 24.4557 60.869 24.5693 61.1019 24.7312C61.3349 24.8903 61.5238 25.1133 61.6687 25.4003C61.8136 25.6843 61.886 26.0451 61.886 26.4826V30.9272H61.1275V29.8917H61.0806C60.9897 30.0849 60.8548 30.2724 60.6758 30.4542C60.4968 30.6361 60.2724 30.7852 60.0025 30.9017C59.7326 31.0182 59.4158 31.0764 59.0522 31.0764ZM59.1545 30.3818C59.5579 30.3818 59.9073 30.2923 60.2028 30.1133C60.4982 29.9343 60.7255 29.6971 60.8846 29.4017C61.0465 29.1034 61.1275 28.7753 61.1275 28.4173V27.4713C61.0707 27.5253 60.9755 27.5736 60.842 27.6162C60.7113 27.6588 60.5593 27.6971 60.386 27.7312C60.2156 27.7625 60.0451 27.7895 59.8746 27.8122C59.7042 27.8349 59.5508 27.8548 59.4144 27.8718C59.0451 27.9173 58.7298 27.9883 58.4684 28.0849C58.207 28.1815 58.0067 28.315 57.8675 28.4855C57.7283 28.6531 57.6587 28.869 57.6587 29.1332C57.6587 29.5309 57.8008 29.8392 58.0849 30.0579C58.369 30.2738 58.7255 30.3818 59.1545 30.3818ZM63.9038 30.9272V24.3818H64.641V25.3875H64.6964C64.8271 25.0579 65.0543 24.7923 65.3782 24.5906C65.7049 24.3861 66.0742 24.2838 66.4862 24.2838C66.5487 24.2838 66.6183 24.2852 66.695 24.288C66.7717 24.2909 66.8356 24.2937 66.8867 24.2966V25.0679C66.8526 25.0622 66.793 25.0537 66.7077 25.0423C66.6225 25.0309 66.5302 25.0253 66.4308 25.0253C66.0898 25.0253 65.7859 25.0977 65.5188 25.2426C65.2546 25.3846 65.0458 25.5821 64.8924 25.8349C64.739 26.0878 64.6623 26.3761 64.6623 26.7V30.9272H63.9038ZM70.5387 31.0636C69.9535 31.0636 69.4435 30.9173 69.0089 30.6247C68.5771 30.3321 68.2418 29.9315 68.0032 29.423C67.7646 28.9145 67.6452 28.3349 67.6452 27.6843C67.6452 27.0281 67.766 26.4443 68.0075 25.9329C68.2518 25.4216 68.5898 25.021 69.0217 24.7312C69.4535 24.4386 69.9549 24.2923 70.5259 24.2923C70.9634 24.2923 71.3597 24.3775 71.7148 24.548C72.07 24.7156 72.3626 24.9528 72.5927 25.2596C72.8256 25.5636 72.9719 25.9187 73.0316 26.325H72.2646C72.185 25.9557 71.9933 25.6403 71.6893 25.379C71.3881 25.1147 71.0046 24.9826 70.5387 24.9826C70.1211 24.9826 69.7518 25.0963 69.4308 25.3236C69.1097 25.548 68.8583 25.8619 68.6765 26.2653C68.4975 26.6659 68.408 27.1304 68.408 27.6588C68.408 28.19 68.4961 28.6602 68.6722 29.0693C68.8484 29.4755 69.0955 29.7937 69.4137 30.0238C69.7347 30.254 70.1097 30.369 70.5387 30.369C70.8285 30.369 71.0927 30.315 71.3313 30.2071C71.5728 30.0963 71.7745 29.94 71.9364 29.7383C72.1012 29.5366 72.212 29.2966 72.2688 29.0182H73.0359C72.979 29.413 72.8384 29.7653 72.614 30.075C72.3924 30.3818 72.104 30.6233 71.7489 30.7994C71.3967 30.9755 70.9933 31.0636 70.5387 31.0636ZM75.4201 26.8363V30.9272H74.6616V22.2H75.4201V25.4088H75.4883C75.6417 25.0707 75.8789 24.8008 76.1999 24.5991C76.5238 24.3974 76.9329 24.2966 77.4272 24.2966C77.8704 24.2966 78.2596 24.3875 78.5948 24.5693C78.93 24.7511 79.1914 25.0196 79.3789 25.3747C79.5664 25.7298 79.6602 26.1673 79.6602 26.6872V30.9272H78.8974V26.7341C78.8974 26.1943 78.7468 25.7696 78.4457 25.4599C78.1474 25.1474 77.744 24.9912 77.2354 24.9912C76.886 24.9912 76.5749 25.065 76.3022 25.2128C76.0295 25.3605 75.8136 25.5736 75.6545 25.852C75.4982 26.1275 75.4201 26.4557 75.4201 26.8363ZM87.5767 31.0636C87.0114 31.0636 86.5114 30.9201 86.0767 30.6332C85.6449 30.3463 85.3068 29.95 85.0625 29.4443C84.8182 28.9358 84.696 28.3491 84.696 27.6843C84.696 27.0139 84.8182 26.4244 85.0625 25.9159C85.3068 25.4045 85.6449 25.0068 86.0767 24.7227C86.5114 24.4358 87.0114 24.2923 87.5767 24.2923C88.142 24.2923 88.6406 24.4358 89.0724 24.7227C89.5043 25.0096 89.8423 25.4074 90.0866 25.9159C90.3338 26.4244 90.4574 27.0139 90.4574 27.6843C90.4574 28.3491 90.3352 28.9358 90.0909 29.4443C89.8466 29.95 89.5071 30.3463 89.0724 30.6332C88.6406 30.9201 88.142 31.0636 87.5767 31.0636ZM87.5767 30.369C88.0313 30.369 88.4162 30.2468 88.7315 30.0025C89.0469 29.7582 89.2855 29.4329 89.4474 29.0267C89.6122 28.6204 89.6946 28.173 89.6946 27.6843C89.6946 27.1957 89.6122 26.7468 89.4474 26.3378C89.2855 25.9287 89.0469 25.6005 88.7315 25.3534C88.4162 25.1062 88.0313 24.9826 87.5767 24.9826C87.125 24.9826 86.7401 25.1062 86.4219 25.3534C86.1065 25.6005 85.8665 25.9287 85.7017 26.3378C85.5398 26.7468 85.4588 27.1957 85.4588 27.6843C85.4588 28.173 85.5398 28.6204 85.7017 29.0267C85.8665 29.4329 86.1065 29.7582 86.4219 30.0025C86.7372 30.2468 87.1222 30.369 87.5767 30.369ZM92.1225 30.9272V24.3818H92.8597V25.3875H92.9151C93.0458 25.0579 93.2731 24.7923 93.5969 24.5906C93.9237 24.3861 94.293 24.2838 94.7049 24.2838C94.7674 24.2838 94.837 24.2852 94.9137 24.288C94.9904 24.2909 95.0543 24.2937 95.1055 24.2966V25.0679C95.0714 25.0622 95.0117 25.0537 94.9265 25.0423C94.8413 25.0309 94.7489 25.0253 94.6495 25.0253C94.3086 25.0253 94.0046 25.0977 93.7376 25.2426C93.4734 25.3846 93.2646 25.5821 93.1112 25.8349C92.9577 26.0878 92.881 26.3761 92.881 26.7V30.9272H92.1225ZM102.353 24.3818V25.0423H99.2294V24.3818H102.353ZM100.205 22.8136H100.968V29.2184C100.968 29.4912 101.015 29.7057 101.109 29.8619C101.202 30.0153 101.325 30.1247 101.475 30.19C101.626 30.2525 101.786 30.2838 101.957 30.2838C102.056 30.2838 102.141 30.2781 102.212 30.2667C102.283 30.2525 102.346 30.2383 102.4 30.2241L102.562 30.9102C102.488 30.9386 102.397 30.9642 102.289 30.9869C102.181 31.0125 102.048 31.0253 101.888 31.0253C101.61 31.0253 101.342 30.9642 101.083 30.842C100.827 30.7199 100.617 30.538 100.452 30.2966C100.288 30.0551 100.205 29.7554 100.205 29.3974V22.8136ZM104.604 33.3818C104.453 33.3818 104.313 33.3676 104.182 33.3392C104.051 33.3108 103.948 33.2795 103.871 33.2454L104.076 32.5764C104.334 32.6559 104.564 32.6843 104.766 32.6616C104.968 32.6417 105.147 32.5508 105.303 32.3889C105.459 32.2298 105.598 31.9855 105.721 31.6559L105.959 30.9912L103.551 24.3818H104.374L106.317 29.9258H106.377L108.32 24.3818H109.142L106.373 31.9628C106.256 32.2781 106.113 32.5409 105.942 32.7511C105.772 32.9642 105.574 33.1218 105.35 33.2241C105.128 33.3292 104.88 33.3818 104.604 33.3818ZM110.626 33.3818V24.3818H111.364V25.6304H111.453C111.544 25.4343 111.669 25.2341 111.828 25.0295C111.987 24.8221 112.197 24.6474 112.459 24.5054C112.723 24.3633 113.055 24.2923 113.456 24.2923C113.996 24.2923 114.467 24.4343 114.871 24.7184C115.277 24.9997 115.592 25.3946 115.817 25.9031C116.044 26.4088 116.158 26.9983 116.158 27.6716C116.158 28.3477 116.044 28.94 115.817 29.4486C115.592 29.9571 115.277 30.3534 114.871 30.6375C114.467 30.9216 113.999 31.0636 113.464 31.0636C113.07 31.0636 112.739 30.9926 112.472 30.8505C112.207 30.7085 111.993 30.5338 111.828 30.3264C111.666 30.1162 111.541 29.9116 111.453 29.7128H111.385V33.3818H110.626ZM111.376 27.6588C111.376 28.1872 111.455 28.6559 111.611 29.065C111.77 29.4713 111.997 29.7909 112.293 30.0238C112.591 30.254 112.952 30.369 113.375 30.369C113.81 30.369 114.176 30.2497 114.474 30.0111C114.776 29.7696 115.004 29.4443 115.161 29.0352C115.32 28.6261 115.399 28.1673 115.399 27.6588C115.399 27.1559 115.321 26.7028 115.165 26.2994C115.011 25.896 114.784 25.5764 114.483 25.3406C114.182 25.102 113.812 24.9826 113.375 24.9826C112.949 24.9826 112.587 25.0977 112.288 25.3278C111.99 25.5551 111.763 25.8704 111.607 26.2738C111.453 26.6744 111.376 27.1361 111.376 27.6588ZM120.468 31.0636C119.857 31.0636 119.329 30.9216 118.883 30.6375C118.437 30.3505 118.092 29.9542 117.847 29.4486C117.606 28.94 117.485 28.3548 117.485 27.6929C117.485 27.0338 117.606 26.4486 117.847 25.9372C118.092 25.423 118.428 25.021 118.857 24.7312C119.289 24.4386 119.788 24.2923 120.353 24.2923C120.708 24.2923 121.05 24.3576 121.38 24.4883C121.71 24.6162 122.005 24.8136 122.266 25.0807C122.531 25.3449 122.739 25.6787 122.893 26.0821C123.046 26.4826 123.123 26.9571 123.123 27.5054V27.8804H118.009V27.2113H122.347C122.347 26.7909 122.262 26.413 122.092 26.0778C121.924 25.7397 121.69 25.4727 121.388 25.2767C121.09 25.0807 120.745 24.9826 120.353 24.9826C119.938 24.9826 119.573 25.0934 119.258 25.315C118.942 25.5366 118.695 25.8292 118.516 26.1929C118.34 26.5565 118.251 26.9542 118.248 27.3861V27.7866C118.248 28.3065 118.337 28.7611 118.516 29.1503C118.698 29.5366 118.955 29.8363 119.288 30.0494C119.62 30.2625 120.013 30.369 120.468 30.369C120.778 30.369 121.049 30.3207 121.282 30.2241C121.518 30.1275 121.715 29.9983 121.874 29.8363C122.036 29.6716 122.158 29.4912 122.241 29.2951L122.961 29.5295C122.862 29.8051 122.698 30.0593 122.471 30.2923C122.246 30.5253 121.965 30.7128 121.627 30.8548C121.292 30.994 120.906 31.0636 120.468 31.0636ZM130.726 31.0636C130.141 31.0636 129.631 30.9173 129.196 30.6247C128.765 30.3321 128.429 29.9315 128.191 29.423C127.952 28.9145 127.833 28.3349 127.833 27.6843C127.833 27.0281 127.953 26.4443 128.195 25.9329C128.439 25.4216 128.777 25.021 129.209 24.7312C129.641 24.4386 130.142 24.2923 130.713 24.2923C131.151 24.2923 131.547 24.3775 131.902 24.548C132.257 24.7156 132.55 24.9528 132.78 25.2596C133.013 25.5636 133.159 25.9187 133.219 26.325H132.452C132.373 25.9557 132.181 25.6403 131.877 25.379C131.576 25.1147 131.192 24.9826 130.726 24.9826C130.309 24.9826 129.939 25.0963 129.618 25.3236C129.297 25.548 129.046 25.8619 128.864 26.2653C128.685 26.6659 128.596 27.1304 128.596 27.6588C128.596 28.19 128.684 28.6602 128.86 29.0693C129.036 29.4755 129.283 29.7937 129.601 30.0238C129.922 30.254 130.297 30.369 130.726 30.369C131.016 30.369 131.28 30.315 131.519 30.2071C131.76 30.0963 131.962 29.94 132.124 29.7383C132.289 29.5366 132.4 29.2966 132.456 29.0182H133.223C133.167 29.413 133.026 29.7653 132.801 30.075C132.58 30.3818 132.292 30.6233 131.936 30.7994C131.584 30.9755 131.181 31.0636 130.726 31.0636ZM137.393 31.0636C136.828 31.0636 136.328 30.9201 135.893 30.6332C135.461 30.3463 135.123 29.95 134.879 29.4443C134.635 28.9358 134.512 28.3491 134.512 27.6843C134.512 27.0139 134.635 26.4244 134.879 25.9159C135.123 25.4045 135.461 25.0068 135.893 24.7227C136.328 24.4358 136.828 24.2923 137.393 24.2923C137.958 24.2923 138.457 24.4358 138.889 24.7227C139.321 25.0096 139.659 25.4074 139.903 25.9159C140.15 26.4244 140.274 27.0139 140.274 27.6843C140.274 28.3491 140.152 28.9358 139.907 29.4443C139.663 29.95 139.324 30.3463 138.889 30.6332C138.457 30.9201 137.958 31.0636 137.393 31.0636ZM137.393 30.369C137.848 30.369 138.233 30.2468 138.548 30.0025C138.863 29.7582 139.102 29.4329 139.264 29.0267C139.429 28.6204 139.511 28.173 139.511 27.6843C139.511 27.1957 139.429 26.7468 139.264 26.3378C139.102 25.9287 138.863 25.6005 138.548 25.3534C138.233 25.1062 137.848 24.9826 137.393 24.9826C136.941 24.9826 136.556 25.1062 136.238 25.3534C135.923 25.6005 135.683 25.9287 135.518 26.3378C135.356 26.7468 135.275 27.1957 135.275 27.6843C135.275 28.173 135.356 28.6204 135.518 29.0267C135.683 29.4329 135.923 29.7582 136.238 30.0025C136.554 30.2468 136.939 30.369 137.393 30.369ZM141.939 30.9272V24.3818H142.676V25.3875H142.744C142.875 25.0494 143.092 24.7838 143.396 24.5906C143.703 24.3946 144.071 24.2966 144.5 24.2966C144.952 24.2966 145.322 24.4031 145.612 24.6162C145.905 24.8264 146.124 25.1162 146.268 25.4855H146.324C146.472 25.1218 146.712 24.8335 147.044 24.6204C147.379 24.4045 147.786 24.2966 148.263 24.2966C148.871 24.2966 149.351 24.4883 149.703 24.8718C150.055 25.2525 150.232 25.8093 150.232 26.5423V30.9272H149.473V26.5423C149.473 26.0253 149.341 25.6375 149.077 25.379C148.813 25.1204 148.464 24.9912 148.033 24.9912C147.533 24.9912 147.148 25.1446 146.878 25.4514C146.608 25.7582 146.473 26.1474 146.473 26.619V30.9272H145.697V26.4741C145.697 26.0309 145.574 25.673 145.327 25.4003C145.08 25.1275 144.732 24.9912 144.283 24.9912C143.982 24.9912 143.71 25.065 143.469 25.2128C143.23 25.3605 143.041 25.5665 142.902 25.8307C142.766 26.092 142.697 26.3932 142.697 26.7341V30.9272H141.939ZM152.24 30.9272V24.3818H152.977V25.3875H153.045C153.176 25.0494 153.393 24.7838 153.697 24.5906C154.004 24.3946 154.372 24.2966 154.801 24.2966C155.252 24.2966 155.623 24.4031 155.913 24.6162C156.206 24.8264 156.424 25.1162 156.569 25.4855H156.625C156.772 25.1218 157.012 24.8335 157.345 24.6204C157.68 24.4045 158.086 24.2966 158.564 24.2966C159.172 24.2966 159.652 24.4883 160.004 24.8718C160.356 25.2525 160.532 25.8093 160.532 26.5423V30.9272H159.774V26.5423C159.774 26.0253 159.642 25.6375 159.377 25.379C159.113 25.1204 158.765 24.9912 158.333 24.9912C157.833 24.9912 157.449 25.1446 157.179 25.4514C156.909 25.7582 156.774 26.1474 156.774 26.619V30.9272H155.998V26.4741C155.998 26.0309 155.875 25.673 155.627 25.4003C155.38 25.1275 155.032 24.9912 154.583 24.9912C154.282 24.9912 154.011 25.065 153.77 25.2128C153.531 25.3605 153.342 25.5665 153.203 25.8307C153.066 26.092 152.998 26.3932 152.998 26.7341V30.9272H152.24ZM164.369 31.0764C163.974 31.0764 163.613 30.9997 163.286 30.8463C162.96 30.69 162.7 30.4656 162.506 30.173C162.313 29.8775 162.217 29.5196 162.217 29.0991C162.217 28.7753 162.278 28.5025 162.4 28.2809C162.522 28.0593 162.695 27.8775 162.92 27.7355C163.144 27.5934 163.41 27.4812 163.717 27.3988C164.023 27.3165 164.362 27.2525 164.731 27.2071C165.097 27.1616 165.407 27.1218 165.66 27.0878C165.915 27.0537 166.11 26.9997 166.244 26.9258C166.377 26.852 166.444 26.7326 166.444 26.5679V26.4145C166.444 25.9684 166.31 25.6176 166.043 25.3619C165.779 25.1034 165.398 24.9741 164.901 24.9741C164.43 24.9741 164.045 25.0778 163.746 25.2852C163.451 25.4926 163.244 25.7369 163.124 26.0182L162.404 25.7582C162.552 25.4003 162.756 25.1147 163.018 24.9017C163.279 24.6858 163.572 24.5309 163.896 24.4372C164.219 24.3406 164.548 24.2923 164.88 24.2923C165.13 24.2923 165.39 24.325 165.66 24.3903C165.933 24.4557 166.185 24.5693 166.418 24.7312C166.651 24.8903 166.84 25.1133 166.985 25.4003C167.13 25.6843 167.202 26.0451 167.202 26.4826V30.9272H166.444V29.8917H166.397C166.306 30.0849 166.171 30.2724 165.992 30.4542C165.813 30.6361 165.589 30.7852 165.319 30.9017C165.049 31.0182 164.732 31.0764 164.369 31.0764ZM164.471 30.3818C164.874 30.3818 165.224 30.2923 165.519 30.1133C165.815 29.9343 166.042 29.6971 166.201 29.4017C166.363 29.1034 166.444 28.7753 166.444 28.4173V27.4713C166.387 27.5253 166.292 27.5736 166.158 27.6162C166.028 27.6588 165.876 27.6971 165.702 27.7312C165.532 27.7625 165.362 27.7895 165.191 27.8122C165.021 27.8349 164.867 27.8548 164.731 27.8718C164.362 27.9173 164.046 27.9883 163.785 28.0849C163.523 28.1815 163.323 28.315 163.184 28.4855C163.045 28.6531 162.975 28.869 162.975 29.1332C162.975 29.5309 163.117 29.8392 163.401 30.0579C163.685 30.2738 164.042 30.3818 164.471 30.3818ZM169.979 26.8363V30.9272H169.22V24.3818H169.957V25.4088H170.026C170.179 25.0736 170.418 24.8051 170.741 24.6034C171.068 24.3988 171.472 24.2966 171.952 24.2966C172.392 24.2966 172.778 24.3889 173.111 24.5736C173.446 24.7554 173.706 25.0238 173.891 25.379C174.078 25.7341 174.172 26.1701 174.172 26.6872V30.9272H173.413V26.7341C173.413 26.1971 173.263 25.7724 172.962 25.4599C172.663 25.1474 172.263 24.9912 171.76 24.9912C171.416 24.9912 171.111 25.065 170.844 25.2128C170.577 25.3605 170.365 25.5736 170.209 25.852C170.055 26.1275 169.979 26.4557 169.979 26.8363ZM178.526 31.0636C177.989 31.0636 177.519 30.9216 177.115 30.6375C176.712 30.3534 176.397 29.9571 176.169 29.4486C175.945 28.94 175.833 28.3477 175.833 27.6716C175.833 26.9983 175.945 26.4088 176.169 25.9031C176.397 25.3946 176.713 24.9997 177.12 24.7184C177.526 24.4343 177.999 24.2923 178.539 24.2923C178.936 24.2923 179.267 24.3633 179.532 24.5054C179.796 24.6446 180.007 24.8179 180.167 25.0253C180.326 25.2326 180.449 25.4343 180.537 25.6304H180.605V22.2H181.368V30.9272H180.627V29.7128H180.537C180.449 29.9116 180.324 30.1162 180.162 30.3264C180 30.5338 179.786 30.7085 179.519 30.8505C179.255 30.9926 178.924 31.0636 178.526 31.0636ZM178.615 30.369C179.039 30.369 179.4 30.254 179.698 30.0238C179.996 29.7909 180.223 29.4713 180.38 29.065C180.539 28.6559 180.618 28.1872 180.618 27.6588C180.618 27.1361 180.54 26.6744 180.384 26.2738C180.228 25.8704 180 25.5551 179.702 25.3278C179.404 25.0977 179.042 24.9826 178.615 24.9826C178.178 24.9826 177.809 25.102 177.507 25.3406C177.209 25.5764 176.982 25.896 176.826 26.2994C176.672 26.7028 176.596 27.1559 176.596 27.6588C176.596 28.1673 176.674 28.6261 176.83 29.0352C176.986 29.4443 177.213 29.7696 177.512 30.0111C177.813 30.2497 178.181 30.369 178.615 30.369Z" fill="#94A3B8"/>
<rect x="217" y="15.4272" width="33" height="22" rx="5" fill="#E2E8F0"/>
<path d="M224.188 22.6772C224.436 22.6772 224.675 22.776 224.85 22.9518C225.026 23.1276 225.125 23.3661 225.125 23.6147V24.5522H224.188C224.064 24.5522 223.942 24.528 223.829 24.4809C223.715 24.4338 223.612 24.3647 223.525 24.2777C223.438 24.1906 223.368 24.0873 223.321 23.9735C223.274 23.8598 223.25 23.7379 223.25 23.6147C223.25 23.4916 223.274 23.3697 223.321 23.256C223.368 23.1422 223.438 23.0389 223.525 22.9518C223.612 22.8648 223.715 22.7957 223.829 22.7486C223.942 22.7015 224.064 22.6772 224.188 22.6772V22.6772ZM225.75 24.5522V23.6147C225.75 23.3057 225.658 23.0036 225.487 22.7467C225.315 22.4897 225.071 22.2894 224.785 22.1712C224.5 22.0529 224.186 22.022 223.883 22.0823C223.58 22.1426 223.301 22.2914 223.083 22.5099C222.864 22.7284 222.715 23.0068 222.655 23.3099C222.595 23.613 222.626 23.9272 222.744 24.2127C222.862 24.4982 223.062 24.7422 223.319 24.9139C223.576 25.0856 223.878 25.1772 224.188 25.1772H225.125V27.6772H224.188C223.878 27.6772 223.576 27.7689 223.319 27.9406C223.062 28.1123 222.862 28.3563 222.744 28.6418C222.626 28.9273 222.595 29.2415 222.655 29.5446C222.715 29.8477 222.864 30.1261 223.083 30.3446C223.301 30.5631 223.58 30.7119 223.883 30.7722C224.186 30.8325 224.5 30.8016 224.785 30.6833C225.071 30.565 225.315 30.3648 225.487 30.1078C225.658 29.8509 225.75 29.5488 225.75 29.2397V28.3022H228.25V29.2397C228.25 29.5488 228.342 29.8509 228.513 30.1078C228.685 30.3648 228.929 30.565 229.215 30.6833C229.5 30.8016 229.814 30.8325 230.117 30.7722C230.42 30.7119 230.699 30.5631 230.917 30.3446C231.136 30.1261 231.285 29.8477 231.345 29.5446C231.405 29.2415 231.374 28.9273 231.256 28.6418C231.138 28.3563 230.938 28.1123 230.681 27.9406C230.424 27.7689 230.122 27.6772 229.813 27.6772H228.875V25.1772H229.813C230.122 25.1772 230.424 25.0856 230.681 24.9139C230.938 24.7422 231.138 24.4982 231.256 24.2127C231.374 23.9272 231.405 23.613 231.345 23.3099C231.285 23.0068 231.136 22.7284 230.917 22.5099C230.699 22.2914 230.42 22.1426 230.117 22.0823C229.814 22.022 229.5 22.0529 229.215 22.1712C228.929 22.2894 228.685 22.4897 228.513 22.7467C228.342 23.0036 228.25 23.3057 228.25 23.6147V24.5522H225.75ZM228.25 25.1772V27.6772H225.75V25.1772H228.25ZM228.875 24.5522V23.6147C228.875 23.4293 228.93 23.2481 229.033 23.0939C229.136 22.9397 229.282 22.8196 229.454 22.7486C229.625 22.6777 229.814 22.6591 229.995 22.6953C230.177 22.7314 230.344 22.8207 230.475 22.9518C230.607 23.0829 230.696 23.25 230.732 23.4318C230.768 23.6137 230.75 23.8022 230.679 23.9735C230.608 24.1448 230.488 24.2912 230.333 24.3942C230.179 24.4973 229.998 24.5522 229.813 24.5522H228.875ZM228.875 28.3022H229.813C229.998 28.3022 230.179 28.3572 230.333 28.4602C230.488 28.5633 230.608 28.7097 230.679 28.881C230.75 29.0523 230.768 29.2408 230.732 29.4226C230.696 29.6045 230.607 29.7715 230.475 29.9027C230.344 30.0338 230.177 30.1231 229.995 30.1592C229.814 30.1954 229.625 30.1768 229.454 30.1059C229.282 30.0349 229.136 29.9148 229.033 29.7606C228.93 29.6064 228.875 29.4252 228.875 29.2397V28.3022ZM225.125 28.3022V29.2397C225.125 29.4252 225.07 29.6064 224.967 29.7606C224.864 29.9148 224.718 30.0349 224.546 30.1059C224.375 30.1768 224.186 30.1954 224.005 30.1592C223.823 30.1231 223.656 30.0338 223.525 29.9027C223.393 29.7715 223.304 29.6045 223.268 29.4226C223.232 29.2408 223.25 29.0523 223.321 28.881C223.392 28.7097 223.512 28.5633 223.667 28.4602C223.821 28.3572 224.002 28.3022 224.188 28.3022H225.125Z" fill="#64748B"/>
<path d="M237.969 30.4272V22.4272H238.938V26.396H239.031L242.625 22.4272H243.891L240.531 26.0366L243.891 30.4272H242.719L239.938 26.7085L238.938 27.8335V30.4272H237.969Z" fill="#64748B"/>
<rect y="52.4272" width="265" height="1" fill="url(#paint1_radial_1328_2)"/>
<path d="M16.4862 79.4272H15.2205L17.5249 72.8818H18.9886L21.2962 79.4272H20.0305L18.2823 74.2241H18.2312L16.4862 79.4272ZM16.5277 76.8608H19.9794V77.8133H16.5277V76.8608ZM27.4533 75.0902H26.258C26.2239 74.8942 26.161 74.7206 26.0694 74.5693C25.9778 74.4159 25.8638 74.2859 25.7275 74.1794C25.5911 74.0728 25.4355 73.9929 25.2608 73.9397C25.0882 73.8843 24.9018 73.8566 24.7015 73.8566C24.3457 73.8566 24.0304 73.9461 23.7555 74.125C23.4806 74.3019 23.2654 74.5618 23.1099 74.9049C22.9544 75.2458 22.8766 75.6623 22.8766 76.1545C22.8766 76.6552 22.9544 77.0771 23.1099 77.4201C23.2676 77.7611 23.4828 78.0189 23.7555 78.1936C24.0304 78.3662 24.3446 78.4525 24.6983 78.4525C24.8944 78.4525 25.0776 78.4269 25.248 78.3758C25.4206 78.3225 25.5751 78.2447 25.7115 78.1424C25.85 78.0402 25.9661 77.9145 26.0598 77.7653C26.1557 77.6162 26.2218 77.4457 26.258 77.254L27.4533 77.2603C27.4086 77.5714 27.3116 77.8633 27.1625 78.1361C27.0154 78.4088 26.8226 78.6495 26.584 78.8584C26.3453 79.065 26.0662 79.227 25.7466 79.3441C25.427 79.4592 25.0723 79.5167 24.6824 79.5167C24.1071 79.5167 23.5936 79.3836 23.1419 79.1172C22.6902 78.8509 22.3343 78.4663 22.0744 77.9635C21.8145 77.4606 21.6845 76.8576 21.6845 76.1545C21.6845 75.4493 21.8155 74.8463 22.0776 74.3456C22.3397 73.8427 22.6966 73.4581 23.1483 73.1918C23.6 72.9255 24.1113 72.7923 24.6824 72.7923C25.0467 72.7923 25.3855 72.8434 25.6987 72.9457C26.0119 73.048 26.291 73.1982 26.536 73.3964C26.7811 73.5924 26.9824 73.8331 27.1401 74.1187C27.2999 74.402 27.4043 74.7259 27.4533 75.0902ZM28.2515 73.8758V72.8818H33.4738V73.8758H31.4507V79.4272H30.2746V73.8758H28.2515ZM35.6663 72.8818V79.4272H34.4806V72.8818H35.6663ZM42.799 76.1545C42.799 76.8598 42.6669 77.4638 42.4027 77.9667C42.1406 78.4674 41.7827 78.8509 41.3288 79.1172C40.8771 79.3836 40.3647 79.5167 39.7915 79.5167C39.2184 79.5167 38.7049 79.3836 38.2511 79.1172C37.7994 78.8488 37.4414 78.4642 37.1772 77.9635C36.9151 77.4606 36.7841 76.8576 36.7841 76.1545C36.7841 75.4493 36.9151 74.8463 37.1772 74.3456C37.4414 73.8427 37.7994 73.4581 38.2511 73.1918C38.7049 72.9255 39.2184 72.7923 39.7915 72.7923C40.3647 72.7923 40.8771 72.9255 41.3288 73.1918C41.7827 73.4581 42.1406 73.8427 42.4027 74.3456C42.6669 74.8463 42.799 75.4493 42.799 76.1545ZM41.6069 76.1545C41.6069 75.6581 41.5291 75.2394 41.3736 74.8985C41.2202 74.5554 41.0071 74.2966 40.7344 74.1218C40.4616 73.945 40.1474 73.8566 39.7915 73.8566C39.4357 73.8566 39.1214 73.945 38.8487 74.1218C38.576 74.2966 38.3619 74.5554 38.2063 74.8985C38.0529 75.2394 37.9762 75.6581 37.9762 76.1545C37.9762 76.651 38.0529 77.0707 38.2063 77.4138C38.3619 77.7547 38.576 78.0135 38.8487 78.1904C39.1214 78.3651 39.4357 78.4525 39.7915 78.4525C40.1474 78.4525 40.4616 78.3651 40.7344 78.1904C41.0071 78.0135 41.2202 77.7547 41.3736 77.4138C41.5291 77.0707 41.6069 76.651 41.6069 76.1545ZM49.2989 72.8818V79.4272H48.2442L45.1601 74.9688H45.1057V79.4272H43.92V72.8818H44.9811L48.0621 77.3434H48.1196V72.8818H49.2989ZM54.1481 74.6812C54.1183 74.402 53.9925 74.1847 53.771 74.0292C53.5515 73.8736 53.266 73.7959 52.9144 73.7959C52.6673 73.7959 52.4553 73.8331 52.2784 73.9077C52.1016 73.9823 51.9663 74.0835 51.8725 74.2113C51.7788 74.3392 51.7308 74.4851 51.7287 74.6492C51.7287 74.7856 51.7596 74.9038 51.8214 75.004C51.8853 75.1041 51.9716 75.1893 52.0803 75.2596C52.1889 75.3278 52.3093 75.3853 52.4414 75.4322C52.5735 75.4791 52.7067 75.5185 52.8409 75.5505L53.4545 75.7039C53.7017 75.7614 53.9393 75.8392 54.1673 75.9372C54.3974 76.0352 54.603 76.1588 54.7841 76.3079C54.9673 76.4571 55.1122 76.6371 55.2188 76.8481C55.3253 77.059 55.3786 77.3062 55.3786 77.5895C55.3786 77.9731 55.2805 78.3108 55.0845 78.6027C54.8885 78.8924 54.6051 79.1194 54.2344 79.2834C53.8658 79.4454 53.4194 79.5263 52.8952 79.5263C52.386 79.5263 51.9439 79.4475 51.5689 79.2898C51.196 79.1321 50.9041 78.902 50.6932 78.5995C50.4844 78.2969 50.3714 77.9283 50.3544 77.4937H51.521C51.538 77.7216 51.6083 77.9113 51.7319 78.0625C51.8555 78.2138 52.0163 78.3267 52.2145 78.4013C52.4148 78.4759 52.6385 78.5132 52.8857 78.5132C53.1435 78.5132 53.3693 78.4748 53.5632 78.3981C53.7592 78.3193 53.9126 78.2106 54.0234 78.0721C54.1342 77.9315 54.1907 77.7674 54.1928 77.5799C54.1907 77.4095 54.1406 77.2689 54.0426 77.1581C53.9446 77.0451 53.8072 76.9514 53.6303 76.8768C53.4556 76.8001 53.2511 76.7319 53.0167 76.6723L52.272 76.4805C51.733 76.342 51.3068 76.1321 50.9936 75.8509C50.6825 75.5675 50.527 75.1915 50.527 74.7227C50.527 74.337 50.6314 73.9993 50.8402 73.7096C51.0511 73.4198 51.3377 73.195 51.6999 73.0352C52.0621 72.8733 52.4723 72.7923 52.9304 72.7923C53.3949 72.7923 53.8018 72.8733 54.1513 73.0352C54.5028 73.195 54.7788 73.4177 54.979 73.7032C55.1793 73.9865 55.2827 74.3125 55.2891 74.6812H54.1481Z" fill="#64748B"/>
<circle cx="21.5" cy="105.427" r="6" stroke="#64748B"/>
<path d="M19.3875 105.59L23.6125 105.59" stroke="#64748B" stroke-linecap="round"/>
<path d="M21.5 107.702L21.5 103.477" stroke="#64748B" stroke-linecap="round"/>
<path d="M45.4063 104.427H44.4375C44.3802 104.149 44.2799 103.904 44.1367 103.693C43.9961 103.482 43.8242 103.305 43.6211 103.162C43.4206 103.016 43.1979 102.906 42.9531 102.833C42.7083 102.761 42.4531 102.724 42.1875 102.724C41.7031 102.724 41.2643 102.847 40.8711 103.091C40.4805 103.336 40.1693 103.697 39.9375 104.173C39.7083 104.65 39.5938 105.235 39.5938 105.927C39.5938 106.62 39.7083 107.205 39.9375 107.681C40.1693 108.158 40.4805 108.518 40.8711 108.763C41.2643 109.008 41.7031 109.13 42.1875 109.13C42.4531 109.13 42.7083 109.094 42.9531 109.021C43.1979 108.948 43.4206 108.84 43.6211 108.697C43.8242 108.551 43.9961 108.373 44.1367 108.162C44.2799 107.948 44.3802 107.703 44.4375 107.427H45.4063C45.3333 107.836 45.2005 108.202 45.0078 108.525C44.8151 108.848 44.5755 109.123 44.2891 109.349C44.0026 109.573 43.681 109.744 43.3242 109.861C42.9701 109.978 42.5911 110.037 42.1875 110.037C41.5052 110.037 40.8984 109.87 40.3672 109.537C39.8359 109.203 39.418 108.729 39.1133 108.115C38.8086 107.5 38.6563 106.771 38.6563 105.927C38.6563 105.083 38.8086 104.354 39.1133 103.74C39.418 103.125 39.8359 102.651 40.3672 102.318C40.8984 101.985 41.5052 101.818 42.1875 101.818C42.5911 101.818 42.9701 101.876 43.3242 101.994C43.681 102.111 44.0026 102.283 44.2891 102.509C44.5755 102.733 44.8151 103.007 45.0078 103.33C45.2005 103.65 45.3333 104.016 45.4063 104.427ZM46.8467 109.927V103.927H47.7373V104.833H47.7998C47.9092 104.537 48.1071 104.296 48.3936 104.111C48.68 103.926 49.0029 103.833 49.3623 103.833C49.43 103.833 49.5146 103.835 49.6162 103.837C49.7178 103.84 49.7946 103.844 49.8467 103.849V104.787C49.8154 104.779 49.7438 104.767 49.6318 104.751C49.5225 104.733 49.4066 104.724 49.2842 104.724C48.9925 104.724 48.7321 104.785 48.5029 104.908C48.2764 105.028 48.0967 105.194 47.9639 105.408C47.8337 105.619 47.7686 105.86 47.7686 106.13V109.927H46.8467ZM53.2725 110.052C52.6943 110.052 52.1956 109.925 51.7764 109.669C51.3597 109.412 51.0381 109.052 50.8115 108.591C50.5876 108.128 50.4756 107.589 50.4756 106.974C50.4756 106.36 50.5876 105.818 50.8115 105.349C51.0381 104.878 51.3532 104.511 51.7568 104.248C52.1631 103.982 52.637 103.849 53.1787 103.849C53.4912 103.849 53.7998 103.901 54.1045 104.005C54.4092 104.11 54.6865 104.279 54.9365 104.513C55.1865 104.745 55.3857 105.052 55.5342 105.435C55.6826 105.818 55.7568 106.289 55.7568 106.849V107.24H51.1318V106.443H54.8193C54.8193 106.104 54.7516 105.802 54.6162 105.537C54.4834 105.271 54.2933 105.061 54.0459 104.908C53.8011 104.754 53.512 104.677 53.1787 104.677C52.8115 104.677 52.4938 104.768 52.2256 104.951C51.96 105.13 51.7555 105.365 51.6123 105.654C51.4691 105.943 51.3975 106.253 51.3975 106.583V107.115C51.3975 107.568 51.4756 107.952 51.6318 108.267C51.7907 108.58 52.0107 108.818 52.292 108.982C52.5732 109.143 52.9001 109.224 53.2725 109.224C53.5146 109.224 53.7334 109.19 53.9287 109.123C54.1266 109.052 54.2972 108.948 54.4404 108.81C54.5837 108.669 54.6943 108.495 54.7725 108.287L55.6631 108.537C55.5693 108.839 55.4118 109.104 55.1904 109.333C54.9691 109.56 54.6956 109.737 54.3701 109.865C54.0446 109.99 53.6787 110.052 53.2725 110.052ZM58.9248 110.068C58.5446 110.068 58.1995 109.996 57.8896 109.853C57.5798 109.707 57.3337 109.498 57.1514 109.224C56.9691 108.948 56.8779 108.615 56.8779 108.224C56.8779 107.88 56.9456 107.602 57.0811 107.388C57.2165 107.172 57.3975 107.003 57.624 106.88C57.8506 106.758 58.1006 106.667 58.374 106.607C58.6501 106.544 58.9274 106.495 59.2061 106.458C59.5706 106.412 59.8662 106.376 60.0928 106.353C60.3219 106.327 60.4886 106.284 60.5928 106.224C60.6995 106.164 60.7529 106.06 60.7529 105.912V105.88C60.7529 105.495 60.6475 105.195 60.4365 104.982C60.2282 104.768 59.9118 104.662 59.4873 104.662C59.0472 104.662 58.7021 104.758 58.4521 104.951C58.2021 105.143 58.0264 105.349 57.9248 105.568L57.0498 105.255C57.2061 104.891 57.4144 104.607 57.6748 104.404C57.9378 104.198 58.2243 104.055 58.5342 103.974C58.8467 103.891 59.154 103.849 59.4561 103.849C59.6488 103.849 59.8701 103.873 60.1201 103.919C60.3727 103.964 60.6162 104.056 60.8506 104.197C61.0876 104.337 61.2842 104.55 61.4404 104.833C61.5967 105.117 61.6748 105.498 61.6748 105.974V109.927H60.7529V109.115H60.7061C60.6436 109.245 60.5394 109.384 60.3936 109.533C60.2477 109.681 60.0537 109.807 59.8115 109.912C59.5693 110.016 59.2738 110.068 58.9248 110.068ZM59.0654 109.24C59.43 109.24 59.7373 109.168 59.9873 109.025C60.2399 108.882 60.43 108.697 60.5576 108.47C60.6878 108.244 60.7529 108.005 60.7529 107.755V106.912C60.7139 106.958 60.6279 107.001 60.4951 107.041C60.3649 107.077 60.2139 107.11 60.042 107.138C59.8727 107.164 59.7074 107.188 59.5459 107.208C59.387 107.227 59.2581 107.242 59.1592 107.255C58.9196 107.287 58.6956 107.337 58.4873 107.408C58.2816 107.475 58.1149 107.578 57.9873 107.716C57.8623 107.852 57.7998 108.037 57.7998 108.271C57.7998 108.591 57.9183 108.833 58.1553 108.998C58.3949 109.159 58.6982 109.24 59.0654 109.24ZM65.9668 103.927V104.708H62.8574V103.927H65.9668ZM63.7637 102.49H64.6855V108.208C64.6855 108.469 64.7233 108.664 64.7988 108.794C64.877 108.922 64.9759 109.008 65.0957 109.052C65.2181 109.094 65.347 109.115 65.4824 109.115C65.584 109.115 65.6673 109.11 65.7324 109.099C65.7975 109.086 65.8496 109.076 65.8887 109.068L66.0762 109.896C66.0137 109.919 65.9264 109.943 65.8145 109.966C65.7025 109.992 65.5605 110.005 65.3887 110.005C65.1283 110.005 64.873 109.949 64.623 109.837C64.3757 109.725 64.1699 109.555 64.0059 109.326C63.8444 109.097 63.7637 108.807 63.7637 108.458V102.49ZM69.8047 110.052C69.2266 110.052 68.7279 109.925 68.3086 109.669C67.8919 109.412 67.5703 109.052 67.3438 108.591C67.1198 108.128 67.0078 107.589 67.0078 106.974C67.0078 106.36 67.1198 105.818 67.3438 105.349C67.5703 104.878 67.8854 104.511 68.2891 104.248C68.6953 103.982 69.1693 103.849 69.7109 103.849C70.0234 103.849 70.332 103.901 70.6367 104.005C70.9414 104.11 71.2188 104.279 71.4688 104.513C71.7188 104.745 71.918 105.052 72.0664 105.435C72.2148 105.818 72.2891 106.289 72.2891 106.849V107.24H67.6641V106.443H71.3516C71.3516 106.104 71.2839 105.802 71.1484 105.537C71.0156 105.271 70.8255 105.061 70.5781 104.908C70.3333 104.754 70.0443 104.677 69.7109 104.677C69.3438 104.677 69.026 104.768 68.7578 104.951C68.4922 105.13 68.2878 105.365 68.1445 105.654C68.0013 105.943 67.9297 106.253 67.9297 106.583V107.115C67.9297 107.568 68.0078 107.952 68.1641 108.267C68.3229 108.58 68.543 108.818 68.8242 108.982C69.1055 109.143 69.4323 109.224 69.8047 109.224C70.0469 109.224 70.2656 109.19 70.4609 109.123C70.6589 109.052 70.8294 108.948 70.9727 108.81C71.1159 108.669 71.2266 108.495 71.3047 108.287L72.1953 108.537C72.1016 108.839 71.944 109.104 71.7227 109.333C71.5013 109.56 71.2279 109.737 70.9023 109.865C70.5768 109.99 70.2109 110.052 69.8047 110.052ZM77.707 106.318V109.927H76.7852V103.927H77.6758V104.865H77.7539C77.8945 104.56 78.1081 104.315 78.3945 104.13C78.681 103.943 79.0508 103.849 79.5039 103.849C79.9102 103.849 80.2656 103.932 80.5703 104.099C80.875 104.263 81.112 104.513 81.2813 104.849C81.4505 105.182 81.5352 105.604 81.5352 106.115V109.927H80.6133V106.177C80.6133 105.706 80.4909 105.339 80.2461 105.076C80.0013 104.81 79.6654 104.677 79.2383 104.677C78.944 104.677 78.681 104.741 78.4492 104.869C78.2201 104.996 78.0391 105.182 77.9063 105.427C77.7734 105.672 77.707 105.969 77.707 106.318ZM85.7354 110.052C85.1572 110.052 84.6585 109.925 84.2393 109.669C83.8226 109.412 83.501 109.052 83.2744 108.591C83.0505 108.128 82.9385 107.589 82.9385 106.974C82.9385 106.36 83.0505 105.818 83.2744 105.349C83.501 104.878 83.8161 104.511 84.2197 104.248C84.626 103.982 85.0999 103.849 85.6416 103.849C85.9541 103.849 86.2627 103.901 86.5674 104.005C86.8721 104.11 87.1494 104.279 87.3994 104.513C87.6494 104.745 87.8486 105.052 87.9971 105.435C88.1455 105.818 88.2197 106.289 88.2197 106.849V107.24H83.5947V106.443H87.2822C87.2822 106.104 87.2145 105.802 87.0791 105.537C86.9463 105.271 86.7562 105.061 86.5088 104.908C86.264 104.754 85.9749 104.677 85.6416 104.677C85.2744 104.677 84.9567 104.768 84.6885 104.951C84.4229 105.13 84.2184 105.365 84.0752 105.654C83.932 105.943 83.8604 106.253 83.8604 106.583V107.115C83.8604 107.568 83.9385 107.952 84.0947 108.267C84.2536 108.58 84.4736 108.818 84.7549 108.982C85.0361 109.143 85.363 109.224 85.7354 109.224C85.9775 109.224 86.1963 109.19 86.3916 109.123C86.5895 109.052 86.7601 108.948 86.9033 108.81C87.0465 108.669 87.1572 108.495 87.2354 108.287L88.126 108.537C88.0322 108.839 87.8747 109.104 87.6533 109.333C87.432 109.56 87.1585 109.737 86.833 109.865C86.5075 109.99 86.1416 110.052 85.7354 110.052ZM90.9814 109.927L89.1533 103.927H90.1221L91.4189 108.521H91.4814L92.7627 103.927H93.7471L95.0127 108.505H95.0752L96.3721 103.927H97.3408L95.5127 109.927H94.6064L93.2939 105.318H93.2002L91.8877 109.927H90.9814ZM101.778 109.927V101.927H102.7V104.88H102.778C102.846 104.776 102.94 104.643 103.06 104.482C103.182 104.318 103.356 104.172 103.583 104.044C103.812 103.914 104.122 103.849 104.513 103.849C105.018 103.849 105.463 103.975 105.849 104.228C106.234 104.481 106.535 104.839 106.751 105.302C106.967 105.766 107.075 106.313 107.075 106.943C107.075 107.578 106.967 108.129 106.751 108.595C106.535 109.059 106.235 109.418 105.853 109.673C105.47 109.926 105.028 110.052 104.528 110.052C104.143 110.052 103.834 109.988 103.603 109.861C103.371 109.731 103.192 109.583 103.067 109.419C102.942 109.253 102.846 109.115 102.778 109.005H102.669V109.927H101.778ZM102.685 106.927C102.685 107.38 102.751 107.78 102.884 108.126C103.017 108.47 103.211 108.74 103.466 108.935C103.721 109.128 104.034 109.224 104.403 109.224C104.789 109.224 105.11 109.123 105.368 108.919C105.629 108.714 105.824 108.438 105.954 108.091C106.087 107.742 106.153 107.354 106.153 106.927C106.153 106.505 106.088 106.125 105.958 105.787C105.83 105.445 105.636 105.176 105.376 104.978C105.118 104.778 104.794 104.677 104.403 104.677C104.028 104.677 103.713 104.772 103.458 104.962C103.203 105.15 103.01 105.413 102.88 105.751C102.75 106.087 102.685 106.479 102.685 106.927ZM110.923 110.052C110.381 110.052 109.906 109.923 109.497 109.666C109.091 109.408 108.773 109.047 108.544 108.583C108.317 108.12 108.204 107.578 108.204 106.958C108.204 106.333 108.317 105.788 108.544 105.322C108.773 104.856 109.091 104.494 109.497 104.236C109.906 103.978 110.381 103.849 110.923 103.849C111.465 103.849 111.938 103.978 112.345 104.236C112.754 104.494 113.071 104.856 113.298 105.322C113.527 105.788 113.642 106.333 113.642 106.958C113.642 107.578 113.527 108.12 113.298 108.583C113.071 109.047 112.754 109.408 112.345 109.666C111.938 109.923 111.465 110.052 110.923 110.052ZM110.923 109.224C111.334 109.224 111.673 109.119 111.938 108.908C112.204 108.697 112.401 108.419 112.528 108.076C112.656 107.732 112.72 107.36 112.72 106.958C112.72 106.557 112.656 106.184 112.528 105.837C112.401 105.491 112.204 105.211 111.938 104.998C111.673 104.784 111.334 104.677 110.923 104.677C110.511 104.677 110.173 104.784 109.907 104.998C109.642 105.211 109.445 105.491 109.317 105.837C109.19 106.184 109.126 106.557 109.126 106.958C109.126 107.36 109.19 107.732 109.317 108.076C109.445 108.419 109.642 108.697 109.907 108.908C110.173 109.119 110.511 109.224 110.923 109.224ZM116.814 110.068C116.434 110.068 116.089 109.996 115.779 109.853C115.469 109.707 115.223 109.498 115.041 109.224C114.859 108.948 114.768 108.615 114.768 108.224C114.768 107.88 114.835 107.602 114.971 107.388C115.106 107.172 115.287 107.003 115.514 106.88C115.74 106.758 115.99 106.667 116.264 106.607C116.54 106.544 116.817 106.495 117.096 106.458C117.46 106.412 117.756 106.376 117.982 106.353C118.212 106.327 118.378 106.284 118.482 106.224C118.589 106.164 118.643 106.06 118.643 105.912V105.88C118.643 105.495 118.537 105.195 118.326 104.982C118.118 104.768 117.801 104.662 117.377 104.662C116.937 104.662 116.592 104.758 116.342 104.951C116.092 105.143 115.916 105.349 115.814 105.568L114.939 105.255C115.096 104.891 115.304 104.607 115.564 104.404C115.827 104.198 116.114 104.055 116.424 103.974C116.736 103.891 117.044 103.849 117.346 103.849C117.538 103.849 117.76 103.873 118.01 103.919C118.262 103.964 118.506 104.056 118.74 104.197C118.977 104.337 119.174 104.55 119.33 104.833C119.486 105.117 119.564 105.498 119.564 105.974V109.927H118.643V109.115H118.596C118.533 109.245 118.429 109.384 118.283 109.533C118.137 109.681 117.943 109.807 117.701 109.912C117.459 110.016 117.163 110.068 116.814 110.068ZM116.955 109.24C117.32 109.24 117.627 109.168 117.877 109.025C118.13 108.882 118.32 108.697 118.447 108.47C118.577 108.244 118.643 108.005 118.643 107.755V106.912C118.604 106.958 118.518 107.001 118.385 107.041C118.255 107.077 118.104 107.11 117.932 107.138C117.762 107.164 117.597 107.188 117.436 107.208C117.277 107.227 117.148 107.242 117.049 107.255C116.809 107.287 116.585 107.337 116.377 107.408C116.171 107.475 116.005 107.578 115.877 107.716C115.752 107.852 115.689 108.037 115.689 108.271C115.689 108.591 115.808 108.833 116.045 108.998C116.285 109.159 116.588 109.24 116.955 109.24ZM121.247 109.927V103.927H122.138V104.833H122.2C122.31 104.537 122.507 104.296 122.794 104.111C123.08 103.926 123.403 103.833 123.763 103.833C123.83 103.833 123.915 103.835 124.017 103.837C124.118 103.84 124.195 103.844 124.247 103.849V104.787C124.216 104.779 124.144 104.767 124.032 104.751C123.923 104.733 123.807 104.724 123.685 104.724C123.393 104.724 123.132 104.785 122.903 104.908C122.677 105.028 122.497 105.194 122.364 105.408C122.234 105.619 122.169 105.86 122.169 106.13V109.927H121.247ZM127.423 110.052C126.923 110.052 126.481 109.926 126.099 109.673C125.716 109.418 125.416 109.059 125.2 108.595C124.984 108.129 124.876 107.578 124.876 106.943C124.876 106.313 124.984 105.766 125.2 105.302C125.416 104.839 125.717 104.481 126.103 104.228C126.488 103.975 126.933 103.849 127.438 103.849C127.829 103.849 128.138 103.914 128.364 104.044C128.593 104.172 128.768 104.318 128.888 104.482C129.01 104.643 129.105 104.776 129.173 104.88H129.251V101.927H130.173V109.927H129.282V109.005H129.173C129.105 109.115 129.009 109.253 128.884 109.419C128.759 109.583 128.58 109.731 128.349 109.861C128.117 109.988 127.808 110.052 127.423 110.052ZM127.548 109.224C127.918 109.224 128.23 109.128 128.485 108.935C128.741 108.74 128.935 108.47 129.067 108.126C129.2 107.78 129.267 107.38 129.267 106.927C129.267 106.479 129.201 106.087 129.071 105.751C128.941 105.413 128.748 105.15 128.493 104.962C128.238 104.772 127.923 104.677 127.548 104.677C127.157 104.677 126.832 104.778 126.571 104.978C126.313 105.176 126.119 105.445 125.989 105.787C125.862 106.125 125.798 106.505 125.798 106.927C125.798 107.354 125.863 107.742 125.993 108.091C126.126 108.438 126.321 108.714 126.579 108.919C126.84 109.123 127.162 109.224 127.548 109.224Z" fill="#94A3B8"/>
<rect x="216" y="94.4272" width="34" height="22" rx="5" fill="#F1F5F9"/>
<path d="M223.188 101.677C223.436 101.677 223.675 101.776 223.85 101.952C224.026 102.128 224.125 102.366 224.125 102.615V103.552H223.188C223.064 103.552 222.942 103.528 222.829 103.481C222.715 103.434 222.612 103.365 222.525 103.278C222.438 103.191 222.368 103.087 222.321 102.974C222.274 102.86 222.25 102.738 222.25 102.615C222.25 102.492 222.274 102.37 222.321 102.256C222.368 102.142 222.438 102.039 222.525 101.952C222.612 101.865 222.715 101.796 222.829 101.749C222.942 101.701 223.064 101.677 223.188 101.677V101.677ZM224.75 103.552V102.615C224.75 102.306 224.658 102.004 224.487 101.747C224.315 101.49 224.071 101.289 223.785 101.171C223.5 101.053 223.186 101.022 222.883 101.082C222.58 101.143 222.301 101.291 222.083 101.51C221.864 101.728 221.715 102.007 221.655 102.31C221.595 102.613 221.626 102.927 221.744 103.213C221.862 103.498 222.062 103.742 222.319 103.914C222.576 104.086 222.878 104.177 223.188 104.177H224.125V106.677H223.188C222.878 106.677 222.576 106.769 222.319 106.941C222.062 107.112 221.862 107.356 221.744 107.642C221.626 107.927 221.595 108.241 221.655 108.545C221.715 108.848 221.864 109.126 222.083 109.345C222.301 109.563 222.58 109.712 222.883 109.772C223.186 109.833 223.5 109.802 223.785 109.683C224.071 109.565 224.315 109.365 224.487 109.108C224.658 108.851 224.75 108.549 224.75 108.24V107.302H227.25V108.24C227.25 108.549 227.342 108.851 227.513 109.108C227.685 109.365 227.929 109.565 228.215 109.683C228.5 109.802 228.814 109.833 229.117 109.772C229.42 109.712 229.699 109.563 229.917 109.345C230.136 109.126 230.285 108.848 230.345 108.545C230.405 108.241 230.374 107.927 230.256 107.642C230.138 107.356 229.938 107.112 229.681 106.941C229.424 106.769 229.122 106.677 228.813 106.677H227.875V104.177H228.813C229.122 104.177 229.424 104.086 229.681 103.914C229.938 103.742 230.138 103.498 230.256 103.213C230.374 102.927 230.405 102.613 230.345 102.31C230.285 102.007 230.136 101.728 229.917 101.51C229.699 101.291 229.42 101.143 229.117 101.082C228.814 101.022 228.5 101.053 228.215 101.171C227.929 101.289 227.685 101.49 227.513 101.747C227.342 102.004 227.25 102.306 227.25 102.615V103.552H224.75ZM227.25 104.177V106.677H224.75V104.177H227.25ZM227.875 103.552V102.615C227.875 102.429 227.93 102.248 228.033 102.094C228.136 101.94 228.282 101.82 228.454 101.749C228.625 101.678 228.814 101.659 228.995 101.695C229.177 101.731 229.344 101.821 229.475 101.952C229.607 102.083 229.696 102.25 229.732 102.432C229.768 102.614 229.75 102.802 229.679 102.974C229.608 103.145 229.488 103.291 229.333 103.394C229.179 103.497 228.998 103.552 228.813 103.552H227.875ZM227.875 107.302H228.813C228.998 107.302 229.179 107.357 229.333 107.46C229.488 107.563 229.608 107.71 229.679 107.881C229.75 108.052 229.768 108.241 229.732 108.423C229.696 108.605 229.607 108.772 229.475 108.903C229.344 109.034 229.177 109.123 228.995 109.159C228.814 109.195 228.625 109.177 228.454 109.106C228.282 109.035 228.136 108.915 228.033 108.761C227.93 108.606 227.875 108.425 227.875 108.24V107.302ZM224.125 107.302V108.24C224.125 108.425 224.07 108.606 223.967 108.761C223.864 108.915 223.718 109.035 223.546 109.106C223.375 109.177 223.186 109.195 223.005 109.159C222.823 109.123 222.656 109.034 222.525 108.903C222.393 108.772 222.304 108.605 222.268 108.423C222.232 108.241 222.25 108.052 222.321 107.881C222.392 107.71 222.512 107.563 222.667 107.46C222.821 107.357 223.002 107.302 223.188 107.302H224.125Z" fill="#94A3B8"/>
<path d="M243.313 101.427V109.427H242.375L238.016 103.146H237.938V109.427H236.969V101.427H237.906L242.281 107.724H242.359V101.427H243.313Z" fill="#94A3B8"/>
<g clip-path="url(#clip2_1328_2)">
<path d="M21.5 131.708C21.6077 131.708 21.7111 131.751 21.7873 131.827C21.8634 131.904 21.9062 132.007 21.9062 132.115V133.333H23.125C23.2327 133.333 23.3361 133.376 23.4123 133.452C23.4884 133.529 23.5312 133.632 23.5312 133.74C23.5312 133.847 23.4884 133.951 23.4123 134.027C23.3361 134.103 23.2327 134.146 23.125 134.146H21.9062V135.365C21.9062 135.472 21.8634 135.576 21.7873 135.652C21.7111 135.728 21.6077 135.771 21.5 135.771C21.3923 135.771 21.2889 135.728 21.2127 135.652C21.1366 135.576 21.0938 135.472 21.0938 135.365V134.146H19.875C19.7673 134.146 19.6639 134.103 19.5877 134.027C19.5116 133.951 19.4688 133.847 19.4688 133.74C19.4688 133.632 19.5116 133.529 19.5877 133.452C19.6639 133.376 19.7673 133.333 19.875 133.333H21.0938V132.115C21.0938 132.007 21.1366 131.904 21.2127 131.827C21.2889 131.751 21.3923 131.708 21.5 131.708V131.708Z" fill="#64748B"/>
<path d="M26.375 130.083V137.802C26.375 138.233 26.2038 138.647 25.899 138.951C25.5943 139.256 25.181 139.427 24.75 139.427H18.25C17.819 139.427 17.4057 139.256 17.101 138.951C16.7962 138.647 16.625 138.233 16.625 137.802V128.052C16.625 127.621 16.7962 127.208 17.101 126.903C17.4057 126.598 17.819 126.427 18.25 126.427H22.7188L26.375 130.083ZM23.9375 130.083C23.6143 130.083 23.3043 129.955 23.0757 129.727C22.8472 129.498 22.7188 129.188 22.7188 128.865V127.24H18.25C18.0345 127.24 17.8278 127.325 17.6755 127.478C17.5231 127.63 17.4375 127.837 17.4375 128.052V137.802C17.4375 138.018 17.5231 138.224 17.6755 138.377C17.8278 138.529 18.0345 138.615 18.25 138.615H24.75C24.9655 138.615 25.1722 138.529 25.3245 138.377C25.4769 138.224 25.5625 138.018 25.5625 137.802V130.083H23.9375Z" fill="#64748B"/>
</g>
<path d="M39.2969 137.427H38.2813L41.2188 129.427H42.2188L45.1563 137.427H44.1406L41.75 130.693H41.6875L39.2969 137.427ZM39.6719 134.302H43.7656V135.162H39.6719V134.302ZM48.543 137.552C48.043 137.552 47.6016 137.426 47.2188 137.173C46.8359 136.918 46.5365 136.559 46.3203 136.095C46.1042 135.629 45.9961 135.078 45.9961 134.443C45.9961 133.813 46.1042 133.266 46.3203 132.802C46.5365 132.339 46.8372 131.981 47.2227 131.728C47.6081 131.475 48.0534 131.349 48.5586 131.349C48.9492 131.349 49.2578 131.414 49.4844 131.544C49.7135 131.672 49.888 131.818 50.0078 131.982C50.1302 132.143 50.2253 132.276 50.293 132.38H50.3711V129.427H51.293V137.427H50.4023V136.505H50.293C50.2253 136.615 50.1289 136.753 50.0039 136.919C49.8789 137.083 49.7005 137.231 49.4688 137.361C49.237 137.488 48.9284 137.552 48.543 137.552ZM48.668 136.724C49.0378 136.724 49.3503 136.628 49.6055 136.435C49.8607 136.24 50.0547 135.97 50.1875 135.626C50.3203 135.28 50.3867 134.88 50.3867 134.427C50.3867 133.979 50.3216 133.587 50.1914 133.251C50.0612 132.913 49.8685 132.65 49.6133 132.462C49.3581 132.272 49.043 132.177 48.668 132.177C48.2773 132.177 47.9518 132.278 47.6914 132.478C47.4336 132.676 47.2396 132.945 47.1094 133.287C46.9818 133.625 46.918 134.005 46.918 134.427C46.918 134.854 46.9831 135.242 47.1133 135.591C47.2461 135.938 47.4414 136.214 47.6992 136.419C47.9596 136.623 48.2826 136.724 48.668 136.724ZM55.375 137.552C54.875 137.552 54.4336 137.426 54.0508 137.173C53.668 136.918 53.3685 136.559 53.1523 136.095C52.9362 135.629 52.8281 135.078 52.8281 134.443C52.8281 133.813 52.9362 133.266 53.1523 132.802C53.3685 132.339 53.6693 131.981 54.0547 131.728C54.4401 131.475 54.8854 131.349 55.3906 131.349C55.7813 131.349 56.0898 131.414 56.3164 131.544C56.5456 131.672 56.7201 131.818 56.8398 131.982C56.9622 132.143 57.0573 132.276 57.125 132.38H57.2031V129.427H58.125V137.427H57.2344V136.505H57.125C57.0573 136.615 56.9609 136.753 56.8359 136.919C56.7109 137.083 56.5326 137.231 56.3008 137.361C56.069 137.488 55.7604 137.552 55.375 137.552ZM55.5 136.724C55.8698 136.724 56.1823 136.628 56.4375 136.435C56.6927 136.24 56.8867 135.97 57.0195 135.626C57.1523 135.28 57.2188 134.88 57.2188 134.427C57.2188 133.979 57.1536 133.587 57.0234 133.251C56.8932 132.913 56.7005 132.65 56.4453 132.462C56.1901 132.272 55.875 132.177 55.5 132.177C55.1094 132.177 54.7839 132.278 54.5234 132.478C54.2656 132.676 54.0716 132.945 53.9414 133.287C53.8138 133.625 53.75 134.005 53.75 134.427C53.75 134.854 53.8151 135.242 53.9453 135.591C54.0781 135.938 54.2734 136.214 54.5313 136.419C54.7917 136.623 55.1146 136.724 55.5 136.724ZM63.957 133.818V137.427H63.0352V131.427H63.9258V132.365H64.0039C64.1445 132.06 64.3581 131.815 64.6445 131.63C64.931 131.443 65.3008 131.349 65.7539 131.349C66.1602 131.349 66.5156 131.432 66.8203 131.599C67.125 131.763 67.362 132.013 67.5313 132.349C67.7005 132.682 67.7852 133.104 67.7852 133.615V137.427H66.8633V133.677C66.8633 133.206 66.7409 132.839 66.4961 132.576C66.2513 132.31 65.9154 132.177 65.4883 132.177C65.194 132.177 64.931 132.241 64.6992 132.369C64.4701 132.496 64.2891 132.682 64.1563 132.927C64.0234 133.172 63.957 133.469 63.957 133.818ZM71.9854 137.552C71.4072 137.552 70.9085 137.425 70.4893 137.169C70.0726 136.912 69.751 136.552 69.5244 136.091C69.3005 135.628 69.1885 135.089 69.1885 134.474C69.1885 133.86 69.3005 133.318 69.5244 132.849C69.751 132.378 70.0661 132.011 70.4697 131.748C70.876 131.482 71.3499 131.349 71.8916 131.349C72.2041 131.349 72.5127 131.401 72.8174 131.505C73.1221 131.61 73.3994 131.779 73.6494 132.013C73.8994 132.245 74.0986 132.552 74.2471 132.935C74.3955 133.318 74.4697 133.789 74.4697 134.349V134.74H69.8447V133.943H73.5322C73.5322 133.604 73.4645 133.302 73.3291 133.037C73.1963 132.771 73.0062 132.561 72.7588 132.408C72.514 132.254 72.2249 132.177 71.8916 132.177C71.5244 132.177 71.2067 132.268 70.9385 132.451C70.6729 132.63 70.4684 132.865 70.3252 133.154C70.182 133.443 70.1104 133.753 70.1104 134.083V134.615C70.1104 135.068 70.1885 135.452 70.3447 135.767C70.5036 136.08 70.7236 136.318 71.0049 136.482C71.2861 136.643 71.613 136.724 71.9854 136.724C72.2275 136.724 72.4463 136.69 72.6416 136.623C72.8395 136.552 73.0101 136.448 73.1533 136.31C73.2965 136.169 73.4072 135.995 73.4854 135.787L74.376 136.037C74.2822 136.339 74.1247 136.604 73.9033 136.833C73.682 137.06 73.4085 137.237 73.083 137.365C72.7575 137.49 72.3916 137.552 71.9854 137.552ZM77.2314 137.427L75.4033 131.427H76.3721L77.6689 136.021H77.7314L79.0127 131.427H79.9971L81.2627 136.005H81.3252L82.6221 131.427H83.5908L81.7627 137.427H80.8564L79.5439 132.818H79.4502L78.1377 137.427H77.2314ZM90.5752 131.427V132.208H87.3408V131.427H90.5752ZM88.3096 137.427V130.599C88.3096 130.255 88.3903 129.969 88.5518 129.74C88.7132 129.511 88.9229 129.339 89.1807 129.224C89.4385 129.11 89.7106 129.052 89.9971 129.052C90.2236 129.052 90.4085 129.07 90.5518 129.107C90.695 129.143 90.8018 129.177 90.8721 129.208L90.6064 130.005C90.5596 129.99 90.4945 129.97 90.4111 129.947C90.3304 129.923 90.2236 129.912 90.0908 129.912C89.7861 129.912 89.5661 129.988 89.4307 130.142C89.2979 130.296 89.2314 130.521 89.2314 130.818V137.427H88.3096ZM91.8672 137.427V131.427H92.7891V137.427H91.8672ZM92.3359 130.427C92.1563 130.427 92.0013 130.366 91.8711 130.244C91.7435 130.121 91.6797 129.974 91.6797 129.802C91.6797 129.63 91.7435 129.483 91.8711 129.361C92.0013 129.238 92.1563 129.177 92.3359 129.177C92.5156 129.177 92.6693 129.238 92.7969 129.361C92.9271 129.483 92.9922 129.63 92.9922 129.802C92.9922 129.974 92.9271 130.121 92.7969 130.244C92.6693 130.366 92.5156 130.427 92.3359 130.427ZM95.3994 129.427V137.427H94.4775V129.427H95.3994ZM99.6035 137.552C99.0254 137.552 98.5267 137.425 98.1074 137.169C97.6908 136.912 97.3691 136.552 97.1426 136.091C96.9186 135.628 96.8066 135.089 96.8066 134.474C96.8066 133.86 96.9186 133.318 97.1426 132.849C97.3691 132.378 97.6842 132.011 98.0879 131.748C98.4941 131.482 98.9681 131.349 99.5098 131.349C99.8223 131.349 100.131 131.401 100.436 131.505C100.74 131.61 101.018 131.779 101.268 132.013C101.518 132.245 101.717 132.552 101.865 132.935C102.014 133.318 102.088 133.789 102.088 134.349V134.74H97.4629V133.943H101.15C101.15 133.604 101.083 133.302 100.947 133.037C100.814 132.771 100.624 132.561 100.377 132.408C100.132 132.254 99.8431 132.177 99.5098 132.177C99.1426 132.177 98.8249 132.268 98.5566 132.451C98.291 132.63 98.0866 132.865 97.9434 133.154C97.8001 133.443 97.7285 133.753 97.7285 134.083V134.615C97.7285 135.068 97.8066 135.452 97.9629 135.767C98.1217 136.08 98.3418 136.318 98.623 136.482C98.9043 136.643 99.2311 136.724 99.6035 136.724C99.8457 136.724 100.064 136.69 100.26 136.623C100.458 136.552 100.628 136.448 100.771 136.31C100.915 136.169 101.025 135.995 101.104 135.787L101.994 136.037C101.9 136.339 101.743 136.604 101.521 136.833C101.3 137.06 101.027 137.237 100.701 137.365C100.376 137.49 100.01 137.552 99.6035 137.552Z" fill="#94A3B8"/>
</g>
<defs>
<radialGradient id="paint0_radial_1328_2" cx="0" cy="0" r="1" gradientUnits="userSpaceOnUse" gradientTransform="translate(300.5 -13.832) rotate(101.353) scale(180.343 313.954)">
<stop offset="0%" stop-color="#E2E8F0"/>
<stop offset="1" stop-color="white" stop-opacity="0"/>
</radialGradient>
<radialGradient id="paint1_radial_1328_2" cx="0" cy="0" r="1" gradientUnits="userSpaceOnUse" gradientTransform="translate(309 52.4272) rotate(179.647) scale(184.003 4.52524)">
<stop offset="0%" stop-color="#94A3B8"/>
<stop offset="1" stop-color="white" stop-opacity="0"/>
</radialGradient>
<clipPath id="clip0_1328_2">
<path d="M0 0.427246H255C260.523 0.427246 265 4.9044 265 10.4272V154.427H0V0.427246Z" fill="white"/>
</clipPath>
<clipPath id="clip1_1328_2">
<rect width="13" height="13" fill="white" transform="translate(15 19.9272)"/>
</clipPath>
<clipPath id="clip2_1328_2">
<rect width="13" height="13" fill="white" transform="translate(15 126.427)"/>
</clipPath>
</defs>
</svg>
