<svg width="350" height="250" viewBox="0 0 350 250" fill="none" xmlns="http://www.w3.org/2000/svg">
<rect width="350" height="250" fill="url(#paint0_linear_125_38)"/>
<g filter="url(#filter0_d_125_38)">
<path d="M103 79C103 75.6863 105.686 73 109 73H241C244.314 73 247 75.6863 247 79V123C247 126.314 244.314 129 241 129H109C105.686 129 103 126.314 103 123V79Z" fill="white" fill-opacity="0.1" shape-rendering="crispEdges"/>
<path d="M118 89.5C118 88.6716 118.672 88 119.5 88H155.5C156.328 88 157 88.6716 157 89.5C157 90.3284 156.328 91 155.5 91H119.5C118.672 91 118 90.3284 118 89.5Z" fill="white"/>
<path d="M226 91L228.646 88.3536C228.842 88.1583 229.158 88.1583 229.354 88.3536L232 91" stroke="white" stroke-width="2" stroke-linecap="round"/>
<path d="M118 102.5C118 101.672 118.672 101 119.5 101H186.5C187.328 101 188 101.672 188 102.5C188 103.328 187.328 104 186.5 104H119.5C118.672 104 118 103.328 118 102.5Z" fill="white" fill-opacity="0.3"/>
<path d="M118 112.5C118 111.672 118.672 111 119.5 111H164.5C165.328 111 166 111.672 166 112.5C166 113.328 165.328 114 164.5 114H119.5C118.672 114 118 113.328 118 112.5Z" fill="white" fill-opacity="0.3"/>
<path d="M103.5 79C103.5 75.9624 105.962 73.5 109 73.5H241C244.038 73.5 246.5 75.9624 246.5 79V123C246.5 126.038 244.038 128.5 241 128.5H109C105.962 128.5 103.5 126.038 103.5 123V79Z" stroke="white" stroke-opacity="0.4" shape-rendering="crispEdges"/>
</g>
<g filter="url(#filter1_d_125_38)">
<path d="M103 145C103 141.686 105.686 139 109 139H241C244.314 139 247 141.686 247 145V166C247 169.314 244.314 172 241 172H109C105.686 172 103 169.314 103 166V145Z" fill="white" fill-opacity="0.1" shape-rendering="crispEdges"/>
<path d="M118 155.5C118 154.672 118.672 154 119.5 154H155.5C156.328 154 157 154.672 157 155.5C157 156.328 156.328 157 155.5 157H119.5C118.672 157 118 156.328 118 155.5Z" fill="white"/>
<path d="M226 154L228.646 156.646C228.842 156.842 229.158 156.842 229.354 156.646L232 154" stroke="white" stroke-width="2" stroke-linecap="round"/>
<path d="M103.5 145C103.5 141.962 105.962 139.5 109 139.5H241C244.038 139.5 246.5 141.962 246.5 145V166C246.5 169.038 244.038 171.5 241 171.5H109C105.962 171.5 103.5 169.038 103.5 166V145Z" stroke="white" stroke-opacity="0.4" shape-rendering="crispEdges"/>
</g>
<defs>
<filter id="filter0_d_125_38" x="91" y="67" width="168" height="80" filterUnits="userSpaceOnUse" color-interpolation-filters="sRGB">
<feFlood flood-opacity="0" result="BackgroundImageFix"/>
<feColorMatrix in="SourceAlpha" type="matrix" values="0 0 0 0 0 0 0 0 0 0 0 0 0 0 0 0 0 0 127 0" result="hardAlpha"/>
<feOffset dy="6"/>
<feGaussianBlur stdDeviation="6"/>
<feComposite in2="hardAlpha" operator="out"/>
<feColorMatrix type="matrix" values="0 0 0 0 0 0 0 0 0 0 0 0 0 0 0 0 0 0 0.03 0"/>
<feBlend mode="normal" in2="BackgroundImageFix" result="effect1_dropShadow_125_38"/>
<feBlend mode="normal" in="SourceGraphic" in2="effect1_dropShadow_125_38" result="shape"/>
</filter>
<filter id="filter1_d_125_38" x="91" y="133" width="168" height="57" filterUnits="userSpaceOnUse" color-interpolation-filters="sRGB">
<feFlood flood-opacity="0" result="BackgroundImageFix"/>
<feColorMatrix in="SourceAlpha" type="matrix" values="0 0 0 0 0 0 0 0 0 0 0 0 0 0 0 0 0 0 127 0" result="hardAlpha"/>
<feOffset dy="6"/>
<feGaussianBlur stdDeviation="6"/>
<feComposite in2="hardAlpha" operator="out"/>
<feColorMatrix type="matrix" values="0 0 0 0 0 0 0 0 0 0 0 0 0 0 0 0 0 0 0.03 0"/>
<feBlend mode="normal" in2="BackgroundImageFix" result="effect1_dropShadow_125_38"/>
<feBlend mode="normal" in="SourceGraphic" in2="effect1_dropShadow_125_38" result="shape"/>
</filter>
<linearGradient id="paint0_linear_125_38" x1="52" y1="26" x2="344" y2="250" gradientUnits="userSpaceOnUse">
<stop offset="0%" stop-color="#A855F7"/>
<stop offset="1" stop-color="#3B82F6"/>
</linearGradient>
</defs>
</svg>
