<svg width="350" height="250" viewBox="0 0 350 250" fill="none" xmlns="http://www.w3.org/2000/svg">
<rect width="350" height="250" fill="url(#paint0_linear_3558_1811)"/>
<rect x="60" y="129" width="20" height="19" fill="white" fill-opacity="0.3"/>
<rect x="90" y="124" width="20" height="24" fill="white" fill-opacity="0.3"/>
<rect x="120" y="110" width="20" height="38" fill="white"/>
<rect x="150" y="88" width="20" height="60" fill="white"/>
<rect x="180" y="83" width="20" height="65" fill="white"/>
<rect x="210" y="94" width="20" height="54" fill="white"/>
<rect x="240" y="110" width="20" height="38" fill="white" fill-opacity="0.3"/>
<rect x="270" y="129" width="20" height="19" fill="white" fill-opacity="0.3"/>
<path d="M50 164.5C50 163.119 51.1193 162 52.5 162H297.5C298.881 162 300 163.119 300 164.5V164.5C300 165.881 298.881 167 297.5 167H52.5C51.1193 167 50 165.881 50 164.5V164.5Z" fill="white"/>
<g filter="url(#filter0_dd_3558_1811)">
<rect x="212" y="157" width="16" height="16" rx="8" fill="url(#paint1_linear_3558_1811)"/>
<rect x="213.5" y="158.5" width="13" height="13" rx="6.5" stroke="white" stroke-width="3"/>
</g>
<g filter="url(#filter1_dd_3558_1811)">
<rect x="122" y="157" width="16" height="16" rx="8" fill="url(#paint2_linear_3558_1811)"/>
<rect x="123.5" y="158.5" width="13" height="13" rx="6.5" stroke="white" stroke-width="3"/>
</g>
<defs>
<filter id="filter0_dd_3558_1811" x="210" y="156" width="20" height="20" filterUnits="userSpaceOnUse" color-interpolation-filters="sRGB">
<feFlood flood-opacity="0" result="BackgroundImageFix"/>
<feColorMatrix in="SourceAlpha" type="matrix" values="0 0 0 0 0 0 0 0 0 0 0 0 0 0 0 0 0 0 127 0" result="hardAlpha"/>
<feOffset dy="1"/>
<feGaussianBlur stdDeviation="0.5"/>
<feComposite in2="hardAlpha" operator="out"/>
<feColorMatrix type="matrix" values="0 0 0 0 0 0 0 0 0 0 0 0 0 0 0 0 0 0 0.06 0"/>
<feBlend mode="normal" in2="BackgroundImageFix" result="effect1_dropShadow_3558_1811"/>
<feColorMatrix in="SourceAlpha" type="matrix" values="0 0 0 0 0 0 0 0 0 0 0 0 0 0 0 0 0 0 127 0" result="hardAlpha"/>
<feOffset dy="1"/>
<feGaussianBlur stdDeviation="1"/>
<feComposite in2="hardAlpha" operator="out"/>
<feColorMatrix type="matrix" values="0 0 0 0 0 0 0 0 0 0 0 0 0 0 0 0 0 0 0.1 0"/>
<feBlend mode="normal" in2="effect1_dropShadow_3558_1811" result="effect2_dropShadow_3558_1811"/>
<feBlend mode="normal" in="SourceGraphic" in2="effect2_dropShadow_3558_1811" result="shape"/>
</filter>
<filter id="filter1_dd_3558_1811" x="120" y="156" width="20" height="20" filterUnits="userSpaceOnUse" color-interpolation-filters="sRGB">
<feFlood flood-opacity="0" result="BackgroundImageFix"/>
<feColorMatrix in="SourceAlpha" type="matrix" values="0 0 0 0 0 0 0 0 0 0 0 0 0 0 0 0 0 0 127 0" result="hardAlpha"/>
<feOffset dy="1"/>
<feGaussianBlur stdDeviation="0.5"/>
<feComposite in2="hardAlpha" operator="out"/>
<feColorMatrix type="matrix" values="0 0 0 0 0 0 0 0 0 0 0 0 0 0 0 0 0 0 0.06 0"/>
<feBlend mode="normal" in2="BackgroundImageFix" result="effect1_dropShadow_3558_1811"/>
<feColorMatrix in="SourceAlpha" type="matrix" values="0 0 0 0 0 0 0 0 0 0 0 0 0 0 0 0 0 0 127 0" result="hardAlpha"/>
<feOffset dy="1"/>
<feGaussianBlur stdDeviation="1"/>
<feComposite in2="hardAlpha" operator="out"/>
<feColorMatrix type="matrix" values="0 0 0 0 0 0 0 0 0 0 0 0 0 0 0 0 0 0 0.1 0"/>
<feBlend mode="normal" in2="effect1_dropShadow_3558_1811" result="effect2_dropShadow_3558_1811"/>
<feBlend mode="normal" in="SourceGraphic" in2="effect2_dropShadow_3558_1811" result="shape"/>
</filter>
<linearGradient id="paint0_linear_3558_1811" x1="-36" y1="-30.5" x2="541" y2="271" gradientUnits="userSpaceOnUse">
<stop stop-color="#E879F9"/>
<stop offset="1" stop-color="#6D28D9"/>
</linearGradient>
<linearGradient id="paint1_linear_3558_1811" x1="210.354" y1="155.048" x2="239.828" y2="166.049" gradientUnits="userSpaceOnUse">
<stop stop-color="#E879F9"/>
<stop offset="1" stop-color="#6D28D9"/>
</linearGradient>
<linearGradient id="paint2_linear_3558_1811" x1="120.354" y1="155.048" x2="149.828" y2="166.049" gradientUnits="userSpaceOnUse">
<stop stop-color="#E879F9"/>
<stop offset="1" stop-color="#6D28D9"/>
</linearGradient>
</defs>
</svg>
