<svg width="350" height="250" viewBox="0 0 350 250" fill="none" xmlns="http://www.w3.org/2000/svg">
<rect width="350" height="250" fill="url(#paint0_linear_138_24)"/>
<g filter="url(#filter0_d_138_24)">
<path d="M110 53C110 50.7909 111.791 49 114 49H236C238.209 49 240 50.7909 240 53V79C240 81.2091 238.209 83 236 83H114C111.791 83 110 81.2091 110 79V53Z" fill="white" fill-opacity="0.05" shape-rendering="crispEdges"/>
<path d="M120.639 69V63.1818H124.247V63.9375H121.517V65.7102H123.989V66.4631H121.517V69H120.639ZM125.259 69V64.6364H126.108V69H125.259ZM125.688 63.9631C125.54 63.9631 125.413 63.9138 125.307 63.8153C125.203 63.715 125.151 63.5956 125.151 63.4574C125.151 63.3172 125.203 63.1979 125.307 63.0994C125.413 62.9991 125.54 62.9489 125.688 62.9489C125.835 62.9489 125.961 62.9991 126.065 63.0994C126.171 63.1979 126.224 63.3172 126.224 63.4574C126.224 63.5956 126.171 63.715 126.065 63.8153C125.961 63.9138 125.835 63.9631 125.688 63.9631ZM128.1 63.1818V69H127.251V63.1818H128.1ZM131.28 64.6364V65.3182H128.896V64.6364H131.28ZM129.536 63.5909H130.385V67.7188C130.385 67.8835 130.41 68.0076 130.459 68.0909C130.508 68.1723 130.571 68.2282 130.649 68.2585C130.729 68.2869 130.815 68.3011 130.908 68.3011C130.976 68.3011 131.036 68.2964 131.087 68.2869C131.138 68.2775 131.178 68.2699 131.206 68.2642L131.359 68.9659C131.31 68.9848 131.24 69.0038 131.149 69.0227C131.058 69.0436 130.945 69.0549 130.808 69.0568C130.585 69.0606 130.376 69.0208 130.183 68.9375C129.99 68.8542 129.834 68.7254 129.714 68.5511C129.595 68.3769 129.536 68.1581 129.536 67.8949V63.5909ZM134.053 69.0881C133.623 69.0881 133.253 68.9962 132.942 68.8125C132.634 68.6269 132.395 68.3665 132.227 68.0312C132.06 67.6941 131.977 67.2992 131.977 66.8466C131.977 66.3996 132.06 66.0057 132.227 65.6648C132.395 65.3239 132.63 65.0578 132.931 64.8665C133.234 64.6752 133.588 64.5795 133.994 64.5795C134.24 64.5795 134.478 64.6203 134.71 64.7017C134.941 64.7831 135.148 64.911 135.332 65.0852C135.515 65.2595 135.66 65.4858 135.766 65.7642C135.872 66.0407 135.925 66.3769 135.925 66.7727V67.0739H132.457V66.4375H135.093C135.093 66.214 135.048 66.0161 134.957 65.8438C134.866 65.6695 134.738 65.5322 134.573 65.4318C134.41 65.3314 134.219 65.2812 133.999 65.2812C133.761 65.2812 133.552 65.34 133.374 65.4574C133.198 65.5729 133.062 65.7244 132.965 65.9119C132.871 66.0975 132.823 66.2992 132.823 66.517V67.0142C132.823 67.3059 132.874 67.554 132.977 67.7585C133.081 67.9631 133.226 68.1193 133.411 68.2273C133.597 68.3333 133.814 68.3864 134.062 68.3864C134.223 68.3864 134.37 68.3636 134.502 68.3182C134.635 68.2708 134.749 68.2008 134.846 68.108C134.942 68.0152 135.016 67.9006 135.067 67.7642L135.871 67.9091C135.807 68.1458 135.692 68.3532 135.525 68.5312C135.36 68.7074 135.153 68.8447 134.903 68.9432C134.655 69.0398 134.371 69.0881 134.053 69.0881ZM136.868 69V64.6364H137.689V65.3295H137.734C137.814 65.0947 137.954 64.91 138.155 64.7756C138.357 64.6392 138.587 64.571 138.842 64.571C138.895 64.571 138.958 64.5729 139.03 64.5767C139.104 64.5805 139.161 64.5852 139.203 64.5909V65.4034C139.169 65.3939 139.108 65.3835 139.021 65.3722C138.934 65.3589 138.847 65.3523 138.76 65.3523C138.559 65.3523 138.38 65.3949 138.223 65.4801C138.068 65.5634 137.945 65.6799 137.854 65.8295C137.763 65.9773 137.717 66.1458 137.717 66.3352V69H136.868Z" fill="white"/>
<path d="M145 63C145 59.6863 147.686 57 151 57H157C160.314 57 163 59.6863 163 63V69C163 72.3137 160.314 75 157 75H151C147.686 75 145 72.3137 145 69V63Z" fill="white"/>
<path d="M151.2 70V69.2045L153.661 66.6548C153.923 66.3778 154.14 66.1352 154.31 65.9268C154.483 65.7161 154.612 65.5161 154.697 65.3267C154.783 65.1373 154.825 64.9361 154.825 64.723C154.825 64.4815 154.768 64.2732 154.655 64.098C154.541 63.9205 154.386 63.7843 154.19 63.6896C153.993 63.5926 153.772 63.544 153.526 63.544C153.265 63.544 153.038 63.5973 152.844 63.7038C152.65 63.8104 152.5 63.9607 152.396 64.1548C152.292 64.349 152.24 64.5762 152.24 64.8366H151.192C151.192 64.3939 151.294 64.0069 151.498 63.6754C151.701 63.344 151.981 63.0871 152.336 62.9048C152.691 62.7202 153.095 62.6278 153.547 62.6278C154.004 62.6278 154.406 62.719 154.754 62.9013C155.105 63.0812 155.378 63.3274 155.575 63.6399C155.771 63.95 155.869 64.3004 155.869 64.6911C155.869 64.9609 155.818 65.2249 155.717 65.483C155.617 65.741 155.443 66.0286 155.195 66.3459C154.946 66.6607 154.6 67.0431 154.158 67.4929L152.712 69.0057V69.0589H155.987V70H151.2Z" fill="#1F2937"/>
<path d="M226 65L228 67L230 65" stroke="white" stroke-linecap="round"/>
<path d="M114 49.5H236C237.933 49.5 239.5 51.067 239.5 53V79C239.5 80.933 237.933 82.5 236 82.5H114C112.067 82.5 110.5 80.933 110.5 79V53C110.5 51.067 112.067 49.5 114 49.5Z" stroke="white" stroke-opacity="0.2" shape-rendering="crispEdges"/>
</g>
<g filter="url(#filter1_d_138_24)">
<path d="M110 97C110 94.7909 111.791 93 114 93H236C238.209 93 240 94.7909 240 97V197C240 199.209 238.209 201 236 201H114C111.791 201 110 199.209 110 197V97Z" fill="white" fill-opacity="0.05" shape-rendering="crispEdges"/>
<path d="M125.335 105.182V111H124.528L121.571 106.733H121.517V111H120.639V105.182H121.452L124.412 109.455H124.466V105.182H125.335ZM127.817 111.097C127.541 111.097 127.291 111.045 127.067 110.943C126.844 110.839 126.667 110.688 126.536 110.491C126.407 110.295 126.343 110.053 126.343 109.767C126.343 109.521 126.39 109.318 126.485 109.159C126.58 109 126.708 108.874 126.869 108.781C127.03 108.688 127.21 108.618 127.408 108.571C127.607 108.524 127.81 108.488 128.016 108.463C128.278 108.433 128.49 108.408 128.653 108.389C128.816 108.368 128.934 108.335 129.008 108.29C129.082 108.244 129.119 108.17 129.119 108.068V108.048C129.119 107.8 129.049 107.608 128.908 107.472C128.77 107.335 128.564 107.267 128.289 107.267C128.003 107.267 127.778 107.33 127.613 107.457C127.45 107.582 127.337 107.722 127.275 107.875L126.477 107.693C126.571 107.428 126.71 107.214 126.891 107.051C127.075 106.886 127.286 106.767 127.525 106.693C127.763 106.617 128.014 106.58 128.278 106.58C128.452 106.58 128.637 106.6 128.832 106.642C129.029 106.682 129.212 106.756 129.383 106.864C129.555 106.972 129.696 107.126 129.806 107.327C129.916 107.526 129.971 107.784 129.971 108.102V111H129.141V110.403H129.107C129.052 110.513 128.97 110.621 128.86 110.727C128.75 110.833 128.609 110.921 128.437 110.991C128.264 111.062 128.058 111.097 127.817 111.097ZM128.002 110.415C128.237 110.415 128.438 110.368 128.604 110.276C128.773 110.183 128.901 110.062 128.988 109.912C129.077 109.76 129.121 109.598 129.121 109.426V108.864C129.091 108.894 129.032 108.922 128.945 108.949C128.86 108.973 128.763 108.995 128.653 109.014C128.543 109.031 128.436 109.047 128.332 109.062C128.228 109.076 128.14 109.087 128.07 109.097C127.906 109.117 127.755 109.152 127.619 109.202C127.484 109.251 127.376 109.322 127.295 109.415C127.215 109.506 127.175 109.627 127.175 109.778C127.175 109.989 127.253 110.148 127.408 110.256C127.564 110.362 127.762 110.415 128.002 110.415ZM131.102 111V106.636H131.918V107.347H131.972C132.063 107.106 132.211 106.919 132.418 106.784C132.624 106.648 132.871 106.58 133.159 106.58C133.451 106.58 133.695 106.648 133.892 106.784C134.091 106.92 134.238 107.108 134.332 107.347H134.378C134.482 107.114 134.648 106.928 134.875 106.79C135.102 106.65 135.373 106.58 135.688 106.58C136.083 106.58 136.406 106.704 136.656 106.952C136.908 107.2 137.034 107.574 137.034 108.074V111H136.185V108.153C136.185 107.858 136.104 107.644 135.943 107.511C135.782 107.379 135.59 107.312 135.366 107.312C135.09 107.312 134.875 107.398 134.722 107.568C134.568 107.737 134.491 107.954 134.491 108.219V111H133.645V108.099C133.645 107.863 133.571 107.672 133.423 107.528C133.276 107.384 133.083 107.312 132.847 107.312C132.686 107.312 132.537 107.355 132.401 107.44C132.266 107.524 132.157 107.64 132.074 107.79C131.992 107.939 131.952 108.113 131.952 108.31V111H131.102ZM140.053 111.088C139.623 111.088 139.253 110.996 138.942 110.812C138.634 110.627 138.395 110.366 138.227 110.031C138.06 109.694 137.977 109.299 137.977 108.847C137.977 108.4 138.06 108.006 138.227 107.665C138.395 107.324 138.63 107.058 138.931 106.866C139.234 106.675 139.588 106.58 139.994 106.58C140.24 106.58 140.478 106.62 140.71 106.702C140.941 106.783 141.148 106.911 141.332 107.085C141.515 107.259 141.66 107.486 141.766 107.764C141.872 108.041 141.925 108.377 141.925 108.773V109.074H138.457V108.438H141.093C141.093 108.214 141.048 108.016 140.957 107.844C140.866 107.67 140.738 107.532 140.573 107.432C140.41 107.331 140.219 107.281 139.999 107.281C139.761 107.281 139.552 107.34 139.374 107.457C139.198 107.573 139.062 107.724 138.965 107.912C138.871 108.098 138.823 108.299 138.823 108.517V109.014C138.823 109.306 138.874 109.554 138.977 109.759C139.081 109.963 139.226 110.119 139.411 110.227C139.597 110.333 139.814 110.386 140.062 110.386C140.223 110.386 140.37 110.364 140.502 110.318C140.635 110.271 140.749 110.201 140.846 110.108C140.942 110.015 141.016 109.901 141.067 109.764L141.871 109.909C141.807 110.146 141.692 110.353 141.525 110.531C141.36 110.707 141.153 110.845 140.903 110.943C140.655 111.04 140.371 111.088 140.053 111.088Z" fill="white"/>
<path d="M227.96 105.481C228.003 105.438 228.054 105.403 228.11 105.38C228.166 105.356 228.226 105.344 228.287 105.344C228.348 105.344 228.409 105.356 228.465 105.38C228.521 105.403 228.572 105.438 228.615 105.481C228.793 105.662 228.796 105.954 228.621 106.137L224.925 110.506C224.883 110.552 224.832 110.589 224.776 110.615C224.719 110.641 224.657 110.655 224.595 110.656C224.533 110.657 224.471 110.645 224.413 110.622C224.355 110.598 224.303 110.563 224.26 110.519L222.011 108.24C221.924 108.152 221.875 108.033 221.875 107.909C221.875 107.785 221.924 107.666 222.011 107.577C222.053 107.534 222.104 107.499 222.161 107.476C222.217 107.452 222.277 107.44 222.338 107.44C222.399 107.44 222.459 107.452 222.515 107.476C222.572 107.499 222.623 107.534 222.665 107.577L224.573 109.511L227.948 105.495C227.952 105.49 227.956 105.486 227.96 105.481Z" fill="white"/>
<path d="M120.639 137V131.182H124.287V131.938H121.517V133.71H124.097V134.463H121.517V136.244H124.321V137H120.639ZM125.391 137V132.636H126.207V133.347H126.261C126.352 133.106 126.5 132.919 126.707 132.784C126.913 132.648 127.16 132.58 127.448 132.58C127.74 132.58 127.984 132.648 128.181 132.784C128.38 132.92 128.527 133.108 128.621 133.347H128.667C128.771 133.114 128.937 132.928 129.164 132.79C129.391 132.65 129.662 132.58 129.977 132.58C130.372 132.58 130.695 132.704 130.945 132.952C131.197 133.2 131.323 133.574 131.323 134.074V137H130.474V134.153C130.474 133.858 130.393 133.644 130.232 133.511C130.071 133.379 129.879 133.312 129.656 133.312C129.379 133.312 129.164 133.398 129.011 133.568C128.857 133.737 128.781 133.954 128.781 134.219V137H127.934V134.099C127.934 133.863 127.86 133.672 127.712 133.528C127.565 133.384 127.372 133.312 127.136 133.312C126.975 133.312 126.826 133.355 126.69 133.44C126.555 133.524 126.446 133.64 126.363 133.79C126.281 133.939 126.241 134.113 126.241 134.31V137H125.391ZM133.732 137.097C133.455 137.097 133.205 137.045 132.982 136.943C132.758 136.839 132.581 136.688 132.45 136.491C132.321 136.295 132.257 136.053 132.257 135.767C132.257 135.521 132.304 135.318 132.399 135.159C132.494 135 132.622 134.874 132.783 134.781C132.944 134.688 133.124 134.618 133.322 134.571C133.521 134.524 133.724 134.488 133.93 134.463C134.192 134.433 134.404 134.408 134.567 134.389C134.73 134.368 134.848 134.335 134.922 134.29C134.996 134.244 135.033 134.17 135.033 134.068V134.048C135.033 133.8 134.963 133.608 134.822 133.472C134.684 133.335 134.478 133.267 134.203 133.267C133.917 133.267 133.692 133.33 133.527 133.457C133.364 133.582 133.251 133.722 133.189 133.875L132.391 133.693C132.485 133.428 132.624 133.214 132.805 133.051C132.989 132.886 133.2 132.767 133.439 132.693C133.678 132.617 133.929 132.58 134.192 132.58C134.366 132.58 134.551 132.6 134.746 132.642C134.943 132.682 135.126 132.756 135.297 132.864C135.469 132.972 135.61 133.126 135.72 133.327C135.83 133.526 135.885 133.784 135.885 134.102V137H135.055V136.403H135.021C134.966 136.513 134.884 136.621 134.774 136.727C134.664 136.833 134.523 136.921 134.351 136.991C134.179 137.062 133.972 137.097 133.732 137.097ZM133.916 136.415C134.151 136.415 134.352 136.368 134.518 136.276C134.687 136.183 134.815 136.062 134.902 135.912C134.991 135.76 135.036 135.598 135.036 135.426V134.864C135.005 134.894 134.946 134.922 134.859 134.949C134.774 134.973 134.677 134.995 134.567 135.014C134.457 135.031 134.35 135.047 134.246 135.062C134.142 135.076 134.054 135.087 133.984 135.097C133.82 135.117 133.669 135.152 133.533 135.202C133.398 135.251 133.29 135.322 133.209 135.415C133.129 135.506 133.089 135.627 133.089 135.778C133.089 135.989 133.167 136.148 133.322 136.256C133.478 136.362 133.676 136.415 133.916 136.415ZM137.016 137V132.636H137.866V137H137.016ZM137.445 131.963C137.298 131.963 137.171 131.914 137.065 131.815C136.96 131.715 136.908 131.596 136.908 131.457C136.908 131.317 136.96 131.198 137.065 131.099C137.171 130.999 137.298 130.949 137.445 130.949C137.593 130.949 137.719 130.999 137.823 131.099C137.929 131.198 137.982 131.317 137.982 131.457C137.982 131.596 137.929 131.715 137.823 131.815C137.719 131.914 137.593 131.963 137.445 131.963ZM139.858 131.182V137H139.009V131.182H139.858ZM144.388 137.097C144.111 137.097 143.861 137.045 143.638 136.943C143.414 136.839 143.237 136.688 143.107 136.491C142.978 136.295 142.913 136.053 142.913 135.767C142.913 135.521 142.961 135.318 143.055 135.159C143.15 135 143.278 134.874 143.439 134.781C143.6 134.688 143.78 134.618 143.979 134.571C144.178 134.524 144.38 134.488 144.587 134.463C144.848 134.433 145.06 134.408 145.223 134.389C145.386 134.368 145.504 134.335 145.578 134.29C145.652 134.244 145.689 134.17 145.689 134.068V134.048C145.689 133.8 145.619 133.608 145.479 133.472C145.34 133.335 145.134 133.267 144.859 133.267C144.573 133.267 144.348 133.33 144.183 133.457C144.02 133.582 143.908 133.722 143.845 133.875L143.047 133.693C143.142 133.428 143.28 133.214 143.462 133.051C143.645 132.886 143.857 132.767 144.095 132.693C144.334 132.617 144.585 132.58 144.848 132.58C145.022 132.58 145.207 132.6 145.402 132.642C145.599 132.682 145.783 132.756 145.953 132.864C146.125 132.972 146.267 133.126 146.376 133.327C146.486 133.526 146.541 133.784 146.541 134.102V137H145.712V136.403H145.678C145.623 136.513 145.54 136.621 145.43 136.727C145.321 136.833 145.179 136.921 145.007 136.991C144.835 137.062 144.628 137.097 144.388 137.097ZM144.572 136.415C144.807 136.415 145.008 136.368 145.175 136.276C145.343 136.183 145.471 136.062 145.558 135.912C145.647 135.76 145.692 135.598 145.692 135.426V134.864C145.661 134.894 145.603 134.922 145.516 134.949C145.43 134.973 145.333 134.995 145.223 135.014C145.113 135.031 145.006 135.047 144.902 135.062C144.798 135.076 144.711 135.087 144.641 135.097C144.476 135.117 144.325 135.152 144.189 135.202C144.054 135.251 143.946 135.322 143.865 135.415C143.786 135.506 143.746 135.627 143.746 135.778C143.746 135.989 143.823 136.148 143.979 136.256C144.134 136.362 144.332 136.415 144.572 136.415ZM149.306 137.085C148.954 137.085 148.639 136.995 148.363 136.815C148.088 136.634 147.872 136.375 147.715 136.04C147.56 135.703 147.482 135.298 147.482 134.827C147.482 134.355 147.561 133.952 147.718 133.616C147.877 133.281 148.095 133.025 148.371 132.847C148.648 132.669 148.961 132.58 149.312 132.58C149.583 132.58 149.8 132.625 149.965 132.716C150.132 132.805 150.261 132.909 150.352 133.028C150.444 133.148 150.516 133.253 150.567 133.344H150.619V131.182H151.468V137H150.638V136.321H150.567C150.516 136.414 150.442 136.52 150.346 136.639C150.251 136.759 150.121 136.863 149.954 136.952C149.787 137.041 149.571 137.085 149.306 137.085ZM149.494 136.361C149.738 136.361 149.944 136.296 150.113 136.168C150.283 136.037 150.412 135.856 150.499 135.625C150.588 135.394 150.633 135.125 150.633 134.818C150.633 134.515 150.589 134.25 150.502 134.023C150.415 133.795 150.287 133.618 150.119 133.491C149.95 133.365 149.742 133.301 149.494 133.301C149.238 133.301 149.025 133.367 148.854 133.5C148.684 133.633 148.555 133.813 148.468 134.043C148.383 134.272 148.34 134.53 148.34 134.818C148.34 135.11 148.384 135.372 148.471 135.605C148.558 135.838 148.687 136.023 148.857 136.159C149.03 136.294 149.242 136.361 149.494 136.361ZM154.314 137.085C153.962 137.085 153.647 136.995 153.371 136.815C153.096 136.634 152.88 136.375 152.723 136.04C152.568 135.703 152.49 135.298 152.49 134.827C152.49 134.355 152.569 133.952 152.726 133.616C152.885 133.281 153.103 133.025 153.379 132.847C153.656 132.669 153.969 132.58 154.32 132.58C154.59 132.58 154.808 132.625 154.973 132.716C155.14 132.805 155.268 132.909 155.359 133.028C155.452 133.148 155.524 133.253 155.575 133.344H155.626V131.182H156.476V137H155.646V136.321H155.575C155.524 136.414 155.45 136.52 155.354 136.639C155.259 136.759 155.128 136.863 154.962 136.952C154.795 137.041 154.579 137.085 154.314 137.085ZM154.501 136.361C154.746 136.361 154.952 136.296 155.121 136.168C155.291 136.037 155.42 135.856 155.507 135.625C155.596 135.394 155.641 135.125 155.641 134.818C155.641 134.515 155.597 134.25 155.51 134.023C155.423 133.795 155.295 133.618 155.126 133.491C154.958 133.365 154.75 133.301 154.501 133.301C154.246 133.301 154.033 133.367 153.862 133.5C153.692 133.633 153.563 133.813 153.476 134.043C153.391 134.272 153.348 134.53 153.348 134.818C153.348 135.11 153.392 135.372 153.479 135.605C153.566 135.838 153.695 136.023 153.865 136.159C154.037 136.294 154.25 136.361 154.501 136.361ZM157.688 137V132.636H158.509V133.33H158.555C158.634 133.095 158.774 132.91 158.975 132.776C159.178 132.639 159.407 132.571 159.663 132.571C159.716 132.571 159.778 132.573 159.85 132.577C159.924 132.58 159.982 132.585 160.023 132.591V133.403C159.989 133.394 159.929 133.384 159.842 133.372C159.754 133.359 159.667 133.352 159.58 133.352C159.379 133.352 159.201 133.395 159.043 133.48C158.888 133.563 158.765 133.68 158.674 133.83C158.583 133.977 158.538 134.146 158.538 134.335V137H157.688ZM162.483 137.088C162.053 137.088 161.683 136.996 161.372 136.812C161.063 136.627 160.825 136.366 160.656 136.031C160.49 135.694 160.406 135.299 160.406 134.847C160.406 134.4 160.49 134.006 160.656 133.665C160.825 133.324 161.06 133.058 161.361 132.866C161.664 132.675 162.018 132.58 162.423 132.58C162.67 132.58 162.908 132.62 163.139 132.702C163.37 132.783 163.578 132.911 163.761 133.085C163.945 133.259 164.09 133.486 164.196 133.764C164.302 134.041 164.355 134.377 164.355 134.773V135.074H160.886V134.438H163.523C163.523 134.214 163.477 134.016 163.386 133.844C163.295 133.67 163.168 133.532 163.003 133.432C162.84 133.331 162.649 133.281 162.429 133.281C162.19 133.281 161.982 133.34 161.804 133.457C161.628 133.573 161.491 133.724 161.395 133.912C161.3 134.098 161.253 134.299 161.253 134.517V135.014C161.253 135.306 161.304 135.554 161.406 135.759C161.51 135.963 161.655 136.119 161.841 136.227C162.027 136.333 162.243 136.386 162.491 136.386C162.652 136.386 162.799 136.364 162.932 136.318C163.064 136.271 163.179 136.201 163.276 136.108C163.372 136.015 163.446 135.901 163.497 135.764L164.301 135.909C164.237 136.146 164.121 136.353 163.955 136.531C163.79 136.707 163.582 136.845 163.332 136.943C163.084 137.04 162.801 137.088 162.483 137.088ZM168.567 133.702L167.798 133.838C167.765 133.74 167.714 133.646 167.644 133.557C167.576 133.468 167.483 133.395 167.366 133.338C167.248 133.281 167.102 133.253 166.925 133.253C166.685 133.253 166.484 133.307 166.323 133.415C166.162 133.521 166.082 133.658 166.082 133.827C166.082 133.973 166.136 134.09 166.244 134.179C166.352 134.268 166.526 134.341 166.766 134.398L167.46 134.557C167.861 134.65 168.16 134.793 168.357 134.986C168.554 135.179 168.653 135.43 168.653 135.739C168.653 136 168.577 136.233 168.425 136.438C168.276 136.64 168.067 136.799 167.798 136.915C167.531 137.03 167.221 137.088 166.869 137.088C166.38 137.088 165.981 136.984 165.673 136.776C165.364 136.565 165.174 136.267 165.104 135.881L165.925 135.756C165.977 135.97 166.082 136.132 166.241 136.241C166.4 136.349 166.607 136.403 166.863 136.403C167.141 136.403 167.364 136.346 167.531 136.23C167.697 136.113 167.781 135.97 167.781 135.801C167.781 135.665 167.729 135.55 167.627 135.457C167.527 135.365 167.372 135.295 167.164 135.247L166.425 135.085C166.018 134.992 165.717 134.845 165.522 134.642C165.329 134.439 165.232 134.183 165.232 133.872C165.232 133.615 165.304 133.389 165.448 133.196C165.592 133.003 165.791 132.852 166.045 132.744C166.299 132.634 166.589 132.58 166.917 132.58C167.388 132.58 167.76 132.682 168.031 132.886C168.301 133.089 168.48 133.361 168.567 133.702ZM172.857 133.702L172.087 133.838C172.054 133.74 172.003 133.646 171.933 133.557C171.865 133.468 171.772 133.395 171.655 133.338C171.537 133.281 171.391 133.253 171.214 133.253C170.974 133.253 170.773 133.307 170.612 133.415C170.451 133.521 170.371 133.658 170.371 133.827C170.371 133.973 170.425 134.09 170.533 134.179C170.641 134.268 170.815 134.341 171.055 134.398L171.749 134.557C172.15 134.65 172.449 134.793 172.646 134.986C172.843 135.179 172.942 135.43 172.942 135.739C172.942 136 172.866 136.233 172.714 136.438C172.565 136.64 172.356 136.799 172.087 136.915C171.82 137.03 171.51 137.088 171.158 137.088C170.669 137.088 170.27 136.984 169.962 136.776C169.653 136.565 169.464 136.267 169.393 135.881L170.214 135.756C170.266 135.97 170.371 136.132 170.53 136.241C170.689 136.349 170.896 136.403 171.152 136.403C171.43 136.403 171.653 136.346 171.82 136.23C171.986 136.113 172.07 135.97 172.07 135.801C172.07 135.665 172.018 135.55 171.916 135.457C171.816 135.365 171.661 135.295 171.453 135.247L170.714 135.085C170.307 134.992 170.006 134.845 169.811 134.642C169.618 134.439 169.521 134.183 169.521 133.872C169.521 133.615 169.593 133.389 169.737 133.196C169.881 133.003 170.08 132.852 170.334 132.744C170.588 132.634 170.878 132.58 171.206 132.58C171.678 132.58 172.049 132.682 172.32 132.886C172.59 133.089 172.769 133.361 172.857 133.702Z" fill="white" fill-opacity="0.5"/>
<path d="M122.523 163H120.639V157.182H122.582C123.152 157.182 123.642 157.298 124.051 157.531C124.46 157.762 124.774 158.095 124.991 158.528C125.211 158.96 125.321 159.478 125.321 160.082C125.321 160.688 125.21 161.209 124.989 161.645C124.769 162.08 124.451 162.416 124.034 162.651C123.617 162.884 123.114 163 122.523 163ZM121.517 162.233H122.474C122.918 162.233 123.286 162.15 123.58 161.983C123.873 161.814 124.093 161.571 124.239 161.253C124.384 160.933 124.457 160.543 124.457 160.082C124.457 159.626 124.384 159.239 124.239 158.92C124.095 158.602 123.88 158.361 123.594 158.196C123.308 158.031 122.953 157.949 122.528 157.949H121.517V162.233ZM128.225 163.088C127.795 163.088 127.425 162.996 127.114 162.812C126.806 162.627 126.567 162.366 126.398 162.031C126.232 161.694 126.148 161.299 126.148 160.847C126.148 160.4 126.232 160.006 126.398 159.665C126.567 159.324 126.802 159.058 127.103 158.866C127.406 158.675 127.76 158.58 128.165 158.58C128.412 158.58 128.65 158.62 128.881 158.702C129.112 158.783 129.32 158.911 129.504 159.085C129.687 159.259 129.832 159.486 129.938 159.764C130.044 160.041 130.097 160.377 130.097 160.773V161.074H126.629V160.438H129.265C129.265 160.214 129.219 160.016 129.129 159.844C129.038 159.67 128.91 159.532 128.745 159.432C128.582 159.331 128.391 159.281 128.171 159.281C127.933 159.281 127.724 159.34 127.546 159.457C127.37 159.573 127.234 159.724 127.137 159.912C127.042 160.098 126.995 160.299 126.995 160.517V161.014C126.995 161.306 127.046 161.554 127.148 161.759C127.253 161.963 127.397 162.119 127.583 162.227C127.769 162.333 127.986 162.386 128.234 162.386C128.395 162.386 128.541 162.364 128.674 162.318C128.807 162.271 128.921 162.201 129.018 162.108C129.114 162.015 129.188 161.901 129.239 161.764L130.043 161.909C129.979 162.146 129.863 162.353 129.697 162.531C129.532 162.707 129.325 162.845 129.075 162.943C128.826 163.04 128.543 163.088 128.225 163.088ZM134.31 159.702L133.54 159.838C133.508 159.74 133.456 159.646 133.386 159.557C133.318 159.468 133.225 159.395 133.108 159.338C132.991 159.281 132.844 159.253 132.668 159.253C132.427 159.253 132.226 159.307 132.065 159.415C131.904 159.521 131.824 159.658 131.824 159.827C131.824 159.973 131.878 160.09 131.986 160.179C132.094 160.268 132.268 160.341 132.509 160.398L133.202 160.557C133.603 160.65 133.902 160.793 134.099 160.986C134.296 161.179 134.395 161.43 134.395 161.739C134.395 162 134.319 162.233 134.168 162.438C134.018 162.64 133.809 162.799 133.54 162.915C133.273 163.03 132.963 163.088 132.611 163.088C132.122 163.088 131.723 162.984 131.415 162.776C131.106 162.565 130.917 162.267 130.847 161.881L131.668 161.756C131.719 161.97 131.824 162.132 131.983 162.241C132.142 162.349 132.349 162.403 132.605 162.403C132.884 162.403 133.106 162.346 133.273 162.23C133.439 162.113 133.523 161.97 133.523 161.801C133.523 161.665 133.472 161.55 133.369 161.457C133.269 161.365 133.115 161.295 132.906 161.247L132.168 161.085C131.76 160.992 131.459 160.845 131.264 160.642C131.071 160.439 130.974 160.183 130.974 159.872C130.974 159.615 131.046 159.389 131.19 159.196C131.334 159.003 131.533 158.852 131.787 158.744C132.041 158.634 132.331 158.58 132.659 158.58C133.131 158.58 133.502 158.682 133.773 158.886C134.044 159.089 134.223 159.361 134.31 159.702ZM137.167 163.088C136.745 163.088 136.381 162.992 136.076 162.801C135.773 162.608 135.54 162.342 135.377 162.003C135.214 161.664 135.133 161.276 135.133 160.838C135.133 160.395 135.216 160.004 135.383 159.665C135.549 159.324 135.784 159.058 136.087 158.866C136.39 158.675 136.747 158.58 137.158 158.58C137.49 158.58 137.785 158.641 138.045 158.764C138.304 158.885 138.513 159.056 138.673 159.276C138.834 159.495 138.929 159.752 138.96 160.045H138.133C138.087 159.841 137.983 159.665 137.82 159.517C137.659 159.369 137.443 159.295 137.173 159.295C136.936 159.295 136.728 159.358 136.55 159.483C136.374 159.606 136.237 159.782 136.138 160.011C136.04 160.239 135.991 160.508 135.991 160.818C135.991 161.136 136.039 161.411 136.136 161.642C136.232 161.873 136.369 162.052 136.545 162.179C136.723 162.306 136.932 162.369 137.173 162.369C137.334 162.369 137.479 162.34 137.61 162.281C137.743 162.221 137.853 162.134 137.942 162.023C138.033 161.911 138.097 161.777 138.133 161.619H138.96C138.929 161.902 138.837 162.153 138.684 162.375C138.531 162.597 138.325 162.771 138.067 162.898C137.812 163.025 137.512 163.088 137.167 163.088ZM139.868 163V158.636H140.689V159.33H140.734C140.814 159.095 140.954 158.91 141.155 158.776C141.357 158.639 141.587 158.571 141.842 158.571C141.895 158.571 141.958 158.573 142.03 158.577C142.104 158.58 142.161 158.585 142.203 158.591V159.403C142.169 159.394 142.108 159.384 142.021 159.372C141.934 159.359 141.847 159.352 141.76 159.352C141.559 159.352 141.38 159.395 141.223 159.48C141.068 159.563 140.945 159.68 140.854 159.83C140.763 159.977 140.717 160.146 140.717 160.335V163H139.868ZM142.938 163V158.636H143.788V163H142.938ZM143.367 157.963C143.219 157.963 143.093 157.914 142.987 157.815C142.882 157.715 142.83 157.596 142.83 157.457C142.83 157.317 142.882 157.198 142.987 157.099C143.093 156.999 143.219 156.949 143.367 156.949C143.515 156.949 143.641 156.999 143.745 157.099C143.851 157.198 143.904 157.317 143.904 157.457C143.904 157.596 143.851 157.715 143.745 157.815C143.641 157.914 143.515 157.963 143.367 157.963ZM144.93 164.636V158.636H145.76V159.344H145.831C145.88 159.253 145.951 159.148 146.044 159.028C146.137 158.909 146.266 158.805 146.43 158.716C146.595 158.625 146.813 158.58 147.084 158.58C147.436 158.58 147.75 158.669 148.027 158.847C148.304 159.025 148.52 159.281 148.678 159.616C148.837 159.952 148.916 160.355 148.916 160.827C148.916 161.298 148.838 161.703 148.68 162.04C148.523 162.375 148.307 162.634 148.033 162.815C147.758 162.995 147.445 163.085 147.092 163.085C146.827 163.085 146.61 163.041 146.442 162.952C146.275 162.863 146.144 162.759 146.05 162.639C145.955 162.52 145.882 162.414 145.831 162.321H145.78V164.636H144.93ZM145.763 160.818C145.763 161.125 145.807 161.394 145.896 161.625C145.985 161.856 146.114 162.037 146.283 162.168C146.451 162.296 146.658 162.361 146.902 162.361C147.156 162.361 147.368 162.294 147.538 162.159C147.709 162.023 147.838 161.838 147.925 161.605C148.014 161.372 148.058 161.11 148.058 160.818C148.058 160.53 148.015 160.272 147.928 160.043C147.842 159.813 147.714 159.633 147.541 159.5C147.371 159.367 147.158 159.301 146.902 159.301C146.656 159.301 146.447 159.365 146.277 159.491C146.108 159.618 145.981 159.795 145.893 160.023C145.806 160.25 145.763 160.515 145.763 160.818ZM151.905 158.636V159.318H149.521V158.636H151.905ZM150.161 157.591H151.01V161.719C151.01 161.884 151.035 162.008 151.084 162.091C151.133 162.172 151.196 162.228 151.274 162.259C151.354 162.287 151.44 162.301 151.533 162.301C151.601 162.301 151.661 162.296 151.712 162.287C151.763 162.277 151.803 162.27 151.831 162.264L151.984 162.966C151.935 162.985 151.865 163.004 151.774 163.023C151.683 163.044 151.57 163.055 151.433 163.057C151.21 163.061 151.001 163.021 150.808 162.938C150.615 162.854 150.459 162.725 150.339 162.551C150.22 162.377 150.161 162.158 150.161 161.895V157.591ZM152.844 163V158.636H153.694V163H152.844ZM153.273 157.963C153.126 157.963 152.999 157.914 152.893 157.815C152.789 157.715 152.737 157.596 152.737 157.457C152.737 157.317 152.789 157.198 152.893 157.099C152.999 156.999 153.126 156.949 153.273 156.949C153.421 156.949 153.547 156.999 153.651 157.099C153.757 157.198 153.81 157.317 153.81 157.457C153.81 157.596 153.757 157.715 153.651 157.815C153.547 157.914 153.421 157.963 153.273 157.963ZM156.675 163.088C156.266 163.088 155.909 162.994 155.604 162.807C155.299 162.619 155.062 162.357 154.893 162.02C154.725 161.683 154.641 161.289 154.641 160.838C154.641 160.385 154.725 159.99 154.893 159.651C155.062 159.312 155.299 159.048 155.604 158.861C155.909 158.673 156.266 158.58 156.675 158.58C157.084 158.58 157.441 158.673 157.746 158.861C158.051 159.048 158.287 159.312 158.456 159.651C158.625 159.99 158.709 160.385 158.709 160.838C158.709 161.289 158.625 161.683 158.456 162.02C158.287 162.357 158.051 162.619 157.746 162.807C157.441 162.994 157.084 163.088 156.675 163.088ZM156.678 162.375C156.943 162.375 157.162 162.305 157.337 162.165C157.511 162.025 157.64 161.838 157.723 161.605C157.808 161.372 157.851 161.116 157.851 160.835C157.851 160.557 157.808 160.301 157.723 160.068C157.64 159.833 157.511 159.645 157.337 159.503C157.162 159.361 156.943 159.29 156.678 159.29C156.411 159.29 156.189 159.361 156.013 159.503C155.839 159.645 155.709 159.833 155.624 160.068C155.54 160.301 155.499 160.557 155.499 160.835C155.499 161.116 155.54 161.372 155.624 161.605C155.709 161.838 155.839 162.025 156.013 162.165C156.189 162.305 156.411 162.375 156.678 162.375ZM160.506 160.409V163H159.657V158.636H160.472V159.347H160.526C160.627 159.116 160.784 158.93 160.998 158.79C161.214 158.65 161.486 158.58 161.813 158.58C162.111 158.58 162.371 158.642 162.594 158.767C162.818 158.89 162.991 159.074 163.114 159.318C163.237 159.562 163.299 159.865 163.299 160.224V163H162.45V160.327C162.45 160.01 162.367 159.763 162.202 159.585C162.038 159.405 161.811 159.315 161.523 159.315C161.326 159.315 161.151 159.358 160.998 159.443C160.846 159.528 160.726 159.653 160.637 159.818C160.55 159.981 160.506 160.178 160.506 160.409Z" fill="white"/>
<path d="M227.96 157.481C228.003 157.438 228.054 157.403 228.11 157.38C228.166 157.356 228.226 157.344 228.287 157.344C228.348 157.344 228.409 157.356 228.465 157.38C228.521 157.403 228.572 157.438 228.615 157.481C228.793 157.662 228.796 157.954 228.621 158.137L224.925 162.506C224.883 162.552 224.832 162.589 224.776 162.615C224.719 162.641 224.657 162.655 224.595 162.656C224.533 162.657 224.471 162.645 224.413 162.622C224.355 162.598 224.303 162.563 224.26 162.519L222.011 160.24C221.924 160.152 221.875 160.033 221.875 159.909C221.875 159.785 221.924 159.666 222.011 159.577C222.053 159.534 222.104 159.499 222.161 159.476C222.217 159.452 222.277 159.44 222.338 159.44C222.399 159.44 222.459 159.452 222.515 159.476C222.572 159.499 222.623 159.534 222.665 159.577L224.573 161.511L227.948 157.495C227.952 157.49 227.956 157.486 227.96 157.481Z" fill="white"/>
<path d="M124.381 183.182H125.261V187.009C125.261 187.416 125.166 187.777 124.974 188.091C124.783 188.403 124.514 188.65 124.168 188.83C123.821 189.008 123.415 189.097 122.949 189.097C122.485 189.097 122.08 189.008 121.733 188.83C121.386 188.65 121.117 188.403 120.926 188.091C120.735 187.777 120.639 187.416 120.639 187.009V183.182H121.517V186.938C121.517 187.201 121.575 187.435 121.69 187.639C121.808 187.844 121.973 188.005 122.188 188.122C122.402 188.238 122.655 188.295 122.949 188.295C123.244 188.295 123.499 188.238 123.713 188.122C123.929 188.005 124.094 187.844 124.207 187.639C124.323 187.435 124.381 187.201 124.381 186.938V183.182ZM129.739 185.702L128.969 185.838C128.937 185.74 128.886 185.646 128.816 185.557C128.748 185.468 128.655 185.395 128.538 185.338C128.42 185.281 128.273 185.253 128.097 185.253C127.857 185.253 127.656 185.307 127.495 185.415C127.334 185.521 127.254 185.658 127.254 185.827C127.254 185.973 127.308 186.09 127.415 186.179C127.523 186.268 127.698 186.341 127.938 186.398L128.631 186.557C129.033 186.65 129.332 186.793 129.529 186.986C129.726 187.179 129.825 187.43 129.825 187.739C129.825 188 129.749 188.233 129.597 188.438C129.448 188.64 129.238 188.799 128.969 188.915C128.702 189.03 128.393 189.088 128.04 189.088C127.552 189.088 127.153 188.984 126.844 188.776C126.536 188.565 126.346 188.267 126.276 187.881L127.097 187.756C127.148 187.97 127.254 188.132 127.413 188.241C127.572 188.349 127.779 188.403 128.035 188.403C128.313 188.403 128.536 188.346 128.702 188.23C128.869 188.113 128.952 187.97 128.952 187.801C128.952 187.665 128.901 187.55 128.799 187.457C128.699 187.365 128.544 187.295 128.336 187.247L127.597 187.085C127.19 186.992 126.889 186.845 126.694 186.642C126.501 186.439 126.404 186.183 126.404 185.872C126.404 185.615 126.476 185.389 126.62 185.196C126.764 185.003 126.963 184.852 127.217 184.744C127.47 184.634 127.761 184.58 128.089 184.58C128.56 184.58 128.932 184.682 129.202 184.886C129.473 185.089 129.652 185.361 129.739 185.702ZM132.639 189.088C132.209 189.088 131.839 188.996 131.528 188.812C131.22 188.627 130.981 188.366 130.812 188.031C130.646 187.694 130.562 187.299 130.562 186.847C130.562 186.4 130.646 186.006 130.812 185.665C130.981 185.324 131.216 185.058 131.517 184.866C131.82 184.675 132.174 184.58 132.58 184.58C132.826 184.58 133.064 184.62 133.295 184.702C133.527 184.783 133.734 184.911 133.918 185.085C134.101 185.259 134.246 185.486 134.352 185.764C134.458 186.041 134.511 186.377 134.511 186.773V187.074H131.043V186.438H133.679C133.679 186.214 133.634 186.016 133.543 185.844C133.452 185.67 133.324 185.532 133.159 185.432C132.996 185.331 132.805 185.281 132.585 185.281C132.347 185.281 132.138 185.34 131.96 185.457C131.784 185.573 131.648 185.724 131.551 185.912C131.456 186.098 131.409 186.299 131.409 186.517V187.014C131.409 187.306 131.46 187.554 131.562 187.759C131.667 187.963 131.812 188.119 131.997 188.227C132.183 188.333 132.4 188.386 132.648 188.386C132.809 188.386 132.955 188.364 133.088 188.318C133.221 188.271 133.335 188.201 133.432 188.108C133.528 188.015 133.602 187.901 133.653 187.764L134.457 187.909C134.393 188.146 134.277 188.353 134.111 188.531C133.946 188.707 133.739 188.845 133.489 188.943C133.241 189.04 132.957 189.088 132.639 189.088ZM135.454 189V184.636H136.275V185.33H136.32C136.4 185.095 136.54 184.91 136.741 184.776C136.943 184.639 137.173 184.571 137.428 184.571C137.481 184.571 137.544 184.573 137.616 184.577C137.69 184.58 137.747 184.585 137.789 184.591V185.403C137.755 185.394 137.694 185.384 137.607 185.372C137.52 185.359 137.433 185.352 137.346 185.352C137.145 185.352 136.966 185.395 136.809 185.48C136.654 185.563 136.531 185.68 136.44 185.83C136.349 185.977 136.303 186.146 136.303 186.335V189H135.454ZM141.587 183.182V189H140.71V183.182H141.587ZM144.749 189H142.866V183.182H144.809C145.379 183.182 145.869 183.298 146.278 183.531C146.687 183.762 147 184.095 147.218 184.528C147.438 184.96 147.548 185.478 147.548 186.082C147.548 186.688 147.437 187.209 147.215 187.645C146.996 188.08 146.677 188.416 146.261 188.651C145.844 188.884 145.34 189 144.749 189ZM143.744 188.233H144.701C145.144 188.233 145.513 188.15 145.806 187.983C146.1 187.814 146.319 187.571 146.465 187.253C146.611 186.933 146.684 186.543 146.684 186.082C146.684 185.626 146.611 185.239 146.465 184.92C146.321 184.602 146.106 184.361 145.82 184.196C145.534 184.031 145.179 183.949 144.755 183.949H143.744V188.233Z" fill="white" fill-opacity="0.5"/>
<path d="M110.5 97C110.5 95.067 112.067 93.5 114 93.5H236C237.933 93.5 239.5 95.067 239.5 97V197C239.5 198.933 237.933 200.5 236 200.5H114C112.067 200.5 110.5 198.933 110.5 197V97Z" stroke="white" stroke-opacity="0.2" shape-rendering="crispEdges"/>
</g>
<defs>
<filter id="filter0_d_138_24" x="98" y="43" width="154" height="58" filterUnits="userSpaceOnUse" color-interpolation-filters="sRGB">
<feFlood flood-opacity="0" result="BackgroundImageFix"/>
<feColorMatrix in="SourceAlpha" type="matrix" values="0 0 0 0 0 0 0 0 0 0 0 0 0 0 0 0 0 0 127 0" result="hardAlpha"/>
<feOffset dy="6"/>
<feGaussianBlur stdDeviation="6"/>
<feComposite in2="hardAlpha" operator="out"/>
<feColorMatrix type="matrix" values="0 0 0 0 0 0 0 0 0 0 0 0 0 0 0 0 0 0 0.03 0"/>
<feBlend mode="normal" in2="BackgroundImageFix" result="effect1_dropShadow_138_24"/>
<feBlend mode="normal" in="SourceGraphic" in2="effect1_dropShadow_138_24" result="shape"/>
</filter>
<filter id="filter1_d_138_24" x="98" y="87" width="154" height="132" filterUnits="userSpaceOnUse" color-interpolation-filters="sRGB">
<feFlood flood-opacity="0" result="BackgroundImageFix"/>
<feColorMatrix in="SourceAlpha" type="matrix" values="0 0 0 0 0 0 0 0 0 0 0 0 0 0 0 0 0 0 127 0" result="hardAlpha"/>
<feOffset dy="6"/>
<feGaussianBlur stdDeviation="6"/>
<feComposite in2="hardAlpha" operator="out"/>
<feColorMatrix type="matrix" values="0 0 0 0 0 0 0 0 0 0 0 0 0 0 0 0 0 0 0.03 0"/>
<feBlend mode="normal" in2="BackgroundImageFix" result="effect1_dropShadow_138_24"/>
<feBlend mode="normal" in="SourceGraphic" in2="effect1_dropShadow_138_24" result="shape"/>
</filter>
<linearGradient id="paint0_linear_138_24" x1="105.5" y1="9.49171e-06" x2="350" y2="250" gradientUnits="userSpaceOnUse">
<stop offset="0%" stop-color="#6366F1"/>
<stop offset="1" stop-color="#0EA5E9"/>
</linearGradient>
</defs>
</svg>
