<svg width="350" height="250" viewBox="0 0 350 250" fill="none" xmlns="http://www.w3.org/2000/svg">
<rect width="350" height="250" fill="url(#paint0_linear_951_15839)"/>
<rect x="48" y="118" width="16" height="16" rx="8" fill="white" fill-opacity="0.3"/>
<path fill-rule="evenodd" clip-rule="evenodd" d="M57.9161 123.068C57.8895 123.046 57.858 123.029 57.8233 123.018C57.7886 123.006 57.7514 123 57.7138 123C57.6763 123 57.6391 123.006 57.6044 123.018C57.5697 123.029 57.5381 123.046 57.5116 123.068L54.0839 125.837C54.0573 125.858 54.0362 125.884 54.0218 125.912C54.0074 125.94 54 125.97 54 126C54 126.03 54.0074 126.06 54.0218 126.088C54.0362 126.117 54.0573 126.142 54.0839 126.163L57.5116 128.932C57.5652 128.976 57.638 129 57.7138 129C57.7897 129 57.8624 128.976 57.9161 128.932C57.9697 128.889 57.9999 128.83 57.9999 128.769C57.9999 128.708 57.9697 128.649 57.9161 128.606L54.69 126L57.9161 123.395C57.9427 123.373 57.9638 123.348 57.9782 123.32C57.9926 123.292 58 123.262 58 123.231C58 123.201 57.9926 123.171 57.9782 123.143C57.9638 123.115 57.9427 123.089 57.9161 123.068Z" fill="white"/>
<rect x="286" y="118" width="16" height="16" rx="8" fill="white" fill-opacity="0.3"/>
<path fill-rule="evenodd" clip-rule="evenodd" d="M292.084 123.068C292.11 123.046 292.142 123.029 292.177 123.018C292.211 123.006 292.249 123 292.286 123C292.324 123 292.361 123.006 292.396 123.018C292.43 123.029 292.462 123.046 292.488 123.068L295.916 125.837C295.943 125.858 295.964 125.884 295.978 125.912C295.993 125.94 296 125.97 296 126C296 126.03 295.993 126.06 295.978 126.088C295.964 126.117 295.943 126.142 295.916 126.163L292.488 128.932C292.435 128.976 292.362 129 292.286 129C292.21 129 292.138 128.976 292.084 128.932C292.03 128.889 292 128.83 292 128.769C292 128.708 292.03 128.649 292.084 128.606L295.31 126L292.084 123.395C292.057 123.373 292.036 123.348 292.022 123.32C292.007 123.292 292 123.262 292 123.231C292 123.201 292.007 123.171 292.022 123.143C292.036 123.115 292.057 123.089 292.084 123.068Z" fill="white"/>
<rect x="48.5" y="82.5" width="77" height="68" rx="5.5" stroke="url(#paint1_linear_951_15839)"/>
<rect x="68.75" y="102.75" width="36.5" height="19.5" rx="2.25" stroke="white" stroke-opacity="0.3" stroke-width="1.5"/>
<path d="M92.9315 116.127L89.8111 112.111C89.7351 112.004 89.6151 111.938 89.4831 111.938H89.307C89.175 111.942 89.051 112.004 88.975 112.111L87.9749 113.404L85.9026 110.422C85.8226 110.307 85.6906 110.241 85.5546 110.249H85.3865C85.2545 110.249 85.1305 110.315 85.0545 110.422L81.066 116.127C80.978 116.267 80.978 116.444 81.066 116.584L81.182 116.786C81.254 116.918 81.39 117 81.5381 117H92.4674C92.6154 117 92.7515 116.918 92.8235 116.786L92.9395 116.584C93.0195 116.444 93.0235 116.267 92.9315 116.127ZM82.5902 115.876L85.4746 111.752L86.7187 115.876H82.5902ZM90.2792 110.249C90.8832 110.249 91.3713 109.746 91.3713 109.124C91.3713 108.503 90.8832 108 90.2792 108C89.6751 108 89.187 108.503 89.187 109.124C89.187 109.746 89.6751 110.249 90.2792 110.249Z" fill="white" fill-opacity="0.3"/>
<path d="M68 129.5C68 128.672 68.6716 128 69.5 128H94.5C95.3284 128 96 128.672 96 129.5C96 130.328 95.3284 131 94.5 131H69.5C68.6716 131 68 130.328 68 129.5Z" fill="white" fill-opacity="0.3"/>
<rect x="136.5" y="82.5" width="77" height="68" rx="5.5" fill="white" fill-opacity="0.1"/>
<rect x="136.5" y="82.5" width="77" height="68" rx="5.5" stroke="white"/>
<rect x="156.75" y="102.75" width="36.5" height="19.5" rx="2.25" stroke="white" stroke-width="1.5"/>
<path d="M180.931 116.127L177.811 112.111C177.735 112.004 177.615 111.938 177.483 111.938H177.307C177.175 111.942 177.051 112.004 176.975 112.111L175.975 113.404L173.903 110.422C173.823 110.307 173.691 110.241 173.555 110.249H173.387C173.255 110.249 173.131 110.315 173.055 110.422L169.066 116.127C168.978 116.267 168.978 116.444 169.066 116.584L169.182 116.786C169.254 116.918 169.39 117 169.538 117H180.467C180.615 117 180.751 116.918 180.823 116.786L180.939 116.584C181.019 116.444 181.023 116.267 180.931 116.127ZM170.59 115.876L173.475 111.752L174.719 115.876H170.59ZM178.279 110.249C178.883 110.249 179.371 109.746 179.371 109.124C179.371 108.503 178.883 108 178.279 108C177.675 108 177.187 108.503 177.187 109.124C177.187 109.746 177.675 110.249 178.279 110.249Z" fill="white"/>
<path d="M156 129.5C156 128.672 156.672 128 157.5 128H182.5C183.328 128 184 128.672 184 129.5C184 130.328 183.328 131 182.5 131H157.5C156.672 131 156 130.328 156 129.5Z" fill="white"/>
<rect x="224.5" y="82.5" width="77" height="68" rx="5.5" stroke="url(#paint2_linear_951_15839)"/>
<rect x="244.75" y="102.75" width="36.5" height="19.5" rx="2.25" stroke="white" stroke-opacity="0.3" stroke-width="1.5"/>
<path d="M268.931 116.127L265.811 112.111C265.735 112.004 265.615 111.938 265.483 111.938H265.307C265.175 111.942 265.051 112.004 264.975 112.111L263.975 113.404L261.903 110.422C261.823 110.307 261.691 110.241 261.555 110.249H261.387C261.255 110.249 261.131 110.315 261.055 110.422L257.066 116.127C256.978 116.267 256.978 116.444 257.066 116.584L257.182 116.786C257.254 116.918 257.39 117 257.538 117H268.467C268.615 117 268.751 116.918 268.823 116.786L268.939 116.584C269.019 116.444 269.023 116.267 268.931 116.127ZM258.59 115.876L261.475 111.752L262.719 115.876H258.59ZM266.279 110.249C266.883 110.249 267.371 109.746 267.371 109.124C267.371 108.503 266.883 108 266.279 108C265.675 108 265.187 108.503 265.187 109.124C265.187 109.746 265.675 110.249 266.279 110.249Z" fill="white" fill-opacity="0.3"/>
<path d="M244 129.5C244 128.672 244.672 128 245.5 128H270.5C271.328 128 272 128.672 272 129.5C272 130.328 271.328 131 270.5 131H245.5C244.672 131 244 130.328 244 129.5Z" fill="white" fill-opacity="0.3"/>
<rect x="140" y="166" width="20" height="3" rx="1.5" fill="white" fill-opacity="0.3"/>
<rect x="165" y="166" width="20" height="3" rx="1.5" fill="white"/>
<rect x="190" y="166" width="20" height="3" rx="1.5" fill="white" fill-opacity="0.3"/>
<defs>
<linearGradient id="paint0_linear_951_15839" x1="-36" y1="-30.5" x2="541" y2="271" gradientUnits="userSpaceOnUse">
<stop offset="0%" stop-color="#E879F9"/>
<stop offset="1" stop-color="#6D28D9"/>
</linearGradient>
<linearGradient id="paint1_linear_951_15839" x1="126.788" y1="116.497" x2="48" y2="116.497" gradientUnits="userSpaceOnUse">
<stop offset="0%" stop-color="white" stop-opacity="0.2"/>
<stop offset="1" stop-color="white" stop-opacity="0"/>
</linearGradient>
<linearGradient id="paint2_linear_951_15839" x1="302.788" y1="116.497" x2="224" y2="116.497" gradientUnits="userSpaceOnUse">
<stop offset="0%" stop-color="white" stop-opacity="0"/>
<stop offset="1" stop-color="white" stop-opacity="0.2"/>
</linearGradient>
</defs>
</svg>
