<svg width="350" height="250" viewBox="0 0 350 250" fill="none" xmlns="http://www.w3.org/2000/svg">
<rect width="350" height="250" fill="url(#paint0_linear_125_51)"/>
<path d="M111.435 87.7273L113.459 93.6506H113.54L115.565 87.7273H116.751L114.134 95H112.866L110.249 87.7273H111.435ZM117.716 95V89.5455H118.778V95H117.716ZM118.252 88.7038C118.067 88.7038 117.909 88.6423 117.776 88.5192C117.646 88.3937 117.581 88.2446 117.581 88.0717C117.581 87.8965 117.646 87.7474 117.776 87.6243C117.909 87.4988 118.067 87.4361 118.252 87.4361C118.437 87.4361 118.594 87.4988 118.724 87.6243C118.857 87.7474 118.923 87.8965 118.923 88.0717C118.923 88.2446 118.857 88.3937 118.724 88.5192C118.594 88.6423 118.437 88.7038 118.252 88.7038ZM122.557 95.1101C122.019 95.1101 121.557 94.9953 121.168 94.7656C120.782 94.5336 120.484 94.2081 120.273 93.7891C120.065 93.3677 119.961 92.8741 119.961 92.3082C119.961 91.7495 120.065 91.2571 120.273 90.831C120.484 90.4048 120.778 90.0722 121.154 89.8331C121.533 89.594 121.976 89.4744 122.482 89.4744C122.79 89.4744 123.088 89.5253 123.377 89.6271C123.666 89.7289 123.925 89.8887 124.155 90.1065C124.384 90.3243 124.566 90.6072 124.698 90.9553C124.831 91.3009 124.897 91.7211 124.897 92.2159V92.5923H120.561V91.7969H123.857C123.857 91.5175 123.8 91.2701 123.686 91.0547C123.572 90.8369 123.413 90.6652 123.207 90.5398C123.003 90.4143 122.764 90.3516 122.489 90.3516C122.191 90.3516 121.931 90.425 121.708 90.5717C121.488 90.7161 121.317 90.9055 121.197 91.1399C121.078 91.3719 121.019 91.6241 121.019 91.8963V92.5178C121.019 92.8823 121.083 93.1925 121.211 93.4482C121.341 93.7038 121.522 93.8991 121.754 94.0341C121.986 94.1667 122.257 94.233 122.567 94.233C122.769 94.233 122.952 94.2045 123.118 94.1477C123.284 94.0885 123.427 94.0009 123.548 93.8849C123.668 93.7689 123.761 93.6257 123.825 93.4553L124.83 93.6364C124.749 93.9323 124.605 94.1915 124.396 94.4141C124.19 94.6342 123.931 94.8059 123.619 94.929C123.308 95.0497 122.955 95.1101 122.557 95.1101ZM127.248 95L125.643 89.5455H126.74L127.809 93.5511H127.862L128.935 89.5455H130.032L131.097 93.5334H131.151L132.212 89.5455H133.31L131.708 95H130.625L129.517 91.0618H129.435L128.327 95H127.248ZM138.026 87.7273V95H136.964V87.7273H138.026ZM141.805 95.1101C141.267 95.1101 140.805 94.9953 140.416 94.7656C140.03 94.5336 139.732 94.2081 139.521 93.7891C139.313 93.3677 139.209 92.8741 139.209 92.3082C139.209 91.7495 139.313 91.2571 139.521 90.831C139.732 90.4048 140.026 90.0722 140.402 89.8331C140.781 89.594 141.224 89.4744 141.73 89.4744C142.038 89.4744 142.336 89.5253 142.625 89.6271C142.914 89.7289 143.173 89.8887 143.403 90.1065C143.633 90.3243 143.814 90.6072 143.946 90.9553C144.079 91.3009 144.145 91.7211 144.145 92.2159V92.5923H139.809V91.7969H143.105C143.105 91.5175 143.048 91.2701 142.934 91.0547C142.82 90.8369 142.661 90.6652 142.455 90.5398C142.251 90.4143 142.012 90.3516 141.737 90.3516C141.439 90.3516 141.179 90.425 140.956 90.5717C140.736 90.7161 140.566 90.9055 140.445 91.1399C140.326 91.3719 140.267 91.6241 140.267 91.8963V92.5178C140.267 92.8823 140.331 93.1925 140.459 93.4482C140.589 93.7038 140.77 93.8991 141.002 94.0341C141.234 94.1667 141.505 94.233 141.816 94.233C142.017 94.233 142.2 94.2045 142.366 94.1477C142.532 94.0885 142.675 94.0009 142.796 93.8849C142.916 93.7689 143.009 93.6257 143.073 93.4553L144.078 93.6364C143.997 93.9323 143.853 94.1915 143.644 94.4141C143.438 94.6342 143.179 94.8059 142.867 94.929C142.557 95.0497 142.203 95.1101 141.805 95.1101ZM149.411 90.8771L148.448 91.0476C148.408 90.9245 148.344 90.8073 148.256 90.696C148.171 90.5848 148.055 90.4936 147.908 90.4226C147.762 90.3516 147.578 90.3161 147.358 90.3161C147.057 90.3161 146.806 90.3835 146.605 90.5185C146.404 90.651 146.303 90.8227 146.303 91.0334C146.303 91.2157 146.371 91.3625 146.506 91.4737C146.641 91.585 146.858 91.6761 147.159 91.7472L148.026 91.946C148.527 92.062 148.902 92.2408 149.148 92.4822C149.394 92.7237 149.517 93.0374 149.517 93.4233C149.517 93.75 149.422 94.0412 149.233 94.2969C149.046 94.5502 148.784 94.7491 148.448 94.8935C148.114 95.0379 147.727 95.1101 147.287 95.1101C146.676 95.1101 146.178 94.9799 145.792 94.7195C145.406 94.4567 145.169 94.0838 145.082 93.6009L146.108 93.4446C146.172 93.7121 146.303 93.9145 146.502 94.0518C146.701 94.1868 146.96 94.2543 147.28 94.2543C147.628 94.2543 147.906 94.1821 148.114 94.0376C148.323 93.8909 148.427 93.7121 148.427 93.5014C148.427 93.331 148.363 93.1877 148.235 93.0717C148.11 92.9557 147.917 92.8681 147.656 92.8089L146.733 92.6065C146.224 92.4905 145.848 92.3059 145.604 92.0526C145.362 91.7992 145.241 91.4785 145.241 91.0902C145.241 90.7682 145.331 90.4865 145.511 90.245C145.691 90.0036 145.94 89.8153 146.257 89.6804C146.574 89.5431 146.938 89.4744 147.347 89.4744C147.937 89.4744 148.401 89.6023 148.739 89.858C149.078 90.1113 149.302 90.451 149.411 90.8771ZM154.772 90.8771L153.809 91.0476C153.769 90.9245 153.705 90.8073 153.618 90.696C153.532 90.5848 153.416 90.4936 153.27 90.4226C153.123 90.3516 152.939 90.3161 152.719 90.3161C152.419 90.3161 152.168 90.3835 151.966 90.5185C151.765 90.651 151.665 90.8227 151.665 91.0334C151.665 91.2157 151.732 91.3625 151.867 91.4737C152.002 91.585 152.22 91.6761 152.52 91.7472L153.387 91.946C153.889 92.062 154.263 92.2408 154.509 92.4822C154.755 92.7237 154.878 93.0374 154.878 93.4233C154.878 93.75 154.784 94.0412 154.594 94.2969C154.407 94.5502 154.146 94.7491 153.809 94.8935C153.476 95.0379 153.089 95.1101 152.648 95.1101C152.037 95.1101 151.539 94.9799 151.153 94.7195C150.767 94.4567 150.531 94.0838 150.443 93.6009L151.469 93.4446C151.533 93.7121 151.665 93.9145 151.863 94.0518C152.062 94.1868 152.322 94.2543 152.641 94.2543C152.989 94.2543 153.267 94.1821 153.476 94.0376C153.684 93.8909 153.788 93.7121 153.788 93.5014C153.788 93.331 153.724 93.1877 153.596 93.0717C153.471 92.9557 153.278 92.8681 153.018 92.8089L152.094 92.6065C151.585 92.4905 151.209 92.3059 150.965 92.0526C150.724 91.7992 150.603 91.4785 150.603 91.0902C150.603 90.7682 150.693 90.4865 150.873 90.245C151.053 90.0036 151.301 89.8153 151.618 89.6804C151.936 89.5431 152.299 89.4744 152.709 89.4744C153.298 89.4744 153.762 89.6023 154.101 89.858C154.439 90.1113 154.663 90.451 154.772 90.8771Z" fill="white"/>
<path d="M163 92.5L165.646 89.8536C165.842 89.6583 166.158 89.6583 166.354 89.8536L169 92.5" stroke="white" stroke-linecap="round"/>
<g filter="url(#filter0_d_125_51)">
<path d="M110 113C110 109.686 112.686 107 116 107H234C237.314 107 240 109.686 240 113V157C240 160.314 237.314 163 234 163H116C112.686 163 110 160.314 110 157V113Z" fill="white" fill-opacity="0.1" shape-rendering="crispEdges"/>
<path d="M125 123.5C125 122.672 125.672 122 126.5 122H151.5C152.328 122 153 122.672 153 123.5C153 124.328 152.328 125 151.5 125H126.5C125.672 125 125 124.328 125 123.5Z" fill="white"/>
<path d="M125 136.5C125 135.672 125.672 135 126.5 135H223.5C224.328 135 225 135.672 225 136.5C225 137.328 224.328 138 223.5 138H126.5C125.672 138 125 137.328 125 136.5Z" fill="white" fill-opacity="0.3"/>
<path d="M125 146.5C125 145.672 125.672 145 126.5 145H192.5C193.328 145 194 145.672 194 146.5C194 147.328 193.328 148 192.5 148H126.5C125.672 148 125 147.328 125 146.5Z" fill="white" fill-opacity="0.3"/>
<path d="M116 106.5C112.41 106.5 109.5 109.41 109.5 113V157C109.5 160.59 112.41 163.5 116 163.5H234C237.59 163.5 240.5 160.59 240.5 157V113C240.5 109.41 237.59 106.5 234 106.5H116Z" stroke="white" stroke-opacity="0.4" shape-rendering="crispEdges"/>
</g>
<defs>
<filter id="filter0_d_125_51" x="97" y="100" width="156" height="82" filterUnits="userSpaceOnUse" color-interpolation-filters="sRGB">
<feFlood flood-opacity="0" result="BackgroundImageFix"/>
<feColorMatrix in="SourceAlpha" type="matrix" values="0 0 0 0 0 0 0 0 0 0 0 0 0 0 0 0 0 0 127 0" result="hardAlpha"/>
<feOffset dy="6"/>
<feGaussianBlur stdDeviation="6"/>
<feComposite in2="hardAlpha" operator="out"/>
<feColorMatrix type="matrix" values="0 0 0 0 0 0 0 0 0 0 0 0 0 0 0 0 0 0 0.03 0"/>
<feBlend mode="normal" in2="BackgroundImageFix" result="effect1_dropShadow_125_51"/>
<feBlend mode="normal" in="SourceGraphic" in2="effect1_dropShadow_125_51" result="shape"/>
</filter>
<linearGradient id="paint0_linear_125_51" x1="52" y1="26" x2="344" y2="250" gradientUnits="userSpaceOnUse">
<stop offset="0%" stop-color="#A855F7"/>
<stop offset="1" stop-color="#3B82F6"/>
</linearGradient>
</defs>
</svg>
