<svg width="350" height="250" viewBox="0 0 350 250" fill="none" xmlns="http://www.w3.org/2000/svg">
<rect width="350" height="250" fill="url(#paint0_linear_951_18037)"/>
<g filter="url(#filter0_d_951_18037)">
<path d="M100 61C100 58.7909 101.791 57 104 57H246C248.209 57 250 58.7909 250 61V83C250 85.2091 248.209 87 246 87H104C101.791 87 100 85.2091 100 83V61Z" fill="white" fill-opacity="0.05" shape-rendering="crispEdges"/>
<path d="M104 57.5H246C247.933 57.5 249.5 59.067 249.5 61V83C249.5 84.933 247.933 86.5 246 86.5H104C102.067 86.5 100.5 84.933 100.5 83V61C100.5 59.067 102.067 57.5 104 57.5Z" stroke="white" stroke-opacity="0.2" shape-rendering="crispEdges"/>
<path d="M115.476 68.7273H116.577V73.5107C116.577 74.0196 116.457 74.4706 116.218 74.8636C115.979 75.2543 115.643 75.562 115.21 75.7869C114.776 76.0095 114.268 76.1207 113.686 76.1207C113.106 76.1207 112.599 76.0095 112.166 75.7869C111.733 75.562 111.397 75.2543 111.158 74.8636C110.919 74.4706 110.799 74.0196 110.799 73.5107V68.7273H111.896V73.4219C111.896 73.7509 111.969 74.0433 112.113 74.299C112.26 74.5547 112.467 74.7559 112.734 74.9027C113.002 75.0471 113.319 75.1193 113.686 75.1193C114.055 75.1193 114.374 75.0471 114.641 74.9027C114.911 74.7559 115.117 74.5547 115.259 74.299C115.404 74.0433 115.476 73.7509 115.476 73.4219V68.7273ZM119.149 72.7614V76H118.087V70.5455H119.106V71.4332H119.173C119.299 71.1444 119.495 70.9124 119.763 70.7372C120.033 70.562 120.373 70.4744 120.782 70.4744C121.154 70.4744 121.479 70.5526 121.759 70.7088C122.038 70.8627 122.255 71.0923 122.409 71.3977C122.562 71.7031 122.639 72.0807 122.639 72.5305V76H121.578V72.6584C121.578 72.263 121.475 71.9541 121.269 71.7315C121.063 71.5066 120.78 71.3942 120.42 71.3942C120.174 71.3942 119.955 71.4474 119.763 71.554C119.574 71.6605 119.423 71.8168 119.312 72.0227C119.203 72.2263 119.149 72.4725 119.149 72.7614ZM124.063 76V70.5455H125.125V76H124.063ZM124.6 69.7038C124.415 69.7038 124.256 69.6423 124.124 69.5192C123.994 69.3937 123.928 69.2446 123.928 69.0717C123.928 68.8965 123.994 68.7474 124.124 68.6243C124.256 68.4988 124.415 68.4361 124.6 68.4361C124.784 68.4361 124.942 68.4988 125.072 68.6243C125.204 68.7474 125.271 68.8965 125.271 69.0717C125.271 69.2446 125.204 69.3937 125.072 69.5192C124.942 69.6423 124.784 69.7038 124.6 69.7038ZM129.1 70.5455V71.3977H126.12V70.5455H129.1ZM126.919 69.2386H127.981V74.3984C127.981 74.6044 128.012 74.7595 128.074 74.8636C128.135 74.9654 128.214 75.0353 128.311 75.0732C128.411 75.1087 128.519 75.1264 128.635 75.1264C128.72 75.1264 128.794 75.1205 128.858 75.1087C128.922 75.0968 128.972 75.0874 129.007 75.0803L129.199 75.9574C129.138 75.9811 129.05 76.0047 128.936 76.0284C128.823 76.0545 128.681 76.0687 128.51 76.071C128.231 76.0758 127.971 76.026 127.729 75.9219C127.488 75.8177 127.292 75.6567 127.143 75.4389C126.994 75.2211 126.919 74.9477 126.919 74.6186V69.2386ZM132.567 76.1101C132.029 76.1101 131.566 75.9953 131.178 75.7656C130.792 75.5336 130.494 75.2081 130.283 74.7891C130.075 74.3677 129.971 73.8741 129.971 73.3082C129.971 72.7495 130.075 72.2571 130.283 71.831C130.494 71.4048 130.787 71.0722 131.164 70.8331C131.543 70.594 131.985 70.4744 132.492 70.4744C132.8 70.4744 133.098 70.5253 133.387 70.6271C133.676 70.7289 133.935 70.8887 134.165 71.1065C134.394 71.3243 134.575 71.6072 134.708 71.9553C134.84 72.3009 134.907 72.7211 134.907 73.2159V73.5923H130.571V72.7969H133.866C133.866 72.5175 133.809 72.2701 133.696 72.0547C133.582 71.8369 133.422 71.6652 133.216 71.5398C133.013 71.4143 132.774 71.3516 132.499 71.3516C132.201 71.3516 131.94 71.425 131.718 71.5717C131.498 71.7161 131.327 71.9055 131.206 72.1399C131.088 72.3719 131.029 72.6241 131.029 72.8963V73.5178C131.029 73.8823 131.093 74.1925 131.221 74.4482C131.351 74.7038 131.532 74.8991 131.764 75.0341C131.996 75.1667 132.267 75.233 132.577 75.233C132.778 75.233 132.962 75.2045 133.128 75.1477C133.293 75.0885 133.437 75.0009 133.557 74.8849C133.678 74.7689 133.77 74.6257 133.834 74.4553L134.839 74.6364C134.759 74.9323 134.614 75.1915 134.406 75.4141C134.2 75.6342 133.941 75.8059 133.628 75.929C133.318 76.0497 132.964 76.1101 132.567 76.1101ZM138.127 76.1065C137.686 76.1065 137.293 75.9941 136.948 75.7692C136.605 75.5419 136.335 75.2187 136.138 74.7997C135.944 74.3783 135.847 73.8729 135.847 73.2834C135.847 72.6939 135.945 72.1896 136.142 71.7706C136.341 71.3516 136.613 71.0308 136.958 70.8082C137.304 70.5857 137.696 70.4744 138.134 70.4744C138.472 70.4744 138.745 70.5312 138.951 70.6449C139.159 70.7562 139.32 70.8864 139.434 71.0355C139.55 71.1847 139.64 71.3161 139.703 71.4297H139.767V68.7273H140.829V76H139.792V75.1513H139.703C139.64 75.2673 139.547 75.3999 139.426 75.549C139.308 75.6982 139.145 75.8284 138.936 75.9396C138.728 76.0509 138.458 76.1065 138.127 76.1065ZM138.361 75.201C138.667 75.201 138.925 75.1205 139.135 74.9595C139.348 74.7962 139.509 74.5701 139.618 74.2812C139.73 73.9924 139.785 73.6562 139.785 73.2727C139.785 72.8939 139.731 72.5625 139.622 72.2784C139.513 71.9943 139.353 71.773 139.142 71.6143C138.932 71.4557 138.671 71.3764 138.361 71.3764C138.042 71.3764 137.775 71.4593 137.562 71.625C137.349 71.7907 137.188 72.0168 137.079 72.3033C136.973 72.5897 136.919 72.9129 136.919 73.2727C136.919 73.6373 136.974 73.9652 137.083 74.2564C137.192 74.5476 137.353 74.7784 137.566 74.9489C137.781 75.117 138.046 75.201 138.361 75.201ZM143.818 66.3835V78.3438H142.867V66.3835H143.818Z" fill="white"/>
<path d="M236 71L238 73L240 71" stroke="white" stroke-linecap="round"/>
</g>
<g filter="url(#filter1_d_951_18037)">
<path d="M100 101C100 98.7909 101.791 97 104 97H246C248.209 97 250 98.7909 250 101V189C250 191.209 248.209 193 246 193H104C101.791 193 100 191.209 100 189V101Z" fill="white" fill-opacity="0.05" shape-rendering="crispEdges"/>
<path d="M104 97.5H246C247.933 97.5 249.5 99.067 249.5 101V189C249.5 190.933 247.933 192.5 246 192.5H104C102.067 192.5 100.5 190.933 100.5 189V101C100.5 99.067 102.067 97.5 104 97.5Z" stroke="white" stroke-opacity="0.2" shape-rendering="crispEdges"/>
<path d="M116.476 110.727H117.577V115.511C117.577 116.02 117.457 116.471 117.218 116.864C116.979 117.254 116.643 117.562 116.21 117.787C115.776 118.009 115.268 118.121 114.686 118.121C114.106 118.121 113.599 118.009 113.166 117.787C112.733 117.562 112.397 117.254 112.158 116.864C111.919 116.471 111.799 116.02 111.799 115.511V110.727H112.896V115.422C112.896 115.751 112.969 116.043 113.113 116.299C113.26 116.555 113.467 116.756 113.734 116.903C114.002 117.047 114.319 117.119 114.686 117.119C115.055 117.119 115.374 117.047 115.641 116.903C115.911 116.756 116.117 116.555 116.259 116.299C116.404 116.043 116.476 115.751 116.476 115.422V110.727ZM120.149 114.761V118H119.087V112.545H120.106V113.433H120.173C120.299 113.144 120.495 112.912 120.763 112.737C121.033 112.562 121.373 112.474 121.782 112.474C122.154 112.474 122.479 112.553 122.759 112.709C123.038 112.863 123.255 113.092 123.409 113.398C123.562 113.703 123.639 114.081 123.639 114.531V118H122.578V114.658C122.578 114.263 122.475 113.954 122.269 113.732C122.063 113.507 121.78 113.394 121.42 113.394C121.174 113.394 120.955 113.447 120.763 113.554C120.574 113.661 120.423 113.817 120.312 114.023C120.203 114.226 120.149 114.473 120.149 114.761ZM125.063 118V112.545H126.125V118H125.063ZM125.6 111.704C125.415 111.704 125.256 111.642 125.124 111.519C124.994 111.394 124.928 111.245 124.928 111.072C124.928 110.897 124.994 110.747 125.124 110.624C125.256 110.499 125.415 110.436 125.6 110.436C125.784 110.436 125.942 110.499 126.072 110.624C126.204 110.747 126.271 110.897 126.271 111.072C126.271 111.245 126.204 111.394 126.072 111.519C125.942 111.642 125.784 111.704 125.6 111.704ZM130.1 112.545V113.398H127.12V112.545H130.1ZM127.919 111.239H128.981V116.398C128.981 116.604 129.012 116.759 129.074 116.864C129.135 116.965 129.214 117.035 129.311 117.073C129.411 117.109 129.519 117.126 129.635 117.126C129.72 117.126 129.794 117.121 129.858 117.109C129.922 117.097 129.972 117.087 130.007 117.08L130.199 117.957C130.138 117.981 130.05 118.005 129.936 118.028C129.823 118.054 129.681 118.069 129.51 118.071C129.231 118.076 128.971 118.026 128.729 117.922C128.488 117.818 128.292 117.657 128.143 117.439C127.994 117.221 127.919 116.948 127.919 116.619V111.239ZM133.567 118.11C133.029 118.11 132.566 117.995 132.178 117.766C131.792 117.534 131.494 117.208 131.283 116.789C131.075 116.368 130.971 115.874 130.971 115.308C130.971 114.75 131.075 114.257 131.283 113.831C131.494 113.405 131.787 113.072 132.164 112.833C132.543 112.594 132.985 112.474 133.492 112.474C133.8 112.474 134.098 112.525 134.387 112.627C134.676 112.729 134.935 112.889 135.165 113.107C135.394 113.324 135.575 113.607 135.708 113.955C135.84 114.301 135.907 114.721 135.907 115.216V115.592H131.571V114.797H134.866C134.866 114.518 134.809 114.27 134.696 114.055C134.582 113.837 134.422 113.665 134.216 113.54C134.013 113.414 133.774 113.352 133.499 113.352C133.201 113.352 132.94 113.425 132.718 113.572C132.498 113.716 132.327 113.906 132.206 114.14C132.088 114.372 132.029 114.624 132.029 114.896V115.518C132.029 115.882 132.093 116.192 132.221 116.448C132.351 116.704 132.532 116.899 132.764 117.034C132.996 117.167 133.267 117.233 133.577 117.233C133.778 117.233 133.962 117.205 134.128 117.148C134.293 117.089 134.437 117.001 134.557 116.885C134.678 116.769 134.77 116.626 134.834 116.455L135.839 116.636C135.759 116.932 135.614 117.192 135.406 117.414C135.2 117.634 134.941 117.806 134.628 117.929C134.318 118.05 133.964 118.11 133.567 118.11ZM139.127 118.107C138.686 118.107 138.293 117.994 137.948 117.769C137.605 117.542 137.335 117.219 137.138 116.8C136.944 116.378 136.847 115.873 136.847 115.283C136.847 114.694 136.945 114.19 137.142 113.771C137.341 113.352 137.613 113.031 137.958 112.808C138.304 112.586 138.696 112.474 139.134 112.474C139.472 112.474 139.745 112.531 139.951 112.645C140.159 112.756 140.32 112.886 140.434 113.036C140.55 113.185 140.64 113.316 140.703 113.43H140.767V110.727H141.829V118H140.792V117.151H140.703C140.64 117.267 140.547 117.4 140.426 117.549C140.308 117.698 140.145 117.828 139.936 117.94C139.728 118.051 139.458 118.107 139.127 118.107ZM139.361 117.201C139.667 117.201 139.925 117.121 140.135 116.96C140.348 116.796 140.509 116.57 140.618 116.281C140.73 115.992 140.785 115.656 140.785 115.273C140.785 114.894 140.731 114.562 140.622 114.278C140.513 113.994 140.353 113.773 140.142 113.614C139.932 113.456 139.671 113.376 139.361 113.376C139.042 113.376 138.775 113.459 138.562 113.625C138.349 113.791 138.188 114.017 138.079 114.303C137.973 114.59 137.919 114.913 137.919 115.273C137.919 115.637 137.974 115.965 138.083 116.256C138.192 116.548 138.353 116.778 138.566 116.949C138.781 117.117 139.046 117.201 139.361 117.201ZM146.691 118H145.526L148.143 110.727H149.411L152.028 118H150.863L148.807 112.048H148.75L146.691 118ZM146.886 115.152H150.664V116.075H146.886V115.152ZM152.993 118V112.545H154.019V113.412H154.076C154.176 113.118 154.351 112.888 154.602 112.719C154.855 112.549 155.142 112.464 155.461 112.464C155.527 112.464 155.606 112.466 155.695 112.471C155.788 112.476 155.86 112.482 155.912 112.489V113.504C155.869 113.492 155.794 113.479 155.685 113.465C155.576 113.449 155.467 113.44 155.358 113.44C155.107 113.44 154.883 113.494 154.687 113.6C154.493 113.704 154.339 113.85 154.225 114.037C154.112 114.222 154.055 114.432 154.055 114.669V118H152.993ZM158.369 118.121C158.024 118.121 157.711 118.057 157.432 117.929C157.153 117.799 156.931 117.611 156.768 117.364C156.607 117.118 156.526 116.816 156.526 116.459C156.526 116.151 156.586 115.898 156.704 115.699C156.822 115.5 156.982 115.343 157.183 115.227C157.385 115.111 157.61 115.023 157.858 114.964C158.107 114.905 158.36 114.86 158.618 114.829C158.945 114.791 159.21 114.76 159.414 114.737C159.617 114.71 159.765 114.669 159.857 114.612C159.95 114.555 159.996 114.463 159.996 114.335V114.31C159.996 114 159.908 113.76 159.733 113.589C159.56 113.419 159.302 113.334 158.959 113.334C158.602 113.334 158.32 113.413 158.114 113.572C157.91 113.728 157.769 113.902 157.691 114.094L156.693 113.866C156.812 113.535 156.985 113.268 157.212 113.064C157.441 112.858 157.705 112.709 158.004 112.616C158.302 112.522 158.616 112.474 158.945 112.474C159.163 112.474 159.393 112.5 159.637 112.553C159.883 112.602 160.113 112.695 160.326 112.83C160.542 112.964 160.718 113.157 160.855 113.408C160.993 113.657 161.061 113.98 161.061 114.378V118H160.024V117.254H159.982C159.913 117.392 159.81 117.527 159.673 117.659C159.535 117.792 159.359 117.902 159.144 117.989C158.928 118.077 158.67 118.121 158.369 118.121ZM158.6 117.268C158.894 117.268 159.145 117.21 159.353 117.094C159.564 116.978 159.724 116.827 159.833 116.64C159.944 116.451 159.999 116.248 159.999 116.033V115.33C159.962 115.367 159.888 115.403 159.779 115.436C159.673 115.467 159.551 115.494 159.414 115.518C159.276 115.539 159.142 115.559 159.012 115.578C158.882 115.595 158.773 115.609 158.686 115.621C158.48 115.647 158.291 115.691 158.121 115.752C157.953 115.814 157.818 115.902 157.716 116.018C157.617 116.132 157.567 116.284 157.567 116.473C157.567 116.736 157.664 116.935 157.858 117.07C158.052 117.202 158.3 117.268 158.6 117.268ZM162.561 118V110.727H163.623V113.43H163.686C163.748 113.316 163.837 113.185 163.953 113.036C164.069 112.886 164.23 112.756 164.436 112.645C164.642 112.531 164.914 112.474 165.252 112.474C165.693 112.474 166.086 112.586 166.431 112.808C166.777 113.031 167.048 113.352 167.245 113.771C167.444 114.19 167.543 114.694 167.543 115.283C167.543 115.873 167.445 116.378 167.248 116.8C167.052 117.219 166.782 117.542 166.439 117.769C166.095 117.994 165.703 118.107 165.263 118.107C164.932 118.107 164.661 118.051 164.45 117.94C164.242 117.828 164.078 117.698 163.96 117.549C163.842 117.4 163.75 117.267 163.686 117.151H163.598V118H162.561ZM163.601 115.273C163.601 115.656 163.657 115.992 163.768 116.281C163.879 116.57 164.04 116.796 164.251 116.96C164.462 117.121 164.72 117.201 165.025 117.201C165.342 117.201 165.608 117.117 165.821 116.949C166.034 116.778 166.195 116.548 166.304 116.256C166.415 115.965 166.471 115.637 166.471 115.273C166.471 114.913 166.416 114.59 166.307 114.303C166.201 114.017 166.04 113.791 165.824 113.625C165.611 113.459 165.345 113.376 165.025 113.376C164.717 113.376 164.457 113.456 164.244 113.614C164.033 113.773 163.873 113.994 163.765 114.278C163.656 114.562 163.601 114.894 163.601 115.273ZM171.467 118V110.727H176.027V111.672H172.564V113.888H175.789V114.829H172.564V117.055H176.069V118H171.467ZM177.407 118V112.545H178.426V113.433H178.494C178.607 113.133 178.793 112.898 179.051 112.73C179.309 112.56 179.618 112.474 179.978 112.474C180.343 112.474 180.648 112.56 180.894 112.73C181.143 112.901 181.326 113.135 181.445 113.433H181.502C181.632 113.142 181.839 112.91 182.123 112.737C182.407 112.562 182.746 112.474 183.139 112.474C183.633 112.474 184.037 112.629 184.35 112.94C184.664 113.25 184.822 113.717 184.822 114.342V118H183.76V114.442C183.76 114.072 183.66 113.805 183.458 113.639C183.257 113.473 183.017 113.391 182.737 113.391C182.392 113.391 182.123 113.497 181.931 113.71C181.74 113.921 181.644 114.192 181.644 114.523V118H180.585V114.374C180.585 114.078 180.493 113.84 180.308 113.661C180.124 113.481 179.883 113.391 179.588 113.391C179.386 113.391 179.2 113.444 179.03 113.55C178.862 113.655 178.726 113.8 178.622 113.987C178.52 114.174 178.469 114.391 178.469 114.637V118H177.407ZM186.245 118V112.545H187.307V118H186.245ZM186.781 111.704C186.597 111.704 186.438 111.642 186.305 111.519C186.175 111.394 186.11 111.245 186.11 111.072C186.11 110.897 186.175 110.747 186.305 110.624C186.438 110.499 186.597 110.436 186.781 110.436C186.966 110.436 187.123 110.499 187.254 110.624C187.386 110.747 187.452 110.897 187.452 111.072C187.452 111.245 187.386 111.394 187.254 111.519C187.123 111.642 186.966 111.704 186.781 111.704ZM188.735 118V112.545H189.762V113.412H189.818C189.918 113.118 190.093 112.888 190.344 112.719C190.597 112.549 190.884 112.464 191.203 112.464C191.27 112.464 191.348 112.466 191.438 112.471C191.53 112.476 191.602 112.482 191.654 112.489V113.504C191.612 113.492 191.536 113.479 191.427 113.465C191.318 113.449 191.209 113.44 191.1 113.44C190.849 113.44 190.626 113.494 190.429 113.6C190.235 113.704 190.081 113.85 189.968 114.037C189.854 114.222 189.797 114.432 189.797 114.669V118H188.735ZM194.112 118.121C193.766 118.121 193.454 118.057 193.174 117.929C192.895 117.799 192.673 117.611 192.51 117.364C192.349 117.118 192.269 116.816 192.269 116.459C192.269 116.151 192.328 115.898 192.446 115.699C192.565 115.5 192.724 115.343 192.926 115.227C193.127 115.111 193.352 115.023 193.6 114.964C193.849 114.905 194.102 114.86 194.36 114.829C194.687 114.791 194.952 114.76 195.156 114.737C195.359 114.71 195.507 114.669 195.6 114.612C195.692 114.555 195.738 114.463 195.738 114.335V114.31C195.738 114 195.651 113.76 195.475 113.589C195.302 113.419 195.044 113.334 194.701 113.334C194.344 113.334 194.062 113.413 193.856 113.572C193.652 113.728 193.512 113.902 193.433 114.094L192.436 113.866C192.554 113.535 192.727 113.268 192.954 113.064C193.184 112.858 193.448 112.709 193.746 112.616C194.044 112.522 194.358 112.474 194.687 112.474C194.905 112.474 195.136 112.5 195.379 112.553C195.626 112.602 195.855 112.695 196.068 112.83C196.284 112.964 196.46 113.157 196.597 113.408C196.735 113.657 196.803 113.98 196.803 114.378V118H195.767V117.254H195.724C195.655 117.392 195.552 117.527 195.415 117.659C195.278 117.792 195.101 117.902 194.886 117.989C194.67 118.077 194.412 118.121 194.112 118.121ZM194.343 117.268C194.636 117.268 194.887 117.21 195.095 117.094C195.306 116.978 195.466 116.827 195.575 116.64C195.686 116.451 195.742 116.248 195.742 116.033V115.33C195.704 115.367 195.63 115.403 195.521 115.436C195.415 115.467 195.293 115.494 195.156 115.518C195.018 115.539 194.885 115.559 194.754 115.578C194.624 115.595 194.515 115.609 194.428 115.621C194.222 115.647 194.034 115.691 193.863 115.752C193.695 115.814 193.56 115.902 193.458 116.018C193.359 116.132 193.309 116.284 193.309 116.473C193.309 116.736 193.406 116.935 193.6 117.07C193.794 117.202 194.042 117.268 194.343 117.268ZM200.764 112.545V113.398H197.784V112.545H200.764ZM198.583 111.239H199.645V116.398C199.645 116.604 199.676 116.759 199.738 116.864C199.799 116.965 199.878 117.035 199.975 117.073C200.075 117.109 200.183 117.126 200.299 117.126C200.384 117.126 200.458 117.121 200.522 117.109C200.586 117.097 200.636 117.087 200.672 117.08L200.863 117.957C200.802 117.981 200.714 118.005 200.6 118.028C200.487 118.054 200.345 118.069 200.174 118.071C199.895 118.076 199.635 118.026 199.393 117.922C199.152 117.818 198.956 117.657 198.807 117.439C198.658 117.221 198.583 116.948 198.583 116.619V111.239ZM204.231 118.11C203.693 118.11 203.23 117.995 202.842 117.766C202.456 117.534 202.158 117.208 201.947 116.789C201.739 116.368 201.635 115.874 201.635 115.308C201.635 114.75 201.739 114.257 201.947 113.831C202.158 113.405 202.452 113.072 202.828 112.833C203.207 112.594 203.649 112.474 204.156 112.474C204.464 112.474 204.762 112.525 205.051 112.627C205.34 112.729 205.599 112.889 205.829 113.107C206.058 113.324 206.239 113.607 206.372 113.955C206.505 114.301 206.571 114.721 206.571 115.216V115.592H202.235V114.797H205.53C205.53 114.518 205.474 114.27 205.36 114.055C205.246 113.837 205.086 113.665 204.881 113.54C204.677 113.414 204.438 113.352 204.163 113.352C203.865 113.352 203.604 113.425 203.382 113.572C203.162 113.716 202.991 113.906 202.871 114.14C202.752 114.372 202.693 114.624 202.693 114.896V115.518C202.693 115.882 202.757 116.192 202.885 116.448C203.015 116.704 203.196 116.899 203.428 117.034C203.66 117.167 203.931 117.233 204.241 117.233C204.443 117.233 204.626 117.205 204.792 117.148C204.957 117.089 205.101 117.001 205.221 116.885C205.342 116.769 205.434 116.626 205.498 116.455L206.503 116.636C206.423 116.932 206.278 117.192 206.07 117.414C205.864 117.634 205.605 117.806 205.292 117.929C204.982 118.05 204.628 118.11 204.231 118.11ZM211.836 113.877L210.874 114.048C210.834 113.924 210.77 113.807 210.682 113.696C210.597 113.585 210.481 113.494 210.334 113.423C210.187 113.352 210.004 113.316 209.784 113.316C209.483 113.316 209.232 113.384 209.031 113.518C208.83 113.651 208.729 113.823 208.729 114.033C208.729 114.216 208.797 114.362 208.931 114.474C209.066 114.585 209.284 114.676 209.585 114.747L210.451 114.946C210.953 115.062 211.327 115.241 211.574 115.482C211.82 115.724 211.943 116.037 211.943 116.423C211.943 116.75 211.848 117.041 211.659 117.297C211.472 117.55 211.21 117.749 210.874 117.893C210.54 118.038 210.153 118.11 209.713 118.11C209.102 118.11 208.604 117.98 208.218 117.719C207.832 117.457 207.595 117.084 207.507 116.601L208.534 116.445C208.598 116.712 208.729 116.915 208.928 117.052C209.127 117.187 209.386 117.254 209.706 117.254C210.054 117.254 210.332 117.182 210.54 117.038C210.748 116.891 210.853 116.712 210.853 116.501C210.853 116.331 210.789 116.188 210.661 116.072C210.535 115.956 210.342 115.868 210.082 115.809L209.159 115.607C208.65 115.491 208.273 115.306 208.029 115.053C207.788 114.799 207.667 114.478 207.667 114.09C207.667 113.768 207.757 113.487 207.937 113.245C208.117 113.004 208.366 112.815 208.683 112.68C209 112.543 209.364 112.474 209.773 112.474C210.363 112.474 210.827 112.602 211.165 112.858C211.504 113.111 211.727 113.451 211.836 113.877Z" fill="white"/>
<path d="M116.476 141.727H117.577V146.511C117.577 147.02 117.457 147.471 117.218 147.864C116.979 148.254 116.643 148.562 116.21 148.787C115.776 149.009 115.268 149.121 114.686 149.121C114.106 149.121 113.599 149.009 113.166 148.787C112.733 148.562 112.397 148.254 112.158 147.864C111.919 147.471 111.799 147.02 111.799 146.511V141.727H112.896V146.422C112.896 146.751 112.969 147.043 113.113 147.299C113.26 147.555 113.467 147.756 113.734 147.903C114.002 148.047 114.319 148.119 114.686 148.119C115.055 148.119 115.374 148.047 115.641 147.903C115.911 147.756 116.117 147.555 116.259 147.299C116.404 147.043 116.476 146.751 116.476 146.422V141.727ZM120.149 145.761V149H119.087V143.545H120.106V144.433H120.173C120.299 144.144 120.495 143.912 120.763 143.737C121.033 143.562 121.373 143.474 121.782 143.474C122.154 143.474 122.479 143.553 122.759 143.709C123.038 143.863 123.255 144.092 123.409 144.398C123.562 144.703 123.639 145.081 123.639 145.531V149H122.578V145.658C122.578 145.263 122.475 144.954 122.269 144.732C122.063 144.507 121.78 144.394 121.42 144.394C121.174 144.394 120.955 144.447 120.763 144.554C120.574 144.661 120.423 144.817 120.312 145.023C120.203 145.226 120.149 145.473 120.149 145.761ZM125.063 149V143.545H126.125V149H125.063ZM125.6 142.704C125.415 142.704 125.256 142.642 125.124 142.519C124.994 142.394 124.928 142.245 124.928 142.072C124.928 141.897 124.994 141.747 125.124 141.624C125.256 141.499 125.415 141.436 125.6 141.436C125.784 141.436 125.942 141.499 126.072 141.624C126.204 141.747 126.271 141.897 126.271 142.072C126.271 142.245 126.204 142.394 126.072 142.519C125.942 142.642 125.784 142.704 125.6 142.704ZM130.1 143.545V144.398H127.12V143.545H130.1ZM127.919 142.239H128.981V147.398C128.981 147.604 129.012 147.759 129.074 147.864C129.135 147.965 129.214 148.035 129.311 148.073C129.411 148.109 129.519 148.126 129.635 148.126C129.72 148.126 129.794 148.121 129.858 148.109C129.922 148.097 129.972 148.087 130.007 148.08L130.199 148.957C130.138 148.981 130.05 149.005 129.936 149.028C129.823 149.054 129.681 149.069 129.51 149.071C129.231 149.076 128.971 149.026 128.729 148.922C128.488 148.818 128.292 148.657 128.143 148.439C127.994 148.221 127.919 147.948 127.919 147.619V142.239ZM133.567 149.11C133.029 149.11 132.566 148.995 132.178 148.766C131.792 148.534 131.494 148.208 131.283 147.789C131.075 147.368 130.971 146.874 130.971 146.308C130.971 145.75 131.075 145.257 131.283 144.831C131.494 144.405 131.787 144.072 132.164 143.833C132.543 143.594 132.985 143.474 133.492 143.474C133.8 143.474 134.098 143.525 134.387 143.627C134.676 143.729 134.935 143.889 135.165 144.107C135.394 144.324 135.575 144.607 135.708 144.955C135.84 145.301 135.907 145.721 135.907 146.216V146.592H131.571V145.797H134.866C134.866 145.518 134.809 145.27 134.696 145.055C134.582 144.837 134.422 144.665 134.216 144.54C134.013 144.414 133.774 144.352 133.499 144.352C133.201 144.352 132.94 144.425 132.718 144.572C132.498 144.716 132.327 144.906 132.206 145.14C132.088 145.372 132.029 145.624 132.029 145.896V146.518C132.029 146.882 132.093 147.192 132.221 147.448C132.351 147.704 132.532 147.899 132.764 148.034C132.996 148.167 133.267 148.233 133.577 148.233C133.778 148.233 133.962 148.205 134.128 148.148C134.293 148.089 134.437 148.001 134.557 147.885C134.678 147.769 134.77 147.626 134.834 147.455L135.839 147.636C135.759 147.932 135.614 148.192 135.406 148.414C135.2 148.634 134.941 148.806 134.628 148.929C134.318 149.05 133.964 149.11 133.567 149.11ZM139.127 149.107C138.686 149.107 138.293 148.994 137.948 148.769C137.605 148.542 137.335 148.219 137.138 147.8C136.944 147.378 136.847 146.873 136.847 146.283C136.847 145.694 136.945 145.19 137.142 144.771C137.341 144.352 137.613 144.031 137.958 143.808C138.304 143.586 138.696 143.474 139.134 143.474C139.472 143.474 139.745 143.531 139.951 143.645C140.159 143.756 140.32 143.886 140.434 144.036C140.55 144.185 140.64 144.316 140.703 144.43H140.767V141.727H141.829V149H140.792V148.151H140.703C140.64 148.267 140.547 148.4 140.426 148.549C140.308 148.698 140.145 148.828 139.936 148.94C139.728 149.051 139.458 149.107 139.127 149.107ZM139.361 148.201C139.667 148.201 139.925 148.121 140.135 147.96C140.348 147.796 140.509 147.57 140.618 147.281C140.73 146.992 140.785 146.656 140.785 146.273C140.785 145.894 140.731 145.562 140.622 145.278C140.513 144.994 140.353 144.773 140.142 144.614C139.932 144.456 139.671 144.376 139.361 144.376C139.042 144.376 138.775 144.459 138.562 144.625C138.349 144.791 138.188 145.017 138.079 145.303C137.973 145.59 137.919 145.913 137.919 146.273C137.919 146.637 137.974 146.965 138.083 147.256C138.192 147.548 138.353 147.778 138.566 147.949C138.781 148.117 139.046 148.201 139.361 148.201ZM146.076 149V141.727H147.174V145.2H147.262L150.313 141.727H151.694L148.761 145.001L151.705 149H150.384L148.033 145.751L147.174 146.738V149H146.076ZM152.974 149V143.545H154.035V149H152.974ZM153.51 142.704C153.325 142.704 153.166 142.642 153.034 142.519C152.904 142.394 152.839 142.245 152.839 142.072C152.839 141.897 152.904 141.747 153.034 141.624C153.166 141.499 153.325 141.436 153.51 141.436C153.694 141.436 153.852 141.499 153.982 141.624C154.115 141.747 154.181 141.897 154.181 142.072C154.181 142.245 154.115 142.394 153.982 142.519C153.852 142.642 153.694 142.704 153.51 142.704ZM156.526 145.761V149H155.464V143.545H156.483V144.433H156.55C156.676 144.144 156.872 143.912 157.14 143.737C157.41 143.562 157.75 143.474 158.159 143.474C158.531 143.474 158.856 143.553 159.136 143.709C159.415 143.863 159.632 144.092 159.786 144.398C159.939 144.703 160.016 145.081 160.016 145.531V149H158.955V145.658C158.955 145.263 158.852 144.954 158.646 144.732C158.44 144.507 158.157 144.394 157.797 144.394C157.551 144.394 157.332 144.447 157.14 144.554C156.951 144.661 156.8 144.817 156.689 145.023C156.58 145.226 156.526 145.473 156.526 145.761ZM163.727 151.159C163.294 151.159 162.921 151.102 162.609 150.989C162.299 150.875 162.045 150.725 161.849 150.538C161.652 150.351 161.505 150.146 161.408 149.923L162.321 149.547C162.385 149.651 162.47 149.761 162.577 149.877C162.686 149.996 162.832 150.096 163.017 150.179C163.204 150.262 163.444 150.303 163.738 150.303C164.14 150.303 164.473 150.205 164.736 150.009C164.999 149.814 165.13 149.504 165.13 149.078V148.006H165.062C164.999 148.122 164.906 148.251 164.786 148.393C164.667 148.535 164.504 148.658 164.295 148.762C164.087 148.866 163.816 148.918 163.482 148.918C163.051 148.918 162.663 148.818 162.317 148.616C161.974 148.413 161.702 148.113 161.501 147.718C161.302 147.32 161.202 146.831 161.202 146.251C161.202 145.671 161.301 145.174 161.497 144.76C161.696 144.346 161.968 144.028 162.314 143.808C162.66 143.586 163.051 143.474 163.489 143.474C163.828 143.474 164.101 143.531 164.31 143.645C164.518 143.756 164.68 143.886 164.796 144.036C164.915 144.185 165.006 144.316 165.07 144.43H165.148V143.545H166.188V149.121C166.188 149.589 166.079 149.974 165.862 150.275C165.644 150.576 165.349 150.798 164.977 150.942C164.608 151.087 164.191 151.159 163.727 151.159ZM163.717 148.038C164.022 148.038 164.28 147.967 164.491 147.825C164.704 147.68 164.865 147.474 164.974 147.207C165.085 146.937 165.141 146.614 165.141 146.237C165.141 145.87 165.086 145.547 164.977 145.268C164.868 144.988 164.709 144.771 164.498 144.614C164.287 144.456 164.027 144.376 163.717 144.376C163.397 144.376 163.131 144.459 162.918 144.625C162.705 144.788 162.544 145.011 162.435 145.293C162.328 145.574 162.275 145.889 162.275 146.237C162.275 146.595 162.329 146.908 162.438 147.178C162.547 147.448 162.708 147.659 162.921 147.81C163.137 147.962 163.402 148.038 163.717 148.038ZM169.654 149.107C169.214 149.107 168.821 148.994 168.475 148.769C168.132 148.542 167.862 148.219 167.665 147.8C167.471 147.378 167.374 146.873 167.374 146.283C167.374 145.694 167.473 145.19 167.669 144.771C167.868 144.352 168.14 144.031 168.486 143.808C168.831 143.586 169.223 143.474 169.661 143.474C170 143.474 170.272 143.531 170.478 143.645C170.686 143.756 170.847 143.886 170.961 144.036C171.077 144.185 171.167 144.316 171.231 144.43H171.295V141.727H172.357V149H171.32V148.151H171.231C171.167 148.267 171.075 148.4 170.954 148.549C170.835 148.698 170.672 148.828 170.464 148.94C170.255 149.051 169.986 149.107 169.654 149.107ZM169.888 148.201C170.194 148.201 170.452 148.121 170.663 147.96C170.876 147.796 171.037 147.57 171.146 147.281C171.257 146.992 171.312 146.656 171.312 146.273C171.312 145.894 171.258 145.562 171.149 145.278C171.04 144.994 170.88 144.773 170.67 144.614C170.459 144.456 170.199 144.376 169.888 144.376C169.569 144.376 169.303 144.459 169.089 144.625C168.876 144.791 168.715 145.017 168.607 145.303C168.5 145.59 168.447 145.913 168.447 146.273C168.447 146.637 168.501 146.965 168.61 147.256C168.719 147.548 168.88 147.778 169.093 147.949C169.308 148.117 169.574 148.201 169.888 148.201ZM176.17 149.11C175.658 149.11 175.212 148.993 174.831 148.759C174.45 148.524 174.154 148.196 173.943 147.775C173.732 147.353 173.627 146.861 173.627 146.298C173.627 145.732 173.732 145.237 173.943 144.813C174.154 144.389 174.45 144.06 174.831 143.826C175.212 143.592 175.658 143.474 176.17 143.474C176.681 143.474 177.127 143.592 177.508 143.826C177.89 144.06 178.185 144.389 178.396 144.813C178.607 145.237 178.712 145.732 178.712 146.298C178.712 146.861 178.607 147.353 178.396 147.775C178.185 148.196 177.89 148.524 177.508 148.759C177.127 148.993 176.681 149.11 176.17 149.11ZM176.173 148.219C176.505 148.219 176.779 148.131 176.997 147.956C177.215 147.781 177.376 147.548 177.48 147.256C177.586 146.965 177.64 146.644 177.64 146.294C177.64 145.946 177.586 145.626 177.48 145.335C177.376 145.042 177.215 144.806 176.997 144.629C176.779 144.451 176.505 144.362 176.173 144.362C175.839 144.362 175.562 144.451 175.342 144.629C175.124 144.806 174.962 145.042 174.856 145.335C174.751 145.626 174.699 145.946 174.699 146.294C174.699 146.644 174.751 146.965 174.856 147.256C174.962 147.548 175.124 147.781 175.342 147.956C175.562 148.131 175.839 148.219 176.173 148.219ZM179.897 149V143.545H180.917V144.433H180.984C181.098 144.133 181.283 143.898 181.542 143.73C181.8 143.56 182.109 143.474 182.468 143.474C182.833 143.474 183.138 143.56 183.385 143.73C183.633 143.901 183.817 144.135 183.935 144.433H183.992C184.122 144.142 184.329 143.91 184.613 143.737C184.897 143.562 185.236 143.474 185.629 143.474C186.124 143.474 186.527 143.629 186.84 143.94C187.155 144.25 187.312 144.717 187.312 145.342V149H186.25V145.442C186.25 145.072 186.15 144.805 185.949 144.639C185.747 144.473 185.507 144.391 185.228 144.391C184.882 144.391 184.613 144.497 184.422 144.71C184.23 144.921 184.134 145.192 184.134 145.523V149H183.076V145.374C183.076 145.078 182.983 144.84 182.799 144.661C182.614 144.481 182.374 144.391 182.078 144.391C181.877 144.391 181.691 144.444 181.52 144.55C181.352 144.655 181.216 144.8 181.112 144.987C181.01 145.174 180.959 145.391 180.959 145.637V149H179.897Z" fill="white"/>
<path d="M116.476 172.727H117.577V177.511C117.577 178.02 117.457 178.471 117.218 178.864C116.979 179.254 116.643 179.562 116.21 179.787C115.776 180.009 115.268 180.121 114.686 180.121C114.106 180.121 113.599 180.009 113.166 179.787C112.733 179.562 112.397 179.254 112.158 178.864C111.919 178.471 111.799 178.02 111.799 177.511V172.727H112.896V177.422C112.896 177.751 112.969 178.043 113.113 178.299C113.26 178.555 113.467 178.756 113.734 178.903C114.002 179.047 114.319 179.119 114.686 179.119C115.055 179.119 115.374 179.047 115.641 178.903C115.911 178.756 116.117 178.555 116.259 178.299C116.404 178.043 116.476 177.751 116.476 177.422V172.727ZM120.149 176.761V180H119.087V174.545H120.106V175.433H120.173C120.299 175.144 120.495 174.912 120.763 174.737C121.033 174.562 121.373 174.474 121.782 174.474C122.154 174.474 122.479 174.553 122.759 174.709C123.038 174.863 123.255 175.092 123.409 175.398C123.562 175.703 123.639 176.081 123.639 176.531V180H122.578V176.658C122.578 176.263 122.475 175.954 122.269 175.732C122.063 175.507 121.78 175.394 121.42 175.394C121.174 175.394 120.955 175.447 120.763 175.554C120.574 175.661 120.423 175.817 120.312 176.023C120.203 176.226 120.149 176.473 120.149 176.761ZM125.063 180V174.545H126.125V180H125.063ZM125.6 173.704C125.415 173.704 125.256 173.642 125.124 173.519C124.994 173.394 124.928 173.245 124.928 173.072C124.928 172.897 124.994 172.747 125.124 172.624C125.256 172.499 125.415 172.436 125.6 172.436C125.784 172.436 125.942 172.499 126.072 172.624C126.204 172.747 126.271 172.897 126.271 173.072C126.271 173.245 126.204 173.394 126.072 173.519C125.942 173.642 125.784 173.704 125.6 173.704ZM130.1 174.545V175.398H127.12V174.545H130.1ZM127.919 173.239H128.981V178.398C128.981 178.604 129.012 178.759 129.074 178.864C129.135 178.965 129.214 179.035 129.311 179.073C129.411 179.109 129.519 179.126 129.635 179.126C129.72 179.126 129.794 179.121 129.858 179.109C129.922 179.097 129.972 179.087 130.007 179.08L130.199 179.957C130.138 179.981 130.05 180.005 129.936 180.028C129.823 180.054 129.681 180.069 129.51 180.071C129.231 180.076 128.971 180.026 128.729 179.922C128.488 179.818 128.292 179.657 128.143 179.439C127.994 179.221 127.919 178.948 127.919 178.619V173.239ZM133.567 180.11C133.029 180.11 132.566 179.995 132.178 179.766C131.792 179.534 131.494 179.208 131.283 178.789C131.075 178.368 130.971 177.874 130.971 177.308C130.971 176.75 131.075 176.257 131.283 175.831C131.494 175.405 131.787 175.072 132.164 174.833C132.543 174.594 132.985 174.474 133.492 174.474C133.8 174.474 134.098 174.525 134.387 174.627C134.676 174.729 134.935 174.889 135.165 175.107C135.394 175.324 135.575 175.607 135.708 175.955C135.84 176.301 135.907 176.721 135.907 177.216V177.592H131.571V176.797H134.866C134.866 176.518 134.809 176.27 134.696 176.055C134.582 175.837 134.422 175.665 134.216 175.54C134.013 175.414 133.774 175.352 133.499 175.352C133.201 175.352 132.94 175.425 132.718 175.572C132.498 175.716 132.327 175.906 132.206 176.14C132.088 176.372 132.029 176.624 132.029 176.896V177.518C132.029 177.882 132.093 178.192 132.221 178.448C132.351 178.704 132.532 178.899 132.764 179.034C132.996 179.167 133.267 179.233 133.577 179.233C133.778 179.233 133.962 179.205 134.128 179.148C134.293 179.089 134.437 179.001 134.557 178.885C134.678 178.769 134.77 178.626 134.834 178.455L135.839 178.636C135.759 178.932 135.614 179.192 135.406 179.414C135.2 179.634 134.941 179.806 134.628 179.929C134.318 180.05 133.964 180.11 133.567 180.11ZM139.127 180.107C138.686 180.107 138.293 179.994 137.948 179.769C137.605 179.542 137.335 179.219 137.138 178.8C136.944 178.378 136.847 177.873 136.847 177.283C136.847 176.694 136.945 176.19 137.142 175.771C137.341 175.352 137.613 175.031 137.958 174.808C138.304 174.586 138.696 174.474 139.134 174.474C139.472 174.474 139.745 174.531 139.951 174.645C140.159 174.756 140.32 174.886 140.434 175.036C140.55 175.185 140.64 175.316 140.703 175.43H140.767V172.727H141.829V180H140.792V179.151H140.703C140.64 179.267 140.547 179.4 140.426 179.549C140.308 179.698 140.145 179.828 139.936 179.94C139.728 180.051 139.458 180.107 139.127 180.107ZM139.361 179.201C139.667 179.201 139.925 179.121 140.135 178.96C140.348 178.796 140.509 178.57 140.618 178.281C140.73 177.992 140.785 177.656 140.785 177.273C140.785 176.894 140.731 176.562 140.622 176.278C140.513 175.994 140.353 175.773 140.142 175.614C139.932 175.456 139.671 175.376 139.361 175.376C139.042 175.376 138.775 175.459 138.562 175.625C138.349 175.791 138.188 176.017 138.079 176.303C137.973 176.59 137.919 176.913 137.919 177.273C137.919 177.637 137.974 177.965 138.083 178.256C138.192 178.548 138.353 178.778 138.566 178.949C138.781 179.117 139.046 179.201 139.361 179.201ZM150.043 174.638C150.005 174.302 149.849 174.041 149.574 173.857C149.3 173.67 148.954 173.576 148.537 173.576C148.239 173.576 147.981 173.623 147.763 173.718C147.545 173.81 147.376 173.938 147.255 174.102C147.137 174.263 147.078 174.446 147.078 174.652C147.078 174.825 147.118 174.974 147.199 175.099C147.281 175.225 147.389 175.33 147.522 175.415C147.657 175.498 147.801 175.568 147.955 175.625C148.109 175.679 148.257 175.724 148.399 175.76L149.109 175.945C149.341 176.001 149.579 176.078 149.823 176.175C150.067 176.272 150.293 176.4 150.501 176.559C150.709 176.718 150.877 176.914 151.005 177.148C151.136 177.383 151.201 177.663 151.201 177.99C151.201 178.402 151.094 178.768 150.881 179.087C150.67 179.407 150.364 179.659 149.961 179.844C149.561 180.028 149.077 180.121 148.509 180.121C147.964 180.121 147.493 180.034 147.096 179.862C146.698 179.689 146.386 179.444 146.162 179.126C145.937 178.807 145.812 178.428 145.789 177.99H146.89C146.911 178.253 146.996 178.472 147.145 178.647C147.297 178.82 147.49 178.949 147.724 179.034C147.961 179.117 148.22 179.158 148.502 179.158C148.812 179.158 149.088 179.11 149.329 179.013C149.573 178.913 149.765 178.776 149.904 178.601C150.044 178.423 150.114 178.216 150.114 177.979C150.114 177.764 150.052 177.588 149.929 177.45C149.809 177.313 149.644 177.199 149.436 177.109C149.23 177.019 148.997 176.94 148.736 176.871L147.877 176.637C147.294 176.478 146.833 176.245 146.492 175.938C146.153 175.63 145.984 175.223 145.984 174.716C145.984 174.297 146.098 173.931 146.325 173.619C146.552 173.306 146.86 173.063 147.248 172.891C147.636 172.715 148.074 172.628 148.562 172.628C149.055 172.628 149.489 172.714 149.865 172.887C150.244 173.06 150.542 173.298 150.76 173.601C150.978 173.902 151.092 174.247 151.101 174.638H150.043ZM154.973 174.545V175.398H151.993V174.545H154.973ZM152.792 173.239H153.854V178.398C153.854 178.604 153.885 178.759 153.947 178.864C154.008 178.965 154.087 179.035 154.184 179.073C154.284 179.109 154.392 179.126 154.508 179.126C154.593 179.126 154.667 179.121 154.731 179.109C154.795 179.097 154.845 179.087 154.881 179.08L155.072 179.957C155.011 179.981 154.923 180.005 154.809 180.028C154.696 180.054 154.554 180.069 154.383 180.071C154.104 180.076 153.844 180.026 153.602 179.922C153.361 179.818 153.165 179.657 153.016 179.439C152.867 179.221 152.792 178.948 152.792 178.619V173.239ZM157.735 180.121C157.389 180.121 157.077 180.057 156.797 179.929C156.518 179.799 156.297 179.611 156.133 179.364C155.972 179.118 155.892 178.816 155.892 178.459C155.892 178.151 155.951 177.898 156.069 177.699C156.188 177.5 156.347 177.343 156.549 177.227C156.75 177.111 156.975 177.023 157.223 176.964C157.472 176.905 157.725 176.86 157.983 176.829C158.31 176.791 158.575 176.76 158.779 176.737C158.982 176.71 159.13 176.669 159.223 176.612C159.315 176.555 159.361 176.463 159.361 176.335V176.31C159.361 176 159.274 175.76 159.098 175.589C158.926 175.419 158.667 175.334 158.324 175.334C157.967 175.334 157.685 175.413 157.479 175.572C157.275 175.728 157.135 175.902 157.056 176.094L156.059 175.866C156.177 175.535 156.35 175.268 156.577 175.064C156.807 174.858 157.071 174.709 157.369 174.616C157.667 174.522 157.981 174.474 158.31 174.474C158.528 174.474 158.759 174.5 159.002 174.553C159.249 174.602 159.478 174.695 159.691 174.83C159.907 174.964 160.083 175.157 160.221 175.408C160.358 175.657 160.426 175.98 160.426 176.378V180H159.39V179.254H159.347C159.278 179.392 159.175 179.527 159.038 179.659C158.901 179.792 158.724 179.902 158.509 179.989C158.293 180.077 158.035 180.121 157.735 180.121ZM157.966 179.268C158.259 179.268 158.51 179.21 158.718 179.094C158.929 178.978 159.089 178.827 159.198 178.64C159.309 178.451 159.365 178.248 159.365 178.033V177.33C159.327 177.367 159.253 177.403 159.145 177.436C159.038 177.467 158.916 177.494 158.779 177.518C158.641 177.539 158.508 177.559 158.377 177.578C158.247 177.595 158.138 177.609 158.051 177.621C157.845 177.647 157.657 177.691 157.486 177.752C157.318 177.814 157.183 177.902 157.081 178.018C156.982 178.132 156.932 178.284 156.932 178.473C156.932 178.736 157.029 178.935 157.223 179.07C157.417 179.202 157.665 179.268 157.966 179.268ZM164.387 174.545V175.398H161.407V174.545H164.387ZM162.206 173.239H163.268V178.398C163.268 178.604 163.299 178.759 163.361 178.864C163.422 178.965 163.501 179.035 163.599 179.073C163.698 179.109 163.806 179.126 163.922 179.126C164.007 179.126 164.081 179.121 164.145 179.109C164.209 179.097 164.259 179.087 164.295 179.08L164.486 179.957C164.425 179.981 164.337 180.005 164.224 180.028C164.11 180.054 163.968 180.069 163.797 180.071C163.518 180.076 163.258 180.026 163.016 179.922C162.775 179.818 162.579 179.657 162.43 179.439C162.281 179.221 162.206 178.948 162.206 178.619V173.239ZM167.854 180.11C167.316 180.11 166.853 179.995 166.465 179.766C166.079 179.534 165.781 179.208 165.57 178.789C165.362 178.368 165.258 177.874 165.258 177.308C165.258 176.75 165.362 176.257 165.57 175.831C165.781 175.405 166.075 175.072 166.451 174.833C166.83 174.594 167.272 174.474 167.779 174.474C168.087 174.474 168.385 174.525 168.674 174.627C168.963 174.729 169.222 174.889 169.452 175.107C169.681 175.324 169.862 175.607 169.995 175.955C170.128 176.301 170.194 176.721 170.194 177.216V177.592H165.858V176.797H169.153C169.153 176.518 169.097 176.27 168.983 176.055C168.869 175.837 168.71 175.665 168.504 175.54C168.3 175.414 168.061 175.352 167.786 175.352C167.488 175.352 167.228 175.425 167.005 175.572C166.785 175.716 166.614 175.906 166.494 176.14C166.375 176.372 166.316 176.624 166.316 176.896V177.518C166.316 177.882 166.38 178.192 166.508 178.448C166.638 178.704 166.819 178.899 167.051 179.034C167.283 179.167 167.554 179.233 167.864 179.233C168.066 179.233 168.249 179.205 168.415 179.148C168.58 179.089 168.724 179.001 168.844 178.885C168.965 178.769 169.058 178.626 169.121 178.455L170.126 178.636C170.046 178.932 169.902 179.192 169.693 179.414C169.487 179.634 169.228 179.806 168.915 179.929C168.605 180.05 168.251 180.11 167.854 180.11ZM175.459 175.877L174.497 176.048C174.457 175.924 174.393 175.807 174.305 175.696C174.22 175.585 174.104 175.494 173.957 175.423C173.81 175.352 173.627 175.316 173.407 175.316C173.106 175.316 172.855 175.384 172.654 175.518C172.453 175.651 172.352 175.823 172.352 176.033C172.352 176.216 172.42 176.362 172.555 176.474C172.689 176.585 172.907 176.676 173.208 176.747L174.074 176.946C174.576 177.062 174.95 177.241 175.197 177.482C175.443 177.724 175.566 178.037 175.566 178.423C175.566 178.75 175.471 179.041 175.282 179.297C175.095 179.55 174.833 179.749 174.497 179.893C174.163 180.038 173.776 180.11 173.336 180.11C172.725 180.11 172.227 179.98 171.841 179.719C171.455 179.457 171.218 179.084 171.131 178.601L172.157 178.445C172.221 178.712 172.352 178.915 172.551 179.052C172.75 179.187 173.009 179.254 173.329 179.254C173.677 179.254 173.955 179.182 174.163 179.038C174.372 178.891 174.476 178.712 174.476 178.501C174.476 178.331 174.412 178.188 174.284 178.072C174.158 177.956 173.965 177.868 173.705 177.809L172.782 177.607C172.273 177.491 171.896 177.306 171.653 177.053C171.411 176.799 171.29 176.478 171.29 176.09C171.29 175.768 171.38 175.487 171.56 175.245C171.74 175.004 171.989 174.815 172.306 174.68C172.623 174.543 172.987 174.474 173.396 174.474C173.986 174.474 174.45 174.602 174.788 174.858C175.127 175.111 175.35 175.451 175.459 175.877ZM181.677 180.11C181.166 180.11 180.72 179.993 180.339 179.759C179.957 179.524 179.662 179.196 179.451 178.775C179.24 178.353 179.135 177.861 179.135 177.298C179.135 176.732 179.24 176.237 179.451 175.813C179.662 175.389 179.957 175.06 180.339 174.826C180.72 174.592 181.166 174.474 181.677 174.474C182.189 174.474 182.635 174.592 183.016 174.826C183.397 175.06 183.693 175.389 183.904 175.813C184.115 176.237 184.22 176.732 184.22 177.298C184.22 177.861 184.115 178.353 183.904 178.775C183.693 179.196 183.397 179.524 183.016 179.759C182.635 179.993 182.189 180.11 181.677 180.11ZM181.681 179.219C182.012 179.219 182.287 179.131 182.505 178.956C182.723 178.781 182.884 178.548 182.988 178.256C183.094 177.965 183.148 177.644 183.148 177.294C183.148 176.946 183.094 176.626 182.988 176.335C182.884 176.042 182.723 175.806 182.505 175.629C182.287 175.451 182.012 175.362 181.681 175.362C181.347 175.362 181.07 175.451 180.85 175.629C180.632 175.806 180.47 176.042 180.363 176.335C180.259 176.626 180.207 176.946 180.207 177.294C180.207 177.644 180.259 177.965 180.363 178.256C180.47 178.548 180.632 178.781 180.85 178.956C181.07 179.131 181.347 179.219 181.681 179.219ZM188.001 174.545V175.398H184.919V174.545H188.001ZM185.764 180V173.913C185.764 173.572 185.838 173.29 185.988 173.065C186.137 172.837 186.334 172.668 186.581 172.557C186.827 172.443 187.094 172.386 187.383 172.386C187.596 172.386 187.779 172.404 187.93 172.44C188.082 172.473 188.194 172.504 188.267 172.532L188.019 173.391C187.969 173.377 187.905 173.361 187.827 173.342C187.749 173.32 187.654 173.31 187.543 173.31C187.285 173.31 187.1 173.374 186.989 173.501C186.88 173.629 186.826 173.814 186.826 174.055V180H185.764ZM192.443 180H191.278L193.895 172.727H195.163L197.78 180H196.615L194.559 174.048H194.502L192.443 180ZM192.638 177.152H196.416V178.075H192.638V177.152ZM198.745 180V174.545H199.764V175.433H199.832C199.945 175.133 200.131 174.898 200.389 174.73C200.647 174.56 200.956 174.474 201.316 174.474C201.681 174.474 201.986 174.56 202.232 174.73C202.481 174.901 202.664 175.135 202.783 175.433H202.839C202.97 175.142 203.177 174.91 203.461 174.737C203.745 174.562 204.084 174.474 204.477 174.474C204.971 174.474 205.375 174.629 205.688 174.94C206.002 175.25 206.16 175.717 206.16 176.342V180H205.098V176.442C205.098 176.072 204.997 175.805 204.796 175.639C204.595 175.473 204.355 175.391 204.075 175.391C203.73 175.391 203.461 175.497 203.269 175.71C203.077 175.921 202.982 176.192 202.982 176.523V180H201.923V176.374C201.923 176.078 201.831 175.84 201.646 175.661C201.462 175.481 201.221 175.391 200.925 175.391C200.724 175.391 200.538 175.444 200.368 175.55C200.2 175.655 200.064 175.8 199.96 175.987C199.858 176.174 199.807 176.391 199.807 176.637V180H198.745ZM209.934 180.11C209.396 180.11 208.934 179.995 208.545 179.766C208.159 179.534 207.861 179.208 207.65 178.789C207.442 178.368 207.338 177.874 207.338 177.308C207.338 176.75 207.442 176.257 207.65 175.831C207.861 175.405 208.155 175.072 208.531 174.833C208.91 174.594 209.353 174.474 209.859 174.474C210.167 174.474 210.465 174.525 210.754 174.627C211.043 174.729 211.302 174.889 211.532 175.107C211.761 175.324 211.943 175.607 212.075 175.955C212.208 176.301 212.274 176.721 212.274 177.216V177.592H207.938V176.797H211.233C211.233 176.518 211.177 176.27 211.063 176.055C210.949 175.837 210.79 175.665 210.584 175.54C210.38 175.414 210.141 175.352 209.866 175.352C209.568 175.352 209.308 175.425 209.085 175.572C208.865 175.716 208.694 175.906 208.574 176.14C208.455 176.372 208.396 176.624 208.396 176.896V177.518C208.396 177.882 208.46 178.192 208.588 178.448C208.718 178.704 208.899 178.899 209.131 179.034C209.363 179.167 209.634 179.233 209.944 179.233C210.146 179.233 210.329 179.205 210.495 179.148C210.661 179.089 210.804 179.001 210.925 178.885C211.045 178.769 211.138 178.626 211.202 178.455L212.206 178.636C212.126 178.932 211.982 179.192 211.773 179.414C211.567 179.634 211.308 179.806 210.996 179.929C210.685 180.05 210.331 180.11 209.934 180.11ZM213.452 180V174.545H214.478V175.412H214.535C214.635 175.118 214.81 174.888 215.061 174.719C215.314 174.549 215.6 174.464 215.92 174.464C215.986 174.464 216.065 174.466 216.154 174.471C216.247 174.476 216.319 174.482 216.371 174.489V175.504C216.328 175.492 216.253 175.479 216.144 175.465C216.035 175.449 215.926 175.44 215.817 175.44C215.566 175.44 215.342 175.494 215.146 175.6C214.952 175.704 214.798 175.85 214.684 176.037C214.571 176.222 214.514 176.432 214.514 176.669V180H213.452ZM217.29 180V174.545H218.352V180H217.29ZM217.826 173.704C217.642 173.704 217.483 173.642 217.35 173.519C217.22 173.394 217.155 173.245 217.155 173.072C217.155 172.897 217.22 172.747 217.35 172.624C217.483 172.499 217.642 172.436 217.826 172.436C218.011 172.436 218.168 172.499 218.298 172.624C218.431 172.747 218.497 172.897 218.497 173.072C218.497 173.245 218.431 173.394 218.298 173.519C218.168 173.642 218.011 173.704 217.826 173.704ZM222.078 180.11C221.55 180.11 221.095 179.991 220.714 179.751C220.335 179.51 220.044 179.177 219.841 178.754C219.637 178.33 219.535 177.844 219.535 177.298C219.535 176.744 219.639 176.255 219.848 175.831C220.056 175.405 220.35 175.072 220.728 174.833C221.107 174.594 221.553 174.474 222.067 174.474C222.481 174.474 222.851 174.551 223.175 174.705C223.499 174.857 223.761 175.07 223.96 175.344C224.161 175.619 224.281 175.94 224.319 176.307H223.285C223.228 176.051 223.098 175.831 222.895 175.646C222.693 175.462 222.423 175.369 222.085 175.369C221.789 175.369 221.53 175.447 221.307 175.604C221.087 175.758 220.915 175.978 220.792 176.264C220.669 176.548 220.608 176.884 220.608 177.273C220.608 177.67 220.668 178.014 220.789 178.303C220.909 178.591 221.08 178.815 221.3 178.974C221.523 179.132 221.784 179.212 222.085 179.212C222.286 179.212 222.468 179.175 222.632 179.102C222.797 179.026 222.936 178.918 223.047 178.778C223.161 178.639 223.24 178.471 223.285 178.274H224.319C224.281 178.627 224.166 178.942 223.974 179.219C223.782 179.496 223.525 179.714 223.203 179.872C222.884 180.031 222.509 180.11 222.078 180.11ZM227.041 180.121C226.696 180.121 226.383 180.057 226.104 179.929C225.825 179.799 225.603 179.611 225.44 179.364C225.279 179.118 225.198 178.816 225.198 178.459C225.198 178.151 225.258 177.898 225.376 177.699C225.494 177.5 225.654 177.343 225.855 177.227C226.057 177.111 226.281 177.023 226.53 176.964C226.779 176.905 227.032 176.86 227.29 176.829C227.617 176.791 227.882 176.76 228.085 176.737C228.289 176.71 228.437 176.669 228.529 176.612C228.622 176.555 228.668 176.463 228.668 176.335V176.31C228.668 176 228.58 175.76 228.405 175.589C228.232 175.419 227.974 175.334 227.631 175.334C227.273 175.334 226.992 175.413 226.786 175.572C226.582 175.728 226.441 175.902 226.363 176.094L225.365 175.866C225.484 175.535 225.656 175.268 225.884 175.064C226.113 174.858 226.377 174.709 226.676 174.616C226.974 174.522 227.288 174.474 227.617 174.474C227.834 174.474 228.065 174.5 228.309 174.553C228.555 174.602 228.785 174.695 228.998 174.83C229.213 174.964 229.39 175.157 229.527 175.408C229.664 175.657 229.733 175.98 229.733 176.378V180H228.696V179.254H228.654C228.585 179.392 228.482 179.527 228.345 179.659C228.207 179.792 228.031 179.902 227.816 179.989C227.6 180.077 227.342 180.121 227.041 180.121ZM227.272 179.268C227.566 179.268 227.817 179.21 228.025 179.094C228.236 178.978 228.396 178.827 228.504 178.64C228.616 178.451 228.671 178.248 228.671 178.033V177.33C228.633 177.367 228.56 177.403 228.451 177.436C228.345 177.467 228.223 177.494 228.085 177.518C227.948 177.539 227.814 177.559 227.684 177.578C227.554 177.595 227.445 177.609 227.357 177.621C227.151 177.647 226.963 177.691 226.793 177.752C226.625 177.814 226.49 177.902 226.388 178.018C226.289 178.132 226.239 178.284 226.239 178.473C226.239 178.736 226.336 178.935 226.53 179.07C226.724 179.202 226.972 179.268 227.272 179.268Z" fill="white"/>
</g>
<defs>
<filter id="filter0_d_951_18037" x="88" y="51" width="174" height="54" filterUnits="userSpaceOnUse" color-interpolation-filters="sRGB">
<feFlood flood-opacity="0" result="BackgroundImageFix"/>
<feColorMatrix in="SourceAlpha" type="matrix" values="0 0 0 0 0 0 0 0 0 0 0 0 0 0 0 0 0 0 127 0" result="hardAlpha"/>
<feOffset dy="6"/>
<feGaussianBlur stdDeviation="6"/>
<feComposite in2="hardAlpha" operator="out"/>
<feColorMatrix type="matrix" values="0 0 0 0 0 0 0 0 0 0 0 0 0 0 0 0 0 0 0.03 0"/>
<feBlend mode="normal" in2="BackgroundImageFix" result="effect1_dropShadow_951_18037"/>
<feBlend mode="normal" in="SourceGraphic" in2="effect1_dropShadow_951_18037" result="shape"/>
</filter>
<filter id="filter1_d_951_18037" x="88" y="91" width="174" height="120" filterUnits="userSpaceOnUse" color-interpolation-filters="sRGB">
<feFlood flood-opacity="0" result="BackgroundImageFix"/>
<feColorMatrix in="SourceAlpha" type="matrix" values="0 0 0 0 0 0 0 0 0 0 0 0 0 0 0 0 0 0 127 0" result="hardAlpha"/>
<feOffset dy="6"/>
<feGaussianBlur stdDeviation="6"/>
<feComposite in2="hardAlpha" operator="out"/>
<feColorMatrix type="matrix" values="0 0 0 0 0 0 0 0 0 0 0 0 0 0 0 0 0 0 0.03 0"/>
<feBlend mode="normal" in2="BackgroundImageFix" result="effect1_dropShadow_951_18037"/>
<feBlend mode="normal" in="SourceGraphic" in2="effect1_dropShadow_951_18037" result="shape"/>
</filter>
<linearGradient id="paint0_linear_951_18037" x1="105.5" y1="9.49171e-06" x2="350" y2="250" gradientUnits="userSpaceOnUse">
<stop offset="0%" stop-color="#6366F1"/>
<stop offset="1" stop-color="#0EA5E9"/>
</linearGradient>
</defs>
</svg>
