<svg width="350" height="250" viewBox="0 0 350 250" fill="none" xmlns="http://www.w3.org/2000/svg">
<rect width="350" height="250" fill="url(#paint0_linear_166_3012)"/>
<g filter="url(#filter0_d_166_3012)">
<path d="M75 65C75 62.7909 76.7909 61 79 61H271C273.209 61 275 62.7909 275 65V92C275 94.2091 273.209 96 271 96H79C76.7909 96 75 94.2091 75 92V65Z" fill="white" fill-opacity="0.05" shape-rendering="crispEdges"/>
<path d="M97.0028 74.2727V83H95.7926L91.3565 76.5994H91.2756V83H89.9588V74.2727H91.1776L95.6179 80.6818H95.6989V74.2727H97.0028ZM100.726 83.1449C100.311 83.1449 99.9364 83.0682 99.6012 82.9148C99.266 82.7585 99.0004 82.5327 98.8043 82.2372C98.6112 81.9418 98.5146 81.5795 98.5146 81.1506C98.5146 80.7812 98.5856 80.4773 98.7276 80.2386C98.8697 80 99.0614 79.8111 99.3029 79.6719C99.5444 79.5327 99.8143 79.4276 100.113 79.3565C100.411 79.2855 100.715 79.2315 101.025 79.1946C101.417 79.1491 101.735 79.1122 101.979 79.0838C102.223 79.0526 102.401 79.0028 102.512 78.9347C102.623 78.8665 102.678 78.7557 102.678 78.6023V78.5724C102.678 78.2003 102.573 77.9119 102.363 77.7074C102.155 77.5028 101.846 77.4006 101.434 77.4006C101.005 77.4006 100.667 77.4957 100.419 77.6861C100.175 77.8736 100.006 78.0824 99.9123 78.3125L98.7148 78.0398C98.8569 77.642 99.0643 77.321 99.337 77.0767C99.6126 76.8295 99.9293 76.6506 100.287 76.5398C100.645 76.4261 101.022 76.3693 101.417 76.3693C101.678 76.3693 101.955 76.4006 102.248 76.4631C102.543 76.5227 102.819 76.6335 103.074 76.7955C103.333 76.9574 103.544 77.1889 103.709 77.4901C103.874 77.7884 103.956 78.1761 103.956 78.6534V83H102.712V82.1051H102.661C102.578 82.2699 102.455 82.4318 102.29 82.5909C102.125 82.75 101.914 82.8821 101.655 82.9872C101.397 83.0923 101.087 83.1449 100.726 83.1449ZM101.003 82.1222C101.355 82.1222 101.657 82.0526 101.907 81.9134C102.159 81.7741 102.351 81.5923 102.482 81.3679C102.615 81.1406 102.682 80.8977 102.682 80.6392V79.7955C102.637 79.8409 102.549 79.8835 102.418 79.9233C102.29 79.9602 102.144 79.9929 101.979 80.0213C101.814 80.0469 101.654 80.071 101.498 80.0938C101.341 80.1136 101.211 80.1307 101.105 80.1449C100.858 80.1761 100.632 80.2287 100.428 80.3026C100.226 80.3764 100.064 80.483 99.9421 80.6222C99.8228 80.7585 99.7631 80.9403 99.7631 81.1676C99.7631 81.483 99.8796 81.7216 100.113 81.8835C100.346 82.0426 100.642 82.1222 101.003 82.1222ZM105.653 83V76.4545H106.876V77.5199H106.957C107.094 77.1591 107.317 76.8778 107.626 76.6761C107.936 76.4716 108.307 76.3693 108.739 76.3693C109.176 76.3693 109.543 76.4716 109.838 76.6761C110.136 76.8807 110.357 77.1619 110.499 77.5199H110.567C110.723 77.1705 110.972 76.892 111.312 76.6847C111.653 76.4744 112.06 76.3693 112.531 76.3693C113.125 76.3693 113.609 76.5554 113.984 76.9276C114.362 77.2997 114.551 77.8608 114.551 78.6108V83H113.277V78.7301C113.277 78.2869 113.156 77.9659 112.915 77.767C112.673 77.5682 112.385 77.4688 112.05 77.4688C111.635 77.4688 111.312 77.5966 111.082 77.8523C110.852 78.1051 110.737 78.4304 110.737 78.8281V83H109.467V78.6491C109.467 78.294 109.357 78.0085 109.135 77.7926C108.913 77.5767 108.625 77.4688 108.27 77.4688C108.028 77.4688 107.805 77.5327 107.601 77.6605C107.399 77.7855 107.236 77.9602 107.111 78.1847C106.989 78.4091 106.928 78.669 106.928 78.9645V83H105.653ZM119.08 83.1321C118.435 83.1321 117.88 82.9943 117.414 82.7188C116.951 82.4403 116.593 82.0497 116.34 81.5469C116.09 81.0412 115.965 80.4489 115.965 79.7699C115.965 79.0994 116.09 78.5085 116.34 77.9972C116.593 77.4858 116.945 77.0866 117.397 76.7997C117.851 76.5128 118.382 76.3693 118.99 76.3693C119.36 76.3693 119.718 76.4304 120.064 76.5526C120.411 76.6747 120.722 76.8665 120.998 77.1278C121.273 77.3892 121.49 77.7287 121.65 78.1463C121.809 78.5611 121.888 79.0653 121.888 79.6591V80.1108H116.685V79.1562H120.64C120.64 78.821 120.571 78.5241 120.435 78.2656C120.299 78.0043 120.107 77.7983 119.86 77.6477C119.615 77.4972 119.328 77.4219 118.999 77.4219C118.641 77.4219 118.328 77.5099 118.061 77.6861C117.797 77.8594 117.593 78.0866 117.448 78.3679C117.306 78.6463 117.235 78.9489 117.235 79.2756V80.0213C117.235 80.4588 117.311 80.831 117.465 81.1378C117.621 81.4446 117.838 81.679 118.117 81.8409C118.395 82 118.721 82.0795 119.093 82.0795C119.334 82.0795 119.554 82.0455 119.753 81.9773C119.952 81.9062 120.124 81.8011 120.269 81.6619C120.414 81.5227 120.525 81.3509 120.601 81.1463L121.807 81.3636C121.711 81.7187 121.537 82.0298 121.287 82.2969C121.04 82.5611 120.729 82.767 120.354 82.9148C119.982 83.0597 119.557 83.1321 119.08 83.1321Z" fill="white"/>
<path d="M75.5 65C75.5 63.067 77.067 61.5 79 61.5H271C272.933 61.5 274.5 63.067 274.5 65V92C274.5 93.933 272.933 95.5 271 95.5H79C77.067 95.5 75.5 93.933 75.5 92V65Z" stroke="white" stroke-opacity="0.2" shape-rendering="crispEdges"/>
</g>
<g filter="url(#filter1_d_166_3012)">
<path d="M75 115C75 112.791 76.7909 111 79 111H271C273.209 111 275 112.791 275 115V142C275 144.209 273.209 146 271 146H79C76.7909 146 75 144.209 75 142V115Z" fill="white" fill-opacity="0.05" shape-rendering="crispEdges"/>
<path d="M89.9588 133V124.273H93.0696C93.7486 124.273 94.3111 124.396 94.7571 124.643C95.2031 124.891 95.5369 125.229 95.7585 125.658C95.9801 126.084 96.0909 126.564 96.0909 127.098C96.0909 127.635 95.9787 128.118 95.7543 128.547C95.5327 128.973 95.1974 129.311 94.7486 129.561C94.3026 129.808 93.7415 129.932 93.0653 129.932H90.9261V128.815H92.946C93.375 128.815 93.723 128.741 93.9901 128.594C94.2571 128.443 94.4531 128.239 94.5781 127.98C94.7031 127.722 94.7656 127.428 94.7656 127.098C94.7656 126.768 94.7031 126.476 94.5781 126.22C94.4531 125.964 94.2557 125.764 93.9858 125.619C93.7188 125.474 93.3665 125.402 92.929 125.402H91.2756V133H89.9588ZM98.8065 129.114V133H97.5323V124.273H98.7894V127.52H98.8704C99.0238 127.168 99.2582 126.888 99.5735 126.68C99.8888 126.473 100.301 126.369 100.809 126.369C101.258 126.369 101.65 126.462 101.985 126.646C102.324 126.831 102.585 127.107 102.77 127.473C102.957 127.837 103.051 128.291 103.051 128.837V133H101.777V128.99C101.777 128.51 101.653 128.138 101.406 127.874C101.159 127.607 100.815 127.473 100.375 127.473C100.074 127.473 99.8036 127.537 99.565 127.665C99.3292 127.793 99.1431 127.98 99.0067 128.227C98.8732 128.472 98.8065 128.767 98.8065 129.114ZM107.508 133.132C106.895 133.132 106.359 132.991 105.902 132.71C105.444 132.429 105.089 132.036 104.836 131.53C104.583 131.024 104.457 130.433 104.457 129.757C104.457 129.078 104.583 128.484 104.836 127.976C105.089 127.467 105.444 127.072 105.902 126.791C106.359 126.51 106.895 126.369 107.508 126.369C108.122 126.369 108.657 126.51 109.115 126.791C109.572 127.072 109.927 127.467 110.18 127.976C110.433 128.484 110.559 129.078 110.559 129.757C110.559 130.433 110.433 131.024 110.18 131.53C109.927 132.036 109.572 132.429 109.115 132.71C108.657 132.991 108.122 133.132 107.508 133.132ZM107.512 132.062C107.91 132.062 108.24 131.957 108.501 131.747C108.762 131.537 108.956 131.257 109.081 130.908C109.208 130.558 109.272 130.173 109.272 129.753C109.272 129.335 109.208 128.952 109.081 128.602C108.956 128.25 108.762 127.967 108.501 127.754C108.24 127.541 107.91 127.435 107.512 127.435C107.112 127.435 106.779 127.541 106.515 127.754C106.254 127.967 106.059 128.25 105.931 128.602C105.806 128.952 105.744 129.335 105.744 129.753C105.744 130.173 105.806 130.558 105.931 130.908C106.059 131.257 106.254 131.537 106.515 131.747C106.779 131.957 107.112 132.062 107.512 132.062ZM113.256 129.114V133H111.982V126.455H113.205V127.52H113.286C113.436 127.173 113.672 126.895 113.993 126.685C114.317 126.474 114.724 126.369 115.216 126.369C115.662 126.369 116.053 126.463 116.388 126.651C116.723 126.835 116.983 127.111 117.168 127.477C117.352 127.844 117.445 128.297 117.445 128.837V133H116.17V128.99C116.17 128.516 116.047 128.145 115.8 127.878C115.553 127.608 115.213 127.473 114.781 127.473C114.486 127.473 114.223 127.537 113.993 127.665C113.766 127.793 113.585 127.98 113.452 128.227C113.321 128.472 113.256 128.767 113.256 129.114ZM121.974 133.132C121.33 133.132 120.774 132.994 120.308 132.719C119.845 132.44 119.487 132.05 119.234 131.547C118.984 131.041 118.859 130.449 118.859 129.77C118.859 129.099 118.984 128.509 119.234 127.997C119.487 127.486 119.839 127.087 120.291 126.8C120.746 126.513 121.277 126.369 121.885 126.369C122.254 126.369 122.612 126.43 122.959 126.553C123.305 126.675 123.616 126.866 123.892 127.128C124.168 127.389 124.385 127.729 124.544 128.146C124.703 128.561 124.783 129.065 124.783 129.659V130.111H119.58V129.156H123.534C123.534 128.821 123.466 128.524 123.33 128.266C123.193 128.004 123.001 127.798 122.754 127.648C122.51 127.497 122.223 127.422 121.893 127.422C121.536 127.422 121.223 127.51 120.956 127.686C120.692 127.859 120.487 128.087 120.342 128.368C120.2 128.646 120.129 128.949 120.129 129.276V130.021C120.129 130.459 120.206 130.831 120.359 131.138C120.516 131.445 120.733 131.679 121.011 131.841C121.29 132 121.615 132.08 121.987 132.08C122.229 132.08 122.449 132.045 122.648 131.977C122.847 131.906 123.018 131.801 123.163 131.662C123.308 131.523 123.419 131.351 123.496 131.146L124.702 131.364C124.605 131.719 124.432 132.03 124.182 132.297C123.935 132.561 123.624 132.767 123.249 132.915C122.876 133.06 122.452 133.132 121.974 133.132Z" fill="white" fill-opacity="0.5"/>
</g>
<path d="M177 175C177 167.268 183.268 161 191 161H261C268.732 161 275 167.268 275 175C275 182.732 268.732 189 261 189H191C183.268 189 177 182.732 177 175Z" fill="white" fill-opacity="0.1"/>
<path d="M192 171.5C192.116 171.5 192.227 171.546 192.309 171.628C192.391 171.71 192.438 171.821 192.438 171.938V174.562H195.062C195.179 174.562 195.29 174.609 195.372 174.691C195.454 174.773 195.5 174.884 195.5 175C195.5 175.116 195.454 175.227 195.372 175.309C195.29 175.391 195.179 175.438 195.062 175.438H192.438V178.062C192.438 178.179 192.391 178.29 192.309 178.372C192.227 178.454 192.116 178.5 192 178.5C191.884 178.5 191.773 178.454 191.691 178.372C191.609 178.29 191.562 178.179 191.562 178.062V175.438H188.938C188.821 175.438 188.71 175.391 188.628 175.309C188.546 175.227 188.5 175.116 188.5 175C188.5 174.884 188.546 174.773 188.628 174.691C188.71 174.609 188.821 174.562 188.938 174.562H191.562V171.938C191.562 171.821 191.609 171.71 191.691 171.628C191.773 171.546 191.884 171.5 192 171.5Z" fill="white"/>
<path d="M205.173 179H203.775L206.916 170.273H208.437L211.578 179H210.18L207.713 171.858H207.644L205.173 179ZM205.407 175.582H209.941V176.69H205.407V175.582ZM215.14 179.128C214.612 179.128 214.14 178.993 213.726 178.723C213.314 178.45 212.99 178.062 212.754 177.56C212.521 177.054 212.405 176.447 212.405 175.74C212.405 175.033 212.523 174.428 212.758 173.925C212.997 173.422 213.324 173.037 213.739 172.77C214.153 172.503 214.623 172.369 215.149 172.369C215.555 172.369 215.882 172.438 216.129 172.574C216.379 172.707 216.572 172.864 216.709 173.043C216.848 173.222 216.956 173.379 217.033 173.516H217.109V170.273H218.383V179H217.139V177.982H217.033C216.956 178.121 216.845 178.28 216.7 178.459C216.558 178.638 216.362 178.794 216.112 178.928C215.862 179.061 215.538 179.128 215.14 179.128ZM215.422 178.041C215.788 178.041 216.098 177.945 216.351 177.751C216.606 177.555 216.8 177.284 216.93 176.938C217.064 176.591 217.131 176.187 217.131 175.727C217.131 175.273 217.065 174.875 216.935 174.534C216.804 174.193 216.612 173.928 216.359 173.737C216.106 173.547 215.794 173.452 215.422 173.452C215.038 173.452 214.719 173.551 214.463 173.75C214.207 173.949 214.014 174.22 213.883 174.564C213.756 174.908 213.692 175.295 213.692 175.727C213.692 176.165 213.757 176.558 213.888 176.908C214.018 177.257 214.212 177.534 214.467 177.739C214.726 177.94 215.044 178.041 215.422 178.041ZM222.712 179.128C222.184 179.128 221.712 178.993 221.297 178.723C220.886 178.45 220.562 178.062 220.326 177.56C220.093 177.054 219.976 176.447 219.976 175.74C219.976 175.033 220.094 174.428 220.33 173.925C220.569 173.422 220.895 173.037 221.31 172.77C221.725 172.503 222.195 172.369 222.721 172.369C223.127 172.369 223.454 172.438 223.701 172.574C223.951 172.707 224.144 172.864 224.28 173.043C224.42 173.222 224.528 173.379 224.604 173.516H224.681V170.273H225.955V179H224.711V177.982H224.604C224.528 178.121 224.417 178.28 224.272 178.459C224.13 178.638 223.934 178.794 223.684 178.928C223.434 179.061 223.11 179.128 222.712 179.128ZM222.993 178.041C223.36 178.041 223.67 177.945 223.922 177.751C224.178 177.555 224.371 177.284 224.502 176.938C224.636 176.591 224.702 176.187 224.702 175.727C224.702 175.273 224.637 174.875 224.506 174.534C224.376 174.193 224.184 173.928 223.931 173.737C223.678 173.547 223.366 173.452 222.993 173.452C222.61 173.452 222.29 173.551 222.035 173.75C221.779 173.949 221.586 174.22 221.455 174.564C221.327 174.908 221.263 175.295 221.263 175.727C221.263 176.165 221.329 176.558 221.459 176.908C221.59 177.257 221.783 177.534 222.039 177.739C222.297 177.94 222.616 178.041 222.993 178.041ZM231.069 181.455V172.455H232.314V173.516H232.42C232.494 173.379 232.601 173.222 232.74 173.043C232.879 172.864 233.072 172.707 233.319 172.574C233.567 172.438 233.893 172.369 234.3 172.369C234.828 172.369 235.3 172.503 235.714 172.77C236.129 173.037 236.454 173.422 236.69 173.925C236.929 174.428 237.048 175.033 237.048 175.74C237.048 176.447 236.93 177.054 236.694 177.56C236.459 178.062 236.135 178.45 235.723 178.723C235.311 178.993 234.841 179.128 234.312 179.128C233.915 179.128 233.589 179.061 233.336 178.928C233.086 178.794 232.89 178.638 232.748 178.459C232.606 178.28 232.497 178.121 232.42 177.982H232.344V181.455H231.069ZM232.318 175.727C232.318 176.187 232.385 176.591 232.518 176.938C232.652 177.284 232.845 177.555 233.098 177.751C233.351 177.945 233.66 178.041 234.027 178.041C234.407 178.041 234.726 177.94 234.981 177.739C235.237 177.534 235.43 177.257 235.561 176.908C235.694 176.558 235.761 176.165 235.761 175.727C235.761 175.295 235.696 174.908 235.565 174.564C235.437 174.22 235.244 173.949 234.986 173.75C234.73 173.551 234.41 173.452 234.027 173.452C233.657 173.452 233.345 173.547 233.089 173.737C232.836 173.928 232.645 174.193 232.514 174.534C232.383 174.875 232.318 175.273 232.318 175.727ZM239.81 175.114V179H238.536V170.273H239.793V173.52H239.874C240.027 173.168 240.262 172.888 240.577 172.68C240.892 172.473 241.304 172.369 241.813 172.369C242.262 172.369 242.654 172.462 242.989 172.646C243.327 172.831 243.588 173.107 243.773 173.473C243.96 173.837 244.054 174.291 244.054 174.837V179H242.78V174.99C242.78 174.51 242.656 174.138 242.409 173.874C242.162 173.607 241.818 173.473 241.378 173.473C241.077 173.473 240.807 173.537 240.568 173.665C240.333 173.793 240.146 173.98 240.01 174.227C239.877 174.472 239.81 174.767 239.81 175.114ZM248.572 179.132C247.958 179.132 247.422 178.991 246.965 178.71C246.508 178.429 246.152 178.036 245.9 177.53C245.647 177.024 245.52 176.433 245.52 175.757C245.52 175.078 245.647 174.484 245.9 173.976C246.152 173.467 246.508 173.072 246.965 172.791C247.422 172.51 247.958 172.369 248.572 172.369C249.185 172.369 249.721 172.51 250.178 172.791C250.635 173.072 250.991 173.467 251.243 173.976C251.496 174.484 251.623 175.078 251.623 175.757C251.623 176.433 251.496 177.024 251.243 177.53C250.991 178.036 250.635 178.429 250.178 178.71C249.721 178.991 249.185 179.132 248.572 179.132ZM248.576 178.062C248.974 178.062 249.303 177.957 249.564 177.747C249.826 177.537 250.019 177.257 250.144 176.908C250.272 176.558 250.336 176.173 250.336 175.753C250.336 175.335 250.272 174.952 250.144 174.602C250.019 174.25 249.826 173.967 249.564 173.754C249.303 173.541 248.974 173.435 248.576 173.435C248.175 173.435 247.843 173.541 247.579 173.754C247.317 173.967 247.123 174.25 246.995 174.602C246.87 174.952 246.807 175.335 246.807 175.753C246.807 176.173 246.87 176.558 246.995 176.908C247.123 177.257 247.317 177.537 247.579 177.747C247.843 177.957 248.175 178.062 248.576 178.062ZM254.379 175.114V179H253.105V172.455H254.328V173.52H254.409C254.559 173.173 254.795 172.895 255.116 172.685C255.44 172.474 255.848 172.369 256.339 172.369C256.785 172.369 257.176 172.463 257.511 172.651C257.846 172.835 258.106 173.111 258.291 173.477C258.476 173.844 258.568 174.297 258.568 174.837V179H257.294V174.99C257.294 174.516 257.17 174.145 256.923 173.878C256.676 173.608 256.336 173.473 255.905 173.473C255.609 173.473 255.346 173.537 255.116 173.665C254.889 173.793 254.709 173.98 254.575 174.227C254.444 174.472 254.379 174.767 254.379 175.114ZM263.158 179.132C262.513 179.132 261.958 178.994 261.492 178.719C261.029 178.44 260.671 178.05 260.418 177.547C260.168 177.041 260.043 176.449 260.043 175.77C260.043 175.099 260.168 174.509 260.418 173.997C260.671 173.486 261.023 173.087 261.475 172.8C261.929 172.513 262.46 172.369 263.068 172.369C263.438 172.369 263.796 172.43 264.142 172.553C264.489 172.675 264.8 172.866 265.075 173.128C265.351 173.389 265.568 173.729 265.727 174.146C265.886 174.561 265.966 175.065 265.966 175.659V176.111H260.763V175.156H264.717C264.717 174.821 264.649 174.524 264.513 174.266C264.377 174.004 264.185 173.798 263.938 173.648C263.693 173.497 263.406 173.422 263.077 173.422C262.719 173.422 262.406 173.51 262.139 173.686C261.875 173.859 261.671 174.087 261.526 174.368C261.384 174.646 261.313 174.949 261.313 175.276V176.021C261.313 176.459 261.389 176.831 261.543 177.138C261.699 177.445 261.916 177.679 262.195 177.841C262.473 178 262.798 178.08 263.171 178.08C263.412 178.08 263.632 178.045 263.831 177.977C264.03 177.906 264.202 177.801 264.347 177.662C264.492 177.523 264.602 177.351 264.679 177.146L265.885 177.364C265.788 177.719 265.615 178.03 265.365 178.297C265.118 178.561 264.807 178.767 264.432 178.915C264.06 179.06 263.635 179.132 263.158 179.132Z" fill="white"/>
<defs>
<filter id="filter0_d_166_3012" x="63" y="55" width="224" height="59" filterUnits="userSpaceOnUse" color-interpolation-filters="sRGB">
<feFlood flood-opacity="0" result="BackgroundImageFix"/>
<feColorMatrix in="SourceAlpha" type="matrix" values="0 0 0 0 0 0 0 0 0 0 0 0 0 0 0 0 0 0 127 0" result="hardAlpha"/>
<feOffset dy="6"/>
<feGaussianBlur stdDeviation="6"/>
<feComposite in2="hardAlpha" operator="out"/>
<feColorMatrix type="matrix" values="0 0 0 0 0 0 0 0 0 0 0 0 0 0 0 0 0 0 0.03 0"/>
<feBlend mode="normal" in2="BackgroundImageFix" result="effect1_dropShadow_166_3012"/>
<feBlend mode="normal" in="SourceGraphic" in2="effect1_dropShadow_166_3012" result="shape"/>
</filter>
<filter id="filter1_d_166_3012" x="63" y="105" width="224" height="59" filterUnits="userSpaceOnUse" color-interpolation-filters="sRGB">
<feFlood flood-opacity="0" result="BackgroundImageFix"/>
<feColorMatrix in="SourceAlpha" type="matrix" values="0 0 0 0 0 0 0 0 0 0 0 0 0 0 0 0 0 0 127 0" result="hardAlpha"/>
<feOffset dy="6"/>
<feGaussianBlur stdDeviation="6"/>
<feComposite in2="hardAlpha" operator="out"/>
<feColorMatrix type="matrix" values="0 0 0 0 0 0 0 0 0 0 0 0 0 0 0 0 0 0 0.03 0"/>
<feBlend mode="normal" in2="BackgroundImageFix" result="effect1_dropShadow_166_3012"/>
<feBlend mode="normal" in="SourceGraphic" in2="effect1_dropShadow_166_3012" result="shape"/>
</filter>
<linearGradient id="paint0_linear_166_3012" x1="105.5" y1="9.49171e-06" x2="350" y2="250" gradientUnits="userSpaceOnUse">
<stop offset="0%" stop-color="#6366F1"/>
<stop offset="1" stop-color="#0EA5E9"/>
</linearGradient>
</defs>
</svg>
