<svg width="350" height="250" viewBox="0 0 350 250" fill="none" xmlns="http://www.w3.org/2000/svg">
<rect width="350" height="250" fill="url(#paint0_linear_2640_1560)"/>
<g filter="url(#filter0_d_2640_1560)">
<path d="M58 51C58 46.5817 61.5817 43 66 43H285C289.418 43 293 46.5817 293 51V200C293 204.418 289.418 208 285 208H66C61.5817 208 58 204.418 58 200V51Z" fill="white" fill-opacity="0.1" shape-rendering="crispEdges"/>
<path d="M285 42.5H66C61.3056 42.5 57.5 46.3056 57.5 51V200C57.5 204.694 61.3056 208.5 66 208.5H285C289.694 208.5 293.5 204.694 293.5 200V51C293.5 46.3056 289.694 42.5 285 42.5Z" stroke="white" stroke-opacity="0.2" shape-rendering="crispEdges"/>
<path d="M68 59C68 55.6863 70.6863 53 74 53H159C162.314 53 165 55.6863 165 59V67C165 70.3137 162.314 73 159 73H74C70.6863 73 68 70.3137 68 67V59Z" fill="white" fill-opacity="0.05"/>
<path d="M74 53.5H159C162.038 53.5 164.5 55.9624 164.5 59V67C164.5 70.0376 162.038 72.5 159 72.5H74C70.9624 72.5 68.5 70.0376 68.5 67V59C68.5 55.9624 70.9624 53.5 74 53.5Z" stroke="white" stroke-opacity="0.2"/>
<g clip-path="url(#clip0_2640_1560)">
<path d="M77.5833 65.9167C79.4243 65.9167 80.9167 64.4243 80.9167 62.5833C80.9167 60.7424 79.4243 59.25 77.5833 59.25C75.7424 59.25 74.25 60.7424 74.25 62.5833C74.25 64.4243 75.7424 65.9167 77.5833 65.9167Z" stroke="white" stroke-linecap="round" stroke-linejoin="round"/>
<path d="M81.75 66.75L79.9584 64.9584" stroke="white" stroke-linecap="round" stroke-linejoin="round"/>
</g>
<path d="M90.8125 61.7102C90.7822 61.4413 90.6572 61.233 90.4375 61.0852C90.2178 60.9356 89.9413 60.8608 89.608 60.8608C89.3693 60.8608 89.1629 60.8987 88.9886 60.9744C88.8144 61.0483 88.679 61.1506 88.5824 61.2812C88.4877 61.41 88.4403 61.5568 88.4403 61.7216C88.4403 61.8598 88.4725 61.9792 88.5369 62.0795C88.6032 62.1799 88.6894 62.2642 88.7955 62.3324C88.9034 62.3987 89.0189 62.4545 89.142 62.5C89.2652 62.5436 89.3835 62.5795 89.4972 62.608L90.0653 62.7557C90.2509 62.8011 90.4413 62.8627 90.6364 62.9403C90.8314 63.018 91.0123 63.1203 91.179 63.2472C91.3456 63.3741 91.4801 63.5312 91.5824 63.7188C91.6866 63.9062 91.7386 64.1307 91.7386 64.392C91.7386 64.7216 91.6534 65.0142 91.483 65.2699C91.3144 65.5256 91.0691 65.7273 90.7472 65.875C90.4271 66.0227 90.0398 66.0966 89.5852 66.0966C89.1496 66.0966 88.7727 66.0275 88.4545 65.8892C88.1364 65.7509 87.8873 65.5549 87.7074 65.3011C87.5275 65.0455 87.428 64.7424 87.4091 64.392H88.2898C88.3068 64.6023 88.375 64.7775 88.4943 64.9176C88.6155 65.0559 88.7699 65.1591 88.9574 65.2273C89.1468 65.2936 89.3542 65.3267 89.5795 65.3267C89.8277 65.3267 90.0483 65.2879 90.2415 65.2102C90.4366 65.1307 90.59 65.0208 90.7017 64.8807C90.8134 64.7386 90.8693 64.5729 90.8693 64.3835C90.8693 64.2112 90.8201 64.0701 90.7216 63.9602C90.625 63.8504 90.4934 63.7595 90.3267 63.6875C90.1619 63.6155 89.9754 63.5521 89.767 63.4972L89.0795 63.3097C88.6136 63.1828 88.2443 62.9962 87.9716 62.75C87.7008 62.5038 87.5653 62.178 87.5653 61.7727C87.5653 61.4375 87.6563 61.1449 87.8381 60.8949C88.0199 60.6449 88.2661 60.4508 88.5767 60.3125C88.8873 60.1723 89.2377 60.1023 89.6278 60.1023C90.0218 60.1023 90.3693 60.1714 90.6705 60.3097C90.9735 60.4479 91.2121 60.6383 91.3864 60.8807C91.5606 61.1212 91.6515 61.3977 91.6591 61.7102H90.8125ZM94.6001 66.0881C94.1702 66.0881 93.8 65.9962 93.4893 65.8125C93.1806 65.6269 92.942 65.3665 92.7734 65.0312C92.6068 64.6941 92.5234 64.2992 92.5234 63.8466C92.5234 63.3996 92.6068 63.0057 92.7734 62.6648C92.942 62.3239 93.1768 62.0578 93.478 61.8665C93.781 61.6752 94.1352 61.5795 94.5405 61.5795C94.7867 61.5795 95.0253 61.6203 95.2564 61.7017C95.4875 61.7831 95.6948 61.911 95.8786 62.0852C96.0623 62.2595 96.2071 62.4858 96.3132 62.7642C96.4193 63.0407 96.4723 63.3769 96.4723 63.7727V64.0739H93.0036V63.4375H95.6399C95.6399 63.214 95.5945 63.0161 95.5036 62.8438C95.4126 62.6695 95.2848 62.5322 95.12 62.4318C94.9571 62.3314 94.7659 62.2812 94.5462 62.2812C94.3075 62.2812 94.0992 62.34 93.9212 62.4574C93.745 62.5729 93.6087 62.7244 93.5121 62.9119C93.4174 63.0975 93.37 63.2992 93.37 63.517V64.0142C93.37 64.3059 93.4212 64.554 93.5234 64.7585C93.6276 64.9631 93.7725 65.1193 93.9581 65.2273C94.1437 65.3333 94.3606 65.3864 94.6087 65.3864C94.7696 65.3864 94.9164 65.3636 95.049 65.3182C95.1816 65.2708 95.2962 65.2008 95.3928 65.108C95.4893 65.0152 95.5632 64.9006 95.6143 64.7642L96.4183 64.9091C96.3539 65.1458 96.2384 65.3532 96.0717 65.5312C95.907 65.7074 95.6996 65.8447 95.4496 65.9432C95.2015 66.0398 94.9183 66.0881 94.6001 66.0881ZM98.6847 66.0966C98.4081 66.0966 98.1581 66.0455 97.9347 65.9432C97.7112 65.839 97.5341 65.6884 97.4034 65.4915C97.2746 65.2945 97.2102 65.053 97.2102 64.767C97.2102 64.5208 97.2576 64.3182 97.3523 64.1591C97.447 64 97.5748 63.8741 97.7358 63.7812C97.8968 63.6884 98.0767 63.6184 98.2756 63.571C98.4744 63.5237 98.6771 63.4877 98.8835 63.4631C99.1449 63.4328 99.357 63.4081 99.5199 63.3892C99.6828 63.3684 99.8011 63.3352 99.875 63.2898C99.9489 63.2443 99.9858 63.1705 99.9858 63.0682V63.0483C99.9858 62.8002 99.9157 62.608 99.7756 62.4716C99.6373 62.3352 99.4309 62.267 99.1562 62.267C98.8703 62.267 98.6449 62.3305 98.4801 62.4574C98.3172 62.5824 98.2045 62.7216 98.142 62.875L97.3438 62.6932C97.4384 62.428 97.5767 62.214 97.7585 62.0511C97.9422 61.8864 98.1534 61.767 98.392 61.6932C98.6307 61.6174 98.8816 61.5795 99.1449 61.5795C99.3191 61.5795 99.5038 61.6004 99.6989 61.642C99.8958 61.6818 100.08 61.7557 100.25 61.8636C100.422 61.9716 100.563 62.1259 100.673 62.3267C100.783 62.5256 100.838 62.7841 100.838 63.1023V66H100.009V65.4034H99.9744C99.9195 65.5133 99.8371 65.6212 99.7273 65.7273C99.6174 65.8333 99.4763 65.9214 99.304 65.9915C99.1316 66.0616 98.9252 66.0966 98.6847 66.0966ZM98.8693 65.4148C99.1042 65.4148 99.3049 65.3684 99.4716 65.2756C99.6402 65.1828 99.768 65.0616 99.8551 64.9119C99.9441 64.7604 99.9886 64.5985 99.9886 64.4261V63.8636C99.9583 63.8939 99.8996 63.9223 99.8125 63.9489C99.7273 63.9735 99.6297 63.9953 99.5199 64.0142C99.41 64.0312 99.303 64.0473 99.1989 64.0625C99.0947 64.0758 99.0076 64.0871 98.9375 64.0966C98.7727 64.1174 98.6222 64.1525 98.4858 64.2017C98.3513 64.2509 98.2434 64.322 98.1619 64.4148C98.0824 64.5057 98.0426 64.6269 98.0426 64.7784C98.0426 64.9886 98.1203 65.1477 98.2756 65.2557C98.4309 65.3617 98.6288 65.4148 98.8693 65.4148ZM101.969 66V61.6364H102.79V62.3295H102.836C102.915 62.0947 103.056 61.91 103.256 61.7756C103.459 61.6392 103.688 61.571 103.944 61.571C103.997 61.571 104.059 61.5729 104.131 61.5767C104.205 61.5805 104.263 61.5852 104.305 61.5909V62.4034C104.271 62.3939 104.21 62.3835 104.123 62.3722C104.036 62.3589 103.949 62.3523 103.862 62.3523C103.661 62.3523 103.482 62.3949 103.325 62.4801C103.169 62.5634 103.046 62.6799 102.955 62.8295C102.864 62.9773 102.819 63.1458 102.819 63.3352V66H101.969ZM106.722 66.0881C106.299 66.0881 105.936 65.9924 105.631 65.8011C105.328 65.608 105.095 65.3419 104.932 65.0028C104.769 64.6638 104.688 64.2756 104.688 63.8381C104.688 63.3949 104.771 63.0038 104.938 62.6648C105.104 62.3239 105.339 62.0578 105.642 61.8665C105.945 61.6752 106.302 61.5795 106.713 61.5795C107.045 61.5795 107.34 61.6411 107.599 61.7642C107.859 61.8854 108.068 62.0559 108.227 62.2756C108.388 62.4953 108.484 62.7519 108.514 63.0455H107.688C107.642 62.8409 107.538 62.6648 107.375 62.517C107.214 62.3693 106.998 62.2955 106.727 62.2955C106.491 62.2955 106.283 62.358 106.105 62.483C105.929 62.6061 105.792 62.7822 105.693 63.0114C105.595 63.2386 105.545 63.5076 105.545 63.8182C105.545 64.1364 105.594 64.411 105.69 64.642C105.787 64.8731 105.923 65.0521 106.099 65.179C106.277 65.3059 106.487 65.3693 106.727 65.3693C106.888 65.3693 107.034 65.34 107.165 65.2812C107.297 65.2206 107.408 65.1345 107.497 65.0227C107.588 64.911 107.652 64.7765 107.688 64.6193H108.514C108.484 64.9015 108.392 65.1534 108.239 65.375C108.085 65.5966 107.88 65.7708 107.622 65.8977C107.366 66.0246 107.066 66.0881 106.722 66.0881ZM110.272 63.4091V66H109.423V60.1818H110.261V62.3466H110.315C110.417 62.1117 110.573 61.9252 110.783 61.7869C110.994 61.6487 111.268 61.5795 111.607 61.5795C111.906 61.5795 112.168 61.6411 112.391 61.7642C112.617 61.8873 112.791 62.071 112.914 62.3153C113.039 62.5578 113.102 62.8608 113.102 63.2244V66H112.252V63.3267C112.252 63.0066 112.17 62.7585 112.005 62.5824C111.84 62.4044 111.611 62.3153 111.317 62.3153C111.117 62.3153 110.937 62.358 110.778 62.4432C110.621 62.5284 110.496 62.6534 110.406 62.8182C110.317 62.9811 110.272 63.178 110.272 63.4091Z" fill="white"/>
<path d="M250 59C250 55.6863 252.686 53 256 53H277C280.314 53 283 55.6863 283 59V67C283 70.3137 280.314 73 277 73H256C252.686 73 250 70.3137 250 67V59Z" fill="white" fill-opacity="0.05"/>
<path d="M256 53.5H277C280.038 53.5 282.5 55.9624 282.5 59V67C282.5 70.0376 280.038 72.5 277 72.5H256C252.962 72.5 250.5 70.0376 250.5 67V59C250.5 55.9624 252.962 53.5 256 53.5Z" stroke="white" stroke-opacity="0.2"/>
<path d="M257.767 60.1818V66H256.886V61.0625H256.852L255.46 61.9716V61.1307L256.912 60.1818H257.767ZM261.366 66.0966C260.918 66.0947 260.534 65.9763 260.216 65.7415C259.898 65.5066 259.654 65.1648 259.486 64.7159C259.317 64.267 259.233 63.7263 259.233 63.0938C259.233 62.4631 259.317 61.9242 259.486 61.4773C259.656 61.0303 259.901 60.6894 260.219 60.4545C260.539 60.2197 260.921 60.1023 261.366 60.1023C261.812 60.1023 262.193 60.2206 262.511 60.4574C262.83 60.6922 263.073 61.0331 263.241 61.4801C263.412 61.9252 263.497 62.4631 263.497 63.0938C263.497 63.7282 263.413 64.2699 263.244 64.7188C263.076 65.1657 262.832 65.5076 262.514 65.7443C262.196 65.9792 261.813 66.0966 261.366 66.0966ZM261.366 65.3381C261.76 65.3381 262.068 65.1458 262.29 64.7614C262.513 64.3769 262.625 63.821 262.625 63.0938C262.625 62.6108 262.574 62.2027 262.472 61.8693C262.371 61.5341 262.226 61.2803 262.037 61.108C261.849 60.9337 261.626 60.8466 261.366 60.8466C260.974 60.8466 260.667 61.0398 260.443 61.4261C260.22 61.8125 260.107 62.3684 260.105 63.0938C260.105 63.5786 260.155 63.9886 260.256 64.3239C260.358 64.6572 260.503 64.91 260.69 65.0824C260.878 65.2528 261.103 65.3381 261.366 65.3381Z" fill="white"/>
<path d="M270.917 64.25L273 66.3333L275.083 64.25" stroke="white" stroke-linecap="round" stroke-linejoin="round"/>
<path d="M270.917 61.75L273 59.6666L275.083 61.75" stroke="white" stroke-linecap="round" stroke-linejoin="round"/>
<mask id="path-13-inside-1_2640_1560" fill="white">
<path d="M68 82H283V106H68V82Z"/>
</mask>
<path d="M68 83H283V81H68V83ZM283 105H68V107H283V105Z" fill="white" fill-opacity="0.2" mask="url(#path-13-inside-1_2640_1560)"/>
<path d="M68 94C68 92.8954 68.8954 92 70 92H86C87.1046 92 88 92.8954 88 94V94C88 95.1046 87.1046 96 86 96H70C68.8954 96 68 95.1046 68 94V94Z" fill="white"/>
<path d="M145 94C145 92.8954 145.895 92 147 92H173C174.105 92 175 92.8954 175 94V94C175 95.1046 174.105 96 173 96H147C145.895 96 145 95.1046 145 94V94Z" fill="white"/>
<path d="M190 94C190 92.8954 190.895 92 192 92H208C209.105 92 210 92.8954 210 94V94C210 95.1046 209.105 96 208 96H192C190.895 96 190 95.1046 190 94V94Z" fill="white"/>
<path d="M249 94C249 92.8954 249.895 92 251 92H255C256.105 92 257 92.8954 257 94V94C257 95.1046 256.105 96 255 96H251C249.895 96 249 95.1046 249 94V94Z" fill="white"/>
<mask id="path-19-inside-2_2640_1560" fill="white">
<path d="M68 105H283V129H68V105Z"/>
</mask>
<path d="M68 106H283V104H68V106ZM283 128H68V130H283V128Z" fill="white" fill-opacity="0.2" mask="url(#path-19-inside-2_2640_1560)"/>
<path d="M68 117C68 115.895 68.8954 115 70 115H107C108.105 115 109 115.895 109 117V117C109 118.105 108.105 119 107 119H70C68.8954 119 68 118.105 68 117V117Z" fill="white"/>
<path d="M145 117C145 115.895 145.895 115 147 115H173C174.105 115 175 115.895 175 117V117C175 118.105 174.105 119 173 119H147C145.895 119 145 118.105 145 117V117Z" fill="white" fill-opacity="0.3"/>
<path d="M190 117C190 115.895 190.895 115 192 115H232C233.105 115 234 115.895 234 117V117C234 118.105 233.105 119 232 119H192C190.895 119 190 118.105 190 117V117Z" fill="white" fill-opacity="0.3"/>
<path d="M249 117C249 115.895 249.895 115 251 115H255C256.105 115 257 115.895 257 117V117C257 118.105 256.105 119 255 119H251C249.895 119 249 118.105 249 117V117Z" fill="white" fill-opacity="0.3"/>
<mask id="path-25-inside-3_2640_1560" fill="white">
<path d="M68 128H283V152H68V128Z"/>
</mask>
<path d="M68 129H283V127H68V129ZM283 151H68V153H283V151Z" fill="white" fill-opacity="0.2" mask="url(#path-25-inside-3_2640_1560)"/>
<path d="M68 140C68 138.895 68.8954 138 70 138H98C99.1046 138 100 138.895 100 140V140C100 141.105 99.1046 142 98 142H70C68.8954 142 68 141.105 68 140V140Z" fill="white"/>
<path d="M145 140C145 138.895 145.895 138 147 138H173C174.105 138 175 138.895 175 140V140C175 141.105 174.105 142 173 142H147C145.895 142 145 141.105 145 140V140Z" fill="white" fill-opacity="0.3"/>
<path d="M190 140C190 138.895 190.895 138 192 138H232C233.105 138 234 138.895 234 140V140C234 141.105 233.105 142 232 142H192C190.895 142 190 141.105 190 140V140Z" fill="white" fill-opacity="0.3"/>
<path d="M249 140C249 138.895 249.895 138 251 138H255C256.105 138 257 138.895 257 140V140C257 141.105 256.105 142 255 142H251C249.895 142 249 141.105 249 140V140Z" fill="white" fill-opacity="0.3"/>
<mask id="path-31-inside-4_2640_1560" fill="white">
<path d="M68 151H283V175H68V151Z"/>
</mask>
<path d="M68 152H283V150H68V152ZM283 174H68V176H283V174Z" fill="white" fill-opacity="0.2" mask="url(#path-31-inside-4_2640_1560)"/>
<path d="M68 163C68 161.895 68.8954 161 70 161H84C85.1046 161 86 161.895 86 163V163C86 164.105 85.1046 165 84 165H70C68.8954 165 68 164.105 68 163V163Z" fill="white"/>
<path d="M145 163C145 161.895 145.895 161 147 161H173C174.105 161 175 161.895 175 163V163C175 164.105 174.105 165 173 165H147C145.895 165 145 164.105 145 163V163Z" fill="white" fill-opacity="0.3"/>
<path d="M190 163C190 161.895 190.895 161 192 161H232C233.105 161 234 161.895 234 163V163C234 164.105 233.105 165 232 165H192C190.895 165 190 164.105 190 163V163Z" fill="white" fill-opacity="0.3"/>
<path d="M249 163C249 161.895 249.895 161 251 161H255C256.105 161 257 161.895 257 163V163C257 164.105 256.105 165 255 165H251C249.895 165 249 164.105 249 163V163Z" fill="white" fill-opacity="0.3"/>
<mask id="path-37-inside-5_2640_1560" fill="white">
<path d="M68 174H257V198H68V174Z"/>
</mask>
<path d="M68 175H257V173H68V175Z" fill="white" fill-opacity="0.2" mask="url(#path-37-inside-5_2640_1560)"/>
<path d="M68 186C68 184.895 68.8954 184 70 184H102C103.105 184 104 184.895 104 186V186C104 187.105 103.105 188 102 188H70C68.8954 188 68 187.105 68 186V186Z" fill="white"/>
<path d="M145 186C145 184.895 145.895 184 147 184H173C174.105 184 175 184.895 175 186V186C175 187.105 174.105 188 173 188H147C145.895 188 145 187.105 145 186V186Z" fill="white" fill-opacity="0.3"/>
<path d="M190 186C190 184.895 190.895 184 192 184H232C233.105 184 234 184.895 234 186V186C234 187.105 233.105 188 232 188H192C190.895 188 190 187.105 190 186V186Z" fill="white" fill-opacity="0.3"/>
<path d="M249 186C249 184.895 249.895 184 251 184H255C256.105 184 257 184.895 257 186V186C257 187.105 256.105 188 255 188H251C249.895 188 249 187.105 249 186V186Z" fill="white" fill-opacity="0.3"/>
</g>
<defs>
<filter id="filter0_d_2640_1560" x="45" y="36" width="261" height="191" filterUnits="userSpaceOnUse" color-interpolation-filters="sRGB">
<feFlood flood-opacity="0" result="BackgroundImageFix"/>
<feColorMatrix in="SourceAlpha" type="matrix" values="0 0 0 0 0 0 0 0 0 0 0 0 0 0 0 0 0 0 127 0" result="hardAlpha"/>
<feOffset dy="6"/>
<feGaussianBlur stdDeviation="6"/>
<feComposite in2="hardAlpha" operator="out"/>
<feColorMatrix type="matrix" values="0 0 0 0 0 0 0 0 0 0 0 0 0 0 0 0 0 0 0.03 0"/>
<feBlend mode="normal" in2="BackgroundImageFix" result="effect1_dropShadow_2640_1560"/>
<feBlend mode="normal" in="SourceGraphic" in2="effect1_dropShadow_2640_1560" result="shape"/>
</filter>
<linearGradient id="paint0_linear_2640_1560" x1="-36" y1="-30.5" x2="541" y2="271" gradientUnits="userSpaceOnUse">
<stop stop-color="#E879F9"/>
<stop offset="1" stop-color="#6D28D9"/>
</linearGradient>
<clipPath id="clip0_2640_1560">
<rect width="10" height="10" fill="white" transform="translate(73 58)"/>
</clipPath>
</defs>
</svg>
