<svg width="350" height="250" viewBox="0 0 350 250" fill="none" xmlns="http://www.w3.org/2000/svg">
<rect width="350" height="250" fill="#6366F1"/>
<g filter="url(#filter0_d_125_137)">
<path d="M110 55C110 52.7909 111.791 51 114 51H236C238.209 51 240 52.7909 240 55V73C240 75.2091 238.209 77 236 77H114C111.791 77 110 75.2091 110 73V55Z" fill="white" fill-opacity="0.05" shape-rendering="crispEdges"/>
<path d="M121.131 67H120.199L122.293 61.1818H123.307L125.401 67H124.469L122.824 62.2386H122.778L121.131 67ZM121.287 64.7216H124.31V65.4602H121.287V64.7216ZM127.94 67.0881C127.518 67.0881 127.154 66.9924 126.849 66.8011C126.546 66.608 126.313 66.3419 126.151 66.0028C125.988 65.6638 125.906 65.2756 125.906 64.8381C125.906 64.3949 125.99 64.0038 126.156 63.6648C126.323 63.3239 126.558 63.0578 126.861 62.8665C127.164 62.6752 127.521 62.5795 127.932 62.5795C128.263 62.5795 128.559 62.6411 128.818 62.7642C129.078 62.8854 129.287 63.0559 129.446 63.2756C129.607 63.4953 129.703 63.7519 129.733 64.0455H128.906C128.861 63.8409 128.757 63.6648 128.594 63.517C128.433 63.3693 128.217 63.2955 127.946 63.2955C127.709 63.2955 127.502 63.358 127.324 63.483C127.148 63.6061 127.01 63.7822 126.912 64.0114C126.813 64.2386 126.764 64.5076 126.764 64.8182C126.764 65.1364 126.813 65.411 126.909 65.642C127.006 65.8731 127.142 66.0521 127.318 66.179C127.496 66.3059 127.705 66.3693 127.946 66.3693C128.107 66.3693 128.253 66.34 128.384 66.2812C128.516 66.2206 128.627 66.1345 128.716 66.0227C128.807 65.911 128.87 65.7765 128.906 65.6193H129.733C129.703 65.9015 129.611 66.1534 129.457 66.375C129.304 66.5966 129.098 66.7708 128.841 66.8977C128.585 67.0246 128.285 67.0881 127.94 67.0881ZM132.479 67.0881C132.057 67.0881 131.693 66.9924 131.388 66.8011C131.085 66.608 130.853 66.3419 130.69 66.0028C130.527 65.6638 130.445 65.2756 130.445 64.8381C130.445 64.3949 130.529 64.0038 130.695 63.6648C130.862 63.3239 131.097 63.0578 131.4 62.8665C131.703 62.6752 132.06 62.5795 132.471 62.5795C132.802 62.5795 133.098 62.6411 133.357 62.7642C133.617 62.8854 133.826 63.0559 133.985 63.2756C134.146 63.4953 134.242 63.7519 134.272 64.0455H133.445C133.4 63.8409 133.296 63.6648 133.133 63.517C132.972 63.3693 132.756 63.2955 132.485 63.2955C132.248 63.2955 132.041 63.358 131.863 63.483C131.687 63.6061 131.549 63.7822 131.451 64.0114C131.353 64.2386 131.303 64.5076 131.303 64.8182C131.303 65.1364 131.352 65.411 131.448 65.642C131.545 65.8731 131.681 66.0521 131.857 66.179C132.035 66.3059 132.245 66.3693 132.485 66.3693C132.646 66.3693 132.792 66.34 132.923 66.2812C133.055 66.2206 133.166 66.1345 133.255 66.0227C133.346 65.911 133.409 65.7765 133.445 65.6193H134.272C134.242 65.9015 134.15 66.1534 133.996 66.375C133.843 66.5966 133.638 66.7708 133.38 66.8977C133.124 67.0246 132.824 67.0881 132.479 67.0881ZM137.018 67.0881C136.609 67.0881 136.252 66.9943 135.947 66.8068C135.643 66.6193 135.406 66.357 135.237 66.0199C135.069 65.6828 134.984 65.2888 134.984 64.8381C134.984 64.3854 135.069 63.9896 135.237 63.6506C135.406 63.3116 135.643 63.0483 135.947 62.8608C136.252 62.6733 136.609 62.5795 137.018 62.5795C137.428 62.5795 137.785 62.6733 138.089 62.8608C138.394 63.0483 138.631 63.3116 138.8 63.6506C138.968 63.9896 139.053 64.3854 139.053 64.8381C139.053 65.2888 138.968 65.6828 138.8 66.0199C138.631 66.357 138.394 66.6193 138.089 66.8068C137.785 66.9943 137.428 67.0881 137.018 67.0881ZM137.021 66.375C137.286 66.375 137.506 66.3049 137.68 66.1648C137.855 66.0246 137.983 65.8381 138.067 65.6051C138.152 65.3722 138.195 65.1155 138.195 64.8352C138.195 64.5568 138.152 64.3011 138.067 64.0682C137.983 63.8333 137.855 63.6449 137.68 63.5028C137.506 63.3608 137.286 63.2898 137.021 63.2898C136.754 63.2898 136.533 63.3608 136.357 63.5028C136.182 63.6449 136.053 63.8333 135.967 64.0682C135.884 64.3011 135.842 64.5568 135.842 64.8352C135.842 65.1155 135.884 65.3722 135.967 65.6051C136.053 65.8381 136.182 66.0246 136.357 66.1648C136.533 66.3049 136.754 66.375 137.021 66.375ZM142.765 65.1903V62.6364H143.617V67H142.782V66.2443H142.737C142.636 66.4773 142.475 66.6714 142.254 66.8267C142.034 66.9801 141.76 67.0568 141.433 67.0568C141.152 67.0568 140.904 66.9953 140.688 66.8722C140.474 66.7472 140.306 66.5625 140.183 66.3182C140.061 66.0739 140.001 65.7718 140.001 65.4119V62.6364H140.85V65.3097C140.85 65.607 140.933 65.8437 141.097 66.0199C141.262 66.196 141.476 66.2841 141.739 66.2841C141.898 66.2841 142.057 66.2443 142.214 66.1648C142.373 66.0852 142.504 65.965 142.609 65.804C142.715 65.643 142.767 65.4384 142.765 65.1903ZM145.608 64.4091V67H144.759V62.6364H145.574V63.3466H145.628C145.728 63.1155 145.885 62.9299 146.099 62.7898C146.315 62.6496 146.587 62.5795 146.915 62.5795C147.212 62.5795 147.473 62.642 147.696 62.767C147.92 62.8902 148.093 63.0739 148.216 63.3182C148.339 63.5625 148.401 63.8646 148.401 64.2244V67H147.551V64.3267C147.551 64.0104 147.469 63.7633 147.304 63.5852C147.139 63.4053 146.913 63.3153 146.625 63.3153C146.428 63.3153 146.253 63.358 146.099 63.4432C145.948 63.5284 145.828 63.6534 145.739 63.8182C145.652 63.9811 145.608 64.178 145.608 64.4091ZM151.577 62.6364V63.3182H149.193V62.6364H151.577ZM149.832 61.5909H150.682V65.7188C150.682 65.8835 150.706 66.0076 150.756 66.0909C150.805 66.1723 150.868 66.2282 150.946 66.2585C151.026 66.2869 151.112 66.3011 151.205 66.3011C151.273 66.3011 151.332 66.2964 151.384 66.2869C151.435 66.2775 151.474 66.2699 151.503 66.2642L151.656 66.9659C151.607 66.9848 151.537 67.0038 151.446 67.0227C151.355 67.0436 151.241 67.0549 151.105 67.0568C150.882 67.0606 150.673 67.0208 150.48 66.9375C150.287 66.8542 150.131 66.7254 150.011 66.5511C149.892 66.3769 149.832 66.1581 149.832 65.8949V61.5909ZM157.875 62.7102C157.845 62.4413 157.72 62.233 157.5 62.0852C157.28 61.9356 157.004 61.8608 156.67 61.8608C156.432 61.8608 156.225 61.8987 156.051 61.9744C155.877 62.0483 155.741 62.1506 155.645 62.2812C155.55 62.41 155.503 62.5568 155.503 62.7216C155.503 62.8598 155.535 62.9792 155.599 63.0795C155.666 63.1799 155.752 63.2642 155.858 63.3324C155.966 63.3987 156.081 63.4545 156.205 63.5C156.328 63.5436 156.446 63.5795 156.56 63.608L157.128 63.7557C157.313 63.8011 157.504 63.8627 157.699 63.9403C157.894 64.018 158.075 64.1203 158.241 64.2472C158.408 64.3741 158.543 64.5312 158.645 64.7188C158.749 64.9062 158.801 65.1307 158.801 65.392C158.801 65.7216 158.716 66.0142 158.545 66.2699C158.377 66.5256 158.132 66.7273 157.81 66.875C157.49 67.0227 157.102 67.0966 156.648 67.0966C156.212 67.0966 155.835 67.0275 155.517 66.8892C155.199 66.7509 154.95 66.5549 154.77 66.3011C154.59 66.0455 154.491 65.7424 154.472 65.392H155.352C155.369 65.6023 155.438 65.7775 155.557 65.9176C155.678 66.0559 155.832 66.1591 156.02 66.2273C156.209 66.2936 156.417 66.3267 156.642 66.3267C156.89 66.3267 157.111 66.2879 157.304 66.2102C157.499 66.1307 157.652 66.0208 157.764 65.8807C157.876 65.7386 157.932 65.5729 157.932 65.3835C157.932 65.2112 157.883 65.0701 157.784 64.9602C157.688 64.8504 157.556 64.7595 157.389 64.6875C157.224 64.6155 157.038 64.5521 156.83 64.4972L156.142 64.3097C155.676 64.1828 155.307 63.9962 155.034 63.75C154.763 63.5038 154.628 63.178 154.628 62.7727C154.628 62.4375 154.719 62.1449 154.901 61.8949C155.082 61.6449 155.329 61.4508 155.639 61.3125C155.95 61.1723 156.3 61.1023 156.69 61.1023C157.084 61.1023 157.432 61.1714 157.733 61.3097C158.036 61.4479 158.275 61.6383 158.449 61.8807C158.623 62.1212 158.714 62.3977 158.722 62.7102H157.875ZM161.663 67.0881C161.233 67.0881 160.862 66.9962 160.552 66.8125C160.243 66.6269 160.004 66.3665 159.836 66.0312C159.669 65.6941 159.586 65.2992 159.586 64.8466C159.586 64.3996 159.669 64.0057 159.836 63.6648C160.004 63.3239 160.239 63.0578 160.54 62.8665C160.844 62.6752 161.198 62.5795 161.603 62.5795C161.849 62.5795 162.088 62.6203 162.319 62.7017C162.55 62.7831 162.757 62.911 162.941 63.0852C163.125 63.2595 163.27 63.4858 163.376 63.7642C163.482 64.0407 163.535 64.3769 163.535 64.7727V65.0739H160.066V64.4375H162.702C162.702 64.214 162.657 64.0161 162.566 63.8438C162.475 63.6695 162.347 63.5322 162.183 63.4318C162.02 63.3314 161.828 63.2812 161.609 63.2812C161.37 63.2812 161.162 63.34 160.984 63.4574C160.808 63.5729 160.671 63.7244 160.575 63.9119C160.48 64.0975 160.433 64.2992 160.433 64.517V65.0142C160.433 65.3059 160.484 65.554 160.586 65.7585C160.69 65.9631 160.835 66.1193 161.021 66.2273C161.206 66.3333 161.423 66.3864 161.671 66.3864C161.832 66.3864 161.979 66.3636 162.112 66.3182C162.244 66.2708 162.359 66.2008 162.455 66.108C162.552 66.0152 162.626 65.9006 162.677 65.7642L163.481 65.9091C163.416 66.1458 163.301 66.3532 163.134 66.5312C162.969 66.7074 162.762 66.8447 162.512 66.9432C162.264 67.0398 161.981 67.0881 161.663 67.0881ZM166.514 62.6364V63.3182H164.131V62.6364H166.514ZM164.77 61.5909H165.619V65.7188C165.619 65.8835 165.644 66.0076 165.693 66.0909C165.742 66.1723 165.806 66.2282 165.884 66.2585C165.963 66.2869 166.049 66.3011 166.142 66.3011C166.21 66.3011 166.27 66.2964 166.321 66.2869C166.372 66.2775 166.412 66.2699 166.44 66.2642L166.594 66.9659C166.545 66.9848 166.474 67.0038 166.384 67.0227C166.293 67.0436 166.179 67.0549 166.043 67.0568C165.819 67.0606 165.611 67.0208 165.418 66.9375C165.224 66.8542 165.068 66.7254 164.949 66.5511C164.83 66.3769 164.77 66.1581 164.77 65.8949V61.5909ZM169.491 62.6364V63.3182H167.107V62.6364H169.491ZM167.746 61.5909H168.596V65.7188C168.596 65.8835 168.621 66.0076 168.67 66.0909C168.719 66.1723 168.782 66.2282 168.86 66.2585C168.94 66.2869 169.026 66.3011 169.119 66.3011C169.187 66.3011 169.246 66.2964 169.298 66.2869C169.349 66.2775 169.388 66.2699 169.417 66.2642L169.57 66.9659C169.521 66.9848 169.451 67.0038 169.36 67.0227C169.269 67.0436 169.156 67.0549 169.019 67.0568C168.796 67.0606 168.587 67.0208 168.394 66.9375C168.201 66.8542 168.045 66.7254 167.925 66.5511C167.806 66.3769 167.746 66.1581 167.746 65.8949V61.5909ZM170.43 67V62.6364H171.28V67H170.43ZM170.859 61.9631C170.712 61.9631 170.585 61.9138 170.479 61.8153C170.375 61.715 170.322 61.5956 170.322 61.4574C170.322 61.3172 170.375 61.1979 170.479 61.0994C170.585 60.9991 170.712 60.9489 170.859 60.9489C171.007 60.9489 171.133 60.9991 171.237 61.0994C171.343 61.1979 171.396 61.3172 171.396 61.4574C171.396 61.5956 171.343 61.715 171.237 61.8153C171.133 61.9138 171.007 61.9631 170.859 61.9631ZM173.272 64.4091V67H172.423V62.6364H173.238V63.3466H173.292C173.392 63.1155 173.549 62.9299 173.763 62.7898C173.979 62.6496 174.251 62.5795 174.579 62.5795C174.876 62.5795 175.137 62.642 175.36 62.767C175.584 62.8902 175.757 63.0739 175.88 63.3182C176.003 63.5625 176.065 63.8646 176.065 64.2244V67H175.215V64.3267C175.215 64.0104 175.133 63.7633 174.968 63.5852C174.803 63.4053 174.577 63.3153 174.289 63.3153C174.092 63.3153 173.917 63.358 173.763 63.4432C173.612 63.5284 173.492 63.6534 173.403 63.8182C173.316 63.9811 173.272 64.178 173.272 64.4091ZM179.033 68.7273C178.687 68.7273 178.388 68.6818 178.138 68.5909C177.89 68.5 177.688 68.3797 177.531 68.2301C177.373 68.0805 177.256 67.9167 177.178 67.7386L177.908 67.4375C177.96 67.5208 178.028 67.6089 178.113 67.7017C178.2 67.7964 178.317 67.8769 178.465 67.9432C178.615 68.0095 178.807 68.0426 179.042 68.0426C179.364 68.0426 179.63 67.964 179.84 67.8068C180.05 67.6515 180.156 67.4034 180.156 67.0625V66.2045H180.102C180.05 66.2973 179.977 66.4006 179.88 66.5142C179.785 66.6278 179.655 66.7263 179.488 66.8097C179.321 66.893 179.104 66.9347 178.837 66.9347C178.493 66.9347 178.182 66.8542 177.906 66.6932C177.631 66.5303 177.413 66.2907 177.252 65.9744C177.093 65.6562 177.013 65.2652 177.013 64.8011C177.013 64.3371 177.092 63.9394 177.249 63.608C177.408 63.2765 177.626 63.0227 177.903 62.8466C178.179 62.6686 178.493 62.5795 178.843 62.5795C179.114 62.5795 179.333 62.625 179.499 62.7159C179.666 62.8049 179.796 62.9091 179.888 63.0284C179.983 63.1477 180.056 63.2528 180.107 63.3438H180.17V62.6364H181.002V67.0966C181.002 67.4716 180.915 67.7794 180.741 68.0199C180.567 68.2604 180.331 68.4384 180.033 68.554C179.738 68.6695 179.405 68.7273 179.033 68.7273ZM179.025 66.2301C179.269 66.2301 179.476 66.1733 179.644 66.0597C179.815 65.9441 179.943 65.7794 180.031 65.5653C180.12 65.3494 180.164 65.0909 180.164 64.7898C180.164 64.4962 180.121 64.2377 180.033 64.0142C179.946 63.7907 179.818 63.6165 179.65 63.4915C179.481 63.3646 179.273 63.3011 179.025 63.3011C178.769 63.3011 178.556 63.3674 178.386 63.5C178.215 63.6307 178.086 63.8087 177.999 64.0341C177.914 64.2595 177.871 64.5114 177.871 64.7898C177.871 65.0758 177.915 65.3267 178.002 65.5426C178.089 65.7585 178.218 65.9271 178.388 66.0483C178.561 66.1695 178.773 66.2301 179.025 66.2301ZM185.411 63.7017L184.641 63.8381C184.609 63.7396 184.558 63.6458 184.488 63.5568C184.42 63.4678 184.327 63.3949 184.21 63.3381C184.092 63.2812 183.945 63.2528 183.769 63.2528C183.529 63.2528 183.328 63.3068 183.167 63.4148C183.006 63.5208 182.925 63.6581 182.925 63.8267C182.925 63.9725 182.979 64.09 183.087 64.179C183.195 64.268 183.37 64.3409 183.61 64.3977L184.303 64.5568C184.705 64.6496 185.004 64.7926 185.201 64.9858C185.398 65.179 185.496 65.4299 185.496 65.7386C185.496 66 185.421 66.233 185.269 66.4375C185.12 66.6402 184.91 66.7992 184.641 66.9148C184.374 67.0303 184.065 67.0881 183.712 67.0881C183.224 67.0881 182.825 66.9839 182.516 66.7756C182.208 66.5653 182.018 66.267 181.948 65.8807L182.769 65.7557C182.82 65.9697 182.925 66.1316 183.085 66.2415C183.244 66.3494 183.451 66.4034 183.707 66.4034C183.985 66.4034 184.208 66.3456 184.374 66.2301C184.541 66.1127 184.624 65.9697 184.624 65.8011C184.624 65.6648 184.573 65.5502 184.471 65.4574C184.371 65.3646 184.216 65.2945 184.008 65.2472L183.269 65.0852C182.862 64.9924 182.561 64.8447 182.366 64.642C182.173 64.4394 182.076 64.1828 182.076 63.8722C182.076 63.6146 182.148 63.3892 182.292 63.196C182.436 63.0028 182.635 62.8523 182.888 62.7443C183.142 62.6345 183.433 62.5795 183.761 62.5795C184.232 62.5795 184.603 62.6818 184.874 62.8864C185.145 63.089 185.324 63.3608 185.411 63.7017Z" fill="white"/>
<path d="M226 63L228 65L230 63" stroke="white" stroke-linecap="round"/>
<path d="M110.5 55C110.5 53.067 112.067 51.5 114 51.5H236C237.933 51.5 239.5 53.067 239.5 55V73C239.5 74.933 237.933 76.5 236 76.5H114C112.067 76.5 110.5 74.933 110.5 73V55Z" stroke="white" stroke-opacity="0.2" shape-rendering="crispEdges"/>
</g>
<g filter="url(#filter1_d_125_137)">
<path d="M110 96C110 93.7909 111.791 92 114 92H236C238.209 92 240 93.7909 240 96V196C240 198.209 238.209 200 236 200H114C111.791 200 110 198.209 110 196V96Z" fill="white" fill-opacity="0.05" shape-rendering="crispEdges"/>
<path d="M113 99C113 96.7909 114.791 95 117 95H233C235.209 95 237 96.7909 237 99V115C237 117.209 235.209 119 233 119H117C114.791 119 113 117.209 113 115V99Z" fill="white" fill-opacity="0.2"/>
<path d="M125.335 104.182V110H124.528L121.571 105.733H121.517V110H120.639V104.182H121.452L124.412 108.455H124.466V104.182H125.335ZM128.428 110.088C127.998 110.088 127.628 109.996 127.317 109.812C127.009 109.627 126.77 109.366 126.602 109.031C126.435 108.694 126.352 108.299 126.352 107.847C126.352 107.4 126.435 107.006 126.602 106.665C126.77 106.324 127.005 106.058 127.306 105.866C127.609 105.675 127.963 105.58 128.369 105.58C128.615 105.58 128.853 105.62 129.085 105.702C129.316 105.783 129.523 105.911 129.707 106.085C129.89 106.259 130.035 106.486 130.141 106.764C130.247 107.041 130.3 107.377 130.3 107.773V108.074H126.832V107.438H129.468C129.468 107.214 129.423 107.016 129.332 106.844C129.241 106.67 129.113 106.532 128.948 106.432C128.785 106.331 128.594 106.281 128.374 106.281C128.136 106.281 127.927 106.34 127.749 106.457C127.573 106.573 127.437 106.724 127.34 106.912C127.246 107.098 127.198 107.299 127.198 107.517V108.014C127.198 108.306 127.249 108.554 127.352 108.759C127.456 108.963 127.601 109.119 127.786 109.227C127.972 109.333 128.189 109.386 128.437 109.386C128.598 109.386 128.745 109.364 128.877 109.318C129.01 109.271 129.124 109.201 129.221 109.108C129.317 109.015 129.391 108.901 129.442 108.764L130.246 108.909C130.182 109.146 130.067 109.353 129.9 109.531C129.735 109.707 129.528 109.845 129.278 109.943C129.03 110.04 128.746 110.088 128.428 110.088ZM132.181 110L130.897 105.636H131.775L132.63 108.841H132.673L133.531 105.636H134.408L135.261 108.827H135.303L136.153 105.636H137.031L135.749 110H134.883L133.996 106.849H133.931L133.045 110H132.181ZM141.107 106.702L140.337 106.838C140.304 106.74 140.253 106.646 140.183 106.557C140.115 106.468 140.022 106.395 139.905 106.338C139.787 106.281 139.641 106.253 139.464 106.253C139.224 106.253 139.023 106.307 138.862 106.415C138.701 106.521 138.621 106.658 138.621 106.827C138.621 106.973 138.675 107.09 138.783 107.179C138.891 107.268 139.065 107.341 139.305 107.398L139.999 107.557C140.4 107.65 140.699 107.793 140.896 107.986C141.093 108.179 141.192 108.43 141.192 108.739C141.192 109 141.116 109.233 140.964 109.438C140.815 109.64 140.606 109.799 140.337 109.915C140.07 110.03 139.76 110.088 139.408 110.088C138.919 110.088 138.52 109.984 138.212 109.776C137.903 109.565 137.714 109.267 137.643 108.881L138.464 108.756C138.516 108.97 138.621 109.132 138.78 109.241C138.939 109.349 139.146 109.403 139.402 109.403C139.68 109.403 139.903 109.346 140.07 109.23C140.236 109.113 140.32 108.97 140.32 108.801C140.32 108.665 140.268 108.55 140.166 108.457C140.066 108.365 139.911 108.295 139.703 108.247L138.964 108.085C138.557 107.992 138.256 107.845 138.061 107.642C137.868 107.439 137.771 107.183 137.771 106.872C137.771 106.615 137.843 106.389 137.987 106.196C138.131 106.003 138.33 105.852 138.584 105.744C138.838 105.634 139.128 105.58 139.456 105.58C139.928 105.58 140.299 105.682 140.57 105.886C140.84 106.089 141.019 106.361 141.107 106.702ZM142.975 104.182V110H142.126V104.182H142.975ZM145.999 110.088C145.569 110.088 145.198 109.996 144.888 109.812C144.579 109.627 144.34 109.366 144.172 109.031C144.005 108.694 143.922 108.299 143.922 107.847C143.922 107.4 144.005 107.006 144.172 106.665C144.34 106.324 144.575 106.058 144.876 105.866C145.179 105.675 145.534 105.58 145.939 105.58C146.185 105.58 146.424 105.62 146.655 105.702C146.886 105.783 147.093 105.911 147.277 106.085C147.461 106.259 147.606 106.486 147.712 106.764C147.818 107.041 147.871 107.377 147.871 107.773V108.074H144.402V107.438H147.038C147.038 107.214 146.993 107.016 146.902 106.844C146.811 106.67 146.683 106.532 146.518 106.432C146.356 106.331 146.164 106.281 145.945 106.281C145.706 106.281 145.498 106.34 145.32 106.457C145.143 106.573 145.007 106.724 144.911 106.912C144.816 107.098 144.768 107.299 144.768 107.517V108.014C144.768 108.306 144.82 108.554 144.922 108.759C145.026 108.963 145.171 109.119 145.357 109.227C145.542 109.333 145.759 109.386 146.007 109.386C146.168 109.386 146.315 109.364 146.447 109.318C146.58 109.271 146.695 109.201 146.791 109.108C146.888 109.015 146.962 108.901 147.013 108.764L147.817 108.909C147.752 109.146 147.637 109.353 147.47 109.531C147.305 109.707 147.098 109.845 146.848 109.943C146.6 110.04 146.317 110.088 145.999 110.088ZM150.85 105.636V106.318H148.467V105.636H150.85ZM149.106 104.591H149.955V108.719C149.955 108.884 149.98 109.008 150.029 109.091C150.078 109.172 150.142 109.228 150.219 109.259C150.299 109.287 150.385 109.301 150.478 109.301C150.546 109.301 150.606 109.296 150.657 109.287C150.708 109.277 150.748 109.27 150.776 109.264L150.93 109.966C150.88 109.985 150.81 110.004 150.719 110.023C150.629 110.044 150.515 110.055 150.379 110.057C150.155 110.061 149.947 110.021 149.754 109.938C149.56 109.854 149.404 109.725 149.285 109.551C149.165 109.377 149.106 109.158 149.106 108.895V104.591ZM153.827 105.636V106.318H151.443V105.636H153.827ZM152.082 104.591H152.932V108.719C152.932 108.884 152.956 109.008 153.006 109.091C153.055 109.172 153.118 109.228 153.196 109.259C153.276 109.287 153.362 109.301 153.455 109.301C153.523 109.301 153.582 109.296 153.634 109.287C153.685 109.277 153.724 109.27 153.753 109.264L153.906 109.966C153.857 109.985 153.787 110.004 153.696 110.023C153.605 110.044 153.491 110.055 153.355 110.057C153.132 110.061 152.923 110.021 152.73 109.938C152.537 109.854 152.381 109.725 152.261 109.551C152.142 109.377 152.082 109.158 152.082 108.895V104.591ZM156.6 110.088C156.17 110.088 155.8 109.996 155.489 109.812C155.181 109.627 154.942 109.366 154.773 109.031C154.607 108.694 154.523 108.299 154.523 107.847C154.523 107.4 154.607 107.006 154.773 106.665C154.942 106.324 155.177 106.058 155.478 105.866C155.781 105.675 156.135 105.58 156.54 105.58C156.787 105.58 157.025 105.62 157.256 105.702C157.487 105.783 157.695 105.911 157.879 106.085C158.062 106.259 158.207 106.486 158.313 106.764C158.419 107.041 158.472 107.377 158.472 107.773V108.074H155.004V107.438H157.64C157.64 107.214 157.594 107.016 157.504 106.844C157.413 106.67 157.285 106.532 157.12 106.432C156.957 106.331 156.766 106.281 156.546 106.281C156.308 106.281 156.099 106.34 155.921 106.457C155.745 106.573 155.609 106.724 155.512 106.912C155.417 107.098 155.37 107.299 155.37 107.517V108.014C155.37 108.306 155.421 108.554 155.523 108.759C155.628 108.963 155.772 109.119 155.958 109.227C156.144 109.333 156.361 109.386 156.609 109.386C156.77 109.386 156.916 109.364 157.049 109.318C157.182 109.271 157.296 109.201 157.393 109.108C157.489 109.015 157.563 108.901 157.614 108.764L158.418 108.909C158.354 109.146 158.238 109.353 158.072 109.531C157.907 109.707 157.7 109.845 157.45 109.943C157.201 110.04 156.918 110.088 156.6 110.088ZM159.415 110V105.636H160.236V106.33H160.281C160.361 106.095 160.501 105.91 160.702 105.776C160.904 105.639 161.134 105.571 161.389 105.571C161.442 105.571 161.505 105.573 161.577 105.577C161.651 105.58 161.708 105.585 161.75 105.591V106.403C161.716 106.394 161.655 106.384 161.568 106.372C161.481 106.359 161.394 106.352 161.307 106.352C161.106 106.352 160.927 106.395 160.77 106.48C160.615 106.563 160.491 106.68 160.401 106.83C160.31 106.977 160.264 107.146 160.264 107.335V110H159.415Z" fill="white"/>
<path d="M120.639 136V130.182H122.713C123.166 130.182 123.541 130.264 123.838 130.429C124.135 130.594 124.358 130.819 124.506 131.105C124.653 131.389 124.727 131.709 124.727 132.065C124.727 132.423 124.652 132.745 124.503 133.031C124.355 133.315 124.132 133.541 123.832 133.707C123.535 133.872 123.161 133.955 122.71 133.955H121.284V133.21H122.631C122.917 133.21 123.149 133.161 123.327 133.062C123.505 132.962 123.635 132.826 123.719 132.653C123.802 132.481 123.844 132.285 123.844 132.065C123.844 131.846 123.802 131.651 123.719 131.48C123.635 131.31 123.504 131.176 123.324 131.08C123.146 130.983 122.911 130.935 122.619 130.935H121.517V136H120.639ZM128.452 134.19V131.636H129.305V136H128.469V135.244H128.424C128.324 135.477 128.163 135.671 127.941 135.827C127.721 135.98 127.448 136.057 127.12 136.057C126.84 136.057 126.592 135.995 126.376 135.872C126.162 135.747 125.993 135.562 125.87 135.318C125.749 135.074 125.688 134.772 125.688 134.412V131.636H126.538V134.31C126.538 134.607 126.62 134.844 126.785 135.02C126.95 135.196 127.164 135.284 127.427 135.284C127.586 135.284 127.744 135.244 127.901 135.165C128.06 135.085 128.192 134.965 128.296 134.804C128.402 134.643 128.454 134.438 128.452 134.19ZM130.446 136V131.636H131.267V132.33H131.312C131.392 132.095 131.532 131.91 131.733 131.776C131.936 131.639 132.165 131.571 132.42 131.571C132.473 131.571 132.536 131.573 132.608 131.577C132.682 131.58 132.74 131.585 132.781 131.591V132.403C132.747 132.394 132.687 132.384 132.599 132.372C132.512 132.359 132.425 132.352 132.338 132.352C132.137 132.352 131.958 132.395 131.801 132.48C131.646 132.563 131.523 132.68 131.432 132.83C131.341 132.977 131.295 133.146 131.295 133.335V136H130.446ZM135.198 136.088C134.776 136.088 134.412 135.992 134.107 135.801C133.804 135.608 133.571 135.342 133.408 135.003C133.246 134.664 133.164 134.276 133.164 133.838C133.164 133.395 133.247 133.004 133.414 132.665C133.581 132.324 133.816 132.058 134.119 131.866C134.422 131.675 134.779 131.58 135.19 131.58C135.521 131.58 135.817 131.641 136.076 131.764C136.335 131.885 136.545 132.056 136.704 132.276C136.865 132.495 136.96 132.752 136.991 133.045H136.164C136.119 132.841 136.014 132.665 135.852 132.517C135.691 132.369 135.475 132.295 135.204 132.295C134.967 132.295 134.76 132.358 134.582 132.483C134.406 132.606 134.268 132.782 134.17 133.011C134.071 133.239 134.022 133.508 134.022 133.818C134.022 134.136 134.07 134.411 134.167 134.642C134.263 134.873 134.4 135.052 134.576 135.179C134.754 135.306 134.963 135.369 135.204 135.369C135.365 135.369 135.511 135.34 135.641 135.281C135.774 135.221 135.885 135.134 135.974 135.023C136.065 134.911 136.128 134.777 136.164 134.619H136.991C136.96 134.902 136.869 135.153 136.715 135.375C136.562 135.597 136.356 135.771 136.099 135.898C135.843 136.025 135.543 136.088 135.198 136.088ZM138.749 133.409V136H137.899V130.182H138.737V132.347H138.791C138.893 132.112 139.05 131.925 139.26 131.787C139.47 131.649 139.745 131.58 140.084 131.58C140.383 131.58 140.644 131.641 140.868 131.764C141.093 131.887 141.268 132.071 141.391 132.315C141.516 132.558 141.578 132.861 141.578 133.224V136H140.729V133.327C140.729 133.007 140.646 132.759 140.482 132.582C140.317 132.404 140.088 132.315 139.794 132.315C139.593 132.315 139.413 132.358 139.254 132.443C139.097 132.528 138.973 132.653 138.882 132.818C138.793 132.981 138.749 133.178 138.749 133.409ZM143.982 136.097C143.705 136.097 143.455 136.045 143.232 135.943C143.008 135.839 142.831 135.688 142.7 135.491C142.571 135.295 142.507 135.053 142.507 134.767C142.507 134.521 142.554 134.318 142.649 134.159C142.744 134 142.872 133.874 143.033 133.781C143.194 133.688 143.374 133.618 143.572 133.571C143.771 133.524 143.974 133.488 144.18 133.463C144.442 133.433 144.654 133.408 144.817 133.389C144.98 133.368 145.098 133.335 145.172 133.29C145.246 133.244 145.283 133.17 145.283 133.068V133.048C145.283 132.8 145.213 132.608 145.072 132.472C144.934 132.335 144.728 132.267 144.453 132.267C144.167 132.267 143.942 132.33 143.777 132.457C143.614 132.582 143.501 132.722 143.439 132.875L142.641 132.693C142.735 132.428 142.874 132.214 143.055 132.051C143.239 131.886 143.45 131.767 143.689 131.693C143.928 131.617 144.179 131.58 144.442 131.58C144.616 131.58 144.801 131.6 144.996 131.642C145.193 131.682 145.376 131.756 145.547 131.864C145.719 131.972 145.86 132.126 145.97 132.327C146.08 132.526 146.135 132.784 146.135 133.102V136H145.305V135.403H145.271C145.216 135.513 145.134 135.621 145.024 135.727C144.914 135.833 144.773 135.921 144.601 135.991C144.429 136.062 144.222 136.097 143.982 136.097ZM144.166 135.415C144.401 135.415 144.602 135.368 144.768 135.276C144.937 135.183 145.065 135.062 145.152 134.912C145.241 134.76 145.286 134.598 145.286 134.426V133.864C145.255 133.894 145.196 133.922 145.109 133.949C145.024 133.973 144.927 133.995 144.817 134.014C144.707 134.031 144.6 134.047 144.496 134.062C144.392 134.076 144.304 134.087 144.234 134.097C144.07 134.117 143.919 134.152 143.783 134.202C143.648 134.251 143.54 134.322 143.459 134.415C143.379 134.506 143.339 134.627 143.339 134.778C143.339 134.989 143.417 135.148 143.572 135.256C143.728 135.362 143.926 135.415 144.166 135.415ZM150.536 132.702L149.766 132.838C149.734 132.74 149.683 132.646 149.613 132.557C149.545 132.468 149.452 132.395 149.335 132.338C149.217 132.281 149.07 132.253 148.894 132.253C148.654 132.253 148.453 132.307 148.292 132.415C148.131 132.521 148.05 132.658 148.05 132.827C148.05 132.973 148.104 133.09 148.212 133.179C148.32 133.268 148.495 133.341 148.735 133.398L149.428 133.557C149.83 133.65 150.129 133.793 150.326 133.986C150.523 134.179 150.621 134.43 150.621 134.739C150.621 135 150.546 135.233 150.394 135.438C150.245 135.64 150.035 135.799 149.766 135.915C149.499 136.03 149.19 136.088 148.837 136.088C148.349 136.088 147.95 135.984 147.641 135.776C147.333 135.565 147.143 135.267 147.073 134.881L147.894 134.756C147.945 134.97 148.05 135.132 148.21 135.241C148.369 135.349 148.576 135.403 148.832 135.403C149.11 135.403 149.333 135.346 149.499 135.23C149.666 135.113 149.749 134.97 149.749 134.801C149.749 134.665 149.698 134.55 149.596 134.457C149.496 134.365 149.341 134.295 149.133 134.247L148.394 134.085C147.987 133.992 147.686 133.845 147.491 133.642C147.298 133.439 147.201 133.183 147.201 132.872C147.201 132.615 147.273 132.389 147.417 132.196C147.561 132.003 147.76 131.852 148.013 131.744C148.267 131.634 148.558 131.58 148.886 131.58C149.357 131.58 149.728 131.682 149.999 131.886C150.27 132.089 150.449 132.361 150.536 132.702ZM153.436 136.088C153.006 136.088 152.636 135.996 152.325 135.812C152.017 135.627 151.778 135.366 151.609 135.031C151.443 134.694 151.359 134.299 151.359 133.847C151.359 133.4 151.443 133.006 151.609 132.665C151.778 132.324 152.013 132.058 152.314 131.866C152.617 131.675 152.971 131.58 153.376 131.58C153.623 131.58 153.861 131.62 154.092 131.702C154.323 131.783 154.531 131.911 154.714 132.085C154.898 132.259 155.043 132.486 155.149 132.764C155.255 133.041 155.308 133.377 155.308 133.773V134.074H151.839V133.438H154.476C154.476 133.214 154.43 133.016 154.339 132.844C154.249 132.67 154.121 132.532 153.956 132.432C153.793 132.331 153.602 132.281 153.382 132.281C153.143 132.281 152.935 132.34 152.757 132.457C152.581 132.573 152.445 132.724 152.348 132.912C152.253 133.098 152.206 133.299 152.206 133.517V134.014C152.206 134.306 152.257 134.554 152.359 134.759C152.464 134.963 152.608 135.119 152.794 135.227C152.98 135.333 153.196 135.386 153.445 135.386C153.606 135.386 153.752 135.364 153.885 135.318C154.018 135.271 154.132 135.201 154.229 135.108C154.325 135.015 154.399 134.901 154.45 134.764L155.254 134.909C155.19 135.146 155.074 135.353 154.908 135.531C154.743 135.707 154.536 135.845 154.286 135.943C154.037 136.04 153.754 136.088 153.436 136.088ZM159.521 132.702L158.751 132.838C158.719 132.74 158.667 132.646 158.597 132.557C158.529 132.468 158.436 132.395 158.319 132.338C158.201 132.281 158.055 132.253 157.879 132.253C157.638 132.253 157.437 132.307 157.276 132.415C157.115 132.521 157.035 132.658 157.035 132.827C157.035 132.973 157.089 133.09 157.197 133.179C157.305 133.268 157.479 133.341 157.719 133.398L158.413 133.557C158.814 133.65 159.113 133.793 159.31 133.986C159.507 134.179 159.606 134.43 159.606 134.739C159.606 135 159.53 135.233 159.379 135.438C159.229 135.64 159.02 135.799 158.751 135.915C158.484 136.03 158.174 136.088 157.822 136.088C157.333 136.088 156.934 135.984 156.626 135.776C156.317 135.565 156.128 135.267 156.058 134.881L156.879 134.756C156.93 134.97 157.035 135.132 157.194 135.241C157.353 135.349 157.56 135.403 157.816 135.403C158.094 135.403 158.317 135.346 158.484 135.23C158.65 135.113 158.734 134.97 158.734 134.801C158.734 134.665 158.683 134.55 158.58 134.457C158.48 134.365 158.326 134.295 158.117 134.247L157.379 134.085C156.971 133.992 156.67 133.845 156.475 133.642C156.282 133.439 156.185 133.183 156.185 132.872C156.185 132.615 156.257 132.389 156.401 132.196C156.545 132.003 156.744 131.852 156.998 131.744C157.252 131.634 157.542 131.58 157.87 131.58C158.342 131.58 158.713 131.682 158.984 131.886C159.254 132.089 159.433 132.361 159.521 132.702Z" fill="white"/>
<path d="M122.523 162H120.639V156.182H122.582C123.152 156.182 123.642 156.298 124.051 156.531C124.46 156.762 124.774 157.095 124.991 157.528C125.211 157.96 125.321 158.478 125.321 159.082C125.321 159.688 125.21 160.209 124.989 160.645C124.769 161.08 124.451 161.416 124.034 161.651C123.617 161.884 123.114 162 122.523 162ZM121.517 161.233H122.474C122.918 161.233 123.286 161.15 123.58 160.983C123.873 160.814 124.093 160.571 124.239 160.253C124.384 159.933 124.457 159.543 124.457 159.082C124.457 158.626 124.384 158.239 124.239 157.92C124.095 157.602 123.88 157.361 123.594 157.196C123.308 157.031 122.953 156.949 122.528 156.949H121.517V161.233ZM128.183 162.088C127.773 162.088 127.416 161.994 127.112 161.807C126.807 161.619 126.57 161.357 126.401 161.02C126.233 160.683 126.148 160.289 126.148 159.838C126.148 159.385 126.233 158.99 126.401 158.651C126.57 158.312 126.807 158.048 127.112 157.861C127.416 157.673 127.773 157.58 128.183 157.58C128.592 157.58 128.949 157.673 129.254 157.861C129.558 158.048 129.795 158.312 129.964 158.651C130.132 158.99 130.217 159.385 130.217 159.838C130.217 160.289 130.132 160.683 129.964 161.02C129.795 161.357 129.558 161.619 129.254 161.807C128.949 161.994 128.592 162.088 128.183 162.088ZM128.185 161.375C128.451 161.375 128.67 161.305 128.844 161.165C129.019 161.025 129.147 160.838 129.231 160.605C129.316 160.372 129.359 160.116 129.359 159.835C129.359 159.557 129.316 159.301 129.231 159.068C129.147 158.833 129.019 158.645 128.844 158.503C128.67 158.361 128.451 158.29 128.185 158.29C127.918 158.29 127.697 158.361 127.521 158.503C127.346 158.645 127.217 158.833 127.131 159.068C127.048 159.301 127.006 159.557 127.006 159.835C127.006 160.116 127.048 160.372 127.131 160.605C127.217 160.838 127.346 161.025 127.521 161.165C127.697 161.305 127.918 161.375 128.185 161.375ZM131.978 162L130.694 157.636H131.572L132.427 160.841H132.469L133.327 157.636H134.205L135.058 160.827H135.1L135.95 157.636H136.827L135.546 162H134.68L133.793 158.849H133.728L132.842 162H131.978ZM138.483 159.409V162H137.634V157.636H138.449V158.347H138.503C138.603 158.116 138.76 157.93 138.974 157.79C139.19 157.65 139.462 157.58 139.79 157.58C140.087 157.58 140.348 157.642 140.571 157.767C140.795 157.89 140.968 158.074 141.091 158.318C141.214 158.562 141.276 158.865 141.276 159.224V162H140.426V159.327C140.426 159.01 140.344 158.763 140.179 158.585C140.014 158.405 139.788 158.315 139.5 158.315C139.303 158.315 139.128 158.358 138.974 158.443C138.823 158.528 138.703 158.653 138.614 158.818C138.527 158.981 138.483 159.178 138.483 159.409ZM143.264 156.182V162H142.415V156.182H143.264ZM146.245 162.088C145.836 162.088 145.479 161.994 145.174 161.807C144.869 161.619 144.632 161.357 144.464 161.02C144.295 160.683 144.211 160.289 144.211 159.838C144.211 159.385 144.295 158.99 144.464 158.651C144.632 158.312 144.869 158.048 145.174 157.861C145.479 157.673 145.836 157.58 146.245 157.58C146.654 157.58 147.011 157.673 147.316 157.861C147.621 158.048 147.858 158.312 148.026 158.651C148.195 158.99 148.279 159.385 148.279 159.838C148.279 160.289 148.195 160.683 148.026 161.02C147.858 161.357 147.621 161.619 147.316 161.807C147.011 161.994 146.654 162.088 146.245 162.088ZM146.248 161.375C146.513 161.375 146.733 161.305 146.907 161.165C147.081 161.025 147.21 160.838 147.293 160.605C147.379 160.372 147.421 160.116 147.421 159.835C147.421 159.557 147.379 159.301 147.293 159.068C147.21 158.833 147.081 158.645 146.907 158.503C146.733 158.361 146.513 158.29 146.248 158.29C145.981 158.29 145.759 158.361 145.583 158.503C145.409 158.645 145.279 158.833 145.194 159.068C145.111 159.301 145.069 159.557 145.069 159.835C145.069 160.116 145.111 160.372 145.194 160.605C145.279 160.838 145.409 161.025 145.583 161.165C145.759 161.305 145.981 161.375 146.248 161.375ZM150.497 162.097C150.221 162.097 149.971 162.045 149.747 161.943C149.524 161.839 149.347 161.688 149.216 161.491C149.087 161.295 149.023 161.053 149.023 160.767C149.023 160.521 149.07 160.318 149.165 160.159C149.259 160 149.387 159.874 149.548 159.781C149.709 159.688 149.889 159.618 150.088 159.571C150.287 159.524 150.49 159.488 150.696 159.463C150.957 159.433 151.17 159.408 151.332 159.389C151.495 159.368 151.614 159.335 151.688 159.29C151.761 159.244 151.798 159.17 151.798 159.068V159.048C151.798 158.8 151.728 158.608 151.588 158.472C151.45 158.335 151.243 158.267 150.969 158.267C150.683 158.267 150.457 158.33 150.293 158.457C150.13 158.582 150.017 158.722 149.955 158.875L149.156 158.693C149.251 158.428 149.389 158.214 149.571 158.051C149.755 157.886 149.966 157.767 150.205 157.693C150.443 157.617 150.694 157.58 150.957 157.58C151.132 157.58 151.316 157.6 151.511 157.642C151.708 157.682 151.892 157.756 152.062 157.864C152.235 157.972 152.376 158.126 152.486 158.327C152.596 158.526 152.651 158.784 152.651 159.102V162H151.821V161.403H151.787C151.732 161.513 151.65 161.621 151.54 161.727C151.43 161.833 151.289 161.921 151.116 161.991C150.944 162.062 150.738 162.097 150.497 162.097ZM150.682 161.415C150.917 161.415 151.117 161.368 151.284 161.276C151.453 161.183 151.58 161.062 151.668 160.912C151.757 160.76 151.801 160.598 151.801 160.426V159.864C151.771 159.894 151.712 159.922 151.625 159.949C151.54 159.973 151.442 159.995 151.332 160.014C151.223 160.031 151.116 160.047 151.011 160.062C150.907 160.076 150.82 160.087 150.75 160.097C150.585 160.117 150.435 160.152 150.298 160.202C150.164 160.251 150.056 160.322 149.974 160.415C149.895 160.506 149.855 160.627 149.855 160.778C149.855 160.989 149.933 161.148 150.088 161.256C150.243 161.362 150.441 161.415 150.682 161.415ZM155.415 162.085C155.063 162.085 154.749 161.995 154.472 161.815C154.198 161.634 153.982 161.375 153.825 161.04C153.669 160.703 153.592 160.298 153.592 159.827C153.592 159.355 153.67 158.952 153.827 158.616C153.987 158.281 154.204 158.025 154.481 157.847C154.757 157.669 155.071 157.58 155.421 157.58C155.692 157.58 155.91 157.625 156.075 157.716C156.241 157.805 156.37 157.909 156.461 158.028C156.554 158.148 156.626 158.253 156.677 158.344H156.728V156.182H157.577V162H156.748V161.321H156.677C156.626 161.414 156.552 161.52 156.455 161.639C156.361 161.759 156.23 161.863 156.063 161.952C155.897 162.041 155.681 162.085 155.415 162.085ZM155.603 161.361C155.847 161.361 156.054 161.296 156.222 161.168C156.393 161.037 156.522 160.856 156.609 160.625C156.698 160.394 156.742 160.125 156.742 159.818C156.742 159.515 156.699 159.25 156.612 159.023C156.524 158.795 156.397 158.618 156.228 158.491C156.059 158.365 155.851 158.301 155.603 158.301C155.347 158.301 155.134 158.367 154.964 158.5C154.793 158.633 154.665 158.813 154.577 159.043C154.492 159.272 154.45 159.53 154.45 159.818C154.45 160.11 154.493 160.372 154.58 160.605C154.667 160.838 154.796 161.023 154.967 161.159C155.139 161.294 155.351 161.361 155.603 161.361ZM162.06 158.702L161.29 158.838C161.258 158.74 161.206 158.646 161.136 158.557C161.068 158.468 160.975 158.395 160.858 158.338C160.741 158.281 160.594 158.253 160.418 158.253C160.177 158.253 159.976 158.307 159.815 158.415C159.654 158.521 159.574 158.658 159.574 158.827C159.574 158.973 159.628 159.09 159.736 159.179C159.844 159.268 160.018 159.341 160.259 159.398L160.952 159.557C161.353 159.65 161.652 159.793 161.849 159.986C162.046 160.179 162.145 160.43 162.145 160.739C162.145 161 162.069 161.233 161.918 161.438C161.768 161.64 161.559 161.799 161.29 161.915C161.023 162.03 160.713 162.088 160.361 162.088C159.872 162.088 159.473 161.984 159.165 161.776C158.856 161.565 158.667 161.267 158.597 160.881L159.418 160.756C159.469 160.97 159.574 161.132 159.733 161.241C159.892 161.349 160.099 161.403 160.355 161.403C160.634 161.403 160.856 161.346 161.023 161.23C161.189 161.113 161.273 160.97 161.273 160.801C161.273 160.665 161.222 160.55 161.119 160.457C161.019 160.365 160.865 160.295 160.656 160.247L159.918 160.085C159.51 159.992 159.209 159.845 159.014 159.642C158.821 159.439 158.724 159.183 158.724 158.872C158.724 158.615 158.796 158.389 158.94 158.196C159.084 158.003 159.283 157.852 159.537 157.744C159.791 157.634 160.081 157.58 160.409 157.58C160.881 157.58 161.252 157.682 161.523 157.886C161.794 158.089 161.973 158.361 162.06 158.702Z" fill="white"/>
<path d="M120.352 182.938V182.182H124.855V182.938H123.04V188H122.165V182.938H120.352ZM127.03 188.088C126.6 188.088 126.23 187.996 125.919 187.812C125.61 187.627 125.372 187.366 125.203 187.031C125.036 186.694 124.953 186.299 124.953 185.847C124.953 185.4 125.036 185.006 125.203 184.665C125.372 184.324 125.607 184.058 125.908 183.866C126.211 183.675 126.565 183.58 126.97 183.58C127.216 183.58 127.455 183.62 127.686 183.702C127.917 183.783 128.125 183.911 128.308 184.085C128.492 184.259 128.637 184.486 128.743 184.764C128.849 185.041 128.902 185.377 128.902 185.773V186.074H125.433V185.438H128.07C128.07 185.214 128.024 185.016 127.933 184.844C127.842 184.67 127.714 184.532 127.55 184.432C127.387 184.331 127.196 184.281 126.976 184.281C126.737 184.281 126.529 184.34 126.351 184.457C126.175 184.573 126.038 184.724 125.942 184.912C125.847 185.098 125.8 185.299 125.8 185.517V186.014C125.8 186.306 125.851 186.554 125.953 186.759C126.057 186.963 126.202 187.119 126.388 187.227C126.573 187.333 126.79 187.386 127.038 187.386C127.199 187.386 127.346 187.364 127.479 187.318C127.611 187.271 127.726 187.201 127.822 187.108C127.919 187.015 127.993 186.901 128.044 186.764L128.848 186.909C128.784 187.146 128.668 187.353 128.501 187.531C128.337 187.707 128.129 187.845 127.879 187.943C127.631 188.04 127.348 188.088 127.03 188.088ZM131.114 188.097C130.838 188.097 130.588 188.045 130.364 187.943C130.141 187.839 129.964 187.688 129.833 187.491C129.704 187.295 129.64 187.053 129.64 186.767C129.64 186.521 129.687 186.318 129.782 186.159C129.877 186 130.004 185.874 130.165 185.781C130.326 185.688 130.506 185.618 130.705 185.571C130.904 185.524 131.107 185.488 131.313 185.463C131.575 185.433 131.787 185.408 131.95 185.389C132.112 185.368 132.231 185.335 132.305 185.29C132.379 185.244 132.415 185.17 132.415 185.068V185.048C132.415 184.8 132.345 184.608 132.205 184.472C132.067 184.335 131.861 184.267 131.586 184.267C131.3 184.267 131.075 184.33 130.91 184.457C130.747 184.582 130.634 184.722 130.572 184.875L129.773 184.693C129.868 184.428 130.006 184.214 130.188 184.051C130.372 183.886 130.583 183.767 130.822 183.693C131.06 183.617 131.311 183.58 131.575 183.58C131.749 183.58 131.933 183.6 132.129 183.642C132.326 183.682 132.509 183.756 132.68 183.864C132.852 183.972 132.993 184.126 133.103 184.327C133.213 184.526 133.268 184.784 133.268 185.102V188H132.438V187.403H132.404C132.349 187.513 132.267 187.621 132.157 187.727C132.047 187.833 131.906 187.921 131.734 187.991C131.561 188.062 131.355 188.097 131.114 188.097ZM131.299 187.415C131.534 187.415 131.735 187.368 131.901 187.276C132.07 187.183 132.198 187.062 132.285 186.912C132.374 186.76 132.418 186.598 132.418 186.426V185.864C132.388 185.894 132.329 185.922 132.242 185.949C132.157 185.973 132.059 185.995 131.95 186.014C131.84 186.031 131.733 186.047 131.629 186.062C131.524 186.076 131.437 186.087 131.367 186.097C131.202 186.117 131.052 186.152 130.915 186.202C130.781 186.251 130.673 186.322 130.592 186.415C130.512 186.506 130.472 186.627 130.472 186.778C130.472 186.989 130.55 187.148 130.705 187.256C130.861 187.362 131.058 187.415 131.299 187.415ZM134.399 188V183.636H135.214V184.347H135.268C135.359 184.106 135.508 183.919 135.714 183.784C135.921 183.648 136.168 183.58 136.456 183.58C136.748 183.58 136.992 183.648 137.189 183.784C137.388 183.92 137.535 184.108 137.629 184.347H137.675C137.779 184.114 137.945 183.928 138.172 183.79C138.399 183.65 138.67 183.58 138.984 183.58C139.38 183.58 139.703 183.704 139.953 183.952C140.205 184.2 140.331 184.574 140.331 185.074V188H139.482V185.153C139.482 184.858 139.401 184.644 139.24 184.511C139.079 184.379 138.887 184.312 138.663 184.312C138.387 184.312 138.172 184.398 138.018 184.568C137.865 184.737 137.788 184.954 137.788 185.219V188H136.942V185.099C136.942 184.863 136.868 184.672 136.72 184.528C136.572 184.384 136.38 184.312 136.143 184.312C135.982 184.312 135.834 184.355 135.697 184.44C135.563 184.524 135.454 184.64 135.371 184.79C135.289 184.939 135.249 185.113 135.249 185.31V188H134.399ZM144.146 188H143.214L145.308 182.182H146.322L148.416 188H147.484L145.839 183.239H145.794L144.146 188ZM144.303 185.722H147.325V186.46H144.303V185.722ZM150.956 188.088C150.534 188.088 150.17 187.992 149.865 187.801C149.562 187.608 149.329 187.342 149.166 187.003C149.003 186.664 148.922 186.276 148.922 185.838C148.922 185.395 149.005 185.004 149.172 184.665C149.339 184.324 149.573 184.058 149.876 183.866C150.179 183.675 150.536 183.58 150.947 183.58C151.279 183.58 151.574 183.641 151.834 183.764C152.093 183.885 152.303 184.056 152.462 184.276C152.623 184.495 152.718 184.752 152.749 185.045H151.922C151.876 184.841 151.772 184.665 151.609 184.517C151.448 184.369 151.232 184.295 150.962 184.295C150.725 184.295 150.518 184.358 150.339 184.483C150.163 184.606 150.026 184.782 149.928 185.011C149.829 185.239 149.78 185.508 149.78 185.818C149.78 186.136 149.828 186.411 149.925 186.642C150.021 186.873 150.158 187.052 150.334 187.179C150.512 187.306 150.721 187.369 150.962 187.369C151.123 187.369 151.268 187.34 151.399 187.281C151.532 187.221 151.643 187.134 151.732 187.023C151.822 186.911 151.886 186.777 151.922 186.619H152.749C152.718 186.902 152.626 187.153 152.473 187.375C152.32 187.597 152.114 187.771 151.857 187.898C151.601 188.025 151.301 188.088 150.956 188.088ZM155.495 188.088C155.073 188.088 154.709 187.992 154.404 187.801C154.101 187.608 153.868 187.342 153.705 187.003C153.542 186.664 153.461 186.276 153.461 185.838C153.461 185.395 153.544 185.004 153.711 184.665C153.878 184.324 154.112 184.058 154.415 183.866C154.719 183.675 155.076 183.58 155.487 183.58C155.818 183.58 156.113 183.641 156.373 183.764C156.632 183.885 156.842 184.056 157.001 184.276C157.162 184.495 157.257 184.752 157.288 185.045H156.461C156.415 184.841 156.311 184.665 156.148 184.517C155.987 184.369 155.772 184.295 155.501 184.295C155.264 184.295 155.057 184.358 154.879 184.483C154.702 184.606 154.565 184.782 154.467 185.011C154.368 185.239 154.319 185.508 154.319 185.818C154.319 186.136 154.367 186.411 154.464 186.642C154.56 186.873 154.697 187.052 154.873 187.179C155.051 187.306 155.26 187.369 155.501 187.369C155.662 187.369 155.808 187.34 155.938 187.281C156.071 187.221 156.182 187.134 156.271 187.023C156.362 186.911 156.425 186.777 156.461 186.619H157.288C157.257 186.902 157.165 187.153 157.012 187.375C156.859 187.597 156.653 187.771 156.396 187.898C156.14 188.025 155.84 188.088 155.495 188.088ZM160.034 188.088C159.625 188.088 159.268 187.994 158.963 187.807C158.658 187.619 158.421 187.357 158.253 187.02C158.084 186.683 158 186.289 158 185.838C158 185.385 158.084 184.99 158.253 184.651C158.421 184.312 158.658 184.048 158.963 183.861C159.268 183.673 159.625 183.58 160.034 183.58C160.443 183.58 160.8 183.673 161.105 183.861C161.41 184.048 161.647 184.312 161.815 184.651C161.984 184.99 162.068 185.385 162.068 185.838C162.068 186.289 161.984 186.683 161.815 187.02C161.647 187.357 161.41 187.619 161.105 187.807C160.8 187.994 160.443 188.088 160.034 188.088ZM160.037 187.375C160.302 187.375 160.522 187.305 160.696 187.165C160.87 187.025 160.999 186.838 161.082 186.605C161.168 186.372 161.21 186.116 161.21 185.835C161.21 185.557 161.168 185.301 161.082 185.068C160.999 184.833 160.87 184.645 160.696 184.503C160.522 184.361 160.302 184.29 160.037 184.29C159.77 184.29 159.548 184.361 159.372 184.503C159.198 184.645 159.068 184.833 158.983 185.068C158.9 185.301 158.858 185.557 158.858 185.835C158.858 186.116 158.9 186.372 158.983 186.605C159.068 186.838 159.198 187.025 159.372 187.165C159.548 187.305 159.77 187.375 160.037 187.375ZM165.781 186.19V183.636H166.633V188H165.798V187.244H165.752C165.652 187.477 165.491 187.671 165.269 187.827C165.049 187.98 164.776 188.057 164.448 188.057C164.168 188.057 163.92 187.995 163.704 187.872C163.49 187.747 163.321 187.562 163.198 187.318C163.077 187.074 163.016 186.772 163.016 186.412V183.636H163.866V186.31C163.866 186.607 163.948 186.844 164.113 187.02C164.278 187.196 164.492 187.284 164.755 187.284C164.914 187.284 165.072 187.244 165.229 187.165C165.388 187.085 165.52 186.965 165.624 186.804C165.73 186.643 165.782 186.438 165.781 186.19ZM168.624 185.409V188H167.774V183.636H168.589V184.347H168.643C168.744 184.116 168.901 183.93 169.115 183.79C169.331 183.65 169.603 183.58 169.93 183.58C170.228 183.58 170.488 183.642 170.712 183.767C170.935 183.89 171.108 184.074 171.232 184.318C171.355 184.562 171.416 184.865 171.416 185.224V188H170.567V185.327C170.567 185.01 170.484 184.763 170.32 184.585C170.155 184.405 169.929 184.315 169.641 184.315C169.444 184.315 169.268 184.358 169.115 184.443C168.964 184.528 168.843 184.653 168.754 184.818C168.667 184.981 168.624 185.178 168.624 185.409ZM174.592 183.636V184.318H172.209V183.636H174.592ZM172.848 182.591H173.697V186.719C173.697 186.884 173.722 187.008 173.771 187.091C173.821 187.172 173.884 187.228 173.962 187.259C174.041 187.287 174.127 187.301 174.22 187.301C174.288 187.301 174.348 187.296 174.399 187.287C174.45 187.277 174.49 187.27 174.518 187.264L174.672 187.966C174.623 187.985 174.553 188.004 174.462 188.023C174.371 188.044 174.257 188.055 174.121 188.057C173.897 188.061 173.689 188.021 173.496 187.938C173.303 187.854 173.146 187.725 173.027 187.551C172.908 187.377 172.848 187.158 172.848 186.895V182.591Z" fill="white"/>
<path d="M110.5 96C110.5 94.067 112.067 92.5 114 92.5H236C237.933 92.5 239.5 94.067 239.5 96V196C239.5 197.933 237.933 199.5 236 199.5H114C112.067 199.5 110.5 197.933 110.5 196V96Z" stroke="white" stroke-opacity="0.2" shape-rendering="crispEdges"/>
</g>
<defs>
<filter id="filter0_d_125_137" x="98" y="45" width="154" height="50" filterUnits="userSpaceOnUse" color-interpolation-filters="sRGB">
<feFlood flood-opacity="0" result="BackgroundImageFix"/>
<feColorMatrix in="SourceAlpha" type="matrix" values="0 0 0 0 0 0 0 0 0 0 0 0 0 0 0 0 0 0 127 0" result="hardAlpha"/>
<feOffset dy="6"/>
<feGaussianBlur stdDeviation="6"/>
<feComposite in2="hardAlpha" operator="out"/>
<feColorMatrix type="matrix" values="0 0 0 0 0 0 0 0 0 0 0 0 0 0 0 0 0 0 0.03 0"/>
<feBlend mode="normal" in2="BackgroundImageFix" result="effect1_dropShadow_125_137"/>
<feBlend mode="normal" in="SourceGraphic" in2="effect1_dropShadow_125_137" result="shape"/>
</filter>
<filter id="filter1_d_125_137" x="98" y="86" width="154" height="132" filterUnits="userSpaceOnUse" color-interpolation-filters="sRGB">
<feFlood flood-opacity="0" result="BackgroundImageFix"/>
<feColorMatrix in="SourceAlpha" type="matrix" values="0 0 0 0 0 0 0 0 0 0 0 0 0 0 0 0 0 0 127 0" result="hardAlpha"/>
<feOffset dy="6"/>
<feGaussianBlur stdDeviation="6"/>
<feComposite in2="hardAlpha" operator="out"/>
<feColorMatrix type="matrix" values="0 0 0 0 0 0 0 0 0 0 0 0 0 0 0 0 0 0 0.03 0"/>
<feBlend mode="normal" in2="BackgroundImageFix" result="effect1_dropShadow_125_137"/>
<feBlend mode="normal" in="SourceGraphic" in2="effect1_dropShadow_125_137" result="shape"/>
</filter>
</defs>
</svg>
