<svg width="350" height="250" viewBox="0 0 350 250" fill="none" xmlns="http://www.w3.org/2000/svg">
<rect width="350" height="250" fill="url(#paint0_linear_2640_1790)"/>
<path d="M85 89.5C85 85.0817 88.5817 81.5 93 81.5H257C261.418 81.5 265 85.0817 265 89.5V161.5C265 165.918 261.418 169.5 257 169.5H93C88.5817 169.5 85 165.918 85 161.5V89.5Z" fill="white" fill-opacity="0.1"/>
<path d="M84.5 161.5C84.5 161.876 84.5244 162.246 84.5718 162.61L85.0676 162.545C85.1596 163.25 85.3436 163.927 85.607 164.562L85.1452 164.754C85.4319 165.445 85.807 166.09 86.2563 166.675L86.6528 166.37C87.0787 166.924 87.5755 167.421 88.1297 167.847L87.8251 168.244C88.4098 168.693 89.0549 169.068 89.7462 169.355L89.9377 168.893C90.573 169.156 91.2496 169.34 91.9551 169.432L91.8905 169.928C92.2538 169.976 92.6242 170 93 170H94V169.5H96V170H98V169.5H100V170H102V169.5H104V170H106V169.5H108V170H110V169.5H112V170H114V169.5H116V170H118V169.5H120V170H122V169.5H124V170H126V169.5H128V170H130V169.5H132V170H134V169.5H136V170H138V169.5H140V170H142V169.5H144V170H146V169.5H148V170H150V169.5H152V170H154V169.5H156V170H158V169.5H160V170H162V169.5H164V170H166V169.5H168V170H170V169.5H172V170H174V169.5H176V170H178V169.5H180V170H182V169.5H184V170H186V169.5H188V170H190V169.5H192V170H194V169.5H196V170H198V169.5H200V170H202V169.5H204V170H206V169.5H208V170H210V169.5H212V170H214V169.5H216V170H218V169.5H220V170H222V169.5H224V170H226V169.5H228V170H230V169.5H232V170H234V169.5H236V170H238V169.5H240V170H242V169.5H244V170H246V169.5H248V170H250V169.5H252V170H254V169.5H256V170H257C257.376 170 257.746 169.976 258.11 169.928L258.045 169.432C258.75 169.34 259.427 169.156 260.062 168.893L260.254 169.355C260.945 169.068 261.59 168.693 262.175 168.244L261.87 167.847C262.424 167.421 262.921 166.924 263.347 166.37L263.744 166.675C264.193 166.09 264.568 165.445 264.855 164.754L264.393 164.562C264.656 163.927 264.84 163.25 264.932 162.545L265.428 162.61C265.476 162.246 265.5 161.876 265.5 161.5V160.5H265V158.5H265.5V156.5H265V154.5H265.5V152.5H265V150.5H265.5V148.5H265V146.5H265.5V144.5H265V142.5H265.5V140.5H265V138.5H265.5V136.5H265V134.5H265.5V132.5H265V130.5H265.5V128.5H265V126.5H265.5V124.5H265V122.5H265.5V120.5H265V118.5H265.5V116.5H265V114.5H265.5V112.5H265V110.5H265.5V108.5H265V106.5H265.5V104.5H265V102.5H265.5V100.5H265V98.5H265.5V96.5H265V94.5H265.5V92.5H265V90.5H265.5V89.5C265.5 89.1242 265.476 88.7538 265.428 88.3905L264.932 88.4551C264.84 87.7496 264.656 87.073 264.393 86.4377L264.855 86.2462C264.568 85.5549 264.193 84.9098 263.744 84.3251L263.347 84.6297C262.921 84.0755 262.424 83.5787 261.87 83.1528L262.175 82.7563C261.59 82.307 260.945 81.9319 260.254 81.6452L260.062 82.107C259.427 81.8436 258.75 81.6596 258.045 81.5676L258.11 81.0718C257.746 81.0244 257.376 81 257 81H256V81.5H254V81H252V81.5H250V81H248V81.5H246V81H244V81.5H242V81H240V81.5H238V81H236V81.5H234V81H232V81.5H230V81H228V81.5H226V81H224V81.5H222V81H220V81.5H218V81H216V81.5H214V81H212V81.5H210V81H208V81.5H206V81H204V81.5H202V81H200V81.5H198V81H196V81.5H194V81H192V81.5H190V81H188V81.5H186V81H184V81.5H182V81H180V81.5H178V81H176V81.5H174V81H172V81.5H170V81H168V81.5H166V81H164V81.5H162V81H160V81.5H158V81H156V81.5H154V81H152V81.5H150V81H148V81.5H146V81H144V81.5H142V81H140V81.5H138V81H136V81.5H134V81H132V81.5H130V81H128V81.5H126V81H124V81.5H122V81H120V81.5H118V81H116V81.5H114V81H112V81.5H110V81H108V81.5H106V81H104V81.5H102V81H100V81.5H98V81H96V81.5H94V81H93C92.6242 81 92.2538 81.0244 91.8905 81.0718L91.9551 81.5676C91.2496 81.6596 90.573 81.8436 89.9377 82.107L89.7462 81.6452C89.0549 81.9319 88.4098 82.307 87.8251 82.7563L88.1297 83.1528C87.5755 83.5787 87.0787 84.0755 86.6528 84.6297L86.2563 84.3251C85.807 84.9098 85.4319 85.5549 85.1452 86.2462L85.607 86.4377C85.3436 87.073 85.1596 87.7496 85.0676 88.4551L84.5718 88.3905C84.5244 88.7538 84.5 89.1242 84.5 89.5V90.5H85V92.5H84.5V94.5H85V96.5H84.5V98.5H85V100.5H84.5V102.5H85V104.5H84.5V106.5H85V108.5H84.5V110.5H85V112.5H84.5V114.5H85V116.5H84.5V118.5H85V120.5H84.5V122.5H85V124.5H84.5V126.5H85V128.5H84.5V130.5H85V132.5H84.5V134.5H85V136.5H84.5V138.5H85V140.5H84.5V142.5H85V144.5H84.5V146.5H85V148.5H84.5V150.5H85V152.5H84.5V154.5H85V156.5H84.5V158.5H85V160.5H84.5V161.5Z" stroke="white" stroke-opacity="0.4" stroke-dasharray="2 2"/>
<path d="M162 109.5C162 102.32 167.82 96.5 175 96.5C182.18 96.5 188 102.32 188 109.5C188 116.68 182.18 122.5 175 122.5C167.82 122.5 162 116.68 162 109.5Z" fill="white" fill-opacity="0.1"/>
<path d="M181 111.5V114.167C181 114.52 180.86 114.859 180.609 115.109C180.359 115.36 180.02 115.5 179.667 115.5H170.333C169.98 115.5 169.641 115.36 169.391 115.109C169.14 114.859 169 114.52 169 114.167V111.5" stroke="white" stroke-linecap="round" stroke-linejoin="round"/>
<path d="M178.333 106.833L175 103.5L171.667 106.833" stroke="white" stroke-linecap="round" stroke-linejoin="round"/>
<path d="M175 103.5V111.5" stroke="white" stroke-linecap="round" stroke-linejoin="round"/>
<path d="M121.545 140.5H119.574V134.682H121.585C122.163 134.682 122.659 134.798 123.074 135.031C123.491 135.262 123.811 135.595 124.034 136.028C124.258 136.462 124.369 136.981 124.369 137.585C124.369 138.191 124.257 138.712 124.031 139.148C123.808 139.583 123.485 139.918 123.062 140.151C122.642 140.384 122.136 140.5 121.545 140.5ZM120.628 139.588H121.494C121.9 139.588 122.238 139.514 122.509 139.366C122.779 139.217 122.983 138.994 123.119 138.699C123.256 138.402 123.324 138.03 123.324 137.585C123.324 137.14 123.256 136.771 123.119 136.477C122.983 136.182 122.781 135.961 122.514 135.815C122.249 135.668 121.92 135.594 121.526 135.594H120.628V139.588ZM125.325 140.5V136.136H126.322V136.864H126.368C126.447 136.612 126.584 136.418 126.777 136.281C126.972 136.143 127.195 136.074 127.445 136.074C127.501 136.074 127.565 136.077 127.635 136.082C127.707 136.086 127.767 136.093 127.814 136.102V137.048C127.77 137.033 127.701 137.02 127.607 137.009C127.514 136.995 127.424 136.989 127.337 136.989C127.149 136.989 126.981 137.029 126.831 137.111C126.683 137.19 126.567 137.301 126.482 137.443C126.396 137.585 126.354 137.749 126.354 137.935V140.5H125.325ZM130.221 140.585C129.795 140.585 129.425 140.491 129.113 140.304C128.8 140.116 128.558 139.854 128.386 139.517C128.215 139.18 128.13 138.786 128.13 138.335C128.13 137.884 128.215 137.49 128.386 137.151C128.558 136.812 128.8 136.548 129.113 136.361C129.425 136.173 129.795 136.08 130.221 136.08C130.647 136.08 131.016 136.173 131.329 136.361C131.641 136.548 131.883 136.812 132.053 137.151C132.226 137.49 132.312 137.884 132.312 138.335C132.312 138.786 132.226 139.18 132.053 139.517C131.883 139.854 131.641 140.116 131.329 140.304C131.016 140.491 130.647 140.585 130.221 140.585ZM130.227 139.761C130.458 139.761 130.651 139.698 130.806 139.571C130.961 139.442 131.077 139.27 131.153 139.054C131.23 138.838 131.269 138.598 131.269 138.332C131.269 138.065 131.23 137.824 131.153 137.608C131.077 137.39 130.961 137.217 130.806 137.088C130.651 136.959 130.458 136.895 130.227 136.895C129.99 136.895 129.793 136.959 129.636 137.088C129.48 137.217 129.364 137.39 129.286 137.608C129.21 137.824 129.173 138.065 129.173 138.332C129.173 138.598 129.21 138.838 129.286 139.054C129.364 139.27 129.48 139.442 129.636 139.571C129.793 139.698 129.99 139.761 130.227 139.761ZM133.185 142.136V136.136H134.196V136.858H134.256C134.309 136.752 134.384 136.639 134.48 136.52C134.577 136.399 134.707 136.295 134.872 136.21C135.037 136.123 135.247 136.08 135.503 136.08C135.84 136.08 136.144 136.166 136.415 136.338C136.688 136.509 136.903 136.761 137.062 137.097C137.223 137.43 137.304 137.839 137.304 138.324C137.304 138.803 137.225 139.21 137.068 139.545C136.911 139.881 136.697 140.136 136.426 140.312C136.155 140.489 135.848 140.577 135.506 140.577C135.256 140.577 135.048 140.535 134.884 140.452C134.719 140.368 134.586 140.268 134.486 140.151C134.387 140.031 134.311 139.919 134.256 139.812H134.213V142.136H133.185ZM134.193 138.318C134.193 138.6 134.233 138.848 134.312 139.06C134.394 139.272 134.51 139.437 134.662 139.557C134.815 139.674 135.001 139.733 135.219 139.733C135.446 139.733 135.636 139.672 135.79 139.551C135.943 139.428 136.059 139.26 136.136 139.048C136.216 138.834 136.256 138.591 136.256 138.318C136.256 138.047 136.217 137.807 136.139 137.597C136.062 137.386 135.946 137.222 135.793 137.102C135.639 136.983 135.448 136.923 135.219 136.923C134.999 136.923 134.812 136.981 134.659 137.097C134.506 137.212 134.389 137.374 134.31 137.582C134.232 137.791 134.193 138.036 134.193 138.318ZM140.808 142.136C140.668 142.136 140.538 142.125 140.419 142.102C140.302 142.081 140.208 142.057 140.138 142.028L140.376 141.227C140.526 141.271 140.66 141.292 140.777 141.29C140.894 141.288 140.998 141.251 141.087 141.179C141.178 141.109 141.254 140.991 141.317 140.827L141.405 140.591L139.822 136.136H140.913L141.919 139.432H141.964L142.973 136.136H144.067L142.32 141.028C142.238 141.259 142.13 141.457 141.996 141.622C141.861 141.789 141.696 141.916 141.501 142.003C141.308 142.092 141.077 142.136 140.808 142.136ZM146.533 140.585C146.107 140.585 145.738 140.491 145.425 140.304C145.113 140.116 144.871 139.854 144.698 139.517C144.528 139.18 144.442 138.786 144.442 138.335C144.442 137.884 144.528 137.49 144.698 137.151C144.871 136.812 145.113 136.548 145.425 136.361C145.738 136.173 146.107 136.08 146.533 136.08C146.96 136.08 147.329 136.173 147.641 136.361C147.954 136.548 148.195 136.812 148.366 137.151C148.538 137.49 148.624 137.884 148.624 138.335C148.624 138.786 148.538 139.18 148.366 139.517C148.195 139.854 147.954 140.116 147.641 140.304C147.329 140.491 146.96 140.585 146.533 140.585ZM146.539 139.761C146.77 139.761 146.963 139.698 147.119 139.571C147.274 139.442 147.389 139.27 147.465 139.054C147.543 138.838 147.582 138.598 147.582 138.332C147.582 138.065 147.543 137.824 147.465 137.608C147.389 137.39 147.274 137.217 147.119 137.088C146.963 136.959 146.77 136.895 146.539 136.895C146.302 136.895 146.105 136.959 145.948 137.088C145.793 137.217 145.676 137.39 145.599 137.608C145.523 137.824 145.485 138.065 145.485 138.332C145.485 138.598 145.523 138.838 145.599 139.054C145.676 139.27 145.793 139.442 145.948 139.571C146.105 139.698 146.302 139.761 146.539 139.761ZM152.278 138.665V136.136H153.307V140.5H152.31V139.724H152.264C152.166 139.969 152.004 140.169 151.778 140.324C151.555 140.479 151.279 140.557 150.952 140.557C150.666 140.557 150.413 140.493 150.193 140.366C149.975 140.238 149.805 140.051 149.682 139.807C149.559 139.561 149.497 139.263 149.497 138.915V136.136H150.526V138.756C150.526 139.032 150.601 139.252 150.753 139.415C150.904 139.578 151.103 139.659 151.349 139.659C151.501 139.659 151.648 139.622 151.79 139.548C151.932 139.474 152.048 139.365 152.139 139.219C152.232 139.071 152.278 138.886 152.278 138.665ZM154.364 140.5V136.136H155.362V136.864H155.407C155.487 136.612 155.623 136.418 155.816 136.281C156.011 136.143 156.234 136.074 156.484 136.074C156.54 136.074 156.604 136.077 156.674 136.082C156.746 136.086 156.806 136.093 156.853 136.102V137.048C156.809 137.033 156.74 137.02 156.646 137.009C156.553 136.995 156.463 136.989 156.376 136.989C156.188 136.989 156.02 137.029 155.87 137.111C155.722 137.19 155.606 137.301 155.521 137.443C155.435 137.585 155.393 137.749 155.393 137.935V140.5H154.364ZM161.731 136.136V136.932H159.151V136.136H161.731ZM159.796 140.5V135.724C159.796 135.431 159.857 135.187 159.978 134.991C160.101 134.796 160.266 134.651 160.472 134.554C160.679 134.457 160.908 134.409 161.16 134.409C161.338 134.409 161.496 134.423 161.634 134.452C161.772 134.48 161.875 134.506 161.941 134.528L161.737 135.324C161.693 135.311 161.638 135.297 161.572 135.284C161.505 135.269 161.432 135.261 161.35 135.261C161.159 135.261 161.023 135.308 160.944 135.401C160.866 135.491 160.827 135.622 160.827 135.793V140.5H159.796ZM162.536 140.5V136.136H163.565V140.5H162.536ZM163.053 135.517C162.89 135.517 162.75 135.463 162.633 135.355C162.515 135.245 162.457 135.114 162.457 134.96C162.457 134.805 162.515 134.673 162.633 134.565C162.75 134.455 162.89 134.401 163.053 134.401C163.218 134.401 163.358 134.455 163.474 134.565C163.591 134.673 163.65 134.805 163.65 134.96C163.65 135.114 163.591 135.245 163.474 135.355C163.358 135.463 163.218 135.517 163.053 135.517ZM165.651 134.682V140.5H164.622V134.682H165.651ZM168.64 140.585C168.202 140.585 167.825 140.494 167.506 140.312C167.19 140.129 166.947 139.869 166.776 139.534C166.606 139.197 166.521 138.8 166.521 138.344C166.521 137.895 166.606 137.501 166.776 137.162C166.949 136.821 167.189 136.556 167.498 136.366C167.807 136.175 168.169 136.08 168.586 136.08C168.855 136.08 169.109 136.123 169.347 136.21C169.588 136.295 169.8 136.428 169.984 136.608C170.169 136.788 170.315 137.017 170.421 137.295C170.527 137.572 170.58 137.902 170.58 138.284V138.599H167.004V137.906H169.594C169.593 137.709 169.55 137.534 169.467 137.381C169.383 137.225 169.267 137.103 169.117 137.014C168.969 136.925 168.797 136.881 168.6 136.881C168.39 136.881 168.205 136.932 168.046 137.034C167.887 137.134 167.763 137.267 167.674 137.432C167.587 137.595 167.542 137.774 167.54 137.969V138.574C167.54 138.828 167.587 139.045 167.68 139.227C167.772 139.407 167.902 139.545 168.069 139.642C168.236 139.737 168.431 139.784 168.654 139.784C168.804 139.784 168.939 139.763 169.06 139.722C169.182 139.678 169.287 139.615 169.376 139.531C169.465 139.448 169.532 139.345 169.577 139.222L170.538 139.33C170.477 139.583 170.362 139.805 170.191 139.994C170.022 140.182 169.807 140.328 169.543 140.432C169.28 140.534 168.979 140.585 168.64 140.585ZM174.463 137.943V140.5H173.435V134.682H174.44V136.878H174.491C174.594 136.632 174.752 136.437 174.966 136.295C175.182 136.152 175.456 136.08 175.79 136.08C176.093 136.08 176.357 136.143 176.582 136.27C176.808 136.397 176.982 136.582 177.105 136.827C177.23 137.071 177.293 137.369 177.293 137.722V140.5H176.264V137.881C176.264 137.587 176.188 137.359 176.037 137.196C175.887 137.031 175.677 136.949 175.406 136.949C175.224 136.949 175.062 136.989 174.918 137.068C174.776 137.146 174.664 137.259 174.582 137.406C174.503 137.554 174.463 137.733 174.463 137.943ZM180.273 140.585C179.835 140.585 179.457 140.494 179.139 140.312C178.823 140.129 178.58 139.869 178.409 139.534C178.239 139.197 178.153 138.8 178.153 138.344C178.153 137.895 178.239 137.501 178.409 137.162C178.581 136.821 178.822 136.556 179.131 136.366C179.439 136.175 179.802 136.08 180.219 136.08C180.488 136.08 180.741 136.123 180.98 136.21C181.221 136.295 181.433 136.428 181.616 136.608C181.802 136.788 181.948 137.017 182.054 137.295C182.16 137.572 182.213 137.902 182.213 138.284V138.599H178.636V137.906H181.227C181.225 137.709 181.183 137.534 181.099 137.381C181.016 137.225 180.9 137.103 180.75 137.014C180.602 136.925 180.43 136.881 180.233 136.881C180.023 136.881 179.838 136.932 179.679 137.034C179.52 137.134 179.396 137.267 179.307 137.432C179.22 137.595 179.175 137.774 179.173 137.969V138.574C179.173 138.828 179.22 139.045 179.312 139.227C179.405 139.407 179.535 139.545 179.702 139.642C179.868 139.737 180.063 139.784 180.287 139.784C180.437 139.784 180.572 139.763 180.693 139.722C180.814 139.678 180.92 139.615 181.009 139.531C181.098 139.448 181.165 139.345 181.21 139.222L182.17 139.33C182.11 139.583 181.994 139.805 181.824 139.994C181.655 140.182 181.439 140.328 181.176 140.432C180.913 140.534 180.612 140.585 180.273 140.585ZM183.083 140.5V136.136H184.08V136.864H184.126C184.205 136.612 184.342 136.418 184.535 136.281C184.73 136.143 184.952 136.074 185.202 136.074C185.259 136.074 185.323 136.077 185.393 136.082C185.465 136.086 185.524 136.093 185.572 136.102V137.048C185.528 137.033 185.459 137.02 185.364 137.009C185.272 136.995 185.182 136.989 185.094 136.989C184.907 136.989 184.738 137.029 184.589 137.111C184.441 137.19 184.325 137.301 184.239 137.443C184.154 137.585 184.112 137.749 184.112 137.935V140.5H183.083ZM188.007 140.585C187.57 140.585 187.192 140.494 186.874 140.312C186.557 140.129 186.314 139.869 186.143 139.534C185.973 139.197 185.888 138.8 185.888 138.344C185.888 137.895 185.973 137.501 186.143 137.162C186.316 136.821 186.556 136.556 186.865 136.366C187.174 136.175 187.536 136.08 187.953 136.08C188.222 136.08 188.476 136.123 188.714 136.21C188.955 136.295 189.167 136.428 189.351 136.608C189.536 136.788 189.682 137.017 189.788 137.295C189.894 137.572 189.947 137.902 189.947 138.284V138.599H186.371V137.906H188.962C188.96 137.709 188.917 137.534 188.834 137.381C188.75 137.225 188.634 137.103 188.484 137.014C188.337 136.925 188.164 136.881 187.967 136.881C187.757 136.881 187.572 136.932 187.413 137.034C187.254 137.134 187.13 137.267 187.041 137.432C186.954 137.595 186.91 137.774 186.908 137.969V138.574C186.908 138.828 186.954 139.045 187.047 139.227C187.14 139.407 187.269 139.545 187.436 139.642C187.603 139.737 187.798 139.784 188.021 139.784C188.171 139.784 188.306 139.763 188.428 139.722C188.549 139.678 188.654 139.615 188.743 139.531C188.832 139.448 188.899 139.345 188.945 139.222L189.905 139.33C189.844 139.583 189.729 139.805 189.558 139.994C189.39 140.182 189.174 140.328 188.911 140.432C188.647 140.534 188.346 140.585 188.007 140.585ZM194.705 140.585C194.279 140.585 193.91 140.491 193.597 140.304C193.285 140.116 193.042 139.854 192.87 139.517C192.7 139.18 192.614 138.786 192.614 138.335C192.614 137.884 192.7 137.49 192.87 137.151C193.042 136.812 193.285 136.548 193.597 136.361C193.91 136.173 194.279 136.08 194.705 136.08C195.131 136.08 195.501 136.173 195.813 136.361C196.126 136.548 196.367 136.812 196.538 137.151C196.71 137.49 196.796 137.884 196.796 138.335C196.796 138.786 196.71 139.18 196.538 139.517C196.367 139.854 196.126 140.116 195.813 140.304C195.501 140.491 195.131 140.585 194.705 140.585ZM194.711 139.761C194.942 139.761 195.135 139.698 195.29 139.571C195.446 139.442 195.561 139.27 195.637 139.054C195.715 138.838 195.754 138.598 195.754 138.332C195.754 138.065 195.715 137.824 195.637 137.608C195.561 137.39 195.446 137.217 195.29 137.088C195.135 136.959 194.942 136.895 194.711 136.895C194.474 136.895 194.277 136.959 194.12 137.088C193.965 137.217 193.848 137.39 193.771 137.608C193.695 137.824 193.657 138.065 193.657 138.332C193.657 138.598 193.695 138.838 193.771 139.054C193.848 139.27 193.965 139.442 194.12 139.571C194.277 139.698 194.474 139.761 194.711 139.761ZM197.669 140.5V136.136H198.666V136.864H198.712C198.791 136.612 198.928 136.418 199.121 136.281C199.316 136.143 199.538 136.074 199.788 136.074C199.845 136.074 199.909 136.077 199.979 136.082C200.051 136.086 200.11 136.093 200.158 136.102V137.048C200.114 137.033 200.045 137.02 199.95 137.009C199.857 136.995 199.768 136.989 199.68 136.989C199.493 136.989 199.324 137.029 199.175 137.111C199.027 137.19 198.911 137.301 198.825 137.443C198.74 137.585 198.697 137.749 198.697 137.935V140.5H197.669ZM202.871 140.5V134.682H203.899V136.858H203.942C203.995 136.752 204.07 136.639 204.166 136.52C204.263 136.399 204.393 136.295 204.558 136.21C204.723 136.123 204.933 136.08 205.189 136.08C205.526 136.08 205.83 136.166 206.101 136.338C206.374 136.509 206.589 136.761 206.749 137.097C206.91 137.43 206.99 137.839 206.99 138.324C206.99 138.803 206.911 139.21 206.754 139.545C206.597 139.881 206.383 140.136 206.112 140.312C205.841 140.489 205.535 140.577 205.192 140.577C204.942 140.577 204.734 140.535 204.57 140.452C204.405 140.368 204.272 140.268 204.172 140.151C204.073 140.031 203.997 139.919 203.942 139.812H203.882V140.5H202.871ZM203.879 138.318C203.879 138.6 203.919 138.848 203.999 139.06C204.08 139.272 204.196 139.437 204.348 139.557C204.501 139.674 204.687 139.733 204.905 139.733C205.132 139.733 205.322 139.672 205.476 139.551C205.629 139.428 205.745 139.26 205.822 139.048C205.902 138.834 205.942 138.591 205.942 138.318C205.942 138.047 205.903 137.807 205.825 137.597C205.748 137.386 205.632 137.222 205.479 137.102C205.325 136.983 205.134 136.923 204.905 136.923C204.685 136.923 204.499 136.981 204.345 137.097C204.192 137.212 204.075 137.374 203.996 137.582C203.918 137.791 203.879 138.036 203.879 138.318ZM207.864 140.5V136.136H208.862V136.864H208.907C208.987 136.612 209.123 136.418 209.316 136.281C209.511 136.143 209.734 136.074 209.984 136.074C210.04 136.074 210.104 136.077 210.174 136.082C210.246 136.086 210.306 136.093 210.353 136.102V137.048C210.309 137.033 210.24 137.02 210.146 137.009C210.053 136.995 209.963 136.989 209.876 136.989C209.688 136.989 209.52 137.029 209.37 137.111C209.222 137.19 209.106 137.301 209.021 137.443C208.935 137.585 208.893 137.749 208.893 137.935V140.5H207.864ZM212.76 140.585C212.334 140.585 211.964 140.491 211.652 140.304C211.339 140.116 211.097 139.854 210.925 139.517C210.754 139.18 210.669 138.786 210.669 138.335C210.669 137.884 210.754 137.49 210.925 137.151C211.097 136.812 211.339 136.548 211.652 136.361C211.964 136.173 212.334 136.08 212.76 136.08C213.186 136.08 213.555 136.173 213.868 136.361C214.18 136.548 214.422 136.812 214.592 137.151C214.765 137.49 214.851 137.884 214.851 138.335C214.851 138.786 214.765 139.18 214.592 139.517C214.422 139.854 214.18 140.116 213.868 140.304C213.555 140.491 213.186 140.585 212.76 140.585ZM212.766 139.761C212.997 139.761 213.19 139.698 213.345 139.571C213.5 139.442 213.616 139.27 213.692 139.054C213.769 138.838 213.808 138.598 213.808 138.332C213.808 138.065 213.769 137.824 213.692 137.608C213.616 137.39 213.5 137.217 213.345 137.088C213.19 136.959 212.997 136.895 212.766 136.895C212.529 136.895 212.332 136.959 212.175 137.088C212.019 137.217 211.903 137.39 211.825 137.608C211.75 137.824 211.712 138.065 211.712 138.332C211.712 138.598 211.75 138.838 211.825 139.054C211.903 139.27 212.019 139.442 212.175 139.571C212.332 139.698 212.529 139.761 212.766 139.761ZM216.499 140.5L215.266 136.136H216.315L217.082 139.205H217.121L217.906 136.136H218.942L219.727 139.188H219.769L220.525 136.136H221.576L220.34 140.5H219.269L218.451 137.551H218.391L217.573 140.5H216.499ZM225.743 137.29L224.805 137.392C224.779 137.297 224.732 137.208 224.666 137.125C224.602 137.042 224.515 136.974 224.405 136.923C224.295 136.872 224.161 136.847 224.001 136.847C223.787 136.847 223.607 136.893 223.462 136.986C223.318 137.079 223.247 137.199 223.249 137.347C223.247 137.473 223.293 137.577 223.388 137.656C223.484 137.736 223.643 137.801 223.865 137.852L224.609 138.011C225.022 138.1 225.329 138.241 225.53 138.435C225.732 138.628 225.835 138.881 225.837 139.193C225.835 139.468 225.754 139.71 225.595 139.92C225.438 140.129 225.219 140.292 224.939 140.409C224.659 140.527 224.337 140.585 223.973 140.585C223.439 140.585 223.009 140.473 222.683 140.25C222.357 140.025 222.163 139.711 222.101 139.31L223.104 139.213C223.149 139.41 223.246 139.559 223.393 139.659C223.541 139.759 223.733 139.81 223.97 139.81C224.214 139.81 224.411 139.759 224.558 139.659C224.708 139.559 224.783 139.435 224.783 139.287C224.783 139.162 224.734 139.059 224.638 138.977C224.543 138.896 224.395 138.833 224.195 138.79L223.45 138.634C223.032 138.546 222.722 138.4 222.521 138.193C222.321 137.985 222.221 137.722 222.223 137.403C222.221 137.134 222.294 136.902 222.442 136.705C222.591 136.506 222.799 136.352 223.064 136.244C223.331 136.134 223.639 136.08 223.987 136.08C224.499 136.08 224.901 136.188 225.195 136.406C225.49 136.624 225.673 136.919 225.743 137.29ZM228.616 140.585C228.179 140.585 227.801 140.494 227.483 140.312C227.167 140.129 226.923 139.869 226.753 139.534C226.582 139.197 226.497 138.8 226.497 138.344C226.497 137.895 226.582 137.501 226.753 137.162C226.925 136.821 227.166 136.556 227.474 136.366C227.783 136.175 228.146 136.08 228.562 136.08C228.831 136.08 229.085 136.123 229.324 136.21C229.564 136.295 229.777 136.428 229.96 136.608C230.146 136.788 230.292 137.017 230.398 137.295C230.504 137.572 230.557 137.902 230.557 138.284V138.599H226.98V137.906H229.571C229.569 137.709 229.527 137.534 229.443 137.381C229.36 137.225 229.243 137.103 229.094 137.014C228.946 136.925 228.774 136.881 228.577 136.881C228.366 136.881 228.182 136.932 228.023 137.034C227.864 137.134 227.74 137.267 227.651 137.432C227.563 137.595 227.519 137.774 227.517 137.969V138.574C227.517 138.828 227.563 139.045 227.656 139.227C227.749 139.407 227.879 139.545 228.045 139.642C228.212 139.737 228.407 139.784 228.631 139.784C228.78 139.784 228.916 139.763 229.037 139.722C229.158 139.678 229.263 139.615 229.352 139.531C229.441 139.448 229.509 139.345 229.554 139.222L230.514 139.33C230.454 139.583 230.338 139.805 230.168 139.994C229.999 140.182 229.783 140.328 229.52 140.432C229.257 140.534 228.955 140.585 228.616 140.585Z" fill="white"/>
<path d="M135.639 152.5V146.682H137.713C138.166 146.682 138.541 146.764 138.838 146.929C139.135 147.094 139.358 147.319 139.506 147.605C139.653 147.889 139.727 148.209 139.727 148.565C139.727 148.923 139.652 149.245 139.503 149.531C139.355 149.815 139.132 150.041 138.832 150.207C138.535 150.372 138.161 150.455 137.71 150.455H136.284V149.71H137.631C137.917 149.71 138.149 149.661 138.327 149.562C138.505 149.462 138.635 149.326 138.719 149.153C138.802 148.981 138.844 148.785 138.844 148.565C138.844 148.346 138.802 148.151 138.719 147.98C138.635 147.81 138.504 147.676 138.324 147.58C138.146 147.483 137.911 147.435 137.619 147.435H136.517V152.5H135.639ZM140.688 152.5V148.136H141.538V152.5H140.688ZM141.117 147.463C140.969 147.463 140.843 147.414 140.737 147.315C140.632 147.215 140.58 147.096 140.58 146.957C140.58 146.817 140.632 146.698 140.737 146.599C140.843 146.499 140.969 146.449 141.117 146.449C141.265 146.449 141.391 146.499 141.495 146.599C141.601 146.698 141.654 146.817 141.654 146.957C141.654 147.096 141.601 147.215 141.495 147.315C141.391 147.414 141.265 147.463 141.117 147.463ZM144.518 152.588C144.096 152.588 143.732 152.492 143.428 152.301C143.125 152.108 142.892 151.842 142.729 151.503C142.566 151.164 142.484 150.776 142.484 150.338C142.484 149.895 142.568 149.504 142.734 149.165C142.901 148.824 143.136 148.558 143.439 148.366C143.742 148.175 144.099 148.08 144.51 148.08C144.841 148.08 145.137 148.141 145.396 148.264C145.656 148.385 145.865 148.556 146.024 148.776C146.185 148.995 146.281 149.252 146.311 149.545H145.484C145.439 149.341 145.335 149.165 145.172 149.017C145.011 148.869 144.795 148.795 144.524 148.795C144.287 148.795 144.08 148.858 143.902 148.983C143.726 149.106 143.589 149.282 143.49 149.511C143.392 149.739 143.342 150.008 143.342 150.318C143.342 150.636 143.391 150.911 143.487 151.142C143.584 151.373 143.72 151.552 143.896 151.679C144.074 151.806 144.284 151.869 144.524 151.869C144.685 151.869 144.831 151.84 144.962 151.781C145.094 151.721 145.205 151.634 145.294 151.523C145.385 151.411 145.448 151.277 145.484 151.119H146.311C146.281 151.402 146.189 151.653 146.036 151.875C145.882 152.097 145.677 152.271 145.419 152.398C145.163 152.525 144.863 152.588 144.518 152.588ZM148.001 151.02L147.995 149.983H148.143L149.881 148.136H150.898L148.915 150.239H148.782L148.001 151.02ZM147.219 152.5V146.682H148.069V152.5H147.219ZM149.975 152.5L148.413 150.426L148.998 149.832L151.018 152.5H149.975ZM155.06 152.597C154.783 152.597 154.533 152.545 154.31 152.443C154.086 152.339 153.909 152.188 153.778 151.991C153.65 151.795 153.585 151.553 153.585 151.267C153.585 151.021 153.633 150.818 153.727 150.659C153.822 150.5 153.95 150.374 154.111 150.281C154.272 150.188 154.452 150.118 154.651 150.071C154.849 150.024 155.052 149.988 155.259 149.963C155.52 149.933 155.732 149.908 155.895 149.889C156.058 149.868 156.176 149.835 156.25 149.79C156.324 149.744 156.361 149.67 156.361 149.568V149.548C156.361 149.3 156.291 149.108 156.151 148.972C156.012 148.835 155.806 148.767 155.531 148.767C155.245 148.767 155.02 148.83 154.855 148.957C154.692 149.082 154.58 149.222 154.517 149.375L153.719 149.193C153.813 148.928 153.952 148.714 154.134 148.551C154.317 148.386 154.528 148.267 154.767 148.193C155.006 148.117 155.257 148.08 155.52 148.08C155.694 148.08 155.879 148.1 156.074 148.142C156.271 148.182 156.455 148.256 156.625 148.364C156.797 148.472 156.938 148.626 157.048 148.827C157.158 149.026 157.213 149.284 157.213 149.602V152.5H156.384V151.903H156.349C156.295 152.013 156.212 152.121 156.102 152.227C155.992 152.333 155.851 152.421 155.679 152.491C155.507 152.562 155.3 152.597 155.06 152.597ZM155.244 151.915C155.479 151.915 155.68 151.868 155.847 151.776C156.015 151.683 156.143 151.562 156.23 151.412C156.319 151.26 156.364 151.098 156.364 150.926V150.364C156.333 150.394 156.275 150.422 156.188 150.449C156.102 150.473 156.005 150.495 155.895 150.514C155.785 150.531 155.678 150.547 155.574 150.562C155.47 150.576 155.383 150.587 155.312 150.597C155.148 150.617 154.997 150.652 154.861 150.702C154.726 150.751 154.618 150.822 154.537 150.915C154.457 151.006 154.418 151.127 154.418 151.278C154.418 151.489 154.495 151.648 154.651 151.756C154.806 151.862 155.004 151.915 155.244 151.915ZM162.538 148.136V148.818H160.072V148.136H162.538ZM160.749 152.5V147.631C160.749 147.358 160.808 147.132 160.928 146.952C161.047 146.77 161.205 146.634 161.402 146.545C161.599 146.455 161.813 146.409 162.044 146.409C162.214 146.409 162.36 146.423 162.482 146.452C162.603 146.478 162.693 146.503 162.751 146.526L162.553 147.213C162.513 147.202 162.462 147.188 162.399 147.173C162.337 147.156 162.261 147.148 162.172 147.148C161.965 147.148 161.818 147.199 161.729 147.301C161.642 147.403 161.598 147.551 161.598 147.744V152.5H160.749ZM163.415 152.5V148.136H164.264V152.5H163.415ZM163.844 147.463C163.696 147.463 163.569 147.414 163.463 147.315C163.359 147.215 163.307 147.096 163.307 146.957C163.307 146.817 163.359 146.698 163.463 146.599C163.569 146.499 163.696 146.449 163.844 146.449C163.991 146.449 164.117 146.499 164.222 146.599C164.328 146.698 164.381 146.817 164.381 146.957C164.381 147.096 164.328 147.215 164.222 147.315C164.117 147.414 163.991 147.463 163.844 147.463ZM166.256 146.682V152.5H165.407V146.682H166.256ZM169.28 152.588C168.85 152.588 168.48 152.496 168.169 152.312C167.86 152.127 167.622 151.866 167.453 151.531C167.286 151.194 167.203 150.799 167.203 150.347C167.203 149.9 167.286 149.506 167.453 149.165C167.622 148.824 167.857 148.558 168.158 148.366C168.461 148.175 168.815 148.08 169.22 148.08C169.466 148.08 169.705 148.12 169.936 148.202C170.167 148.283 170.375 148.411 170.558 148.585C170.742 148.759 170.887 148.986 170.993 149.264C171.099 149.541 171.152 149.877 171.152 150.273V150.574H167.683V149.938H170.32C170.32 149.714 170.274 149.516 170.183 149.344C170.092 149.17 169.964 149.032 169.8 148.932C169.637 148.831 169.446 148.781 169.226 148.781C168.987 148.781 168.779 148.84 168.601 148.957C168.425 149.073 168.288 149.224 168.192 149.412C168.097 149.598 168.05 149.799 168.05 150.017V150.514C168.05 150.806 168.101 151.054 168.203 151.259C168.307 151.463 168.452 151.619 168.638 151.727C168.823 151.833 169.04 151.886 169.288 151.886C169.449 151.886 169.596 151.864 169.729 151.818C169.861 151.771 169.976 151.701 170.072 151.608C170.169 151.515 170.243 151.401 170.294 151.264L171.098 151.409C171.034 151.646 170.918 151.853 170.751 152.031C170.587 152.207 170.379 152.345 170.129 152.443C169.881 152.54 169.598 152.588 169.28 152.588ZM176.976 150.69V148.136H177.828V152.5H176.993V151.744H176.947C176.847 151.977 176.686 152.171 176.464 152.327C176.245 152.48 175.971 152.557 175.643 152.557C175.363 152.557 175.115 152.495 174.899 152.372C174.685 152.247 174.517 152.062 174.393 151.818C174.272 151.574 174.212 151.272 174.212 150.912V148.136H175.061V150.81C175.061 151.107 175.143 151.344 175.308 151.52C175.473 151.696 175.687 151.784 175.95 151.784C176.109 151.784 176.268 151.744 176.425 151.665C176.584 151.585 176.715 151.465 176.82 151.304C176.926 151.143 176.978 150.938 176.976 150.69ZM178.969 154.136V148.136H179.799V148.844H179.87C179.919 148.753 179.99 148.648 180.083 148.528C180.176 148.409 180.305 148.305 180.469 148.216C180.634 148.125 180.852 148.08 181.123 148.08C181.475 148.08 181.79 148.169 182.066 148.347C182.343 148.525 182.559 148.781 182.717 149.116C182.876 149.452 182.955 149.855 182.955 150.327C182.955 150.798 182.877 151.203 182.719 151.54C182.562 151.875 182.346 152.134 182.072 152.315C181.797 152.495 181.484 152.585 181.131 152.585C180.866 152.585 180.649 152.541 180.481 152.452C180.314 152.363 180.183 152.259 180.089 152.139C179.994 152.02 179.921 151.914 179.87 151.821H179.819V154.136H178.969ZM179.802 150.318C179.802 150.625 179.846 150.894 179.935 151.125C180.024 151.356 180.153 151.537 180.322 151.668C180.49 151.796 180.697 151.861 180.941 151.861C181.195 151.861 181.407 151.794 181.577 151.659C181.748 151.523 181.877 151.338 181.964 151.105C182.053 150.872 182.097 150.61 182.097 150.318C182.097 150.03 182.054 149.772 181.967 149.543C181.881 149.313 181.753 149.133 181.58 149C181.41 148.867 181.197 148.801 180.941 148.801C180.695 148.801 180.487 148.865 180.316 148.991C180.147 149.118 180.02 149.295 179.933 149.523C179.845 149.75 179.802 150.015 179.802 150.318ZM188.061 148.136V148.818H185.678V148.136H188.061ZM186.317 147.091H187.166V151.219C187.166 151.384 187.191 151.508 187.24 151.591C187.289 151.672 187.353 151.728 187.43 151.759C187.51 151.787 187.596 151.801 187.689 151.801C187.757 151.801 187.817 151.796 187.868 151.787C187.919 151.777 187.959 151.77 187.987 151.764L188.141 152.466C188.091 152.485 188.021 152.504 187.93 152.523C187.839 152.544 187.726 152.555 187.589 152.557C187.366 152.561 187.158 152.521 186.964 152.438C186.771 152.354 186.615 152.225 186.496 152.051C186.376 151.877 186.317 151.658 186.317 151.395V147.091ZM190.792 152.588C190.383 152.588 190.026 152.494 189.721 152.307C189.416 152.119 189.179 151.857 189.011 151.52C188.842 151.183 188.758 150.789 188.758 150.338C188.758 149.885 188.842 149.49 189.011 149.151C189.179 148.812 189.416 148.548 189.721 148.361C190.026 148.173 190.383 148.08 190.792 148.08C191.201 148.08 191.558 148.173 191.863 148.361C192.168 148.548 192.405 148.812 192.573 149.151C192.742 149.49 192.826 149.885 192.826 150.338C192.826 150.789 192.742 151.183 192.573 151.52C192.405 151.857 192.168 152.119 191.863 152.307C191.558 152.494 191.201 152.588 190.792 152.588ZM190.795 151.875C191.06 151.875 191.28 151.805 191.454 151.665C191.628 151.525 191.757 151.338 191.84 151.105C191.925 150.872 191.968 150.616 191.968 150.335C191.968 150.057 191.925 149.801 191.84 149.568C191.757 149.333 191.628 149.145 191.454 149.003C191.28 148.861 191.06 148.79 190.795 148.79C190.528 148.79 190.306 148.861 190.13 149.003C189.956 149.145 189.826 149.333 189.741 149.568C189.657 149.801 189.616 150.057 189.616 150.335C189.616 150.616 189.657 150.872 189.741 151.105C189.826 151.338 189.956 151.525 190.13 151.665C190.306 151.805 190.528 151.875 190.795 151.875ZM195.88 152.5V151.864L197.849 149.824C198.059 149.602 198.232 149.408 198.369 149.241C198.507 149.073 198.61 148.913 198.678 148.761C198.746 148.61 198.781 148.449 198.781 148.278C198.781 148.085 198.735 147.919 198.644 147.778C198.553 147.636 198.429 147.527 198.272 147.452C198.115 147.374 197.938 147.335 197.741 147.335C197.532 147.335 197.351 147.378 197.195 147.463C197.04 147.548 196.921 147.669 196.837 147.824C196.754 147.979 196.712 148.161 196.712 148.369H195.874C195.874 148.015 195.956 147.705 196.119 147.44C196.281 147.175 196.505 146.97 196.789 146.824C197.073 146.676 197.396 146.602 197.758 146.602C198.123 146.602 198.445 146.675 198.724 146.821C199.004 146.965 199.223 147.162 199.38 147.412C199.537 147.66 199.616 147.94 199.616 148.253C199.616 148.469 199.575 148.68 199.494 148.886C199.414 149.093 199.275 149.323 199.076 149.577C198.877 149.829 198.601 150.134 198.246 150.494L197.09 151.705V151.747H199.71V152.5H195.88ZM200.866 146.682H201.931L203.783 151.205H203.852L205.704 146.682H206.769V152.5H205.934V148.29H205.88L204.164 152.491H203.471L201.755 148.287H201.701V152.5H200.866V146.682ZM208.045 152.5V146.682H210.176C210.589 146.682 210.931 146.75 211.202 146.886C211.473 147.021 211.675 147.204 211.81 147.435C211.944 147.664 212.011 147.922 212.011 148.21C212.011 148.453 211.967 148.657 211.878 148.824C211.789 148.989 211.67 149.121 211.52 149.222C211.372 149.32 211.209 149.392 211.031 149.438V149.494C211.224 149.504 211.413 149.566 211.597 149.682C211.782 149.795 211.936 149.957 212.057 150.168C212.178 150.378 212.239 150.634 212.239 150.935C212.239 151.232 212.169 151.499 212.028 151.736C211.89 151.971 211.676 152.157 211.386 152.295C211.097 152.432 210.726 152.5 210.276 152.5H208.045ZM208.923 151.747H210.19C210.611 151.747 210.912 151.666 211.094 151.503C211.276 151.34 211.366 151.136 211.366 150.892C211.366 150.708 211.32 150.54 211.227 150.386C211.134 150.233 211.002 150.111 210.83 150.02C210.659 149.929 210.456 149.884 210.222 149.884H208.923V151.747ZM208.923 149.199H210.099C210.296 149.199 210.473 149.161 210.631 149.085C210.79 149.009 210.916 148.903 211.009 148.767C211.103 148.629 211.151 148.466 211.151 148.278C211.151 148.038 211.066 147.836 210.898 147.673C210.729 147.51 210.471 147.429 210.122 147.429H208.923V149.199ZM213.771 152.554C213.616 152.554 213.482 152.499 213.371 152.389C213.259 152.277 213.203 152.143 213.203 151.986C213.203 151.83 213.259 151.698 213.371 151.588C213.482 151.476 213.616 151.42 213.771 151.42C213.927 151.42 214.06 151.476 214.172 151.588C214.284 151.698 214.339 151.83 214.339 151.986C214.339 152.09 214.313 152.186 214.26 152.273C214.209 152.358 214.141 152.426 214.055 152.477C213.97 152.528 213.875 152.554 213.771 152.554Z" fill="white" fill-opacity="0.3"/>
<defs>
<linearGradient id="paint0_linear_2640_1790" x1="105.5" y1="9.49171e-06" x2="350" y2="250" gradientUnits="userSpaceOnUse">
<stop stop-color="#6366F1"/>
<stop offset="1" stop-color="#0EA5E9"/>
</linearGradient>
</defs>
</svg>
