<svg width="350" height="250" viewBox="0 0 350 250" fill="none" xmlns="http://www.w3.org/2000/svg">
<rect width="350" height="250" fill="url(#paint0_linear_139_1762)"/>
<g filter="url(#filter0_d_139_1762)">
<path d="M70 107C70 102.582 73.5817 99 78 99H272C276.418 99 280 102.582 280 107V143C280 147.418 276.418 151 272 151H78C73.5817 151 70 147.418 70 143V107Z" fill="white" fill-opacity="0.05" shape-rendering="crispEdges"/>
<path d="M87.8295 114.455C87.7784 114.023 87.571 113.688 87.2074 113.449C86.8438 113.21 86.3977 113.091 85.8693 113.091C85.483 113.091 85.1449 113.153 84.8551 113.278C84.5682 113.403 84.3438 113.575 84.1818 113.794C84.0227 114.013 83.9432 114.261 83.9432 114.54C83.9432 114.773 83.9986 114.973 84.1094 115.141C84.223 115.305 84.3679 115.443 84.544 115.554C84.7202 115.662 84.9048 115.751 85.098 115.822C85.2912 115.891 85.4688 115.946 85.6307 115.989L86.517 116.227C86.7443 116.287 86.9972 116.369 87.2756 116.474C87.5568 116.58 87.8253 116.723 88.081 116.905C88.3395 117.084 88.5526 117.314 88.7202 117.595C88.8878 117.876 88.9716 118.222 88.9716 118.631C88.9716 119.102 88.848 119.528 88.6009 119.909C88.3565 120.29 87.9986 120.592 87.527 120.817C87.0582 121.041 86.4886 121.153 85.8182 121.153C85.1932 121.153 84.652 121.053 84.1946 120.851C83.7401 120.649 83.3821 120.368 83.1207 120.007C82.8622 119.646 82.7159 119.227 82.6818 118.75H83.7727C83.8011 119.08 83.9119 119.352 84.1051 119.568C84.3011 119.781 84.5483 119.94 84.8466 120.045C85.1477 120.148 85.4716 120.199 85.8182 120.199C86.2216 120.199 86.5838 120.134 86.9048 120.003C87.2259 119.869 87.4801 119.685 87.6676 119.449C87.8551 119.21 87.9489 118.932 87.9489 118.614C87.9489 118.324 87.8679 118.088 87.706 117.906C87.544 117.724 87.331 117.577 87.0668 117.463C86.8026 117.349 86.517 117.25 86.2102 117.165L85.1364 116.858C84.4545 116.662 83.9148 116.382 83.517 116.018C83.1193 115.655 82.9205 115.179 82.9205 114.591C82.9205 114.102 83.0526 113.676 83.3168 113.312C83.5838 112.946 83.9418 112.662 84.3906 112.46C84.8423 112.256 85.3466 112.153 85.9034 112.153C86.4659 112.153 86.9659 112.254 87.4034 112.456C87.8409 112.655 88.1875 112.928 88.4432 113.274C88.7017 113.621 88.8381 114.014 88.8523 114.455H87.8295ZM93.3771 121.136C92.7464 121.136 92.2024 120.997 91.745 120.719C91.2905 120.438 90.9396 120.045 90.6925 119.543C90.4481 119.037 90.326 118.449 90.326 117.778C90.326 117.108 90.4481 116.517 90.6925 116.006C90.9396 115.491 91.2834 115.091 91.7237 114.804C92.1669 114.514 92.6839 114.369 93.2748 114.369C93.6158 114.369 93.9524 114.426 94.2848 114.54C94.6172 114.653 94.9197 114.838 95.1925 115.094C95.4652 115.347 95.6825 115.682 95.8444 116.099C96.0064 116.517 96.0873 117.031 96.0873 117.642V118.068H91.0419V117.199H95.0646C95.0646 116.83 94.9908 116.5 94.843 116.21C94.6981 115.92 94.4908 115.692 94.2209 115.524C93.9538 115.357 93.6385 115.273 93.2748 115.273C92.8743 115.273 92.5277 115.372 92.2351 115.571C91.9453 115.767 91.7223 116.023 91.566 116.338C91.4098 116.653 91.3317 116.991 91.3317 117.352V117.932C91.3317 118.426 91.4169 118.845 91.5873 119.189C91.7606 119.53 92.0007 119.79 92.3075 119.969C92.6143 120.145 92.9709 120.233 93.3771 120.233C93.6413 120.233 93.88 120.196 94.093 120.122C94.3089 120.045 94.495 119.932 94.6513 119.781C94.8075 119.628 94.9283 119.437 95.0135 119.21L95.9851 119.483C95.8828 119.812 95.7109 120.102 95.4694 120.352C95.228 120.599 94.9297 120.793 94.5746 120.932C94.2194 121.068 93.8203 121.136 93.3771 121.136ZM98.6829 112.273V121H97.6772V112.273H98.6829ZM103.329 121.136C102.698 121.136 102.154 120.997 101.697 120.719C101.243 120.438 100.892 120.045 100.644 119.543C100.4 119.037 100.278 118.449 100.278 117.778C100.278 117.108 100.4 116.517 100.644 116.006C100.892 115.491 101.235 115.091 101.676 114.804C102.119 114.514 102.636 114.369 103.227 114.369C103.568 114.369 103.904 114.426 104.237 114.54C104.569 114.653 104.872 114.838 105.144 115.094C105.417 115.347 105.635 115.682 105.796 116.099C105.958 116.517 106.039 117.031 106.039 117.642V118.068H100.994V117.199H105.017C105.017 116.83 104.943 116.5 104.795 116.21C104.65 115.92 104.443 115.692 104.173 115.524C103.906 115.357 103.591 115.273 103.227 115.273C102.826 115.273 102.48 115.372 102.187 115.571C101.897 115.767 101.674 116.023 101.518 116.338C101.362 116.653 101.284 116.991 101.284 117.352V117.932C101.284 118.426 101.369 118.845 101.539 119.189C101.713 119.53 101.953 119.79 102.26 119.969C102.566 120.145 102.923 120.233 103.329 120.233C103.593 120.233 103.832 120.196 104.045 120.122C104.261 120.045 104.447 119.932 104.603 119.781C104.76 119.628 104.88 119.437 104.966 119.21L105.937 119.483C105.835 119.812 105.663 120.102 105.421 120.352C105.18 120.599 104.882 120.793 104.527 120.932C104.171 121.068 103.772 121.136 103.329 121.136ZM110.288 121.136C109.675 121.136 109.146 120.991 108.703 120.702C108.26 120.412 107.919 120.013 107.68 119.504C107.442 118.996 107.322 118.415 107.322 117.761C107.322 117.097 107.445 116.51 107.689 116.001C107.936 115.49 108.28 115.091 108.72 114.804C109.163 114.514 109.68 114.369 110.271 114.369C110.731 114.369 111.146 114.455 111.516 114.625C111.885 114.795 112.187 115.034 112.423 115.341C112.659 115.648 112.805 116.006 112.862 116.415H111.856C111.78 116.116 111.609 115.852 111.345 115.622C111.084 115.389 110.731 115.273 110.288 115.273C109.896 115.273 109.552 115.375 109.257 115.58C108.964 115.781 108.736 116.067 108.571 116.436C108.409 116.803 108.328 117.233 108.328 117.727C108.328 118.233 108.408 118.673 108.567 119.048C108.729 119.423 108.956 119.714 109.249 119.922C109.544 120.129 109.891 120.233 110.288 120.233C110.55 120.233 110.787 120.188 111 120.097C111.213 120.006 111.393 119.875 111.541 119.705C111.689 119.534 111.794 119.33 111.856 119.091H112.862C112.805 119.477 112.665 119.825 112.44 120.135C112.219 120.442 111.925 120.686 111.558 120.868C111.195 121.047 110.771 121.136 110.288 121.136ZM117.239 114.455V115.307H113.847V114.455H117.239ZM114.836 112.886H115.841V119.125C115.841 119.409 115.882 119.622 115.965 119.764C116.05 119.903 116.158 119.997 116.289 120.045C116.422 120.091 116.563 120.114 116.711 120.114C116.821 120.114 116.912 120.108 116.983 120.097C117.054 120.082 117.111 120.071 117.154 120.062L117.358 120.966C117.29 120.991 117.195 121.017 117.073 121.043C116.951 121.071 116.796 121.085 116.608 121.085C116.324 121.085 116.046 121.024 115.773 120.902C115.503 120.78 115.279 120.594 115.1 120.344C114.924 120.094 114.836 119.778 114.836 119.398V112.886ZM126.713 123.455V119.994H126.627C126.554 120.114 126.448 120.264 126.312 120.446C126.176 120.625 125.981 120.786 125.728 120.928C125.475 121.067 125.139 121.136 124.718 121.136C124.173 121.136 123.691 120.999 123.274 120.723C122.856 120.445 122.529 120.053 122.294 119.547C122.058 119.038 121.94 118.438 121.94 117.744C121.94 117.057 122.058 116.46 122.294 115.955C122.529 115.449 122.857 115.058 123.278 114.783C123.698 114.507 124.184 114.369 124.735 114.369C125.161 114.369 125.498 114.44 125.745 114.582C125.995 114.722 126.186 114.881 126.316 115.06C126.45 115.236 126.554 115.381 126.627 115.494H126.747V114.455H127.718V123.455H126.713ZM124.855 120.233C125.258 120.233 125.599 120.128 125.877 119.918C126.156 119.705 126.367 119.411 126.512 119.036C126.657 118.658 126.73 118.222 126.73 117.727C126.73 117.239 126.659 116.811 126.517 116.445C126.375 116.075 126.164 115.788 125.886 115.584C125.607 115.376 125.264 115.273 124.855 115.273C124.429 115.273 124.073 115.382 123.789 115.601C123.508 115.817 123.296 116.111 123.154 116.483C123.015 116.852 122.946 117.267 122.946 117.727C122.946 118.193 123.017 118.616 123.159 118.997C123.304 119.375 123.517 119.676 123.798 119.901C124.082 120.122 124.434 120.233 124.855 120.233ZM133.744 118.324V114.455H134.75V121H133.744V119.892H133.676C133.523 120.224 133.284 120.507 132.96 120.74C132.636 120.97 132.227 121.085 131.733 121.085C131.324 121.085 130.96 120.996 130.642 120.817C130.324 120.635 130.074 120.362 129.892 119.999C129.71 119.632 129.619 119.17 129.619 118.614V114.455H130.625V118.545C130.625 119.023 130.758 119.403 131.025 119.688C131.295 119.972 131.639 120.114 132.057 120.114C132.307 120.114 132.561 120.05 132.819 119.922C133.081 119.794 133.3 119.598 133.476 119.334C133.655 119.07 133.744 118.733 133.744 118.324ZM138.578 121.153C138.163 121.153 137.787 121.075 137.449 120.919C137.111 120.76 136.842 120.531 136.643 120.233C136.444 119.932 136.345 119.568 136.345 119.142C136.345 118.767 136.419 118.463 136.567 118.23C136.714 117.994 136.912 117.81 137.159 117.676C137.406 117.543 137.679 117.443 137.977 117.378C138.278 117.31 138.581 117.256 138.885 117.216C139.283 117.165 139.605 117.126 139.852 117.101C140.102 117.072 140.284 117.026 140.398 116.96C140.514 116.895 140.572 116.781 140.572 116.619V116.585C140.572 116.165 140.457 115.838 140.227 115.605C140 115.372 139.655 115.256 139.192 115.256C138.712 115.256 138.335 115.361 138.062 115.571C137.79 115.781 137.598 116.006 137.487 116.244L136.533 115.903C136.703 115.506 136.93 115.196 137.214 114.974C137.501 114.75 137.814 114.594 138.152 114.506C138.493 114.415 138.828 114.369 139.158 114.369C139.368 114.369 139.609 114.395 139.882 114.446C140.158 114.494 140.423 114.595 140.679 114.749C140.937 114.902 141.152 115.134 141.322 115.443C141.493 115.753 141.578 116.168 141.578 116.688V121H140.572V120.114H140.521C140.453 120.256 140.339 120.408 140.18 120.57C140.021 120.732 139.81 120.869 139.545 120.983C139.281 121.097 138.959 121.153 138.578 121.153ZM138.731 120.25C139.129 120.25 139.464 120.172 139.737 120.016C140.013 119.859 140.22 119.658 140.359 119.411C140.501 119.163 140.572 118.903 140.572 118.631V117.71C140.53 117.761 140.436 117.808 140.291 117.851C140.149 117.891 139.984 117.926 139.797 117.957C139.612 117.986 139.432 118.011 139.256 118.034C139.082 118.054 138.942 118.071 138.834 118.085C138.572 118.119 138.328 118.175 138.101 118.251C137.876 118.325 137.694 118.437 137.555 118.588C137.419 118.736 137.351 118.937 137.351 119.193C137.351 119.543 137.48 119.807 137.739 119.986C138 120.162 138.331 120.25 138.731 120.25ZM144.479 117.062V121H143.474V114.455H144.445V115.477H144.53C144.684 115.145 144.917 114.878 145.229 114.676C145.542 114.472 145.945 114.369 146.439 114.369C146.883 114.369 147.27 114.46 147.603 114.642C147.935 114.821 148.194 115.094 148.378 115.46C148.563 115.824 148.655 116.284 148.655 116.841V121H147.65V116.909C147.65 116.395 147.516 115.994 147.249 115.707C146.982 115.418 146.616 115.273 146.15 115.273C145.829 115.273 145.542 115.342 145.289 115.482C145.039 115.621 144.841 115.824 144.697 116.091C144.552 116.358 144.479 116.682 144.479 117.062ZM153.4 114.455V115.307H150.008V114.455H153.4ZM150.996 112.886H152.002V119.125C152.002 119.409 152.043 119.622 152.126 119.764C152.211 119.903 152.319 119.997 152.449 120.045C152.583 120.091 152.724 120.114 152.871 120.114C152.982 120.114 153.073 120.108 153.144 120.097C153.215 120.082 153.272 120.071 153.314 120.062L153.519 120.966C153.451 120.991 153.356 121.017 153.234 121.043C153.111 121.071 152.957 121.085 152.769 121.085C152.485 121.085 152.207 121.024 151.934 120.902C151.664 120.78 151.439 120.594 151.261 120.344C151.084 120.094 150.996 119.778 150.996 119.398V112.886ZM154.972 121V114.455H155.978V121H154.972ZM155.484 113.364C155.288 113.364 155.119 113.297 154.977 113.163C154.838 113.03 154.768 112.869 154.768 112.682C154.768 112.494 154.838 112.334 154.977 112.2C155.119 112.067 155.288 112 155.484 112C155.68 112 155.847 112.067 155.987 112.2C156.129 112.334 156.2 112.494 156.2 112.682C156.2 112.869 156.129 113.03 155.987 113.163C155.847 113.297 155.68 113.364 155.484 113.364ZM160.727 114.455V115.307H157.335V114.455H160.727ZM158.323 112.886H159.329V119.125C159.329 119.409 159.37 119.622 159.453 119.764C159.538 119.903 159.646 119.997 159.776 120.045C159.91 120.091 160.051 120.114 160.198 120.114C160.309 120.114 160.4 120.108 160.471 120.097C160.542 120.082 160.599 120.071 160.642 120.062L160.846 120.966C160.778 120.991 160.683 121.017 160.561 121.043C160.438 121.071 160.284 121.085 160.096 121.085C159.812 121.085 159.534 121.024 159.261 120.902C158.991 120.78 158.767 120.594 158.588 120.344C158.411 120.094 158.323 119.778 158.323 119.398V112.886ZM162.947 123.455C162.777 123.455 162.625 123.44 162.491 123.412C162.358 123.386 162.265 123.361 162.214 123.335L162.47 122.449C162.714 122.511 162.93 122.534 163.118 122.517C163.305 122.5 163.471 122.416 163.616 122.266C163.764 122.118 163.899 121.878 164.021 121.545L164.209 121.034L161.788 114.455H162.879L164.686 119.67H164.754L166.561 114.455H167.652L164.873 121.955C164.748 122.293 164.594 122.572 164.409 122.794C164.224 123.018 164.01 123.185 163.765 123.293C163.524 123.401 163.251 123.455 162.947 123.455Z" fill="white"/>
<path d="M82.9695 139V137.572L86.7567 133.86C87.119 133.494 87.4208 133.169 87.6623 132.885C87.9038 132.601 88.0849 132.326 88.2056 132.059C88.3263 131.793 88.3867 131.509 88.3867 131.207C88.3867 130.863 88.3086 130.568 88.1523 130.323C87.9961 130.074 87.7812 129.882 87.5078 129.748C87.2344 129.613 86.9237 129.545 86.5756 129.545C86.217 129.545 85.9027 129.62 85.6328 129.769C85.3629 129.914 85.1534 130.122 85.0043 130.392C84.8587 130.662 84.7859 130.983 84.7859 131.356H82.9055C82.9055 130.664 83.0636 130.062 83.3796 129.55C83.6957 129.039 84.1307 128.643 84.6847 128.363C85.2422 128.082 85.8814 127.942 86.6023 127.942C87.3338 127.942 87.9766 128.078 88.5305 128.352C89.0845 128.625 89.5142 129 89.8196 129.476C90.1286 129.952 90.283 130.495 90.283 131.106C90.283 131.514 90.2049 131.915 90.0487 132.31C89.8924 132.704 89.6172 133.141 89.223 133.62C88.8324 134.099 88.2837 134.68 87.5771 135.362L85.6967 137.274V137.349H90.4482V139H82.9695Z" fill="white"/>
<path d="M211 125C211 117.82 216.82 112 224 112C231.18 112 237 117.82 237 125C237 132.18 231.18 138 224 138C216.82 138 211 132.18 211 125Z" fill="white" fill-opacity="0.1"/>
<path d="M219.917 125H228.083H219.917Z" fill="white"/>
<path d="M219.917 125H228.083" stroke="white" stroke-linecap="round" stroke-linejoin="round"/>
<path d="M242 125C242 117.82 247.82 112 255 112C262.18 112 268 117.82 268 125C268 132.18 262.18 138 255 138C247.82 138 242 132.18 242 125Z" fill="white" fill-opacity="0.1"/>
<path d="M255 121.5C255.116 121.5 255.227 121.546 255.309 121.628C255.391 121.71 255.438 121.821 255.438 121.938V124.562H258.062C258.179 124.562 258.29 124.609 258.372 124.691C258.454 124.773 258.5 124.884 258.5 125C258.5 125.116 258.454 125.227 258.372 125.309C258.29 125.391 258.179 125.438 258.062 125.438H255.438V128.062C255.438 128.179 255.391 128.29 255.309 128.372C255.227 128.454 255.116 128.5 255 128.5C254.884 128.5 254.773 128.454 254.691 128.372C254.609 128.29 254.562 128.179 254.562 128.062V125.438H251.938C251.821 125.438 251.71 125.391 251.628 125.309C251.546 125.227 251.5 125.116 251.5 125C251.5 124.884 251.546 124.773 251.628 124.691C251.71 124.609 251.821 124.562 251.938 124.562H254.562V121.938C254.562 121.821 254.609 121.71 254.691 121.628C254.773 121.546 254.884 121.5 255 121.5Z" fill="white"/>
<path d="M78 99.5H272C276.142 99.5 279.5 102.858 279.5 107V143C279.5 147.142 276.142 150.5 272 150.5H78C73.8579 150.5 70.5 147.142 70.5 143V107C70.5 102.858 73.8579 99.5 78 99.5Z" stroke="white" stroke-opacity="0.2" shape-rendering="crispEdges"/>
</g>
<defs>
<filter id="filter0_d_139_1762" x="58" y="93" width="234" height="76" filterUnits="userSpaceOnUse" color-interpolation-filters="sRGB">
<feFlood flood-opacity="0" result="BackgroundImageFix"/>
<feColorMatrix in="SourceAlpha" type="matrix" values="0 0 0 0 0 0 0 0 0 0 0 0 0 0 0 0 0 0 127 0" result="hardAlpha"/>
<feOffset dy="6"/>
<feGaussianBlur stdDeviation="6"/>
<feComposite in2="hardAlpha" operator="out"/>
<feColorMatrix type="matrix" values="0 0 0 0 0 0 0 0 0 0 0 0 0 0 0 0 0 0 0.03 0"/>
<feBlend mode="normal" in2="BackgroundImageFix" result="effect1_dropShadow_139_1762"/>
<feBlend mode="normal" in="SourceGraphic" in2="effect1_dropShadow_139_1762" result="shape"/>
</filter>
<linearGradient id="paint0_linear_139_1762" x1="105.5" y1="9.49171e-06" x2="350" y2="250" gradientUnits="userSpaceOnUse">
<stop offset="0%" stop-color="#6366F1"/>
<stop offset="1" stop-color="#0EA5E9"/>
</linearGradient>
</defs>
</svg>
