<svg width="350" height="250" viewBox="0 0 350 250" fill="none" xmlns="http://www.w3.org/2000/svg">
<rect width="350" height="250" fill="#6366F1"/>
<g filter="url(#filter0_d_125_152)">
<rect x="55" y="47" width="240" height="157" rx="6" fill="white" fill-opacity="0.1" shape-rendering="crispEdges"/>
<circle cx="62.5" cy="54.5" r="2.5" fill="white" fill-opacity="0.4"/>
<circle cx="72.5" cy="54.5" r="2.5" fill="white" fill-opacity="0.4"/>
<circle cx="82.5" cy="54.5" r="2.5" fill="white" fill-opacity="0.4"/>
<path d="M295 61H55V63H295V61Z" fill="white" fill-opacity="0.4" mask="url(#path-3-inside-1_125_152)"/>
<rect x="54.5" y="46.5" width="241" height="158" rx="6.5" stroke="white" stroke-opacity="0.4" shape-rendering="crispEdges"/>
</g>
<g filter="url(#filter1_d_125_152)">
<rect x="90" y="83" width="170" height="100" rx="6" fill="white" fill-opacity="0.1" shape-rendering="crispEdges"/>
<path d="M249.125 88.1308C249.206 88.0505 249.315 88.0054 249.428 88.0054C249.542 88.0054 249.651 88.0505 249.731 88.1308L251.997 90.3993L254.264 88.1308C254.303 88.0899 254.351 88.0572 254.403 88.0348C254.455 88.0123 254.511 88.0005 254.568 88C254.625 87.9995 254.681 88.0104 254.734 88.0319C254.787 88.0535 254.834 88.0853 254.875 88.1255C254.915 88.1658 254.947 88.2136 254.968 88.2663C254.99 88.319 255 88.3754 255 88.4323C254.999 88.4892 254.988 88.5454 254.965 88.5977C254.943 88.65 254.91 88.6973 254.869 88.7368L252.603 91.0053L254.869 93.2736C254.947 93.3545 254.99 93.4627 254.989 93.5751C254.989 93.6875 254.943 93.795 254.864 93.8744C254.785 93.954 254.677 93.999 254.565 94C254.453 94.0009 254.345 93.9577 254.264 93.8796L251.997 91.6113L249.731 93.8796C249.65 93.9577 249.542 94.0009 249.43 94C249.317 93.999 249.21 93.954 249.131 93.8744C249.051 93.795 249.006 93.6875 249.005 93.5751C249.004 93.4627 249.047 93.3545 249.125 93.2736L251.392 91.0053L249.125 88.7368C249.045 88.6565 249 88.5475 249 88.4338C249 88.3202 249.045 88.2112 249.125 88.1308Z" fill="white" fill-opacity="0.4"/>
<g clip-path="url(#clip0_125_152)">
<path d="M175.982 99.566C175.883 99.3936 175.74 99.2503 175.568 99.1507C175.396 99.0511 175.201 98.9986 175.002 98.9986C174.803 98.9986 174.608 99.0511 174.436 99.1507C174.264 99.2503 174.121 99.3936 174.022 99.566L167.165 111.233C166.708 112.011 167.256 113 168.145 113H181.858C182.747 113 183.296 112.01 182.838 111.233L175.982 99.566ZM175 103C175.535 103 175.954 103.462 175.9 103.995L175.55 107.502C175.538 107.64 175.475 107.768 175.374 107.862C175.272 107.955 175.138 108.007 175 108.007C174.862 108.007 174.729 107.955 174.627 107.862C174.525 107.768 174.462 107.64 174.45 107.502L174.1 103.995C174.088 103.869 174.102 103.742 174.141 103.622C174.181 103.502 174.245 103.392 174.33 103.298C174.414 103.204 174.518 103.129 174.633 103.078C174.749 103.027 174.874 103 175 103ZM175.002 109C175.267 109 175.522 109.105 175.709 109.293C175.897 109.48 176.002 109.735 176.002 110C176.002 110.265 175.897 110.52 175.709 110.707C175.522 110.895 175.267 111 175.002 111C174.737 111 174.483 110.895 174.295 110.707C174.108 110.52 174.002 110.265 174.002 110C174.002 109.735 174.108 109.48 174.295 109.293C174.483 109.105 174.737 109 175.002 109Z" fill="white"/>
</g>
<path d="M155 128.5C155 127.672 155.672 127 156.5 127H193.5C194.328 127 195 127.672 195 128.5C195 129.328 194.328 130 193.5 130H156.5C155.672 130 155 129.328 155 128.5Z" fill="white"/>
<path d="M125 138.5C125 137.672 125.672 137 126.5 137H153.5C154.328 137 155 137.672 155 138.5C155 139.328 154.328 140 153.5 140H126.5C125.672 140 125 139.328 125 138.5Z" fill="white" fill-opacity="0.3"/>
<path d="M160 138.5C160 137.672 160.672 137 161.5 137H188.5C189.328 137 190 137.672 190 138.5C190 139.328 189.328 140 188.5 140H161.5C160.672 140 160 139.328 160 138.5Z" fill="white" fill-opacity="0.3"/>
<path d="M195 138.5C195 137.672 195.672 137 196.5 137H223.5C224.328 137 225 137.672 225 138.5C225 139.328 224.328 140 223.5 140H196.5C195.672 140 195 139.328 195 138.5Z" fill="white" fill-opacity="0.3"/>
<path d="M145 161.5C145 160.672 145.672 160 146.5 160H156.5C157.328 160 158 160.672 158 161.5C158 162.328 157.328 163 156.5 163H146.5C145.672 163 145 162.328 145 161.5Z" fill="white"/>
<path d="M133.5 161.5C133.5 158.186 136.186 155.5 139.5 155.5H163.5C166.814 155.5 169.5 158.186 169.5 161.5C169.5 164.814 166.814 167.5 163.5 167.5H139.5C136.186 167.5 133.5 164.814 133.5 161.5Z" stroke="white" stroke-opacity="0.2"/>
<path d="M180 161.5C180 157.91 182.91 155 186.5 155H210.5C214.09 155 217 157.91 217 161.5C217 165.09 214.09 168 210.5 168H186.5C182.91 168 180 165.09 180 161.5Z" fill="white" fill-opacity="0.2"/>
<rect x="192" y="160" width="13" height="3" rx="1.5" fill="white"/>
<rect x="89.5" y="82.5" width="171" height="101" rx="6.5" stroke="white" stroke-opacity="0.4" shape-rendering="crispEdges"/>
</g>
<defs>
<filter id="filter0_d_125_152" x="42" y="40" width="266" height="183" filterUnits="userSpaceOnUse" color-interpolation-filters="sRGB">
<feFlood flood-opacity="0" result="BackgroundImageFix"/>
<feColorMatrix in="SourceAlpha" type="matrix" values="0 0 0 0 0 0 0 0 0 0 0 0 0 0 0 0 0 0 127 0" result="hardAlpha"/>
<feOffset dy="6"/>
<feGaussianBlur stdDeviation="6"/>
<feComposite in2="hardAlpha" operator="out"/>
<feColorMatrix type="matrix" values="0 0 0 0 0 0 0 0 0 0 0 0 0 0 0 0 0 0 0.03 0"/>
<feBlend mode="normal" in2="BackgroundImageFix" result="effect1_dropShadow_125_152"/>
<feBlend mode="normal" in="SourceGraphic" in2="effect1_dropShadow_125_152" result="shape"/>
</filter>
<filter id="filter1_d_125_152" x="77" y="76" width="196" height="126" filterUnits="userSpaceOnUse" color-interpolation-filters="sRGB">
<feFlood flood-opacity="0" result="BackgroundImageFix"/>
<feColorMatrix in="SourceAlpha" type="matrix" values="0 0 0 0 0 0 0 0 0 0 0 0 0 0 0 0 0 0 127 0" result="hardAlpha"/>
<feOffset dy="6"/>
<feGaussianBlur stdDeviation="6"/>
<feComposite in2="hardAlpha" operator="out"/>
<feColorMatrix type="matrix" values="0 0 0 0 0 0 0 0 0 0 0 0 0 0 0 0 0 0 0.03 0"/>
<feBlend mode="normal" in2="BackgroundImageFix" result="effect1_dropShadow_125_152"/>
<feBlend mode="normal" in="SourceGraphic" in2="effect1_dropShadow_125_152" result="shape"/>
</filter>
<clipPath id="clip0_125_152">
<rect width="16" height="16" fill="white" transform="translate(167 98)"/>
</clipPath>
</defs>
</svg>
