<svg width="350" height="250" viewBox="0 0 350 250" fill="none" xmlns="http://www.w3.org/2000/svg">
<rect width="350" height="250" fill="url(#paint0_linear_254_579)"/>
<g filter="url(#filter0_d_254_579)">
<path d="M72.5 107C72.5 104.791 74.2909 103 76.5 103H108.5C110.709 103 112.5 104.791 112.5 107V143C112.5 145.209 110.709 147 108.5 147H76.5C74.2909 147 72.5 145.209 72.5 143V107Z" fill="white" fill-opacity="0.05" shape-rendering="crispEdges"/>
<path d="M92.3139 132.199C91.2959 132.199 90.3963 132.024 89.6151 131.673C88.8385 131.323 88.2301 130.84 87.7898 130.224C87.3494 129.609 87.1316 128.908 87.1364 128.122C87.1316 127.507 87.2571 126.941 87.5128 126.425C87.7732 125.904 88.1259 125.471 88.571 125.125C89.0161 124.775 89.5133 124.552 90.0625 124.457V124.372C89.3381 124.197 88.758 123.809 88.3224 123.207C87.8868 122.606 87.6714 121.915 87.6761 121.134C87.6714 120.39 87.8679 119.727 88.2656 119.145C88.6681 118.558 89.2197 118.096 89.9205 117.76C90.6212 117.424 91.419 117.256 92.3139 117.256C93.1993 117.256 93.9901 117.426 94.6861 117.767C95.3868 118.103 95.9384 118.565 96.3409 119.152C96.7434 119.734 96.947 120.395 96.9517 121.134C96.947 121.915 96.7244 122.606 96.2841 123.207C95.8438 123.809 95.2708 124.197 94.5653 124.372V124.457C95.1098 124.552 95.5999 124.775 96.0355 125.125C96.4759 125.471 96.8262 125.904 97.0866 126.425C97.3518 126.941 97.4867 127.507 97.4915 128.122C97.4867 128.908 97.2642 129.609 96.8239 130.224C96.3835 130.84 95.7727 131.323 94.9915 131.673C94.215 132.024 93.3224 132.199 92.3139 132.199ZM92.3139 130.402C92.9152 130.402 93.4361 130.303 93.8764 130.104C94.3168 129.9 94.6577 129.618 94.8991 129.259C95.1406 128.894 95.2637 128.468 95.2685 127.98C95.2637 127.473 95.1312 127.026 94.8707 126.638C94.6151 126.25 94.267 125.944 93.8267 125.722C93.3864 125.499 92.8821 125.388 92.3139 125.388C91.741 125.388 91.232 125.499 90.7869 125.722C90.3419 125.944 89.9915 126.25 89.7358 126.638C89.4801 127.026 89.3546 127.473 89.3594 127.98C89.3546 128.468 89.4706 128.894 89.7074 129.259C89.9489 129.618 90.2921 129.9 90.7372 130.104C91.1823 130.303 91.7079 130.402 92.3139 130.402ZM92.3139 123.634C92.7969 123.634 93.2254 123.536 93.5994 123.342C93.9735 123.148 94.267 122.878 94.4801 122.533C94.6979 122.187 94.8092 121.782 94.8139 121.318C94.8092 120.864 94.7003 120.466 94.4872 120.125C94.2789 119.784 93.9877 119.521 93.6136 119.337C93.2396 119.147 92.8063 119.053 92.3139 119.053C91.812 119.053 91.3717 119.147 90.9929 119.337C90.6188 119.521 90.3277 119.784 90.1193 120.125C89.911 120.466 89.8092 120.864 89.8139 121.318C89.8092 121.782 89.9134 122.187 90.1264 122.533C90.3395 122.878 90.633 123.148 91.0071 123.342C91.3859 123.536 91.8215 123.634 92.3139 123.634Z" fill="white"/>
<path d="M76.5 103.5H108.5C110.433 103.5 112 105.067 112 107V143C112 144.933 110.433 146.5 108.5 146.5H76.5C74.567 146.5 73 144.933 73 143V107C73 105.067 74.567 103.5 76.5 103.5Z" stroke="white" stroke-opacity="0.2" shape-rendering="crispEdges"/>
</g>
<g filter="url(#filter1_d_254_579)">
<path d="M127.5 107C127.5 104.791 129.291 103 131.5 103H163.5C165.709 103 167.5 104.791 167.5 107V143C167.5 145.209 165.709 147 163.5 147H131.5C129.291 147 127.5 145.209 127.5 143V107Z" fill="white" fill-opacity="0.05" shape-rendering="crispEdges"/>
<path d="M143.389 132L149.739 119.443V119.337H142.395V117.455H152.011V119.401L145.683 132H143.389Z" fill="white"/>
<path d="M131.5 103.5H163.5C165.433 103.5 167 105.067 167 107V143C167 144.933 165.433 146.5 163.5 146.5H131.5C129.567 146.5 128 144.933 128 143V107C128 105.067 129.567 103.5 131.5 103.5Z" stroke="white" stroke-opacity="0.2" shape-rendering="crispEdges"/>
</g>
<g filter="url(#filter2_d_254_579)">
<path d="M182.5 107C182.5 104.791 184.291 103 186.5 103H218.5C220.709 103 222.5 104.791 222.5 107V143C222.5 145.209 220.709 147 218.5 147H186.5C184.291 147 182.5 145.209 182.5 143V107Z" fill="white" fill-opacity="0.05" shape-rendering="crispEdges"/>
<path d="M203.375 112.767V136.688H201.472V112.767H203.375Z" fill="white"/>
<path d="M186.5 103.5H218.5C220.433 103.5 222 105.067 222 107V143C222 144.933 220.433 146.5 218.5 146.5H186.5C184.567 146.5 183 144.933 183 143V107C183 105.067 184.567 103.5 186.5 103.5Z" stroke="white" stroke-opacity="0.2" shape-rendering="crispEdges"/>
</g>
<g filter="url(#filter3_d_254_579)">
<path d="M237.5 107C237.5 104.791 239.291 103 241.5 103H273.5C275.709 103 277.5 104.791 277.5 107V143C277.5 145.209 275.709 147 273.5 147H241.5C239.291 147 237.5 145.209 237.5 143V107Z" fill="white" fill-opacity="0.05" shape-rendering="crispEdges"/>
<path d="M241.5 103.5H273.5C275.433 103.5 277 105.067 277 107V143C277 144.933 275.433 146.5 273.5 146.5H241.5C239.567 146.5 238 144.933 238 143V107C238 105.067 239.567 103.5 241.5 103.5Z" stroke="white" stroke-opacity="0.2" shape-rendering="crispEdges"/>
</g>
<defs>
<filter id="filter0_d_254_579" x="60.5" y="97" width="64" height="68" filterUnits="userSpaceOnUse" color-interpolation-filters="sRGB">
<feFlood flood-opacity="0" result="BackgroundImageFix"/>
<feColorMatrix in="SourceAlpha" type="matrix" values="0 0 0 0 0 0 0 0 0 0 0 0 0 0 0 0 0 0 127 0" result="hardAlpha"/>
<feOffset dy="6"/>
<feGaussianBlur stdDeviation="6"/>
<feComposite in2="hardAlpha" operator="out"/>
<feColorMatrix type="matrix" values="0 0 0 0 0 0 0 0 0 0 0 0 0 0 0 0 0 0 0.03 0"/>
<feBlend mode="normal" in2="BackgroundImageFix" result="effect1_dropShadow_254_579"/>
<feBlend mode="normal" in="SourceGraphic" in2="effect1_dropShadow_254_579" result="shape"/>
</filter>
<filter id="filter1_d_254_579" x="115.5" y="97" width="64" height="68" filterUnits="userSpaceOnUse" color-interpolation-filters="sRGB">
<feFlood flood-opacity="0" result="BackgroundImageFix"/>
<feColorMatrix in="SourceAlpha" type="matrix" values="0 0 0 0 0 0 0 0 0 0 0 0 0 0 0 0 0 0 127 0" result="hardAlpha"/>
<feOffset dy="6"/>
<feGaussianBlur stdDeviation="6"/>
<feComposite in2="hardAlpha" operator="out"/>
<feColorMatrix type="matrix" values="0 0 0 0 0 0 0 0 0 0 0 0 0 0 0 0 0 0 0.03 0"/>
<feBlend mode="normal" in2="BackgroundImageFix" result="effect1_dropShadow_254_579"/>
<feBlend mode="normal" in="SourceGraphic" in2="effect1_dropShadow_254_579" result="shape"/>
</filter>
<filter id="filter2_d_254_579" x="170.5" y="97" width="64" height="68" filterUnits="userSpaceOnUse" color-interpolation-filters="sRGB">
<feFlood flood-opacity="0" result="BackgroundImageFix"/>
<feColorMatrix in="SourceAlpha" type="matrix" values="0 0 0 0 0 0 0 0 0 0 0 0 0 0 0 0 0 0 127 0" result="hardAlpha"/>
<feOffset dy="6"/>
<feGaussianBlur stdDeviation="6"/>
<feComposite in2="hardAlpha" operator="out"/>
<feColorMatrix type="matrix" values="0 0 0 0 0 0 0 0 0 0 0 0 0 0 0 0 0 0 0.03 0"/>
<feBlend mode="normal" in2="BackgroundImageFix" result="effect1_dropShadow_254_579"/>
<feBlend mode="normal" in="SourceGraphic" in2="effect1_dropShadow_254_579" result="shape"/>
</filter>
<filter id="filter3_d_254_579" x="225.5" y="97" width="64" height="68" filterUnits="userSpaceOnUse" color-interpolation-filters="sRGB">
<feFlood flood-opacity="0" result="BackgroundImageFix"/>
<feColorMatrix in="SourceAlpha" type="matrix" values="0 0 0 0 0 0 0 0 0 0 0 0 0 0 0 0 0 0 127 0" result="hardAlpha"/>
<feOffset dy="6"/>
<feGaussianBlur stdDeviation="6"/>
<feComposite in2="hardAlpha" operator="out"/>
<feColorMatrix type="matrix" values="0 0 0 0 0 0 0 0 0 0 0 0 0 0 0 0 0 0 0.03 0"/>
<feBlend mode="normal" in2="BackgroundImageFix" result="effect1_dropShadow_254_579"/>
<feBlend mode="normal" in="SourceGraphic" in2="effect1_dropShadow_254_579" result="shape"/>
</filter>
<linearGradient id="paint0_linear_254_579" x1="105.5" y1="9.49171e-06" x2="350" y2="250" gradientUnits="userSpaceOnUse">
<stop offset="0%" stop-color="#6366F1"/>
<stop offset="1" stop-color="#0EA5E9"/>
</linearGradient>
</defs>
</svg>
