<svg width="350" height="250" viewBox="0 0 350 250" fill="none" xmlns="http://www.w3.org/2000/svg">
<rect width="350" height="250" fill="url(#paint0_linear_125_242)"/>
<g filter="url(#filter0_d_125_242)">
<rect x="115" y="123" width="41" height="4" rx="2" fill="url(#paint1_linear_125_242)" fill-opacity="0.4"/>
<path d="M221 129L229 121" stroke="white" stroke-width="2" stroke-linecap="round"/>
<path d="M221 121L229 129" stroke="white" stroke-width="2" stroke-linecap="round"/>
<g filter="url(#filter1_d_125_242)">
<path d="M227.996 144.53L227.214 129.979C227.126 128.336 228.948 127.295 230.318 128.206L242.423 136.254C243.978 137.288 243.394 139.7 241.538 139.907L236.243 140.499C235.697 140.56 235.2 140.843 234.868 141.282L231.59 145.627C230.466 147.116 228.096 146.392 227.996 144.53Z" fill="url(#paint2_linear_125_242)"/>
<path d="M227.996 144.53L227.214 129.979C227.126 128.336 228.948 127.295 230.318 128.206L242.423 136.254C243.978 137.288 243.394 139.7 241.538 139.907L236.243 140.499C235.697 140.56 235.2 140.843 234.868 141.282L231.59 145.627C230.466 147.116 228.096 146.392 227.996 144.53Z" stroke="white" stroke-width="2"/>
</g>
<rect x="100.5" y="113.5" width="143" height="23" rx="4.5" stroke="url(#paint3_linear_125_242)" shape-rendering="crispEdges"/>
</g>
<defs>
<filter id="filter0_d_125_242" x="88" y="107" width="168.319" height="58.427" filterUnits="userSpaceOnUse" color-interpolation-filters="sRGB">
<feFlood flood-opacity="0" result="BackgroundImageFix"/>
<feColorMatrix in="SourceAlpha" type="matrix" values="0 0 0 0 0 0 0 0 0 0 0 0 0 0 0 0 0 0 127 0" result="hardAlpha"/>
<feOffset dy="6"/>
<feGaussianBlur stdDeviation="6"/>
<feComposite in2="hardAlpha" operator="out"/>
<feColorMatrix type="matrix" values="0 0 0 0 0 0 0 0 0 0 0 0 0 0 0 0 0 0 0.03 0"/>
<feBlend mode="normal" in2="BackgroundImageFix" result="effect1_dropShadow_125_242"/>
<feBlend mode="normal" in="SourceGraphic" in2="effect1_dropShadow_125_242" result="shape"/>
</filter>
<filter id="filter1_d_125_242" x="214.211" y="120.866" width="42.1084" height="44.5613" filterUnits="userSpaceOnUse" color-interpolation-filters="sRGB">
<feFlood flood-opacity="0" result="BackgroundImageFix"/>
<feColorMatrix in="SourceAlpha" type="matrix" values="0 0 0 0 0 0 0 0 0 0 0 0 0 0 0 0 0 0 127 0" result="hardAlpha"/>
<feOffset dy="6"/>
<feGaussianBlur stdDeviation="6"/>
<feComposite in2="hardAlpha" operator="out"/>
<feColorMatrix type="matrix" values="0 0 0 0 0 0 0 0 0 0 0 0 0 0 0 0 0 0 0.03 0"/>
<feBlend mode="normal" in2="BackgroundImageFix" result="effect1_dropShadow_125_242"/>
<feBlend mode="normal" in="SourceGraphic" in2="effect1_dropShadow_125_242" result="shape"/>
</filter>
<linearGradient id="paint0_linear_125_242" x1="-36" y1="-30.5" x2="541" y2="271" gradientUnits="userSpaceOnUse">
<stop offset="0%" stop-color="#E879F9"/>
<stop offset="1" stop-color="#6D28D9"/>
</linearGradient>
<linearGradient id="paint1_linear_125_242" x1="125.5" y1="121.5" x2="167.5" y2="127" gradientUnits="userSpaceOnUse">
<stop offset="0%" stop-color="white" stop-opacity="0"/>
<stop offset="1" stop-color="white"/>
</linearGradient>
<linearGradient id="paint2_linear_125_242" x1="224.943" y1="123.072" x2="263.214" y2="134.976" gradientUnits="userSpaceOnUse">
<stop offset="0%" stop-color="#E879F9"/>
<stop offset="1" stop-color="#6D28D9"/>
</linearGradient>
<linearGradient id="paint3_linear_125_242" x1="80.5" y1="137" x2="113.84" y2="202.248" gradientUnits="userSpaceOnUse">
<stop offset="0.0889581" stop-color="white" stop-opacity="0"/>
<stop offset="1" stop-color="white"/>
</linearGradient>
</defs>
</svg>
