<svg width="350" height="250" viewBox="0 0 350 250" fill="none" xmlns="http://www.w3.org/2000/svg">
<rect width="350" height="250" fill="#8B5CF6"/>
<g filter="url(#filter0_d_125_71)">
<g clip-path="url(#clip0_125_71)">
<path d="M55 53C55 49.6863 57.6863 47 61 47H289C292.314 47 295 49.6863 295 53V198C295 201.314 292.314 204 289 204H61C57.6863 204 55 201.314 55 198V53Z" fill="white" fill-opacity="0.1" shape-rendering="crispEdges"/>
<circle cx="62.5" cy="54.5" r="2.5" fill="white" fill-opacity="0.4"/>
<circle cx="72.5" cy="54.5" r="2.5" fill="white" fill-opacity="0.4"/>
<circle cx="82.5" cy="54.5" r="2.5" fill="white" fill-opacity="0.4"/>
<path d="M75 84H275V98C275 101.314 272.314 104 269 104H81C77.6863 104 75 101.314 75 98V84Z" fill="white" fill-opacity="0.1"/>
<path d="M75 120C75 116.686 77.6863 114 81 114H269C272.314 114 275 116.686 275 120V168C275 171.314 272.314 174 269 174H81C77.6863 174 75 171.314 75 168V120Z" fill="white" fill-opacity="0.4"/>
<path d="M75.5 120C75.5 116.962 77.9624 114.5 81 114.5H269C272.038 114.5 274.5 116.962 274.5 120V168C274.5 171.038 272.038 173.5 269 173.5H81C77.9624 173.5 75.5 171.038 75.5 168V120Z" stroke="white" stroke-opacity="0.4"/>
<path d="M75 204H275V190C275 186.686 272.314 184 269 184H81C77.6863 184 75 186.686 75 190V204Z" fill="white" fill-opacity="0.1"/>
<rect x="75" y="68" width="10" height="10" rx="5" fill="white" fill-opacity="0.7"/>
<rect x="229" y="71" width="12" height="4" rx="2" fill="white" fill-opacity="0.3"/>
<rect x="246" y="71" width="12" height="4" rx="2" fill="white"/>
<rect x="263" y="71" width="12" height="4" rx="2" fill="white" fill-opacity="0.3"/>
<path d="M55 63H295V61H55V63ZM295 83H55V85H295V83Z" fill="white" fill-opacity="0.4" mask="url(#path-10-inside-1_125_71)"/>
</g>
<path d="M61 46.5C57.4101 46.5 54.5 49.4102 54.5 53V198C54.5 201.59 57.4101 204.5 61 204.5H289C292.59 204.5 295.5 201.59 295.5 198V53C295.5 49.4102 292.59 46.5 289 46.5H61Z" stroke="white" stroke-opacity="0.4" shape-rendering="crispEdges"/>
</g>
<g filter="url(#filter1_d_125_71)">
<path d="M251.996 91.5298L251.214 76.9791C251.126 75.3362 252.948 74.2953 254.318 75.2063L266.423 83.2544C267.978 84.2882 267.394 86.7002 265.538 86.9075L260.243 87.499C259.697 87.56 259.2 87.8432 258.868 88.282L255.59 92.6271C254.466 94.1161 252.096 93.3924 251.996 91.5298Z" fill="#8B5CF6"/>
<path d="M251.996 91.5298L251.214 76.9791C251.126 75.3362 252.948 74.2953 254.318 75.2063L266.423 83.2544C267.978 84.2882 267.394 86.7002 265.538 86.9075L260.243 87.499C259.697 87.56 259.2 87.8432 258.868 88.282L255.59 92.6271C254.466 94.1161 252.096 93.3924 251.996 91.5298Z" stroke="white" stroke-width="2"/>
</g>
<defs>
<filter id="filter0_d_125_71" x="42" y="40" width="266" height="183" filterUnits="userSpaceOnUse" color-interpolation-filters="sRGB">
<feFlood flood-opacity="0" result="BackgroundImageFix"/>
<feColorMatrix in="SourceAlpha" type="matrix" values="0 0 0 0 0 0 0 0 0 0 0 0 0 0 0 0 0 0 127 0" result="hardAlpha"/>
<feOffset dy="6"/>
<feGaussianBlur stdDeviation="6"/>
<feComposite in2="hardAlpha" operator="out"/>
<feColorMatrix type="matrix" values="0 0 0 0 0 0 0 0 0 0 0 0 0 0 0 0 0 0 0.03 0"/>
<feBlend mode="normal" in2="BackgroundImageFix" result="effect1_dropShadow_125_71"/>
<feBlend mode="normal" in="SourceGraphic" in2="effect1_dropShadow_125_71" result="shape"/>
</filter>
<filter id="filter1_d_125_71" x="238.211" y="67.8658" width="42.1079" height="44.5613" filterUnits="userSpaceOnUse" color-interpolation-filters="sRGB">
<feFlood flood-opacity="0" result="BackgroundImageFix"/>
<feColorMatrix in="SourceAlpha" type="matrix" values="0 0 0 0 0 0 0 0 0 0 0 0 0 0 0 0 0 0 127 0" result="hardAlpha"/>
<feOffset dy="6"/>
<feGaussianBlur stdDeviation="6"/>
<feComposite in2="hardAlpha" operator="out"/>
<feColorMatrix type="matrix" values="0 0 0 0 0 0 0 0 0 0 0 0 0 0 0 0 0 0 0.03 0"/>
<feBlend mode="normal" in2="BackgroundImageFix" result="effect1_dropShadow_125_71"/>
<feBlend mode="normal" in="SourceGraphic" in2="effect1_dropShadow_125_71" result="shape"/>
</filter>
<clipPath id="clip0_125_71">
<path d="M55 53C55 49.6863 57.6863 47 61 47H289C292.314 47 295 49.6863 295 53V198C295 201.314 292.314 204 289 204H61C57.6863 204 55 201.314 55 198V53Z" fill="white"/>
</clipPath>
</defs>
</svg>
