<svg width="350" height="250" viewBox="0 0 350 250" fill="none" xmlns="http://www.w3.org/2000/svg">
<rect width="350" height="250" fill="#8B5CF6"/>
<g filter="url(#filter0_d_951_15772)">
<path d="M55 125C55 113.954 63.9543 105 75 105C86.0457 105 95 113.954 95 125C95 136.046 86.0457 145 75 145C63.9543 145 55 136.046 55 125Z" fill="white" fill-opacity="0.05" shape-rendering="crispEdges"/>
<path d="M55.5 125C55.5 114.23 64.2304 105.5 75 105.5C85.7696 105.5 94.5 114.23 94.5 125C94.5 135.77 85.7696 144.5 75 144.5C64.2304 144.5 55.5 135.77 55.5 125Z" stroke="white" stroke-opacity="0.2" shape-rendering="crispEdges"/>
<path d="M76.9176 117.455V132H74.7159V119.656H74.6307L71.1506 121.929V119.827L74.7798 117.455H76.9176Z" fill="white"/>
</g>
<path d="M100 125C100 123.895 100.895 123 102 123H148C149.105 123 150 123.895 150 125C150 126.105 149.105 127 148 127H102C100.895 127 100 126.105 100 125Z" fill="white" fill-opacity="0.3"/>
<g filter="url(#filter1_d_951_15772)">
<path d="M155 125C155 113.954 163.954 105 175 105C186.046 105 195 113.954 195 125C195 136.046 186.046 145 175 145C163.954 145 155 136.046 155 125Z" fill="white" fill-opacity="0.05" shape-rendering="crispEdges"/>
<path d="M155.5 125C155.5 114.23 164.23 105.5 175 105.5C185.77 105.5 194.5 114.23 194.5 125C194.5 135.77 185.77 144.5 175 144.5C164.23 144.5 155.5 135.77 155.5 125Z" stroke="white" stroke-opacity="0.2" shape-rendering="crispEdges"/>
<path d="M169.899 132V130.409L174.821 125.31C175.347 124.756 175.78 124.27 176.121 123.854C176.466 123.432 176.724 123.032 176.895 122.653C177.065 122.275 177.151 121.872 177.151 121.446C177.151 120.963 177.037 120.546 176.81 120.196C176.582 119.841 176.272 119.569 175.879 119.379C175.486 119.185 175.044 119.088 174.551 119.088C174.03 119.088 173.576 119.195 173.188 119.408C172.799 119.621 172.501 119.921 172.293 120.31C172.084 120.698 171.98 121.152 171.98 121.673H169.885C169.885 120.788 170.089 120.014 170.496 119.351C170.903 118.688 171.462 118.174 172.172 117.81C172.882 117.44 173.689 117.256 174.594 117.256C175.508 117.256 176.313 117.438 177.009 117.803C177.709 118.162 178.256 118.655 178.649 119.28C179.042 119.9 179.239 120.601 179.239 121.382C179.239 121.922 179.137 122.45 178.933 122.966C178.734 123.482 178.386 124.057 177.889 124.692C177.392 125.321 176.701 126.086 175.815 126.986L172.925 130.011V130.118H179.473V132H169.899Z" fill="white"/>
</g>
<path d="M200 125C200 123.895 200.895 123 202 123H248C249.105 123 250 123.895 250 125C250 126.105 249.105 127 248 127H202C200.895 127 200 126.105 200 125Z" fill="white" fill-opacity="0.3"/>
<g filter="url(#filter2_d_951_15772)">
<path d="M255 125C255 113.954 263.954 105 275 105C286.046 105 295 113.954 295 125C295 136.046 286.046 145 275 145C263.954 145 255 136.046 255 125Z" fill="white"/>
<path d="M255.5 125C255.5 114.23 264.23 105.5 275 105.5C285.77 105.5 294.5 114.23 294.5 125C294.5 135.77 285.77 144.5 275 144.5C264.23 144.5 255.5 135.77 255.5 125Z" stroke="white" stroke-opacity="0.2"/>
<path d="M283 119L272 130L267 125" stroke="#2563EB" stroke-width="2" stroke-linecap="round" stroke-linejoin="round"/>
</g>
<defs>
<filter id="filter0_d_951_15772" x="43" y="99" width="64" height="64" filterUnits="userSpaceOnUse" color-interpolation-filters="sRGB">
<feFlood flood-opacity="0" result="BackgroundImageFix"/>
<feColorMatrix in="SourceAlpha" type="matrix" values="0 0 0 0 0 0 0 0 0 0 0 0 0 0 0 0 0 0 127 0" result="hardAlpha"/>
<feOffset dy="6"/>
<feGaussianBlur stdDeviation="6"/>
<feComposite in2="hardAlpha" operator="out"/>
<feColorMatrix type="matrix" values="0 0 0 0 0 0 0 0 0 0 0 0 0 0 0 0 0 0 0.03 0"/>
<feBlend mode="normal" in2="BackgroundImageFix" result="effect1_dropShadow_951_15772"/>
<feBlend mode="normal" in="SourceGraphic" in2="effect1_dropShadow_951_15772" result="shape"/>
</filter>
<filter id="filter1_d_951_15772" x="143" y="99" width="64" height="64" filterUnits="userSpaceOnUse" color-interpolation-filters="sRGB">
<feFlood flood-opacity="0" result="BackgroundImageFix"/>
<feColorMatrix in="SourceAlpha" type="matrix" values="0 0 0 0 0 0 0 0 0 0 0 0 0 0 0 0 0 0 127 0" result="hardAlpha"/>
<feOffset dy="6"/>
<feGaussianBlur stdDeviation="6"/>
<feComposite in2="hardAlpha" operator="out"/>
<feColorMatrix type="matrix" values="0 0 0 0 0 0 0 0 0 0 0 0 0 0 0 0 0 0 0.03 0"/>
<feBlend mode="normal" in2="BackgroundImageFix" result="effect1_dropShadow_951_15772"/>
<feBlend mode="normal" in="SourceGraphic" in2="effect1_dropShadow_951_15772" result="shape"/>
</filter>
<filter id="filter2_d_951_15772" x="243" y="99" width="64" height="64" filterUnits="userSpaceOnUse" color-interpolation-filters="sRGB">
<feFlood flood-opacity="0" result="BackgroundImageFix"/>
<feColorMatrix in="SourceAlpha" type="matrix" values="0 0 0 0 0 0 0 0 0 0 0 0 0 0 0 0 0 0 127 0" result="hardAlpha"/>
<feOffset dy="6"/>
<feGaussianBlur stdDeviation="6"/>
<feComposite in2="hardAlpha" operator="out"/>
<feColorMatrix type="matrix" values="0 0 0 0 0 0 0 0 0 0 0 0 0 0 0 0 0 0 0.03 0"/>
<feBlend mode="normal" in2="BackgroundImageFix" result="effect1_dropShadow_951_15772"/>
<feBlend mode="normal" in="SourceGraphic" in2="effect1_dropShadow_951_15772" result="shape"/>
</filter>
</defs>
</svg>
