<svg width="350" height="250" viewBox="0 0 350 250" fill="none" xmlns="http://www.w3.org/2000/svg">
<rect width="350" height="250" fill="url(#paint0_linear_241_519)"/>
<g filter="url(#filter0_d_241_519)">
<path d="M80 99C80 96.7909 81.7909 95 84 95H266C268.209 95 270 96.7909 270 99V127C270 129.209 268.209 131 266 131H84C81.7909 131 80 129.209 80 127V99Z" fill="white" fill-opacity="0.05" shape-rendering="crispEdges"/>
<path d="M96.446 117.636L96.581 114.639L94.0526 116.266L93.2784 114.916L95.9631 113.545L93.2784 112.175L94.0526 110.825L96.581 112.452L96.446 109.455H97.9872L97.8523 112.452L100.381 110.825L101.155 112.175L98.4702 113.545L101.155 114.916L100.381 116.266L97.8523 114.639L97.9872 117.636H96.446ZM106.976 117.636L107.111 114.639L104.582 116.266L103.808 114.916L106.493 113.545L103.808 112.175L104.582 110.825L107.111 112.452L106.976 109.455H108.517L108.382 112.452L110.91 110.825L111.685 112.175L109 113.545L111.685 114.916L110.91 116.266L108.382 114.639L108.517 117.636H106.976ZM117.505 117.636L117.64 114.639L115.112 116.266L114.338 114.916L117.022 113.545L114.338 112.175L115.112 110.825L117.64 112.452L117.505 109.455H119.047L118.912 112.452L121.44 110.825L122.214 112.175L119.53 113.545L122.214 114.916L121.44 116.266L118.912 114.639L119.047 117.636H117.505ZM128.035 117.636L128.17 114.639L125.642 116.266L124.867 114.916L127.552 113.545L124.867 112.175L125.642 110.825L128.17 112.452L128.035 109.455H129.576L129.441 112.452L131.97 110.825L132.744 112.175L130.059 113.545L132.744 114.916L131.97 116.266L129.441 114.639L129.576 117.636H128.035ZM138.565 117.636L138.7 114.639L136.171 116.266L135.397 114.916L138.082 113.545L135.397 112.175L136.171 110.825L138.7 112.452L138.565 109.455H140.106L139.971 112.452L142.499 110.825L143.274 112.175L140.589 113.545L143.274 114.916L142.499 116.266L139.971 114.639L140.106 117.636H138.565ZM149.094 117.636L149.229 114.639L146.701 116.266L145.927 114.916L148.612 113.545L145.927 112.175L146.701 110.825L149.229 112.452L149.094 109.455H150.636L150.501 112.452L153.029 110.825L153.803 112.175L151.119 113.545L153.803 114.916L153.029 116.266L150.501 114.639L150.636 117.636H149.094ZM159.624 117.636L159.759 114.639L157.231 116.266L156.457 114.916L159.141 113.545L156.457 112.175L157.231 110.825L159.759 112.452L159.624 109.455H161.165L161.03 112.452L163.559 110.825L164.333 112.175L161.648 113.545L164.333 114.916L163.559 116.266L161.03 114.639L161.165 117.636H159.624ZM170.154 117.636L170.289 114.639L167.76 116.266L166.986 114.916L169.671 113.545L166.986 112.175L167.76 110.825L170.289 112.452L170.154 109.455H171.695L171.56 112.452L174.088 110.825L174.863 112.175L172.178 113.545L174.863 114.916L174.088 116.266L171.56 114.639L171.695 117.636H170.154Z" fill="white"/>
<path d="M80.5 99C80.5 97.067 82.067 95.5 84 95.5H266C267.933 95.5 269.5 97.067 269.5 99V127C269.5 128.933 267.933 130.5 266 130.5H84C82.067 130.5 80.5 128.933 80.5 127V99Z" stroke="white" stroke-opacity="0.2" shape-rendering="crispEdges"/>
</g>
<path d="M80 153C80 151.895 80.8954 151 82 151H136.667C137.771 151 138.667 151.895 138.667 153C138.667 154.105 137.771 155 136.667 155H82C80.8954 155 80 154.105 80 153Z" fill="white"/>
<path d="M145.667 153C145.667 151.895 146.562 151 147.667 151H202.333C203.438 151 204.333 151.895 204.333 153C204.333 154.105 203.438 155 202.333 155H147.667C146.562 155 145.667 154.105 145.667 153Z" fill="white"/>
<path d="M211.333 153C211.333 151.895 212.229 151 213.333 151H268C269.105 151 270 151.895 270 153C270 154.105 269.105 155 268 155H213.333C212.229 155 211.333 154.105 211.333 153Z" fill="white" fill-opacity="0.3"/>
<defs>
<filter id="filter0_d_241_519" x="68" y="89" width="214" height="60" filterUnits="userSpaceOnUse" color-interpolation-filters="sRGB">
<feFlood flood-opacity="0" result="BackgroundImageFix"/>
<feColorMatrix in="SourceAlpha" type="matrix" values="0 0 0 0 0 0 0 0 0 0 0 0 0 0 0 0 0 0 127 0" result="hardAlpha"/>
<feOffset dy="6"/>
<feGaussianBlur stdDeviation="6"/>
<feComposite in2="hardAlpha" operator="out"/>
<feColorMatrix type="matrix" values="0 0 0 0 0 0 0 0 0 0 0 0 0 0 0 0 0 0 0.03 0"/>
<feBlend mode="normal" in2="BackgroundImageFix" result="effect1_dropShadow_241_519"/>
<feBlend mode="normal" in="SourceGraphic" in2="effect1_dropShadow_241_519" result="shape"/>
</filter>
<linearGradient id="paint0_linear_241_519" x1="105.5" y1="9.49171e-06" x2="350" y2="250" gradientUnits="userSpaceOnUse">
<stop offset="0%" stop-color="#6366F1"/>
<stop offset="1" stop-color="#0EA5E9"/>
</linearGradient>
</defs>
</svg>
