<svg width="350" height="250" viewBox="0 0 350 250" fill="none" xmlns="http://www.w3.org/2000/svg">
<rect width="350" height="250" fill="#8B5CF6"/>
<g filter="url(#filter0_d_125_61)">
<rect x="53" y="106" width="244" height="37" rx="6" fill="white" fill-opacity="0.1" shape-rendering="crispEdges"/>
<path d="M65.8659 121.598V120.273H72.829V121.598H70.1316V129H68.5634V121.598H65.8659ZM75.0961 129.132C74.6813 129.132 74.3077 129.058 73.9753 128.911C73.6458 128.76 73.3844 128.538 73.1912 128.246C73.0009 127.953 72.9057 127.592 72.9057 127.163C72.9057 126.794 72.9739 126.489 73.1103 126.247C73.2466 126.006 73.4327 125.812 73.6685 125.668C73.9043 125.523 74.1699 125.413 74.4654 125.339C74.7637 125.263 75.0719 125.207 75.3901 125.173C75.7736 125.134 76.0847 125.098 76.3233 125.067C76.562 125.033 76.7353 124.982 76.8432 124.913C76.954 124.842 77.0094 124.733 77.0094 124.585V124.56C77.0094 124.239 76.9142 123.99 76.7239 123.814C76.5336 123.638 76.2594 123.55 75.9015 123.55C75.5236 123.55 75.2239 123.632 75.0023 123.797C74.7836 123.962 74.6358 124.156 74.5591 124.381L73.1188 124.176C73.2324 123.778 73.4199 123.446 73.6813 123.179C73.9426 122.909 74.2623 122.707 74.6401 122.574C75.0179 122.438 75.4355 122.369 75.8929 122.369C76.2083 122.369 76.5222 122.406 76.8347 122.48C77.1472 122.554 77.4327 122.676 77.6912 122.847C77.9498 123.014 78.1571 123.243 78.3134 123.533C78.4725 123.822 78.552 124.185 78.552 124.619V129H77.0691V128.101H77.0179C76.9242 128.283 76.7921 128.453 76.6216 128.612C76.454 128.768 76.2424 128.895 75.9867 128.991C75.7338 129.085 75.437 129.132 75.0961 129.132ZM75.4966 127.999C75.8063 127.999 76.0748 127.937 76.302 127.815C76.5293 127.69 76.704 127.526 76.8262 127.321C76.9512 127.116 77.0137 126.893 77.0137 126.652V125.881C76.9654 125.92 76.883 125.957 76.7665 125.991C76.6529 126.026 76.525 126.055 76.383 126.081C76.2409 126.107 76.1003 126.129 75.9611 126.149C75.8219 126.169 75.7012 126.186 75.5989 126.2C75.3688 126.232 75.1628 126.283 74.981 126.354C74.7992 126.425 74.6557 126.524 74.5506 126.652C74.4455 126.777 74.3929 126.939 74.3929 127.138C74.3929 127.422 74.4966 127.636 74.704 127.781C74.9114 127.926 75.1756 127.999 75.4966 127.999ZM80.1713 129V120.273H81.714V123.537H81.7779C81.8574 123.378 81.9696 123.209 82.1145 123.03C82.2594 122.848 82.4554 122.693 82.7026 122.565C82.9498 122.435 83.2651 122.369 83.6486 122.369C84.1543 122.369 84.6103 122.499 85.0165 122.757C85.4256 123.013 85.7495 123.392 85.9881 123.895C86.2296 124.395 86.3503 125.009 86.3503 125.736C86.3503 126.455 86.2324 127.065 85.9966 127.568C85.7608 128.071 85.4398 128.455 85.0336 128.719C84.6273 128.983 84.1671 129.115 83.6529 129.115C83.2779 129.115 82.9668 129.053 82.7196 128.928C82.4725 128.803 82.2736 128.652 82.123 128.476C81.9753 128.297 81.8603 128.128 81.7779 127.969H81.6884V129H80.1713ZM81.6841 125.727C81.6841 126.151 81.7438 126.521 81.8631 126.839C81.9853 127.158 82.16 127.406 82.3873 127.585C82.6174 127.761 82.8958 127.849 83.2225 127.849C83.5634 127.849 83.8489 127.759 84.079 127.577C84.3091 127.392 84.4824 127.141 84.5989 126.822C84.7182 126.501 84.7779 126.136 84.7779 125.727C84.7779 125.321 84.7196 124.96 84.6032 124.645C84.4867 124.33 84.3134 124.082 84.0833 123.903C83.8532 123.724 83.5662 123.635 83.2225 123.635C82.8929 123.635 82.6131 123.722 82.383 123.895C82.1529 124.068 81.9782 124.311 81.8588 124.624C81.7424 124.936 81.6841 125.304 81.6841 125.727ZM94.171 120.273V129H92.59V121.811H92.5389L90.4977 123.115V121.666L92.6667 120.273H94.171Z" fill="white"/>
<path d="M116 116C116 112.686 118.686 110 122 110H163C166.314 110 169 112.686 169 116V133C169 136.314 166.314 139 163 139H122C118.686 139 116 136.314 116 133V116Z" fill="white" fill-opacity="0.2"/>
<path d="M126.901 121.794V120.273H134.068V121.794H131.396V129H129.573V121.794H126.901ZM136.191 129.124C135.773 129.124 135.401 129.051 135.074 128.906C134.747 128.759 134.489 128.541 134.298 128.254C134.111 127.964 134.017 127.604 134.017 127.172C134.017 126.808 134.084 126.503 134.218 126.256C134.351 126.009 134.533 125.81 134.763 125.659C134.993 125.509 135.254 125.395 135.547 125.318C135.843 125.241 136.152 125.188 136.476 125.156C136.857 125.116 137.164 125.08 137.396 125.045C137.629 125.009 137.798 124.955 137.904 124.884C138.009 124.812 138.061 124.707 138.061 124.568V124.543C138.061 124.273 137.976 124.064 137.806 123.916C137.638 123.768 137.399 123.695 137.09 123.695C136.763 123.695 136.503 123.767 136.31 123.912C136.117 124.054 135.989 124.233 135.926 124.449L134.247 124.312C134.333 123.915 134.5 123.571 134.75 123.281C135 122.989 135.323 122.764 135.718 122.608C136.115 122.449 136.575 122.369 137.098 122.369C137.462 122.369 137.81 122.412 138.142 122.497C138.477 122.582 138.774 122.714 139.033 122.893C139.294 123.072 139.5 123.303 139.651 123.584C139.801 123.862 139.877 124.196 139.877 124.585V129H138.155V128.092H138.104C137.999 128.297 137.858 128.477 137.682 128.634C137.506 128.787 137.294 128.908 137.047 128.996C136.8 129.081 136.514 129.124 136.191 129.124ZM136.71 127.871C136.977 127.871 137.213 127.818 137.418 127.713C137.622 127.605 137.783 127.46 137.899 127.278C138.016 127.097 138.074 126.891 138.074 126.661V125.966C138.017 126.003 137.939 126.037 137.84 126.068C137.743 126.097 137.634 126.124 137.512 126.149C137.389 126.172 137.267 126.193 137.145 126.213C137.023 126.23 136.912 126.246 136.813 126.26C136.6 126.291 136.414 126.341 136.254 126.409C136.095 126.477 135.972 126.57 135.884 126.686C135.796 126.8 135.752 126.942 135.752 127.112C135.752 127.359 135.841 127.548 136.02 127.679C136.202 127.807 136.432 127.871 136.71 127.871ZM141.319 129V120.273H143.134V123.554H143.19C143.269 123.378 143.384 123.199 143.535 123.017C143.688 122.832 143.887 122.679 144.132 122.557C144.379 122.432 144.686 122.369 145.052 122.369C145.529 122.369 145.97 122.494 146.373 122.744C146.776 122.991 147.099 123.365 147.34 123.865C147.582 124.362 147.703 124.986 147.703 125.736C147.703 126.466 147.585 127.082 147.349 127.585C147.116 128.085 146.798 128.464 146.394 128.723C145.994 128.979 145.545 129.107 145.048 129.107C144.695 129.107 144.396 129.048 144.149 128.932C143.904 128.815 143.704 128.669 143.548 128.493C143.392 128.314 143.272 128.134 143.19 127.952H143.109V129H141.319ZM143.096 125.727C143.096 126.116 143.15 126.456 143.258 126.746C143.366 127.036 143.522 127.261 143.727 127.423C143.931 127.582 144.18 127.662 144.472 127.662C144.768 127.662 145.018 127.581 145.222 127.419C145.427 127.254 145.582 127.027 145.687 126.737C145.795 126.445 145.849 126.108 145.849 125.727C145.849 125.349 145.796 125.017 145.691 124.73C145.586 124.443 145.431 124.219 145.227 124.057C145.022 123.895 144.771 123.814 144.472 123.814C144.177 123.814 143.927 123.892 143.722 124.048C143.521 124.205 143.366 124.426 143.258 124.713C143.15 125 143.096 125.338 143.096 125.727ZM151.674 129V127.67L154.781 124.794C155.045 124.538 155.267 124.308 155.445 124.104C155.627 123.899 155.765 123.699 155.859 123.503C155.953 123.304 155.999 123.089 155.999 122.859C155.999 122.604 155.941 122.384 155.825 122.199C155.708 122.011 155.549 121.868 155.347 121.768C155.146 121.666 154.917 121.615 154.661 121.615C154.394 121.615 154.161 121.669 153.963 121.777C153.764 121.885 153.61 122.04 153.502 122.241C153.394 122.443 153.34 122.683 153.34 122.962H151.589C151.589 122.391 151.718 121.895 151.977 121.474C152.235 121.054 152.597 120.729 153.063 120.499C153.529 120.268 154.066 120.153 154.674 120.153C155.299 120.153 155.843 120.264 156.306 120.486C156.772 120.705 157.134 121.009 157.393 121.398C157.651 121.787 157.781 122.233 157.781 122.736C157.781 123.065 157.715 123.391 157.585 123.712C157.457 124.033 157.228 124.389 156.899 124.781C156.569 125.17 156.105 125.638 155.505 126.183L154.231 127.432V127.491H157.896V129H151.674Z" fill="white"/>
<path d="M189.841 121.598V120.273H196.804V121.598H194.106V129H192.538V121.598H189.841ZM199.071 129.132C198.656 129.132 198.282 129.058 197.95 128.911C197.62 128.76 197.359 128.538 197.166 128.246C196.975 127.953 196.88 127.592 196.88 127.163C196.88 126.794 196.949 126.489 197.085 126.247C197.221 126.006 197.407 125.812 197.643 125.668C197.879 125.523 198.145 125.413 198.44 125.339C198.738 125.263 199.047 125.207 199.365 125.173C199.748 125.134 200.059 125.098 200.298 125.067C200.537 125.033 200.71 124.982 200.818 124.913C200.929 124.842 200.984 124.733 200.984 124.585V124.56C200.984 124.239 200.889 123.99 200.699 123.814C200.508 123.638 200.234 123.55 199.876 123.55C199.498 123.55 199.199 123.632 198.977 123.797C198.758 123.962 198.61 124.156 198.534 124.381L197.093 124.176C197.207 123.778 197.395 123.446 197.656 123.179C197.917 122.909 198.237 122.707 198.615 122.574C198.993 122.438 199.41 122.369 199.868 122.369C200.183 122.369 200.497 122.406 200.809 122.48C201.122 122.554 201.407 122.676 201.666 122.847C201.924 123.014 202.132 123.243 202.288 123.533C202.447 123.822 202.527 124.185 202.527 124.619V129H201.044V128.101H200.993C200.899 128.283 200.767 128.453 200.596 128.612C200.429 128.768 200.217 128.895 199.961 128.991C199.708 129.085 199.412 129.132 199.071 129.132ZM199.471 127.999C199.781 127.999 200.049 127.937 200.277 127.815C200.504 127.69 200.679 127.526 200.801 127.321C200.926 127.116 200.988 126.893 200.988 126.652V125.881C200.94 125.92 200.858 125.957 200.741 125.991C200.627 126.026 200.5 126.055 200.358 126.081C200.216 126.107 200.075 126.129 199.936 126.149C199.797 126.169 199.676 126.186 199.574 126.2C199.343 126.232 199.137 126.283 198.956 126.354C198.774 126.425 198.63 126.524 198.525 126.652C198.42 126.777 198.368 126.939 198.368 127.138C198.368 127.422 198.471 127.636 198.679 127.781C198.886 127.926 199.15 127.999 199.471 127.999ZM204.146 129V120.273H205.689V123.537H205.752C205.832 123.378 205.944 123.209 206.089 123.03C206.234 122.848 206.43 122.693 206.677 122.565C206.924 122.435 207.24 122.369 207.623 122.369C208.129 122.369 208.585 122.499 208.991 122.757C209.4 123.013 209.724 123.392 209.963 123.895C210.204 124.395 210.325 125.009 210.325 125.736C210.325 126.455 210.207 127.065 209.971 127.568C209.735 128.071 209.414 128.455 209.008 128.719C208.602 128.983 208.142 129.115 207.627 129.115C207.252 129.115 206.941 129.053 206.694 128.928C206.447 128.803 206.248 128.652 206.098 128.476C205.95 128.297 205.835 128.128 205.752 127.969H205.663V129H204.146ZM205.659 125.727C205.659 126.151 205.718 126.521 205.838 126.839C205.96 127.158 206.135 127.406 206.362 127.585C206.592 127.761 206.87 127.849 207.197 127.849C207.538 127.849 207.824 127.759 208.054 127.577C208.284 127.392 208.457 127.141 208.574 126.822C208.693 126.501 208.752 126.136 208.752 125.727C208.752 125.321 208.694 124.96 208.578 124.645C208.461 124.33 208.288 124.082 208.058 123.903C207.828 123.724 207.541 123.635 207.197 123.635C206.868 123.635 206.588 123.722 206.358 123.895C206.127 124.068 205.953 124.311 205.833 124.624C205.717 124.936 205.659 125.304 205.659 125.727ZM217.728 129.119C217.114 129.119 216.569 129.014 216.092 128.804C215.617 128.594 215.242 128.301 214.967 127.926C214.691 127.551 214.545 127.118 214.528 126.626H216.13C216.144 126.862 216.222 127.068 216.364 127.244C216.506 127.418 216.695 127.553 216.931 127.649C217.167 127.746 217.431 127.794 217.724 127.794C218.036 127.794 218.313 127.74 218.555 127.632C218.796 127.521 218.985 127.368 219.121 127.172C219.258 126.976 219.325 126.75 219.322 126.494C219.325 126.23 219.256 125.997 219.117 125.795C218.978 125.594 218.776 125.436 218.512 125.322C218.251 125.209 217.935 125.152 217.566 125.152H216.795V123.933H217.566C217.87 123.933 218.136 123.881 218.363 123.776C218.593 123.67 218.773 123.523 218.904 123.332C219.035 123.139 219.099 122.916 219.096 122.663C219.099 122.416 219.043 122.202 218.93 122.02C218.819 121.835 218.661 121.692 218.457 121.589C218.255 121.487 218.018 121.436 217.745 121.436C217.478 121.436 217.231 121.484 217.004 121.581C216.776 121.678 216.593 121.815 216.454 121.994C216.315 122.17 216.241 122.381 216.232 122.625H214.711C214.722 122.136 214.863 121.707 215.133 121.338C215.406 120.966 215.769 120.676 216.224 120.469C216.678 120.259 217.188 120.153 217.754 120.153C218.336 120.153 218.842 120.263 219.271 120.482C219.702 120.697 220.036 120.989 220.272 121.355C220.508 121.722 220.626 122.126 220.626 122.57C220.629 123.061 220.484 123.473 220.191 123.805C219.901 124.138 219.521 124.355 219.049 124.457V124.526C219.663 124.611 220.133 124.838 220.46 125.207C220.789 125.574 220.952 126.03 220.95 126.575C220.95 127.064 220.81 127.501 220.532 127.888C220.256 128.271 219.876 128.572 219.39 128.791C218.907 129.01 218.353 129.119 217.728 129.119Z" fill="white"/>
<path d="M252.753 121.598V120.273H259.716V121.598H257.018V129H255.45V121.598H252.753ZM261.983 129.132C261.568 129.132 261.194 129.058 260.862 128.911C260.532 128.76 260.271 128.538 260.078 128.246C259.888 127.953 259.792 127.592 259.792 127.163C259.792 126.794 259.861 126.489 259.997 126.247C260.133 126.006 260.319 125.812 260.555 125.668C260.791 125.523 261.057 125.413 261.352 125.339C261.65 125.263 261.959 125.207 262.277 125.173C262.66 125.134 262.971 125.098 263.21 125.067C263.449 125.033 263.622 124.982 263.73 124.913C263.841 124.842 263.896 124.733 263.896 124.585V124.56C263.896 124.239 263.801 123.99 263.611 123.814C263.42 123.638 263.146 123.55 262.788 123.55C262.41 123.55 262.111 123.632 261.889 123.797C261.67 123.962 261.523 124.156 261.446 124.381L260.006 124.176C260.119 123.778 260.307 123.446 260.568 123.179C260.829 122.909 261.149 122.707 261.527 122.574C261.905 122.438 262.322 122.369 262.78 122.369C263.095 122.369 263.409 122.406 263.721 122.48C264.034 122.554 264.319 122.676 264.578 122.847C264.836 123.014 265.044 123.243 265.2 123.533C265.359 123.822 265.439 124.185 265.439 124.619V129H263.956V128.101H263.905C263.811 128.283 263.679 128.453 263.508 128.612C263.341 128.768 263.129 128.895 262.873 128.991C262.621 129.085 262.324 129.132 261.983 129.132ZM262.383 127.999C262.693 127.999 262.961 127.937 263.189 127.815C263.416 127.69 263.591 127.526 263.713 127.321C263.838 127.116 263.9 126.893 263.9 126.652V125.881C263.852 125.92 263.77 125.957 263.653 125.991C263.54 126.026 263.412 126.055 263.27 126.081C263.128 126.107 262.987 126.129 262.848 126.149C262.709 126.169 262.588 126.186 262.486 126.2C262.256 126.232 262.05 126.283 261.868 126.354C261.686 126.425 261.542 126.524 261.437 126.652C261.332 126.777 261.28 126.939 261.28 127.138C261.28 127.422 261.383 127.636 261.591 127.781C261.798 127.926 262.062 127.999 262.383 127.999ZM267.058 129V120.273H268.601V123.537H268.665C268.744 123.378 268.856 123.209 269.001 123.03C269.146 122.848 269.342 122.693 269.589 122.565C269.836 122.435 270.152 122.369 270.535 122.369C271.041 122.369 271.497 122.499 271.903 122.757C272.312 123.013 272.636 123.392 272.875 123.895C273.116 124.395 273.237 125.009 273.237 125.736C273.237 126.455 273.119 127.065 272.883 127.568C272.648 128.071 272.327 128.455 271.92 128.719C271.514 128.983 271.054 129.115 270.54 129.115C270.165 129.115 269.854 129.053 269.606 128.928C269.359 128.803 269.16 128.652 269.01 128.476C268.862 128.297 268.747 128.128 268.665 127.969H268.575V129H267.058ZM268.571 125.727C268.571 126.151 268.631 126.521 268.75 126.839C268.872 127.158 269.047 127.406 269.274 127.585C269.504 127.761 269.782 127.849 270.109 127.849C270.45 127.849 270.736 127.759 270.966 127.577C271.196 127.392 271.369 127.141 271.486 126.822C271.605 126.501 271.665 126.136 271.665 125.727C271.665 125.321 271.606 124.96 271.49 124.645C271.373 124.33 271.2 124.082 270.97 123.903C270.74 123.724 270.453 123.635 270.109 123.635C269.78 123.635 269.5 123.722 269.27 123.895C269.04 124.068 268.865 124.311 268.746 124.624C268.629 124.936 268.571 125.304 268.571 125.727ZM277.35 127.381V126.124L281.053 120.273H282.102V122.062H281.463L278.97 126.013V126.081H284.139V127.381H277.35ZM281.514 129V126.997L281.531 126.435V120.273H283.022V129H281.514Z" fill="white"/>
<rect x="53.5" y="106.5" width="243" height="36" rx="5.5" stroke="white" stroke-opacity="0.4" shape-rendering="crispEdges"/>
</g>
<defs>
<filter id="filter0_d_125_61" x="41" y="100" width="268" height="61" filterUnits="userSpaceOnUse" color-interpolation-filters="sRGB">
<feFlood flood-opacity="0" result="BackgroundImageFix"/>
<feColorMatrix in="SourceAlpha" type="matrix" values="0 0 0 0 0 0 0 0 0 0 0 0 0 0 0 0 0 0 127 0" result="hardAlpha"/>
<feOffset dy="6"/>
<feGaussianBlur stdDeviation="6"/>
<feComposite in2="hardAlpha" operator="out"/>
<feColorMatrix type="matrix" values="0 0 0 0 0 0 0 0 0 0 0 0 0 0 0 0 0 0 0.03 0"/>
<feBlend mode="normal" in2="BackgroundImageFix" result="effect1_dropShadow_125_61"/>
<feBlend mode="normal" in="SourceGraphic" in2="effect1_dropShadow_125_61" result="shape"/>
</filter>
</defs>
</svg>
