<svg width="350" height="250" viewBox="0 0 350 250" fill="none" xmlns="http://www.w3.org/2000/svg">
<rect width="350" height="250" fill="url(#paint0_linear_1904_625)"/>
<path d="M134.5 125C134.5 112.85 144.35 103 156.5 103H193.5C205.65 103 215.5 112.85 215.5 125V125C215.5 137.15 205.65 147 193.5 147H156.5C144.35 147 134.5 137.15 134.5 125V125Z" fill="white" fill-opacity="0.2"/>
<path d="M156.5 104H193.5C205.098 104 214.5 113.402 214.5 125C214.5 136.598 205.098 146 193.5 146H156.5C144.902 146 135.5 136.598 135.5 125C135.5 113.402 144.902 104 156.5 104Z" stroke="white" stroke-opacity="0.4" stroke-width="2"/>
<path d="M141.5 125C141.5 116.716 148.216 110 156.5 110V110C164.784 110 171.5 116.716 171.5 125V125C171.5 133.284 164.784 140 156.5 140V140C148.216 140 141.5 133.284 141.5 125V125Z" fill="white"/>
<path d="M156.5 117.5C155.505 118.495 154.947 119.843 154.947 121.25C154.947 122.657 155.505 124.005 156.5 125C157.495 125.995 158.843 126.553 160.25 126.553C161.657 126.553 163.005 125.995 164 125C164 126.483 163.56 127.933 162.736 129.167C161.912 130.4 160.741 131.361 159.37 131.929C158 132.497 156.492 132.645 155.037 132.356C153.582 132.067 152.246 131.352 151.197 130.303C150.148 129.254 149.434 127.918 149.144 126.463C148.855 125.008 149.003 123.5 149.571 122.13C150.139 120.759 151.1 119.588 152.333 118.764C153.567 117.94 155.017 117.5 156.5 117.5Z" stroke="url(#paint1_linear_1904_625)" stroke-width="2" stroke-linecap="round" stroke-linejoin="round"/>
<path d="M193.5 121C192.998 121.536 192.725 122.246 192.737 122.98C192.749 123.715 193.046 124.415 193.566 124.934C194.085 125.454 194.785 125.751 195.52 125.763C196.254 125.775 196.964 125.502 197.5 125C197.5 125.791 197.265 126.564 196.826 127.222C196.386 127.88 195.762 128.393 195.031 128.696C194.3 128.998 193.496 129.077 192.72 128.923C191.944 128.769 191.231 128.388 190.672 127.828C190.112 127.269 189.731 126.556 189.577 125.78C189.423 125.004 189.502 124.2 189.804 123.469C190.107 122.738 190.62 122.114 191.278 121.674C191.936 121.235 192.709 121 193.5 121Z" stroke="white" stroke-width="2" stroke-linecap="round" stroke-linejoin="round"/>
<path d="M193.5 115V117" stroke="white" stroke-width="2" stroke-linecap="round" stroke-linejoin="round"/>
<path d="M193.5 133V135" stroke="white" stroke-width="2" stroke-linecap="round" stroke-linejoin="round"/>
<path d="M186.4 117.9L187.8 119.3" stroke="white" stroke-width="2" stroke-linecap="round" stroke-linejoin="round"/>
<path d="M199.2 130.7L200.6 132.1" stroke="white" stroke-width="2" stroke-linecap="round" stroke-linejoin="round"/>
<path d="M183.5 125H185.5" stroke="white" stroke-width="2" stroke-linecap="round" stroke-linejoin="round"/>
<path d="M201.5 125H203.5" stroke="white" stroke-width="2" stroke-linecap="round" stroke-linejoin="round"/>
<path d="M187.8 130.7L186.4 132.1" stroke="white" stroke-width="2" stroke-linecap="round" stroke-linejoin="round"/>
<path d="M200.6 117.9L199.2 119.3" stroke="white" stroke-width="2" stroke-linecap="round" stroke-linejoin="round"/>
<defs>
<linearGradient id="paint0_linear_1904_625" x1="-36" y1="-30.5" x2="541" y2="271" gradientUnits="userSpaceOnUse">
<stop offset="0%" stop-color="#E879F9"/>
<stop offset="1" stop-color="#6D28D9"/>
</linearGradient>
<linearGradient id="paint1_linear_1904_625" x1="147.457" y1="115.67" x2="175.088" y2="125.983" gradientUnits="userSpaceOnUse">
<stop offset="0%" stop-color="#E879F9"/>
<stop offset="1" stop-color="#6D28D9"/>
</linearGradient>
</defs>
</svg>
