<svg width="350" height="250" viewBox="0 0 350 250" fill="none" xmlns="http://www.w3.org/2000/svg">
<rect width="350" height="250" fill="url(#paint0_linear_139_2681)"/>
<path d="M90.6186 74.8182H92.483L95.7244 82.733H95.8438L99.0852 74.8182H100.95V85H99.4879V77.6321H99.3935L96.3906 84.9851H95.1776L92.1747 77.6271H92.0803V85H90.6186V74.8182ZM106.35 85.1541C105.634 85.1541 105.01 84.9901 104.476 84.6619C103.942 84.3338 103.528 83.8748 103.233 83.2848C102.938 82.6948 102.791 82.0054 102.791 81.2166C102.791 80.4245 102.938 79.7318 103.233 79.1385C103.528 78.5452 103.942 78.0845 104.476 77.7564C105.01 77.4283 105.634 77.2642 106.35 77.2642C107.066 77.2642 107.691 77.4283 108.225 77.7564C108.758 78.0845 109.173 78.5452 109.468 79.1385C109.763 79.7318 109.91 80.4245 109.91 81.2166C109.91 82.0054 109.763 82.6948 109.468 83.2848C109.173 83.8748 108.758 84.3338 108.225 84.6619C107.691 84.9901 107.066 85.1541 106.35 85.1541ZM106.355 83.9062C106.819 83.9062 107.204 83.7836 107.509 83.5384C107.814 83.2931 108.039 82.9666 108.185 82.5589C108.334 82.1513 108.409 81.7022 108.409 81.2116C108.409 80.7244 108.334 80.277 108.185 79.8693C108.039 79.4583 107.814 79.1286 107.509 78.88C107.204 78.6314 106.819 78.5071 106.355 78.5071C105.888 78.5071 105.5 78.6314 105.192 78.88C104.887 79.1286 104.66 79.4583 104.511 79.8693C104.365 80.277 104.292 80.7244 104.292 81.2116C104.292 81.7022 104.365 82.1513 104.511 82.5589C104.66 82.9666 104.887 83.2931 105.192 83.5384C105.5 83.7836 105.888 83.9062 106.355 83.9062ZM113.126 80.4659V85H111.639V77.3636H113.066V78.6065H113.161C113.336 78.2022 113.611 77.8774 113.986 77.6321C114.364 77.3868 114.839 77.2642 115.413 77.2642C115.933 77.2642 116.389 77.3736 116.78 77.5923C117.171 77.8078 117.474 78.1293 117.69 78.5568C117.905 78.9844 118.013 79.513 118.013 80.1428V85H116.526V80.3217C116.526 79.7682 116.382 79.3357 116.094 79.0241C115.805 78.7093 115.409 78.5518 114.906 78.5518C114.561 78.5518 114.254 78.6264 113.986 78.7756C113.721 78.9247 113.51 79.1435 113.354 79.4318C113.202 79.7169 113.126 80.0616 113.126 80.4659ZM123.641 77.3636V78.5568H119.47V77.3636H123.641ZM120.589 75.5341H122.075V82.7578C122.075 83.0462 122.118 83.2633 122.204 83.4091C122.29 83.5516 122.402 83.6494 122.537 83.7024C122.677 83.7521 122.827 83.777 122.99 83.777C123.109 83.777 123.214 83.7687 123.303 83.7521C123.393 83.7356 123.462 83.7223 123.512 83.7124L123.78 84.9403C123.694 84.9735 123.572 85.0066 123.412 85.0398C123.253 85.0762 123.054 85.0961 122.816 85.0994C122.425 85.1061 122.06 85.0365 121.722 84.8906C121.384 84.7448 121.111 84.5194 120.902 84.2145C120.693 83.9096 120.589 83.5268 120.589 83.0661V75.5341ZM127.006 80.4659V85H125.52V74.8182H126.986V78.6065H127.081C127.26 78.1955 127.533 77.8691 127.901 77.6271C128.269 77.3852 128.749 77.2642 129.343 77.2642C129.866 77.2642 130.324 77.3719 130.715 77.5874C131.109 77.8028 131.414 78.1243 131.63 78.5518C131.848 78.9761 131.958 79.5064 131.958 80.1428V85H130.471V80.3217C130.471 79.7616 130.327 79.3274 130.039 79.0192C129.75 78.7076 129.349 78.5518 128.836 78.5518C128.484 78.5518 128.169 78.6264 127.891 78.7756C127.616 78.9247 127.399 79.1435 127.24 79.4318C127.084 79.7169 127.006 80.0616 127.006 80.4659ZM135.498 74.8182V85H134.011V74.8182H135.498ZM138.507 87.8636C138.285 87.8636 138.083 87.8454 137.901 87.8089C137.719 87.7758 137.583 87.7393 137.493 87.6996L137.851 86.4815C138.123 86.5545 138.365 86.5859 138.577 86.576C138.789 86.5661 138.976 86.4865 139.139 86.3374C139.304 86.1882 139.45 85.9446 139.576 85.6065L139.76 85.0994L136.966 77.3636H138.557L140.491 83.2898H140.571L142.505 77.3636H144.1L140.953 86.0192C140.808 86.4169 140.622 86.7533 140.397 87.0284C140.171 87.3068 139.903 87.5156 139.591 87.6548C139.28 87.794 138.918 87.8636 138.507 87.8636Z" fill="white"/>
<path d="M160.5 80C160.5 73.3726 165.873 68 172.5 68H190.5C197.127 68 202.5 73.3726 202.5 80C202.5 86.6274 197.127 92 190.5 92H172.5C165.873 92 160.5 86.6274 160.5 80Z" fill="white" fill-opacity="0.2"/>
<path d="M180.5 80C180.5 74.4772 184.977 70 190.5 70C196.023 70 200.5 74.4772 200.5 80C200.5 85.5228 196.023 90 190.5 90C184.977 90 180.5 85.5228 180.5 80Z" fill="white"/>
<path d="M218.833 74.8182H220.578L223.238 79.4467H223.347L226.007 74.8182H227.752L224.058 81.0028V85H222.527V81.0028L218.833 74.8182ZM231.187 85.1541C230.434 85.1541 229.786 84.9934 229.243 84.6719C228.703 84.3471 228.285 83.8913 227.99 83.3047C227.698 82.7147 227.552 82.0237 227.552 81.2315C227.552 80.4493 227.698 79.7599 227.99 79.1634C228.285 78.5668 228.696 78.1011 229.223 77.7663C229.753 77.4316 230.373 77.2642 231.082 77.2642C231.513 77.2642 231.931 77.3355 232.335 77.478C232.739 77.6205 233.102 77.8442 233.424 78.1491C233.745 78.4541 233.999 78.8501 234.185 79.3374C234.37 79.8213 234.463 80.4096 234.463 81.1023V81.6293H228.393V80.5156H233.006C233.006 80.1245 232.927 79.7782 232.768 79.4766C232.609 79.1716 232.385 78.9313 232.096 78.7557C231.811 78.58 231.477 78.4922 231.092 78.4922C230.675 78.4922 230.31 78.5949 229.998 78.8004C229.69 79.0026 229.452 79.2678 229.283 79.5959C229.117 79.9207 229.034 80.2737 229.034 80.6548V81.5249C229.034 82.0353 229.123 82.4695 229.302 82.8274C229.485 83.1854 229.738 83.4588 230.063 83.6477C230.388 83.8333 230.767 83.9261 231.202 83.9261C231.483 83.9261 231.74 83.8864 231.972 83.8068C232.204 83.724 232.405 83.6013 232.574 83.4389C232.743 83.2765 232.872 83.076 232.962 82.8374L234.368 83.0909C234.256 83.5052 234.054 83.8681 233.762 84.1797C233.474 84.4879 233.111 84.7282 232.673 84.9006C232.239 85.0696 231.743 85.1541 231.187 85.1541ZM238.405 85.169C237.921 85.169 237.483 85.0795 237.092 84.9006C236.701 84.7183 236.391 84.4548 236.162 84.1101C235.937 83.7654 235.824 83.3428 235.824 82.8423C235.824 82.4115 235.907 82.0568 236.073 81.7784C236.239 81.5 236.462 81.2796 236.744 81.1172C237.026 80.9548 237.341 80.8321 237.689 80.7493C238.037 80.6664 238.391 80.6035 238.753 80.5604C239.21 80.5073 239.581 80.4643 239.866 80.4311C240.151 80.3946 240.358 80.3366 240.488 80.2571C240.617 80.1776 240.682 80.0483 240.682 79.8693V79.8345C240.682 79.4003 240.559 79.0639 240.314 78.8253C240.072 78.5866 239.71 78.4673 239.23 78.4673C238.729 78.4673 238.335 78.5784 238.047 78.8004C237.762 79.0192 237.564 79.2628 237.455 79.5312L236.058 79.2131C236.224 78.7491 236.466 78.3745 236.784 78.0895C237.105 77.8011 237.475 77.5923 237.892 77.4631C238.31 77.3305 238.749 77.2642 239.21 77.2642C239.515 77.2642 239.838 77.3007 240.179 77.3736C240.524 77.4432 240.846 77.5724 241.144 77.7614C241.446 77.9503 241.692 78.2204 241.885 78.5717C242.077 78.9197 242.173 79.3722 242.173 79.929V85H240.721V83.956H240.662C240.566 84.1482 240.421 84.3371 240.229 84.5227C240.037 84.7083 239.79 84.8625 239.488 84.9851C239.187 85.1077 238.825 85.169 238.405 85.169ZM238.728 83.9759C239.139 83.9759 239.49 83.8946 239.782 83.7322C240.077 83.5698 240.3 83.3577 240.453 83.0959C240.609 82.8307 240.687 82.5473 240.687 82.2457V81.2614C240.633 81.3144 240.531 81.3641 240.378 81.4105C240.229 81.4536 240.058 81.4917 239.866 81.5249C239.674 81.5547 239.487 81.5829 239.304 81.6094C239.122 81.6326 238.97 81.6525 238.847 81.669C238.559 81.7055 238.295 81.7668 238.057 81.853C237.821 81.9392 237.632 82.0634 237.49 82.2259C237.351 82.3849 237.281 82.5971 237.281 82.8622C237.281 83.2301 237.417 83.5085 237.689 83.6974C237.96 83.883 238.307 83.9759 238.728 83.9759ZM244.223 85V77.3636H245.66V78.5767H245.739C245.879 78.1657 246.124 77.8426 246.475 77.6072C246.83 77.3686 247.231 77.2493 247.678 77.2493C247.771 77.2493 247.88 77.2526 248.006 77.2592C248.136 77.2659 248.237 77.2741 248.31 77.2841V78.706C248.25 78.6894 248.144 78.6712 247.991 78.6513C247.839 78.6281 247.687 78.6165 247.534 78.6165C247.183 78.6165 246.87 78.6911 246.594 78.8402C246.323 78.986 246.107 79.1899 245.948 79.4517C245.789 79.7102 245.709 80.0052 245.709 80.3366V85H244.223ZM251.153 74.8182V85H249.666V74.8182H251.153ZM254.162 87.8636C253.94 87.8636 253.738 87.8454 253.555 87.8089C253.373 87.7758 253.237 87.7393 253.148 87.6996L253.506 86.4815C253.777 86.5545 254.019 86.5859 254.232 86.576C254.444 86.5661 254.631 86.4865 254.793 86.3374C254.959 86.1882 255.105 85.9446 255.231 85.6065L255.415 85.0994L252.621 77.3636H254.212L256.146 83.2898H256.225L258.159 77.3636H259.755L256.608 86.0192C256.462 86.4169 256.277 86.7533 256.051 87.0284C255.826 87.3068 255.557 87.5156 255.246 87.6548C254.934 87.794 254.573 87.8636 254.162 87.8636Z" fill="white"/>
<path d="M96.9588 141.636V125.273H98.0071V141.636H96.9588ZM99.7393 130.674C99.6882 130.158 99.4688 129.758 99.081 129.472C98.6932 129.187 98.1669 129.044 97.5021 129.044C97.0504 129.044 96.669 129.108 96.358 129.236C96.0469 129.359 95.8082 129.532 95.642 129.754C95.4801 129.975 95.3991 130.227 95.3991 130.508C95.3906 130.742 95.4396 130.947 95.5462 131.121C95.657 131.296 95.8082 131.447 96 131.575C96.1918 131.699 96.4134 131.808 96.6648 131.901C96.9162 131.991 97.1847 132.067 97.4702 132.131L98.6463 132.413C99.2173 132.54 99.7415 132.711 100.219 132.924C100.696 133.137 101.109 133.399 101.459 133.71C101.808 134.021 102.079 134.388 102.271 134.81C102.467 135.232 102.567 135.715 102.571 136.261C102.567 137.062 102.362 137.756 101.957 138.344C101.557 138.928 100.977 139.382 100.219 139.706C99.4645 140.026 98.5547 140.185 97.4893 140.185C96.4325 140.185 95.5121 140.023 94.728 139.7C93.9482 139.376 93.3388 138.896 92.8999 138.261C92.4652 137.622 92.2372 136.832 92.2159 135.89H94.8942C94.924 136.329 95.0497 136.695 95.2713 136.989C95.4972 137.279 95.7976 137.499 96.1726 137.648C96.5518 137.793 96.9801 137.865 97.4574 137.865C97.9261 137.865 98.3331 137.797 98.6783 137.661C99.0277 137.524 99.2983 137.335 99.4901 137.092C99.6818 136.849 99.7777 136.57 99.7777 136.254C99.7777 135.96 99.6903 135.713 99.5156 135.513C99.3452 135.312 99.0938 135.142 98.7614 135.001C98.4332 134.861 98.0305 134.733 97.5533 134.618L96.1278 134.26C95.0241 133.991 94.1527 133.572 93.5135 133.001C92.8743 132.43 92.5568 131.661 92.5611 130.693C92.5568 129.901 92.7678 129.208 93.1939 128.616C93.6243 128.023 94.2145 127.561 94.9645 127.229C95.7145 126.896 96.5668 126.73 97.5213 126.73C98.4929 126.73 99.3409 126.896 100.065 127.229C100.794 127.561 101.361 128.023 101.766 128.616C102.17 129.208 102.379 129.894 102.392 130.674H99.7393ZM109.579 140.288C108.479 140.283 107.533 140.013 106.741 139.476C105.952 138.939 105.345 138.161 104.919 137.143C104.497 136.124 104.288 134.899 104.293 133.467C104.293 132.04 104.504 130.823 104.925 129.817C105.352 128.812 105.959 128.047 106.747 127.523C107.54 126.994 108.484 126.73 109.579 126.73C110.674 126.73 111.616 126.994 112.404 127.523C113.197 128.051 113.806 128.818 114.232 129.824C114.658 130.825 114.869 132.04 114.865 133.467C114.865 134.903 114.652 136.131 114.226 137.149C113.804 138.168 113.199 138.945 112.41 139.482C111.622 140.019 110.678 140.288 109.579 140.288ZM109.579 137.993C110.329 137.993 110.928 137.616 111.375 136.862C111.822 136.107 112.044 134.976 112.04 133.467C112.04 132.474 111.937 131.648 111.733 130.987C111.533 130.327 111.247 129.83 110.876 129.498C110.51 129.165 110.077 128.999 109.579 128.999C108.833 128.999 108.236 129.372 107.789 130.118C107.342 130.864 107.116 131.98 107.111 133.467C107.111 134.473 107.212 135.312 107.412 135.986C107.616 136.655 107.904 137.158 108.275 137.494C108.646 137.827 109.08 137.993 109.579 137.993Z" fill="white"/>
<path d="M89 160.5C89 159.672 89.6716 159 90.5 159H117.5C118.328 159 119 159.672 119 160.5C119 161.328 118.328 162 117.5 162H90.5C89.6716 162 89 161.328 89 160.5Z" fill="white" fill-opacity="0.3"/>
<path d="M83.5 170.5C83.5 169.672 84.1716 169 85 169H123C123.828 169 124.5 169.672 124.5 170.5C124.5 171.328 123.828 172 123 172H85C84.1716 172 83.5 171.328 83.5 170.5Z" fill="white" fill-opacity="0.3"/>
<path d="M89 180.5C89 179.672 89.6716 179 90.5 179H117.5C118.328 179 119 179.672 119 180.5C119 181.328 118.328 182 117.5 182H90.5C89.6716 182 89 181.328 89 180.5Z" fill="white" fill-opacity="0.3"/>
<g clip-path="url(#clip0_139_2681)">
<path d="M161.959 141.636V125.273H163.007V141.636H161.959ZM164.739 130.674C164.688 130.158 164.469 129.758 164.081 129.472C163.693 129.187 163.167 129.044 162.502 129.044C162.05 129.044 161.669 129.108 161.358 129.236C161.047 129.359 160.808 129.532 160.642 129.754C160.48 129.975 160.399 130.227 160.399 130.508C160.391 130.742 160.44 130.947 160.546 131.121C160.657 131.296 160.808 131.447 161 131.575C161.192 131.699 161.413 131.808 161.665 131.901C161.916 131.991 162.185 132.067 162.47 132.131L163.646 132.413C164.217 132.54 164.741 132.711 165.219 132.924C165.696 133.137 166.109 133.399 166.459 133.71C166.808 134.021 167.079 134.388 167.271 134.81C167.467 135.232 167.567 135.715 167.571 136.261C167.567 137.062 167.362 137.756 166.957 138.344C166.557 138.928 165.977 139.382 165.219 139.706C164.464 140.026 163.555 140.185 162.489 140.185C161.433 140.185 160.512 140.023 159.728 139.7C158.948 139.376 158.339 138.896 157.9 138.261C157.465 137.622 157.237 136.832 157.216 135.89H159.894C159.924 136.329 160.05 136.695 160.271 136.989C160.497 137.279 160.798 137.499 161.173 137.648C161.552 137.793 161.98 137.865 162.457 137.865C162.926 137.865 163.333 137.797 163.678 137.661C164.028 137.524 164.298 137.335 164.49 137.092C164.682 136.849 164.778 136.57 164.778 136.254C164.778 135.96 164.69 135.713 164.516 135.513C164.345 135.312 164.094 135.142 163.761 135.001C163.433 134.861 163.031 134.733 162.553 134.618L161.128 134.26C160.024 133.991 159.153 133.572 158.513 133.001C157.874 132.43 157.557 131.661 157.561 130.693C157.557 129.901 157.768 129.208 158.194 128.616C158.624 128.023 159.214 127.561 159.964 127.229C160.714 126.896 161.567 126.73 162.521 126.73C163.493 126.73 164.341 126.896 165.065 127.229C165.794 127.561 166.361 128.023 166.766 128.616C167.17 129.208 167.379 129.894 167.392 130.674H164.739ZM169.446 140V138.006L174.106 133.691C174.502 133.308 174.834 132.962 175.103 132.656C175.376 132.349 175.582 132.048 175.723 131.754C175.864 131.456 175.934 131.134 175.934 130.789C175.934 130.406 175.847 130.075 175.672 129.798C175.497 129.517 175.259 129.302 174.956 129.153C174.653 128.999 174.31 128.923 173.927 128.923C173.526 128.923 173.177 129.004 172.879 129.165C172.58 129.327 172.35 129.56 172.188 129.862C172.026 130.165 171.945 130.525 171.945 130.942H169.318C169.318 130.086 169.512 129.342 169.9 128.712C170.288 128.081 170.831 127.593 171.53 127.248C172.229 126.903 173.034 126.73 173.946 126.73C174.884 126.73 175.7 126.896 176.394 127.229C177.093 127.557 177.636 128.013 178.024 128.597C178.412 129.18 178.606 129.849 178.606 130.604C178.606 131.098 178.508 131.586 178.312 132.067C178.12 132.549 177.777 133.084 177.283 133.672C176.788 134.256 176.092 134.957 175.192 135.775L173.281 137.648V137.737H178.778V140H169.446Z" fill="white"/>
<path d="M187.445 132.179C186.46 132.179 185.585 132.019 184.817 131.7C184.055 131.376 183.456 130.935 183.021 130.376C182.587 129.818 182.369 129.185 182.369 128.478C182.369 127.933 182.493 127.432 182.74 126.976C182.991 126.516 183.332 126.134 183.763 125.832C184.193 125.525 184.675 125.329 185.207 125.244V125.154C184.509 125.013 183.942 124.675 183.507 124.138C183.072 123.597 182.855 122.968 182.855 122.252C182.855 121.575 183.053 120.972 183.45 120.443C183.846 119.911 184.389 119.493 185.08 119.19C185.774 118.884 186.562 118.73 187.445 118.73C188.327 118.73 189.113 118.884 189.803 119.19C190.498 119.497 191.043 119.917 191.44 120.45C191.836 120.978 192.036 121.579 192.04 122.252C192.036 122.972 191.815 123.601 191.376 124.138C190.937 124.675 190.374 125.013 189.688 125.154V125.244C190.212 125.329 190.688 125.525 191.114 125.832C191.544 126.134 191.885 126.516 192.136 126.976C192.392 127.432 192.522 127.933 192.526 128.478C192.522 129.185 192.303 129.818 191.868 130.376C191.433 130.935 190.832 131.376 190.065 131.7C189.303 132.019 188.429 132.179 187.445 132.179ZM187.445 130.146C187.884 130.146 188.267 130.067 188.595 129.91C188.923 129.748 189.179 129.526 189.362 129.245C189.55 128.96 189.643 128.631 189.643 128.261C189.643 127.881 189.548 127.547 189.356 127.257C189.164 126.963 188.904 126.733 188.576 126.567C188.248 126.396 187.871 126.311 187.445 126.311C187.023 126.311 186.646 126.396 186.313 126.567C185.981 126.733 185.719 126.963 185.527 127.257C185.339 127.547 185.246 127.881 185.246 128.261C185.246 128.631 185.337 128.96 185.521 129.245C185.704 129.526 185.962 129.748 186.294 129.91C186.626 130.067 187.01 130.146 187.445 130.146ZM187.445 124.298C187.811 124.298 188.137 124.223 188.423 124.074C188.708 123.925 188.932 123.718 189.094 123.454C189.256 123.19 189.337 122.885 189.337 122.54C189.337 122.199 189.256 121.901 189.094 121.645C188.932 121.385 188.71 121.183 188.429 121.038C188.148 120.888 187.82 120.814 187.445 120.814C187.074 120.814 186.746 120.888 186.46 121.038C186.175 121.183 185.951 121.385 185.789 121.645C185.631 121.901 185.553 122.199 185.553 122.54C185.553 122.885 185.634 123.19 185.795 123.454C185.957 123.718 186.181 123.925 186.467 124.074C186.752 124.223 187.078 124.298 187.445 124.298Z" fill="white" fill-opacity="0.5"/>
<path d="M187.298 138.73C187.971 138.73 188.619 138.843 189.241 139.069C189.867 139.295 190.425 139.655 190.915 140.149C191.41 140.643 191.8 141.3 192.085 142.118C192.375 142.932 192.522 143.931 192.526 145.116C192.526 146.228 192.401 147.221 192.149 148.094C191.902 148.964 191.546 149.703 191.082 150.312C190.617 150.922 190.057 151.386 189.401 151.706C188.744 152.021 188.011 152.179 187.202 152.179C186.328 152.179 185.557 152.011 184.888 151.674C184.219 151.333 183.68 150.871 183.271 150.287C182.866 149.699 182.621 149.038 182.536 148.305H185.265C185.371 148.783 185.595 149.153 185.936 149.418C186.277 149.678 186.699 149.808 187.202 149.808C188.054 149.808 188.702 149.437 189.145 148.695C189.588 147.95 189.812 146.929 189.816 145.634H189.727C189.531 146.017 189.266 146.347 188.934 146.624C188.602 146.897 188.22 147.108 187.79 147.257C187.364 147.406 186.91 147.481 186.428 147.481C185.657 147.481 184.969 147.3 184.364 146.938C183.759 146.575 183.281 146.077 182.932 145.442C182.582 144.807 182.408 144.082 182.408 143.268C182.403 142.391 182.606 141.609 183.015 140.923C183.424 140.237 183.995 139.7 184.728 139.312C185.465 138.92 186.322 138.726 187.298 138.73ZM187.317 140.903C186.886 140.903 186.503 141.006 186.166 141.21C185.834 141.415 185.57 141.69 185.374 142.035C185.182 142.38 185.088 142.766 185.092 143.192C185.092 143.622 185.186 144.01 185.374 144.355C185.565 144.696 185.825 144.969 186.153 145.173C186.486 145.374 186.865 145.474 187.291 145.474C187.611 145.474 187.907 145.414 188.18 145.295C188.452 145.175 188.689 145.011 188.889 144.803C189.094 144.589 189.254 144.344 189.369 144.067C189.484 143.79 189.541 143.496 189.541 143.185C189.537 142.772 189.439 142.393 189.247 142.048C189.055 141.702 188.791 141.425 188.455 141.217C188.118 141.008 187.739 140.903 187.317 140.903Z" fill="white"/>
</g>
<path d="M160 160.5C160 159.672 160.672 159 161.5 159H188.5C189.328 159 190 159.672 190 160.5C190 161.328 189.328 162 188.5 162H161.5C160.672 162 160 161.328 160 160.5Z" fill="white" fill-opacity="0.3"/>
<path d="M154.5 170.5C154.5 169.672 155.172 169 156 169H194C194.828 169 195.5 169.672 195.5 170.5C195.5 171.328 194.828 172 194 172H156C155.172 172 154.5 171.328 154.5 170.5Z" fill="white" fill-opacity="0.3"/>
<path d="M160 180.5C160 179.672 160.672 179 161.5 179H188.5C189.328 179 190 179.672 190 180.5C190 181.328 189.328 182 188.5 182H161.5C160.672 182 160 181.328 160 180.5Z" fill="white" fill-opacity="0.3"/>
<g clip-path="url(#clip1_139_2681)">
<path d="M231.959 141.636V125.273H233.007V141.636H231.959ZM234.739 130.674C234.688 130.158 234.469 129.758 234.081 129.472C233.693 129.187 233.167 129.044 232.502 129.044C232.05 129.044 231.669 129.108 231.358 129.236C231.047 129.359 230.808 129.532 230.642 129.754C230.48 129.975 230.399 130.227 230.399 130.508C230.391 130.742 230.44 130.947 230.546 131.121C230.657 131.296 230.808 131.447 231 131.575C231.192 131.699 231.413 131.808 231.665 131.901C231.916 131.991 232.185 132.067 232.47 132.131L233.646 132.413C234.217 132.54 234.741 132.711 235.219 132.924C235.696 133.137 236.109 133.399 236.459 133.71C236.808 134.021 237.079 134.388 237.271 134.81C237.467 135.232 237.567 135.715 237.571 136.261C237.567 137.062 237.362 137.756 236.957 138.344C236.557 138.928 235.977 139.382 235.219 139.706C234.464 140.026 233.555 140.185 232.489 140.185C231.433 140.185 230.512 140.023 229.728 139.7C228.948 139.376 228.339 138.896 227.9 138.261C227.465 137.622 227.237 136.832 227.216 135.89H229.894C229.924 136.329 230.05 136.695 230.271 136.989C230.497 137.279 230.798 137.499 231.173 137.648C231.552 137.793 231.98 137.865 232.457 137.865C232.926 137.865 233.333 137.797 233.678 137.661C234.028 137.524 234.298 137.335 234.49 137.092C234.682 136.849 234.778 136.57 234.778 136.254C234.778 135.96 234.69 135.713 234.516 135.513C234.345 135.312 234.094 135.142 233.761 135.001C233.433 134.861 233.031 134.733 232.553 134.618L231.128 134.26C230.024 133.991 229.153 133.572 228.513 133.001C227.874 132.43 227.557 131.661 227.561 130.693C227.557 129.901 227.768 129.208 228.194 128.616C228.624 128.023 229.214 127.561 229.964 127.229C230.714 126.896 231.567 126.73 232.521 126.73C233.493 126.73 234.341 126.896 235.065 127.229C235.794 127.561 236.361 128.023 236.766 128.616C237.17 129.208 237.379 129.894 237.392 130.674H234.739Z" fill="white"/>
<path d="M245.342 125.179C244.439 125.179 243.634 125.013 242.926 124.68C242.223 124.348 241.665 123.89 241.251 123.306C240.838 122.722 240.623 122.053 240.606 121.299H243.29C243.32 121.806 243.533 122.217 243.93 122.533C244.326 122.848 244.797 123.006 245.342 123.006C245.777 123.006 246.161 122.91 246.493 122.718C246.83 122.522 247.092 122.251 247.279 121.906C247.471 121.557 247.567 121.156 247.567 120.705C247.567 120.244 247.469 119.839 247.273 119.49C247.081 119.141 246.815 118.868 246.474 118.672C246.133 118.476 245.743 118.376 245.304 118.371C244.92 118.371 244.548 118.45 244.185 118.608C243.827 118.766 243.548 118.981 243.348 119.254L240.887 118.812L241.507 111.909H249.51V114.172H243.789L243.45 117.451H243.527C243.757 117.127 244.104 116.859 244.569 116.646C245.033 116.433 245.553 116.326 246.129 116.326C246.917 116.326 247.62 116.511 248.238 116.882C248.856 117.253 249.344 117.762 249.702 118.41C250.06 119.053 250.237 119.795 250.232 120.634C250.237 121.516 250.032 122.3 249.619 122.987C249.21 123.668 248.636 124.205 247.899 124.597C247.166 124.985 246.314 125.179 245.342 125.179Z" fill="white" fill-opacity="0.5"/>
<path d="M240.363 142.699V140.519L245.828 131.909H247.707V134.926H246.595L243.15 140.379V140.481H250.916V142.699H240.363ZM246.646 145V142.034L246.697 141.069V131.909H249.293V145H246.646Z" fill="white"/>
<path d="M259.298 126.73C259.971 126.73 260.619 126.843 261.241 127.069C261.867 127.295 262.425 127.655 262.915 128.149C263.41 128.643 263.8 129.3 264.085 130.118C264.375 130.932 264.522 131.931 264.526 133.116C264.526 134.228 264.401 135.221 264.149 136.094C263.902 136.964 263.546 137.703 263.082 138.312C262.617 138.922 262.057 139.386 261.401 139.706C260.744 140.021 260.011 140.179 259.202 140.179C258.328 140.179 257.557 140.011 256.888 139.674C256.219 139.333 255.68 138.871 255.271 138.287C254.866 137.699 254.621 137.038 254.536 136.305H257.265C257.371 136.783 257.595 137.153 257.936 137.418C258.277 137.678 258.699 137.808 259.202 137.808C260.054 137.808 260.702 137.437 261.145 136.695C261.588 135.95 261.812 134.929 261.816 133.634H261.727C261.531 134.017 261.266 134.347 260.934 134.624C260.602 134.897 260.22 135.108 259.79 135.257C259.364 135.406 258.91 135.481 258.428 135.481C257.657 135.481 256.969 135.3 256.364 134.938C255.759 134.575 255.281 134.077 254.932 133.442C254.582 132.807 254.408 132.082 254.408 131.268C254.403 130.391 254.606 129.609 255.015 128.923C255.424 128.237 255.995 127.7 256.728 127.312C257.465 126.92 258.322 126.726 259.298 126.73ZM259.317 128.903C258.886 128.903 258.503 129.006 258.166 129.21C257.834 129.415 257.57 129.69 257.374 130.035C257.182 130.38 257.088 130.766 257.092 131.192C257.092 131.622 257.186 132.01 257.374 132.355C257.565 132.696 257.825 132.969 258.153 133.173C258.486 133.374 258.865 133.474 259.291 133.474C259.611 133.474 259.907 133.414 260.18 133.295C260.452 133.175 260.689 133.011 260.889 132.803C261.094 132.589 261.254 132.344 261.369 132.067C261.484 131.79 261.541 131.496 261.541 131.185C261.537 130.772 261.439 130.393 261.247 130.048C261.055 129.702 260.791 129.425 260.455 129.217C260.118 129.008 259.739 128.903 259.317 128.903Z" fill="white"/>
</g>
<path d="M231 160.5C231 159.672 231.672 159 232.5 159H259.5C260.328 159 261 159.672 261 160.5C261 161.328 260.328 162 259.5 162H232.5C231.672 162 231 161.328 231 160.5Z" fill="white" fill-opacity="0.3"/>
<path d="M225.5 170.5C225.5 169.672 226.172 169 227 169H265C265.828 169 266.5 169.672 266.5 170.5C266.5 171.328 265.828 172 265 172H227C226.172 172 225.5 171.328 225.5 170.5Z" fill="white" fill-opacity="0.3"/>
<path d="M231 180.5C231 179.672 231.672 179 232.5 179H259.5C260.328 179 261 179.672 261 180.5C261 181.328 260.328 182 259.5 182H232.5C231.672 182 231 181.328 231 180.5Z" fill="white" fill-opacity="0.3"/>
<g filter="url(#filter0_d_139_2681)">
<path d="M190.496 95.5298L189.714 80.9791C189.626 79.3362 191.448 78.2953 192.818 79.2063L204.923 87.2544C206.478 88.2882 205.894 90.7002 204.038 90.9075L198.743 91.499C198.197 91.56 197.7 91.8432 197.368 92.282L194.09 96.6271C192.966 98.1161 190.596 97.3924 190.496 95.5298Z" fill="#3B82F6"/>
<path d="M190.496 95.5298L189.714 80.9791C189.626 79.3362 191.448 78.2953 192.818 79.2063L204.923 87.2544C206.478 88.2882 205.894 90.7002 204.038 90.9075L198.743 91.499C198.197 91.56 197.7 91.8432 197.368 92.282L194.09 96.6271C192.966 98.1161 190.596 97.3924 190.496 95.5298Z" stroke="white" stroke-width="2"/>
</g>
<defs>
<filter id="filter0_d_139_2681" x="176.711" y="71.8657" width="42.1079" height="44.5613" filterUnits="userSpaceOnUse" color-interpolation-filters="sRGB">
<feFlood flood-opacity="0" result="BackgroundImageFix"/>
<feColorMatrix in="SourceAlpha" type="matrix" values="0 0 0 0 0 0 0 0 0 0 0 0 0 0 0 0 0 0 127 0" result="hardAlpha"/>
<feOffset dy="6"/>
<feGaussianBlur stdDeviation="6"/>
<feComposite in2="hardAlpha" operator="out"/>
<feColorMatrix type="matrix" values="0 0 0 0 0 0 0 0 0 0 0 0 0 0 0 0 0 0 0.03 0"/>
<feBlend mode="normal" in2="BackgroundImageFix" result="effect1_dropShadow_139_2681"/>
<feBlend mode="normal" in="SourceGraphic" in2="effect1_dropShadow_139_2681" result="shape"/>
</filter>
<linearGradient id="paint0_linear_139_2681" x1="105.5" y1="9.49171e-06" x2="350" y2="250" gradientUnits="userSpaceOnUse">
<stop offset="0%" stop-color="#6366F1"/>
<stop offset="1" stop-color="#0EA5E9"/>
</linearGradient>
<clipPath id="clip0_139_2681">
<rect width="37" height="22" fill="white" transform="translate(156.5 122)"/>
</clipPath>
<clipPath id="clip1_139_2681">
<rect width="39" height="22" fill="white" transform="translate(226.5 122)"/>
</clipPath>
</defs>
</svg>
