<svg width="350" height="250" viewBox="0 0 350 250" fill="none" xmlns="http://www.w3.org/2000/svg">
<rect width="350" height="250" fill="url(#paint0_linear_139_1794)"/>
<g filter="url(#filter0_d_139_1794)">
<path d="M80 94C80 91.7909 81.7909 90 84 90H266C268.209 90 270 91.7909 270 94V122C270 124.209 268.209 126 266 126H84C81.7909 126 80 124.209 80 122V94Z" fill="white" fill-opacity="0.05" shape-rendering="crispEdges"/>
<path d="M96.446 112.636L96.581 109.639L94.0526 111.266L93.2784 109.916L95.9631 108.545L93.2784 107.175L94.0526 105.825L96.581 107.452L96.446 104.455H97.9872L97.8523 107.452L100.381 105.825L101.155 107.175L98.4702 108.545L101.155 109.916L100.381 111.266L97.8523 109.639L97.9872 112.636H96.446ZM106.976 112.636L107.111 109.639L104.582 111.266L103.808 109.916L106.493 108.545L103.808 107.175L104.582 105.825L107.111 107.452L106.976 104.455H108.517L108.382 107.452L110.91 105.825L111.685 107.175L109 108.545L111.685 109.916L110.91 111.266L108.382 109.639L108.517 112.636H106.976ZM117.505 112.636L117.64 109.639L115.112 111.266L114.338 109.916L117.022 108.545L114.338 107.175L115.112 105.825L117.64 107.452L117.505 104.455H119.047L118.912 107.452L121.44 105.825L122.214 107.175L119.53 108.545L122.214 109.916L121.44 111.266L118.912 109.639L119.047 112.636H117.505ZM128.035 112.636L128.17 109.639L125.642 111.266L124.867 109.916L127.552 108.545L124.867 107.175L125.642 105.825L128.17 107.452L128.035 104.455H129.576L129.441 107.452L131.97 105.825L132.744 107.175L130.059 108.545L132.744 109.916L131.97 111.266L129.441 109.639L129.576 112.636H128.035ZM138.565 112.636L138.7 109.639L136.171 111.266L135.397 109.916L138.082 108.545L135.397 107.175L136.171 105.825L138.7 107.452L138.565 104.455H140.106L139.971 107.452L142.499 105.825L143.274 107.175L140.589 108.545L143.274 109.916L142.499 111.266L139.971 109.639L140.106 112.636H138.565ZM149.094 112.636L149.229 109.639L146.701 111.266L145.927 109.916L148.612 108.545L145.927 107.175L146.701 105.825L149.229 107.452L149.094 104.455H150.636L150.501 107.452L153.029 105.825L153.803 107.175L151.119 108.545L153.803 109.916L153.029 111.266L150.501 109.639L150.636 112.636H149.094ZM159.624 112.636L159.759 109.639L157.231 111.266L156.457 109.916L159.141 108.545L156.457 107.175L157.231 105.825L159.759 107.452L159.624 104.455H161.165L161.03 107.452L163.559 105.825L164.333 107.175L161.648 108.545L164.333 109.916L163.559 111.266L161.03 109.639L161.165 112.636H159.624ZM170.154 112.636L170.289 109.639L167.76 111.266L166.986 109.916L169.671 108.545L166.986 107.175L167.76 105.825L170.289 107.452L170.154 104.455H171.695L171.56 107.452L174.088 105.825L174.863 107.175L172.178 108.545L174.863 109.916L174.088 111.266L171.56 109.639L171.695 112.636H170.154Z" fill="white"/>
<path d="M80.5 94C80.5 92.067 82.067 90.5 84 90.5H266C267.933 90.5 269.5 92.067 269.5 94V122C269.5 123.933 267.933 125.5 266 125.5H84C82.067 125.5 80.5 123.933 80.5 122V94Z" stroke="white" stroke-opacity="0.2" shape-rendering="crispEdges"/>
</g>
<path d="M80.5 144C80.5 142.067 82.067 140.5 84 140.5H92C93.933 140.5 95.5 142.067 95.5 144V152C95.5 153.933 93.933 155.5 92 155.5H84C82.067 155.5 80.5 153.933 80.5 152V144Z" stroke="white"/>
<path d="M119.625 145.42C119.564 144.883 119.314 144.466 118.875 144.17C118.436 143.871 117.883 143.722 117.216 143.722C116.739 143.722 116.326 143.797 115.977 143.949C115.629 144.097 115.358 144.301 115.165 144.562C114.975 144.82 114.881 145.114 114.881 145.443C114.881 145.72 114.945 145.958 115.074 146.159C115.206 146.36 115.379 146.528 115.591 146.665C115.807 146.797 116.038 146.909 116.284 147C116.53 147.087 116.767 147.159 116.994 147.216L118.131 147.511C118.502 147.602 118.883 147.725 119.273 147.881C119.663 148.036 120.025 148.241 120.358 148.494C120.691 148.748 120.96 149.062 121.165 149.438C121.373 149.812 121.477 150.261 121.477 150.784C121.477 151.443 121.307 152.028 120.966 152.54C120.629 153.051 120.138 153.455 119.494 153.75C118.854 154.045 118.08 154.193 117.17 154.193C116.299 154.193 115.545 154.055 114.909 153.778C114.273 153.502 113.775 153.11 113.415 152.602C113.055 152.091 112.856 151.485 112.818 150.784H114.58C114.614 151.205 114.75 151.555 114.989 151.835C115.231 152.112 115.54 152.318 115.915 152.455C116.294 152.587 116.708 152.653 117.159 152.653C117.655 152.653 118.097 152.576 118.483 152.42C118.873 152.261 119.18 152.042 119.403 151.761C119.627 151.477 119.739 151.146 119.739 150.767C119.739 150.422 119.64 150.14 119.443 149.92C119.25 149.701 118.987 149.519 118.653 149.375C118.324 149.231 117.951 149.104 117.534 148.994L116.159 148.619C115.227 148.366 114.489 147.992 113.943 147.5C113.402 147.008 113.131 146.356 113.131 145.545C113.131 144.875 113.313 144.29 113.676 143.79C114.04 143.29 114.532 142.902 115.153 142.625C115.775 142.345 116.475 142.205 117.256 142.205C118.044 142.205 118.739 142.343 119.341 142.619C119.947 142.896 120.424 143.277 120.773 143.761C121.121 144.242 121.303 144.795 121.318 145.42H119.625ZM125.218 148.818V154H123.519V142.364H125.195V146.693H125.303C125.508 146.223 125.82 145.85 126.241 145.574C126.661 145.297 127.21 145.159 127.888 145.159C128.487 145.159 129.009 145.282 129.456 145.528C129.907 145.775 130.256 146.142 130.502 146.631C130.752 147.116 130.877 147.722 130.877 148.449V154H129.178V148.653C129.178 148.013 129.013 147.517 128.684 147.165C128.354 146.809 127.896 146.631 127.309 146.631C126.907 146.631 126.547 146.716 126.229 146.886C125.915 147.057 125.667 147.307 125.485 147.636C125.307 147.962 125.218 148.356 125.218 148.818ZM136.9 154.176C136.082 154.176 135.368 153.989 134.758 153.614C134.148 153.239 133.675 152.714 133.338 152.04C133 151.366 132.832 150.578 132.832 149.676C132.832 148.771 133 147.979 133.338 147.301C133.675 146.623 134.148 146.097 134.758 145.722C135.368 145.347 136.082 145.159 136.9 145.159C137.718 145.159 138.432 145.347 139.042 145.722C139.652 146.097 140.125 146.623 140.463 147.301C140.8 147.979 140.968 148.771 140.968 149.676C140.968 150.578 140.8 151.366 140.463 152.04C140.125 152.714 139.652 153.239 139.042 153.614C138.432 153.989 137.718 154.176 136.9 154.176ZM136.906 152.75C137.436 152.75 137.875 152.61 138.224 152.33C138.572 152.049 138.83 151.676 138.997 151.21C139.167 150.744 139.252 150.231 139.252 149.67C139.252 149.114 139.167 148.602 138.997 148.136C138.83 147.667 138.572 147.29 138.224 147.006C137.875 146.722 137.436 146.58 136.906 146.58C136.372 146.58 135.928 146.722 135.576 147.006C135.228 147.29 134.968 147.667 134.798 148.136C134.631 148.602 134.548 149.114 134.548 149.67C134.548 150.231 134.631 150.744 134.798 151.21C134.968 151.676 135.228 152.049 135.576 152.33C135.928 152.61 136.372 152.75 136.906 152.75ZM144.571 154L142.003 145.273H143.758L145.469 151.682H145.554L147.27 145.273H149.026L150.73 151.653H150.815L152.514 145.273H154.27L151.707 154H149.974L148.202 147.699H148.071L146.298 154H144.571ZM160.276 157.273V145.273H161.936V146.688H162.078C162.176 146.506 162.318 146.295 162.504 146.057C162.689 145.818 162.947 145.61 163.276 145.432C163.606 145.25 164.042 145.159 164.583 145.159C165.288 145.159 165.917 145.337 166.47 145.693C167.023 146.049 167.456 146.562 167.771 147.233C168.089 147.903 168.248 148.71 168.248 149.653C168.248 150.597 168.091 151.405 167.776 152.08C167.462 152.75 167.03 153.267 166.481 153.631C165.932 153.991 165.305 154.17 164.6 154.17C164.07 154.17 163.636 154.081 163.299 153.903C162.966 153.725 162.704 153.517 162.515 153.278C162.326 153.04 162.18 152.828 162.078 152.642H161.975V157.273H160.276ZM161.941 149.636C161.941 150.25 162.03 150.788 162.208 151.25C162.386 151.712 162.644 152.074 162.981 152.335C163.318 152.593 163.731 152.722 164.22 152.722C164.727 152.722 165.151 152.587 165.492 152.318C165.833 152.045 166.091 151.676 166.265 151.21C166.443 150.744 166.532 150.22 166.532 149.636C166.532 149.061 166.445 148.544 166.271 148.085C166.1 147.627 165.843 147.265 165.498 147C165.157 146.735 164.731 146.602 164.22 146.602C163.727 146.602 163.311 146.729 162.97 146.983C162.632 147.237 162.377 147.591 162.203 148.045C162.028 148.5 161.941 149.03 161.941 149.636ZM172.771 154.193C172.218 154.193 171.718 154.091 171.271 153.886C170.824 153.678 170.47 153.377 170.209 152.983C169.951 152.589 169.822 152.106 169.822 151.534C169.822 151.042 169.917 150.636 170.106 150.318C170.296 150 170.551 149.748 170.873 149.562C171.195 149.377 171.555 149.237 171.953 149.142C172.351 149.047 172.756 148.975 173.169 148.926C173.692 148.866 174.116 148.816 174.442 148.778C174.767 148.737 175.004 148.67 175.152 148.58C175.3 148.489 175.373 148.341 175.373 148.136V148.097C175.373 147.6 175.233 147.216 174.953 146.943C174.676 146.67 174.264 146.534 173.714 146.534C173.142 146.534 172.692 146.661 172.362 146.915C172.036 147.165 171.811 147.443 171.686 147.75L170.089 147.386C170.279 146.856 170.555 146.428 170.919 146.102C171.286 145.773 171.709 145.534 172.186 145.386C172.663 145.235 173.165 145.159 173.692 145.159C174.04 145.159 174.409 145.201 174.8 145.284C175.194 145.364 175.561 145.511 175.902 145.727C176.247 145.943 176.529 146.252 176.748 146.653C176.968 147.051 177.078 147.568 177.078 148.205V154H175.419V152.807H175.351C175.241 153.027 175.076 153.242 174.856 153.455C174.637 153.667 174.355 153.843 174.01 153.983C173.665 154.123 173.252 154.193 172.771 154.193ZM173.141 152.83C173.61 152.83 174.012 152.737 174.345 152.551C174.682 152.366 174.938 152.123 175.112 151.824C175.29 151.521 175.379 151.197 175.379 150.852V149.727C175.319 149.788 175.201 149.845 175.027 149.898C174.856 149.947 174.661 149.991 174.442 150.028C174.222 150.062 174.008 150.095 173.8 150.125C173.591 150.152 173.417 150.174 173.277 150.193C172.947 150.235 172.646 150.305 172.373 150.403C172.105 150.502 171.889 150.644 171.726 150.83C171.567 151.011 171.487 151.254 171.487 151.557C171.487 151.977 171.642 152.295 171.953 152.511C172.264 152.723 172.659 152.83 173.141 152.83ZM185.961 147.403L184.421 147.676C184.356 147.479 184.254 147.292 184.114 147.114C183.978 146.936 183.792 146.79 183.557 146.676C183.322 146.562 183.029 146.506 182.676 146.506C182.195 146.506 181.794 146.614 181.472 146.83C181.15 147.042 180.989 147.316 180.989 147.653C180.989 147.945 181.097 148.18 181.313 148.358C181.529 148.536 181.877 148.682 182.358 148.795L183.745 149.114C184.548 149.299 185.146 149.585 185.54 149.972C185.934 150.358 186.131 150.86 186.131 151.477C186.131 152 185.98 152.466 185.676 152.875C185.377 153.28 184.959 153.598 184.421 153.83C183.887 154.061 183.267 154.176 182.563 154.176C181.586 154.176 180.788 153.968 180.171 153.551C179.553 153.131 179.175 152.534 179.034 151.761L180.676 151.511C180.779 151.939 180.989 152.263 181.307 152.483C181.625 152.699 182.04 152.807 182.551 152.807C183.108 152.807 183.553 152.691 183.887 152.46C184.22 152.225 184.387 151.939 184.387 151.602C184.387 151.33 184.284 151.1 184.08 150.915C183.879 150.729 183.57 150.589 183.154 150.494L181.676 150.17C180.862 149.985 180.26 149.689 179.87 149.284C179.483 148.879 179.29 148.366 179.29 147.744C179.29 147.229 179.434 146.778 179.722 146.392C180.01 146.006 180.408 145.705 180.915 145.489C181.423 145.269 182.004 145.159 182.659 145.159C183.603 145.159 184.345 145.364 184.887 145.773C185.428 146.178 185.786 146.722 185.961 147.403ZM194.619 147.403L193.079 147.676C193.015 147.479 192.912 147.292 192.772 147.114C192.636 146.936 192.45 146.79 192.215 146.676C191.98 146.562 191.687 146.506 191.335 146.506C190.854 146.506 190.452 146.614 190.13 146.83C189.808 147.042 189.647 147.316 189.647 147.653C189.647 147.945 189.755 148.18 189.971 148.358C190.187 148.536 190.535 148.682 191.016 148.795L192.403 149.114C193.206 149.299 193.804 149.585 194.198 149.972C194.592 150.358 194.789 150.86 194.789 151.477C194.789 152 194.638 152.466 194.335 152.875C194.035 153.28 193.617 153.598 193.079 153.83C192.545 154.061 191.926 154.176 191.221 154.176C190.244 154.176 189.446 153.968 188.829 153.551C188.211 153.131 187.833 152.534 187.693 151.761L189.335 151.511C189.437 151.939 189.647 152.263 189.965 152.483C190.283 152.699 190.698 152.807 191.21 152.807C191.766 152.807 192.211 152.691 192.545 152.46C192.878 152.225 193.045 151.939 193.045 151.602C193.045 151.33 192.943 151.1 192.738 150.915C192.537 150.729 192.229 150.589 191.812 150.494L190.335 150.17C189.52 149.985 188.918 149.689 188.528 149.284C188.141 148.879 187.948 148.366 187.948 147.744C187.948 147.229 188.092 146.778 188.38 146.392C188.668 146.006 189.066 145.705 189.573 145.489C190.081 145.269 190.662 145.159 191.318 145.159C192.261 145.159 193.003 145.364 193.545 145.773C194.086 146.178 194.444 146.722 194.619 147.403ZM198.629 154L196.061 145.273H197.817L199.527 151.682H199.612L201.328 145.273H203.084L204.788 151.653H204.873L206.572 145.273H208.328L205.765 154H204.033L202.26 147.699H202.129L200.356 154H198.629ZM213.431 154.176C212.613 154.176 211.898 153.989 211.289 153.614C210.679 153.239 210.205 152.714 209.868 152.04C209.531 151.366 209.363 150.578 209.363 149.676C209.363 148.771 209.531 147.979 209.868 147.301C210.205 146.623 210.679 146.097 211.289 145.722C211.898 145.347 212.613 145.159 213.431 145.159C214.249 145.159 214.963 145.347 215.573 145.722C216.183 146.097 216.656 146.623 216.993 147.301C217.33 147.979 217.499 148.771 217.499 149.676C217.499 150.578 217.33 151.366 216.993 152.04C216.656 152.714 216.183 153.239 215.573 153.614C214.963 153.989 214.249 154.176 213.431 154.176ZM213.436 152.75C213.967 152.75 214.406 152.61 214.755 152.33C215.103 152.049 215.361 151.676 215.527 151.21C215.698 150.744 215.783 150.231 215.783 149.67C215.783 149.114 215.698 148.602 215.527 148.136C215.361 147.667 215.103 147.29 214.755 147.006C214.406 146.722 213.967 146.58 213.436 146.58C212.902 146.58 212.459 146.722 212.107 147.006C211.758 147.29 211.499 147.667 211.328 148.136C211.162 148.602 211.078 149.114 211.078 149.67C211.078 150.231 211.162 150.744 211.328 151.21C211.499 151.676 211.758 152.049 212.107 152.33C212.459 152.61 212.902 152.75 213.436 152.75ZM219.475 154V145.273H221.117V146.659H221.208C221.367 146.189 221.648 145.82 222.049 145.551C222.454 145.278 222.913 145.142 223.424 145.142C223.53 145.142 223.655 145.146 223.799 145.153C223.947 145.161 224.062 145.17 224.146 145.182V146.807C224.077 146.788 223.956 146.767 223.782 146.744C223.608 146.718 223.434 146.705 223.259 146.705C222.858 146.705 222.5 146.79 222.185 146.96C221.875 147.127 221.629 147.36 221.447 147.659C221.265 147.955 221.174 148.292 221.174 148.67V154H219.475ZM228.65 154.17C227.946 154.17 227.317 153.991 226.764 153.631C226.215 153.267 225.783 152.75 225.469 152.08C225.158 151.405 225.003 150.597 225.003 149.653C225.003 148.71 225.16 147.903 225.474 147.233C225.792 146.562 226.228 146.049 226.781 145.693C227.334 145.337 227.961 145.159 228.662 145.159C229.203 145.159 229.639 145.25 229.969 145.432C230.302 145.61 230.559 145.818 230.741 146.057C230.927 146.295 231.071 146.506 231.173 146.688H231.275V142.364H232.974V154H231.315V152.642H231.173C231.071 152.828 230.923 153.04 230.73 153.278C230.54 153.517 230.279 153.725 229.946 153.903C229.612 154.081 229.181 154.17 228.65 154.17ZM229.025 152.722C229.514 152.722 229.927 152.593 230.264 152.335C230.605 152.074 230.862 151.712 231.037 151.25C231.215 150.788 231.304 150.25 231.304 149.636C231.304 149.03 231.217 148.5 231.042 148.045C230.868 147.591 230.612 147.237 230.275 146.983C229.938 146.729 229.522 146.602 229.025 146.602C228.514 146.602 228.088 146.735 227.747 147C227.406 147.265 227.148 147.627 226.974 148.085C226.804 148.544 226.719 149.061 226.719 149.636C226.719 150.22 226.806 150.744 226.98 151.21C227.154 151.676 227.412 152.045 227.753 152.318C228.097 152.587 228.522 152.722 229.025 152.722Z" fill="white"/>
<defs>
<filter id="filter0_d_139_1794" x="68" y="84" width="214" height="60" filterUnits="userSpaceOnUse" color-interpolation-filters="sRGB">
<feFlood flood-opacity="0" result="BackgroundImageFix"/>
<feColorMatrix in="SourceAlpha" type="matrix" values="0 0 0 0 0 0 0 0 0 0 0 0 0 0 0 0 0 0 127 0" result="hardAlpha"/>
<feOffset dy="6"/>
<feGaussianBlur stdDeviation="6"/>
<feComposite in2="hardAlpha" operator="out"/>
<feColorMatrix type="matrix" values="0 0 0 0 0 0 0 0 0 0 0 0 0 0 0 0 0 0 0.03 0"/>
<feBlend mode="normal" in2="BackgroundImageFix" result="effect1_dropShadow_139_1794"/>
<feBlend mode="normal" in="SourceGraphic" in2="effect1_dropShadow_139_1794" result="shape"/>
</filter>
<linearGradient id="paint0_linear_139_1794" x1="105.5" y1="9.49171e-06" x2="350" y2="250" gradientUnits="userSpaceOnUse">
<stop offset="0%" stop-color="#6366F1"/>
<stop offset="1" stop-color="#0EA5E9"/>
</linearGradient>
</defs>
</svg>
