<svg width="350" height="250" viewBox="0 0 350 250" fill="none" xmlns="http://www.w3.org/2000/svg">
<rect width="350" height="250" fill="#6366F1"/>
<g filter="url(#filter0_d_125_235)">
<path d="M130 102C130 98.6863 132.686 96 136 96H213C216.314 96 219 98.6863 219 102V113C219 116.314 216.314 119 213 119H136C132.686 119 130 116.314 130 113V102Z" fill="white" fill-opacity="0.1" shape-rendering="crispEdges"/>
<path d="M145 107.5C145 106.672 145.672 106 146.5 106H202.5C203.328 106 204 106.672 204 107.5C204 108.328 203.328 109 202.5 109H146.5C145.672 109 145 108.328 145 107.5Z" fill="white"/>
<path d="M130.5 102C130.5 98.9624 132.962 96.5 136 96.5H213C216.038 96.5 218.5 98.9624 218.5 102V113C218.5 116.038 216.038 118.5 213 118.5H136C132.962 118.5 130.5 116.038 130.5 113V102Z" stroke="white" stroke-opacity="0.4" shape-rendering="crispEdges"/>
</g>
<g filter="url(#filter1_d_125_235)">
<path d="M173.806 125.643L167 119H181.741C181.978 119 182.083 119.276 181.925 119.426L175.54 125.643C175.067 126.119 174.279 126.119 173.806 125.643Z" fill="white" fill-opacity="0.4" shape-rendering="crispEdges"/>
</g>
<circle cx="174.5" cy="144" r="10" fill="white" fill-opacity="0.3"/>
<path d="M171.069 141.232C171.067 141.273 171.074 141.313 171.088 141.351C171.103 141.389 171.125 141.423 171.153 141.452C171.181 141.481 171.215 141.504 171.252 141.519C171.29 141.534 171.33 141.542 171.37 141.541H172.402C172.574 141.541 172.712 141.4 172.734 141.229C172.847 140.409 173.409 139.811 174.412 139.811C175.269 139.811 176.054 140.24 176.054 141.271C176.054 142.065 175.587 142.43 174.848 142.985C174.007 143.596 173.34 144.31 173.388 145.469L173.392 145.74C173.393 145.822 173.426 145.9 173.485 145.958C173.543 146.015 173.622 146.048 173.704 146.047H174.718C174.801 146.047 174.88 146.015 174.939 145.956C174.997 145.897 175.03 145.818 175.03 145.735V145.604C175.03 144.706 175.372 144.445 176.293 143.746C177.054 143.168 177.848 142.525 177.848 141.176C177.848 139.288 176.253 138.375 174.507 138.375C172.923 138.375 171.188 139.112 171.069 141.232ZM173.015 148.436C173.015 149.102 173.547 149.595 174.278 149.595C175.039 149.595 175.563 149.102 175.563 148.436C175.563 147.746 175.038 147.261 174.277 147.261C173.547 147.261 173.015 147.746 173.015 148.436Z" fill="white"/>
<defs>
<filter id="filter0_d_125_235" x="118" y="90" width="113" height="47" filterUnits="userSpaceOnUse" color-interpolation-filters="sRGB">
<feFlood flood-opacity="0" result="BackgroundImageFix"/>
<feColorMatrix in="SourceAlpha" type="matrix" values="0 0 0 0 0 0 0 0 0 0 0 0 0 0 0 0 0 0 127 0" result="hardAlpha"/>
<feOffset dy="6"/>
<feGaussianBlur stdDeviation="6"/>
<feComposite in2="hardAlpha" operator="out"/>
<feColorMatrix type="matrix" values="0 0 0 0 0 0 0 0 0 0 0 0 0 0 0 0 0 0 0.03 0"/>
<feBlend mode="normal" in2="BackgroundImageFix" result="effect1_dropShadow_125_235"/>
<feBlend mode="normal" in="SourceGraphic" in2="effect1_dropShadow_125_235" result="shape"/>
</filter>
<filter id="filter1_d_125_235" x="155" y="113" width="39" height="31" filterUnits="userSpaceOnUse" color-interpolation-filters="sRGB">
<feFlood flood-opacity="0" result="BackgroundImageFix"/>
<feColorMatrix in="SourceAlpha" type="matrix" values="0 0 0 0 0 0 0 0 0 0 0 0 0 0 0 0 0 0 127 0" result="hardAlpha"/>
<feOffset dy="6"/>
<feGaussianBlur stdDeviation="6"/>
<feComposite in2="hardAlpha" operator="out"/>
<feColorMatrix type="matrix" values="0 0 0 0 0 0 0 0 0 0 0 0 0 0 0 0 0 0 0.03 0"/>
<feBlend mode="normal" in2="BackgroundImageFix" result="effect1_dropShadow_125_235"/>
<feBlend mode="normal" in="SourceGraphic" in2="effect1_dropShadow_125_235" result="shape"/>
</filter>
</defs>
</svg>
