<svg width="350" height="250" viewBox="0 0 350 250" fill="none" xmlns="http://www.w3.org/2000/svg">
<rect width="350" height="250" fill="url(#paint0_linear_3558_1957)"/>
<path d="M97.9167 63H106.083" stroke="white" stroke-linecap="round" stroke-linejoin="round"/>
<path d="M115.667 66.3333H122.333C122.554 66.3333 122.766 66.2455 122.923 66.0893C123.079 65.933 123.167 65.721 123.167 65.5V61.3333C123.167 61.1123 123.079 60.9004 122.923 60.7441C122.766 60.5878 122.554 60.5 122.333 60.5H119.029C118.892 60.4993 118.757 60.4647 118.636 60.3993C118.516 60.3338 118.413 60.2396 118.337 60.125L117.996 59.625C117.92 59.5104 117.818 59.4162 117.697 59.3507C117.576 59.2853 117.441 59.2507 117.304 59.25H115.667C115.446 59.25 115.234 59.3378 115.077 59.4941C114.921 59.6504 114.833 59.8623 114.833 60.0833V65.5C114.833 65.9583 115.208 66.3333 115.667 66.3333Z" stroke="white" stroke-linecap="round" stroke-linejoin="round"/>
<rect x="131" y="60" width="125" height="6" rx="3" fill="white" fill-opacity="0.3"/>
<path d="M114.917 81H123.083" stroke="white" stroke-linecap="round" stroke-linejoin="round"/>
<path d="M132.667 84.3333H139.333C139.554 84.3333 139.766 84.2455 139.923 84.0893C140.079 83.933 140.167 83.721 140.167 83.5V79.3333C140.167 79.1123 140.079 78.9004 139.923 78.7441C139.766 78.5878 139.554 78.5 139.333 78.5H136.029C135.892 78.4993 135.757 78.4647 135.636 78.3993C135.516 78.3338 135.413 78.2396 135.337 78.125L134.996 77.625C134.92 77.5104 134.818 77.4162 134.697 77.3507C134.576 77.2853 134.441 77.2507 134.304 77.25H132.667C132.446 77.25 132.234 77.3378 132.077 77.4941C131.921 77.6504 131.833 77.8623 131.833 78.0833V83.5C131.833 83.9583 132.208 84.3333 132.667 84.3333Z" stroke="white" stroke-linecap="round" stroke-linejoin="round"/>
<rect x="148" y="78" width="94" height="6" rx="3" fill="white" fill-opacity="0.3"/>
<path d="M131.917 99H140.083" stroke="white" stroke-linecap="round" stroke-linejoin="round"/>
<rect width="113" height="18" transform="translate(143 103)" fill="white" fill-opacity="0.2"/>
<path d="M149.667 115.333H156.333C156.554 115.333 156.766 115.246 156.923 115.089C157.079 114.933 157.167 114.721 157.167 114.5V110.333C157.167 110.112 157.079 109.9 156.923 109.744C156.766 109.588 156.554 109.5 156.333 109.5H153.029C152.892 109.499 152.757 109.465 152.636 109.399C152.516 109.334 152.413 109.24 152.337 109.125L151.996 108.625C151.92 108.51 151.818 108.416 151.697 108.351C151.576 108.285 151.441 108.251 151.304 108.25H149.667C149.446 108.25 149.234 108.338 149.077 108.494C148.921 108.65 148.833 108.862 148.833 109.083V114.5C148.833 114.958 149.208 115.333 149.667 115.333Z" stroke="white" stroke-linecap="round" stroke-linejoin="round"/>
<rect x="165" y="109" width="35" height="6" rx="3" fill="white" fill-opacity="0.3"/>
<rect width="113" height="18" transform="translate(153 90)" fill="#2563EB"/>
<path d="M164.042 94.8333H160.5C160.279 94.8333 160.067 94.9211 159.911 95.0774C159.754 95.2337 159.667 95.4456 159.667 95.6667V102.333C159.667 102.554 159.754 102.766 159.911 102.923C160.067 103.079 160.279 103.167 160.5 103.167H165.5C165.721 103.167 165.933 103.079 166.089 102.923C166.246 102.766 166.333 102.554 166.333 102.333V97.125L164.042 94.8333Z" stroke="white" stroke-linecap="round" stroke-linejoin="round"/>
<path d="M163.833 94.8333V97.3333H166.333" stroke="white" stroke-linecap="round" stroke-linejoin="round"/>
<rect x="175" y="96" width="68" height="6" rx="3" fill="white" fill-opacity="0.3"/>
<g filter="url(#filter0_dd_3558_1957)">
<path d="M172.606 112.265L172.107 102.99C172.063 102.168 172.974 101.648 173.659 102.103L181.378 107.235C182.156 107.752 181.864 108.958 180.936 109.062L177.32 109.466C177.047 109.496 176.799 109.638 176.633 109.857L174.402 112.814C173.841 113.558 172.656 113.196 172.606 112.265Z" fill="#4B5563"/>
<path d="M172.606 112.265L172.107 102.99C172.063 102.168 172.974 101.648 173.659 102.103L181.378 107.235C182.156 107.752 181.864 108.958 180.936 109.062L177.32 109.466C177.047 109.496 176.799 109.638 176.633 109.857L174.402 112.814C173.841 113.558 172.656 113.196 172.606 112.265Z" stroke="white"/>
</g>
<rect width="113" height="18" transform="translate(143 124)" fill="white" fill-opacity="0.2"/>
<path d="M154.042 128.833H150.5C150.279 128.833 150.067 128.921 149.911 129.077C149.754 129.234 149.667 129.446 149.667 129.667V136.333C149.667 136.554 149.754 136.766 149.911 136.923C150.067 137.079 150.279 137.167 150.5 137.167H155.5C155.721 137.167 155.933 137.079 156.089 136.923C156.246 136.766 156.333 136.554 156.333 136.333V131.125L154.042 128.833Z" stroke="white" stroke-linecap="round" stroke-linejoin="round"/>
<path d="M153.833 128.833V131.333H156.333" stroke="white" stroke-linecap="round" stroke-linejoin="round"/>
<rect x="165" y="130" width="82" height="6" rx="3" fill="white" fill-opacity="0.3"/>
<path d="M131.917 151H140.083" stroke="white" stroke-linecap="round" stroke-linejoin="round"/>
<path d="M136 146.917V155.083" stroke="white" stroke-linecap="round" stroke-linejoin="round"/>
<path d="M149.667 154.333H156.333C156.554 154.333 156.766 154.246 156.923 154.089C157.079 153.933 157.167 153.721 157.167 153.5V149.333C157.167 149.112 157.079 148.9 156.923 148.744C156.766 148.588 156.554 148.5 156.333 148.5H153.029C152.892 148.499 152.757 148.465 152.636 148.399C152.516 148.334 152.413 148.24 152.337 148.125L151.996 147.625C151.92 147.51 151.818 147.416 151.697 147.351C151.576 147.285 151.441 147.251 151.304 147.25H149.667C149.446 147.25 149.234 147.338 149.077 147.494C148.921 147.65 148.833 147.862 148.833 148.083V153.5C148.833 153.958 149.208 154.333 149.667 154.333Z" stroke="white" stroke-linecap="round" stroke-linejoin="round"/>
<rect x="165" y="148" width="35" height="6" rx="3" fill="white" fill-opacity="0.3"/>
<path d="M114.917 169H123.083" stroke="white" stroke-linecap="round" stroke-linejoin="round"/>
<path d="M119 164.917V173.083" stroke="white" stroke-linecap="round" stroke-linejoin="round"/>
<path d="M132.667 172.333H139.333C139.554 172.333 139.766 172.246 139.923 172.089C140.079 171.933 140.167 171.721 140.167 171.5V167.333C140.167 167.112 140.079 166.9 139.923 166.744C139.766 166.588 139.554 166.5 139.333 166.5H136.029C135.892 166.499 135.757 166.465 135.636 166.399C135.516 166.334 135.413 166.24 135.337 166.125L134.996 165.625C134.92 165.51 134.818 165.416 134.697 165.351C134.576 165.285 134.441 165.251 134.304 165.25H132.667C132.446 165.25 132.234 165.338 132.077 165.494C131.921 165.65 131.833 165.862 131.833 166.083V171.5C131.833 171.958 132.208 172.333 132.667 172.333Z" stroke="white" stroke-linecap="round" stroke-linejoin="round"/>
<rect x="148" y="166" width="94" height="6" rx="3" fill="white" fill-opacity="0.3"/>
<path d="M100.917 187H109.083" stroke="white" stroke-linecap="round" stroke-linejoin="round"/>
<path d="M105 182.917V191.083" stroke="white" stroke-linecap="round" stroke-linejoin="round"/>
<path d="M118.667 190.333H125.333C125.554 190.333 125.766 190.246 125.923 190.089C126.079 189.933 126.167 189.721 126.167 189.5V185.333C126.167 185.112 126.079 184.9 125.923 184.744C125.766 184.588 125.554 184.5 125.333 184.5H122.029C121.892 184.499 121.757 184.465 121.636 184.399C121.516 184.334 121.413 184.24 121.337 184.125L120.996 183.625C120.92 183.51 120.818 183.416 120.697 183.351C120.576 183.285 120.441 183.251 120.304 183.25H118.667C118.446 183.25 118.234 183.338 118.077 183.494C117.921 183.65 117.833 183.862 117.833 184.083V189.5C117.833 189.958 118.208 190.333 118.667 190.333Z" stroke="white" stroke-linecap="round" stroke-linejoin="round"/>
<rect x="134" y="184" width="94" height="6" rx="3" fill="white" fill-opacity="0.3"/>
<defs>
<filter id="filter0_dd_3558_1957" x="169.605" y="100.433" width="14.7208" height="16.2806" filterUnits="userSpaceOnUse" color-interpolation-filters="sRGB">
<feFlood flood-opacity="0" result="BackgroundImageFix"/>
<feColorMatrix in="SourceAlpha" type="matrix" values="0 0 0 0 0 0 0 0 0 0 0 0 0 0 0 0 0 0 127 0" result="hardAlpha"/>
<feOffset dy="1"/>
<feGaussianBlur stdDeviation="0.5"/>
<feComposite in2="hardAlpha" operator="out"/>
<feColorMatrix type="matrix" values="0 0 0 0 0 0 0 0 0 0 0 0 0 0 0 0 0 0 0.06 0"/>
<feBlend mode="normal" in2="BackgroundImageFix" result="effect1_dropShadow_3558_1957"/>
<feColorMatrix in="SourceAlpha" type="matrix" values="0 0 0 0 0 0 0 0 0 0 0 0 0 0 0 0 0 0 127 0" result="hardAlpha"/>
<feOffset dy="1"/>
<feGaussianBlur stdDeviation="1"/>
<feComposite in2="hardAlpha" operator="out"/>
<feColorMatrix type="matrix" values="0 0 0 0 0 0 0 0 0 0 0 0 0 0 0 0 0 0 0.1 0"/>
<feBlend mode="normal" in2="effect1_dropShadow_3558_1957" result="effect2_dropShadow_3558_1957"/>
<feBlend mode="normal" in="SourceGraphic" in2="effect2_dropShadow_3558_1957" result="shape"/>
</filter>
<linearGradient id="paint0_linear_3558_1957" x1="52" y1="26" x2="344" y2="250" gradientUnits="userSpaceOnUse">
<stop stop-color="#A855F7"/>
<stop offset="1" stop-color="#3B82F6"/>
</linearGradient>
</defs>
</svg>
