<svg width="208" height="158" viewBox="0 0 208 158" fill="none" xmlns="http://www.w3.org/2000/svg">
<path d="M27 153L27 5" stroke="url(#paint0_linear_127_616)"/>
<path d="M32 158L32 -5.24521e-06" stroke="url(#paint1_linear_127_616)"/>
<path d="M176 0L176 158" stroke="url(#paint2_linear_127_616)"/>
<path d="M181 5L181 153" stroke="url(#paint3_linear_127_616)"/>
<path d="M10 38H198" stroke="url(#paint4_linear_127_616)"/>
<path d="M5 43H203" stroke="url(#paint5_linear_127_616)"/>
<rect x="32" y="71" width="16" height="16" rx="8" fill="white" fill-opacity="0.1"/>
<path fill-rule="evenodd" clip-rule="evenodd" d="M41.9161 76.0678C41.8895 76.0463 41.858 76.0293 41.8233 76.0176C41.7886 76.006 41.7514 76 41.7138 76C41.6763 76 41.6391 76.006 41.6044 76.0176C41.5697 76.0293 41.5381 76.0463 41.5116 76.0678L38.0839 78.8367C38.0573 78.8581 38.0362 78.8836 38.0218 78.9116C38.0074 78.9397 38 78.9697 38 79.0001C38 79.0304 38.0074 79.0605 38.0218 79.0885C38.0362 79.1165 38.0573 79.142 38.0839 79.1634L41.5116 81.9323C41.5652 81.9757 41.638 82 41.7138 82C41.7897 82 41.8624 81.9757 41.9161 81.9323C41.9697 81.889 41.9999 81.8302 41.9999 81.769C41.9999 81.7077 41.9697 81.6489 41.9161 81.6056L38.69 79.0001L41.9161 76.3945C41.9427 76.3731 41.9638 76.3476 41.9782 76.3196C41.9926 76.2916 42 76.2615 42 76.2312C42 76.2008 41.9926 76.1708 41.9782 76.1427C41.9638 76.1147 41.9427 76.0892 41.9161 76.0678Z" fill="white"/>
<rect x="160" y="71" width="16" height="16" rx="8" fill="white" fill-opacity="0.1"/>
<path fill-rule="evenodd" clip-rule="evenodd" d="M166.084 76.0678C166.11 76.0463 166.142 76.0293 166.177 76.0176C166.211 76.006 166.249 76 166.286 76C166.324 76 166.361 76.006 166.396 76.0176C166.43 76.0293 166.462 76.0463 166.488 76.0678L169.916 78.8367C169.943 78.8581 169.964 78.8836 169.978 78.9116C169.993 78.9397 170 78.9697 170 79.0001C170 79.0304 169.993 79.0605 169.978 79.0885C169.964 79.1165 169.943 79.142 169.916 79.1634L166.488 81.9323C166.435 81.9757 166.362 82 166.286 82C166.21 82 166.138 81.9757 166.084 81.9323C166.03 81.889 166 81.8302 166 81.769C166 81.7077 166.03 81.6489 166.084 81.6056L169.31 79.0001L166.084 76.3945C166.057 76.3731 166.036 76.3476 166.022 76.3196C166.007 76.2916 166 76.2615 166 76.2312C166 76.2008 166.007 76.1708 166.022 76.1427C166.036 76.1147 166.057 76.0892 166.084 76.0678Z" fill="white"/>
<g clip-path="url(#clip0_127_616)">
<path d="M-3 49C-3 45.6863 -0.313708 43 3 43H59C62.3137 43 65 45.6863 65 49V96C65 99.3137 62.3137 102 59 102H3C-0.313707 102 -3 99.3137 -3 96V49Z" fill="url(#paint6_linear_127_616)"/>
<rect x="12.75" y="58.75" width="36.5" height="19.5" rx="2.25" stroke="white" stroke-opacity="0.3" stroke-width="1.5"/>
<path d="M36.9315 72.1268L33.8111 68.1108C33.7351 68.0037 33.6151 67.9378 33.4831 67.9378H33.307C33.175 67.9419 33.051 68.0037 32.975 68.1108L31.9749 69.4041L29.9026 66.422C29.8226 66.3066 29.6906 66.2407 29.5546 66.249H29.3865C29.2545 66.249 29.1305 66.3149 29.0545 66.422L25.066 72.1268C24.978 72.2668 24.978 72.4439 25.066 72.584L25.182 72.7858C25.254 72.9176 25.39 73 25.5381 73H36.4674C36.6154 73 36.7515 72.9176 36.8235 72.7858L36.9395 72.584C37.0195 72.4439 37.0235 72.2668 36.9315 72.1268ZM26.5902 71.8755L29.4746 67.7524L30.7187 71.8755H26.5902ZM34.2792 66.249C34.8832 66.249 35.3713 65.7465 35.3713 65.1245C35.3713 64.5025 34.8832 64 34.2792 64C33.6751 64 33.187 64.5025 33.187 65.1245C33.187 65.7465 33.6751 66.249 34.2792 66.249Z" fill="white" fill-opacity="0.3"/>
<rect x="12" y="84" width="28" height="3" rx="1.5" fill="white" fill-opacity="0.3"/>
<path d="M70 49C70 45.6863 72.6863 43 76 43H132C135.314 43 138 45.6863 138 49V96C138 99.3137 135.314 102 132 102H76C72.6863 102 70 99.3137 70 96V49Z" fill="url(#paint7_linear_127_616)"/>
<rect x="85.75" y="58.75" width="36.5" height="19.5" rx="2.25" stroke="white" stroke-width="1.5"/>
<path d="M109.931 72.1268L106.811 68.1108C106.735 68.0037 106.615 67.9378 106.483 67.9378H106.307C106.175 67.9419 106.051 68.0037 105.975 68.1108L104.975 69.4041L102.903 66.422C102.823 66.3066 102.691 66.2407 102.555 66.249H102.387C102.255 66.249 102.131 66.3149 102.055 66.422L98.066 72.1268C97.978 72.2668 97.978 72.4439 98.066 72.584L98.182 72.7858C98.254 72.9176 98.39 73 98.5381 73H109.467C109.615 73 109.751 72.9176 109.823 72.7858L109.939 72.584C110.019 72.4439 110.023 72.2668 109.931 72.1268ZM99.5902 71.8755L102.475 67.7524L103.719 71.8755H99.5902ZM107.279 66.249C107.883 66.249 108.371 65.7465 108.371 65.1245C108.371 64.5025 107.883 64 107.279 64C106.675 64 106.187 64.5025 106.187 65.1245C106.187 65.7465 106.675 66.249 107.279 66.249Z" fill="white"/>
<rect x="85" y="84" width="28" height="3" rx="1.5" fill="white"/>
<path d="M143 49C143 45.6863 145.686 43 149 43H205C208.314 43 211 45.6863 211 49V96C211 99.3137 208.314 102 205 102H149C145.686 102 143 99.3137 143 96V49Z" fill="url(#paint8_linear_127_616)"/>
<rect x="158.75" y="58.75" width="36.5" height="19.5" rx="2.25" stroke="white" stroke-opacity="0.3" stroke-width="1.5"/>
<path d="M182.931 72.1268L179.811 68.1108C179.735 68.0037 179.615 67.9378 179.483 67.9378H179.307C179.175 67.9419 179.051 68.0037 178.975 68.1108L177.975 69.4041L175.903 66.422C175.823 66.3066 175.691 66.2407 175.555 66.249H175.387C175.255 66.249 175.131 66.3149 175.055 66.422L171.066 72.1268C170.978 72.2668 170.978 72.4439 171.066 72.584L171.182 72.7858C171.254 72.9176 171.39 73 171.538 73H182.467C182.615 73 182.751 72.9176 182.823 72.7858L182.939 72.584C183.019 72.4439 183.023 72.2668 182.931 72.1268ZM172.59 71.8755L175.475 67.7524L176.719 71.8755H172.59ZM180.279 66.249C180.883 66.249 181.371 65.7465 181.371 65.1245C181.371 64.5025 180.883 64 180.279 64C179.675 64 179.187 64.5025 179.187 65.1245C179.187 65.7465 179.675 66.249 180.279 66.249Z" fill="white" fill-opacity="0.3"/>
<rect x="158" y="84" width="28" height="3" rx="1.5" fill="white" fill-opacity="0.3"/>
</g>
<path d="M69 113.5C69 112.672 69.6716 112 70.5 112H87.5C88.3284 112 89 112.672 89 113.5C89 114.328 88.3284 115 87.5 115H70.5C69.6716 115 69 114.328 69 113.5Z" fill="#E5E7EB"/>
<path d="M94 113.5C94 112.672 94.6716 112 95.5 112H112.5C113.328 112 114 112.672 114 113.5C114 114.328 113.328 115 112.5 115H95.5C94.6716 115 94 114.328 94 113.5Z" fill="url(#paint9_linear_127_616)"/>
<path d="M119 113.5C119 112.672 119.672 112 120.5 112H137.5C138.328 112 139 112.672 139 113.5C139 114.328 138.328 115 137.5 115H120.5C119.672 115 119 114.328 119 113.5Z" fill="#E5E7EB"/>
<path d="M5 115H203" stroke="url(#paint10_linear_127_616)"/>
<path d="M10 120H198" stroke="url(#paint11_linear_127_616)"/>
<defs>
<linearGradient id="paint0_linear_127_616" x1="27.5" y1="153" x2="27.5" y2="5" gradientUnits="userSpaceOnUse">
<stop offset="0%" stop-color="#E2E8F0" stop-opacity="0"/>
<stop offset="0.185417" stop-color="#E2E8F0"/>
<stop offset="0.826042" stop-color="#E2E8F0"/>
<stop offset="1" stop-color="#E2E8F0" stop-opacity="0"/>
</linearGradient>
<linearGradient id="paint1_linear_127_616" x1="32.5" y1="158" x2="32.5" y2="-2.74062e-08" gradientUnits="userSpaceOnUse">
<stop offset="0%" stop-color="#E2E8F0" stop-opacity="0"/>
<stop offset="0.185417" stop-color="#E2E8F0"/>
<stop offset="0.826042" stop-color="#E2E8F0"/>
<stop offset="1" stop-color="#E2E8F0" stop-opacity="0"/>
</linearGradient>
<linearGradient id="paint2_linear_127_616" x1="176.5" y1="2.74063e-08" x2="176.5" y2="158" gradientUnits="userSpaceOnUse">
<stop offset="0%" stop-color="#E2E8F0" stop-opacity="0"/>
<stop offset="0.185417" stop-color="#E2E8F0"/>
<stop offset="0.826042" stop-color="#E2E8F0"/>
<stop offset="1" stop-color="#E2E8F0" stop-opacity="0"/>
</linearGradient>
<linearGradient id="paint3_linear_127_616" x1="181.5" y1="5" x2="181.5" y2="153" gradientUnits="userSpaceOnUse">
<stop offset="0%" stop-color="#E2E8F0" stop-opacity="0"/>
<stop offset="0.185417" stop-color="#E2E8F0"/>
<stop offset="0.826042" stop-color="#E2E8F0"/>
<stop offset="1" stop-color="#E2E8F0" stop-opacity="0"/>
</linearGradient>
<linearGradient id="paint4_linear_127_616" x1="199.899" y1="38.5" x2="10" y2="38.4999" gradientUnits="userSpaceOnUse">
<stop offset="0%" stop-color="#E2E8F0" stop-opacity="0"/>
<stop offset="0.185417" stop-color="#E2E8F0"/>
<stop offset="0.826042" stop-color="#E2E8F0"/>
<stop offset="1" stop-color="#E2E8F0" stop-opacity="0"/>
</linearGradient>
<linearGradient id="paint5_linear_127_616" x1="205" y1="43.5" x2="5" y2="43.4999" gradientUnits="userSpaceOnUse">
<stop offset="0%" stop-color="#E2E8F0" stop-opacity="0"/>
<stop offset="0.185417" stop-color="#E2E8F0"/>
<stop offset="0.826042" stop-color="#E2E8F0"/>
<stop offset="1" stop-color="#E2E8F0" stop-opacity="0"/>
</linearGradient>
<linearGradient id="paint6_linear_127_616" x1="7.10286" y1="49.136" x2="71.5257" y2="89.821" gradientUnits="userSpaceOnUse">
<stop offset="0%" stop-color="#A855F7"/>
<stop offset="1" stop-color="#3B82F6"/>
</linearGradient>
<linearGradient id="paint7_linear_127_616" x1="80.1029" y1="49.136" x2="144.526" y2="89.821" gradientUnits="userSpaceOnUse">
<stop offset="0%" stop-color="#A855F7"/>
<stop offset="1" stop-color="#3B82F6"/>
</linearGradient>
<linearGradient id="paint8_linear_127_616" x1="153.103" y1="49.136" x2="217.526" y2="89.821" gradientUnits="userSpaceOnUse">
<stop offset="0%" stop-color="#A855F7"/>
<stop offset="1" stop-color="#3B82F6"/>
</linearGradient>
<linearGradient id="paint9_linear_127_616" x1="96.9714" y1="112.312" x2="98.8192" y2="119.062" gradientUnits="userSpaceOnUse">
<stop offset="0%" stop-color="#A855F7"/>
<stop offset="1" stop-color="#3B82F6"/>
</linearGradient>
<linearGradient id="paint10_linear_127_616" x1="205" y1="115.5" x2="5" y2="115.5" gradientUnits="userSpaceOnUse">
<stop offset="0%" stop-color="#E2E8F0" stop-opacity="0"/>
<stop offset="0.185417" stop-color="#E2E8F0"/>
<stop offset="0.826042" stop-color="#E2E8F0"/>
<stop offset="1" stop-color="#E2E8F0" stop-opacity="0"/>
</linearGradient>
<linearGradient id="paint11_linear_127_616" x1="199.899" y1="120.5" x2="10" y2="120.5" gradientUnits="userSpaceOnUse">
<stop offset="0%" stop-color="#E2E8F0" stop-opacity="0"/>
<stop offset="0.185417" stop-color="#E2E8F0"/>
<stop offset="0.826042" stop-color="#E2E8F0"/>
<stop offset="1" stop-color="#E2E8F0" stop-opacity="0"/>
</linearGradient>
<clipPath id="clip0_127_616">
<rect width="144" height="59" fill="white" transform="translate(32 43)"/>
</clipPath>
</defs>
</svg>
