<svg width="208" height="158" viewBox="0 0 208 158" fill="none" xmlns="http://www.w3.org/2000/svg">
<path d="M27 153L27 5" stroke="url(#paint0_linear_2640_1642)"/>
<path d="M32 158L32 -5.24521e-06" stroke="url(#paint1_linear_2640_1642)"/>
<path d="M176 0L176 158" stroke="url(#paint2_linear_2640_1642)"/>
<path d="M181 5L181 153" stroke="url(#paint3_linear_2640_1642)"/>
<path d="M10 24H198" stroke="url(#paint4_linear_2640_1642)"/>
<path d="M5 29H203" stroke="url(#paint5_linear_2640_1642)"/>
<g filter="url(#filter0_d_2640_1642)">
<path d="M32.7878 33.8485C32.7878 31.1707 34.9586 29 37.6363 29H170.364C173.041 29 175.212 31.1707 175.212 33.8485V124.152C175.212 126.829 173.041 129 170.364 129H37.6363C34.9586 129 32.7878 126.829 32.7878 124.152V33.8485Z" fill="url(#paint6_linear_2640_1642)" shape-rendering="crispEdges"/>
<path d="M170.364 28.697H37.6363C34.7912 28.697 32.4848 31.0034 32.4848 33.8485V124.152C32.4848 126.997 34.7912 129.303 37.6363 129.303H170.364C173.209 129.303 175.515 126.997 175.515 124.152V33.8485C175.515 31.0034 173.209 28.697 170.364 28.697Z" stroke="white" stroke-opacity="0.2" stroke-width="0.606061" shape-rendering="crispEdges"/>
<path d="M38.8484 38.6969C38.8484 36.6886 40.4764 35.0605 42.4848 35.0605H93.9999C96.0082 35.0605 97.6363 36.6886 97.6363 38.6969V43.5454C97.6363 45.5537 96.0082 47.1818 93.9999 47.1818H42.4848C40.4764 47.1818 38.8484 45.5537 38.8484 43.5454V38.6969Z" fill="white" fill-opacity="0.05"/>
<path d="M42.4848 35.3636H93.9999C95.8409 35.3636 97.3332 36.856 97.3332 38.6969V43.5454C97.3332 45.3863 95.8409 46.8787 93.9999 46.8787H42.4848C40.6438 46.8787 39.1514 45.3863 39.1514 43.5454V38.6969C39.1514 36.856 40.6438 35.3636 42.4848 35.3636Z" stroke="white" stroke-opacity="0.2" stroke-width="0.606061"/>
<g clip-path="url(#clip0_2640_1642)">
<path d="M44.6567 42.8889C45.7724 42.8889 46.6769 41.9844 46.6769 40.8687C46.6769 39.753 45.7724 38.8485 44.6567 38.8485C43.5409 38.8485 42.6365 39.753 42.6365 40.8687C42.6365 41.9844 43.5409 42.8889 44.6567 42.8889Z" stroke="white" stroke-width="0.606061" stroke-linecap="round" stroke-linejoin="round"/>
<path d="M47.1818 43.394L46.0959 42.3081" stroke="white" stroke-width="0.606061" stroke-linecap="round" stroke-linejoin="round"/>
</g>
<path d="M52.6744 40.5214C52.656 40.3584 52.5803 40.2321 52.4471 40.1426C52.314 40.0519 52.1464 40.0065 51.9443 40.0065C51.7997 40.0065 51.6746 40.0295 51.569 40.0754C51.4634 40.1202 51.3813 40.1822 51.3228 40.2614C51.2654 40.3394 51.2367 40.4284 51.2367 40.5282C51.2367 40.612 51.2562 40.6843 51.2952 40.7452C51.3354 40.806 51.3876 40.8571 51.4519 40.8984C51.5174 40.9386 51.5874 40.9725 51.662 41C51.7366 41.0264 51.8083 41.0482 51.8772 41.0654L52.2216 41.155C52.334 41.1825 52.4494 41.2198 52.5676 41.2669C52.6859 41.3139 52.7955 41.3759 52.8965 41.4528C52.9975 41.5297 53.079 41.625 53.141 41.7386C53.2041 41.8523 53.2357 41.9883 53.2357 42.1467C53.2357 42.3464 53.184 42.5238 53.0807 42.6787C52.9786 42.8337 52.8299 42.9559 52.6348 43.0455C52.4408 43.135 52.2061 43.1798 51.9306 43.1798C51.6666 43.1798 51.4381 43.1379 51.2453 43.0541C51.0525 42.9703 50.9015 42.8515 50.7925 42.6977C50.6834 42.5427 50.6232 42.359 50.6117 42.1467H51.1455C51.1558 42.2741 51.1971 42.3803 51.2694 42.4652C51.3429 42.549 51.4364 42.6116 51.5501 42.6529C51.6648 42.6931 51.7905 42.7132 51.9271 42.7132C52.0775 42.7132 52.2112 42.6896 52.3283 42.6426C52.4465 42.5944 52.5395 42.5278 52.6072 42.4428C52.6749 42.3568 52.7088 42.2563 52.7088 42.1415C52.7088 42.0371 52.679 41.9516 52.6193 41.885C52.5607 41.8184 52.481 41.7633 52.38 41.7197C52.2801 41.6761 52.167 41.6376 52.0408 41.6043L51.6241 41.4907C51.3417 41.4138 51.1179 41.3007 50.9526 41.1515C50.7885 41.0023 50.7064 40.8049 50.7064 40.5592C50.7064 40.3561 50.7615 40.1787 50.8717 40.0272C50.9819 39.8757 51.1311 39.758 51.3193 39.6742C51.5076 39.5893 51.7199 39.5468 51.9564 39.5468C52.1952 39.5468 52.4058 39.5887 52.5883 39.6725C52.7719 39.7563 52.9166 39.8717 53.0222 40.0186C53.1278 40.1644 53.1829 40.332 53.1875 40.5214H52.6744ZM54.9699 43.1746C54.7094 43.1746 54.485 43.1189 54.2967 43.0076C54.1096 42.8951 53.965 42.7373 53.8628 42.5341C53.7618 42.3298 53.7113 42.0905 53.7113 41.8161C53.7113 41.5452 53.7618 41.3065 53.8628 41.0999C53.965 40.8933 54.1073 40.732 54.2898 40.6161C54.4735 40.5001 54.6881 40.4422 54.9338 40.4422C55.083 40.4422 55.2276 40.4668 55.3676 40.5162C55.5077 40.5655 55.6334 40.643 55.7447 40.7486C55.8561 40.8542 55.9439 40.9914 56.0081 41.1601C56.0724 41.3277 56.1046 41.5315 56.1046 41.7714V41.9539H54.0023V41.5682H55.6001C55.6001 41.4327 55.5725 41.3128 55.5174 41.2083C55.4623 41.1027 55.3849 41.0195 55.285 40.9587C55.1863 40.8978 55.0704 40.8674 54.9372 40.8674C54.7926 40.8674 54.6663 40.903 54.5584 40.9742C54.4517 41.0442 54.369 41.136 54.3105 41.2497C54.2531 41.3621 54.2244 41.4844 54.2244 41.6164V41.9177C54.2244 42.0945 54.2554 42.2448 54.3174 42.3688C54.3805 42.4928 54.4683 42.5875 54.5808 42.6529C54.6933 42.7172 54.8247 42.7493 54.9751 42.7493C55.0726 42.7493 55.1616 42.7355 55.242 42.708C55.3223 42.6793 55.3917 42.6368 55.4503 42.5806C55.5088 42.5243 55.5536 42.4549 55.5846 42.3722L56.0718 42.4601C56.0328 42.6035 55.9628 42.7292 55.8618 42.8371C55.7619 42.9439 55.6362 43.0271 55.4847 43.0868C55.3344 43.1453 55.1628 43.1746 54.9699 43.1746ZM57.4454 43.1798C57.2778 43.1798 57.1263 43.1488 56.9908 43.0868C56.8554 43.0236 56.7481 42.9324 56.6689 42.813C56.5908 42.6936 56.5518 42.5473 56.5518 42.374C56.5518 42.2248 56.5805 42.1019 56.6379 42.0055C56.6953 41.9091 56.7727 41.8328 56.8703 41.7765C56.9679 41.7203 57.0769 41.6778 57.1974 41.6491C57.318 41.6204 57.4408 41.5986 57.5659 41.5837C57.7243 41.5653 57.8529 41.5504 57.9516 41.5389C58.0503 41.5263 58.122 41.5062 58.1668 41.4787C58.2116 41.4511 58.2339 41.4063 58.2339 41.3444V41.3323C58.2339 41.1819 58.1915 41.0654 58.1065 40.9828C58.0227 40.9001 57.8976 40.8588 57.7312 40.8588C57.5579 40.8588 57.4213 40.8973 57.3214 40.9742C57.2227 41.0499 57.1544 41.1343 57.1165 41.2273L56.6327 41.1171C56.6901 40.9564 56.7739 40.8267 56.8841 40.728C56.9954 40.6281 57.1234 40.5558 57.268 40.511C57.4127 40.4651 57.5648 40.4422 57.7243 40.4422C57.8299 40.4422 57.9418 40.4548 58.0601 40.48C58.1794 40.5041 58.2908 40.5489 58.3941 40.6143C58.4985 40.6798 58.584 40.7733 58.6506 40.895C58.7172 41.0155 58.7505 41.1722 58.7505 41.365V43.1212H58.2477V42.7596H58.2271C58.1938 42.8262 58.1438 42.8916 58.0773 42.9559C58.0107 43.0202 57.9252 43.0736 57.8207 43.1161C57.7163 43.1585 57.5912 43.1798 57.4454 43.1798ZM57.5573 42.7665C57.6996 42.7665 57.8213 42.7384 57.9223 42.6822C58.0245 42.6259 58.1019 42.5525 58.1547 42.4618C58.2087 42.37 58.2357 42.2718 58.2357 42.1674V41.8264C58.2173 41.8448 58.1817 41.862 58.1289 41.8781C58.0773 41.893 58.0182 41.9062 57.9516 41.9177C57.885 41.928 57.8202 41.9378 57.757 41.947C57.6939 41.955 57.6411 41.9619 57.5986 41.9676C57.4988 41.9803 57.4075 42.0015 57.3249 42.0313C57.2434 42.0612 57.1779 42.1042 57.1286 42.1605C57.0804 42.2156 57.0563 42.289 57.0563 42.3809C57.0563 42.5083 57.1033 42.6047 57.1974 42.6701C57.2916 42.7344 57.4115 42.7665 57.5573 42.7665ZM59.4362 43.1212V40.4766H59.9338V40.8967H59.9613C60.0095 40.7544 60.0945 40.6425 60.2161 40.561C60.3389 40.4783 60.4778 40.437 60.6328 40.437C60.6649 40.437 60.7028 40.4381 60.7464 40.4404C60.7912 40.4427 60.8262 40.4456 60.8515 40.449V40.9415C60.8308 40.9357 60.7941 40.9294 60.7413 40.9225C60.6885 40.9145 60.6357 40.9105 60.5829 40.9105C60.4612 40.9105 60.3527 40.9363 60.2575 40.988C60.1633 41.0385 60.0887 41.109 60.0336 41.1997C59.9785 41.2893 59.951 41.3914 59.951 41.5062V43.1212H59.4362ZM62.3162 43.1746C62.0603 43.1746 61.8399 43.1166 61.6551 43.0007C61.4714 42.8836 61.3303 42.7223 61.2315 42.5169C61.1328 42.3114 61.0835 42.0761 61.0835 41.811C61.0835 41.5424 61.134 41.3053 61.235 41.0999C61.336 40.8933 61.4783 40.732 61.662 40.6161C61.8456 40.5001 62.062 40.4422 62.3111 40.4422C62.512 40.4422 62.691 40.4795 62.8483 40.5541C63.0055 40.6275 63.1324 40.7308 63.2288 40.864C63.3263 40.9971 63.3843 41.1527 63.4027 41.3306H62.9016C62.8741 41.2066 62.811 41.0999 62.7123 41.0103C62.6147 40.9208 62.4838 40.876 62.3197 40.876C62.1762 40.876 62.0505 40.9139 61.9426 40.9897C61.8359 41.0643 61.7527 41.171 61.693 41.3099C61.6333 41.4477 61.6034 41.6107 61.6034 41.7989C61.6034 41.9917 61.6327 42.1582 61.6912 42.2982C61.7498 42.4382 61.8324 42.5467 61.9392 42.6236C62.0471 42.7005 62.1739 42.739 62.3197 42.739C62.4173 42.739 62.5056 42.7212 62.5848 42.6856C62.6652 42.6489 62.7323 42.5967 62.7863 42.5289C62.8414 42.4612 62.8798 42.3797 62.9016 42.2844H63.4027C63.3843 42.4555 63.3286 42.6081 63.2357 42.7424C63.1427 42.8767 63.0182 42.9823 62.862 43.0592C62.7071 43.1361 62.5252 43.1746 62.3162 43.1746ZM64.468 41.551V43.1212H63.9532V39.595H64.4611V40.907H64.4938C64.5558 40.7647 64.6505 40.6516 64.7779 40.5678C64.9054 40.484 65.0718 40.4422 65.2773 40.4422C65.4586 40.4422 65.617 40.4795 65.7525 40.5541C65.8891 40.6287 65.9947 40.74 66.0693 40.8881C66.145 41.035 66.1829 41.2187 66.1829 41.4391V43.1212H65.6681V41.501C65.6681 41.3071 65.6182 41.1567 65.5183 41.0499C65.4184 40.942 65.2795 40.8881 65.1016 40.8881C64.98 40.8881 64.8709 40.9139 64.7745 40.9656C64.6792 41.0172 64.604 41.093 64.5489 41.1928C64.495 41.2916 64.468 41.4109 64.468 41.551Z" fill="white"/>
<path d="M148.606 38.6969C148.606 36.6886 150.234 35.0605 152.243 35.0605H165.515C167.524 35.0605 169.152 36.6886 169.152 38.6969V43.5454C169.152 45.5537 167.524 47.1818 165.515 47.1818H152.243C150.234 47.1818 148.606 45.5537 148.606 43.5454V38.6969Z" fill="white" fill-opacity="0.05"/>
<path d="M152.243 35.3636H165.515C167.356 35.3636 168.849 36.856 168.849 38.6969V43.5454C168.849 45.3863 167.356 46.8787 165.515 46.8787H152.243C150.402 46.8787 148.909 45.3863 148.909 43.5454V38.6969C148.909 36.856 150.402 35.3636 152.243 35.3636Z" stroke="white" stroke-opacity="0.2" stroke-width="0.606061"/>
<path d="M153.313 39.595V43.1212H152.78V40.1288H152.759L151.915 40.6798V40.1701L152.795 39.595H153.313ZM155.495 43.1798C155.223 43.1786 154.99 43.1069 154.798 42.9645C154.605 42.8222 154.457 42.615 154.355 42.343C154.253 42.0709 154.202 41.7432 154.202 41.3599C154.202 40.9776 154.253 40.6511 154.355 40.3802C154.458 40.1093 154.607 39.9027 154.799 39.7603C154.993 39.618 155.225 39.5468 155.495 39.5468C155.765 39.5468 155.996 39.6186 156.189 39.7621C156.382 39.9044 156.529 40.111 156.631 40.3819C156.735 40.6516 156.786 40.9776 156.786 41.3599C156.786 41.7444 156.735 42.0727 156.633 42.3447C156.531 42.6156 156.383 42.8228 156.191 42.9663C155.998 43.1086 155.766 43.1798 155.495 43.1798ZM155.495 42.72C155.734 42.72 155.92 42.6035 156.055 42.3705C156.19 42.1375 156.258 41.8006 156.258 41.3599C156.258 41.0672 156.227 40.8198 156.165 40.6178C156.104 40.4146 156.016 40.2608 155.901 40.1563C155.788 40.0507 155.652 39.9979 155.495 39.9979C155.257 39.9979 155.071 40.115 154.935 40.3492C154.8 40.5833 154.732 40.9202 154.73 41.3599C154.73 41.6537 154.761 41.9022 154.822 42.1054C154.884 42.3074 154.972 42.4606 155.085 42.5651C155.199 42.6684 155.335 42.72 155.495 42.72Z" fill="white"/>
<g clip-path="url(#clip1_2640_1642)">
<path d="M161.829 41.8788L163.091 43.1414L164.354 41.8788" stroke="white" stroke-width="0.606061" stroke-linecap="round" stroke-linejoin="round"/>
<path d="M161.829 40.3637L163.091 39.1011L164.354 40.3637" stroke="white" stroke-width="0.606061" stroke-linecap="round" stroke-linejoin="round"/>
</g>
<mask id="path-19-inside-1_2640_1642" fill="white">
<path d="M38.8484 52.6364H169.151V67.1818H38.8484V52.6364Z"/>
</mask>
<path d="M38.8484 53.2424H169.151V52.0303H38.8484V53.2424ZM169.151 66.5757H38.8484V67.7879H169.151V66.5757Z" fill="white" fill-opacity="0.2" mask="url(#path-19-inside-1_2640_1642)"/>
<path d="M38.8484 59.9091C38.8484 59.2397 39.3911 58.697 40.0605 58.697H49.7575C50.4269 58.697 50.9696 59.2397 50.9696 59.9091V59.9091C50.9696 60.5786 50.4269 61.1213 49.7575 61.1213H40.0605C39.3911 61.1213 38.8484 60.5786 38.8484 59.9091V59.9091Z" fill="white"/>
<path d="M85.5151 59.9091C85.5151 59.2397 86.0578 58.697 86.7273 58.697H102.485C103.154 58.697 103.697 59.2397 103.697 59.9091V59.9091C103.697 60.5786 103.154 61.1213 102.485 61.1213H86.7273C86.0578 61.1213 85.5151 60.5786 85.5151 59.9091V59.9091Z" fill="white"/>
<path d="M112.788 59.9091C112.788 59.2397 113.331 58.697 114 58.697H123.697C124.366 58.697 124.909 59.2397 124.909 59.9091V59.9091C124.909 60.5786 124.366 61.1213 123.697 61.1213H114C113.331 61.1213 112.788 60.5786 112.788 59.9091V59.9091Z" fill="white"/>
<path d="M148.545 59.9091C148.545 59.2397 149.088 58.697 149.758 58.697H152.182C152.851 58.697 153.394 59.2397 153.394 59.9091V59.9091C153.394 60.5786 152.851 61.1213 152.182 61.1213H149.758C149.088 61.1213 148.545 60.5786 148.545 59.9091V59.9091Z" fill="white"/>
<mask id="path-25-inside-2_2640_1642" fill="white">
<path d="M38.8484 66.5758H169.151V81.1213H38.8484V66.5758Z"/>
</mask>
<path d="M38.8484 67.1819H169.151V65.9697H38.8484V67.1819ZM169.151 80.5152H38.8484V81.7273H169.151V80.5152Z" fill="white" fill-opacity="0.2" mask="url(#path-25-inside-2_2640_1642)"/>
<path d="M38.8484 73.8485C38.8484 73.179 39.3911 72.6364 40.0605 72.6364H62.4848C63.1542 72.6364 63.6969 73.179 63.6969 73.8485V73.8485C63.6969 74.5179 63.1542 75.0606 62.4848 75.0606H40.0605C39.3911 75.0606 38.8484 74.5179 38.8484 73.8485V73.8485Z" fill="white"/>
<path d="M85.5151 73.8485C85.5151 73.179 86.0578 72.6364 86.7273 72.6364H102.485C103.154 72.6364 103.697 73.179 103.697 73.8485V73.8485C103.697 74.5179 103.154 75.0606 102.485 75.0606H86.7273C86.0578 75.0606 85.5151 74.5179 85.5151 73.8485V73.8485Z" fill="white" fill-opacity="0.3"/>
<path d="M112.788 73.8485C112.788 73.179 113.331 72.6364 114 72.6364H138.242C138.912 72.6364 139.455 73.179 139.455 73.8485V73.8485C139.455 74.5179 138.912 75.0606 138.242 75.0606H114C113.331 75.0606 112.788 74.5179 112.788 73.8485V73.8485Z" fill="white" fill-opacity="0.3"/>
<path d="M148.545 73.8485C148.545 73.179 149.088 72.6364 149.758 72.6364H152.182C152.851 72.6364 153.394 73.179 153.394 73.8485V73.8485C153.394 74.5179 152.851 75.0606 152.182 75.0606H149.758C149.088 75.0606 148.545 74.5179 148.545 73.8485V73.8485Z" fill="white" fill-opacity="0.3"/>
<mask id="path-31-inside-3_2640_1642" fill="white">
<path d="M38.8484 80.5151H169.151V95.0606H38.8484V80.5151Z"/>
</mask>
<path d="M38.8484 81.1212H169.151V79.9091H38.8484V81.1212ZM169.151 94.4545H38.8484V95.6667H169.151V94.4545Z" fill="white" fill-opacity="0.2" mask="url(#path-31-inside-3_2640_1642)"/>
<path d="M38.8484 87.7879C38.8484 87.1185 39.3911 86.5758 40.0605 86.5758H57.0302C57.6996 86.5758 58.2423 87.1185 58.2423 87.7879V87.7879C58.2423 88.4574 57.6996 89 57.0302 89H40.0605C39.3911 89 38.8484 88.4574 38.8484 87.7879V87.7879Z" fill="white"/>
<path d="M85.5151 87.7879C85.5151 87.1185 86.0578 86.5758 86.7273 86.5758H102.485C103.154 86.5758 103.697 87.1185 103.697 87.7879V87.7879C103.697 88.4574 103.154 89 102.485 89H86.7273C86.0578 89 85.5151 88.4574 85.5151 87.7879V87.7879Z" fill="white" fill-opacity="0.3"/>
<path d="M112.788 87.7879C112.788 87.1185 113.331 86.5758 114 86.5758H138.242C138.912 86.5758 139.455 87.1185 139.455 87.7879V87.7879C139.455 88.4574 138.912 89 138.242 89H114C113.331 89 112.788 88.4574 112.788 87.7879V87.7879Z" fill="white" fill-opacity="0.3"/>
<path d="M148.545 87.7879C148.545 87.1185 149.088 86.5758 149.758 86.5758H152.182C152.851 86.5758 153.394 87.1185 153.394 87.7879V87.7879C153.394 88.4574 152.851 89 152.182 89H149.758C149.088 89 148.545 88.4574 148.545 87.7879V87.7879Z" fill="white" fill-opacity="0.3"/>
<mask id="path-37-inside-4_2640_1642" fill="white">
<path d="M38.8484 94.4546H169.151V109H38.8484V94.4546Z"/>
</mask>
<path d="M38.8484 95.0607H169.151V93.8485H38.8484V95.0607ZM169.151 108.394H38.8484V109.606H169.151V108.394Z" fill="white" fill-opacity="0.2" mask="url(#path-37-inside-4_2640_1642)"/>
<path d="M38.8484 101.727C38.8484 101.058 39.3911 100.515 40.0605 100.515H48.5454C49.2148 100.515 49.7575 101.058 49.7575 101.727V101.727C49.7575 102.397 49.2148 102.939 48.5454 102.939H40.0605C39.3911 102.939 38.8484 102.397 38.8484 101.727V101.727Z" fill="white"/>
<path d="M85.5151 101.727C85.5151 101.058 86.0578 100.515 86.7273 100.515H102.485C103.154 100.515 103.697 101.058 103.697 101.727V101.727C103.697 102.397 103.154 102.939 102.485 102.939H86.7273C86.0578 102.939 85.5151 102.397 85.5151 101.727V101.727Z" fill="white" fill-opacity="0.3"/>
<path d="M112.788 101.727C112.788 101.058 113.331 100.515 114 100.515H138.242C138.912 100.515 139.455 101.058 139.455 101.727V101.727C139.455 102.397 138.912 102.939 138.242 102.939H114C113.331 102.939 112.788 102.397 112.788 101.727V101.727Z" fill="white" fill-opacity="0.3"/>
<path d="M148.545 101.727C148.545 101.058 149.088 100.515 149.758 100.515H152.182C152.851 100.515 153.394 101.058 153.394 101.727V101.727C153.394 102.397 152.851 102.939 152.182 102.939H149.758C149.088 102.939 148.545 102.397 148.545 101.727V101.727Z" fill="white" fill-opacity="0.3"/>
<mask id="path-43-inside-5_2640_1642" fill="white">
<path d="M38.8484 108.394H153.394V122.939H38.8484V108.394Z"/>
</mask>
<path d="M38.8484 109H153.394V107.788H38.8484V109Z" fill="white" fill-opacity="0.2" mask="url(#path-43-inside-5_2640_1642)"/>
<path d="M38.8484 115.667C38.8484 114.997 39.3911 114.455 40.0605 114.455H59.4544C60.1239 114.455 60.6666 114.997 60.6666 115.667V115.667C60.6666 116.336 60.1239 116.879 59.4544 116.879H40.0605C39.3911 116.879 38.8484 116.336 38.8484 115.667V115.667Z" fill="white"/>
<path d="M85.5151 115.667C85.5151 114.997 86.0578 114.455 86.7273 114.455H102.485C103.154 114.455 103.697 114.997 103.697 115.667V115.667C103.697 116.336 103.154 116.879 102.485 116.879H86.7273C86.0578 116.879 85.5151 116.336 85.5151 115.667V115.667Z" fill="white" fill-opacity="0.3"/>
<path d="M112.788 115.667C112.788 114.997 113.331 114.455 114 114.455H138.242C138.912 114.455 139.455 114.997 139.455 115.667V115.667C139.455 116.336 138.912 116.879 138.242 116.879H114C113.331 116.879 112.788 116.336 112.788 115.667V115.667Z" fill="white" fill-opacity="0.3"/>
<path d="M148.545 115.667C148.545 114.997 149.088 114.455 149.758 114.455H152.182C152.851 114.455 153.394 114.997 153.394 115.667V115.667C153.394 116.336 152.851 116.879 152.182 116.879H149.758C149.088 116.879 148.545 116.336 148.545 115.667V115.667Z" fill="white" fill-opacity="0.3"/>
</g>
<path d="M5 129H203" stroke="url(#paint7_linear_2640_1642)"/>
<path d="M10 134H198" stroke="url(#paint8_linear_2640_1642)"/>
<defs>
<filter id="filter0_d_2640_1642" x="24.9092" y="24.7576" width="158.182" height="115.758" filterUnits="userSpaceOnUse" color-interpolation-filters="sRGB">
<feFlood flood-opacity="0" result="BackgroundImageFix"/>
<feColorMatrix in="SourceAlpha" type="matrix" values="0 0 0 0 0 0 0 0 0 0 0 0 0 0 0 0 0 0 127 0" result="hardAlpha"/>
<feOffset dy="3.63636"/>
<feGaussianBlur stdDeviation="3.63636"/>
<feComposite in2="hardAlpha" operator="out"/>
<feColorMatrix type="matrix" values="0 0 0 0 0 0 0 0 0 0 0 0 0 0 0 0 0 0 0.03 0"/>
<feBlend mode="normal" in2="BackgroundImageFix" result="effect1_dropShadow_2640_1642"/>
<feBlend mode="normal" in="SourceGraphic" in2="effect1_dropShadow_2640_1642" result="shape"/>
</filter>
<linearGradient id="paint0_linear_2640_1642" x1="27.5" y1="153" x2="27.5" y2="5" gradientUnits="userSpaceOnUse">
<stop stop-color="#E2E8F0" stop-opacity="0"/>
<stop offset="0.185417" stop-color="#E2E8F0"/>
<stop offset="0.826042" stop-color="#E2E8F0"/>
<stop offset="1" stop-color="#E2E8F0" stop-opacity="0"/>
</linearGradient>
<linearGradient id="paint1_linear_2640_1642" x1="32.5" y1="158" x2="32.5" y2="-2.74062e-08" gradientUnits="userSpaceOnUse">
<stop stop-color="#E2E8F0" stop-opacity="0"/>
<stop offset="0.185417" stop-color="#E2E8F0"/>
<stop offset="0.826042" stop-color="#E2E8F0"/>
<stop offset="1" stop-color="#E2E8F0" stop-opacity="0"/>
</linearGradient>
<linearGradient id="paint2_linear_2640_1642" x1="176.5" y1="2.74063e-08" x2="176.5" y2="158" gradientUnits="userSpaceOnUse">
<stop stop-color="#E2E8F0" stop-opacity="0"/>
<stop offset="0.185417" stop-color="#E2E8F0"/>
<stop offset="0.826042" stop-color="#E2E8F0"/>
<stop offset="1" stop-color="#E2E8F0" stop-opacity="0"/>
</linearGradient>
<linearGradient id="paint3_linear_2640_1642" x1="181.5" y1="5" x2="181.5" y2="153" gradientUnits="userSpaceOnUse">
<stop stop-color="#E2E8F0" stop-opacity="0"/>
<stop offset="0.185417" stop-color="#E2E8F0"/>
<stop offset="0.826042" stop-color="#E2E8F0"/>
<stop offset="1" stop-color="#E2E8F0" stop-opacity="0"/>
</linearGradient>
<linearGradient id="paint4_linear_2640_1642" x1="199.899" y1="24.5" x2="10" y2="24.4999" gradientUnits="userSpaceOnUse">
<stop stop-color="#E2E8F0" stop-opacity="0"/>
<stop offset="0.185417" stop-color="#E2E8F0"/>
<stop offset="0.826042" stop-color="#E2E8F0"/>
<stop offset="1" stop-color="#E2E8F0" stop-opacity="0"/>
</linearGradient>
<linearGradient id="paint5_linear_2640_1642" x1="205" y1="29.5" x2="5" y2="29.4999" gradientUnits="userSpaceOnUse">
<stop stop-color="#E2E8F0" stop-opacity="0"/>
<stop offset="0.185417" stop-color="#E2E8F0"/>
<stop offset="0.826042" stop-color="#E2E8F0"/>
<stop offset="1" stop-color="#E2E8F0" stop-opacity="0"/>
</linearGradient>
<linearGradient id="paint6_linear_2640_1642" x1="53.948" y1="39.4" x2="171.252" y2="130.945" gradientUnits="userSpaceOnUse">
<stop stop-color="#A855F7"/>
<stop offset="1" stop-color="#3B82F6"/>
</linearGradient>
<linearGradient id="paint7_linear_2640_1642" x1="205" y1="129.5" x2="5" y2="129.5" gradientUnits="userSpaceOnUse">
<stop stop-color="#E2E8F0" stop-opacity="0"/>
<stop offset="0.185417" stop-color="#E2E8F0"/>
<stop offset="0.826042" stop-color="#E2E8F0"/>
<stop offset="1" stop-color="#E2E8F0" stop-opacity="0"/>
</linearGradient>
<linearGradient id="paint8_linear_2640_1642" x1="199.899" y1="134.5" x2="10" y2="134.5" gradientUnits="userSpaceOnUse">
<stop stop-color="#E2E8F0" stop-opacity="0"/>
<stop offset="0.185417" stop-color="#E2E8F0"/>
<stop offset="0.826042" stop-color="#E2E8F0"/>
<stop offset="1" stop-color="#E2E8F0" stop-opacity="0"/>
</linearGradient>
<clipPath id="clip0_2640_1642">
<rect width="6.06061" height="6.06061" fill="white" transform="translate(41.8789 38.0909)"/>
</clipPath>
<clipPath id="clip1_2640_1642">
<rect width="6.06061" height="6.06061" fill="white" transform="translate(160.061 38.0909)"/>
</clipPath>
</defs>
</svg>
