<svg width="208" height="158" viewBox="0 0 208 158" fill="none" xmlns="http://www.w3.org/2000/svg">
<path d="M33 153L33 5" stroke="url(#paint0_linear_127_276)"/>
<path d="M38 158L38 -5.24521e-06" stroke="url(#paint1_linear_127_276)"/>
<path d="M170 0L170 158" stroke="url(#paint2_linear_127_276)"/>
<path d="M175 5L175 153" stroke="url(#paint3_linear_127_276)"/>
<path d="M10 22.5H198" stroke="url(#paint4_linear_127_276)"/>
<path d="M5 27.5H203" stroke="url(#paint5_linear_127_276)"/>
<g filter="url(#filter0_d_127_276)">
<path d="M39 33.5C39 30.1863 41.6863 27.5 45 27.5H163C166.314 27.5 169 30.1863 169 33.5V47.5C169 50.8137 166.314 53.5 163 53.5H45C41.6863 53.5 39 50.8137 39 47.5V33.5Z" fill="url(#paint6_linear_127_276)"/>
<path d="M50.1307 43.5H49.1989L51.2926 37.6818H52.3068L54.4006 43.5H53.4688L51.8239 38.7386H51.7784L50.1307 43.5ZM50.2869 41.2216H53.3097V41.9602H50.2869V41.2216ZM56.9403 43.5881C56.518 43.5881 56.1544 43.4924 55.8494 43.3011C55.5464 43.108 55.3134 42.8419 55.1506 42.5028C54.9877 42.1638 54.9062 41.7756 54.9062 41.3381C54.9062 40.8949 54.9896 40.5038 55.1562 40.1648C55.3229 39.8239 55.5578 39.5578 55.8608 39.3665C56.1638 39.1752 56.5208 39.0795 56.9318 39.0795C57.2633 39.0795 57.5587 39.1411 57.8182 39.2642C58.0777 39.3854 58.2869 39.5559 58.446 39.7756C58.607 39.9953 58.7027 40.2519 58.733 40.5455H57.9062C57.8608 40.3409 57.7566 40.1648 57.5938 40.017C57.4328 39.8693 57.2169 39.7955 56.946 39.7955C56.7093 39.7955 56.5019 39.858 56.3239 39.983C56.1477 40.1061 56.0104 40.2822 55.9119 40.5114C55.8134 40.7386 55.7642 41.0076 55.7642 41.3182C55.7642 41.6364 55.8125 41.911 55.9091 42.142C56.0057 42.3731 56.142 42.5521 56.3182 42.679C56.4962 42.8059 56.7055 42.8693 56.946 42.8693C57.107 42.8693 57.2528 42.84 57.3835 42.7812C57.5161 42.7206 57.6269 42.6345 57.7159 42.5227C57.8068 42.411 57.8703 42.2765 57.9062 42.1193H58.733C58.7027 42.4015 58.6108 42.6534 58.4574 42.875C58.304 43.0966 58.0985 43.2708 57.8409 43.3977C57.5852 43.5246 57.285 43.5881 56.9403 43.5881ZM61.4794 43.5881C61.0571 43.5881 60.6934 43.4924 60.3885 43.3011C60.0855 43.108 59.8525 42.8419 59.6896 42.5028C59.5268 42.1638 59.4453 41.7756 59.4453 41.3381C59.4453 40.8949 59.5286 40.5038 59.6953 40.1648C59.862 39.8239 60.0968 39.5578 60.3999 39.3665C60.7029 39.1752 61.0599 39.0795 61.4709 39.0795C61.8023 39.0795 62.0978 39.1411 62.3572 39.2642C62.6167 39.3854 62.826 39.5559 62.9851 39.7756C63.1461 39.9953 63.2417 40.2519 63.272 40.5455H62.4453C62.3999 40.3409 62.2957 40.1648 62.1328 40.017C61.9718 39.8693 61.7559 39.7955 61.4851 39.7955C61.2483 39.7955 61.041 39.858 60.8629 39.983C60.6868 40.1061 60.5495 40.2822 60.451 40.5114C60.3525 40.7386 60.3033 41.0076 60.3033 41.3182C60.3033 41.6364 60.3516 41.911 60.4482 42.142C60.5447 42.3731 60.6811 42.5521 60.8572 42.679C61.0353 42.8059 61.2446 42.8693 61.4851 42.8693C61.6461 42.8693 61.7919 42.84 61.9226 42.7812C62.0552 42.7206 62.166 42.6345 62.255 42.5227C62.3459 42.411 62.4093 42.2765 62.4453 42.1193H63.272C63.2417 42.4015 63.1499 42.6534 62.9964 42.875C62.843 43.0966 62.6375 43.2708 62.38 43.3977C62.1243 43.5246 61.8241 43.5881 61.4794 43.5881ZM66.0185 43.5881C65.6094 43.5881 65.2524 43.4943 64.9474 43.3068C64.6425 43.1193 64.4058 42.857 64.2372 42.5199C64.0687 42.1828 63.9844 41.7888 63.9844 41.3381C63.9844 40.8854 64.0687 40.4896 64.2372 40.1506C64.4058 39.8116 64.6425 39.5483 64.9474 39.3608C65.2524 39.1733 65.6094 39.0795 66.0185 39.0795C66.4276 39.0795 66.7846 39.1733 67.0895 39.3608C67.3944 39.5483 67.6312 39.8116 67.7997 40.1506C67.9683 40.4896 68.0526 40.8854 68.0526 41.3381C68.0526 41.7888 67.9683 42.1828 67.7997 42.5199C67.6312 42.857 67.3944 43.1193 67.0895 43.3068C66.7846 43.4943 66.4276 43.5881 66.0185 43.5881ZM66.0213 42.875C66.2865 42.875 66.5062 42.8049 66.6804 42.6648C66.8546 42.5246 66.9834 42.3381 67.0668 42.1051C67.152 41.8722 67.1946 41.6155 67.1946 41.3352C67.1946 41.0568 67.152 40.8011 67.0668 40.5682C66.9834 40.3333 66.8546 40.1449 66.6804 40.0028C66.5062 39.8608 66.2865 39.7898 66.0213 39.7898C65.7543 39.7898 65.5327 39.8608 65.3565 40.0028C65.1823 40.1449 65.0526 40.3333 64.9673 40.5682C64.884 40.8011 64.8423 41.0568 64.8423 41.3352C64.8423 41.6155 64.884 41.8722 64.9673 42.1051C65.0526 42.3381 65.1823 42.5246 65.3565 42.6648C65.5327 42.8049 65.7543 42.875 66.0213 42.875ZM71.7649 41.6903V39.1364H72.6172V43.5H71.782V42.7443H71.7365C71.6361 42.9773 71.4751 43.1714 71.2536 43.3267C71.0339 43.4801 70.7602 43.5568 70.4325 43.5568C70.1522 43.5568 69.9041 43.4953 69.6882 43.3722C69.4742 43.2472 69.3056 43.0625 69.1825 42.8182C69.0613 42.5739 69.0007 42.2718 69.0007 41.9119V39.1364H69.8501V41.8097C69.8501 42.107 69.9325 42.3437 70.0973 42.5199C70.2621 42.696 70.4761 42.7841 70.7393 42.7841C70.8984 42.7841 71.0566 42.7443 71.2138 42.6648C71.3729 42.5852 71.5045 42.465 71.6087 42.304C71.7147 42.143 71.7668 41.9384 71.7649 41.6903ZM74.608 40.9091V43.5H73.7585V39.1364H74.5739V39.8466H74.6278C74.7282 39.6155 74.8854 39.4299 75.0994 39.2898C75.3153 39.1496 75.5871 39.0795 75.9148 39.0795C76.2121 39.0795 76.4725 39.142 76.696 39.267C76.9195 39.3902 77.0928 39.5739 77.2159 39.8182C77.339 40.0625 77.4006 40.3646 77.4006 40.7244V43.5H76.5511V40.8267C76.5511 40.5104 76.4688 40.2633 76.304 40.0852C76.1392 39.9053 75.9129 39.8153 75.625 39.8153C75.428 39.8153 75.2528 39.858 75.0994 39.9432C74.9479 40.0284 74.8277 40.1534 74.7386 40.3182C74.6515 40.4811 74.608 40.678 74.608 40.9091ZM80.5767 39.1364V39.8182H78.1932V39.1364H80.5767ZM78.8324 38.0909H79.6818V42.2188C79.6818 42.3835 79.7064 42.5076 79.7557 42.5909C79.8049 42.6723 79.8684 42.7282 79.946 42.7585C80.0256 42.7869 80.1117 42.8011 80.2045 42.8011C80.2727 42.8011 80.3324 42.7964 80.3835 42.7869C80.4347 42.7775 80.4744 42.7699 80.5028 42.7642L80.6562 43.4659C80.607 43.4848 80.5369 43.5038 80.446 43.5227C80.3551 43.5436 80.2415 43.5549 80.1051 43.5568C79.8816 43.5606 79.6733 43.5208 79.4801 43.4375C79.2869 43.3542 79.1307 43.2254 79.0114 43.0511C78.892 42.8769 78.8324 42.6581 78.8324 42.3949V38.0909ZM86.875 39.2102C86.8447 38.9413 86.7197 38.733 86.5 38.5852C86.2803 38.4356 86.0038 38.3608 85.6705 38.3608C85.4318 38.3608 85.2254 38.3987 85.0511 38.4744C84.8769 38.5483 84.7415 38.6506 84.6449 38.7812C84.5502 38.91 84.5028 39.0568 84.5028 39.2216C84.5028 39.3598 84.535 39.4792 84.5994 39.5795C84.6657 39.6799 84.7519 39.7642 84.858 39.8324C84.9659 39.8987 85.0814 39.9545 85.2045 40C85.3277 40.0436 85.446 40.0795 85.5597 40.108L86.1278 40.2557C86.3134 40.3011 86.5038 40.3627 86.6989 40.4403C86.8939 40.518 87.0748 40.6203 87.2415 40.7472C87.4081 40.8741 87.5426 41.0312 87.6449 41.2188C87.7491 41.4062 87.8011 41.6307 87.8011 41.892C87.8011 42.2216 87.7159 42.5142 87.5455 42.7699C87.3769 43.0256 87.1316 43.2273 86.8097 43.375C86.4896 43.5227 86.1023 43.5966 85.6477 43.5966C85.2121 43.5966 84.8352 43.5275 84.517 43.3892C84.1989 43.2509 83.9498 43.0549 83.7699 42.8011C83.59 42.5455 83.4905 42.2424 83.4716 41.892H84.3523C84.3693 42.1023 84.4375 42.2775 84.5568 42.4176C84.678 42.5559 84.8324 42.6591 85.0199 42.7273C85.2093 42.7936 85.4167 42.8267 85.642 42.8267C85.8902 42.8267 86.1108 42.7879 86.304 42.7102C86.4991 42.6307 86.6525 42.5208 86.7642 42.3807C86.8759 42.2386 86.9318 42.0729 86.9318 41.8835C86.9318 41.7112 86.8826 41.5701 86.7841 41.4602C86.6875 41.3504 86.5559 41.2595 86.3892 41.1875C86.2244 41.1155 86.0379 41.0521 85.8295 40.9972L85.142 40.8097C84.6761 40.6828 84.3068 40.4962 84.0341 40.25C83.7633 40.0038 83.6278 39.678 83.6278 39.2727C83.6278 38.9375 83.7188 38.6449 83.9006 38.3949C84.0824 38.1449 84.3286 37.9508 84.6392 37.8125C84.9498 37.6723 85.3002 37.6023 85.6903 37.6023C86.0843 37.6023 86.4318 37.6714 86.733 37.8097C87.036 37.9479 87.2746 38.1383 87.4489 38.3807C87.6231 38.6212 87.714 38.8977 87.7216 39.2102H86.875ZM90.6626 43.5881C90.2327 43.5881 89.8625 43.4962 89.5518 43.3125C89.2431 43.1269 89.0045 42.8665 88.8359 42.5312C88.6693 42.1941 88.5859 41.7992 88.5859 41.3466C88.5859 40.8996 88.6693 40.5057 88.8359 40.1648C89.0045 39.8239 89.2393 39.5578 89.5405 39.3665C89.8435 39.1752 90.1977 39.0795 90.603 39.0795C90.8492 39.0795 91.0878 39.1203 91.3189 39.2017C91.55 39.2831 91.7573 39.411 91.9411 39.5852C92.1248 39.7595 92.2696 39.9858 92.3757 40.2642C92.4818 40.5407 92.5348 40.8769 92.5348 41.2727V41.5739H89.0661V40.9375H91.7024C91.7024 40.714 91.657 40.5161 91.5661 40.3438C91.4751 40.1695 91.3473 40.0322 91.1825 39.9318C91.0196 39.8314 90.8284 39.7812 90.6087 39.7812C90.37 39.7812 90.1617 39.84 89.9837 39.9574C89.8075 40.0729 89.6712 40.2244 89.5746 40.4119C89.4799 40.5975 89.4325 40.7992 89.4325 41.017V41.5142C89.4325 41.8059 89.4837 42.054 89.5859 42.2585C89.6901 42.4631 89.835 42.6193 90.0206 42.7273C90.2062 42.8333 90.4231 42.8864 90.6712 42.8864C90.8321 42.8864 90.9789 42.8636 91.1115 42.8182C91.2441 42.7708 91.3587 42.7008 91.4553 42.608C91.5518 42.5152 91.6257 42.4006 91.6768 42.2642L92.4808 42.4091C92.4164 42.6458 92.3009 42.8532 92.1342 43.0312C91.9695 43.2074 91.7621 43.3447 91.5121 43.4432C91.264 43.5398 90.9808 43.5881 90.6626 43.5881ZM95.5142 39.1364V39.8182H93.1307V39.1364H95.5142ZM93.7699 38.0909H94.6193V42.2188C94.6193 42.3835 94.6439 42.5076 94.6932 42.5909C94.7424 42.6723 94.8059 42.7282 94.8835 42.7585C94.9631 42.7869 95.0492 42.8011 95.142 42.8011C95.2102 42.8011 95.2699 42.7964 95.321 42.7869C95.3722 42.7775 95.4119 42.7699 95.4403 42.7642L95.5938 43.4659C95.5445 43.4848 95.4744 43.5038 95.3835 43.5227C95.2926 43.5436 95.179 43.5549 95.0426 43.5568C94.8191 43.5606 94.6108 43.5208 94.4176 43.4375C94.2244 43.3542 94.0682 43.2254 93.9489 43.0511C93.8295 42.8769 93.7699 42.6581 93.7699 42.3949V38.0909ZM98.4908 39.1364V39.8182H96.1072V39.1364H98.4908ZM96.7464 38.0909H97.5959V42.2188C97.5959 42.3835 97.6205 42.5076 97.6697 42.5909C97.719 42.6723 97.7824 42.7282 97.8601 42.7585C97.9396 42.7869 98.0258 42.8011 98.1186 42.8011C98.1868 42.8011 98.2464 42.7964 98.2976 42.7869C98.3487 42.7775 98.3885 42.7699 98.4169 42.7642L98.5703 43.4659C98.5211 43.4848 98.451 43.5038 98.3601 43.5227C98.2692 43.5436 98.1555 43.5549 98.0192 43.5568C97.7957 43.5606 97.5874 43.5208 97.3942 43.4375C97.201 43.3542 97.0447 43.2254 96.9254 43.0511C96.8061 42.8769 96.7464 42.6581 96.7464 42.3949V38.0909ZM99.4304 43.5V39.1364H100.28V43.5H99.4304ZM99.8594 38.4631C99.7116 38.4631 99.5848 38.4138 99.4787 38.3153C99.3745 38.215 99.3224 38.0956 99.3224 37.9574C99.3224 37.8172 99.3745 37.6979 99.4787 37.5994C99.5848 37.4991 99.7116 37.4489 99.8594 37.4489C100.007 37.4489 100.133 37.4991 100.237 37.5994C100.343 37.6979 100.396 37.8172 100.396 37.9574C100.396 38.0956 100.343 38.215 100.237 38.3153C100.133 38.4138 100.007 38.4631 99.8594 38.4631ZM102.272 40.9091V43.5H101.423V39.1364H102.238V39.8466H102.292C102.392 39.6155 102.549 39.4299 102.763 39.2898C102.979 39.1496 103.251 39.0795 103.579 39.0795C103.876 39.0795 104.137 39.142 104.36 39.267C104.584 39.3902 104.757 39.5739 104.88 39.8182C105.003 40.0625 105.065 40.3646 105.065 40.7244V43.5H104.215V40.8267C104.215 40.5104 104.133 40.2633 103.968 40.0852C103.803 39.9053 103.577 39.8153 103.289 39.8153C103.092 39.8153 102.917 39.858 102.763 39.9432C102.612 40.0284 102.492 40.1534 102.403 40.3182C102.316 40.4811 102.272 40.678 102.272 40.9091ZM108.033 45.2273C107.687 45.2273 107.388 45.1818 107.138 45.0909C106.89 45 106.688 44.8797 106.531 44.7301C106.373 44.5805 106.256 44.4167 106.178 44.2386L106.908 43.9375C106.96 44.0208 107.028 44.1089 107.113 44.2017C107.2 44.2964 107.317 44.3769 107.465 44.4432C107.615 44.5095 107.807 44.5426 108.042 44.5426C108.364 44.5426 108.63 44.464 108.84 44.3068C109.05 44.1515 109.156 43.9034 109.156 43.5625V42.7045H109.102C109.05 42.7973 108.977 42.9006 108.88 43.0142C108.785 43.1278 108.655 43.2263 108.488 43.3097C108.321 43.393 108.104 43.4347 107.837 43.4347C107.493 43.4347 107.182 43.3542 106.906 43.1932C106.631 43.0303 106.413 42.7907 106.252 42.4744C106.093 42.1562 106.013 41.7652 106.013 41.3011C106.013 40.8371 106.092 40.4394 106.249 40.108C106.408 39.7765 106.626 39.5227 106.903 39.3466C107.179 39.1686 107.493 39.0795 107.843 39.0795C108.114 39.0795 108.333 39.125 108.499 39.2159C108.666 39.3049 108.796 39.4091 108.888 39.5284C108.983 39.6477 109.056 39.7528 109.107 39.8438H109.17V39.1364H110.002V43.5966C110.002 43.9716 109.915 44.2794 109.741 44.5199C109.567 44.7604 109.331 44.9384 109.033 45.054C108.738 45.1695 108.405 45.2273 108.033 45.2273ZM108.025 42.7301C108.269 42.7301 108.476 42.6733 108.644 42.5597C108.815 42.4441 108.943 42.2794 109.031 42.0653C109.12 41.8494 109.164 41.5909 109.164 41.2898C109.164 40.9962 109.121 40.7377 109.033 40.5142C108.946 40.2907 108.818 40.1165 108.65 39.9915C108.481 39.8646 108.273 39.8011 108.025 39.8011C107.769 39.8011 107.556 39.8674 107.386 40C107.215 40.1307 107.086 40.3087 106.999 40.5341C106.914 40.7595 106.871 41.0114 106.871 41.2898C106.871 41.5758 106.915 41.8267 107.002 42.0426C107.089 42.2585 107.218 42.4271 107.388 42.5483C107.561 42.6695 107.773 42.7301 108.025 42.7301ZM114.411 40.2017L113.641 40.3381C113.609 40.2396 113.558 40.1458 113.488 40.0568C113.42 39.9678 113.327 39.8949 113.21 39.8381C113.092 39.7812 112.945 39.7528 112.769 39.7528C112.529 39.7528 112.328 39.8068 112.167 39.9148C112.006 40.0208 111.925 40.1581 111.925 40.3267C111.925 40.4725 111.979 40.59 112.087 40.679C112.195 40.768 112.37 40.8409 112.61 40.8977L113.303 41.0568C113.705 41.1496 114.004 41.2926 114.201 41.4858C114.398 41.679 114.496 41.9299 114.496 42.2386C114.496 42.5 114.421 42.733 114.269 42.9375C114.12 43.1402 113.91 43.2992 113.641 43.4148C113.374 43.5303 113.065 43.5881 112.712 43.5881C112.224 43.5881 111.825 43.4839 111.516 43.2756C111.208 43.0653 111.018 42.767 110.948 42.3807L111.769 42.2557C111.82 42.4697 111.925 42.6316 112.085 42.7415C112.244 42.8494 112.451 42.9034 112.707 42.9034C112.985 42.9034 113.208 42.8456 113.374 42.7301C113.541 42.6127 113.624 42.4697 113.624 42.3011C113.624 42.1648 113.573 42.0502 113.471 41.9574C113.371 41.8646 113.216 41.7945 113.008 41.7472L112.269 41.5852C111.862 41.4924 111.561 41.3447 111.366 41.142C111.173 40.9394 111.076 40.6828 111.076 40.3722C111.076 40.1146 111.148 39.8892 111.292 39.696C111.436 39.5028 111.635 39.3523 111.888 39.2443C112.142 39.1345 112.433 39.0795 112.761 39.0795C113.232 39.0795 113.603 39.1818 113.874 39.3864C114.145 39.589 114.324 39.8608 114.411 40.2017Z" fill="white"/>
<path d="M155 39.5L157 41.5L159 39.5" stroke="white" stroke-linecap="round"/>
</g>
<g filter="url(#filter1_d_127_276)">
<path d="M39 64.5C39 61.1863 41.6863 58.5 45 58.5H163C166.314 58.5 169 61.1863 169 64.5V124.5C169 127.814 166.314 130.5 163 130.5H45C41.6863 130.5 39 127.814 39 124.5V64.5Z" fill="url(#paint7_linear_127_276)"/>
<path d="M42 67.5C42 64.1863 44.6863 61.5 48 61.5H160C163.314 61.5 166 64.1863 166 67.5V77.5C166 80.8137 163.314 83.5 160 83.5H48C44.6863 83.5 42 80.8137 42 77.5V67.5Z" fill="white" fill-opacity="0.2"/>
<path d="M54.3352 69.6818V75.5H53.5284L50.571 71.233H50.517V75.5H49.6392V69.6818H50.4517L53.4119 73.9545H53.4659V69.6818H54.3352ZM57.4283 75.5881C56.9983 75.5881 56.6281 75.4962 56.3175 75.3125C56.0088 75.1269 55.7701 74.8665 55.6016 74.5312C55.4349 74.1941 55.3516 73.7992 55.3516 73.3466C55.3516 72.8996 55.4349 72.5057 55.6016 72.1648C55.7701 71.8239 56.005 71.5578 56.3061 71.3665C56.6091 71.1752 56.9633 71.0795 57.3686 71.0795C57.6148 71.0795 57.8535 71.1203 58.0845 71.2017C58.3156 71.2831 58.523 71.411 58.7067 71.5852C58.8904 71.7595 59.0353 71.9858 59.1413 72.2642C59.2474 72.5407 59.3004 72.8769 59.3004 73.2727V73.5739H55.8317V72.9375H58.468C58.468 72.714 58.4226 72.5161 58.3317 72.3438C58.2408 72.1695 58.1129 72.0322 57.9482 71.9318C57.7853 71.8314 57.594 71.7812 57.3743 71.7812C57.1357 71.7812 56.9273 71.84 56.7493 71.9574C56.5732 72.0729 56.4368 72.2244 56.3402 72.4119C56.2455 72.5975 56.1982 72.7992 56.1982 73.017V73.5142C56.1982 73.8059 56.2493 74.054 56.3516 74.2585C56.4557 74.4631 56.6006 74.6193 56.7862 74.7273C56.9718 74.8333 57.1887 74.8864 57.4368 74.8864C57.5978 74.8864 57.7446 74.8636 57.8771 74.8182C58.0097 74.7708 58.1243 74.7008 58.2209 74.608C58.3175 74.5152 58.3913 74.4006 58.4425 74.2642L59.2464 74.4091C59.1821 74.6458 59.0665 74.8532 58.8999 75.0312C58.7351 75.2074 58.5277 75.3447 58.2777 75.4432C58.0296 75.5398 57.7464 75.5881 57.4283 75.5881ZM61.1811 75.5L59.897 71.1364H60.7749L61.63 74.3409H61.6726L62.5305 71.1364H63.4084L64.2607 74.3267H64.3033L65.1527 71.1364H66.0305L64.7493 75.5H63.8828L62.9964 72.3494H62.9311L62.0447 75.5H61.1811ZM70.1065 72.2017L69.3366 72.3381C69.3045 72.2396 69.2533 72.1458 69.1832 72.0568C69.1151 71.9678 69.0223 71.8949 68.9048 71.8381C68.7874 71.7812 68.6406 71.7528 68.4645 71.7528C68.224 71.7528 68.0232 71.8068 67.8622 71.9148C67.7012 72.0208 67.6207 72.1581 67.6207 72.3267C67.6207 72.4725 67.6747 72.59 67.7827 72.679C67.8906 72.768 68.0649 72.8409 68.3054 72.8977L68.9986 73.0568C69.4001 73.1496 69.6993 73.2926 69.8963 73.4858C70.0933 73.679 70.1918 73.9299 70.1918 74.2386C70.1918 74.5 70.116 74.733 69.9645 74.9375C69.8149 75.1402 69.6056 75.2992 69.3366 75.4148C69.0696 75.5303 68.7599 75.5881 68.4077 75.5881C67.919 75.5881 67.5204 75.4839 67.2116 75.2756C66.9029 75.0653 66.7135 74.767 66.6435 74.3807L67.4645 74.2557C67.5156 74.4697 67.6207 74.6316 67.7798 74.7415C67.9389 74.8494 68.1463 74.9034 68.402 74.9034C68.6804 74.9034 68.9029 74.8456 69.0696 74.7301C69.2363 74.6127 69.3196 74.4697 69.3196 74.3011C69.3196 74.1648 69.2685 74.0502 69.1662 73.9574C69.0658 73.8646 68.9115 73.7945 68.7031 73.7472L67.9645 73.5852C67.5573 73.4924 67.2562 73.3447 67.0611 73.142C66.8679 72.9394 66.7713 72.6828 66.7713 72.3722C66.7713 72.1146 66.8433 71.8892 66.9872 71.696C67.1312 71.5028 67.33 71.3523 67.5838 71.2443C67.8376 71.1345 68.1283 71.0795 68.456 71.0795C68.9276 71.0795 69.2988 71.1818 69.5696 71.3864C69.8404 71.589 70.0194 71.8608 70.1065 72.2017ZM71.9751 69.6818V75.5H71.1257V69.6818H71.9751ZM74.9986 75.5881C74.5687 75.5881 74.1984 75.4962 73.8878 75.3125C73.5791 75.1269 73.3404 74.8665 73.1719 74.5312C73.0052 74.1941 72.9219 73.7992 72.9219 73.3466C72.9219 72.8996 73.0052 72.5057 73.1719 72.1648C73.3404 71.8239 73.5753 71.5578 73.8764 71.3665C74.1795 71.1752 74.5336 71.0795 74.9389 71.0795C75.1851 71.0795 75.4238 71.1203 75.6548 71.2017C75.8859 71.2831 76.0933 71.411 76.277 71.5852C76.4607 71.7595 76.6056 71.9858 76.7116 72.2642C76.8177 72.5407 76.8707 72.8769 76.8707 73.2727V73.5739H73.402V72.9375H76.0384C76.0384 72.714 75.9929 72.5161 75.902 72.3438C75.8111 72.1695 75.6832 72.0322 75.5185 71.9318C75.3556 71.8314 75.1643 71.7812 74.9446 71.7812C74.706 71.7812 74.4976 71.84 74.3196 71.9574C74.1435 72.0729 74.0071 72.2244 73.9105 72.4119C73.8158 72.5975 73.7685 72.7992 73.7685 73.017V73.5142C73.7685 73.8059 73.8196 74.054 73.9219 74.2585C74.026 74.4631 74.1709 74.6193 74.3565 74.7273C74.5421 74.8333 74.759 74.8864 75.0071 74.8864C75.1681 74.8864 75.3149 74.8636 75.4474 74.8182C75.58 74.7708 75.6946 74.7008 75.7912 74.608C75.8878 74.5152 75.9616 74.4006 76.0128 74.2642L76.8168 74.4091C76.7524 74.6458 76.6368 74.8532 76.4702 75.0312C76.3054 75.2074 76.098 75.3447 75.848 75.4432C75.5999 75.5398 75.3168 75.5881 74.9986 75.5881ZM79.8501 71.1364V71.8182H77.4666V71.1364H79.8501ZM78.1058 70.0909H78.9553V74.2188C78.9553 74.3835 78.9799 74.5076 79.0291 74.5909C79.0784 74.6723 79.1418 74.7282 79.2195 74.7585C79.299 74.7869 79.3852 74.8011 79.478 74.8011C79.5462 74.8011 79.6058 74.7964 79.657 74.7869C79.7081 74.7775 79.7479 74.7699 79.7763 74.7642L79.9297 75.4659C79.8804 75.4848 79.8104 75.5038 79.7195 75.5227C79.6286 75.5436 79.5149 75.5549 79.3786 75.5568C79.1551 75.5606 78.9467 75.5208 78.7536 75.4375C78.5604 75.3542 78.4041 75.2254 78.2848 75.0511C78.1655 74.8769 78.1058 74.6581 78.1058 74.3949V70.0909ZM82.8267 71.1364V71.8182H80.4432V71.1364H82.8267ZM81.0824 70.0909H81.9318V74.2188C81.9318 74.3835 81.9564 74.5076 82.0057 74.5909C82.0549 74.6723 82.1184 74.7282 82.196 74.7585C82.2756 74.7869 82.3617 74.8011 82.4545 74.8011C82.5227 74.8011 82.5824 74.7964 82.6335 74.7869C82.6847 74.7775 82.7244 74.7699 82.7528 74.7642L82.9062 75.4659C82.857 75.4848 82.7869 75.5038 82.696 75.5227C82.6051 75.5436 82.4915 75.5549 82.3551 75.5568C82.1316 75.5606 81.9233 75.5208 81.7301 75.4375C81.5369 75.3542 81.3807 75.2254 81.2614 75.0511C81.142 74.8769 81.0824 74.6581 81.0824 74.3949V70.0909ZM85.6001 75.5881C85.1702 75.5881 84.8 75.4962 84.4893 75.3125C84.1806 75.1269 83.942 74.8665 83.7734 74.5312C83.6068 74.1941 83.5234 73.7992 83.5234 73.3466C83.5234 72.8996 83.6068 72.5057 83.7734 72.1648C83.942 71.8239 84.1768 71.5578 84.478 71.3665C84.781 71.1752 85.1352 71.0795 85.5405 71.0795C85.7867 71.0795 86.0253 71.1203 86.2564 71.2017C86.4875 71.2831 86.6948 71.411 86.8786 71.5852C87.0623 71.7595 87.2071 71.9858 87.3132 72.2642C87.4193 72.5407 87.4723 72.8769 87.4723 73.2727V73.5739H84.0036V72.9375H86.6399C86.6399 72.714 86.5945 72.5161 86.5036 72.3438C86.4126 72.1695 86.2848 72.0322 86.12 71.9318C85.9571 71.8314 85.7659 71.7812 85.5462 71.7812C85.3075 71.7812 85.0992 71.84 84.9212 71.9574C84.745 72.0729 84.6087 72.2244 84.5121 72.4119C84.4174 72.5975 84.37 72.7992 84.37 73.017V73.5142C84.37 73.8059 84.4212 74.054 84.5234 74.2585C84.6276 74.4631 84.7725 74.6193 84.9581 74.7273C85.1437 74.8333 85.3606 74.8864 85.6087 74.8864C85.7696 74.8864 85.9164 74.8636 86.049 74.8182C86.1816 74.7708 86.2962 74.7008 86.3928 74.608C86.4893 74.5152 86.5632 74.4006 86.6143 74.2642L87.4183 74.4091C87.3539 74.6458 87.2384 74.8532 87.0717 75.0312C86.907 75.2074 86.6996 75.3447 86.4496 75.4432C86.2015 75.5398 85.9183 75.5881 85.6001 75.5881ZM88.4148 75.5V71.1364H89.2358V71.8295H89.2812C89.3608 71.5947 89.5009 71.41 89.7017 71.2756C89.9044 71.1392 90.1335 71.071 90.3892 71.071C90.4422 71.071 90.5047 71.0729 90.5767 71.0767C90.6506 71.0805 90.7083 71.0852 90.75 71.0909V71.9034C90.7159 71.8939 90.6553 71.8835 90.5682 71.8722C90.4811 71.8589 90.3939 71.8523 90.3068 71.8523C90.1061 71.8523 89.9271 71.8949 89.7699 71.9801C89.6146 72.0634 89.4915 72.1799 89.4006 72.3295C89.3097 72.4773 89.2642 72.6458 89.2642 72.8352V75.5H88.4148Z" fill="white"/>
<path d="M49.6392 97.5V91.6818H51.7131C52.1657 91.6818 52.5407 91.7642 52.8381 91.929C53.1354 92.0937 53.358 92.3191 53.5057 92.6051C53.6534 92.8892 53.7273 93.2093 53.7273 93.5653C53.7273 93.9233 53.6525 94.2453 53.5028 94.5312C53.3551 94.8153 53.1316 95.0407 52.8324 95.2074C52.535 95.3722 52.161 95.4545 51.7102 95.4545H50.2841V94.7102H51.6307C51.9167 94.7102 52.1487 94.661 52.3267 94.5625C52.5047 94.4621 52.6354 94.3258 52.7188 94.1534C52.8021 93.9811 52.8438 93.785 52.8438 93.5653C52.8438 93.3456 52.8021 93.1506 52.7188 92.9801C52.6354 92.8097 52.5038 92.6761 52.3239 92.5795C52.1458 92.483 51.911 92.4347 51.6193 92.4347H50.517V97.5H49.6392ZM57.4524 95.6903V93.1364H58.3047V97.5H57.4695V96.7443H57.424C57.3236 96.9773 57.1626 97.1714 56.9411 97.3267C56.7214 97.4801 56.4477 97.5568 56.12 97.5568C55.8397 97.5568 55.5916 97.4953 55.3757 97.3722C55.1617 97.2472 54.9931 97.0625 54.87 96.8182C54.7488 96.5739 54.6882 96.2718 54.6882 95.9119V93.1364H55.5376V95.8097C55.5376 96.107 55.62 96.3437 55.7848 96.5199C55.9496 96.696 56.1636 96.7841 56.4268 96.7841C56.5859 96.7841 56.7441 96.7443 56.9013 96.6648C57.0604 96.5852 57.192 96.465 57.2962 96.304C57.4022 96.143 57.4543 95.9384 57.4524 95.6903ZM59.446 97.5V93.1364H60.267V93.8295H60.3125C60.392 93.5947 60.5322 93.41 60.733 93.2756C60.9356 93.1392 61.1648 93.071 61.4205 93.071C61.4735 93.071 61.536 93.0729 61.608 93.0767C61.6818 93.0805 61.7396 93.0852 61.7812 93.0909V93.9034C61.7472 93.8939 61.6866 93.8835 61.5994 93.8722C61.5123 93.8589 61.4252 93.8523 61.3381 93.8523C61.1373 93.8523 60.9583 93.8949 60.8011 93.9801C60.6458 94.0634 60.5227 94.1799 60.4318 94.3295C60.3409 94.4773 60.2955 94.6458 60.2955 94.8352V97.5H59.446ZM64.1982 97.5881C63.7758 97.5881 63.4122 97.4924 63.1072 97.3011C62.8042 97.108 62.5713 96.8419 62.4084 96.5028C62.2455 96.1638 62.1641 95.7756 62.1641 95.3381C62.1641 94.8949 62.2474 94.5038 62.4141 94.1648C62.5807 93.8239 62.8156 93.5578 63.1186 93.3665C63.4216 93.1752 63.7786 93.0795 64.1896 93.0795C64.5211 93.0795 64.8165 93.1411 65.076 93.2642C65.3355 93.3854 65.5447 93.5559 65.7038 93.7756C65.8648 93.9953 65.9605 94.2519 65.9908 94.5455H65.1641C65.1186 94.3409 65.0144 94.1648 64.8516 94.017C64.6906 93.8693 64.4747 93.7955 64.2038 93.7955C63.9671 93.7955 63.7597 93.858 63.5817 93.983C63.4055 94.1061 63.2682 94.2822 63.1697 94.5114C63.0713 94.7386 63.022 95.0076 63.022 95.3182C63.022 95.6364 63.0703 95.911 63.1669 96.142C63.2635 96.3731 63.3999 96.5521 63.576 96.679C63.754 96.8059 63.9633 96.8693 64.2038 96.8693C64.3648 96.8693 64.5107 96.84 64.6413 96.7812C64.7739 96.7206 64.8847 96.6345 64.9737 96.5227C65.0646 96.411 65.1281 96.2765 65.1641 96.1193H65.9908C65.9605 96.4015 65.8686 96.6534 65.7152 96.875C65.5618 97.0966 65.3563 97.2708 65.0987 97.3977C64.843 97.5246 64.5429 97.5881 64.1982 97.5881ZM67.7486 94.9091V97.5H66.8991V91.6818H67.7372V93.8466H67.7912C67.8935 93.6117 68.0497 93.4252 68.2599 93.2869C68.4702 93.1487 68.7448 93.0795 69.0838 93.0795C69.383 93.0795 69.6444 93.1411 69.8679 93.2642C70.0933 93.3873 70.2675 93.571 70.3906 93.8153C70.5156 94.0578 70.5781 94.3608 70.5781 94.7244V97.5H69.7287V94.8267C69.7287 94.5066 69.6463 94.2585 69.4815 94.0824C69.3168 93.9044 69.0876 93.8153 68.794 93.8153C68.5933 93.8153 68.4134 93.858 68.2543 93.9432C68.0971 94.0284 67.973 94.1534 67.8821 94.3182C67.7931 94.4811 67.7486 94.678 67.7486 94.9091ZM72.9815 97.5966C72.705 97.5966 72.455 97.5455 72.2315 97.4432C72.008 97.339 71.831 97.1884 71.7003 96.9915C71.5715 96.7945 71.5071 96.553 71.5071 96.267C71.5071 96.0208 71.5545 95.8182 71.6491 95.6591C71.7438 95.5 71.8717 95.3741 72.0327 95.2812C72.1937 95.1884 72.3736 95.1184 72.5724 95.071C72.7713 95.0237 72.974 94.9877 73.1804 94.9631C73.4418 94.9328 73.6539 94.9081 73.8168 94.8892C73.9796 94.8684 74.098 94.8352 74.1719 94.7898C74.2457 94.7443 74.2827 94.6705 74.2827 94.5682V94.5483C74.2827 94.3002 74.2126 94.108 74.0724 93.9716C73.9342 93.8352 73.7277 93.767 73.4531 93.767C73.1671 93.767 72.9418 93.8305 72.777 93.9574C72.6141 94.0824 72.5014 94.2216 72.4389 94.375L71.6406 94.1932C71.7353 93.928 71.8736 93.714 72.0554 93.5511C72.2391 93.3864 72.4503 93.267 72.6889 93.1932C72.9276 93.1174 73.1785 93.0795 73.4418 93.0795C73.616 93.0795 73.8007 93.1004 73.9957 93.142C74.1927 93.1818 74.3764 93.2557 74.5469 93.3636C74.7192 93.4716 74.8603 93.6259 74.9702 93.8267C75.08 94.0256 75.1349 94.2841 75.1349 94.6023V97.5H74.3054V96.9034H74.2713C74.2164 97.0133 74.134 97.1212 74.0241 97.2273C73.9143 97.3333 73.7732 97.4214 73.6009 97.4915C73.4285 97.5616 73.2221 97.5966 72.9815 97.5966ZM73.1662 96.9148C73.401 96.9148 73.6018 96.8684 73.7685 96.7756C73.937 96.6828 74.0649 96.5616 74.152 96.4119C74.241 96.2604 74.2855 96.0985 74.2855 95.9261V95.3636C74.2552 95.3939 74.1965 95.4223 74.1094 95.4489C74.0241 95.4735 73.9266 95.4953 73.8168 95.5142C73.7069 95.5312 73.5999 95.5473 73.4957 95.5625C73.3916 95.5758 73.3045 95.5871 73.2344 95.5966C73.0696 95.6174 72.919 95.6525 72.7827 95.7017C72.6482 95.7509 72.5402 95.822 72.4588 95.9148C72.3793 96.0057 72.3395 96.1269 72.3395 96.2784C72.3395 96.4886 72.4171 96.6477 72.5724 96.7557C72.7277 96.8617 72.9257 96.9148 73.1662 96.9148ZM79.5362 94.2017L78.7663 94.3381C78.7341 94.2396 78.683 94.1458 78.6129 94.0568C78.5447 93.9678 78.4519 93.8949 78.3345 93.8381C78.2171 93.7812 78.0703 93.7528 77.8942 93.7528C77.6536 93.7528 77.4529 93.8068 77.2919 93.9148C77.1309 94.0208 77.0504 94.1581 77.0504 94.3267C77.0504 94.4725 77.1044 94.59 77.2124 94.679C77.3203 94.768 77.4946 94.8409 77.7351 94.8977L78.4283 95.0568C78.8298 95.1496 79.129 95.2926 79.326 95.4858C79.523 95.679 79.6214 95.9299 79.6214 96.2386C79.6214 96.5 79.5457 96.733 79.3942 96.9375C79.2446 97.1402 79.0353 97.2992 78.7663 97.4148C78.4993 97.5303 78.1896 97.5881 77.8374 97.5881C77.3487 97.5881 76.95 97.4839 76.6413 97.2756C76.3326 97.0653 76.1432 96.767 76.0732 96.3807L76.8942 96.2557C76.9453 96.4697 77.0504 96.6316 77.2095 96.7415C77.3686 96.8494 77.576 96.9034 77.8317 96.9034C78.1101 96.9034 78.3326 96.8456 78.4993 96.7301C78.666 96.6127 78.7493 96.4697 78.7493 96.3011C78.7493 96.1648 78.6982 96.0502 78.5959 95.9574C78.4955 95.8646 78.3411 95.7945 78.1328 95.7472L77.3942 95.5852C76.987 95.4924 76.6858 95.3447 76.4908 95.142C76.2976 94.9394 76.201 94.6828 76.201 94.3722C76.201 94.1146 76.273 93.8892 76.4169 93.696C76.5608 93.5028 76.7597 93.3523 77.0135 93.2443C77.2673 93.1345 77.558 93.0795 77.8857 93.0795C78.3572 93.0795 78.7285 93.1818 78.9993 93.3864C79.2701 93.589 79.4491 93.8608 79.5362 94.2017ZM82.4361 97.5881C82.0062 97.5881 81.6359 97.4962 81.3253 97.3125C81.0166 97.1269 80.7779 96.8665 80.6094 96.5312C80.4427 96.1941 80.3594 95.7992 80.3594 95.3466C80.3594 94.8996 80.4427 94.5057 80.6094 94.1648C80.7779 93.8239 81.0128 93.5578 81.3139 93.3665C81.617 93.1752 81.9711 93.0795 82.3764 93.0795C82.6226 93.0795 82.8613 93.1203 83.0923 93.2017C83.3234 93.2831 83.5308 93.411 83.7145 93.5852C83.8982 93.7595 84.0431 93.9858 84.1491 94.2642C84.2552 94.5407 84.3082 94.8769 84.3082 95.2727V95.5739H80.8395V94.9375H83.4759C83.4759 94.714 83.4304 94.5161 83.3395 94.3438C83.2486 94.1695 83.1207 94.0322 82.956 93.9318C82.7931 93.8314 82.6018 93.7812 82.3821 93.7812C82.1435 93.7812 81.9351 93.84 81.7571 93.9574C81.581 94.0729 81.4446 94.2244 81.348 94.4119C81.2533 94.5975 81.206 94.7992 81.206 95.017V95.5142C81.206 95.8059 81.2571 96.054 81.3594 96.2585C81.4635 96.4631 81.6084 96.6193 81.794 96.7273C81.9796 96.8333 82.1965 96.8864 82.4446 96.8864C82.6056 96.8864 82.7524 96.8636 82.8849 96.8182C83.0175 96.7708 83.1321 96.7008 83.2287 96.608C83.3253 96.5152 83.3991 96.4006 83.4503 96.2642L84.2543 96.4091C84.1899 96.6458 84.0743 96.8532 83.9077 97.0312C83.7429 97.2074 83.5355 97.3447 83.2855 97.4432C83.0374 97.5398 82.7543 97.5881 82.4361 97.5881ZM88.5206 94.2017L87.7507 94.3381C87.7185 94.2396 87.6674 94.1458 87.5973 94.0568C87.5291 93.9678 87.4363 93.8949 87.3189 93.8381C87.2015 93.7812 87.0547 93.7528 86.8786 93.7528C86.638 93.7528 86.4373 93.8068 86.2763 93.9148C86.1153 94.0208 86.0348 94.1581 86.0348 94.3267C86.0348 94.4725 86.0888 94.59 86.1967 94.679C86.3047 94.768 86.4789 94.8409 86.7195 94.8977L87.4126 95.0568C87.8142 95.1496 88.1134 95.2926 88.3104 95.4858C88.5073 95.679 88.6058 95.9299 88.6058 96.2386C88.6058 96.5 88.5301 96.733 88.3786 96.9375C88.2289 97.1402 88.0196 97.2992 87.7507 97.4148C87.4837 97.5303 87.174 97.5881 86.8217 97.5881C86.3331 97.5881 85.9344 97.4839 85.6257 97.2756C85.317 97.0653 85.1276 96.767 85.0575 96.3807L85.8786 96.2557C85.9297 96.4697 86.0348 96.6316 86.1939 96.7415C86.353 96.8494 86.5604 96.9034 86.8161 96.9034C87.0945 96.9034 87.317 96.8456 87.4837 96.7301C87.6503 96.6127 87.7337 96.4697 87.7337 96.3011C87.7337 96.1648 87.6825 96.0502 87.5803 95.9574C87.4799 95.8646 87.3255 95.7945 87.1172 95.7472L86.3786 95.5852C85.9714 95.4924 85.6702 95.3447 85.4751 95.142C85.282 94.9394 85.1854 94.6828 85.1854 94.3722C85.1854 94.1146 85.2573 93.8892 85.4013 93.696C85.5452 93.5028 85.7441 93.3523 85.9979 93.2443C86.2517 93.1345 86.5424 93.0795 86.87 93.0795C87.3416 93.0795 87.7128 93.1818 87.9837 93.3864C88.2545 93.589 88.4335 93.8608 88.5206 94.2017Z" fill="white"/>
<path d="M51.5227 119.5H49.6392V113.682H51.5824C52.1525 113.682 52.642 113.798 53.0511 114.031C53.4602 114.262 53.7737 114.595 53.9915 115.028C54.2112 115.46 54.321 115.978 54.321 116.582C54.321 117.188 54.2102 117.709 53.9886 118.145C53.7689 118.58 53.4508 118.916 53.0341 119.151C52.6174 119.384 52.1136 119.5 51.5227 119.5ZM50.517 118.733H51.4744C51.9176 118.733 52.286 118.65 52.5795 118.483C52.8731 118.314 53.0928 118.071 53.2386 117.753C53.3845 117.433 53.4574 117.043 53.4574 116.582C53.4574 116.126 53.3845 115.739 53.2386 115.42C53.0947 115.102 52.8797 114.861 52.5938 114.696C52.3078 114.531 51.9527 114.449 51.5284 114.449H50.517V118.733ZM57.1825 119.588C56.7734 119.588 56.4164 119.494 56.1115 119.307C55.8066 119.119 55.5698 118.857 55.4013 118.52C55.2327 118.183 55.1484 117.789 55.1484 117.338C55.1484 116.885 55.2327 116.49 55.4013 116.151C55.5698 115.812 55.8066 115.548 56.1115 115.361C56.4164 115.173 56.7734 115.08 57.1825 115.08C57.5916 115.08 57.9486 115.173 58.2536 115.361C58.5585 115.548 58.7952 115.812 58.9638 116.151C59.1323 116.49 59.2166 116.885 59.2166 117.338C59.2166 117.789 59.1323 118.183 58.9638 118.52C58.7952 118.857 58.5585 119.119 58.2536 119.307C57.9486 119.494 57.5916 119.588 57.1825 119.588ZM57.1854 118.875C57.4505 118.875 57.6702 118.805 57.8445 118.665C58.0187 118.525 58.1475 118.338 58.2308 118.105C58.3161 117.872 58.3587 117.616 58.3587 117.335C58.3587 117.057 58.3161 116.801 58.2308 116.568C58.1475 116.333 58.0187 116.145 57.8445 116.003C57.6702 115.861 57.4505 115.79 57.1854 115.79C56.9183 115.79 56.6967 115.861 56.5206 116.003C56.3464 116.145 56.2166 116.333 56.1314 116.568C56.0481 116.801 56.0064 117.057 56.0064 117.335C56.0064 117.616 56.0481 117.872 56.1314 118.105C56.2166 118.338 56.3464 118.525 56.5206 118.665C56.6967 118.805 56.9183 118.875 57.1854 118.875ZM60.978 119.5L59.6939 115.136H60.5717L61.4268 118.341H61.4695L62.3274 115.136H63.2053L64.0575 118.327H64.1001L64.9496 115.136H65.8274L64.5462 119.5H63.6797L62.7933 116.349H62.728L61.8416 119.5H60.978ZM67.483 116.909V119.5H66.6335V115.136H67.4489V115.847H67.5028C67.6032 115.616 67.7604 115.43 67.9744 115.29C68.1903 115.15 68.4621 115.08 68.7898 115.08C69.0871 115.08 69.3475 115.142 69.571 115.267C69.7945 115.39 69.9678 115.574 70.0909 115.818C70.214 116.062 70.2756 116.365 70.2756 116.724V119.5H69.4261V116.827C69.4261 116.51 69.3438 116.263 69.179 116.085C69.0142 115.905 68.7879 115.815 68.5 115.815C68.303 115.815 68.1278 115.858 67.9744 115.943C67.8229 116.028 67.7027 116.153 67.6136 116.318C67.5265 116.481 67.483 116.678 67.483 116.909ZM72.2642 113.682V119.5H71.4148V113.682H72.2642ZM75.245 119.588C74.8359 119.588 74.4789 119.494 74.174 119.307C73.8691 119.119 73.6323 118.857 73.4638 118.52C73.2952 118.183 73.2109 117.789 73.2109 117.338C73.2109 116.885 73.2952 116.49 73.4638 116.151C73.6323 115.812 73.8691 115.548 74.174 115.361C74.4789 115.173 74.8359 115.08 75.245 115.08C75.6541 115.08 76.0111 115.173 76.3161 115.361C76.621 115.548 76.8577 115.812 77.0263 116.151C77.1948 116.49 77.2791 116.885 77.2791 117.338C77.2791 117.789 77.1948 118.183 77.0263 118.52C76.8577 118.857 76.621 119.119 76.3161 119.307C76.0111 119.494 75.6541 119.588 75.245 119.588ZM75.2479 118.875C75.513 118.875 75.7327 118.805 75.907 118.665C76.0812 118.525 76.21 118.338 76.2933 118.105C76.3786 117.872 76.4212 117.616 76.4212 117.335C76.4212 117.057 76.3786 116.801 76.2933 116.568C76.21 116.333 76.0812 116.145 75.907 116.003C75.7327 115.861 75.513 115.79 75.2479 115.79C74.9808 115.79 74.7592 115.861 74.5831 116.003C74.4089 116.145 74.2791 116.333 74.1939 116.568C74.1106 116.801 74.0689 117.057 74.0689 117.335C74.0689 117.616 74.1106 117.872 74.1939 118.105C74.2791 118.338 74.4089 118.525 74.5831 118.665C74.7592 118.805 74.9808 118.875 75.2479 118.875ZM79.4972 119.597C79.2206 119.597 78.9706 119.545 78.7472 119.443C78.5237 119.339 78.3466 119.188 78.2159 118.991C78.0871 118.795 78.0227 118.553 78.0227 118.267C78.0227 118.021 78.0701 117.818 78.1648 117.659C78.2595 117.5 78.3873 117.374 78.5483 117.281C78.7093 117.188 78.8892 117.118 79.0881 117.071C79.2869 117.024 79.4896 116.988 79.696 116.963C79.9574 116.933 80.1695 116.908 80.3324 116.889C80.4953 116.868 80.6136 116.835 80.6875 116.79C80.7614 116.744 80.7983 116.67 80.7983 116.568V116.548C80.7983 116.3 80.7282 116.108 80.5881 115.972C80.4498 115.835 80.2434 115.767 79.9688 115.767C79.6828 115.767 79.4574 115.83 79.2926 115.957C79.1297 116.082 79.017 116.222 78.9545 116.375L78.1562 116.193C78.2509 115.928 78.3892 115.714 78.571 115.551C78.7547 115.386 78.9659 115.267 79.2045 115.193C79.4432 115.117 79.6941 115.08 79.9574 115.08C80.1316 115.08 80.3163 115.1 80.5114 115.142C80.7083 115.182 80.892 115.256 81.0625 115.364C81.2348 115.472 81.3759 115.626 81.4858 115.827C81.5956 116.026 81.6506 116.284 81.6506 116.602V119.5H80.821V118.903H80.7869C80.732 119.013 80.6496 119.121 80.5398 119.227C80.4299 119.333 80.2888 119.421 80.1165 119.491C79.9441 119.562 79.7377 119.597 79.4972 119.597ZM79.6818 118.915C79.9167 118.915 80.1174 118.868 80.2841 118.776C80.4527 118.683 80.5805 118.562 80.6676 118.412C80.7566 118.26 80.8011 118.098 80.8011 117.926V117.364C80.7708 117.394 80.7121 117.422 80.625 117.449C80.5398 117.473 80.4422 117.495 80.3324 117.514C80.2225 117.531 80.1155 117.547 80.0114 117.562C79.9072 117.576 79.8201 117.587 79.75 117.597C79.5852 117.617 79.4347 117.652 79.2983 117.702C79.1638 117.751 79.0559 117.822 78.9744 117.915C78.8949 118.006 78.8551 118.127 78.8551 118.278C78.8551 118.489 78.9328 118.648 79.0881 118.756C79.2434 118.862 79.4413 118.915 79.6818 118.915ZM84.4155 119.585C84.0632 119.585 83.7488 119.495 83.4723 119.315C83.1977 119.134 82.9818 118.875 82.8246 118.54C82.6693 118.203 82.5916 117.798 82.5916 117.327C82.5916 116.855 82.6702 116.452 82.8274 116.116C82.9865 115.781 83.2043 115.525 83.4808 115.347C83.7573 115.169 84.0708 115.08 84.4212 115.08C84.692 115.08 84.9098 115.125 85.0746 115.216C85.2412 115.305 85.37 115.409 85.4609 115.528C85.5537 115.648 85.6257 115.753 85.6768 115.844H85.728V113.682H86.5774V119.5H85.7479V118.821H85.6768C85.6257 118.914 85.5518 119.02 85.4553 119.139C85.3606 119.259 85.2299 119.363 85.0632 119.452C84.8965 119.541 84.6806 119.585 84.4155 119.585ZM84.603 118.861C84.8473 118.861 85.0537 118.796 85.2223 118.668C85.3928 118.537 85.5215 118.356 85.6087 118.125C85.6977 117.894 85.7422 117.625 85.7422 117.318C85.7422 117.015 85.6986 116.75 85.6115 116.523C85.5244 116.295 85.3965 116.118 85.228 115.991C85.0594 115.865 84.8511 115.801 84.603 115.801C84.3473 115.801 84.1342 115.867 83.9638 116C83.7933 116.133 83.6645 116.313 83.5774 116.543C83.4922 116.772 83.4496 117.03 83.4496 117.318C83.4496 117.61 83.4931 117.872 83.5803 118.105C83.6674 118.338 83.7962 118.523 83.9666 118.659C84.139 118.794 84.3511 118.861 84.603 118.861ZM91.0597 116.202L90.2898 116.338C90.2576 116.24 90.2064 116.146 90.1364 116.057C90.0682 115.968 89.9754 115.895 89.858 115.838C89.7405 115.781 89.5938 115.753 89.4176 115.753C89.1771 115.753 88.9763 115.807 88.8153 115.915C88.6544 116.021 88.5739 116.158 88.5739 116.327C88.5739 116.473 88.6278 116.59 88.7358 116.679C88.8438 116.768 89.018 116.841 89.2585 116.898L89.9517 117.057C90.3532 117.15 90.6525 117.293 90.8494 117.486C91.0464 117.679 91.1449 117.93 91.1449 118.239C91.1449 118.5 91.0691 118.733 90.9176 118.938C90.768 119.14 90.5587 119.299 90.2898 119.415C90.0227 119.53 89.7131 119.588 89.3608 119.588C88.8722 119.588 88.4735 119.484 88.1648 119.276C87.8561 119.065 87.6667 118.767 87.5966 118.381L88.4176 118.256C88.4688 118.47 88.5739 118.632 88.733 118.741C88.892 118.849 89.0994 118.903 89.3551 118.903C89.6335 118.903 89.8561 118.846 90.0227 118.73C90.1894 118.613 90.2727 118.47 90.2727 118.301C90.2727 118.165 90.2216 118.05 90.1193 117.957C90.0189 117.865 89.8646 117.795 89.6562 117.747L88.9176 117.585C88.5104 117.492 88.2093 117.345 88.0142 117.142C87.821 116.939 87.7244 116.683 87.7244 116.372C87.7244 116.115 87.7964 115.889 87.9403 115.696C88.0843 115.503 88.2831 115.352 88.5369 115.244C88.7907 115.134 89.0814 115.08 89.4091 115.08C89.8807 115.08 90.2519 115.182 90.5227 115.386C90.7936 115.589 90.9725 115.861 91.0597 116.202Z" fill="white"/>
</g>
<path d="M5 130.5H203" stroke="url(#paint8_linear_127_276)"/>
<path d="M10 135.5H198" stroke="url(#paint9_linear_127_276)"/>
<defs>
<filter id="filter0_d_127_276" x="27" y="21.5" width="154" height="50" filterUnits="userSpaceOnUse" color-interpolation-filters="sRGB">
<feFlood flood-opacity="0" result="BackgroundImageFix"/>
<feColorMatrix in="SourceAlpha" type="matrix" values="0 0 0 0 0 0 0 0 0 0 0 0 0 0 0 0 0 0 127 0" result="hardAlpha"/>
<feOffset dy="6"/>
<feGaussianBlur stdDeviation="6"/>
<feComposite in2="hardAlpha" operator="out"/>
<feColorMatrix type="matrix" values="0 0 0 0 0 0 0 0 0 0 0 0 0 0 0 0 0 0 0.03 0"/>
<feBlend mode="normal" in2="BackgroundImageFix" result="effect1_dropShadow_127_276"/>
<feBlend mode="normal" in="SourceGraphic" in2="effect1_dropShadow_127_276" result="shape"/>
</filter>
<filter id="filter1_d_127_276" x="27" y="52.5" width="154" height="96" filterUnits="userSpaceOnUse" color-interpolation-filters="sRGB">
<feFlood flood-opacity="0" result="BackgroundImageFix"/>
<feColorMatrix in="SourceAlpha" type="matrix" values="0 0 0 0 0 0 0 0 0 0 0 0 0 0 0 0 0 0 127 0" result="hardAlpha"/>
<feOffset dy="6"/>
<feGaussianBlur stdDeviation="6"/>
<feComposite in2="hardAlpha" operator="out"/>
<feColorMatrix type="matrix" values="0 0 0 0 0 0 0 0 0 0 0 0 0 0 0 0 0 0 0.03 0"/>
<feBlend mode="normal" in2="BackgroundImageFix" result="effect1_dropShadow_127_276"/>
<feBlend mode="normal" in="SourceGraphic" in2="effect1_dropShadow_127_276" result="shape"/>
</filter>
<linearGradient id="paint0_linear_127_276" x1="33.5" y1="153" x2="33.5" y2="5" gradientUnits="userSpaceOnUse">
<stop offset="0%" stop-color="#E2E8F0" stop-opacity="0"/>
<stop offset="0.185417" stop-color="#E2E8F0"/>
<stop offset="0.826042" stop-color="#E2E8F0"/>
<stop offset="1" stop-color="#E2E8F0" stop-opacity="0"/>
</linearGradient>
<linearGradient id="paint1_linear_127_276" x1="38.5" y1="158" x2="38.5" y2="-2.74062e-08" gradientUnits="userSpaceOnUse">
<stop offset="0%" stop-color="#E2E8F0" stop-opacity="0"/>
<stop offset="0.185417" stop-color="#E2E8F0"/>
<stop offset="0.826042" stop-color="#E2E8F0"/>
<stop offset="1" stop-color="#E2E8F0" stop-opacity="0"/>
</linearGradient>
<linearGradient id="paint2_linear_127_276" x1="170.5" y1="2.74063e-08" x2="170.5" y2="158" gradientUnits="userSpaceOnUse">
<stop offset="0%" stop-color="#E2E8F0" stop-opacity="0"/>
<stop offset="0.185417" stop-color="#E2E8F0"/>
<stop offset="0.826042" stop-color="#E2E8F0"/>
<stop offset="1" stop-color="#E2E8F0" stop-opacity="0"/>
</linearGradient>
<linearGradient id="paint3_linear_127_276" x1="175.5" y1="5" x2="175.5" y2="153" gradientUnits="userSpaceOnUse">
<stop offset="0%" stop-color="#E2E8F0" stop-opacity="0"/>
<stop offset="0.185417" stop-color="#E2E8F0"/>
<stop offset="0.826042" stop-color="#E2E8F0"/>
<stop offset="1" stop-color="#E2E8F0" stop-opacity="0"/>
</linearGradient>
<linearGradient id="paint4_linear_127_276" x1="199.899" y1="23" x2="10" y2="22.9999" gradientUnits="userSpaceOnUse">
<stop offset="0%" stop-color="#E2E8F0" stop-opacity="0"/>
<stop offset="0.185417" stop-color="#E2E8F0"/>
<stop offset="0.826042" stop-color="#E2E8F0"/>
<stop offset="1" stop-color="#E2E8F0" stop-opacity="0"/>
</linearGradient>
<linearGradient id="paint5_linear_127_276" x1="205" y1="28" x2="5" y2="27.9999" gradientUnits="userSpaceOnUse">
<stop offset="0%" stop-color="#E2E8F0" stop-opacity="0"/>
<stop offset="0.185417" stop-color="#E2E8F0"/>
<stop offset="0.826042" stop-color="#E2E8F0"/>
<stop offset="1" stop-color="#E2E8F0" stop-opacity="0"/>
</linearGradient>
<linearGradient id="paint6_linear_127_276" x1="58.3143" y1="30.204" x2="78.5682" y2="85.6942" gradientUnits="userSpaceOnUse">
<stop offset="0%" stop-color="#A855F7"/>
<stop offset="1" stop-color="#3B82F6"/>
</linearGradient>
<linearGradient id="paint7_linear_127_276" x1="58.3143" y1="65.988" x2="145.378" y2="152.124" gradientUnits="userSpaceOnUse">
<stop offset="0%" stop-color="#A855F7"/>
<stop offset="1" stop-color="#3B82F6"/>
</linearGradient>
<linearGradient id="paint8_linear_127_276" x1="205" y1="131" x2="5" y2="131" gradientUnits="userSpaceOnUse">
<stop offset="0%" stop-color="#E2E8F0" stop-opacity="0"/>
<stop offset="0.185417" stop-color="#E2E8F0"/>
<stop offset="0.826042" stop-color="#E2E8F0"/>
<stop offset="1" stop-color="#E2E8F0" stop-opacity="0"/>
</linearGradient>
<linearGradient id="paint9_linear_127_276" x1="199.899" y1="136" x2="10" y2="136" gradientUnits="userSpaceOnUse">
<stop offset="0%" stop-color="#E2E8F0" stop-opacity="0"/>
<stop offset="0.185417" stop-color="#E2E8F0"/>
<stop offset="0.826042" stop-color="#E2E8F0"/>
<stop offset="1" stop-color="#E2E8F0" stop-opacity="0"/>
</linearGradient>
</defs>
</svg>
