<svg width="208" height="158" viewBox="0 0 208 158" fill="none" xmlns="http://www.w3.org/2000/svg">
<path d="M27 153L27 5" stroke="url(#paint0_linear_2641_2132)"/>
<path d="M32 158L32 -5.24521e-06" stroke="url(#paint1_linear_2641_2132)"/>
<path d="M176 0L176 158" stroke="url(#paint2_linear_2641_2132)"/>
<path d="M181 5L181 153" stroke="url(#paint3_linear_2641_2132)"/>
<path d="M10 30H198" stroke="url(#paint4_linear_2641_2132)"/>
<path d="M5 35H203" stroke="url(#paint5_linear_2641_2132)"/>
<path d="M32 43C32 38.5817 35.5817 35 40 35H168C172.418 35 176 38.5817 176 43V115C176 119.418 172.418 123 168 123H40C35.5817 123 32 119.418 32 115V43Z" fill="url(#paint6_linear_2641_2132)"/>
<path d="M91 63C91 55.8203 96.8203 50 104 50V50C111.18 50 117 55.8203 117 63V63C117 70.1797 111.18 76 104 76V76C96.8203 76 91 70.1797 91 63V63Z" fill="white" fill-opacity="0.1"/>
<path d="M110 65V67.6667C110 68.0203 109.86 68.3594 109.609 68.6095C109.359 68.8595 109.02 69 108.667 69H99.3333C98.9797 69 98.6406 68.8595 98.3905 68.6095C98.1405 68.3594 98 68.0203 98 67.6667V65" stroke="white" stroke-linecap="round" stroke-linejoin="round"/>
<path d="M107.333 60.3333L104 57L100.667 60.3333" stroke="white" stroke-linecap="round" stroke-linejoin="round"/>
<path d="M104 57V65" stroke="white" stroke-linecap="round" stroke-linejoin="round"/>
<path d="M50.5455 94H48.5739V88.1818H50.5852C51.1629 88.1818 51.6591 88.2983 52.0739 88.5312C52.4905 88.7623 52.8106 89.0947 53.0341 89.5284C53.2576 89.9621 53.3693 90.4811 53.3693 91.0852C53.3693 91.6913 53.2566 92.2121 53.0312 92.6477C52.8078 93.0833 52.4848 93.4176 52.0625 93.6506C51.642 93.8835 51.1364 94 50.5455 94ZM49.6278 93.0881H50.4943C50.8996 93.0881 51.2377 93.0142 51.5085 92.8665C51.7794 92.7169 51.983 92.4943 52.1193 92.1989C52.2557 91.9015 52.3239 91.5303 52.3239 91.0852C52.3239 90.6402 52.2557 90.2708 52.1193 89.9773C51.983 89.6818 51.7813 89.4612 51.5142 89.3153C51.2491 89.1676 50.9195 89.0938 50.5256 89.0938H49.6278V93.0881ZM54.3253 94V89.6364H55.3224V90.3636H55.3679C55.4474 90.1117 55.5838 89.9176 55.777 89.7812C55.9721 89.643 56.1946 89.5739 56.4446 89.5739C56.5014 89.5739 56.5649 89.5767 56.6349 89.5824C56.7069 89.5862 56.7666 89.5928 56.8139 89.6023V90.5483C56.7704 90.5331 56.7012 90.5199 56.6065 90.5085C56.5137 90.4953 56.4238 90.4886 56.3366 90.4886C56.1491 90.4886 55.9806 90.5294 55.831 90.6108C55.6832 90.6903 55.5668 90.8011 55.4815 90.9432C55.3963 91.0852 55.3537 91.2491 55.3537 91.4347V94H54.3253ZM59.2209 94.0852C58.7947 94.0852 58.4254 93.9915 58.1129 93.804C57.8004 93.6165 57.558 93.3542 57.3857 93.017C57.2152 92.6799 57.13 92.286 57.13 91.8352C57.13 91.3845 57.2152 90.9896 57.3857 90.6506C57.558 90.3116 57.8004 90.0483 58.1129 89.8608C58.4254 89.6733 58.7947 89.5795 59.2209 89.5795C59.647 89.5795 60.0163 89.6733 60.3288 89.8608C60.6413 90.0483 60.8828 90.3116 61.0533 90.6506C61.2256 90.9896 61.3118 91.3845 61.3118 91.8352C61.3118 92.286 61.2256 92.6799 61.0533 93.017C60.8828 93.3542 60.6413 93.6165 60.3288 93.804C60.0163 93.9915 59.647 94.0852 59.2209 94.0852ZM59.2266 93.2614C59.4576 93.2614 59.6508 93.1979 59.8061 93.071C59.9614 92.9422 60.0769 92.7699 60.1527 92.554C60.2304 92.3381 60.2692 92.0975 60.2692 91.8324C60.2692 91.5653 60.2304 91.3239 60.1527 91.108C60.0769 90.8902 59.9614 90.7169 59.8061 90.5881C59.6508 90.4593 59.4576 90.3949 59.2266 90.3949C58.9898 90.3949 58.7929 90.4593 58.6357 90.5881C58.4804 90.7169 58.3639 90.8902 58.2862 91.108C58.2105 91.3239 58.1726 91.5653 58.1726 91.8324C58.1726 92.0975 58.2105 92.3381 58.2862 92.554C58.3639 92.7699 58.4804 92.9422 58.6357 93.071C58.7929 93.1979 58.9898 93.2614 59.2266 93.2614ZM62.1847 95.6364V89.6364H63.196V90.358H63.2557C63.3087 90.2519 63.3835 90.1392 63.4801 90.0199C63.5767 89.8987 63.7074 89.7955 63.8722 89.7102C64.0369 89.6231 64.2472 89.5795 64.5028 89.5795C64.84 89.5795 65.1439 89.6657 65.4148 89.8381C65.6875 90.0085 65.9034 90.2614 66.0625 90.5966C66.2235 90.9299 66.304 91.339 66.304 91.8239C66.304 92.303 66.2254 92.7102 66.0682 93.0455C65.911 93.3807 65.697 93.6364 65.4261 93.8125C65.1553 93.9886 64.8485 94.0767 64.5057 94.0767C64.2557 94.0767 64.0483 94.035 63.8835 93.9517C63.7188 93.8684 63.5862 93.768 63.4858 93.6506C63.3873 93.5312 63.3106 93.4186 63.2557 93.3125H63.2131V95.6364H62.1847ZM63.1932 91.8182C63.1932 92.1004 63.233 92.3475 63.3125 92.5597C63.3939 92.7718 63.5104 92.9375 63.6619 93.0568C63.8153 93.1742 64.0009 93.233 64.2188 93.233C64.446 93.233 64.6364 93.1723 64.7898 93.0511C64.9432 92.928 65.0587 92.7604 65.1364 92.5483C65.2159 92.3343 65.2557 92.0909 65.2557 91.8182C65.2557 91.5473 65.2169 91.3068 65.1392 91.0966C65.0616 90.8864 64.946 90.7216 64.7926 90.6023C64.6392 90.483 64.4479 90.4233 64.2188 90.4233C63.9991 90.4233 63.8125 90.4811 63.6591 90.5966C63.5057 90.7121 63.3892 90.8741 63.3097 91.0824C63.232 91.2907 63.1932 91.536 63.1932 91.8182ZM69.8082 95.6364C69.6681 95.6364 69.5384 95.625 69.419 95.6023C69.3016 95.5814 69.2079 95.5568 69.1378 95.5284L69.3764 94.7273C69.526 94.7708 69.6596 94.7917 69.777 94.7898C69.8944 94.7879 69.9976 94.7509 70.0866 94.679C70.1776 94.6089 70.2543 94.4915 70.3168 94.3267L70.4048 94.0909L68.8224 89.6364H69.9134L70.919 92.9318H70.9645L71.973 89.6364H73.0668L71.3196 94.5284C71.2382 94.7595 71.1302 94.9574 70.9957 95.1222C70.8613 95.2888 70.6965 95.4157 70.5014 95.5028C70.3082 95.5919 70.0772 95.6364 69.8082 95.6364ZM75.5334 94.0852C75.1072 94.0852 74.7379 93.9915 74.4254 93.804C74.1129 93.6165 73.8705 93.3542 73.6982 93.017C73.5277 92.6799 73.4425 92.286 73.4425 91.8352C73.4425 91.3845 73.5277 90.9896 73.6982 90.6506C73.8705 90.3116 74.1129 90.0483 74.4254 89.8608C74.7379 89.6733 75.1072 89.5795 75.5334 89.5795C75.9595 89.5795 76.3288 89.6733 76.6413 89.8608C76.9538 90.0483 77.1953 90.3116 77.3658 90.6506C77.5381 90.9896 77.6243 91.3845 77.6243 91.8352C77.6243 92.286 77.5381 92.6799 77.3658 93.017C77.1953 93.3542 76.9538 93.6165 76.6413 93.804C76.3288 93.9915 75.9595 94.0852 75.5334 94.0852ZM75.5391 93.2614C75.7701 93.2614 75.9633 93.1979 76.1186 93.071C76.2739 92.9422 76.3894 92.7699 76.4652 92.554C76.5429 92.3381 76.5817 92.0975 76.5817 91.8324C76.5817 91.5653 76.5429 91.3239 76.4652 91.108C76.3894 90.8902 76.2739 90.7169 76.1186 90.5881C75.9633 90.4593 75.7701 90.3949 75.5391 90.3949C75.3023 90.3949 75.1054 90.4593 74.9482 90.5881C74.7929 90.7169 74.6764 90.8902 74.5987 91.108C74.523 91.3239 74.4851 91.5653 74.4851 91.8324C74.4851 92.0975 74.523 92.3381 74.5987 92.554C74.6764 92.7699 74.7929 92.9422 74.9482 93.071C75.1054 93.1979 75.3023 93.2614 75.5391 93.2614ZM81.2784 92.1648V89.6364H82.3068V94H81.3097V93.2244H81.2642C81.1657 93.4687 81.0038 93.6686 80.7784 93.8239C80.5549 93.9792 80.2794 94.0568 79.9517 94.0568C79.6657 94.0568 79.4129 93.9934 79.1932 93.8665C78.9754 93.7377 78.8049 93.5511 78.6818 93.3068C78.5587 93.0606 78.4972 92.7633 78.4972 92.4148V89.6364H79.5256V92.2557C79.5256 92.5322 79.6013 92.7519 79.7528 92.9148C79.9044 93.0777 80.1032 93.1591 80.3494 93.1591C80.5009 93.1591 80.6477 93.1222 80.7898 93.0483C80.9318 92.9744 81.0483 92.8646 81.1392 92.7188C81.232 92.571 81.2784 92.3864 81.2784 92.1648ZM83.3643 94V89.6364H84.3615V90.3636H84.407C84.4865 90.1117 84.6229 89.9176 84.8161 89.7812C85.0111 89.643 85.2337 89.5739 85.4837 89.5739C85.5405 89.5739 85.6039 89.5767 85.674 89.5824C85.746 89.5862 85.8056 89.5928 85.853 89.6023V90.5483C85.8094 90.5331 85.7403 90.5199 85.6456 90.5085C85.5528 90.4953 85.4628 90.4886 85.3757 90.4886C85.1882 90.4886 85.0196 90.5294 84.87 90.6108C84.7223 90.6903 84.6058 90.8011 84.5206 90.9432C84.4354 91.0852 84.3928 91.2491 84.3928 91.4347V94H83.3643ZM90.7308 89.6364V90.4318H88.1513V89.6364H90.7308ZM88.7962 94V89.2244C88.7962 88.9309 88.8568 88.6866 88.978 88.4915C89.1011 88.2964 89.2659 88.1506 89.4723 88.054C89.6787 87.9574 89.9079 87.9091 90.1598 87.9091C90.3378 87.9091 90.496 87.9233 90.6342 87.9517C90.7725 87.9801 90.8748 88.0057 90.9411 88.0284L90.7365 88.8239C90.6929 88.8106 90.638 88.7973 90.5717 88.7841C90.5054 88.7689 90.4316 88.7614 90.3501 88.7614C90.1589 88.7614 90.0234 88.8078 89.9439 88.9006C89.8662 88.9915 89.8274 89.1222 89.8274 89.2926V94H88.7962ZM91.5362 94V89.6364H92.5646V94H91.5362ZM92.0533 89.017C91.8904 89.017 91.7502 88.9631 91.6328 88.8551C91.5154 88.7453 91.4567 88.6136 91.4567 88.4602C91.4567 88.3049 91.5154 88.1733 91.6328 88.0653C91.7502 87.9555 91.8904 87.9006 92.0533 87.9006C92.218 87.9006 92.3582 87.9555 92.4737 88.0653C92.5911 88.1733 92.6499 88.3049 92.6499 88.4602C92.6499 88.6136 92.5911 88.7453 92.4737 88.8551C92.3582 88.9631 92.218 89.017 92.0533 89.017ZM94.6506 88.1818V94H93.6222V88.1818H94.6506ZM97.6399 94.0852C97.2024 94.0852 96.8246 93.9943 96.5064 93.8125C96.1901 93.6288 95.9467 93.3693 95.7763 93.0341C95.6058 92.697 95.5206 92.3002 95.5206 91.8438C95.5206 91.3949 95.6058 91.0009 95.7763 90.6619C95.9486 90.321 96.1892 90.0559 96.4979 89.8665C96.8066 89.6752 97.1693 89.5795 97.5859 89.5795C97.8549 89.5795 98.1087 89.6231 98.3473 89.7102C98.5878 89.7955 98.8 89.928 98.9837 90.108C99.1693 90.2879 99.3151 90.517 99.4212 90.7955C99.5272 91.072 99.5803 91.4015 99.5803 91.7841V92.0994H96.0036V91.4062H98.5945C98.5926 91.2093 98.55 91.0341 98.4666 90.8807C98.3833 90.7254 98.2668 90.6032 98.1172 90.5142C97.9695 90.4252 97.7971 90.3807 97.6001 90.3807C97.3899 90.3807 97.2053 90.4318 97.0462 90.5341C96.8871 90.6345 96.763 90.767 96.674 90.9318C96.5869 91.0947 96.5424 91.2737 96.5405 91.4688V92.0739C96.5405 92.3277 96.5869 92.5455 96.6797 92.7273C96.7725 92.9072 96.9022 93.0455 97.0689 93.142C97.2356 93.2367 97.4306 93.2841 97.6541 93.2841C97.8037 93.2841 97.9392 93.2633 98.0604 93.2216C98.1816 93.178 98.2867 93.1146 98.3757 93.0312C98.4647 92.9479 98.532 92.8447 98.5774 92.7216L99.5376 92.8295C99.477 93.0833 99.3615 93.3049 99.1911 93.4943C99.0225 93.6818 98.8066 93.8277 98.5433 93.9318C98.2801 94.0341 97.9789 94.0852 97.6399 94.0852ZM103.463 91.4432V94H102.435V88.1818H103.44V90.3778H103.491C103.594 90.1316 103.752 89.9375 103.966 89.7955C104.182 89.6515 104.456 89.5795 104.79 89.5795C105.093 89.5795 105.357 89.643 105.582 89.7699C105.808 89.8968 105.982 90.0824 106.105 90.3267C106.23 90.571 106.293 90.8693 106.293 91.2216V94H105.264V91.3807C105.264 91.0871 105.188 90.8589 105.037 90.696C104.887 90.5312 104.677 90.4489 104.406 90.4489C104.224 90.4489 104.062 90.4886 103.918 90.5682C103.776 90.6458 103.664 90.7585 103.582 90.9062C103.503 91.054 103.463 91.233 103.463 91.4432ZM109.273 94.0852C108.835 94.0852 108.457 93.9943 108.139 93.8125C107.823 93.6288 107.58 93.3693 107.409 93.0341C107.239 92.697 107.153 92.3002 107.153 91.8438C107.153 91.3949 107.239 91.0009 107.409 90.6619C107.581 90.321 107.822 90.0559 108.131 89.8665C108.439 89.6752 108.802 89.5795 109.219 89.5795C109.488 89.5795 109.741 89.6231 109.98 89.7102C110.221 89.7955 110.433 89.928 110.616 90.108C110.802 90.2879 110.948 90.517 111.054 90.7955C111.16 91.072 111.213 91.4015 111.213 91.7841V92.0994H107.636V91.4062H110.227C110.225 91.2093 110.183 91.0341 110.099 90.8807C110.016 90.7254 109.9 90.6032 109.75 90.5142C109.602 90.4252 109.43 90.3807 109.233 90.3807C109.023 90.3807 108.838 90.4318 108.679 90.5341C108.52 90.6345 108.396 90.767 108.307 90.9318C108.22 91.0947 108.175 91.2737 108.173 91.4688V92.0739C108.173 92.3277 108.22 92.5455 108.312 92.7273C108.405 92.9072 108.535 93.0455 108.702 93.142C108.868 93.2367 109.063 93.2841 109.287 93.2841C109.437 93.2841 109.572 93.2633 109.693 93.2216C109.814 93.178 109.92 93.1146 110.009 93.0312C110.098 92.9479 110.165 92.8447 110.21 92.7216L111.17 92.8295C111.11 93.0833 110.994 93.3049 110.824 93.4943C110.655 93.6818 110.439 93.8277 110.176 93.9318C109.913 94.0341 109.612 94.0852 109.273 94.0852ZM112.083 94V89.6364H113.08V90.3636H113.126C113.205 90.1117 113.342 89.9176 113.535 89.7812C113.73 89.643 113.952 89.5739 114.202 89.5739C114.259 89.5739 114.323 89.5767 114.393 89.5824C114.465 89.5862 114.524 89.5928 114.572 89.6023V90.5483C114.528 90.5331 114.459 90.5199 114.364 90.5085C114.272 90.4953 114.182 90.4886 114.094 90.4886C113.907 90.4886 113.738 90.5294 113.589 90.6108C113.441 90.6903 113.325 90.8011 113.239 90.9432C113.154 91.0852 113.112 91.2491 113.112 91.4347V94H112.083ZM117.007 94.0852C116.57 94.0852 116.192 93.9943 115.874 93.8125C115.557 93.6288 115.314 93.3693 115.143 93.0341C114.973 92.697 114.888 92.3002 114.888 91.8438C114.888 91.3949 114.973 91.0009 115.143 90.6619C115.316 90.321 115.556 90.0559 115.865 89.8665C116.174 89.6752 116.536 89.5795 116.953 89.5795C117.222 89.5795 117.476 89.6231 117.714 89.7102C117.955 89.7955 118.167 89.928 118.351 90.108C118.536 90.2879 118.682 90.517 118.788 90.7955C118.894 91.072 118.947 91.4015 118.947 91.7841V92.0994H115.371V91.4062H117.962C117.96 91.2093 117.917 91.0341 117.834 90.8807C117.75 90.7254 117.634 90.6032 117.484 90.5142C117.337 90.4252 117.164 90.3807 116.967 90.3807C116.757 90.3807 116.572 90.4318 116.413 90.5341C116.254 90.6345 116.13 90.767 116.041 90.9318C115.954 91.0947 115.91 91.2737 115.908 91.4688V92.0739C115.908 92.3277 115.954 92.5455 116.047 92.7273C116.14 92.9072 116.269 93.0455 116.436 93.142C116.603 93.2367 116.798 93.2841 117.021 93.2841C117.171 93.2841 117.306 93.2633 117.428 93.2216C117.549 93.178 117.654 93.1146 117.743 93.0312C117.832 92.9479 117.899 92.8447 117.945 92.7216L118.905 92.8295C118.844 93.0833 118.729 93.3049 118.558 93.4943C118.39 93.6818 118.174 93.8277 117.911 93.9318C117.647 94.0341 117.346 94.0852 117.007 94.0852ZM123.705 94.0852C123.279 94.0852 122.91 93.9915 122.597 93.804C122.285 93.6165 122.042 93.3542 121.87 93.017C121.7 92.6799 121.614 92.286 121.614 91.8352C121.614 91.3845 121.7 90.9896 121.87 90.6506C122.042 90.3116 122.285 90.0483 122.597 89.8608C122.91 89.6733 123.279 89.5795 123.705 89.5795C124.131 89.5795 124.501 89.6733 124.813 89.8608C125.126 90.0483 125.367 90.3116 125.538 90.6506C125.71 90.9896 125.796 91.3845 125.796 91.8352C125.796 92.286 125.71 92.6799 125.538 93.017C125.367 93.3542 125.126 93.6165 124.813 93.804C124.501 93.9915 124.131 94.0852 123.705 94.0852ZM123.711 93.2614C123.942 93.2614 124.135 93.1979 124.29 93.071C124.446 92.9422 124.561 92.7699 124.637 92.554C124.715 92.3381 124.754 92.0975 124.754 91.8324C124.754 91.5653 124.715 91.3239 124.637 91.108C124.561 90.8902 124.446 90.7169 124.29 90.5881C124.135 90.4593 123.942 90.3949 123.711 90.3949C123.474 90.3949 123.277 90.4593 123.12 90.5881C122.965 90.7169 122.848 90.8902 122.771 91.108C122.695 91.3239 122.657 91.5653 122.657 91.8324C122.657 92.0975 122.695 92.3381 122.771 92.554C122.848 92.7699 122.965 92.9422 123.12 93.071C123.277 93.1979 123.474 93.2614 123.711 93.2614ZM126.669 94V89.6364H127.666V90.3636H127.712C127.791 90.1117 127.928 89.9176 128.121 89.7812C128.316 89.643 128.538 89.5739 128.788 89.5739C128.845 89.5739 128.909 89.5767 128.979 89.5824C129.051 89.5862 129.11 89.5928 129.158 89.6023V90.5483C129.114 90.5331 129.045 90.5199 128.95 90.5085C128.857 90.4953 128.768 90.4886 128.68 90.4886C128.493 90.4886 128.324 90.5294 128.175 90.6108C128.027 90.6903 127.911 90.8011 127.825 90.9432C127.74 91.0852 127.697 91.2491 127.697 91.4347V94H126.669ZM131.871 94V88.1818H132.899V90.358H132.942C132.995 90.2519 133.07 90.1392 133.166 90.0199C133.263 89.8987 133.393 89.7955 133.558 89.7102C133.723 89.6231 133.933 89.5795 134.189 89.5795C134.526 89.5795 134.83 89.6657 135.101 89.8381C135.374 90.0085 135.589 90.2614 135.749 90.5966C135.91 90.9299 135.99 91.339 135.99 91.8239C135.99 92.303 135.911 92.7102 135.754 93.0455C135.597 93.3807 135.383 93.6364 135.112 93.8125C134.841 93.9886 134.535 94.0767 134.192 94.0767C133.942 94.0767 133.734 94.035 133.57 93.9517C133.405 93.8684 133.272 93.768 133.172 93.6506C133.073 93.5312 132.997 93.4186 132.942 93.3125H132.882V94H131.871ZM132.879 91.8182C132.879 92.1004 132.919 92.3475 132.999 92.5597C133.08 92.7718 133.196 92.9375 133.348 93.0568C133.501 93.1742 133.687 93.233 133.905 93.233C134.132 93.233 134.322 93.1723 134.476 93.0511C134.629 92.928 134.745 92.7604 134.822 92.5483C134.902 92.3343 134.942 92.0909 134.942 91.8182C134.942 91.5473 134.903 91.3068 134.825 91.0966C134.748 90.8864 134.632 90.7216 134.479 90.6023C134.325 90.483 134.134 90.4233 133.905 90.4233C133.685 90.4233 133.499 90.4811 133.345 90.5966C133.192 90.7121 133.075 90.8741 132.996 91.0824C132.918 91.2907 132.879 91.536 132.879 91.8182ZM136.864 94V89.6364H137.862V90.3636H137.907C137.987 90.1117 138.123 89.9176 138.316 89.7812C138.511 89.643 138.734 89.5739 138.984 89.5739C139.04 89.5739 139.104 89.5767 139.174 89.5824C139.246 89.5862 139.306 89.5928 139.353 89.6023V90.5483C139.309 90.5331 139.24 90.5199 139.146 90.5085C139.053 90.4953 138.963 90.4886 138.876 90.4886C138.688 90.4886 138.52 90.5294 138.37 90.6108C138.222 90.6903 138.106 90.8011 138.021 90.9432C137.935 91.0852 137.893 91.2491 137.893 91.4347V94H136.864ZM141.76 94.0852C141.334 94.0852 140.964 93.9915 140.652 93.804C140.339 93.6165 140.097 93.3542 139.925 93.017C139.754 92.6799 139.669 92.286 139.669 91.8352C139.669 91.3845 139.754 90.9896 139.925 90.6506C140.097 90.3116 140.339 90.0483 140.652 89.8608C140.964 89.6733 141.334 89.5795 141.76 89.5795C142.186 89.5795 142.555 89.6733 142.868 89.8608C143.18 90.0483 143.422 90.3116 143.592 90.6506C143.765 90.9896 143.851 91.3845 143.851 91.8352C143.851 92.286 143.765 92.6799 143.592 93.017C143.422 93.3542 143.18 93.6165 142.868 93.804C142.555 93.9915 142.186 94.0852 141.76 94.0852ZM141.766 93.2614C141.997 93.2614 142.19 93.1979 142.345 93.071C142.5 92.9422 142.616 92.7699 142.692 92.554C142.769 92.3381 142.808 92.0975 142.808 91.8324C142.808 91.5653 142.769 91.3239 142.692 91.108C142.616 90.8902 142.5 90.7169 142.345 90.5881C142.19 90.4593 141.997 90.3949 141.766 90.3949C141.529 90.3949 141.332 90.4593 141.175 90.5881C141.019 90.7169 140.903 90.8902 140.825 91.108C140.75 91.3239 140.712 91.5653 140.712 91.8324C140.712 92.0975 140.75 92.3381 140.825 92.554C140.903 92.7699 141.019 92.9422 141.175 93.071C141.332 93.1979 141.529 93.2614 141.766 93.2614ZM145.499 94L144.266 89.6364H145.315L146.082 92.7045H146.121L146.906 89.6364H147.942L148.727 92.6875H148.769L149.525 89.6364H150.576L149.34 94H148.269L147.451 91.0511H147.391L146.573 94H145.499ZM154.743 90.7898L153.805 90.892C153.779 90.7973 153.732 90.7083 153.666 90.625C153.602 90.5417 153.515 90.4744 153.405 90.4233C153.295 90.3722 153.161 90.3466 153.001 90.3466C152.787 90.3466 152.607 90.393 152.462 90.4858C152.318 90.5786 152.247 90.6989 152.249 90.8466C152.247 90.9735 152.293 91.0767 152.388 91.1562C152.484 91.2358 152.643 91.3011 152.865 91.3523L153.609 91.5114C154.022 91.6004 154.329 91.7415 154.53 91.9347C154.732 92.1278 154.835 92.3807 154.837 92.6932C154.835 92.9678 154.754 93.2102 154.595 93.4205C154.438 93.6288 154.219 93.7917 153.939 93.9091C153.659 94.0265 153.337 94.0852 152.973 94.0852C152.439 94.0852 152.009 93.9735 151.683 93.75C151.357 93.5246 151.163 93.2112 151.101 92.8097L152.104 92.7131C152.149 92.91 152.246 93.0587 152.393 93.1591C152.541 93.2595 152.733 93.3097 152.97 93.3097C153.214 93.3097 153.411 93.2595 153.558 93.1591C153.708 93.0587 153.783 92.9347 153.783 92.7869C153.783 92.6619 153.734 92.5587 153.638 92.4773C153.543 92.3958 153.395 92.3333 153.195 92.2898L152.45 92.1335C152.032 92.0464 151.722 91.8996 151.521 91.6932C151.321 91.4848 151.221 91.2216 151.223 90.9034C151.221 90.6345 151.294 90.4015 151.442 90.2045C151.591 90.0057 151.799 89.8523 152.064 89.7443C152.331 89.6345 152.639 89.5795 152.987 89.5795C153.499 89.5795 153.901 89.6884 154.195 89.9062C154.49 90.1241 154.673 90.4186 154.743 90.7898ZM157.616 94.0852C157.179 94.0852 156.801 93.9943 156.483 93.8125C156.167 93.6288 155.923 93.3693 155.753 93.0341C155.582 92.697 155.497 92.3002 155.497 91.8438C155.497 91.3949 155.582 91.0009 155.753 90.6619C155.925 90.321 156.166 90.0559 156.474 89.8665C156.783 89.6752 157.146 89.5795 157.562 89.5795C157.831 89.5795 158.085 89.6231 158.324 89.7102C158.564 89.7955 158.777 89.928 158.96 90.108C159.146 90.2879 159.292 90.517 159.398 90.7955C159.504 91.072 159.557 91.4015 159.557 91.7841V92.0994H155.98V91.4062H158.571C158.569 91.2093 158.527 91.0341 158.443 90.8807C158.36 90.7254 158.243 90.6032 158.094 90.5142C157.946 90.4252 157.774 90.3807 157.577 90.3807C157.366 90.3807 157.182 90.4318 157.023 90.5341C156.864 90.6345 156.74 90.767 156.651 90.9318C156.563 91.0947 156.519 91.2737 156.517 91.4688V92.0739C156.517 92.3277 156.563 92.5455 156.656 92.7273C156.749 92.9072 156.879 93.0455 157.045 93.142C157.212 93.2367 157.407 93.2841 157.631 93.2841C157.78 93.2841 157.916 93.2633 158.037 93.2216C158.158 93.178 158.263 93.1146 158.352 93.0312C158.441 92.9479 158.509 92.8447 158.554 92.7216L159.514 92.8295C159.454 93.0833 159.338 93.3049 159.168 93.4943C158.999 93.6818 158.783 93.8277 158.52 93.9318C158.257 94.0341 157.955 94.0852 157.616 94.0852Z" fill="white"/>
<path d="M64.6392 106V100.182H66.7131C67.1657 100.182 67.5407 100.264 67.8381 100.429C68.1354 100.594 68.358 100.819 68.5057 101.105C68.6534 101.389 68.7273 101.709 68.7273 102.065C68.7273 102.423 68.6525 102.745 68.5028 103.031C68.3551 103.315 68.1316 103.541 67.8324 103.707C67.535 103.872 67.161 103.955 66.7102 103.955H65.2841V103.21H66.6307C66.9167 103.21 67.1487 103.161 67.3267 103.062C67.5047 102.962 67.6354 102.826 67.7188 102.653C67.8021 102.481 67.8438 102.285 67.8438 102.065C67.8438 101.846 67.8021 101.651 67.7188 101.48C67.6354 101.31 67.5038 101.176 67.3239 101.08C67.1458 100.983 66.911 100.935 66.6193 100.935H65.517V106H64.6392ZM69.6882 106V101.636H70.5376V106H69.6882ZM70.1172 100.963C69.9695 100.963 69.8426 100.914 69.7365 100.815C69.6323 100.715 69.5803 100.596 69.5803 100.457C69.5803 100.317 69.6323 100.198 69.7365 100.099C69.8426 99.9991 69.9695 99.9489 70.1172 99.9489C70.2649 99.9489 70.3909 99.9991 70.495 100.099C70.6011 100.198 70.6541 100.317 70.6541 100.457C70.6541 100.596 70.6011 100.715 70.495 100.815C70.3909 100.914 70.2649 100.963 70.1172 100.963ZM73.5185 106.088C73.0961 106.088 72.7325 105.992 72.4276 105.801C72.1245 105.608 71.8916 105.342 71.7287 105.003C71.5658 104.664 71.4844 104.276 71.4844 103.838C71.4844 103.395 71.5677 103.004 71.7344 102.665C71.901 102.324 72.1359 102.058 72.4389 101.866C72.742 101.675 73.099 101.58 73.5099 101.58C73.8414 101.58 74.1368 101.641 74.3963 101.764C74.6558 101.885 74.8651 102.056 75.0241 102.276C75.1851 102.495 75.2808 102.752 75.3111 103.045H74.4844C74.4389 102.841 74.3348 102.665 74.1719 102.517C74.0109 102.369 73.795 102.295 73.5241 102.295C73.2874 102.295 73.08 102.358 72.902 102.483C72.7259 102.606 72.5885 102.782 72.4901 103.011C72.3916 103.239 72.3423 103.508 72.3423 103.818C72.3423 104.136 72.3906 104.411 72.4872 104.642C72.5838 104.873 72.7202 105.052 72.8963 105.179C73.0743 105.306 73.2836 105.369 73.5241 105.369C73.6851 105.369 73.831 105.34 73.9616 105.281C74.0942 105.221 74.205 105.134 74.294 105.023C74.3849 104.911 74.4484 104.777 74.4844 104.619H75.3111C75.2808 104.902 75.1889 105.153 75.0355 105.375C74.8821 105.597 74.6766 105.771 74.419 105.898C74.1634 106.025 73.8632 106.088 73.5185 106.088ZM77.0007 104.52L76.995 103.483H77.1428L78.8814 101.636H79.8984L77.9155 103.739H77.782L77.0007 104.52ZM76.2195 106V100.182H77.0689V106H76.2195ZM78.9751 106L77.4126 103.926L77.9979 103.332L80.0178 106H78.9751ZM84.0597 106.097C83.7831 106.097 83.5331 106.045 83.3097 105.943C83.0862 105.839 82.9091 105.688 82.7784 105.491C82.6496 105.295 82.5852 105.053 82.5852 104.767C82.5852 104.521 82.6326 104.318 82.7273 104.159C82.822 104 82.9498 103.874 83.1108 103.781C83.2718 103.688 83.4517 103.618 83.6506 103.571C83.8494 103.524 84.0521 103.488 84.2585 103.463C84.5199 103.433 84.732 103.408 84.8949 103.389C85.0578 103.368 85.1761 103.335 85.25 103.29C85.3239 103.244 85.3608 103.17 85.3608 103.068V103.048C85.3608 102.8 85.2907 102.608 85.1506 102.472C85.0123 102.335 84.8059 102.267 84.5312 102.267C84.2453 102.267 84.0199 102.33 83.8551 102.457C83.6922 102.582 83.5795 102.722 83.517 102.875L82.7188 102.693C82.8134 102.428 82.9517 102.214 83.1335 102.051C83.3172 101.886 83.5284 101.767 83.767 101.693C84.0057 101.617 84.2566 101.58 84.5199 101.58C84.6941 101.58 84.8788 101.6 85.0739 101.642C85.2708 101.682 85.4545 101.756 85.625 101.864C85.7973 101.972 85.9384 102.126 86.0483 102.327C86.1581 102.526 86.2131 102.784 86.2131 103.102V106H85.3835V105.403H85.3494C85.2945 105.513 85.2121 105.621 85.1023 105.727C84.9924 105.833 84.8513 105.921 84.679 105.991C84.5066 106.062 84.3002 106.097 84.0597 106.097ZM84.2443 105.415C84.4792 105.415 84.6799 105.368 84.8466 105.276C85.0152 105.183 85.143 105.062 85.2301 104.912C85.3191 104.76 85.3636 104.598 85.3636 104.426V103.864C85.3333 103.894 85.2746 103.922 85.1875 103.949C85.1023 103.973 85.0047 103.995 84.8949 104.014C84.785 104.031 84.678 104.047 84.5739 104.062C84.4697 104.076 84.3826 104.087 84.3125 104.097C84.1477 104.117 83.9972 104.152 83.8608 104.202C83.7263 104.251 83.6184 104.322 83.5369 104.415C83.4574 104.506 83.4176 104.627 83.4176 104.778C83.4176 104.989 83.4953 105.148 83.6506 105.256C83.8059 105.362 84.0038 105.415 84.2443 105.415ZM91.5384 101.636V102.318H89.0724V101.636H91.5384ZM89.7486 106V101.131C89.7486 100.858 89.8082 100.632 89.9276 100.452C90.0469 100.27 90.205 100.134 90.402 100.045C90.599 99.9545 90.813 99.9091 91.044 99.9091C91.2145 99.9091 91.3603 99.9233 91.4815 99.9517C91.6027 99.9782 91.6927 100.003 91.7514 100.026L91.5526 100.713C91.5128 100.702 91.4616 100.688 91.3991 100.673C91.3366 100.656 91.2609 100.648 91.1719 100.648C90.9654 100.648 90.8177 100.699 90.7287 100.801C90.6416 100.903 90.598 101.051 90.598 101.244V106H89.7486ZM92.4148 106V101.636H93.2642V106H92.4148ZM92.8438 100.963C92.696 100.963 92.5691 100.914 92.4631 100.815C92.3589 100.715 92.3068 100.596 92.3068 100.457C92.3068 100.317 92.3589 100.198 92.4631 100.099C92.5691 99.9991 92.696 99.9489 92.8438 99.9489C92.9915 99.9489 93.1174 99.9991 93.2216 100.099C93.3277 100.198 93.3807 100.317 93.3807 100.457C93.3807 100.596 93.3277 100.715 93.2216 100.815C93.1174 100.914 92.9915 100.963 92.8438 100.963ZM95.2564 100.182V106H94.407V100.182H95.2564ZM98.2798 106.088C97.8499 106.088 97.4796 105.996 97.169 105.812C96.8603 105.627 96.6217 105.366 96.4531 105.031C96.2865 104.694 96.2031 104.299 96.2031 103.847C96.2031 103.4 96.2865 103.006 96.4531 102.665C96.6217 102.324 96.8565 102.058 97.1577 101.866C97.4607 101.675 97.8149 101.58 98.2202 101.58C98.4664 101.58 98.705 101.62 98.9361 101.702C99.1671 101.783 99.3745 101.911 99.5582 102.085C99.742 102.259 99.8868 102.486 99.9929 102.764C100.099 103.041 100.152 103.377 100.152 103.773V104.074H96.6832V103.438H99.3196C99.3196 103.214 99.2741 103.016 99.1832 102.844C99.0923 102.67 98.9645 102.532 98.7997 102.432C98.6368 102.331 98.4455 102.281 98.2259 102.281C97.9872 102.281 97.7789 102.34 97.6009 102.457C97.4247 102.573 97.2884 102.724 97.1918 102.912C97.0971 103.098 97.0497 103.299 97.0497 103.517V104.014C97.0497 104.306 97.1009 104.554 97.2031 104.759C97.3073 104.963 97.4522 105.119 97.6378 105.227C97.8234 105.333 98.0402 105.386 98.2884 105.386C98.4493 105.386 98.5961 105.364 98.7287 105.318C98.8613 105.271 98.9759 105.201 99.0724 105.108C99.169 105.015 99.2429 104.901 99.294 104.764L100.098 104.909C100.034 105.146 99.9181 105.353 99.7514 105.531C99.5866 105.707 99.3793 105.845 99.1293 105.943C98.8812 106.04 98.598 106.088 98.2798 106.088ZM105.976 104.19V101.636H106.828V106H105.993V105.244H105.947C105.847 105.477 105.686 105.671 105.464 105.827C105.245 105.98 104.971 106.057 104.643 106.057C104.363 106.057 104.115 105.995 103.899 105.872C103.685 105.747 103.517 105.562 103.393 105.318C103.272 105.074 103.212 104.772 103.212 104.412V101.636H104.061V104.31C104.061 104.607 104.143 104.844 104.308 105.02C104.473 105.196 104.687 105.284 104.95 105.284C105.109 105.284 105.268 105.244 105.425 105.165C105.584 105.085 105.715 104.965 105.82 104.804C105.926 104.643 105.978 104.438 105.976 104.19ZM107.969 107.636V101.636H108.799V102.344H108.87C108.919 102.253 108.99 102.148 109.083 102.028C109.176 101.909 109.305 101.805 109.469 101.716C109.634 101.625 109.852 101.58 110.123 101.58C110.475 101.58 110.79 101.669 111.066 101.847C111.343 102.025 111.559 102.281 111.717 102.616C111.876 102.952 111.955 103.355 111.955 103.827C111.955 104.298 111.877 104.703 111.719 105.04C111.562 105.375 111.346 105.634 111.072 105.815C110.797 105.995 110.484 106.085 110.131 106.085C109.866 106.085 109.649 106.041 109.481 105.952C109.314 105.863 109.183 105.759 109.089 105.639C108.994 105.52 108.921 105.414 108.87 105.321H108.819V107.636H107.969ZM108.802 103.818C108.802 104.125 108.846 104.394 108.935 104.625C109.024 104.856 109.153 105.037 109.322 105.168C109.49 105.296 109.697 105.361 109.941 105.361C110.195 105.361 110.407 105.294 110.577 105.159C110.748 105.023 110.877 104.838 110.964 104.605C111.053 104.372 111.097 104.11 111.097 103.818C111.097 103.53 111.054 103.272 110.967 103.043C110.881 102.813 110.753 102.633 110.58 102.5C110.41 102.367 110.197 102.301 109.941 102.301C109.695 102.301 109.487 102.365 109.316 102.491C109.147 102.618 109.02 102.795 108.933 103.023C108.845 103.25 108.802 103.515 108.802 103.818ZM117.061 101.636V102.318H114.678V101.636H117.061ZM115.317 100.591H116.166V104.719C116.166 104.884 116.191 105.008 116.24 105.091C116.289 105.172 116.353 105.228 116.43 105.259C116.51 105.287 116.596 105.301 116.689 105.301C116.757 105.301 116.817 105.296 116.868 105.287C116.919 105.277 116.959 105.27 116.987 105.264L117.141 105.966C117.091 105.985 117.021 106.004 116.93 106.023C116.839 106.044 116.726 106.055 116.589 106.057C116.366 106.061 116.158 106.021 115.964 105.938C115.771 105.854 115.615 105.725 115.496 105.551C115.376 105.377 115.317 105.158 115.317 104.895V100.591ZM119.792 106.088C119.383 106.088 119.026 105.994 118.721 105.807C118.416 105.619 118.179 105.357 118.011 105.02C117.842 104.683 117.758 104.289 117.758 103.838C117.758 103.385 117.842 102.99 118.011 102.651C118.179 102.312 118.416 102.048 118.721 101.861C119.026 101.673 119.383 101.58 119.792 101.58C120.201 101.58 120.558 101.673 120.863 101.861C121.168 102.048 121.405 102.312 121.573 102.651C121.742 102.99 121.826 103.385 121.826 103.838C121.826 104.289 121.742 104.683 121.573 105.02C121.405 105.357 121.168 105.619 120.863 105.807C120.558 105.994 120.201 106.088 119.792 106.088ZM119.795 105.375C120.06 105.375 120.28 105.305 120.454 105.165C120.628 105.025 120.757 104.838 120.84 104.605C120.925 104.372 120.968 104.116 120.968 103.835C120.968 103.557 120.925 103.301 120.84 103.068C120.757 102.833 120.628 102.645 120.454 102.503C120.28 102.361 120.06 102.29 119.795 102.29C119.528 102.29 119.306 102.361 119.13 102.503C118.956 102.645 118.826 102.833 118.741 103.068C118.657 103.301 118.616 103.557 118.616 103.835C118.616 104.116 118.657 104.372 118.741 104.605C118.826 104.838 118.956 105.025 119.13 105.165C119.306 105.305 119.528 105.375 119.795 105.375ZM124.88 106V105.364L126.849 103.324C127.059 103.102 127.232 102.908 127.369 102.741C127.507 102.573 127.61 102.413 127.678 102.261C127.746 102.11 127.781 101.949 127.781 101.778C127.781 101.585 127.735 101.419 127.644 101.278C127.553 101.136 127.429 101.027 127.272 100.952C127.115 100.874 126.938 100.835 126.741 100.835C126.532 100.835 126.351 100.878 126.195 100.963C126.04 101.048 125.921 101.169 125.837 101.324C125.754 101.479 125.712 101.661 125.712 101.869H124.874C124.874 101.515 124.956 101.205 125.119 100.94C125.281 100.675 125.505 100.47 125.789 100.324C126.073 100.176 126.396 100.102 126.758 100.102C127.123 100.102 127.445 100.175 127.724 100.321C128.004 100.465 128.223 100.662 128.38 100.912C128.537 101.16 128.616 101.44 128.616 101.753C128.616 101.969 128.575 102.18 128.494 102.386C128.414 102.593 128.275 102.823 128.076 103.077C127.877 103.329 127.601 103.634 127.246 103.994L126.09 105.205V105.247H128.71V106H124.88ZM129.866 100.182H130.931L132.783 104.705H132.852L134.704 100.182H135.769V106H134.934V101.79H134.88L133.164 105.991H132.471L130.755 101.787H130.701V106H129.866V100.182ZM137.045 106V100.182H139.176C139.589 100.182 139.931 100.25 140.202 100.386C140.473 100.521 140.675 100.704 140.81 100.935C140.944 101.164 141.011 101.422 141.011 101.71C141.011 101.953 140.967 102.157 140.878 102.324C140.789 102.489 140.67 102.621 140.52 102.722C140.372 102.82 140.209 102.892 140.031 102.938V102.994C140.224 103.004 140.413 103.066 140.597 103.182C140.782 103.295 140.936 103.457 141.057 103.668C141.178 103.878 141.239 104.134 141.239 104.435C141.239 104.732 141.169 104.999 141.028 105.236C140.89 105.471 140.676 105.657 140.386 105.795C140.097 105.932 139.726 106 139.276 106H137.045ZM137.923 105.247H139.19C139.611 105.247 139.912 105.166 140.094 105.003C140.276 104.84 140.366 104.636 140.366 104.392C140.366 104.208 140.32 104.04 140.227 103.886C140.134 103.733 140.002 103.611 139.83 103.52C139.659 103.429 139.456 103.384 139.222 103.384H137.923V105.247ZM137.923 102.699H139.099C139.296 102.699 139.473 102.661 139.631 102.585C139.79 102.509 139.916 102.403 140.009 102.267C140.103 102.129 140.151 101.966 140.151 101.778C140.151 101.538 140.066 101.336 139.898 101.173C139.729 101.01 139.471 100.929 139.122 100.929H137.923V102.699ZM142.771 106.054C142.616 106.054 142.482 105.999 142.371 105.889C142.259 105.777 142.203 105.643 142.203 105.486C142.203 105.33 142.259 105.198 142.371 105.088C142.482 104.976 142.616 104.92 142.771 104.92C142.927 104.92 143.06 104.976 143.172 105.088C143.284 105.198 143.339 105.33 143.339 105.486C143.339 105.59 143.313 105.686 143.26 105.773C143.209 105.858 143.141 105.926 143.055 105.977C142.97 106.028 142.875 106.054 142.771 106.054Z" fill="white" fill-opacity="0.3"/>
<path d="M5 123H203" stroke="url(#paint7_linear_2641_2132)"/>
<path d="M10 128H198" stroke="url(#paint8_linear_2641_2132)"/>
<defs>
<linearGradient id="paint0_linear_2641_2132" x1="27.5" y1="153" x2="27.5" y2="5" gradientUnits="userSpaceOnUse">
<stop stop-color="#E2E8F0" stop-opacity="0"/>
<stop offset="0.185417" stop-color="#E2E8F0"/>
<stop offset="0.826042" stop-color="#E2E8F0"/>
<stop offset="1" stop-color="#E2E8F0" stop-opacity="0"/>
</linearGradient>
<linearGradient id="paint1_linear_2641_2132" x1="32.5" y1="158" x2="32.5" y2="-2.74062e-08" gradientUnits="userSpaceOnUse">
<stop stop-color="#E2E8F0" stop-opacity="0"/>
<stop offset="0.185417" stop-color="#E2E8F0"/>
<stop offset="0.826042" stop-color="#E2E8F0"/>
<stop offset="1" stop-color="#E2E8F0" stop-opacity="0"/>
</linearGradient>
<linearGradient id="paint2_linear_2641_2132" x1="176.5" y1="2.74063e-08" x2="176.5" y2="158" gradientUnits="userSpaceOnUse">
<stop stop-color="#E2E8F0" stop-opacity="0"/>
<stop offset="0.185417" stop-color="#E2E8F0"/>
<stop offset="0.826042" stop-color="#E2E8F0"/>
<stop offset="1" stop-color="#E2E8F0" stop-opacity="0"/>
</linearGradient>
<linearGradient id="paint3_linear_2641_2132" x1="181.5" y1="5" x2="181.5" y2="153" gradientUnits="userSpaceOnUse">
<stop stop-color="#E2E8F0" stop-opacity="0"/>
<stop offset="0.185417" stop-color="#E2E8F0"/>
<stop offset="0.826042" stop-color="#E2E8F0"/>
<stop offset="1" stop-color="#E2E8F0" stop-opacity="0"/>
</linearGradient>
<linearGradient id="paint4_linear_2641_2132" x1="199.899" y1="30.5" x2="10" y2="30.4999" gradientUnits="userSpaceOnUse">
<stop stop-color="#E2E8F0" stop-opacity="0"/>
<stop offset="0.185417" stop-color="#E2E8F0"/>
<stop offset="0.826042" stop-color="#E2E8F0"/>
<stop offset="1" stop-color="#E2E8F0" stop-opacity="0"/>
</linearGradient>
<linearGradient id="paint5_linear_2641_2132" x1="205" y1="35.5" x2="5" y2="35.4999" gradientUnits="userSpaceOnUse">
<stop stop-color="#E2E8F0" stop-opacity="0"/>
<stop offset="0.185417" stop-color="#E2E8F0"/>
<stop offset="0.826042" stop-color="#E2E8F0"/>
<stop offset="1" stop-color="#E2E8F0" stop-opacity="0"/>
</linearGradient>
<linearGradient id="paint6_linear_2641_2132" x1="53.3943" y1="44.152" x2="159.181" y2="139.005" gradientUnits="userSpaceOnUse">
<stop stop-color="#A855F7"/>
<stop offset="1" stop-color="#3B82F6"/>
</linearGradient>
<linearGradient id="paint7_linear_2641_2132" x1="205" y1="123.5" x2="5" y2="123.5" gradientUnits="userSpaceOnUse">
<stop stop-color="#E2E8F0" stop-opacity="0"/>
<stop offset="0.185417" stop-color="#E2E8F0"/>
<stop offset="0.826042" stop-color="#E2E8F0"/>
<stop offset="1" stop-color="#E2E8F0" stop-opacity="0"/>
</linearGradient>
<linearGradient id="paint8_linear_2641_2132" x1="199.899" y1="128.5" x2="10" y2="128.5" gradientUnits="userSpaceOnUse">
<stop stop-color="#E2E8F0" stop-opacity="0"/>
<stop offset="0.185417" stop-color="#E2E8F0"/>
<stop offset="0.826042" stop-color="#E2E8F0"/>
<stop offset="1" stop-color="#E2E8F0" stop-opacity="0"/>
</linearGradient>
</defs>
</svg>
