<svg width="208" height="158" viewBox="0 0 208 158" fill="none" xmlns="http://www.w3.org/2000/svg">
<path d="M33 153L33 5" stroke="url(#paint0_linear_139_3325)"/>
<path d="M38 158L38 -5.24521e-06" stroke="url(#paint1_linear_139_3325)"/>
<path d="M170 0L170 158" stroke="url(#paint2_linear_139_3325)"/>
<path d="M175 5L175 153" stroke="url(#paint3_linear_139_3325)"/>
<path d="M10 56H198" stroke="url(#paint4_linear_139_3325)"/>
<path d="M5 61H203" stroke="url(#paint5_linear_139_3325)"/>
<g filter="url(#filter0_d_139_3325)">
<path d="M38.5 65C38.5 62.7909 40.2909 61 42.5 61H165.5C167.709 61 169.5 62.7909 169.5 65V93C169.5 95.2091 167.709 97 165.5 97H42.5C40.2909 97 38.5 95.2091 38.5 93V65Z" fill="url(#paint6_linear_139_3325)"/>
<path d="M53.9006 70.1818C53.8707 69.9299 53.7498 69.7344 53.5376 69.5952C53.3255 69.456 53.0653 69.3864 52.7571 69.3864C52.5317 69.3864 52.3345 69.4228 52.1655 69.4957C51.9981 69.5687 51.8672 69.6689 51.7727 69.7965C51.6799 69.9241 51.6335 70.0691 51.6335 70.2315C51.6335 70.3674 51.6658 70.4843 51.7305 70.582C51.7968 70.6781 51.8813 70.7585 51.984 70.8232C52.0868 70.8861 52.1945 70.9383 52.3072 70.9798C52.4199 71.0195 52.5234 71.0518 52.6179 71.0767L53.1349 71.2159C53.2675 71.2507 53.415 71.2988 53.5774 71.3601C53.7415 71.4214 53.8981 71.5051 54.0472 71.6112C54.198 71.7156 54.3223 71.8498 54.4201 72.0138C54.5179 72.1779 54.5668 72.3793 54.5668 72.6179C54.5668 72.893 54.4947 73.1416 54.3505 73.3636C54.208 73.5857 53.9992 73.7622 53.7241 73.8931C53.4506 74.024 53.1184 74.0895 52.7273 74.0895C52.3627 74.0895 52.047 74.0307 51.7802 73.913C51.515 73.7953 51.3062 73.6313 51.1538 73.4208C51.003 73.2103 50.9176 72.9659 50.8977 72.6875H51.5341C51.5507 72.8797 51.6153 73.0388 51.728 73.1648C51.8423 73.2891 51.9865 73.3819 52.1605 73.4432C52.3362 73.5028 52.5251 73.5327 52.7273 73.5327C52.9626 73.5327 53.1739 73.4946 53.3612 73.4183C53.5484 73.3404 53.6967 73.2327 53.8061 73.0952C53.9155 72.956 53.9702 72.7936 53.9702 72.608C53.9702 72.4389 53.9229 72.3014 53.8285 72.1953C53.734 72.0893 53.6097 72.0031 53.4556 71.9368C53.3015 71.8705 53.1349 71.8125 52.956 71.7628L52.3295 71.5838C51.9318 71.4695 51.617 71.3062 51.3849 71.0941C51.1529 70.882 51.0369 70.6044 51.0369 70.2614C51.0369 69.9763 51.114 69.7277 51.2681 69.5156C51.4239 69.3018 51.6327 69.1361 51.8945 69.0185C52.158 68.8991 52.4522 68.8395 52.777 68.8395C53.1051 68.8395 53.3968 68.8983 53.652 69.016C53.9072 69.132 54.1094 69.2911 54.2585 69.4933C54.4093 69.6954 54.4889 69.925 54.4972 70.1818H53.9006ZM57.1367 74.0795C56.7688 74.0795 56.4514 73.9983 56.1846 73.8359C55.9194 73.6719 55.7148 73.4432 55.5706 73.1499C55.4281 72.8549 55.3568 72.5118 55.3568 72.1207C55.3568 71.7296 55.4281 71.3849 55.5706 71.0866C55.7148 70.7867 55.9153 70.553 56.1722 70.3857C56.4307 70.2166 56.7323 70.1321 57.077 70.1321C57.2759 70.1321 57.4722 70.1652 57.6661 70.2315C57.86 70.2978 58.0365 70.4055 58.1956 70.5547C58.3547 70.7022 58.4815 70.8977 58.5759 71.1413C58.6704 71.3849 58.7176 71.6849 58.7176 72.0412V72.2898H55.7744V71.7827H58.121C58.121 71.5672 58.0779 71.375 57.9918 71.206C57.9072 71.0369 57.7863 70.9035 57.6288 70.8058C57.4731 70.708 57.2891 70.6591 57.077 70.6591C56.8433 70.6591 56.6411 70.7171 56.4705 70.8331C56.3014 70.9474 56.1713 71.0966 56.0802 71.2805C55.989 71.4645 55.9435 71.6617 55.9435 71.8722V72.2102C55.9435 72.4986 55.9932 72.743 56.0926 72.9435C56.1937 73.1424 56.3337 73.294 56.5127 73.3984C56.6917 73.5012 56.8997 73.5526 57.1367 73.5526C57.2908 73.5526 57.43 73.531 57.5543 73.4879C57.6802 73.4432 57.7888 73.3769 57.8799 73.2891C57.971 73.1996 58.0415 73.0885 58.0912 72.956L58.658 73.1151C58.5983 73.3073 58.498 73.4763 58.3572 73.6222C58.2163 73.7663 58.0423 73.879 57.8352 73.9602C57.628 74.0398 57.3952 74.0795 57.1367 74.0795ZM60.2317 68.9091V74H59.645V68.9091H60.2317ZM62.942 74.0795C62.5741 74.0795 62.2568 73.9983 61.9899 73.8359C61.7248 73.6719 61.5201 73.4432 61.376 73.1499C61.2334 72.8549 61.1622 72.5118 61.1622 72.1207C61.1622 71.7296 61.2334 71.3849 61.376 71.0866C61.5201 70.7867 61.7206 70.553 61.9775 70.3857C62.236 70.2166 62.5376 70.1321 62.8823 70.1321C63.0812 70.1321 63.2776 70.1652 63.4715 70.2315C63.6654 70.2978 63.8419 70.4055 64.001 70.5547C64.16 70.7022 64.2868 70.8977 64.3813 71.1413C64.4757 71.3849 64.523 71.6849 64.523 72.0412V72.2898H61.5798V71.7827H63.9264C63.9264 71.5672 63.8833 71.375 63.7971 71.206C63.7126 71.0369 63.5916 70.9035 63.4342 70.8058C63.2784 70.708 63.0945 70.6591 62.8823 70.6591C62.6487 70.6591 62.4465 70.7171 62.2758 70.8331C62.1068 70.9474 61.9767 71.0966 61.8855 71.2805C61.7944 71.4645 61.7488 71.6617 61.7488 71.8722V72.2102C61.7488 72.4986 61.7985 72.743 61.898 72.9435C61.9991 73.1424 62.1391 73.294 62.3181 73.3984C62.497 73.5012 62.705 73.5526 62.942 73.5526C63.0961 73.5526 63.2353 73.531 63.3596 73.4879C63.4856 73.4432 63.5941 73.3769 63.6853 73.2891C63.7764 73.1996 63.8468 73.0885 63.8965 72.956L64.4633 73.1151C64.4037 73.3073 64.3034 73.4763 64.1625 73.6222C64.0217 73.7663 63.8477 73.879 63.6405 73.9602C63.4334 74.0398 63.2005 74.0795 62.942 74.0795ZM67.0015 74.0795C66.6436 74.0795 66.3353 73.995 66.0768 73.826C65.8183 73.657 65.6194 73.4241 65.4802 73.1275C65.341 72.8308 65.2714 72.492 65.2714 72.1108C65.2714 71.723 65.3427 71.3808 65.4852 71.0842C65.6293 70.7859 65.8299 70.553 66.0867 70.3857C66.3453 70.2166 66.6469 70.1321 66.9916 70.1321C67.26 70.1321 67.502 70.1818 67.7174 70.2812C67.9329 70.3807 68.1093 70.5199 68.2469 70.6989C68.3844 70.8778 68.4698 71.0866 68.5029 71.3253H67.9163C67.8715 71.1513 67.7721 70.9972 67.618 70.8629C67.4655 70.727 67.26 70.6591 67.0015 70.6591C66.7728 70.6591 66.5723 70.7187 66.3999 70.8381C66.2293 70.9557 66.0958 71.1223 65.9997 71.3377C65.9053 71.5515 65.858 71.8026 65.858 72.0909C65.858 72.3859 65.9044 72.6428 65.9972 72.8615C66.0917 73.0803 66.2243 73.2501 66.395 73.3711C66.5673 73.4921 66.7695 73.5526 67.0015 73.5526C67.154 73.5526 67.2923 73.526 67.4166 73.473C67.5409 73.42 67.6462 73.3438 67.7323 73.2443C67.8185 73.1449 67.8798 73.0256 67.9163 72.8864H68.5029C68.4698 73.1117 68.3878 73.3147 68.2568 73.4954C68.1276 73.6744 67.9561 73.8169 67.7423 73.9229C67.5302 74.0273 67.2832 74.0795 67.0015 74.0795ZM71.056 70.1818V70.679H69.0773V70.1818H71.056ZM69.654 69.267H70.2407V72.9062C70.2407 73.072 70.2647 73.1963 70.3128 73.2791C70.3625 73.3603 70.4255 73.415 70.5017 73.4432C70.5796 73.4697 70.6616 73.483 70.7478 73.483C70.8124 73.483 70.8655 73.4796 70.9069 73.473C70.9483 73.4647 70.9815 73.4581 71.0063 73.4531L71.1256 73.9801C71.0859 73.995 71.0303 74.0099 70.9591 74.0249C70.8878 74.0414 70.7975 74.0497 70.6881 74.0497C70.5224 74.0497 70.36 74.0141 70.2009 73.9428C70.0435 73.8716 69.9126 73.763 69.8082 73.6172C69.7054 73.4714 69.654 73.2874 69.654 73.0653V69.267ZM76.5824 75.4318V73.4134H76.5326C76.4896 73.483 76.4282 73.5708 76.3487 73.6768C76.2691 73.7812 76.1556 73.8749 76.0081 73.9577C75.8606 74.0389 75.6643 74.0795 75.419 74.0795C75.1008 74.0795 74.8199 73.9992 74.5763 73.8384C74.3327 73.676 74.1421 73.4473 74.0046 73.1523C73.867 72.8557 73.7983 72.5052 73.7983 72.1009C73.7983 71.6998 73.867 71.3518 74.0046 71.0568C74.1421 70.7618 74.3335 70.534 74.5788 70.3732C74.8241 70.2125 75.1075 70.1321 75.4289 70.1321C75.6775 70.1321 75.8739 70.1735 76.0181 70.2564C76.1639 70.3376 76.2749 70.4304 76.3512 70.5348C76.4291 70.6375 76.4896 70.7221 76.5326 70.7884H76.6022V70.1818H77.169V75.4318H76.5824ZM75.4986 73.5526C75.7339 73.5526 75.9327 73.4912 76.0951 73.3686C76.2575 73.2443 76.381 73.0728 76.4655 72.854C76.55 72.6336 76.5923 72.3793 76.5923 72.0909C76.5923 71.8059 76.5509 71.5565 76.468 71.3427C76.3852 71.1272 76.2625 70.9599 76.1001 70.8406C75.9377 70.7196 75.7372 70.6591 75.4986 70.6591C75.25 70.6591 75.0428 70.7229 74.8771 70.8505C74.713 70.9764 74.5896 71.148 74.5067 71.3651C74.4255 71.5805 74.3849 71.8224 74.3849 72.0909C74.3849 72.3627 74.4263 72.6096 74.5092 72.8317C74.5937 73.0521 74.718 73.2277 74.8821 73.3587C75.0478 73.4879 75.2533 73.5526 75.4986 73.5526ZM80.6841 72.4389V70.1818H81.2708V74H80.6841V73.3537H80.6443C80.5549 73.5476 80.4157 73.7125 80.2267 73.8484C80.0378 73.9826 79.7992 74.0497 79.5108 74.0497C79.2722 74.0497 79.0601 73.9975 78.8745 73.8931C78.6889 73.7871 78.543 73.628 78.437 73.4158C78.3309 73.2021 78.2779 72.9328 78.2779 72.608V70.1818H78.8645V72.5682C78.8645 72.8466 78.9424 73.0687 79.0982 73.2344C79.2556 73.4001 79.4561 73.483 79.6997 73.483C79.8456 73.483 79.9939 73.4457 80.1447 73.3711C80.2972 73.2965 80.4248 73.1822 80.5275 73.0281C80.6319 72.8739 80.6841 72.6776 80.6841 72.4389ZM83.5038 74.0895C83.2619 74.0895 83.0423 74.0439 82.8451 73.9528C82.6479 73.86 82.4913 73.7266 82.3753 73.5526C82.2593 73.3769 82.2013 73.1648 82.2013 72.9162C82.2013 72.6974 82.2444 72.5201 82.3305 72.3842C82.4167 72.2467 82.5319 72.139 82.6761 72.0611C82.8202 71.9832 82.9793 71.9252 83.1533 71.8871C83.329 71.8473 83.5055 71.8158 83.6828 71.7926C83.9148 71.7628 84.1029 71.7404 84.2471 71.7255C84.3929 71.7089 84.499 71.6816 84.5653 71.6435C84.6332 71.6054 84.6672 71.5391 84.6672 71.4446V71.4247C84.6672 71.1795 84.6001 70.9889 84.4658 70.853C84.3333 70.7171 84.1319 70.6491 83.8618 70.6491C83.5817 70.6491 83.3621 70.7105 83.2031 70.8331C83.044 70.9557 82.9321 71.0866 82.8675 71.2259L82.3107 71.027C82.4101 70.795 82.5427 70.6143 82.7084 70.4851C82.8758 70.3542 83.058 70.263 83.2553 70.2116C83.4541 70.1586 83.6497 70.1321 83.8419 70.1321C83.9645 70.1321 84.1054 70.147 84.2645 70.1768C84.4252 70.205 84.5802 70.2638 84.7293 70.3533C84.8801 70.4428 85.0053 70.5779 85.1047 70.7585C85.2041 70.9392 85.2538 71.1811 85.2538 71.4844V74H84.6672V73.483H84.6374C84.5976 73.5658 84.5313 73.6545 84.4385 73.7489C84.3457 73.8434 84.2222 73.9238 84.0681 73.9901C83.914 74.0563 83.7259 74.0895 83.5038 74.0895ZM83.5933 73.5625C83.8253 73.5625 84.0209 73.5169 84.18 73.4258C84.3407 73.3346 84.4617 73.217 84.5429 73.0728C84.6258 72.9286 84.6672 72.777 84.6672 72.6179V72.081C84.6423 72.1108 84.5876 72.1381 84.5031 72.163C84.4203 72.1862 84.3241 72.2069 84.2148 72.2251C84.1071 72.2417 84.0018 72.2566 83.8991 72.2699C83.798 72.2815 83.716 72.2914 83.653 72.2997C83.5005 72.3196 83.358 72.3519 83.2254 72.3967C83.0945 72.4397 82.9884 72.5052 82.9072 72.593C82.8277 72.6792 82.7879 72.7969 82.7879 72.946C82.7879 73.1499 82.8633 73.304 83.0141 73.4084C83.1666 73.5111 83.3597 73.5625 83.5933 73.5625ZM86.9462 71.7031V74H86.3596V70.1818H86.9263V70.7784H86.9761C87.0656 70.5845 87.2014 70.4287 87.3837 70.3111C87.566 70.1918 87.8013 70.1321 88.0897 70.1321C88.3482 70.1321 88.5744 70.1851 88.7683 70.2912C88.9622 70.3956 89.113 70.5547 89.2207 70.7685C89.3285 70.9806 89.3823 71.2491 89.3823 71.5739V74H88.7957V71.6136C88.7957 71.3137 88.7178 71.08 88.562 70.9126C88.4062 70.7436 88.1924 70.6591 87.9207 70.6591C87.7334 70.6591 87.566 70.6997 87.4185 70.7809C87.2727 70.8621 87.1575 70.9806 87.073 71.1364C86.9885 71.2921 86.9462 71.4811 86.9462 71.7031ZM92.1498 70.1818V70.679H90.1711V70.1818H92.1498ZM90.7478 69.267H91.3345V72.9062C91.3345 73.072 91.3585 73.1963 91.4066 73.2791C91.4563 73.3603 91.5193 73.415 91.5955 73.4432C91.6734 73.4697 91.7554 73.483 91.8416 73.483C91.9062 73.483 91.9592 73.4796 92.0007 73.473C92.0421 73.4647 92.0753 73.4581 92.1001 73.4531L92.2194 73.9801C92.1797 73.995 92.1241 74.0099 92.0529 74.0249C91.9816 74.0414 91.8913 74.0497 91.7819 74.0497C91.6162 74.0497 91.4538 74.0141 91.2947 73.9428C91.1373 73.8716 91.0064 73.763 90.902 73.6172C90.7992 73.4714 90.7478 73.2874 90.7478 73.0653V69.267ZM93.0673 74V70.1818H93.6539V74H93.0673ZM93.3656 69.5455C93.2512 69.5455 93.1526 69.5065 93.0698 69.4286C92.9886 69.3507 92.948 69.2571 92.948 69.1477C92.948 69.0384 92.9886 68.9447 93.0698 68.8668C93.1526 68.7889 93.2512 68.75 93.3656 68.75C93.4799 68.75 93.5777 68.7889 93.6589 68.8668C93.7418 68.9447 93.7832 69.0384 93.7832 69.1477C93.7832 69.2571 93.7418 69.3507 93.6589 69.4286C93.5777 69.5065 93.4799 69.5455 93.3656 69.5455ZM96.4239 70.1818V70.679H94.4452V70.1818H96.4239ZM95.0219 69.267H95.6086V72.9062C95.6086 73.072 95.6326 73.1963 95.6807 73.2791C95.7304 73.3603 95.7934 73.415 95.8696 73.4432C95.9475 73.4697 96.0295 73.483 96.1157 73.483C96.1803 73.483 96.2334 73.4796 96.2748 73.473C96.3162 73.4647 96.3494 73.4581 96.3742 73.4531L96.4935 73.9801C96.4538 73.995 96.3982 74.0099 96.327 74.0249C96.2557 74.0414 96.1654 74.0497 96.056 74.0497C95.8903 74.0497 95.7279 74.0141 95.5688 73.9428C95.4114 73.8716 95.2805 73.763 95.1761 73.6172C95.0733 73.4714 95.0219 73.2874 95.0219 73.0653V69.267ZM97.7192 75.4318C97.6198 75.4318 97.5311 75.4235 97.4532 75.407C97.3754 75.392 97.3215 75.3771 97.2917 75.3622L97.4408 74.8452C97.5833 74.8816 97.7093 74.8949 97.8187 74.8849C97.928 74.875 98.025 74.8261 98.1095 74.7383C98.1957 74.6521 98.2744 74.5121 98.3456 74.3182L98.455 74.0199L97.0431 70.1818H97.6795L98.7334 73.2244H98.7732L99.8272 70.1818H100.464L98.8428 74.5568C98.7699 74.754 98.6796 74.9173 98.5719 75.0465C98.4641 75.1774 98.339 75.2744 98.1965 75.3374C98.0556 75.4003 97.8965 75.4318 97.7192 75.4318Z" fill="white"/>
<path d="M51.2756 91V89.858L54.3054 86.8878C54.5952 86.5952 54.8366 86.3352 55.0298 86.108C55.223 85.8807 55.3679 85.6605 55.4645 85.4474C55.5611 85.2344 55.6094 85.0071 55.6094 84.7656C55.6094 84.4901 55.5469 84.2543 55.4219 84.0582C55.2969 83.8594 55.125 83.706 54.9062 83.598C54.6875 83.4901 54.4389 83.4361 54.1605 83.4361C53.8736 83.4361 53.6222 83.4957 53.4062 83.6151C53.1903 83.7315 53.0227 83.8977 52.9034 84.1136C52.7869 84.3295 52.7287 84.5866 52.7287 84.8849H51.2244C51.2244 84.331 51.3509 83.8494 51.6037 83.4403C51.8565 83.0312 52.2045 82.7145 52.6477 82.4901C53.0938 82.2656 53.6051 82.1534 54.1818 82.1534C54.767 82.1534 55.2813 82.2628 55.7244 82.4815C56.1676 82.7003 56.5114 83 56.7557 83.3807C57.0028 83.7614 57.1264 84.196 57.1264 84.6847C57.1264 85.0114 57.0639 85.3324 56.9389 85.6477C56.8139 85.9631 56.5938 86.3125 56.2784 86.696C55.9659 87.0795 55.527 87.544 54.9616 88.0895L53.4574 89.6193V89.679H57.2585V91H51.2756Z" fill="white"/>
<path d="M121.5 79C121.5 74.5817 125.082 71 129.5 71V71C133.918 71 137.5 74.5817 137.5 79V79C137.5 83.4183 133.918 87 129.5 87V87C125.082 87 121.5 83.4183 121.5 79V79Z" fill="white" fill-opacity="0.1"/>
<path d="M125.417 79H133.583Z" fill="white"/>
<path d="M125.417 79H133.583" stroke="white" stroke-linecap="round" stroke-linejoin="round"/>
<path d="M141.5 79C141.5 74.5817 145.082 71 149.5 71V71C153.918 71 157.5 74.5817 157.5 79V79C157.5 83.4183 153.918 87 149.5 87V87C145.082 87 141.5 83.4183 141.5 79V79Z" fill="white" fill-opacity="0.1"/>
<path d="M149.5 75.5C149.616 75.5 149.727 75.5461 149.809 75.6281C149.891 75.7102 149.938 75.8215 149.938 75.9375V78.5625H152.562C152.679 78.5625 152.79 78.6086 152.872 78.6906C152.954 78.7727 153 78.884 153 79C153 79.116 152.954 79.2273 152.872 79.3094C152.79 79.3914 152.679 79.4375 152.562 79.4375H149.938V82.0625C149.938 82.1785 149.891 82.2898 149.809 82.3719C149.727 82.4539 149.616 82.5 149.5 82.5C149.384 82.5 149.273 82.4539 149.191 82.3719C149.109 82.2898 149.062 82.1785 149.062 82.0625V79.4375H146.438C146.321 79.4375 146.21 79.3914 146.128 79.3094C146.046 79.2273 146 79.116 146 79C146 78.884 146.046 78.7727 146.128 78.6906C146.21 78.6086 146.321 78.5625 146.438 78.5625H149.062V75.9375C149.062 75.8215 149.109 75.7102 149.191 75.6281C149.273 75.5461 149.384 75.5 149.5 75.5V75.5Z" fill="white"/>
</g>
<path d="M5 97H203" stroke="url(#paint7_linear_139_3325)"/>
<path d="M10 102H198" stroke="url(#paint8_linear_139_3325)"/>
<defs>
<filter id="filter0_d_139_3325" x="26.5" y="55" width="155" height="60" filterUnits="userSpaceOnUse" color-interpolation-filters="sRGB">
<feFlood flood-opacity="0" result="BackgroundImageFix"/>
<feColorMatrix in="SourceAlpha" type="matrix" values="0 0 0 0 0 0 0 0 0 0 0 0 0 0 0 0 0 0 127 0" result="hardAlpha"/>
<feOffset dy="6"/>
<feGaussianBlur stdDeviation="6"/>
<feComposite in2="hardAlpha" operator="out"/>
<feColorMatrix type="matrix" values="0 0 0 0 0 0 0 0 0 0 0 0 0 0 0 0 0 0 0.03 0"/>
<feBlend mode="normal" in2="BackgroundImageFix" result="effect1_dropShadow_139_3325"/>
<feBlend mode="normal" in="SourceGraphic" in2="effect1_dropShadow_139_3325" result="shape"/>
</filter>
<linearGradient id="paint0_linear_139_3325" x1="33.5" y1="153" x2="33.5" y2="5" gradientUnits="userSpaceOnUse">
<stop offset="0%" stop-color="#E2E8F0" stop-opacity="0"/>
<stop offset="0.185417" stop-color="#E2E8F0"/>
<stop offset="0.826042" stop-color="#E2E8F0"/>
<stop offset="1" stop-color="#E2E8F0" stop-opacity="0"/>
</linearGradient>
<linearGradient id="paint1_linear_139_3325" x1="38.5" y1="158" x2="38.5" y2="-2.74062e-08" gradientUnits="userSpaceOnUse">
<stop offset="0%" stop-color="#E2E8F0" stop-opacity="0"/>
<stop offset="0.185417" stop-color="#E2E8F0"/>
<stop offset="0.826042" stop-color="#E2E8F0"/>
<stop offset="1" stop-color="#E2E8F0" stop-opacity="0"/>
</linearGradient>
<linearGradient id="paint2_linear_139_3325" x1="170.5" y1="2.74063e-08" x2="170.5" y2="158" gradientUnits="userSpaceOnUse">
<stop offset="0%" stop-color="#E2E8F0" stop-opacity="0"/>
<stop offset="0.185417" stop-color="#E2E8F0"/>
<stop offset="0.826042" stop-color="#E2E8F0"/>
<stop offset="1" stop-color="#E2E8F0" stop-opacity="0"/>
</linearGradient>
<linearGradient id="paint3_linear_139_3325" x1="175.5" y1="5" x2="175.5" y2="153" gradientUnits="userSpaceOnUse">
<stop offset="0%" stop-color="#E2E8F0" stop-opacity="0"/>
<stop offset="0.185417" stop-color="#E2E8F0"/>
<stop offset="0.826042" stop-color="#E2E8F0"/>
<stop offset="1" stop-color="#E2E8F0" stop-opacity="0"/>
</linearGradient>
<linearGradient id="paint4_linear_139_3325" x1="199.899" y1="56.5" x2="10" y2="56.4999" gradientUnits="userSpaceOnUse">
<stop offset="0%" stop-color="#E2E8F0" stop-opacity="0"/>
<stop offset="0.185417" stop-color="#E2E8F0"/>
<stop offset="0.826042" stop-color="#E2E8F0"/>
<stop offset="1" stop-color="#E2E8F0" stop-opacity="0"/>
</linearGradient>
<linearGradient id="paint5_linear_139_3325" x1="205" y1="61.5" x2="5" y2="61.4999" gradientUnits="userSpaceOnUse">
<stop offset="0%" stop-color="#E2E8F0" stop-opacity="0"/>
<stop offset="0.185417" stop-color="#E2E8F0"/>
<stop offset="0.826042" stop-color="#E2E8F0"/>
<stop offset="1" stop-color="#E2E8F0" stop-opacity="0"/>
</linearGradient>
<linearGradient id="paint6_linear_139_3325" x1="57.9629" y1="64.744" x2="92.854" y2="134.314" gradientUnits="userSpaceOnUse">
<stop offset="0%" stop-color="#A855F7"/>
<stop offset="1" stop-color="#3B82F6"/>
</linearGradient>
<linearGradient id="paint7_linear_139_3325" x1="205" y1="97.5" x2="5" y2="97.4999" gradientUnits="userSpaceOnUse">
<stop offset="0%" stop-color="#E2E8F0" stop-opacity="0"/>
<stop offset="0.185417" stop-color="#E2E8F0"/>
<stop offset="0.826042" stop-color="#E2E8F0"/>
<stop offset="1" stop-color="#E2E8F0" stop-opacity="0"/>
</linearGradient>
<linearGradient id="paint8_linear_139_3325" x1="199.899" y1="102.5" x2="10" y2="102.5" gradientUnits="userSpaceOnUse">
<stop offset="0%" stop-color="#E2E8F0" stop-opacity="0"/>
<stop offset="0.185417" stop-color="#E2E8F0"/>
<stop offset="0.826042" stop-color="#E2E8F0"/>
<stop offset="1" stop-color="#E2E8F0" stop-opacity="0"/>
</linearGradient>
</defs>
</svg>
