<svg width="208" height="159" viewBox="0 0 208 159" fill="none" xmlns="http://www.w3.org/2000/svg">
<path d="M26 153L26 5" stroke="url(#paint0_linear_127_358)"/>
<path d="M31 158L31 -5.24521e-06" stroke="url(#paint1_linear_127_358)"/>
<path d="M177 0L177 158" stroke="url(#paint2_linear_127_358)"/>
<path d="M182 5L182 153" stroke="url(#paint3_linear_127_358)"/>
<path d="M10 11.5H198" stroke="url(#paint4_linear_127_358)"/>
<path d="M5 16.5H203" stroke="url(#paint5_linear_127_358)"/>
<g filter="url(#filter0_d_127_358)">
<g clip-path="url(#clip0_127_358)">
<path d="M32 23.5C32 20.1863 34.6863 17.5 38 17.5H170C173.314 17.5 176 20.1863 176 23.5V134.5C176 137.814 173.314 140.5 170 140.5H38C34.6863 140.5 32 137.814 32 134.5V23.5Z" fill="url(#paint6_linear_127_358)" fill-opacity="0.2" shape-rendering="crispEdges"/>
<circle cx="39.5" cy="25" r="2.5" fill="white" fill-opacity="0.4"/>
<circle cx="47.5" cy="25" r="2.5" fill="white" fill-opacity="0.4"/>
<circle cx="55.5" cy="25" r="2.5" fill="white" fill-opacity="0.4"/>
<path d="M176 31.5H32V33.5H176V31.5Z" fill="white" fill-opacity="0.4" mask="url(#path-8-inside-1_127_358)"/>
<g filter="url(#filter1_d_127_358)">
<rect x="39" y="29" width="130" height="100" rx="6" fill="url(#paint7_linear_127_358)" shape-rendering="crispEdges"/>
<path d="M158.125 34.1308C158.206 34.0505 158.315 34.0054 158.428 34.0054C158.542 34.0054 158.651 34.0505 158.731 34.1308L160.997 36.3993L163.264 34.1308C163.303 34.0899 163.351 34.0572 163.403 34.0348C163.455 34.0123 163.511 34.0005 163.568 34C163.625 33.9995 163.681 34.0104 163.734 34.0319C163.787 34.0535 163.834 34.0853 163.875 34.1255C163.915 34.1658 163.947 34.2136 163.968 34.2663C163.99 34.319 164 34.3754 164 34.4323C163.999 34.4892 163.988 34.5454 163.965 34.5977C163.943 34.65 163.91 34.6973 163.869 34.7368L161.603 37.0053L163.869 39.2736C163.947 39.3545 163.99 39.4627 163.989 39.5751C163.989 39.6875 163.943 39.795 163.864 39.8744C163.785 39.954 163.677 39.999 163.565 40C163.453 40.0009 163.345 39.9577 163.264 39.8796L160.997 37.6113L158.731 39.8796C158.65 39.9577 158.542 40.0009 158.43 40C158.317 39.999 158.21 39.954 158.131 39.8744C158.051 39.795 158.006 39.6875 158.005 39.5751C158.004 39.4627 158.047 39.3545 158.125 39.2736L160.392 37.0053L158.125 34.7368C158.045 34.6565 158 34.5475 158 34.4338C158 34.3202 158.045 34.2112 158.125 34.1308Z" fill="white" fill-opacity="0.4"/>
<g clip-path="url(#clip1_127_358)">
<path d="M104.982 45.566C104.883 45.3935 104.74 45.2503 104.568 45.1506C104.396 45.051 104.201 44.9985 104.002 44.9985C103.803 44.9985 103.608 45.051 103.436 45.1506C103.264 45.2503 103.121 45.3935 103.022 45.566L96.1652 57.233C95.7082 58.011 96.2562 59 97.1452 59H110.858C111.747 59 112.296 58.01 111.838 57.233L104.982 45.566ZM104 49C104.535 49 104.954 49.462 104.9 49.995L104.55 53.502C104.538 53.6397 104.475 53.7681 104.374 53.8616C104.272 53.9551 104.138 54.007 104 54.007C103.862 54.007 103.729 53.9551 103.627 53.8616C103.525 53.7681 103.462 53.6397 103.45 53.502L103.1 49.995C103.088 49.8692 103.102 49.7422 103.141 49.6221C103.181 49.5021 103.245 49.3916 103.33 49.2979C103.414 49.2041 103.518 49.1292 103.633 49.0779C103.749 49.0266 103.874 49 104 49ZM104.002 55C104.267 55 104.522 55.1053 104.709 55.2928C104.897 55.4804 105.002 55.7347 105.002 56C105.002 56.2652 104.897 56.5195 104.709 56.7071C104.522 56.8946 104.267 57 104.002 57C103.737 57 103.483 56.8946 103.295 56.7071C103.108 56.5195 103.002 56.2652 103.002 56C103.002 55.7347 103.108 55.4804 103.295 55.2928C103.483 55.1053 103.737 55 104.002 55Z" fill="white"/>
</g>
<path d="M84 74.5C84 73.6716 84.6716 73 85.5 73H122.5C123.328 73 124 73.6716 124 74.5C124 75.3284 123.328 76 122.5 76H85.5C84.6716 76 84 75.3284 84 74.5Z" fill="white"/>
<path d="M54 84.5C54 83.6716 54.6716 83 55.5 83H82.5C83.3284 83 84 83.6716 84 84.5C84 85.3284 83.3284 86 82.5 86H55.5C54.6716 86 54 85.3284 54 84.5Z" fill="white" fill-opacity="0.3"/>
<path d="M89 84.5C89 83.6716 89.6716 83 90.5 83H117.5C118.328 83 119 83.6716 119 84.5C119 85.3284 118.328 86 117.5 86H90.5C89.6716 86 89 85.3284 89 84.5Z" fill="white" fill-opacity="0.3"/>
<path d="M124 84.5C124 83.6716 124.672 83 125.5 83H152.5C153.328 83 154 83.6716 154 84.5C154 85.3284 153.328 86 152.5 86H125.5C124.672 86 124 85.3284 124 84.5Z" fill="white" fill-opacity="0.3"/>
<path d="M74 107.5C74 106.672 74.6716 106 75.5 106H85.5C86.3284 106 87 106.672 87 107.5C87 108.328 86.3284 109 85.5 109H75.5C74.6716 109 74 108.328 74 107.5Z" fill="white"/>
<path d="M62.5 107.5C62.5 104.186 65.1863 101.5 68.5 101.5H92.5C95.8137 101.5 98.5 104.186 98.5 107.5C98.5 110.814 95.8137 113.5 92.5 113.5H68.5C65.1863 113.5 62.5 110.814 62.5 107.5Z" stroke="white" stroke-opacity="0.2"/>
<path d="M109 107.5C109 103.91 111.91 101 115.5 101H139.5C143.09 101 146 103.91 146 107.5C146 111.09 143.09 114 139.5 114H115.5C111.91 114 109 111.09 109 107.5Z" fill="white" fill-opacity="0.2"/>
<rect x="121" y="106" width="13" height="3" rx="1.5" fill="white"/>
</g>
</g>
</g>
<path d="M5 141.5H203" stroke="url(#paint8_linear_127_358)"/>
<path d="M10 146.5H198" stroke="url(#paint9_linear_127_358)"/>
<defs>
<filter id="filter0_d_127_358" x="20" y="11.5" width="168" height="147" filterUnits="userSpaceOnUse" color-interpolation-filters="sRGB">
<feFlood flood-opacity="0" result="BackgroundImageFix"/>
<feColorMatrix in="SourceAlpha" type="matrix" values="0 0 0 0 0 0 0 0 0 0 0 0 0 0 0 0 0 0 127 0" result="hardAlpha"/>
<feOffset dy="6"/>
<feGaussianBlur stdDeviation="6"/>
<feComposite in2="hardAlpha" operator="out"/>
<feColorMatrix type="matrix" values="0 0 0 0 0 0 0 0 0 0 0 0 0 0 0 0 0 0 0.03 0"/>
<feBlend mode="normal" in2="BackgroundImageFix" result="effect1_dropShadow_127_358"/>
<feBlend mode="normal" in="SourceGraphic" in2="effect1_dropShadow_127_358" result="shape"/>
</filter>
<filter id="filter1_d_127_358" x="15" y="23" width="178" height="124" filterUnits="userSpaceOnUse" color-interpolation-filters="sRGB">
<feFlood flood-opacity="0" result="BackgroundImageFix"/>
<feColorMatrix in="SourceAlpha" type="matrix" values="0 0 0 0 0 0 0 0 0 0 0 0 0 0 0 0 0 0 127 0" result="hardAlpha"/>
<feOffset dy="6"/>
<feGaussianBlur stdDeviation="6"/>
<feComposite in2="hardAlpha" operator="out"/>
<feColorMatrix type="matrix" values="0 0 0 0 0 0 0 0 0 0 0 0 0 0 0 0 0 0 0.03 0"/>
<feBlend mode="normal" in2="BackgroundImageFix" result="effect1_dropShadow_127_358"/>
<feBlend mode="normal" in="SourceGraphic" in2="effect1_dropShadow_127_358" result="shape"/>
</filter>
<linearGradient id="paint0_linear_127_358" x1="26.5" y1="153" x2="26.5" y2="5" gradientUnits="userSpaceOnUse">
<stop offset="0%" stop-color="#E2E8F0" stop-opacity="0"/>
<stop offset="0.185417" stop-color="#E2E8F0"/>
<stop offset="0.826042" stop-color="#E2E8F0"/>
<stop offset="1" stop-color="#E2E8F0" stop-opacity="0"/>
</linearGradient>
<linearGradient id="paint1_linear_127_358" x1="31.5" y1="158" x2="31.5" y2="-2.74062e-08" gradientUnits="userSpaceOnUse">
<stop offset="0%" stop-color="#E2E8F0" stop-opacity="0"/>
<stop offset="0.185417" stop-color="#E2E8F0"/>
<stop offset="0.826042" stop-color="#E2E8F0"/>
<stop offset="1" stop-color="#E2E8F0" stop-opacity="0"/>
</linearGradient>
<linearGradient id="paint2_linear_127_358" x1="177.5" y1="2.74063e-08" x2="177.5" y2="158" gradientUnits="userSpaceOnUse">
<stop offset="0%" stop-color="#E2E8F0" stop-opacity="0"/>
<stop offset="0.185417" stop-color="#E2E8F0"/>
<stop offset="0.826042" stop-color="#E2E8F0"/>
<stop offset="1" stop-color="#E2E8F0" stop-opacity="0"/>
</linearGradient>
<linearGradient id="paint3_linear_127_358" x1="182.5" y1="5" x2="182.5" y2="153" gradientUnits="userSpaceOnUse">
<stop offset="0%" stop-color="#E2E8F0" stop-opacity="0"/>
<stop offset="0.185417" stop-color="#E2E8F0"/>
<stop offset="0.826042" stop-color="#E2E8F0"/>
<stop offset="1" stop-color="#E2E8F0" stop-opacity="0"/>
</linearGradient>
<linearGradient id="paint4_linear_127_358" x1="199.899" y1="12" x2="10" y2="11.9999" gradientUnits="userSpaceOnUse">
<stop offset="0%" stop-color="#E2E8F0" stop-opacity="0"/>
<stop offset="0.185417" stop-color="#E2E8F0"/>
<stop offset="0.826042" stop-color="#E2E8F0"/>
<stop offset="1" stop-color="#E2E8F0" stop-opacity="0"/>
</linearGradient>
<linearGradient id="paint5_linear_127_358" x1="205" y1="17" x2="5" y2="16.9999" gradientUnits="userSpaceOnUse">
<stop offset="0%" stop-color="#E2E8F0" stop-opacity="0"/>
<stop offset="0.185417" stop-color="#E2E8F0"/>
<stop offset="0.826042" stop-color="#E2E8F0"/>
<stop offset="1" stop-color="#E2E8F0" stop-opacity="0"/>
</linearGradient>
<linearGradient id="paint6_linear_127_358" x1="53.3943" y1="30.292" x2="188.593" y2="117.021" gradientUnits="userSpaceOnUse">
<stop offset="0%" stop-color="#A855F7"/>
<stop offset="1" stop-color="#3B82F6"/>
</linearGradient>
<linearGradient id="paint7_linear_127_358" x1="58.3143" y1="39.4" x2="172.604" y2="120.812" gradientUnits="userSpaceOnUse">
<stop offset="0%" stop-color="#A855F7"/>
<stop offset="1" stop-color="#3B82F6"/>
</linearGradient>
<linearGradient id="paint8_linear_127_358" x1="205" y1="142" x2="5" y2="142" gradientUnits="userSpaceOnUse">
<stop offset="0%" stop-color="#E2E8F0" stop-opacity="0"/>
<stop offset="0.185417" stop-color="#E2E8F0"/>
<stop offset="0.826042" stop-color="#E2E8F0"/>
<stop offset="1" stop-color="#E2E8F0" stop-opacity="0"/>
</linearGradient>
<linearGradient id="paint9_linear_127_358" x1="199.899" y1="147" x2="10" y2="147" gradientUnits="userSpaceOnUse">
<stop offset="0%" stop-color="#E2E8F0" stop-opacity="0"/>
<stop offset="0.185417" stop-color="#E2E8F0"/>
<stop offset="0.826042" stop-color="#E2E8F0"/>
<stop offset="1" stop-color="#E2E8F0" stop-opacity="0"/>
</linearGradient>
<clipPath id="clip0_127_358">
<path d="M32 23.5C32 20.1863 34.6863 17.5 38 17.5H170C173.314 17.5 176 20.1863 176 23.5V134.5C176 137.814 173.314 140.5 170 140.5H38C34.6863 140.5 32 137.814 32 134.5V23.5Z" fill="white"/>
</clipPath>
<clipPath id="clip1_127_358">
<rect width="16" height="16" fill="white" transform="translate(96 44)"/>
</clipPath>
</defs>
</svg>
