<svg width="208" height="158" viewBox="0 0 208 158" fill="none" xmlns="http://www.w3.org/2000/svg">
<path d="M27 153L27 5" stroke="url(#paint0_linear_127_93)"/>
<path d="M32 158L32 -5.24521e-06" stroke="url(#paint1_linear_127_93)"/>
<path d="M176 0L176 158" stroke="url(#paint2_linear_127_93)"/>
<path d="M181 5L181 153" stroke="url(#paint3_linear_127_93)"/>
<path d="M10 26H198" stroke="url(#paint4_linear_127_93)"/>
<path d="M5 31H203" stroke="url(#paint5_linear_127_93)"/>
<path d="M32.5 41H175.5V50C175.5 53.3137 172.814 56 169.5 56H38.5C35.1863 56 32.5 53.3137 32.5 50V41Z" fill="#D1D5DB"/>
<path d="M32.5 69C32.5 65.6863 35.1863 63 38.5 63H169.5C172.814 63 175.5 65.6863 175.5 69V99C175.5 102.314 172.814 105 169.5 105H38.5C35.1863 105 32.5 102.314 32.5 99V69Z" fill="url(#paint6_linear_127_93)"/>
<path d="M32.5 127H175.5V118C175.5 114.686 172.814 112 169.5 112H38.5C35.1863 112 32.5 114.686 32.5 118V127Z" fill="#D1D5DB"/>
<rect x="124.5" y="31" width="12" height="4" rx="2" fill="#D1D5DB"/>
<rect x="141.5" y="31" width="12" height="4" rx="2" fill="url(#paint7_linear_127_93)"/>
<rect x="158.5" y="31" width="12" height="4" rx="2" fill="#D1D5DB"/>
<g filter="url(#filter0_d_127_93)">
<path d="M149.63 45.5105L149.102 34.6047C149.061 33.7626 150.017 33.2511 150.695 33.7521L158.985 39.8767C159.712 40.4134 159.411 41.5621 158.514 41.6734L154.482 42.1739C154.196 42.2094 153.94 42.3663 153.778 42.6045L151.456 46.024C150.916 46.8184 149.676 46.4697 149.63 45.5105Z" fill="#8B5CF6"/>
<path d="M149.63 45.5105L149.102 34.6047C149.061 33.7626 150.017 33.2511 150.695 33.7521L158.985 39.8767C159.712 40.4134 159.411 41.5621 158.514 41.6734L154.482 42.1739C154.196 42.2094 153.94 42.3663 153.778 42.6045L151.456 46.024C150.916 46.8184 149.676 46.4697 149.63 45.5105Z" stroke="white"/>
</g>
<path d="M5 127H203" stroke="url(#paint8_linear_127_93)"/>
<path d="M10 132H198" stroke="url(#paint9_linear_127_93)"/>
<defs>
<filter id="filter0_d_127_93" x="136.601" y="27.0532" width="35.2925" height="37.9111" filterUnits="userSpaceOnUse" color-interpolation-filters="sRGB">
<feFlood flood-opacity="0" result="BackgroundImageFix"/>
<feColorMatrix in="SourceAlpha" type="matrix" values="0 0 0 0 0 0 0 0 0 0 0 0 0 0 0 0 0 0 127 0" result="hardAlpha"/>
<feOffset dy="6"/>
<feGaussianBlur stdDeviation="6"/>
<feComposite in2="hardAlpha" operator="out"/>
<feColorMatrix type="matrix" values="0 0 0 0 0 0 0 0 0 0 0 0 0 0 0 0 0 0 0.03 0"/>
<feBlend mode="normal" in2="BackgroundImageFix" result="effect1_dropShadow_127_93"/>
<feBlend mode="normal" in="SourceGraphic" in2="effect1_dropShadow_127_93" result="shape"/>
</filter>
<linearGradient id="paint0_linear_127_93" x1="27.5" y1="153" x2="27.5" y2="5" gradientUnits="userSpaceOnUse">
<stop offset="0%" stop-color="#E2E8F0" stop-opacity="0"/>
<stop offset="0.185417" stop-color="#E2E8F0"/>
<stop offset="0.826042" stop-color="#E2E8F0"/>
<stop offset="1" stop-color="#E2E8F0" stop-opacity="0"/>
</linearGradient>
<linearGradient id="paint1_linear_127_93" x1="32.5" y1="158" x2="32.5" y2="-2.74062e-08" gradientUnits="userSpaceOnUse">
<stop offset="0%" stop-color="#E2E8F0" stop-opacity="0"/>
<stop offset="0.185417" stop-color="#E2E8F0"/>
<stop offset="0.826042" stop-color="#E2E8F0"/>
<stop offset="1" stop-color="#E2E8F0" stop-opacity="0"/>
</linearGradient>
<linearGradient id="paint2_linear_127_93" x1="176.5" y1="2.74063e-08" x2="176.5" y2="158" gradientUnits="userSpaceOnUse">
<stop offset="0%" stop-color="#E2E8F0" stop-opacity="0"/>
<stop offset="0.185417" stop-color="#E2E8F0"/>
<stop offset="0.826042" stop-color="#E2E8F0"/>
<stop offset="1" stop-color="#E2E8F0" stop-opacity="0"/>
</linearGradient>
<linearGradient id="paint3_linear_127_93" x1="181.5" y1="5" x2="181.5" y2="153" gradientUnits="userSpaceOnUse">
<stop offset="0%" stop-color="#E2E8F0" stop-opacity="0"/>
<stop offset="0.185417" stop-color="#E2E8F0"/>
<stop offset="0.826042" stop-color="#E2E8F0"/>
<stop offset="1" stop-color="#E2E8F0" stop-opacity="0"/>
</linearGradient>
<linearGradient id="paint4_linear_127_93" x1="199.899" y1="26.5" x2="10" y2="26.4999" gradientUnits="userSpaceOnUse">
<stop offset="0%" stop-color="#E2E8F0" stop-opacity="0"/>
<stop offset="0.185417" stop-color="#E2E8F0"/>
<stop offset="0.826042" stop-color="#E2E8F0"/>
<stop offset="1" stop-color="#E2E8F0" stop-opacity="0"/>
</linearGradient>
<linearGradient id="paint5_linear_127_93" x1="205" y1="31.5" x2="5" y2="31.4999" gradientUnits="userSpaceOnUse">
<stop offset="0%" stop-color="#E2E8F0" stop-opacity="0"/>
<stop offset="0.185417" stop-color="#E2E8F0"/>
<stop offset="0.826042" stop-color="#E2E8F0"/>
<stop offset="1" stop-color="#E2E8F0" stop-opacity="0"/>
</linearGradient>
<linearGradient id="paint6_linear_127_93" x1="53.7457" y1="67.368" x2="96.0419" y2="146.277" gradientUnits="userSpaceOnUse">
<stop offset="0%" stop-color="#A855F7"/>
<stop offset="1" stop-color="#3B82F6"/>
</linearGradient>
<linearGradient id="paint7_linear_127_93" x1="143.283" y1="31.416" x2="147.578" y2="38.4772" gradientUnits="userSpaceOnUse">
<stop offset="0%" stop-color="#A855F7"/>
<stop offset="1" stop-color="#3B82F6"/>
</linearGradient>
<linearGradient id="paint8_linear_127_93" x1="205" y1="127.5" x2="5" y2="127.5" gradientUnits="userSpaceOnUse">
<stop offset="0%" stop-color="#E2E8F0" stop-opacity="0"/>
<stop offset="0.185417" stop-color="#E2E8F0"/>
<stop offset="0.826042" stop-color="#E2E8F0"/>
<stop offset="1" stop-color="#E2E8F0" stop-opacity="0"/>
</linearGradient>
<linearGradient id="paint9_linear_127_93" x1="199.899" y1="132.5" x2="10" y2="132.5" gradientUnits="userSpaceOnUse">
<stop offset="0%" stop-color="#E2E8F0" stop-opacity="0"/>
<stop offset="0.185417" stop-color="#E2E8F0"/>
<stop offset="0.826042" stop-color="#E2E8F0"/>
<stop offset="1" stop-color="#E2E8F0" stop-opacity="0"/>
</linearGradient>
</defs>
</svg>
