<svg width="208" height="158" viewBox="0 0 208 158" fill="none" xmlns="http://www.w3.org/2000/svg">
<path d="M20 153L20 5" stroke="url(#paint0_linear_139_3403)"/>
<path d="M25 158L25 -5.24521e-06" stroke="url(#paint1_linear_139_3403)"/>
<path d="M183 0L183 158" stroke="url(#paint2_linear_139_3403)"/>
<path d="M188 5L188 153" stroke="url(#paint3_linear_139_3403)"/>
<path d="M10 22H198" stroke="url(#paint4_linear_139_3403)"/>
<path d="M5 27H203" stroke="url(#paint5_linear_139_3403)"/>
<path d="M25.6186 33.8182H27.483L30.7244 41.733H30.8438L34.0852 33.8182H35.9496V44H34.4879V36.6321H34.3935L31.3906 43.9851H30.1776L27.1747 36.6271H27.0803V44H25.6186V33.8182ZM41.3504 44.1541C40.6345 44.1541 40.0097 43.9901 39.4761 43.6619C38.9425 43.3338 38.5282 42.8748 38.2332 42.2848C37.9382 41.6948 37.7907 41.0054 37.7907 40.2166C37.7907 39.4245 37.9382 38.7318 38.2332 38.1385C38.5282 37.5452 38.9425 37.0845 39.4761 36.7564C40.0097 36.4283 40.6345 36.2642 41.3504 36.2642C42.0663 36.2642 42.691 36.4283 43.2247 36.7564C43.7583 37.0845 44.1726 37.5452 44.4675 38.1385C44.7625 38.7318 44.91 39.4245 44.91 40.2166C44.91 41.0054 44.7625 41.6948 44.4675 42.2848C44.1726 42.8748 43.7583 43.3338 43.2247 43.6619C42.691 43.9901 42.0663 44.1541 41.3504 44.1541ZM41.3553 42.9062C41.8193 42.9062 42.2038 42.7836 42.5087 42.5384C42.8137 42.2931 43.039 41.9666 43.1849 41.5589C43.334 41.1513 43.4086 40.7022 43.4086 40.2116C43.4086 39.7244 43.334 39.277 43.1849 38.8693C43.039 38.4583 42.8137 38.1286 42.5087 37.88C42.2038 37.6314 41.8193 37.5071 41.3553 37.5071C40.888 37.5071 40.5002 37.6314 40.192 37.88C39.8871 38.1286 39.66 38.4583 39.5109 38.8693C39.365 39.277 39.2921 39.7244 39.2921 40.2116C39.2921 40.7022 39.365 41.1513 39.5109 41.5589C39.66 41.9666 39.8871 42.2931 40.192 42.5384C40.5002 42.7836 40.888 42.9062 41.3553 42.9062ZM48.1258 39.4659V44H46.6393V36.3636H48.0661V37.6065H48.1606C48.3363 37.2022 48.6114 36.8774 48.9859 36.6321C49.3637 36.3868 49.8393 36.2642 50.4127 36.2642C50.9331 36.2642 51.3888 36.3736 51.7799 36.5923C52.171 36.8078 52.4743 37.1293 52.6897 37.5568C52.9052 37.9844 53.0129 38.513 53.0129 39.1428V44H51.5264V39.3217C51.5264 38.7682 51.3822 38.3357 51.0938 38.0241C50.8055 37.7093 50.4094 37.5518 49.9056 37.5518C49.5609 37.5518 49.2543 37.6264 48.9859 37.7756C48.7207 37.9247 48.5103 38.1435 48.3545 38.4318C48.202 38.7169 48.1258 39.0616 48.1258 39.4659ZM58.6411 36.3636V37.5568H54.4699V36.3636H58.6411ZM55.5886 34.5341H57.0751V41.7578C57.0751 42.0462 57.1181 42.2633 57.2043 42.4091C57.2905 42.5516 57.4015 42.6494 57.5374 42.7024C57.6766 42.7521 57.8274 42.777 57.9898 42.777C58.1091 42.777 58.2136 42.7687 58.303 42.7521C58.3925 42.7356 58.4621 42.7223 58.5118 42.7124L58.7803 43.9403C58.6941 43.9735 58.5715 44.0066 58.4124 44.0398C58.2533 44.0762 58.0545 44.0961 57.8158 44.0994C57.4247 44.1061 57.0601 44.0365 56.7221 43.8906C56.384 43.7448 56.1106 43.5194 55.9018 43.2145C55.693 42.9096 55.5886 42.5268 55.5886 42.0661V34.5341ZM62.006 39.4659V44H60.5195V33.8182H61.9861V37.6065H62.0806C62.2596 37.1955 62.533 36.8691 62.9009 36.6271C63.2688 36.3852 63.7494 36.2642 64.3427 36.2642C64.8664 36.2642 65.3237 36.3719 65.7148 36.5874C66.1092 36.8028 66.4142 37.1243 66.6296 37.5518C66.8484 37.9761 66.9577 38.5064 66.9577 39.1428V44H65.4712V39.3217C65.4712 38.7616 65.3271 38.3274 65.0387 38.0192C64.7503 37.7076 64.3493 37.5518 63.8356 37.5518C63.4842 37.5518 63.1694 37.6264 62.891 37.7756C62.6159 37.9247 62.3988 38.1435 62.2397 38.4318C62.0839 38.7169 62.006 39.0616 62.006 39.4659ZM70.4979 33.8182V44H69.0114V33.8182H70.4979ZM73.5074 46.8636C73.2853 46.8636 73.0831 46.8454 72.9008 46.8089C72.7185 46.7758 72.5826 46.7393 72.4932 46.6996L72.8511 45.4815C73.1229 45.5545 73.3648 45.5859 73.577 45.576C73.7891 45.5661 73.9763 45.4865 74.1387 45.3374C74.3045 45.1882 74.4503 44.9446 74.5762 44.6065L74.7602 44.0994L71.9662 36.3636H73.5571L75.491 42.2898H75.5706L77.5045 36.3636H79.1004L75.9534 45.0192C75.8075 45.4169 75.6219 45.7533 75.3966 46.0284C75.1712 46.3068 74.9027 46.5156 74.5912 46.6548C74.2796 46.794 73.9183 46.8636 73.5074 46.8636Z" fill="url(#paint6_linear_139_3403)"/>
<rect x="89.5" y="27" width="42" height="24" rx="12" fill="#DDD6FE"/>
<rect x="109.5" y="29" width="20" height="20" rx="10" fill="url(#paint7_linear_139_3403)"/>
<path d="M141.833 33.8182H143.578L146.238 38.4467H146.347L149.007 33.8182H150.752L147.058 40.0028V44H145.527V40.0028L141.833 33.8182ZM154.187 44.1541C153.434 44.1541 152.786 43.9934 152.243 43.6719C151.703 43.3471 151.285 42.8913 150.99 42.3047C150.698 41.7147 150.552 41.0237 150.552 40.2315C150.552 39.4493 150.698 38.7599 150.99 38.1634C151.285 37.5668 151.696 37.1011 152.223 36.7663C152.753 36.4316 153.373 36.2642 154.082 36.2642C154.513 36.2642 154.931 36.3355 155.335 36.478C155.739 36.6205 156.102 36.8442 156.424 37.1491C156.745 37.4541 156.999 37.8501 157.185 38.3374C157.37 38.8213 157.463 39.4096 157.463 40.1023V40.6293H151.393V39.5156H156.006C156.006 39.1245 155.927 38.7782 155.768 38.4766C155.609 38.1716 155.385 37.9313 155.096 37.7557C154.811 37.58 154.477 37.4922 154.092 37.4922C153.675 37.4922 153.31 37.5949 152.998 37.8004C152.69 38.0026 152.452 38.2678 152.283 38.5959C152.117 38.9207 152.034 39.2737 152.034 39.6548V40.5249C152.034 41.0353 152.123 41.4695 152.302 41.8274C152.485 42.1854 152.738 42.4588 153.063 42.6477C153.388 42.8333 153.767 42.9261 154.202 42.9261C154.483 42.9261 154.74 42.8864 154.972 42.8068C155.204 42.724 155.405 42.6013 155.574 42.4389C155.743 42.2765 155.872 42.076 155.962 41.8374L157.368 42.0909C157.256 42.5052 157.054 42.8681 156.762 43.1797C156.474 43.4879 156.111 43.7282 155.673 43.9006C155.239 44.0696 154.743 44.1541 154.187 44.1541ZM161.405 44.169C160.921 44.169 160.483 44.0795 160.092 43.9006C159.701 43.7183 159.391 43.4548 159.162 43.1101C158.937 42.7654 158.824 42.3428 158.824 41.8423C158.824 41.4115 158.907 41.0568 159.073 40.7784C159.239 40.5 159.462 40.2796 159.744 40.1172C160.026 39.9548 160.341 39.8321 160.689 39.7493C161.037 39.6664 161.391 39.6035 161.753 39.5604C162.21 39.5073 162.581 39.4643 162.866 39.4311C163.151 39.3946 163.358 39.3366 163.488 39.2571C163.617 39.1776 163.682 39.0483 163.682 38.8693V38.8345C163.682 38.4003 163.559 38.0639 163.314 37.8253C163.072 37.5866 162.71 37.4673 162.23 37.4673C161.729 37.4673 161.335 37.5784 161.047 37.8004C160.762 38.0192 160.564 38.2628 160.455 38.5312L159.058 38.2131C159.224 37.7491 159.466 37.3745 159.784 37.0895C160.105 36.8011 160.475 36.5923 160.892 36.4631C161.31 36.3305 161.749 36.2642 162.21 36.2642C162.515 36.2642 162.838 36.3007 163.179 36.3736C163.524 36.4432 163.846 36.5724 164.144 36.7614C164.446 36.9503 164.692 37.2204 164.885 37.5717C165.077 37.9197 165.173 38.3722 165.173 38.929V44H163.721V42.956H163.662C163.566 43.1482 163.421 43.3371 163.229 43.5227C163.037 43.7083 162.79 43.8625 162.488 43.9851C162.187 44.1077 161.825 44.169 161.405 44.169ZM161.728 42.9759C162.139 42.9759 162.49 42.8946 162.782 42.7322C163.077 42.5698 163.3 42.3577 163.453 42.0959C163.609 41.8307 163.687 41.5473 163.687 41.2457V40.2614C163.633 40.3144 163.531 40.3641 163.378 40.4105C163.229 40.4536 163.058 40.4917 162.866 40.5249C162.674 40.5547 162.487 40.5829 162.304 40.6094C162.122 40.6326 161.97 40.6525 161.847 40.669C161.559 40.7055 161.295 40.7668 161.057 40.853C160.821 40.9392 160.632 41.0634 160.49 41.2259C160.351 41.3849 160.281 41.5971 160.281 41.8622C160.281 42.2301 160.417 42.5085 160.689 42.6974C160.96 42.883 161.307 42.9759 161.728 42.9759ZM167.223 44V36.3636H168.66V37.5767H168.739C168.879 37.1657 169.124 36.8426 169.475 36.6072C169.83 36.3686 170.231 36.2493 170.678 36.2493C170.771 36.2493 170.88 36.2526 171.006 36.2592C171.136 36.2659 171.237 36.2741 171.31 36.2841V37.706C171.25 37.6894 171.144 37.6712 170.991 37.6513C170.839 37.6281 170.687 37.6165 170.534 37.6165C170.183 37.6165 169.87 37.6911 169.594 37.8402C169.323 37.986 169.107 38.1899 168.948 38.4517C168.789 38.7102 168.709 39.0052 168.709 39.3366V44H167.223ZM174.153 33.8182V44H172.666V33.8182H174.153ZM177.162 46.8636C176.94 46.8636 176.738 46.8454 176.555 46.8089C176.373 46.7758 176.237 46.7393 176.148 46.6996L176.506 45.4815C176.777 45.5545 177.019 45.5859 177.232 45.576C177.444 45.5661 177.631 45.4865 177.793 45.3374C177.959 45.1882 178.105 44.9446 178.231 44.6065L178.415 44.0994L175.621 36.3636H177.212L179.146 42.2898H179.225L181.159 36.3636H182.755L179.608 45.0192C179.462 45.4169 179.277 45.7533 179.051 46.0284C178.826 46.3068 178.557 46.5156 178.246 46.6548C177.934 46.794 177.573 46.8636 177.162 46.8636Z" fill="url(#paint8_linear_139_3403)"/>
<path d="M44.9588 90.6364V74.2727H46.0071V90.6364H44.9588ZM47.7393 79.674C47.6882 79.1584 47.4688 78.7578 47.081 78.4723C46.6932 78.1868 46.1669 78.044 45.5021 78.044C45.0504 78.044 44.669 78.108 44.358 78.2358C44.0469 78.3594 43.8082 78.532 43.642 78.7536C43.4801 78.9751 43.3991 79.2266 43.3991 79.5078C43.3906 79.7422 43.4396 79.9467 43.5462 80.1214C43.657 80.2962 43.8082 80.4474 44 80.5753C44.1918 80.6989 44.4134 80.8075 44.6648 80.9013C44.9162 80.9908 45.1847 81.0675 45.4702 81.1314L46.6463 81.4126C47.2173 81.5405 47.7415 81.7109 48.2188 81.924C48.696 82.1371 49.1094 82.3991 49.4588 82.7102C49.8082 83.0213 50.0788 83.3878 50.2706 83.8097C50.4666 84.2315 50.5668 84.7152 50.571 85.2607C50.5668 86.0618 50.3622 86.7564 49.9574 87.3445C49.5568 87.9283 48.9773 88.3821 48.2188 88.706C47.4645 89.0256 46.5547 89.1854 45.4893 89.1854C44.4325 89.1854 43.5121 89.0234 42.728 88.6996C41.9482 88.3757 41.3388 87.8963 40.8999 87.2614C40.4652 86.6222 40.2372 85.8317 40.2159 84.8899H42.8942C42.924 85.3288 43.0497 85.6953 43.2713 85.9893C43.4972 86.2791 43.7976 86.4986 44.1726 86.6477C44.5518 86.7926 44.9801 86.8651 45.4574 86.8651C45.9261 86.8651 46.3331 86.7969 46.6783 86.6605C47.0277 86.5241 47.2983 86.3345 47.4901 86.0916C47.6818 85.8487 47.7777 85.5696 47.7777 85.2543C47.7777 84.9602 47.6903 84.7131 47.5156 84.5128C47.3452 84.3125 47.0938 84.142 46.7614 84.0014C46.4332 83.8608 46.0305 83.733 45.5533 83.6179L44.1278 83.2599C43.0241 82.9915 42.1527 82.5717 41.5135 82.0007C40.8743 81.4297 40.5568 80.6605 40.5611 79.6932C40.5568 78.9006 40.7678 78.2081 41.1939 77.6158C41.6243 77.0234 42.2145 76.5611 42.9645 76.2287C43.7145 75.8963 44.5668 75.7301 45.5213 75.7301C46.4929 75.7301 47.3409 75.8963 48.0653 76.2287C48.794 76.5611 49.3608 77.0234 49.7656 77.6158C50.1705 78.2081 50.3793 78.8942 50.392 79.674H47.7393ZM57.5788 89.2876C56.4794 89.2834 55.5334 89.0128 54.7407 88.4759C53.9524 87.9389 53.3451 87.1612 52.919 86.1428C52.4971 85.1243 52.2883 83.8991 52.2926 82.4673C52.2926 81.0398 52.5035 79.8232 52.9254 78.8175C53.3515 77.8118 53.9588 77.0469 54.7471 76.5227C55.5398 75.9943 56.4836 75.7301 57.5788 75.7301C58.674 75.7301 59.6157 75.9943 60.4041 76.5227C61.1967 77.0511 61.8061 77.8182 62.2322 78.8239C62.6584 79.8253 62.8693 81.0398 62.865 82.4673C62.865 83.9034 62.652 85.1307 62.2258 86.1491C61.804 87.1676 61.1988 87.9453 60.4105 88.4822C59.6221 89.0192 58.6782 89.2876 57.5788 89.2876ZM57.5788 86.9929C58.3288 86.9929 58.9275 86.6158 59.375 85.8615C59.8224 85.1072 60.044 83.9759 60.0398 82.4673C60.0398 81.4744 59.9375 80.6477 59.7329 79.9872C59.5326 79.3267 59.2471 78.8303 58.8764 78.4979C58.5099 78.1655 58.0774 77.9993 57.5788 77.9993C56.8331 77.9993 56.2365 78.3722 55.789 79.1179C55.3416 79.8636 55.1157 80.9801 55.1115 82.4673C55.1115 83.473 55.2116 84.3125 55.4119 84.9858C55.6165 85.6548 55.9041 86.1577 56.2748 86.4943C56.6456 86.8267 57.0802 86.9929 57.5788 86.9929Z" fill="url(#paint9_linear_139_3403)"/>
<rect x="37" y="108" width="30" height="3" rx="1.5" fill="#D1D5DB"/>
<rect x="31.5" y="118" width="41" height="3" rx="1.5" fill="#D1D5DB"/>
<rect x="37" y="128" width="30" height="3" rx="1.5" fill="#D1D5DB"/>
<g clip-path="url(#clip0_139_3403)">
<path d="M90.9588 90.6364V74.2727H92.0071V90.6364H90.9588ZM93.7393 79.674C93.6882 79.1584 93.4688 78.7578 93.081 78.4723C92.6932 78.1868 92.1669 78.044 91.5021 78.044C91.0504 78.044 90.669 78.108 90.358 78.2358C90.0469 78.3594 89.8082 78.532 89.642 78.7536C89.4801 78.9751 89.3991 79.2266 89.3991 79.5078C89.3906 79.7422 89.4396 79.9467 89.5462 80.1214C89.657 80.2962 89.8082 80.4474 90 80.5753C90.1918 80.6989 90.4134 80.8075 90.6648 80.9013C90.9162 80.9908 91.1847 81.0675 91.4702 81.1314L92.6463 81.4126C93.2173 81.5405 93.7415 81.7109 94.2188 81.924C94.696 82.1371 95.1094 82.3991 95.4588 82.7102C95.8082 83.0213 96.0788 83.3878 96.2706 83.8097C96.4666 84.2315 96.5668 84.7152 96.571 85.2607C96.5668 86.0618 96.3622 86.7564 95.9574 87.3445C95.5568 87.9283 94.9773 88.3821 94.2188 88.706C93.4645 89.0256 92.5547 89.1854 91.4893 89.1854C90.4325 89.1854 89.5121 89.0234 88.728 88.6996C87.9482 88.3757 87.3388 87.8963 86.8999 87.2614C86.4652 86.6222 86.2372 85.8317 86.2159 84.8899H88.8942C88.924 85.3288 89.0497 85.6953 89.2713 85.9893C89.4972 86.2791 89.7976 86.4986 90.1726 86.6477C90.5518 86.7926 90.9801 86.8651 91.4574 86.8651C91.9261 86.8651 92.3331 86.7969 92.6783 86.6605C93.0277 86.5241 93.2983 86.3345 93.4901 86.0916C93.6818 85.8487 93.7777 85.5696 93.7777 85.2543C93.7777 84.9602 93.6903 84.7131 93.5156 84.5128C93.3452 84.3125 93.0938 84.142 92.7614 84.0014C92.4332 83.8608 92.0305 83.733 91.5533 83.6179L90.1278 83.2599C89.0241 82.9915 88.1527 82.5717 87.5135 82.0007C86.8743 81.4297 86.5568 80.6605 86.5611 79.6932C86.5568 78.9006 86.7678 78.2081 87.1939 77.6158C87.6243 77.0234 88.2145 76.5611 88.9645 76.2287C89.7145 75.8963 90.5668 75.7301 91.5213 75.7301C92.4929 75.7301 93.3409 75.8963 94.0653 76.2287C94.794 76.5611 95.3608 77.0234 95.7656 77.6158C96.1705 78.2081 96.3793 78.8942 96.392 79.674H93.7393ZM98.446 89V87.0057L103.106 82.6911C103.502 82.3075 103.834 81.9624 104.103 81.6555C104.376 81.3487 104.582 81.0483 104.723 80.7543C104.864 80.456 104.934 80.1342 104.934 79.7891C104.934 79.4055 104.847 79.0753 104.672 78.7983C104.497 78.517 104.259 78.3018 103.956 78.1527C103.653 77.9993 103.31 77.9226 102.927 77.9226C102.526 77.9226 102.177 78.0036 101.879 78.1655C101.58 78.3274 101.35 78.5597 101.188 78.8622C101.026 79.1648 100.945 79.5249 100.945 79.9425H98.3182C98.3182 79.0859 98.5121 78.3423 98.8998 77.7116C99.2876 77.081 99.8309 76.593 100.53 76.2479C101.229 75.9027 102.034 75.7301 102.946 75.7301C103.884 75.7301 104.7 75.8963 105.394 76.2287C106.093 76.5568 106.636 77.0128 107.024 77.5966C107.412 78.1804 107.606 78.8494 107.606 79.6037C107.606 80.098 107.508 80.5859 107.312 81.0675C107.12 81.549 106.777 82.0838 106.283 82.6719C105.788 83.2557 105.092 83.9567 104.192 84.7749L102.281 86.6477V86.7372H107.778V89H98.446Z" fill="url(#paint10_linear_139_3403)"/>
<path d="M116.445 81.179C115.46 81.179 114.585 81.0192 113.817 80.6996C113.055 80.3757 112.456 79.9347 112.021 79.3764C111.587 78.8182 111.369 78.1854 111.369 77.478C111.369 76.9325 111.493 76.4318 111.74 75.9759C111.991 75.5156 112.332 75.1342 112.763 74.8317C113.193 74.5249 113.675 74.3288 114.207 74.2436V74.1541C113.509 74.0135 112.942 73.6747 112.507 73.1378C112.072 72.5966 111.855 71.968 111.855 71.2521C111.855 70.5746 112.053 69.9716 112.45 69.4432C112.846 68.9105 113.389 68.4929 114.08 68.1903C114.774 67.8835 115.562 67.7301 116.445 67.7301C117.327 67.7301 118.113 67.8835 118.803 68.1903C119.498 68.4972 120.043 68.9169 120.44 69.4496C120.836 69.978 121.036 70.5788 121.04 71.2521C121.036 71.9723 120.815 72.6009 120.376 73.1378C119.937 73.6747 119.374 74.0135 118.688 74.1541V74.2436C119.212 74.3288 119.688 74.5249 120.114 74.8317C120.544 75.1342 120.885 75.5156 121.136 75.9759C121.392 76.4318 121.522 76.9325 121.526 77.478C121.522 78.1854 121.303 78.8182 120.868 79.3764C120.433 79.9347 119.832 80.3757 119.065 80.6996C118.303 81.0192 117.429 81.179 116.445 81.179ZM116.445 79.1463C116.884 79.1463 117.267 79.0675 117.595 78.9098C117.923 78.7479 118.179 78.5263 118.362 78.245C118.55 77.9595 118.643 77.6314 118.643 77.2607C118.643 76.8814 118.548 76.5469 118.356 76.2571C118.164 75.9631 117.904 75.733 117.576 75.5668C117.248 75.3963 116.871 75.3111 116.445 75.3111C116.023 75.3111 115.646 75.3963 115.313 75.5668C114.981 75.733 114.719 75.9631 114.527 76.2571C114.339 76.5469 114.246 76.8814 114.246 77.2607C114.246 77.6314 114.337 77.9595 114.521 78.245C114.704 78.5263 114.962 78.7479 115.294 78.9098C115.626 79.0675 116.01 79.1463 116.445 79.1463ZM116.445 73.2976C116.811 73.2976 117.137 73.223 117.423 73.0739C117.708 72.9247 117.932 72.718 118.094 72.4538C118.256 72.1896 118.337 71.8849 118.337 71.5398C118.337 71.1989 118.256 70.9006 118.094 70.6449C117.932 70.3849 117.71 70.1825 117.429 70.0376C117.148 69.8885 116.82 69.8139 116.445 69.8139C116.074 69.8139 115.746 69.8885 115.46 70.0376C115.175 70.1825 114.951 70.3849 114.789 70.6449C114.631 70.9006 114.553 71.1989 114.553 71.5398C114.553 71.8849 114.634 72.1896 114.795 72.4538C114.957 72.718 115.181 72.9247 115.467 73.0739C115.752 73.223 116.078 73.2976 116.445 73.2976Z" fill="#C4B5FD"/>
<path d="M116.298 87.7301C116.971 87.7301 117.619 87.843 118.241 88.0689C118.867 88.2947 119.425 88.6548 119.915 89.1491C120.41 89.6435 120.8 90.2997 121.085 91.1179C121.375 91.9318 121.522 92.9311 121.526 94.1158C121.526 95.228 121.401 96.2209 121.149 97.0945C120.902 97.9638 120.546 98.7031 120.082 99.3125C119.617 99.9219 119.057 100.386 118.401 100.706C117.744 101.021 117.011 101.179 116.202 101.179C115.328 101.179 114.557 101.011 113.888 100.674C113.219 100.333 112.68 99.8707 112.271 99.2869C111.866 98.6989 111.621 98.0384 111.536 97.3054H114.265C114.371 97.7827 114.595 98.1534 114.936 98.4176C115.277 98.6776 115.699 98.8075 116.202 98.8075C117.054 98.8075 117.702 98.4368 118.145 97.6953C118.588 96.9496 118.812 95.929 118.816 94.6335H118.727C118.531 95.017 118.266 95.3473 117.934 95.6243C117.602 95.897 117.22 96.108 116.79 96.2571C116.364 96.4062 115.91 96.4808 115.428 96.4808C114.657 96.4808 113.969 96.2997 113.364 95.9375C112.759 95.5753 112.281 95.0767 111.932 94.4418C111.582 93.8068 111.408 93.0824 111.408 92.2685C111.403 91.3906 111.606 90.6087 112.015 89.9226C112.424 89.2365 112.995 88.6996 113.728 88.3118C114.465 87.9197 115.322 87.7259 116.298 87.7301ZM116.317 89.9034C115.886 89.9034 115.503 90.0057 115.166 90.2102C114.834 90.4148 114.57 90.6896 114.374 91.0348C114.182 91.38 114.088 91.7656 114.092 92.1918C114.092 92.6222 114.186 93.0099 114.374 93.3551C114.565 93.696 114.825 93.9687 115.153 94.1733C115.486 94.3736 115.865 94.4737 116.291 94.4737C116.611 94.4737 116.907 94.4141 117.18 94.2947C117.452 94.1754 117.689 94.0114 117.889 93.8026C118.094 93.5895 118.254 93.3445 118.369 93.0675C118.484 92.7905 118.541 92.4964 118.541 92.1854C118.537 91.772 118.439 91.3928 118.247 91.0476C118.055 90.7024 117.791 90.4254 117.455 90.2166C117.118 90.0078 116.739 89.9034 116.317 89.9034Z" fill="url(#paint11_linear_139_3403)"/>
</g>
<rect x="89" y="108" width="30" height="3" rx="1.5" fill="#D1D5DB"/>
<rect x="83.5" y="118" width="41" height="3" rx="1.5" fill="#D1D5DB"/>
<rect x="89" y="128" width="30" height="3" rx="1.5" fill="#D1D5DB"/>
<g clip-path="url(#clip1_139_3403)">
<path d="M141.959 90.6364V74.2727H143.007V90.6364H141.959ZM144.739 79.674C144.688 79.1584 144.469 78.7578 144.081 78.4723C143.693 78.1868 143.167 78.044 142.502 78.044C142.05 78.044 141.669 78.108 141.358 78.2358C141.047 78.3594 140.808 78.532 140.642 78.7536C140.48 78.9751 140.399 79.2266 140.399 79.5078C140.391 79.7422 140.44 79.9467 140.546 80.1214C140.657 80.2962 140.808 80.4474 141 80.5753C141.192 80.6989 141.413 80.8075 141.665 80.9013C141.916 80.9908 142.185 81.0675 142.47 81.1314L143.646 81.4126C144.217 81.5405 144.741 81.7109 145.219 81.924C145.696 82.1371 146.109 82.3991 146.459 82.7102C146.808 83.0213 147.079 83.3878 147.271 83.8097C147.467 84.2315 147.567 84.7152 147.571 85.2607C147.567 86.0618 147.362 86.7564 146.957 87.3445C146.557 87.9283 145.977 88.3821 145.219 88.706C144.464 89.0256 143.555 89.1854 142.489 89.1854C141.433 89.1854 140.512 89.0234 139.728 88.6996C138.948 88.3757 138.339 87.8963 137.9 87.2614C137.465 86.6222 137.237 85.8317 137.216 84.8899H139.894C139.924 85.3288 140.05 85.6953 140.271 85.9893C140.497 86.2791 140.798 86.4986 141.173 86.6477C141.552 86.7926 141.98 86.8651 142.457 86.8651C142.926 86.8651 143.333 86.7969 143.678 86.6605C144.028 86.5241 144.298 86.3345 144.49 86.0916C144.682 85.8487 144.778 85.5696 144.778 85.2543C144.778 84.9602 144.69 84.7131 144.516 84.5128C144.345 84.3125 144.094 84.142 143.761 84.0014C143.433 83.8608 143.031 83.733 142.553 83.6179L141.128 83.2599C140.024 82.9915 139.153 82.5717 138.513 82.0007C137.874 81.4297 137.557 80.6605 137.561 79.6932C137.557 78.9006 137.768 78.2081 138.194 77.6158C138.624 77.0234 139.214 76.5611 139.964 76.2287C140.714 75.8963 141.567 75.7301 142.521 75.7301C143.493 75.7301 144.341 75.8963 145.065 76.2287C145.794 76.5611 146.361 77.0234 146.766 77.6158C147.17 78.2081 147.379 78.8942 147.392 79.674H144.739Z" fill="url(#paint12_linear_139_3403)"/>
<path d="M155.342 74.179C154.439 74.179 153.634 74.0128 152.926 73.6804C152.223 73.348 151.665 72.8899 151.251 72.3061C150.838 71.7223 150.623 71.0533 150.606 70.299H153.29C153.32 70.8061 153.533 71.2173 153.93 71.5327C154.326 71.848 154.797 72.0057 155.342 72.0057C155.777 72.0057 156.161 71.9098 156.493 71.718C156.83 71.522 157.092 71.2514 157.279 70.9062C157.471 70.5568 157.567 70.1562 157.567 69.7045C157.567 69.2443 157.469 68.8395 157.273 68.4901C157.081 68.1406 156.815 67.8679 156.474 67.6719C156.133 67.4759 155.743 67.3757 155.304 67.3714C154.92 67.3714 154.548 67.4503 154.185 67.608C153.827 67.7656 153.548 67.9808 153.348 68.2536L150.887 67.8125L151.507 60.9091H159.51V63.1719H153.789L153.45 66.451H153.527C153.757 66.1271 154.104 65.8587 154.569 65.6456C155.033 65.4325 155.553 65.326 156.129 65.326C156.917 65.326 157.62 65.5114 158.238 65.8821C158.856 66.2528 159.344 66.7621 159.702 67.4098C160.06 68.0533 160.237 68.7947 160.232 69.6342C160.237 70.5163 160.032 71.3004 159.619 71.9865C159.21 72.6683 158.636 73.2053 157.899 73.5973C157.166 73.9851 156.314 74.179 155.342 74.179Z" fill="#C4B5FD"/>
<path d="M150.363 91.6989V89.5192L155.828 80.9091H157.707V83.9261H156.595L153.15 89.3786V89.4808H160.916V91.6989H150.363ZM156.646 94V91.0341L156.697 90.0689V80.9091H159.293V94H156.646Z" fill="url(#paint13_linear_139_3403)"/>
<path d="M169.298 75.7301C169.971 75.7301 170.619 75.843 171.241 76.0689C171.867 76.2947 172.425 76.6548 172.915 77.1491C173.41 77.6435 173.8 78.2997 174.085 79.1179C174.375 79.9318 174.522 80.9311 174.526 82.1158C174.526 83.228 174.401 84.2209 174.149 85.0945C173.902 85.9638 173.546 86.7031 173.082 87.3125C172.617 87.9219 172.057 88.3864 171.401 88.706C170.744 89.0213 170.011 89.179 169.202 89.179C168.328 89.179 167.557 89.0107 166.888 88.674C166.219 88.3331 165.68 87.8707 165.271 87.2869C164.866 86.6989 164.621 86.0384 164.536 85.3054H167.265C167.371 85.7827 167.595 86.1534 167.936 86.4176C168.277 86.6776 168.699 86.8075 169.202 86.8075C170.054 86.8075 170.702 86.4368 171.145 85.6953C171.588 84.9496 171.812 83.929 171.816 82.6335H171.727C171.531 83.017 171.266 83.3473 170.934 83.6243C170.602 83.897 170.22 84.108 169.79 84.2571C169.364 84.4062 168.91 84.4808 168.428 84.4808C167.657 84.4808 166.969 84.2997 166.364 83.9375C165.759 83.5753 165.281 83.0767 164.932 82.4418C164.582 81.8068 164.408 81.0824 164.408 80.2685C164.403 79.3906 164.606 78.6087 165.015 77.9226C165.424 77.2365 165.995 76.6996 166.728 76.3118C167.465 75.9197 168.322 75.7259 169.298 75.7301ZM169.317 77.9034C168.886 77.9034 168.503 78.0057 168.166 78.2102C167.834 78.4148 167.57 78.6896 167.374 79.0348C167.182 79.38 167.088 79.7656 167.092 80.1918C167.092 80.6222 167.186 81.0099 167.374 81.3551C167.565 81.696 167.825 81.9687 168.153 82.1733C168.486 82.3736 168.865 82.4737 169.291 82.4737C169.611 82.4737 169.907 82.4141 170.18 82.2947C170.452 82.1754 170.689 82.0114 170.889 81.8026C171.094 81.5895 171.254 81.3445 171.369 81.0675C171.484 80.7905 171.541 80.4964 171.541 80.1854C171.537 79.772 171.439 79.3928 171.247 79.0476C171.055 78.7024 170.791 78.4254 170.455 78.2166C170.118 78.0078 169.739 77.9034 169.317 77.9034Z" fill="url(#paint14_linear_139_3403)"/>
</g>
<rect x="141" y="108" width="30" height="3" rx="1.5" fill="#D1D5DB"/>
<rect x="135.5" y="118" width="41" height="3" rx="1.5" fill="#D1D5DB"/>
<rect x="141" y="128" width="30" height="3" rx="1.5" fill="#D1D5DB"/>
<g filter="url(#filter0_d_139_3403)">
<path d="M122.802 52.619L122.216 41.9394C122.126 40.3039 123.933 39.26 125.305 40.1544L134.314 46.0265C135.888 47.0523 135.307 49.4856 133.439 49.6901L129.976 50.0694C129.435 50.1286 128.941 50.4061 128.609 50.8377L126.384 53.7293C125.252 55.1991 122.903 54.471 122.802 52.619Z" fill="white"/>
<path d="M122.802 52.619L122.216 41.9394C122.126 40.3039 123.933 39.26 125.305 40.1544L134.314 46.0265C135.888 47.0523 135.307 49.4856 133.439 49.6901L129.976 50.0694C129.435 50.1286 128.941 50.4061 128.609 50.8377L126.384 53.7293C125.252 55.1991 122.903 54.471 122.802 52.619Z" stroke="#3B82F6" stroke-width="2"/>
</g>
<path d="M5 131H203" stroke="url(#paint15_linear_139_3403)"/>
<path d="M10 136H198" stroke="url(#paint16_linear_139_3403)"/>
<defs>
<filter id="filter0_d_139_3403" x="109.213" y="32.824" width="39.0117" height="40.6901" filterUnits="userSpaceOnUse" color-interpolation-filters="sRGB">
<feFlood flood-opacity="0" result="BackgroundImageFix"/>
<feColorMatrix in="SourceAlpha" type="matrix" values="0 0 0 0 0 0 0 0 0 0 0 0 0 0 0 0 0 0 127 0" result="hardAlpha"/>
<feOffset dy="6"/>
<feGaussianBlur stdDeviation="6"/>
<feComposite in2="hardAlpha" operator="out"/>
<feColorMatrix type="matrix" values="0 0 0 0 0 0 0 0 0 0 0 0 0 0 0 0 0 0 0.03 0"/>
<feBlend mode="normal" in2="BackgroundImageFix" result="effect1_dropShadow_139_3403"/>
<feBlend mode="normal" in="SourceGraphic" in2="effect1_dropShadow_139_3403" result="shape"/>
</filter>
<linearGradient id="paint0_linear_139_3403" x1="20.5" y1="153" x2="20.5" y2="5" gradientUnits="userSpaceOnUse">
<stop offset="0%" stop-color="#E2E8F0" stop-opacity="0"/>
<stop offset="0.185417" stop-color="#E2E8F0"/>
<stop offset="0.826042" stop-color="#E2E8F0"/>
<stop offset="1" stop-color="#E2E8F0" stop-opacity="0"/>
</linearGradient>
<linearGradient id="paint1_linear_139_3403" x1="25.5" y1="158" x2="25.5" y2="-2.74062e-08" gradientUnits="userSpaceOnUse">
<stop offset="0%" stop-color="#E2E8F0" stop-opacity="0"/>
<stop offset="0.185417" stop-color="#E2E8F0"/>
<stop offset="0.826042" stop-color="#E2E8F0"/>
<stop offset="1" stop-color="#E2E8F0" stop-opacity="0"/>
</linearGradient>
<linearGradient id="paint2_linear_139_3403" x1="183.5" y1="2.74063e-08" x2="183.5" y2="158" gradientUnits="userSpaceOnUse">
<stop offset="0%" stop-color="#E2E8F0" stop-opacity="0"/>
<stop offset="0.185417" stop-color="#E2E8F0"/>
<stop offset="0.826042" stop-color="#E2E8F0"/>
<stop offset="1" stop-color="#E2E8F0" stop-opacity="0"/>
</linearGradient>
<linearGradient id="paint3_linear_139_3403" x1="188.5" y1="5" x2="188.5" y2="153" gradientUnits="userSpaceOnUse">
<stop offset="0%" stop-color="#E2E8F0" stop-opacity="0"/>
<stop offset="0.185417" stop-color="#E2E8F0"/>
<stop offset="0.826042" stop-color="#E2E8F0"/>
<stop offset="1" stop-color="#E2E8F0" stop-opacity="0"/>
</linearGradient>
<linearGradient id="paint4_linear_139_3403" x1="199.899" y1="22.5" x2="10" y2="22.4999" gradientUnits="userSpaceOnUse">
<stop offset="0%" stop-color="#E2E8F0" stop-opacity="0"/>
<stop offset="0.185417" stop-color="#E2E8F0"/>
<stop offset="0.826042" stop-color="#E2E8F0"/>
<stop offset="1" stop-color="#E2E8F0" stop-opacity="0"/>
</linearGradient>
<linearGradient id="paint5_linear_139_3403" x1="205" y1="27.5" x2="5" y2="27.4999" gradientUnits="userSpaceOnUse">
<stop offset="0%" stop-color="#E2E8F0" stop-opacity="0"/>
<stop offset="0.185417" stop-color="#E2E8F0"/>
<stop offset="0.826042" stop-color="#E2E8F0"/>
<stop offset="1" stop-color="#E2E8F0" stop-opacity="0"/>
</linearGradient>
<linearGradient id="paint6_linear_139_3403" x1="32.6714" y1="31.08" x2="54.9574" y2="64.6616" gradientUnits="userSpaceOnUse">
<stop offset="0%" stop-color="#A855F7"/>
<stop offset="1" stop-color="#3B82F6"/>
</linearGradient>
<linearGradient id="paint7_linear_139_3403" x1="112.471" y1="31.08" x2="132.856" y2="42.2496" gradientUnits="userSpaceOnUse">
<stop offset="0%" stop-color="#A855F7"/>
<stop offset="1" stop-color="#3B82F6"/>
</linearGradient>
<linearGradient id="paint8_linear_139_3403" x1="147.74" y1="31.08" x2="171.689" y2="58.6382" gradientUnits="userSpaceOnUse">
<stop offset="0%" stop-color="#A855F7"/>
<stop offset="1" stop-color="#3B82F6"/>
</linearGradient>
<linearGradient id="paint9_linear_139_3403" x1="43.2143" y1="73.288" x2="67.0889" y2="88.1539" gradientUnits="userSpaceOnUse">
<stop offset="0%" stop-color="#A855F7"/>
<stop offset="1" stop-color="#3B82F6"/>
</linearGradient>
<linearGradient id="paint10_linear_139_3403" x1="89.0657" y1="73.288" x2="112.499" y2="87.2952" gradientUnits="userSpaceOnUse">
<stop offset="0%" stop-color="#A855F7"/>
<stop offset="1" stop-color="#3B82F6"/>
</linearGradient>
<linearGradient id="paint11_linear_139_3403" x1="112.283" y1="85.08" x2="126.635" y2="89.7984" gradientUnits="userSpaceOnUse">
<stop offset="0%" stop-color="#A855F7"/>
<stop offset="1" stop-color="#3B82F6"/>
</linearGradient>
<linearGradient id="paint12_linear_139_3403" x1="138.283" y1="73.288" x2="152.882" y2="77.6513" gradientUnits="userSpaceOnUse">
<stop offset="0%" stop-color="#A855F7"/>
<stop offset="1" stop-color="#3B82F6"/>
</linearGradient>
<linearGradient id="paint13_linear_139_3403" x1="151.431" y1="78.08" x2="166.72" y2="83.5253" gradientUnits="userSpaceOnUse">
<stop offset="0%" stop-color="#A855F7"/>
<stop offset="1" stop-color="#3B82F6"/>
</linearGradient>
<linearGradient id="paint14_linear_139_3403" x1="165.283" y1="73.288" x2="179.882" y2="77.6513" gradientUnits="userSpaceOnUse">
<stop offset="0%" stop-color="#A855F7"/>
<stop offset="1" stop-color="#3B82F6"/>
</linearGradient>
<linearGradient id="paint15_linear_139_3403" x1="205" y1="131.5" x2="5" y2="131.5" gradientUnits="userSpaceOnUse">
<stop offset="0%" stop-color="#E2E8F0" stop-opacity="0"/>
<stop offset="0.185417" stop-color="#E2E8F0"/>
<stop offset="0.826042" stop-color="#E2E8F0"/>
<stop offset="1" stop-color="#E2E8F0" stop-opacity="0"/>
</linearGradient>
<linearGradient id="paint16_linear_139_3403" x1="199.899" y1="136.5" x2="10" y2="136.5" gradientUnits="userSpaceOnUse">
<stop offset="0%" stop-color="#E2E8F0" stop-opacity="0"/>
<stop offset="0.185417" stop-color="#E2E8F0"/>
<stop offset="0.826042" stop-color="#E2E8F0"/>
<stop offset="1" stop-color="#E2E8F0" stop-opacity="0"/>
</linearGradient>
<clipPath id="clip0_139_3403">
<rect width="37" height="22" fill="white" transform="translate(85.5 71)"/>
</clipPath>
<clipPath id="clip1_139_3403">
<rect width="39" height="22" fill="white" transform="translate(136.5 71)"/>
</clipPath>
</defs>
</svg>
